G04 #@! TF.GenerationSoftware,KiCad,Pcbnew,(5.1.2)-1*
G04 #@! TF.CreationDate,2020-04-13T00:24:57+02:00*
G04 #@! TF.ProjectId,Plasma-PSU_PCB-B_Flyback-HV,506c6173-6d61-42d5-9053-555f5043422d,0.0.1*
G04 #@! TF.SameCoordinates,Original*
G04 #@! TF.FileFunction,Legend,Top*
G04 #@! TF.FilePolarity,Positive*
%FSLAX46Y46*%
G04 Gerber Fmt 4.6, Leading zero omitted, Abs format (unit mm)*
G04 Created by KiCad (PCBNEW (5.1.2)-1) date 2020-04-13 00:24:57*
%MOMM*%
%LPD*%
G04 APERTURE LIST*
%ADD10C,0.150000*%
%ADD11C,0.450000*%
%ADD12C,0.120000*%
G04 APERTURE END LIST*
D10*
X67390000Y-144407380D02*
X67390000Y-143407380D01*
X67770952Y-143407380D01*
X67866190Y-143455000D01*
X67913809Y-143502619D01*
X67961428Y-143597857D01*
X67961428Y-143740714D01*
X67913809Y-143835952D01*
X67866190Y-143883571D01*
X67770952Y-143931190D01*
X67390000Y-143931190D01*
X68532857Y-144407380D02*
X68437619Y-144359761D01*
X68390000Y-144264523D01*
X68390000Y-143407380D01*
X69342380Y-144407380D02*
X69342380Y-143883571D01*
X69294761Y-143788333D01*
X69199523Y-143740714D01*
X69009047Y-143740714D01*
X68913809Y-143788333D01*
X69342380Y-144359761D02*
X69247142Y-144407380D01*
X69009047Y-144407380D01*
X68913809Y-144359761D01*
X68866190Y-144264523D01*
X68866190Y-144169285D01*
X68913809Y-144074047D01*
X69009047Y-144026428D01*
X69247142Y-144026428D01*
X69342380Y-143978809D01*
X69770952Y-144359761D02*
X69866190Y-144407380D01*
X70056666Y-144407380D01*
X70151904Y-144359761D01*
X70199523Y-144264523D01*
X70199523Y-144216904D01*
X70151904Y-144121666D01*
X70056666Y-144074047D01*
X69913809Y-144074047D01*
X69818571Y-144026428D01*
X69770952Y-143931190D01*
X69770952Y-143883571D01*
X69818571Y-143788333D01*
X69913809Y-143740714D01*
X70056666Y-143740714D01*
X70151904Y-143788333D01*
X70628095Y-144407380D02*
X70628095Y-143740714D01*
X70628095Y-143835952D02*
X70675714Y-143788333D01*
X70770952Y-143740714D01*
X70913809Y-143740714D01*
X71009047Y-143788333D01*
X71056666Y-143883571D01*
X71056666Y-144407380D01*
X71056666Y-143883571D02*
X71104285Y-143788333D01*
X71199523Y-143740714D01*
X71342380Y-143740714D01*
X71437619Y-143788333D01*
X71485238Y-143883571D01*
X71485238Y-144407380D01*
X72390000Y-144407380D02*
X72390000Y-143883571D01*
X72342380Y-143788333D01*
X72247142Y-143740714D01*
X72056666Y-143740714D01*
X71961428Y-143788333D01*
X72390000Y-144359761D02*
X72294761Y-144407380D01*
X72056666Y-144407380D01*
X71961428Y-144359761D01*
X71913809Y-144264523D01*
X71913809Y-144169285D01*
X71961428Y-144074047D01*
X72056666Y-144026428D01*
X72294761Y-144026428D01*
X72390000Y-143978809D01*
X72866190Y-144026428D02*
X73628095Y-144026428D01*
X74104285Y-144407380D02*
X74104285Y-143407380D01*
X74485238Y-143407380D01*
X74580476Y-143455000D01*
X74628095Y-143502619D01*
X74675714Y-143597857D01*
X74675714Y-143740714D01*
X74628095Y-143835952D01*
X74580476Y-143883571D01*
X74485238Y-143931190D01*
X74104285Y-143931190D01*
X75056666Y-144359761D02*
X75199523Y-144407380D01*
X75437619Y-144407380D01*
X75532857Y-144359761D01*
X75580476Y-144312142D01*
X75628095Y-144216904D01*
X75628095Y-144121666D01*
X75580476Y-144026428D01*
X75532857Y-143978809D01*
X75437619Y-143931190D01*
X75247142Y-143883571D01*
X75151904Y-143835952D01*
X75104285Y-143788333D01*
X75056666Y-143693095D01*
X75056666Y-143597857D01*
X75104285Y-143502619D01*
X75151904Y-143455000D01*
X75247142Y-143407380D01*
X75485238Y-143407380D01*
X75628095Y-143455000D01*
X76056666Y-143407380D02*
X76056666Y-144216904D01*
X76104285Y-144312142D01*
X76151904Y-144359761D01*
X76247142Y-144407380D01*
X76437619Y-144407380D01*
X76532857Y-144359761D01*
X76580476Y-144312142D01*
X76628095Y-144216904D01*
X76628095Y-143407380D01*
X63794761Y-145533571D02*
X63461428Y-145533571D01*
X63461428Y-146057380D02*
X63461428Y-145057380D01*
X63937619Y-145057380D01*
X64461428Y-146057380D02*
X64366190Y-146009761D01*
X64318571Y-145914523D01*
X64318571Y-145057380D01*
X64747142Y-145390714D02*
X64985238Y-146057380D01*
X65223333Y-145390714D02*
X64985238Y-146057380D01*
X64890000Y-146295476D01*
X64842380Y-146343095D01*
X64747142Y-146390714D01*
X65604285Y-146057380D02*
X65604285Y-145057380D01*
X65604285Y-145438333D02*
X65699523Y-145390714D01*
X65890000Y-145390714D01*
X65985238Y-145438333D01*
X66032857Y-145485952D01*
X66080476Y-145581190D01*
X66080476Y-145866904D01*
X66032857Y-145962142D01*
X65985238Y-146009761D01*
X65890000Y-146057380D01*
X65699523Y-146057380D01*
X65604285Y-146009761D01*
X66937619Y-146057380D02*
X66937619Y-145533571D01*
X66890000Y-145438333D01*
X66794761Y-145390714D01*
X66604285Y-145390714D01*
X66509047Y-145438333D01*
X66937619Y-146009761D02*
X66842380Y-146057380D01*
X66604285Y-146057380D01*
X66509047Y-146009761D01*
X66461428Y-145914523D01*
X66461428Y-145819285D01*
X66509047Y-145724047D01*
X66604285Y-145676428D01*
X66842380Y-145676428D01*
X66937619Y-145628809D01*
X67842380Y-146009761D02*
X67747142Y-146057380D01*
X67556666Y-146057380D01*
X67461428Y-146009761D01*
X67413809Y-145962142D01*
X67366190Y-145866904D01*
X67366190Y-145581190D01*
X67413809Y-145485952D01*
X67461428Y-145438333D01*
X67556666Y-145390714D01*
X67747142Y-145390714D01*
X67842380Y-145438333D01*
X68270952Y-146057380D02*
X68270952Y-145057380D01*
X68366190Y-145676428D02*
X68651904Y-146057380D01*
X68651904Y-145390714D02*
X68270952Y-145771666D01*
X69080476Y-145676428D02*
X69842380Y-145676428D01*
X70318571Y-146057380D02*
X70318571Y-145057380D01*
X70318571Y-145533571D02*
X70890000Y-145533571D01*
X70890000Y-146057380D02*
X70890000Y-145057380D01*
X71223333Y-145057380D02*
X71556666Y-146057380D01*
X71890000Y-145057380D01*
X72985238Y-146057380D02*
X72985238Y-145057380D01*
X72985238Y-145438333D02*
X73080476Y-145390714D01*
X73270952Y-145390714D01*
X73366190Y-145438333D01*
X73413809Y-145485952D01*
X73461428Y-145581190D01*
X73461428Y-145866904D01*
X73413809Y-145962142D01*
X73366190Y-146009761D01*
X73270952Y-146057380D01*
X73080476Y-146057380D01*
X72985238Y-146009761D01*
X74032857Y-146057380D02*
X73937619Y-146009761D01*
X73890000Y-145962142D01*
X73842380Y-145866904D01*
X73842380Y-145581190D01*
X73890000Y-145485952D01*
X73937619Y-145438333D01*
X74032857Y-145390714D01*
X74175714Y-145390714D01*
X74270952Y-145438333D01*
X74318571Y-145485952D01*
X74366190Y-145581190D01*
X74366190Y-145866904D01*
X74318571Y-145962142D01*
X74270952Y-146009761D01*
X74175714Y-146057380D01*
X74032857Y-146057380D01*
X75223333Y-146057380D02*
X75223333Y-145533571D01*
X75175714Y-145438333D01*
X75080476Y-145390714D01*
X74890000Y-145390714D01*
X74794761Y-145438333D01*
X75223333Y-146009761D02*
X75128095Y-146057380D01*
X74890000Y-146057380D01*
X74794761Y-146009761D01*
X74747142Y-145914523D01*
X74747142Y-145819285D01*
X74794761Y-145724047D01*
X74890000Y-145676428D01*
X75128095Y-145676428D01*
X75223333Y-145628809D01*
X75699523Y-146057380D02*
X75699523Y-145390714D01*
X75699523Y-145581190D02*
X75747142Y-145485952D01*
X75794761Y-145438333D01*
X75890000Y-145390714D01*
X75985238Y-145390714D01*
X76747142Y-146057380D02*
X76747142Y-145057380D01*
X76747142Y-146009761D02*
X76651904Y-146057380D01*
X76461428Y-146057380D01*
X76366190Y-146009761D01*
X76318571Y-145962142D01*
X76270952Y-145866904D01*
X76270952Y-145581190D01*
X76318571Y-145485952D01*
X76366190Y-145438333D01*
X76461428Y-145390714D01*
X76651904Y-145390714D01*
X76747142Y-145438333D01*
X78509047Y-146057380D02*
X77937619Y-146057380D01*
X78223333Y-146057380D02*
X78223333Y-145057380D01*
X78128095Y-145200238D01*
X78032857Y-145295476D01*
X77937619Y-145343095D01*
X78937619Y-145962142D02*
X78985238Y-146009761D01*
X78937619Y-146057380D01*
X78890000Y-146009761D01*
X78937619Y-145962142D01*
X78937619Y-146057380D01*
X79604285Y-145057380D02*
X79699523Y-145057380D01*
X79794761Y-145105000D01*
X79842380Y-145152619D01*
X79890000Y-145247857D01*
X79937619Y-145438333D01*
X79937619Y-145676428D01*
X79890000Y-145866904D01*
X79842380Y-145962142D01*
X79794761Y-146009761D01*
X79699523Y-146057380D01*
X79604285Y-146057380D01*
X79509047Y-146009761D01*
X79461428Y-145962142D01*
X79413809Y-145866904D01*
X79366190Y-145676428D01*
X79366190Y-145438333D01*
X79413809Y-145247857D01*
X79461428Y-145152619D01*
X79509047Y-145105000D01*
X79604285Y-145057380D01*
X80366190Y-145962142D02*
X80413809Y-146009761D01*
X80366190Y-146057380D01*
X80318571Y-146009761D01*
X80366190Y-145962142D01*
X80366190Y-146057380D01*
X81032857Y-145057380D02*
X81128095Y-145057380D01*
X81223333Y-145105000D01*
X81270952Y-145152619D01*
X81318571Y-145247857D01*
X81366190Y-145438333D01*
X81366190Y-145676428D01*
X81318571Y-145866904D01*
X81270952Y-145962142D01*
X81223333Y-146009761D01*
X81128095Y-146057380D01*
X81032857Y-146057380D01*
X80937619Y-146009761D01*
X80890000Y-145962142D01*
X80842380Y-145866904D01*
X80794761Y-145676428D01*
X80794761Y-145438333D01*
X80842380Y-145247857D01*
X80890000Y-145152619D01*
X80937619Y-145105000D01*
X81032857Y-145057380D01*
D11*
X153052857Y-132297142D02*
X153052857Y-129297142D01*
X154195714Y-129297142D01*
X154481428Y-129440000D01*
X154624285Y-129582857D01*
X154767142Y-129868571D01*
X154767142Y-130297142D01*
X154624285Y-130582857D01*
X154481428Y-130725714D01*
X154195714Y-130868571D01*
X153052857Y-130868571D01*
X156481428Y-132297142D02*
X156195714Y-132154285D01*
X156052857Y-131868571D01*
X156052857Y-129297142D01*
X158910000Y-132297142D02*
X158910000Y-130725714D01*
X158767142Y-130440000D01*
X158481428Y-130297142D01*
X157910000Y-130297142D01*
X157624285Y-130440000D01*
X158910000Y-132154285D02*
X158624285Y-132297142D01*
X157910000Y-132297142D01*
X157624285Y-132154285D01*
X157481428Y-131868571D01*
X157481428Y-131582857D01*
X157624285Y-131297142D01*
X157910000Y-131154285D01*
X158624285Y-131154285D01*
X158910000Y-131011428D01*
X160195714Y-132154285D02*
X160481428Y-132297142D01*
X161052857Y-132297142D01*
X161338571Y-132154285D01*
X161481428Y-131868571D01*
X161481428Y-131725714D01*
X161338571Y-131440000D01*
X161052857Y-131297142D01*
X160624285Y-131297142D01*
X160338571Y-131154285D01*
X160195714Y-130868571D01*
X160195714Y-130725714D01*
X160338571Y-130440000D01*
X160624285Y-130297142D01*
X161052857Y-130297142D01*
X161338571Y-130440000D01*
X162767142Y-132297142D02*
X162767142Y-130297142D01*
X162767142Y-130582857D02*
X162910000Y-130440000D01*
X163195714Y-130297142D01*
X163624285Y-130297142D01*
X163910000Y-130440000D01*
X164052857Y-130725714D01*
X164052857Y-132297142D01*
X164052857Y-130725714D02*
X164195714Y-130440000D01*
X164481428Y-130297142D01*
X164910000Y-130297142D01*
X165195714Y-130440000D01*
X165338571Y-130725714D01*
X165338571Y-132297142D01*
X168052857Y-132297142D02*
X168052857Y-130725714D01*
X167910000Y-130440000D01*
X167624285Y-130297142D01*
X167052857Y-130297142D01*
X166767142Y-130440000D01*
X168052857Y-132154285D02*
X167767142Y-132297142D01*
X167052857Y-132297142D01*
X166767142Y-132154285D01*
X166624285Y-131868571D01*
X166624285Y-131582857D01*
X166767142Y-131297142D01*
X167052857Y-131154285D01*
X167767142Y-131154285D01*
X168052857Y-131011428D01*
X173481428Y-132011428D02*
X173338571Y-132154285D01*
X172910000Y-132297142D01*
X172624285Y-132297142D01*
X172195714Y-132154285D01*
X171910000Y-131868571D01*
X171767142Y-131582857D01*
X171624285Y-131011428D01*
X171624285Y-130582857D01*
X171767142Y-130011428D01*
X171910000Y-129725714D01*
X172195714Y-129440000D01*
X172624285Y-129297142D01*
X172910000Y-129297142D01*
X173338571Y-129440000D01*
X173481428Y-129582857D01*
X175910000Y-132154285D02*
X175624285Y-132297142D01*
X175052857Y-132297142D01*
X174767142Y-132154285D01*
X174624285Y-131868571D01*
X174624285Y-130725714D01*
X174767142Y-130440000D01*
X175052857Y-130297142D01*
X175624285Y-130297142D01*
X175910000Y-130440000D01*
X176052857Y-130725714D01*
X176052857Y-131011428D01*
X174624285Y-131297142D01*
X177338571Y-130297142D02*
X177338571Y-132297142D01*
X177338571Y-130582857D02*
X177481428Y-130440000D01*
X177767142Y-130297142D01*
X178195714Y-130297142D01*
X178481428Y-130440000D01*
X178624285Y-130725714D01*
X178624285Y-132297142D01*
X179624285Y-130297142D02*
X180767142Y-130297142D01*
X180052857Y-129297142D02*
X180052857Y-131868571D01*
X180195714Y-132154285D01*
X180481428Y-132297142D01*
X180767142Y-132297142D01*
X182910000Y-132154285D02*
X182624285Y-132297142D01*
X182052857Y-132297142D01*
X181767142Y-132154285D01*
X181624285Y-131868571D01*
X181624285Y-130725714D01*
X181767142Y-130440000D01*
X182052857Y-130297142D01*
X182624285Y-130297142D01*
X182910000Y-130440000D01*
X183052857Y-130725714D01*
X183052857Y-131011428D01*
X181624285Y-131297142D01*
X184338571Y-132297142D02*
X184338571Y-130297142D01*
X184338571Y-130868571D02*
X184481428Y-130582857D01*
X184624285Y-130440000D01*
X184910000Y-130297142D01*
X185195714Y-130297142D01*
X147552857Y-135675714D02*
X147981428Y-135818571D01*
X148124285Y-135961428D01*
X148267142Y-136247142D01*
X148267142Y-136675714D01*
X148124285Y-136961428D01*
X147981428Y-137104285D01*
X147695714Y-137247142D01*
X146552857Y-137247142D01*
X146552857Y-134247142D01*
X147552857Y-134247142D01*
X147838571Y-134390000D01*
X147981428Y-134532857D01*
X148124285Y-134818571D01*
X148124285Y-135104285D01*
X147981428Y-135390000D01*
X147838571Y-135532857D01*
X147552857Y-135675714D01*
X146552857Y-135675714D01*
X149552857Y-137247142D02*
X149552857Y-135247142D01*
X149552857Y-134247142D02*
X149410000Y-134390000D01*
X149552857Y-134532857D01*
X149695714Y-134390000D01*
X149552857Y-134247142D01*
X149552857Y-134532857D01*
X151410000Y-137247142D02*
X151124285Y-137104285D01*
X150981428Y-136961428D01*
X150838571Y-136675714D01*
X150838571Y-135818571D01*
X150981428Y-135532857D01*
X151124285Y-135390000D01*
X151410000Y-135247142D01*
X151838571Y-135247142D01*
X152124285Y-135390000D01*
X152267142Y-135532857D01*
X152410000Y-135818571D01*
X152410000Y-136675714D01*
X152267142Y-136961428D01*
X152124285Y-137104285D01*
X151838571Y-137247142D01*
X151410000Y-137247142D01*
X153267142Y-135247142D02*
X154410000Y-135247142D01*
X153695714Y-134247142D02*
X153695714Y-136818571D01*
X153838571Y-137104285D01*
X154124285Y-137247142D01*
X154410000Y-137247142D01*
X156552857Y-137104285D02*
X156267142Y-137247142D01*
X155695714Y-137247142D01*
X155410000Y-137104285D01*
X155267142Y-136818571D01*
X155267142Y-135675714D01*
X155410000Y-135390000D01*
X155695714Y-135247142D01*
X156267142Y-135247142D01*
X156552857Y-135390000D01*
X156695714Y-135675714D01*
X156695714Y-135961428D01*
X155267142Y-136247142D01*
X159267142Y-137104285D02*
X158981428Y-137247142D01*
X158410000Y-137247142D01*
X158124285Y-137104285D01*
X157981428Y-136961428D01*
X157838571Y-136675714D01*
X157838571Y-135818571D01*
X157981428Y-135532857D01*
X158124285Y-135390000D01*
X158410000Y-135247142D01*
X158981428Y-135247142D01*
X159267142Y-135390000D01*
X160552857Y-137247142D02*
X160552857Y-134247142D01*
X161838571Y-137247142D02*
X161838571Y-135675714D01*
X161695714Y-135390000D01*
X161410000Y-135247142D01*
X160981428Y-135247142D01*
X160695714Y-135390000D01*
X160552857Y-135532857D01*
X163267142Y-135247142D02*
X163267142Y-137247142D01*
X163267142Y-135532857D02*
X163410000Y-135390000D01*
X163695714Y-135247142D01*
X164124285Y-135247142D01*
X164410000Y-135390000D01*
X164552857Y-135675714D01*
X164552857Y-137247142D01*
X165981428Y-137247142D02*
X165981428Y-135247142D01*
X165981428Y-134247142D02*
X165838571Y-134390000D01*
X165981428Y-134532857D01*
X166124285Y-134390000D01*
X165981428Y-134247142D01*
X165981428Y-134532857D01*
X168695714Y-137104285D02*
X168410000Y-137247142D01*
X167838571Y-137247142D01*
X167552857Y-137104285D01*
X167410000Y-136961428D01*
X167267142Y-136675714D01*
X167267142Y-135818571D01*
X167410000Y-135532857D01*
X167552857Y-135390000D01*
X167838571Y-135247142D01*
X168410000Y-135247142D01*
X168695714Y-135390000D01*
X171267142Y-137247142D02*
X171267142Y-135675714D01*
X171124285Y-135390000D01*
X170838571Y-135247142D01*
X170267142Y-135247142D01*
X169981428Y-135390000D01*
X171267142Y-137104285D02*
X170981428Y-137247142D01*
X170267142Y-137247142D01*
X169981428Y-137104285D01*
X169838571Y-136818571D01*
X169838571Y-136532857D01*
X169981428Y-136247142D01*
X170267142Y-136104285D01*
X170981428Y-136104285D01*
X171267142Y-135961428D01*
X173124285Y-137247142D02*
X172838571Y-137104285D01*
X172695714Y-136818571D01*
X172695714Y-134247142D01*
X177552857Y-135675714D02*
X176552857Y-135675714D01*
X176552857Y-137247142D02*
X176552857Y-134247142D01*
X177981428Y-134247142D01*
X180410000Y-137247142D02*
X180410000Y-135675714D01*
X180267142Y-135390000D01*
X179981428Y-135247142D01*
X179410000Y-135247142D01*
X179124285Y-135390000D01*
X180410000Y-137104285D02*
X180124285Y-137247142D01*
X179410000Y-137247142D01*
X179124285Y-137104285D01*
X178981428Y-136818571D01*
X178981428Y-136532857D01*
X179124285Y-136247142D01*
X179410000Y-136104285D01*
X180124285Y-136104285D01*
X180410000Y-135961428D01*
X183124285Y-137104285D02*
X182838571Y-137247142D01*
X182267142Y-137247142D01*
X181981428Y-137104285D01*
X181838571Y-136961428D01*
X181695714Y-136675714D01*
X181695714Y-135818571D01*
X181838571Y-135532857D01*
X181981428Y-135390000D01*
X182267142Y-135247142D01*
X182838571Y-135247142D01*
X183124285Y-135390000D01*
X185695714Y-135247142D02*
X185695714Y-137247142D01*
X184410000Y-135247142D02*
X184410000Y-136818571D01*
X184552857Y-137104285D01*
X184838571Y-137247142D01*
X185267142Y-137247142D01*
X185552857Y-137104285D01*
X185695714Y-136961428D01*
X187552857Y-137247142D02*
X187267142Y-137104285D01*
X187124285Y-136818571D01*
X187124285Y-134247142D01*
X188267142Y-135247142D02*
X189410000Y-135247142D01*
X188695714Y-134247142D02*
X188695714Y-136818571D01*
X188838571Y-137104285D01*
X189124285Y-137247142D01*
X189410000Y-137247142D01*
X190124285Y-135247142D02*
X190838571Y-137247142D01*
X191552857Y-135247142D02*
X190838571Y-137247142D01*
X190552857Y-137961428D01*
X190410000Y-138104285D01*
X190124285Y-138247142D01*
X143981428Y-139197142D02*
X143981428Y-141625714D01*
X144124285Y-141911428D01*
X144267142Y-142054285D01*
X144552857Y-142197142D01*
X145124285Y-142197142D01*
X145410000Y-142054285D01*
X145552857Y-141911428D01*
X145695714Y-141625714D01*
X145695714Y-139197142D01*
X147124285Y-140197142D02*
X147124285Y-142197142D01*
X147124285Y-140482857D02*
X147267142Y-140340000D01*
X147552857Y-140197142D01*
X147981428Y-140197142D01*
X148267142Y-140340000D01*
X148410000Y-140625714D01*
X148410000Y-142197142D01*
X149838571Y-142197142D02*
X149838571Y-140197142D01*
X149838571Y-139197142D02*
X149695714Y-139340000D01*
X149838571Y-139482857D01*
X149981428Y-139340000D01*
X149838571Y-139197142D01*
X149838571Y-139482857D01*
X150981428Y-140197142D02*
X151695714Y-142197142D01*
X152410000Y-140197142D01*
X154695714Y-142054285D02*
X154410000Y-142197142D01*
X153838571Y-142197142D01*
X153552857Y-142054285D01*
X153410000Y-141768571D01*
X153410000Y-140625714D01*
X153552857Y-140340000D01*
X153838571Y-140197142D01*
X154410000Y-140197142D01*
X154695714Y-140340000D01*
X154838571Y-140625714D01*
X154838571Y-140911428D01*
X153410000Y-141197142D01*
X156124285Y-142197142D02*
X156124285Y-140197142D01*
X156124285Y-140768571D02*
X156267142Y-140482857D01*
X156410000Y-140340000D01*
X156695714Y-140197142D01*
X156981428Y-140197142D01*
X157838571Y-142054285D02*
X158124285Y-142197142D01*
X158695714Y-142197142D01*
X158981428Y-142054285D01*
X159124285Y-141768571D01*
X159124285Y-141625714D01*
X158981428Y-141340000D01*
X158695714Y-141197142D01*
X158267142Y-141197142D01*
X157981428Y-141054285D01*
X157838571Y-140768571D01*
X157838571Y-140625714D01*
X157981428Y-140340000D01*
X158267142Y-140197142D01*
X158695714Y-140197142D01*
X158981428Y-140340000D01*
X160410000Y-142197142D02*
X160410000Y-140197142D01*
X160410000Y-139197142D02*
X160267142Y-139340000D01*
X160410000Y-139482857D01*
X160552857Y-139340000D01*
X160410000Y-139197142D01*
X160410000Y-139482857D01*
X161410000Y-140197142D02*
X162552857Y-140197142D01*
X161838571Y-139197142D02*
X161838571Y-141768571D01*
X161981428Y-142054285D01*
X162267142Y-142197142D01*
X162552857Y-142197142D01*
X163267142Y-140197142D02*
X163981428Y-142197142D01*
X164695714Y-140197142D02*
X163981428Y-142197142D01*
X163695714Y-142911428D01*
X163552857Y-143054285D01*
X163267142Y-143197142D01*
X168552857Y-142197142D02*
X168267142Y-142054285D01*
X168124285Y-141911428D01*
X167981428Y-141625714D01*
X167981428Y-140768571D01*
X168124285Y-140482857D01*
X168267142Y-140340000D01*
X168552857Y-140197142D01*
X168981428Y-140197142D01*
X169267142Y-140340000D01*
X169410000Y-140482857D01*
X169552857Y-140768571D01*
X169552857Y-141625714D01*
X169410000Y-141911428D01*
X169267142Y-142054285D01*
X168981428Y-142197142D01*
X168552857Y-142197142D01*
X170410000Y-140197142D02*
X171552857Y-140197142D01*
X170838571Y-142197142D02*
X170838571Y-139625714D01*
X170981428Y-139340000D01*
X171267142Y-139197142D01*
X171552857Y-139197142D01*
X176267142Y-142197142D02*
X174838571Y-142197142D01*
X174838571Y-139197142D01*
X177267142Y-140197142D02*
X177267142Y-142768571D01*
X177124285Y-143054285D01*
X176838571Y-143197142D01*
X176695714Y-143197142D01*
X177267142Y-139197142D02*
X177124285Y-139340000D01*
X177267142Y-139482857D01*
X177410000Y-139340000D01*
X177267142Y-139197142D01*
X177267142Y-139482857D01*
X179981428Y-140197142D02*
X179981428Y-142197142D01*
X178695714Y-140197142D02*
X178695714Y-141768571D01*
X178838571Y-142054285D01*
X179124285Y-142197142D01*
X179552857Y-142197142D01*
X179838571Y-142054285D01*
X179981428Y-141911428D01*
X181410000Y-142197142D02*
X181410000Y-139197142D01*
X181410000Y-140340000D02*
X181695714Y-140197142D01*
X182267142Y-140197142D01*
X182552857Y-140340000D01*
X182695714Y-140482857D01*
X182838571Y-140768571D01*
X182838571Y-141625714D01*
X182695714Y-141911428D01*
X182552857Y-142054285D01*
X182267142Y-142197142D01*
X181695714Y-142197142D01*
X181410000Y-142054285D01*
X184552857Y-142197142D02*
X184267142Y-142054285D01*
X184124285Y-141768571D01*
X184124285Y-139197142D01*
X185695714Y-140197142D02*
X185695714Y-142768571D01*
X185552857Y-143054285D01*
X185267142Y-143197142D01*
X185124285Y-143197142D01*
X185695714Y-139197142D02*
X185552857Y-139340000D01*
X185695714Y-139482857D01*
X185838571Y-139340000D01*
X185695714Y-139197142D01*
X185695714Y-139482857D01*
X188410000Y-142197142D02*
X188410000Y-140625714D01*
X188267142Y-140340000D01*
X187981428Y-140197142D01*
X187410000Y-140197142D01*
X187124285Y-140340000D01*
X188410000Y-142054285D02*
X188124285Y-142197142D01*
X187410000Y-142197142D01*
X187124285Y-142054285D01*
X186981428Y-141768571D01*
X186981428Y-141482857D01*
X187124285Y-141197142D01*
X187410000Y-141054285D01*
X188124285Y-141054285D01*
X188410000Y-140911428D01*
X189838571Y-140197142D02*
X189838571Y-142197142D01*
X189838571Y-140482857D02*
X189981428Y-140340000D01*
X190267142Y-140197142D01*
X190695714Y-140197142D01*
X190981428Y-140340000D01*
X191124285Y-140625714D01*
X191124285Y-142197142D01*
X193838571Y-142197142D02*
X193838571Y-140625714D01*
X193695714Y-140340000D01*
X193410000Y-140197142D01*
X192838571Y-140197142D01*
X192552857Y-140340000D01*
X193838571Y-142054285D02*
X193552857Y-142197142D01*
X192838571Y-142197142D01*
X192552857Y-142054285D01*
X192410000Y-141768571D01*
X192410000Y-141482857D01*
X192552857Y-141197142D01*
X192838571Y-141054285D01*
X193552857Y-141054285D01*
X193838571Y-140911428D01*
D10*
X51983333Y-72318571D02*
X52316666Y-72318571D01*
X52459523Y-72842380D02*
X51983333Y-72842380D01*
X51983333Y-71842380D01*
X52459523Y-71842380D01*
X52840476Y-72556666D02*
X53316666Y-72556666D01*
X52745238Y-72842380D02*
X53078571Y-71842380D01*
X53411904Y-72842380D01*
X54316666Y-72842380D02*
X53983333Y-72366190D01*
X53745238Y-72842380D02*
X53745238Y-71842380D01*
X54126190Y-71842380D01*
X54221428Y-71890000D01*
X54269047Y-71937619D01*
X54316666Y-72032857D01*
X54316666Y-72175714D01*
X54269047Y-72270952D01*
X54221428Y-72318571D01*
X54126190Y-72366190D01*
X53745238Y-72366190D01*
X54602380Y-71842380D02*
X55173809Y-71842380D01*
X54888095Y-72842380D02*
X54888095Y-71842380D01*
X55507142Y-72842380D02*
X55507142Y-71842380D01*
X55507142Y-72318571D02*
X56078571Y-72318571D01*
X56078571Y-72842380D02*
X56078571Y-71842380D01*
X57269047Y-71794761D02*
X56411904Y-73080476D01*
X57554761Y-72794761D02*
X57697619Y-72842380D01*
X57935714Y-72842380D01*
X58030952Y-72794761D01*
X58078571Y-72747142D01*
X58126190Y-72651904D01*
X58126190Y-72556666D01*
X58078571Y-72461428D01*
X58030952Y-72413809D01*
X57935714Y-72366190D01*
X57745238Y-72318571D01*
X57650000Y-72270952D01*
X57602380Y-72223333D01*
X57554761Y-72128095D01*
X57554761Y-72032857D01*
X57602380Y-71937619D01*
X57650000Y-71890000D01*
X57745238Y-71842380D01*
X57983333Y-71842380D01*
X58126190Y-71890000D01*
X58554761Y-72842380D02*
X58554761Y-71842380D01*
X58554761Y-72318571D02*
X59126190Y-72318571D01*
X59126190Y-72842380D02*
X59126190Y-71842380D01*
X59602380Y-72842380D02*
X59602380Y-71842380D01*
X60078571Y-72318571D02*
X60411904Y-72318571D01*
X60554761Y-72842380D02*
X60078571Y-72842380D01*
X60078571Y-71842380D01*
X60554761Y-71842380D01*
X61459523Y-72842380D02*
X60983333Y-72842380D01*
X60983333Y-71842380D01*
X61792857Y-72842380D02*
X61792857Y-71842380D01*
X62030952Y-71842380D01*
X62173809Y-71890000D01*
X62269047Y-71985238D01*
X62316666Y-72080476D01*
X62364285Y-72270952D01*
X62364285Y-72413809D01*
X62316666Y-72604285D01*
X62269047Y-72699523D01*
X62173809Y-72794761D01*
X62030952Y-72842380D01*
X61792857Y-72842380D01*
X51570000Y-132841904D02*
X51522380Y-132937142D01*
X51522380Y-133080000D01*
X51570000Y-133222857D01*
X51665238Y-133318095D01*
X51760476Y-133365714D01*
X51950952Y-133413333D01*
X52093809Y-133413333D01*
X52284285Y-133365714D01*
X52379523Y-133318095D01*
X52474761Y-133222857D01*
X52522380Y-133080000D01*
X52522380Y-132984761D01*
X52474761Y-132841904D01*
X52427142Y-132794285D01*
X52093809Y-132794285D01*
X52093809Y-132984761D01*
X52522380Y-132365714D02*
X51522380Y-132365714D01*
X52522380Y-131794285D01*
X51522380Y-131794285D01*
X52522380Y-131318095D02*
X51522380Y-131318095D01*
X51522380Y-131080000D01*
X51570000Y-130937142D01*
X51665238Y-130841904D01*
X51760476Y-130794285D01*
X51950952Y-130746666D01*
X52093809Y-130746666D01*
X52284285Y-130794285D01*
X52379523Y-130841904D01*
X52474761Y-130937142D01*
X52522380Y-131080000D01*
X52522380Y-131318095D01*
X51998571Y-137532857D02*
X51998571Y-137199523D01*
X52522380Y-137056666D02*
X52522380Y-137532857D01*
X51522380Y-137532857D01*
X51522380Y-137056666D01*
X52522380Y-136628095D02*
X51522380Y-136628095D01*
X52522380Y-136056666D01*
X51522380Y-136056666D01*
X51998571Y-135247142D02*
X52046190Y-135104285D01*
X52093809Y-135056666D01*
X52189047Y-135009047D01*
X52331904Y-135009047D01*
X52427142Y-135056666D01*
X52474761Y-135104285D01*
X52522380Y-135199523D01*
X52522380Y-135580476D01*
X51522380Y-135580476D01*
X51522380Y-135247142D01*
X51570000Y-135151904D01*
X51617619Y-135104285D01*
X51712857Y-135056666D01*
X51808095Y-135056666D01*
X51903333Y-135104285D01*
X51950952Y-135151904D01*
X51998571Y-135247142D01*
X51998571Y-135580476D01*
X52522380Y-134104285D02*
X52522380Y-134580476D01*
X51522380Y-134580476D01*
X51570000Y-129031904D02*
X51522380Y-129127142D01*
X51522380Y-129270000D01*
X51570000Y-129412857D01*
X51665238Y-129508095D01*
X51760476Y-129555714D01*
X51950952Y-129603333D01*
X52093809Y-129603333D01*
X52284285Y-129555714D01*
X52379523Y-129508095D01*
X52474761Y-129412857D01*
X52522380Y-129270000D01*
X52522380Y-129174761D01*
X52474761Y-129031904D01*
X52427142Y-128984285D01*
X52093809Y-128984285D01*
X52093809Y-129174761D01*
X52522380Y-128555714D02*
X51522380Y-128555714D01*
X52522380Y-127984285D01*
X51522380Y-127984285D01*
X52522380Y-127508095D02*
X51522380Y-127508095D01*
X51522380Y-127270000D01*
X51570000Y-127127142D01*
X51665238Y-127031904D01*
X51760476Y-126984285D01*
X51950952Y-126936666D01*
X52093809Y-126936666D01*
X52284285Y-126984285D01*
X52379523Y-127031904D01*
X52474761Y-127127142D01*
X52522380Y-127270000D01*
X52522380Y-127508095D01*
X52522380Y-125864761D02*
X51522380Y-125864761D01*
X51522380Y-125483809D01*
X51570000Y-125388571D01*
X51617619Y-125340952D01*
X51712857Y-125293333D01*
X51855714Y-125293333D01*
X51950952Y-125340952D01*
X51998571Y-125388571D01*
X52046190Y-125483809D01*
X52046190Y-125864761D01*
X51522380Y-124960000D02*
X52522380Y-124721904D01*
X51808095Y-124531428D01*
X52522380Y-124340952D01*
X51522380Y-124102857D01*
X52522380Y-123721904D02*
X51522380Y-123721904D01*
X52236666Y-123388571D01*
X51522380Y-123055238D01*
X52522380Y-123055238D01*
X51133809Y-90622380D02*
X51133809Y-89622380D01*
X51514761Y-89622380D01*
X51610000Y-89670000D01*
X51657619Y-89717619D01*
X51705238Y-89812857D01*
X51705238Y-89955714D01*
X51657619Y-90050952D01*
X51610000Y-90098571D01*
X51514761Y-90146190D01*
X51133809Y-90146190D01*
X52038571Y-89622380D02*
X52276666Y-90622380D01*
X52467142Y-89908095D01*
X52657619Y-90622380D01*
X52895714Y-89622380D01*
X53848095Y-90622380D02*
X53514761Y-90146190D01*
X53276666Y-90622380D02*
X53276666Y-89622380D01*
X53657619Y-89622380D01*
X53752857Y-89670000D01*
X53800476Y-89717619D01*
X53848095Y-89812857D01*
X53848095Y-89955714D01*
X53800476Y-90050952D01*
X53752857Y-90098571D01*
X53657619Y-90146190D01*
X53276666Y-90146190D01*
X54276666Y-90241428D02*
X55038571Y-90241428D01*
X56038571Y-89670000D02*
X55943333Y-89622380D01*
X55800476Y-89622380D01*
X55657619Y-89670000D01*
X55562380Y-89765238D01*
X55514761Y-89860476D01*
X55467142Y-90050952D01*
X55467142Y-90193809D01*
X55514761Y-90384285D01*
X55562380Y-90479523D01*
X55657619Y-90574761D01*
X55800476Y-90622380D01*
X55895714Y-90622380D01*
X56038571Y-90574761D01*
X56086190Y-90527142D01*
X56086190Y-90193809D01*
X55895714Y-90193809D01*
X56514761Y-90622380D02*
X56514761Y-89622380D01*
X57086190Y-90622380D01*
X57086190Y-89622380D01*
X57562380Y-90622380D02*
X57562380Y-89622380D01*
X57800476Y-89622380D01*
X57943333Y-89670000D01*
X58038571Y-89765238D01*
X58086190Y-89860476D01*
X58133809Y-90050952D01*
X58133809Y-90193809D01*
X58086190Y-90384285D01*
X58038571Y-90479523D01*
X57943333Y-90574761D01*
X57800476Y-90622380D01*
X57562380Y-90622380D01*
X52006666Y-76922380D02*
X52340000Y-77922380D01*
X52673333Y-76922380D01*
X53006666Y-77922380D02*
X53006666Y-76922380D01*
X53244761Y-76922380D01*
X53387619Y-76970000D01*
X53482857Y-77065238D01*
X53530476Y-77160476D01*
X53578095Y-77350952D01*
X53578095Y-77493809D01*
X53530476Y-77684285D01*
X53482857Y-77779523D01*
X53387619Y-77874761D01*
X53244761Y-77922380D01*
X53006666Y-77922380D01*
X54006666Y-77922380D02*
X54006666Y-76922380D01*
X54244761Y-76922380D01*
X54387619Y-76970000D01*
X54482857Y-77065238D01*
X54530476Y-77160476D01*
X54578095Y-77350952D01*
X54578095Y-77493809D01*
X54530476Y-77684285D01*
X54482857Y-77779523D01*
X54387619Y-77874761D01*
X54244761Y-77922380D01*
X54006666Y-77922380D01*
D12*
X71700000Y-123720000D02*
X71700000Y-120120000D01*
X71688478Y-123758478D02*
G75*
G02X67250000Y-121920000I-1838478J1838478D01*
G01*
X71688478Y-120081522D02*
G75*
G03X67250000Y-121920000I-1838478J-1838478D01*
G01*
X64068478Y-120081522D02*
G75*
G03X59630000Y-121920000I-1838478J-1838478D01*
G01*
X64068478Y-123758478D02*
G75*
G02X59630000Y-121920000I-1838478J1838478D01*
G01*
X64080000Y-123720000D02*
X64080000Y-120120000D01*
X72700000Y-84300000D02*
G75*
G03X72700000Y-84300000I-4120000J0D01*
G01*
X72660000Y-84300000D02*
X64500000Y-84300000D01*
X72660000Y-84340000D02*
X64500000Y-84340000D01*
X72660000Y-84380000D02*
X64500000Y-84380000D01*
X72659000Y-84420000D02*
X64501000Y-84420000D01*
X72657000Y-84460000D02*
X64503000Y-84460000D01*
X72656000Y-84500000D02*
X64504000Y-84500000D01*
X72654000Y-84540000D02*
X64506000Y-84540000D01*
X72651000Y-84580000D02*
X64509000Y-84580000D01*
X72648000Y-84620000D02*
X64512000Y-84620000D01*
X72645000Y-84660000D02*
X64515000Y-84660000D01*
X72641000Y-84700000D02*
X64519000Y-84700000D01*
X72637000Y-84740000D02*
X64523000Y-84740000D01*
X72632000Y-84780000D02*
X64528000Y-84780000D01*
X72628000Y-84820000D02*
X64532000Y-84820000D01*
X72622000Y-84860000D02*
X64538000Y-84860000D01*
X72617000Y-84900000D02*
X64543000Y-84900000D01*
X72610000Y-84940000D02*
X64550000Y-84940000D01*
X72604000Y-84980000D02*
X64556000Y-84980000D01*
X72597000Y-85021000D02*
X69620000Y-85021000D01*
X67540000Y-85021000D02*
X64563000Y-85021000D01*
X72590000Y-85061000D02*
X69620000Y-85061000D01*
X67540000Y-85061000D02*
X64570000Y-85061000D01*
X72582000Y-85101000D02*
X69620000Y-85101000D01*
X67540000Y-85101000D02*
X64578000Y-85101000D01*
X72574000Y-85141000D02*
X69620000Y-85141000D01*
X67540000Y-85141000D02*
X64586000Y-85141000D01*
X72565000Y-85181000D02*
X69620000Y-85181000D01*
X67540000Y-85181000D02*
X64595000Y-85181000D01*
X72556000Y-85221000D02*
X69620000Y-85221000D01*
X67540000Y-85221000D02*
X64604000Y-85221000D01*
X72547000Y-85261000D02*
X69620000Y-85261000D01*
X67540000Y-85261000D02*
X64613000Y-85261000D01*
X72537000Y-85301000D02*
X69620000Y-85301000D01*
X67540000Y-85301000D02*
X64623000Y-85301000D01*
X72527000Y-85341000D02*
X69620000Y-85341000D01*
X67540000Y-85341000D02*
X64633000Y-85341000D01*
X72516000Y-85381000D02*
X69620000Y-85381000D01*
X67540000Y-85381000D02*
X64644000Y-85381000D01*
X72505000Y-85421000D02*
X69620000Y-85421000D01*
X67540000Y-85421000D02*
X64655000Y-85421000D01*
X72494000Y-85461000D02*
X69620000Y-85461000D01*
X67540000Y-85461000D02*
X64666000Y-85461000D01*
X72482000Y-85501000D02*
X69620000Y-85501000D01*
X67540000Y-85501000D02*
X64678000Y-85501000D01*
X72469000Y-85541000D02*
X69620000Y-85541000D01*
X67540000Y-85541000D02*
X64691000Y-85541000D01*
X72457000Y-85581000D02*
X69620000Y-85581000D01*
X67540000Y-85581000D02*
X64703000Y-85581000D01*
X72443000Y-85621000D02*
X69620000Y-85621000D01*
X67540000Y-85621000D02*
X64717000Y-85621000D01*
X72430000Y-85661000D02*
X69620000Y-85661000D01*
X67540000Y-85661000D02*
X64730000Y-85661000D01*
X72415000Y-85701000D02*
X69620000Y-85701000D01*
X67540000Y-85701000D02*
X64745000Y-85701000D01*
X72401000Y-85741000D02*
X69620000Y-85741000D01*
X67540000Y-85741000D02*
X64759000Y-85741000D01*
X72385000Y-85781000D02*
X69620000Y-85781000D01*
X67540000Y-85781000D02*
X64775000Y-85781000D01*
X72370000Y-85821000D02*
X69620000Y-85821000D01*
X67540000Y-85821000D02*
X64790000Y-85821000D01*
X72354000Y-85861000D02*
X69620000Y-85861000D01*
X67540000Y-85861000D02*
X64806000Y-85861000D01*
X72337000Y-85901000D02*
X69620000Y-85901000D01*
X67540000Y-85901000D02*
X64823000Y-85901000D01*
X72320000Y-85941000D02*
X69620000Y-85941000D01*
X67540000Y-85941000D02*
X64840000Y-85941000D01*
X72302000Y-85981000D02*
X69620000Y-85981000D01*
X67540000Y-85981000D02*
X64858000Y-85981000D01*
X72284000Y-86021000D02*
X69620000Y-86021000D01*
X67540000Y-86021000D02*
X64876000Y-86021000D01*
X72266000Y-86061000D02*
X69620000Y-86061000D01*
X67540000Y-86061000D02*
X64894000Y-86061000D01*
X72246000Y-86101000D02*
X69620000Y-86101000D01*
X67540000Y-86101000D02*
X64914000Y-86101000D01*
X72227000Y-86141000D02*
X69620000Y-86141000D01*
X67540000Y-86141000D02*
X64933000Y-86141000D01*
X72207000Y-86181000D02*
X69620000Y-86181000D01*
X67540000Y-86181000D02*
X64953000Y-86181000D01*
X72186000Y-86221000D02*
X69620000Y-86221000D01*
X67540000Y-86221000D02*
X64974000Y-86221000D01*
X72164000Y-86261000D02*
X69620000Y-86261000D01*
X67540000Y-86261000D02*
X64996000Y-86261000D01*
X72142000Y-86301000D02*
X69620000Y-86301000D01*
X67540000Y-86301000D02*
X65018000Y-86301000D01*
X72120000Y-86341000D02*
X69620000Y-86341000D01*
X67540000Y-86341000D02*
X65040000Y-86341000D01*
X72097000Y-86381000D02*
X69620000Y-86381000D01*
X67540000Y-86381000D02*
X65063000Y-86381000D01*
X72073000Y-86421000D02*
X69620000Y-86421000D01*
X67540000Y-86421000D02*
X65087000Y-86421000D01*
X72049000Y-86461000D02*
X69620000Y-86461000D01*
X67540000Y-86461000D02*
X65111000Y-86461000D01*
X72024000Y-86501000D02*
X69620000Y-86501000D01*
X67540000Y-86501000D02*
X65136000Y-86501000D01*
X71998000Y-86541000D02*
X69620000Y-86541000D01*
X67540000Y-86541000D02*
X65162000Y-86541000D01*
X71972000Y-86581000D02*
X69620000Y-86581000D01*
X67540000Y-86581000D02*
X65188000Y-86581000D01*
X71945000Y-86621000D02*
X69620000Y-86621000D01*
X67540000Y-86621000D02*
X65215000Y-86621000D01*
X71918000Y-86661000D02*
X69620000Y-86661000D01*
X67540000Y-86661000D02*
X65242000Y-86661000D01*
X71889000Y-86701000D02*
X69620000Y-86701000D01*
X67540000Y-86701000D02*
X65271000Y-86701000D01*
X71860000Y-86741000D02*
X69620000Y-86741000D01*
X67540000Y-86741000D02*
X65300000Y-86741000D01*
X71830000Y-86781000D02*
X69620000Y-86781000D01*
X67540000Y-86781000D02*
X65330000Y-86781000D01*
X71800000Y-86821000D02*
X69620000Y-86821000D01*
X67540000Y-86821000D02*
X65360000Y-86821000D01*
X71769000Y-86861000D02*
X69620000Y-86861000D01*
X67540000Y-86861000D02*
X65391000Y-86861000D01*
X71736000Y-86901000D02*
X69620000Y-86901000D01*
X67540000Y-86901000D02*
X65424000Y-86901000D01*
X71704000Y-86941000D02*
X69620000Y-86941000D01*
X67540000Y-86941000D02*
X65456000Y-86941000D01*
X71670000Y-86981000D02*
X69620000Y-86981000D01*
X67540000Y-86981000D02*
X65490000Y-86981000D01*
X71635000Y-87021000D02*
X69620000Y-87021000D01*
X67540000Y-87021000D02*
X65525000Y-87021000D01*
X71599000Y-87061000D02*
X69620000Y-87061000D01*
X67540000Y-87061000D02*
X65561000Y-87061000D01*
X71563000Y-87101000D02*
X65597000Y-87101000D01*
X71525000Y-87141000D02*
X65635000Y-87141000D01*
X71487000Y-87181000D02*
X65673000Y-87181000D01*
X71447000Y-87221000D02*
X65713000Y-87221000D01*
X71406000Y-87261000D02*
X65754000Y-87261000D01*
X71364000Y-87301000D02*
X65796000Y-87301000D01*
X71321000Y-87341000D02*
X65839000Y-87341000D01*
X71277000Y-87381000D02*
X65883000Y-87381000D01*
X71231000Y-87421000D02*
X65929000Y-87421000D01*
X71184000Y-87461000D02*
X65976000Y-87461000D01*
X71136000Y-87501000D02*
X66024000Y-87501000D01*
X71085000Y-87541000D02*
X66075000Y-87541000D01*
X71034000Y-87581000D02*
X66126000Y-87581000D01*
X70980000Y-87621000D02*
X66180000Y-87621000D01*
X70925000Y-87661000D02*
X66235000Y-87661000D01*
X70867000Y-87701000D02*
X66293000Y-87701000D01*
X70808000Y-87741000D02*
X66352000Y-87741000D01*
X70746000Y-87781000D02*
X66414000Y-87781000D01*
X70682000Y-87821000D02*
X66478000Y-87821000D01*
X70614000Y-87861000D02*
X66546000Y-87861000D01*
X70544000Y-87901000D02*
X66616000Y-87901000D01*
X70470000Y-87941000D02*
X66690000Y-87941000D01*
X70393000Y-87981000D02*
X66767000Y-87981000D01*
X70311000Y-88021000D02*
X66849000Y-88021000D01*
X70225000Y-88061000D02*
X66935000Y-88061000D01*
X70132000Y-88101000D02*
X67028000Y-88101000D01*
X70033000Y-88141000D02*
X67127000Y-88141000D01*
X69926000Y-88181000D02*
X67234000Y-88181000D01*
X69809000Y-88221000D02*
X67351000Y-88221000D01*
X69678000Y-88261000D02*
X67482000Y-88261000D01*
X69528000Y-88301000D02*
X67632000Y-88301000D01*
X69348000Y-88341000D02*
X67812000Y-88341000D01*
X69113000Y-88381000D02*
X68047000Y-88381000D01*
X70895000Y-79890302D02*
X70895000Y-80690302D01*
X71295000Y-80290302D02*
X70495000Y-80290302D01*
X74005000Y-86900000D02*
X73560000Y-86900000D01*
X76300000Y-86900000D02*
X75855000Y-86900000D01*
X74005000Y-80660000D02*
X73560000Y-80660000D01*
X76300000Y-80660000D02*
X75855000Y-80660000D01*
X73560000Y-80660000D02*
X73560000Y-86900000D01*
X76300000Y-80660000D02*
X76300000Y-86900000D01*
X80110000Y-80660000D02*
X80110000Y-86900000D01*
X77370000Y-80660000D02*
X77370000Y-86900000D01*
X80110000Y-80660000D02*
X79665000Y-80660000D01*
X77815000Y-80660000D02*
X77370000Y-80660000D01*
X80110000Y-86900000D02*
X79665000Y-86900000D01*
X77815000Y-86900000D02*
X77370000Y-86900000D01*
X81625000Y-86900000D02*
X81180000Y-86900000D01*
X83920000Y-86900000D02*
X83475000Y-86900000D01*
X81625000Y-80660000D02*
X81180000Y-80660000D01*
X83920000Y-80660000D02*
X83475000Y-80660000D01*
X81180000Y-80660000D02*
X81180000Y-86900000D01*
X83920000Y-80660000D02*
X83920000Y-86900000D01*
X87730000Y-80660000D02*
X87730000Y-86900000D01*
X84990000Y-80660000D02*
X84990000Y-86900000D01*
X87730000Y-80660000D02*
X87285000Y-80660000D01*
X85435000Y-80660000D02*
X84990000Y-80660000D01*
X87730000Y-86900000D02*
X87285000Y-86900000D01*
X85435000Y-86900000D02*
X84990000Y-86900000D01*
X91080000Y-81947936D02*
X91080000Y-83152064D01*
X89260000Y-81947936D02*
X89260000Y-83152064D01*
X93420000Y-82291422D02*
X93420000Y-82808578D01*
X92000000Y-82291422D02*
X92000000Y-82808578D01*
X56935000Y-129005000D02*
X59220000Y-129005000D01*
X56935000Y-127535000D02*
X56935000Y-129005000D01*
X59220000Y-127535000D02*
X56935000Y-127535000D01*
X59220000Y-131345000D02*
X56935000Y-131345000D01*
X56935000Y-131345000D02*
X56935000Y-132815000D01*
X56935000Y-132815000D02*
X59220000Y-132815000D01*
X53140000Y-111160000D02*
X56080000Y-111160000D01*
X53140000Y-110920000D02*
X56080000Y-110920000D01*
X53140000Y-111040000D02*
X56080000Y-111040000D01*
X56080000Y-106500000D02*
X55950000Y-106500000D01*
X56080000Y-111940000D02*
X56080000Y-106500000D01*
X55950000Y-111940000D02*
X56080000Y-111940000D01*
X53140000Y-106500000D02*
X53270000Y-106500000D01*
X53140000Y-111940000D02*
X53140000Y-106500000D01*
X53270000Y-111940000D02*
X53140000Y-111940000D01*
X78670000Y-101780000D02*
X78540000Y-101780000D01*
X78540000Y-101780000D02*
X78540000Y-96340000D01*
X78540000Y-96340000D02*
X78670000Y-96340000D01*
X81350000Y-101780000D02*
X81480000Y-101780000D01*
X81480000Y-101780000D02*
X81480000Y-96340000D01*
X81480000Y-96340000D02*
X81350000Y-96340000D01*
X78540000Y-100880000D02*
X81480000Y-100880000D01*
X78540000Y-100760000D02*
X81480000Y-100760000D01*
X78540000Y-101000000D02*
X81480000Y-101000000D01*
X93910000Y-92890000D02*
X93780000Y-92890000D01*
X93780000Y-92890000D02*
X93780000Y-87450000D01*
X93780000Y-87450000D02*
X93910000Y-87450000D01*
X96590000Y-92890000D02*
X96720000Y-92890000D01*
X96720000Y-92890000D02*
X96720000Y-87450000D01*
X96720000Y-87450000D02*
X96590000Y-87450000D01*
X93780000Y-91990000D02*
X96720000Y-91990000D01*
X93780000Y-91870000D02*
X96720000Y-91870000D01*
X93780000Y-92110000D02*
X96720000Y-92110000D01*
X55940000Y-129600000D02*
X54610000Y-129600000D01*
X55940000Y-128270000D02*
X55940000Y-129600000D01*
X55940000Y-127000000D02*
X53280000Y-127000000D01*
X53280000Y-127000000D02*
X53280000Y-124400000D01*
X55940000Y-127000000D02*
X55940000Y-124400000D01*
X55940000Y-124400000D02*
X53280000Y-124400000D01*
X59330000Y-81280000D02*
G75*
G03X59330000Y-81280000I-2180000J0D01*
G01*
X59330000Y-86360000D02*
G75*
G03X59330000Y-86360000I-2180000J0D01*
G01*
X52350000Y-78680000D02*
X52350000Y-88960000D01*
X54850000Y-78680000D02*
X54850000Y-88960000D01*
X61050000Y-78680000D02*
X61050000Y-88960000D01*
X63110000Y-78680000D02*
X63110000Y-88960000D01*
X51790000Y-78680000D02*
X51790000Y-88960000D01*
X63110000Y-78680000D02*
X51790000Y-78680000D01*
X63110000Y-88960000D02*
X51790000Y-88960000D01*
X58538000Y-82934000D02*
X58431000Y-82827000D01*
X55603000Y-79998000D02*
X55496000Y-79892000D01*
X58804000Y-82668000D02*
X58697000Y-82561000D01*
X55869000Y-79732000D02*
X55762000Y-79626000D01*
X58538000Y-88014000D02*
X58142000Y-87619000D01*
X55876000Y-85353000D02*
X55496000Y-84973000D01*
X58804000Y-87748000D02*
X58424000Y-87368000D01*
X56158000Y-85102000D02*
X55762000Y-84707000D01*
X52290000Y-78440000D02*
X51550000Y-78440000D01*
X51550000Y-78440000D02*
X51550000Y-78940000D01*
X53280000Y-135950000D02*
X55940000Y-135950000D01*
X53280000Y-133350000D02*
X53280000Y-135950000D01*
X55940000Y-133350000D02*
X55940000Y-135950000D01*
X53280000Y-133350000D02*
X55940000Y-133350000D01*
X53280000Y-132080000D02*
X53280000Y-130750000D01*
X53280000Y-130750000D02*
X54610000Y-130750000D01*
X66580000Y-114340000D02*
X66580000Y-104100000D01*
X71221000Y-114340000D02*
X71221000Y-104100000D01*
X66580000Y-114340000D02*
X71221000Y-114340000D01*
X66580000Y-104100000D02*
X71221000Y-104100000D01*
X68090000Y-114340000D02*
X68090000Y-104100000D01*
X66580000Y-111070000D02*
X68090000Y-111070000D01*
X66580000Y-107369000D02*
X68090000Y-107369000D01*
X58960000Y-107369000D02*
X60470000Y-107369000D01*
X58960000Y-111070000D02*
X60470000Y-111070000D01*
X60470000Y-114340000D02*
X60470000Y-104100000D01*
X58960000Y-104100000D02*
X63601000Y-104100000D01*
X58960000Y-114340000D02*
X63601000Y-114340000D01*
X63601000Y-114340000D02*
X63601000Y-104100000D01*
X58960000Y-114340000D02*
X58960000Y-104100000D01*
X85179000Y-105490000D02*
X85179000Y-89350000D01*
X90450000Y-105490000D02*
X90450000Y-89350000D01*
X85179000Y-105490000D02*
X90450000Y-105490000D01*
X85179000Y-89350000D02*
X90450000Y-89350000D01*
X85179000Y-99224000D02*
X90450000Y-99224000D01*
X85179000Y-95615000D02*
X90450000Y-95615000D01*
X74200000Y-105310000D02*
X74200000Y-105640000D01*
X80740000Y-105310000D02*
X74200000Y-105310000D01*
X80740000Y-105640000D02*
X80740000Y-105310000D01*
X74200000Y-108050000D02*
X74200000Y-107720000D01*
X80740000Y-108050000D02*
X74200000Y-108050000D01*
X80740000Y-107720000D02*
X80740000Y-108050000D01*
X77200000Y-125670000D02*
G75*
G02X75200000Y-125670000I-1000000J0D01*
G01*
X75200000Y-125670000D02*
X73550000Y-125670000D01*
X73550000Y-125670000D02*
X73550000Y-135950000D01*
X73550000Y-135950000D02*
X78850000Y-135950000D01*
X78850000Y-135950000D02*
X78850000Y-125670000D01*
X78850000Y-125670000D02*
X77200000Y-125670000D01*
X82010000Y-118691000D02*
X80500000Y-118691000D01*
X82010000Y-114990000D02*
X80500000Y-114990000D01*
X80500000Y-111720000D02*
X80500000Y-121960000D01*
X82010000Y-121960000D02*
X77369000Y-121960000D01*
X82010000Y-111720000D02*
X77369000Y-111720000D01*
X77369000Y-111720000D02*
X77369000Y-121960000D01*
X82010000Y-111720000D02*
X82010000Y-121960000D01*
X90900000Y-111720000D02*
X90900000Y-121960000D01*
X86259000Y-111720000D02*
X86259000Y-121960000D01*
X90900000Y-111720000D02*
X86259000Y-111720000D01*
X90900000Y-121960000D02*
X86259000Y-121960000D01*
X89390000Y-111720000D02*
X89390000Y-121960000D01*
X90900000Y-114990000D02*
X89390000Y-114990000D01*
X90900000Y-118691000D02*
X89390000Y-118691000D01*
X59330000Y-63500000D02*
G75*
G03X59330000Y-63500000I-2180000J0D01*
G01*
X59330000Y-68580000D02*
G75*
G03X59330000Y-68580000I-2180000J0D01*
G01*
X52350000Y-60900000D02*
X52350000Y-71180000D01*
X54850000Y-60900000D02*
X54850000Y-71180000D01*
X61050000Y-60900000D02*
X61050000Y-71180000D01*
X63110000Y-60900000D02*
X63110000Y-71180000D01*
X51790000Y-60900000D02*
X51790000Y-71180000D01*
X63110000Y-60900000D02*
X51790000Y-60900000D01*
X63110000Y-71180000D02*
X51790000Y-71180000D01*
X58538000Y-65154000D02*
X58431000Y-65047000D01*
X55603000Y-62218000D02*
X55496000Y-62112000D01*
X58804000Y-64888000D02*
X58697000Y-64781000D01*
X55869000Y-61952000D02*
X55762000Y-61846000D01*
X58538000Y-70234000D02*
X58142000Y-69839000D01*
X55876000Y-67573000D02*
X55496000Y-67193000D01*
X58804000Y-69968000D02*
X58424000Y-69588000D01*
X56158000Y-67322000D02*
X55762000Y-66927000D01*
X52290000Y-60660000D02*
X51550000Y-60660000D01*
X51550000Y-60660000D02*
X51550000Y-61160000D01*
X172500000Y-117500000D02*
X172500000Y-63500000D01*
X172500000Y-63500000D02*
X149500000Y-63500000D01*
X172500000Y-117500000D02*
X122500000Y-117500000D01*
X122500000Y-69500000D02*
X122500000Y-117500000D01*
X122500000Y-69500000D02*
X149500000Y-69500000D01*
X149500000Y-69500000D02*
X149500000Y-63500000D01*
X172500000Y-65500000D02*
X187500000Y-65500000D01*
X187500000Y-65500000D02*
X187500000Y-116500000D01*
X187500000Y-116500000D02*
X172500000Y-116500000D01*
X147500000Y-119500000D02*
X107500000Y-119500000D01*
X104500000Y-107500000D02*
X104500000Y-116500000D01*
X104500000Y-116500000D02*
X107500000Y-119500000D01*
X147500000Y-119500000D02*
X147500000Y-117500000D01*
X114500000Y-107500000D02*
X114500000Y-108500000D01*
X114500000Y-108500000D02*
X122500000Y-108500000D01*
X147500000Y-55500000D02*
X147500000Y-69500000D01*
X147500000Y-55500000D02*
X107500000Y-55500000D01*
X107500000Y-55500000D02*
X104500000Y-58500000D01*
X98500000Y-107500000D02*
X123500000Y-107500000D01*
X98500000Y-68500000D02*
X123500000Y-68500000D01*
X98500000Y-68500000D02*
X98500000Y-72500000D01*
X98500000Y-72500000D02*
X123500000Y-72500000D01*
X102500000Y-72500000D02*
X102500000Y-103500000D01*
X98500000Y-103500000D02*
X123500000Y-103500000D01*
X98500000Y-103500000D02*
X98500000Y-107500000D01*
X123500000Y-68500000D02*
X123500000Y-72500000D01*
X119500000Y-72500000D02*
X119500000Y-103500000D01*
X123500000Y-103500000D02*
X123500000Y-107500000D01*
X104500000Y-58500000D02*
X104500000Y-68500000D01*
X114500000Y-66500000D02*
X114500000Y-68500000D01*
X137500000Y-66500000D02*
X114500000Y-66500000D01*
X137500000Y-66500000D02*
X137500000Y-69500000D01*
X197500000Y-103500000D02*
X197500000Y-77500000D01*
X187500000Y-77500000D02*
X197500000Y-77500000D01*
X187500000Y-103500000D02*
X197500000Y-103500000D01*
X202500000Y-71000000D02*
X207500000Y-71000000D01*
X190500000Y-70500000D02*
X202500000Y-70500000D01*
X187500000Y-69500000D02*
X190500000Y-69500000D01*
X190500000Y-76500000D02*
X202500000Y-76500000D01*
X202500000Y-76000000D02*
X207500000Y-76000000D01*
X190500000Y-69500000D02*
X190500000Y-77500000D01*
X202500000Y-70500000D02*
X202500000Y-76500000D01*
X207500000Y-71000000D02*
X207500000Y-76000000D01*
X187500000Y-112500000D02*
X190500000Y-112500000D01*
X190500000Y-112500000D02*
X190500000Y-104500000D01*
X190500000Y-104500000D02*
X187500000Y-104500000D01*
X190500000Y-105500000D02*
X202500000Y-105500000D01*
X202500000Y-111500000D02*
X202500000Y-105500000D01*
X190500000Y-111500000D02*
X202500000Y-111500000D01*
X207500000Y-106000000D02*
X207500000Y-111000000D01*
X202500000Y-106000000D02*
X207500000Y-106000000D01*
X207500000Y-111000000D02*
X202500000Y-111000000D01*
X58582779Y-126240000D02*
X58257221Y-126240000D01*
X58582779Y-125220000D02*
X58257221Y-125220000D01*
X83982779Y-127510000D02*
X83657221Y-127510000D01*
X83982779Y-126490000D02*
X83657221Y-126490000D01*
X58582779Y-134110000D02*
X58257221Y-134110000D01*
X58582779Y-135130000D02*
X58257221Y-135130000D01*
X83982779Y-134110000D02*
X83657221Y-134110000D01*
X83982779Y-135130000D02*
X83657221Y-135130000D01*
X61720000Y-117002779D02*
X61720000Y-116677221D01*
X62740000Y-117002779D02*
X62740000Y-116677221D01*
D10*
X128714285Y-140252380D02*
X128714285Y-140966666D01*
X128666666Y-141109523D01*
X128571428Y-141204761D01*
X128428571Y-141252380D01*
X128333333Y-141252380D01*
X129714285Y-141252380D02*
X129142857Y-141252380D01*
X129428571Y-141252380D02*
X129428571Y-140252380D01*
X129333333Y-140395238D01*
X129238095Y-140490476D01*
X129142857Y-140538095D01*
X130333333Y-140252380D02*
X130428571Y-140252380D01*
X130523809Y-140300000D01*
X130571428Y-140347619D01*
X130619047Y-140442857D01*
X130666666Y-140633333D01*
X130666666Y-140871428D01*
X130619047Y-141061904D01*
X130571428Y-141157142D01*
X130523809Y-141204761D01*
X130428571Y-141252380D01*
X130333333Y-141252380D01*
X130238095Y-141204761D01*
X130190476Y-141157142D01*
X130142857Y-141061904D01*
X130095238Y-140871428D01*
X130095238Y-140633333D01*
X130142857Y-140442857D01*
X130190476Y-140347619D01*
X130238095Y-140300000D01*
X130333333Y-140252380D01*
X131000000Y-140252380D02*
X131666666Y-140252380D01*
X131238095Y-141252380D01*
X66837619Y-122967619D02*
X66790000Y-123062857D01*
X66694761Y-123158095D01*
X66551904Y-123300952D01*
X66504285Y-123396190D01*
X66504285Y-123491428D01*
X66742380Y-123443809D02*
X66694761Y-123539047D01*
X66599523Y-123634285D01*
X66409047Y-123681904D01*
X66075714Y-123681904D01*
X65885238Y-123634285D01*
X65790000Y-123539047D01*
X65742380Y-123443809D01*
X65742380Y-123253333D01*
X65790000Y-123158095D01*
X65885238Y-123062857D01*
X66075714Y-123015238D01*
X66409047Y-123015238D01*
X66599523Y-123062857D01*
X66694761Y-123158095D01*
X66742380Y-123253333D01*
X66742380Y-123443809D01*
X66742380Y-122062857D02*
X66742380Y-122634285D01*
X66742380Y-122348571D02*
X65742380Y-122348571D01*
X65885238Y-122443809D01*
X65980476Y-122539047D01*
X66028095Y-122634285D01*
X65742380Y-121443809D02*
X65742380Y-121348571D01*
X65790000Y-121253333D01*
X65837619Y-121205714D01*
X65932857Y-121158095D01*
X66123333Y-121110476D01*
X66361428Y-121110476D01*
X66551904Y-121158095D01*
X66647142Y-121205714D01*
X66694761Y-121253333D01*
X66742380Y-121348571D01*
X66742380Y-121443809D01*
X66694761Y-121539047D01*
X66647142Y-121586666D01*
X66551904Y-121634285D01*
X66361428Y-121681904D01*
X66123333Y-121681904D01*
X65932857Y-121634285D01*
X65837619Y-121586666D01*
X65790000Y-121539047D01*
X65742380Y-121443809D01*
X66075714Y-120253333D02*
X66742380Y-120253333D01*
X65694761Y-120491428D02*
X66409047Y-120729523D01*
X66409047Y-120110476D01*
X59217619Y-122967619D02*
X59170000Y-123062857D01*
X59074761Y-123158095D01*
X58931904Y-123300952D01*
X58884285Y-123396190D01*
X58884285Y-123491428D01*
X59122380Y-123443809D02*
X59074761Y-123539047D01*
X58979523Y-123634285D01*
X58789047Y-123681904D01*
X58455714Y-123681904D01*
X58265238Y-123634285D01*
X58170000Y-123539047D01*
X58122380Y-123443809D01*
X58122380Y-123253333D01*
X58170000Y-123158095D01*
X58265238Y-123062857D01*
X58455714Y-123015238D01*
X58789047Y-123015238D01*
X58979523Y-123062857D01*
X59074761Y-123158095D01*
X59122380Y-123253333D01*
X59122380Y-123443809D01*
X59122380Y-122062857D02*
X59122380Y-122634285D01*
X59122380Y-122348571D02*
X58122380Y-122348571D01*
X58265238Y-122443809D01*
X58360476Y-122539047D01*
X58408095Y-122634285D01*
X58122380Y-121443809D02*
X58122380Y-121348571D01*
X58170000Y-121253333D01*
X58217619Y-121205714D01*
X58312857Y-121158095D01*
X58503333Y-121110476D01*
X58741428Y-121110476D01*
X58931904Y-121158095D01*
X59027142Y-121205714D01*
X59074761Y-121253333D01*
X59122380Y-121348571D01*
X59122380Y-121443809D01*
X59074761Y-121539047D01*
X59027142Y-121586666D01*
X58931904Y-121634285D01*
X58741428Y-121681904D01*
X58503333Y-121681904D01*
X58312857Y-121634285D01*
X58217619Y-121586666D01*
X58170000Y-121539047D01*
X58122380Y-121443809D01*
X59122380Y-120158095D02*
X59122380Y-120729523D01*
X59122380Y-120443809D02*
X58122380Y-120443809D01*
X58265238Y-120539047D01*
X58360476Y-120634285D01*
X58408095Y-120729523D01*
X68937142Y-92559047D02*
X68984761Y-92606666D01*
X69032380Y-92749523D01*
X69032380Y-92844761D01*
X68984761Y-92987619D01*
X68889523Y-93082857D01*
X68794285Y-93130476D01*
X68603809Y-93178095D01*
X68460952Y-93178095D01*
X68270476Y-93130476D01*
X68175238Y-93082857D01*
X68080000Y-92987619D01*
X68032380Y-92844761D01*
X68032380Y-92749523D01*
X68080000Y-92606666D01*
X68127619Y-92559047D01*
X69032380Y-91606666D02*
X69032380Y-92178095D01*
X69032380Y-91892380D02*
X68032380Y-91892380D01*
X68175238Y-91987619D01*
X68270476Y-92082857D01*
X68318095Y-92178095D01*
X68032380Y-90987619D02*
X68032380Y-90892380D01*
X68080000Y-90797142D01*
X68127619Y-90749523D01*
X68222857Y-90701904D01*
X68413333Y-90654285D01*
X68651428Y-90654285D01*
X68841904Y-90701904D01*
X68937142Y-90749523D01*
X68984761Y-90797142D01*
X69032380Y-90892380D01*
X69032380Y-90987619D01*
X68984761Y-91082857D01*
X68937142Y-91130476D01*
X68841904Y-91178095D01*
X68651428Y-91225714D01*
X68413333Y-91225714D01*
X68222857Y-91178095D01*
X68127619Y-91130476D01*
X68080000Y-91082857D01*
X68032380Y-90987619D01*
X69032380Y-89701904D02*
X69032380Y-90273333D01*
X69032380Y-89987619D02*
X68032380Y-89987619D01*
X68175238Y-90082857D01*
X68270476Y-90178095D01*
X68318095Y-90273333D01*
X75287142Y-78589047D02*
X75334761Y-78636666D01*
X75382380Y-78779523D01*
X75382380Y-78874761D01*
X75334761Y-79017619D01*
X75239523Y-79112857D01*
X75144285Y-79160476D01*
X74953809Y-79208095D01*
X74810952Y-79208095D01*
X74620476Y-79160476D01*
X74525238Y-79112857D01*
X74430000Y-79017619D01*
X74382380Y-78874761D01*
X74382380Y-78779523D01*
X74430000Y-78636666D01*
X74477619Y-78589047D01*
X75382380Y-77636666D02*
X75382380Y-78208095D01*
X75382380Y-77922380D02*
X74382380Y-77922380D01*
X74525238Y-78017619D01*
X74620476Y-78112857D01*
X74668095Y-78208095D01*
X74382380Y-77017619D02*
X74382380Y-76922380D01*
X74430000Y-76827142D01*
X74477619Y-76779523D01*
X74572857Y-76731904D01*
X74763333Y-76684285D01*
X75001428Y-76684285D01*
X75191904Y-76731904D01*
X75287142Y-76779523D01*
X75334761Y-76827142D01*
X75382380Y-76922380D01*
X75382380Y-77017619D01*
X75334761Y-77112857D01*
X75287142Y-77160476D01*
X75191904Y-77208095D01*
X75001428Y-77255714D01*
X74763333Y-77255714D01*
X74572857Y-77208095D01*
X74477619Y-77160476D01*
X74430000Y-77112857D01*
X74382380Y-77017619D01*
X74477619Y-76303333D02*
X74430000Y-76255714D01*
X74382380Y-76160476D01*
X74382380Y-75922380D01*
X74430000Y-75827142D01*
X74477619Y-75779523D01*
X74572857Y-75731904D01*
X74668095Y-75731904D01*
X74810952Y-75779523D01*
X75382380Y-76350952D01*
X75382380Y-75731904D01*
X79097142Y-78589047D02*
X79144761Y-78636666D01*
X79192380Y-78779523D01*
X79192380Y-78874761D01*
X79144761Y-79017619D01*
X79049523Y-79112857D01*
X78954285Y-79160476D01*
X78763809Y-79208095D01*
X78620952Y-79208095D01*
X78430476Y-79160476D01*
X78335238Y-79112857D01*
X78240000Y-79017619D01*
X78192380Y-78874761D01*
X78192380Y-78779523D01*
X78240000Y-78636666D01*
X78287619Y-78589047D01*
X79192380Y-77636666D02*
X79192380Y-78208095D01*
X79192380Y-77922380D02*
X78192380Y-77922380D01*
X78335238Y-78017619D01*
X78430476Y-78112857D01*
X78478095Y-78208095D01*
X78192380Y-77017619D02*
X78192380Y-76922380D01*
X78240000Y-76827142D01*
X78287619Y-76779523D01*
X78382857Y-76731904D01*
X78573333Y-76684285D01*
X78811428Y-76684285D01*
X79001904Y-76731904D01*
X79097142Y-76779523D01*
X79144761Y-76827142D01*
X79192380Y-76922380D01*
X79192380Y-77017619D01*
X79144761Y-77112857D01*
X79097142Y-77160476D01*
X79001904Y-77208095D01*
X78811428Y-77255714D01*
X78573333Y-77255714D01*
X78382857Y-77208095D01*
X78287619Y-77160476D01*
X78240000Y-77112857D01*
X78192380Y-77017619D01*
X78192380Y-76350952D02*
X78192380Y-75731904D01*
X78573333Y-76065238D01*
X78573333Y-75922380D01*
X78620952Y-75827142D01*
X78668571Y-75779523D01*
X78763809Y-75731904D01*
X79001904Y-75731904D01*
X79097142Y-75779523D01*
X79144761Y-75827142D01*
X79192380Y-75922380D01*
X79192380Y-76208095D01*
X79144761Y-76303333D01*
X79097142Y-76350952D01*
X82907142Y-78589047D02*
X82954761Y-78636666D01*
X83002380Y-78779523D01*
X83002380Y-78874761D01*
X82954761Y-79017619D01*
X82859523Y-79112857D01*
X82764285Y-79160476D01*
X82573809Y-79208095D01*
X82430952Y-79208095D01*
X82240476Y-79160476D01*
X82145238Y-79112857D01*
X82050000Y-79017619D01*
X82002380Y-78874761D01*
X82002380Y-78779523D01*
X82050000Y-78636666D01*
X82097619Y-78589047D01*
X83002380Y-77636666D02*
X83002380Y-78208095D01*
X83002380Y-77922380D02*
X82002380Y-77922380D01*
X82145238Y-78017619D01*
X82240476Y-78112857D01*
X82288095Y-78208095D01*
X82002380Y-77017619D02*
X82002380Y-76922380D01*
X82050000Y-76827142D01*
X82097619Y-76779523D01*
X82192857Y-76731904D01*
X82383333Y-76684285D01*
X82621428Y-76684285D01*
X82811904Y-76731904D01*
X82907142Y-76779523D01*
X82954761Y-76827142D01*
X83002380Y-76922380D01*
X83002380Y-77017619D01*
X82954761Y-77112857D01*
X82907142Y-77160476D01*
X82811904Y-77208095D01*
X82621428Y-77255714D01*
X82383333Y-77255714D01*
X82192857Y-77208095D01*
X82097619Y-77160476D01*
X82050000Y-77112857D01*
X82002380Y-77017619D01*
X82335714Y-75827142D02*
X83002380Y-75827142D01*
X81954761Y-76065238D02*
X82669047Y-76303333D01*
X82669047Y-75684285D01*
X86717142Y-78589047D02*
X86764761Y-78636666D01*
X86812380Y-78779523D01*
X86812380Y-78874761D01*
X86764761Y-79017619D01*
X86669523Y-79112857D01*
X86574285Y-79160476D01*
X86383809Y-79208095D01*
X86240952Y-79208095D01*
X86050476Y-79160476D01*
X85955238Y-79112857D01*
X85860000Y-79017619D01*
X85812380Y-78874761D01*
X85812380Y-78779523D01*
X85860000Y-78636666D01*
X85907619Y-78589047D01*
X86812380Y-77636666D02*
X86812380Y-78208095D01*
X86812380Y-77922380D02*
X85812380Y-77922380D01*
X85955238Y-78017619D01*
X86050476Y-78112857D01*
X86098095Y-78208095D01*
X85812380Y-77017619D02*
X85812380Y-76922380D01*
X85860000Y-76827142D01*
X85907619Y-76779523D01*
X86002857Y-76731904D01*
X86193333Y-76684285D01*
X86431428Y-76684285D01*
X86621904Y-76731904D01*
X86717142Y-76779523D01*
X86764761Y-76827142D01*
X86812380Y-76922380D01*
X86812380Y-77017619D01*
X86764761Y-77112857D01*
X86717142Y-77160476D01*
X86621904Y-77208095D01*
X86431428Y-77255714D01*
X86193333Y-77255714D01*
X86002857Y-77208095D01*
X85907619Y-77160476D01*
X85860000Y-77112857D01*
X85812380Y-77017619D01*
X85812380Y-75779523D02*
X85812380Y-76255714D01*
X86288571Y-76303333D01*
X86240952Y-76255714D01*
X86193333Y-76160476D01*
X86193333Y-75922380D01*
X86240952Y-75827142D01*
X86288571Y-75779523D01*
X86383809Y-75731904D01*
X86621904Y-75731904D01*
X86717142Y-75779523D01*
X86764761Y-75827142D01*
X86812380Y-75922380D01*
X86812380Y-76160476D01*
X86764761Y-76255714D01*
X86717142Y-76303333D01*
X90527142Y-78589047D02*
X90574761Y-78636666D01*
X90622380Y-78779523D01*
X90622380Y-78874761D01*
X90574761Y-79017619D01*
X90479523Y-79112857D01*
X90384285Y-79160476D01*
X90193809Y-79208095D01*
X90050952Y-79208095D01*
X89860476Y-79160476D01*
X89765238Y-79112857D01*
X89670000Y-79017619D01*
X89622380Y-78874761D01*
X89622380Y-78779523D01*
X89670000Y-78636666D01*
X89717619Y-78589047D01*
X90622380Y-77636666D02*
X90622380Y-78208095D01*
X90622380Y-77922380D02*
X89622380Y-77922380D01*
X89765238Y-78017619D01*
X89860476Y-78112857D01*
X89908095Y-78208095D01*
X89622380Y-77017619D02*
X89622380Y-76922380D01*
X89670000Y-76827142D01*
X89717619Y-76779523D01*
X89812857Y-76731904D01*
X90003333Y-76684285D01*
X90241428Y-76684285D01*
X90431904Y-76731904D01*
X90527142Y-76779523D01*
X90574761Y-76827142D01*
X90622380Y-76922380D01*
X90622380Y-77017619D01*
X90574761Y-77112857D01*
X90527142Y-77160476D01*
X90431904Y-77208095D01*
X90241428Y-77255714D01*
X90003333Y-77255714D01*
X89812857Y-77208095D01*
X89717619Y-77160476D01*
X89670000Y-77112857D01*
X89622380Y-77017619D01*
X89622380Y-75827142D02*
X89622380Y-76017619D01*
X89670000Y-76112857D01*
X89717619Y-76160476D01*
X89860476Y-76255714D01*
X90050952Y-76303333D01*
X90431904Y-76303333D01*
X90527142Y-76255714D01*
X90574761Y-76208095D01*
X90622380Y-76112857D01*
X90622380Y-75922380D01*
X90574761Y-75827142D01*
X90527142Y-75779523D01*
X90431904Y-75731904D01*
X90193809Y-75731904D01*
X90098571Y-75779523D01*
X90050952Y-75827142D01*
X90003333Y-75922380D01*
X90003333Y-76112857D01*
X90050952Y-76208095D01*
X90098571Y-76255714D01*
X90193809Y-76303333D01*
X95607142Y-83669047D02*
X95654761Y-83716666D01*
X95702380Y-83859523D01*
X95702380Y-83954761D01*
X95654761Y-84097619D01*
X95559523Y-84192857D01*
X95464285Y-84240476D01*
X95273809Y-84288095D01*
X95130952Y-84288095D01*
X94940476Y-84240476D01*
X94845238Y-84192857D01*
X94750000Y-84097619D01*
X94702380Y-83954761D01*
X94702380Y-83859523D01*
X94750000Y-83716666D01*
X94797619Y-83669047D01*
X95702380Y-82716666D02*
X95702380Y-83288095D01*
X95702380Y-83002380D02*
X94702380Y-83002380D01*
X94845238Y-83097619D01*
X94940476Y-83192857D01*
X94988095Y-83288095D01*
X94702380Y-82097619D02*
X94702380Y-82002380D01*
X94750000Y-81907142D01*
X94797619Y-81859523D01*
X94892857Y-81811904D01*
X95083333Y-81764285D01*
X95321428Y-81764285D01*
X95511904Y-81811904D01*
X95607142Y-81859523D01*
X95654761Y-81907142D01*
X95702380Y-82002380D01*
X95702380Y-82097619D01*
X95654761Y-82192857D01*
X95607142Y-82240476D01*
X95511904Y-82288095D01*
X95321428Y-82335714D01*
X95083333Y-82335714D01*
X94892857Y-82288095D01*
X94797619Y-82240476D01*
X94750000Y-82192857D01*
X94702380Y-82097619D01*
X94702380Y-81430952D02*
X94702380Y-80764285D01*
X95702380Y-81192857D01*
X60539523Y-128722380D02*
X60539523Y-127722380D01*
X60777619Y-127722380D01*
X60920476Y-127770000D01*
X61015714Y-127865238D01*
X61063333Y-127960476D01*
X61110952Y-128150952D01*
X61110952Y-128293809D01*
X61063333Y-128484285D01*
X61015714Y-128579523D01*
X60920476Y-128674761D01*
X60777619Y-128722380D01*
X60539523Y-128722380D01*
X62063333Y-128722380D02*
X61491904Y-128722380D01*
X61777619Y-128722380D02*
X61777619Y-127722380D01*
X61682380Y-127865238D01*
X61587142Y-127960476D01*
X61491904Y-128008095D01*
X62682380Y-127722380D02*
X62777619Y-127722380D01*
X62872857Y-127770000D01*
X62920476Y-127817619D01*
X62968095Y-127912857D01*
X63015714Y-128103333D01*
X63015714Y-128341428D01*
X62968095Y-128531904D01*
X62920476Y-128627142D01*
X62872857Y-128674761D01*
X62777619Y-128722380D01*
X62682380Y-128722380D01*
X62587142Y-128674761D01*
X62539523Y-128627142D01*
X62491904Y-128531904D01*
X62444285Y-128341428D01*
X62444285Y-128103333D01*
X62491904Y-127912857D01*
X62539523Y-127817619D01*
X62587142Y-127770000D01*
X62682380Y-127722380D01*
X63968095Y-128722380D02*
X63396666Y-128722380D01*
X63682380Y-128722380D02*
X63682380Y-127722380D01*
X63587142Y-127865238D01*
X63491904Y-127960476D01*
X63396666Y-128008095D01*
X60539523Y-132532380D02*
X60539523Y-131532380D01*
X60777619Y-131532380D01*
X60920476Y-131580000D01*
X61015714Y-131675238D01*
X61063333Y-131770476D01*
X61110952Y-131960952D01*
X61110952Y-132103809D01*
X61063333Y-132294285D01*
X61015714Y-132389523D01*
X60920476Y-132484761D01*
X60777619Y-132532380D01*
X60539523Y-132532380D01*
X62063333Y-132532380D02*
X61491904Y-132532380D01*
X61777619Y-132532380D02*
X61777619Y-131532380D01*
X61682380Y-131675238D01*
X61587142Y-131770476D01*
X61491904Y-131818095D01*
X62682380Y-131532380D02*
X62777619Y-131532380D01*
X62872857Y-131580000D01*
X62920476Y-131627619D01*
X62968095Y-131722857D01*
X63015714Y-131913333D01*
X63015714Y-132151428D01*
X62968095Y-132341904D01*
X62920476Y-132437142D01*
X62872857Y-132484761D01*
X62777619Y-132532380D01*
X62682380Y-132532380D01*
X62587142Y-132484761D01*
X62539523Y-132437142D01*
X62491904Y-132341904D01*
X62444285Y-132151428D01*
X62444285Y-131913333D01*
X62491904Y-131722857D01*
X62539523Y-131627619D01*
X62587142Y-131580000D01*
X62682380Y-131532380D01*
X63396666Y-131627619D02*
X63444285Y-131580000D01*
X63539523Y-131532380D01*
X63777619Y-131532380D01*
X63872857Y-131580000D01*
X63920476Y-131627619D01*
X63968095Y-131722857D01*
X63968095Y-131818095D01*
X63920476Y-131960952D01*
X63349047Y-132532380D01*
X63968095Y-132532380D01*
X52592380Y-110910476D02*
X51592380Y-110910476D01*
X51592380Y-110672380D01*
X51640000Y-110529523D01*
X51735238Y-110434285D01*
X51830476Y-110386666D01*
X52020952Y-110339047D01*
X52163809Y-110339047D01*
X52354285Y-110386666D01*
X52449523Y-110434285D01*
X52544761Y-110529523D01*
X52592380Y-110672380D01*
X52592380Y-110910476D01*
X52592380Y-109386666D02*
X52592380Y-109958095D01*
X52592380Y-109672380D02*
X51592380Y-109672380D01*
X51735238Y-109767619D01*
X51830476Y-109862857D01*
X51878095Y-109958095D01*
X51592380Y-108767619D02*
X51592380Y-108672380D01*
X51640000Y-108577142D01*
X51687619Y-108529523D01*
X51782857Y-108481904D01*
X51973333Y-108434285D01*
X52211428Y-108434285D01*
X52401904Y-108481904D01*
X52497142Y-108529523D01*
X52544761Y-108577142D01*
X52592380Y-108672380D01*
X52592380Y-108767619D01*
X52544761Y-108862857D01*
X52497142Y-108910476D01*
X52401904Y-108958095D01*
X52211428Y-109005714D01*
X51973333Y-109005714D01*
X51782857Y-108958095D01*
X51687619Y-108910476D01*
X51640000Y-108862857D01*
X51592380Y-108767619D01*
X51592380Y-108100952D02*
X51592380Y-107481904D01*
X51973333Y-107815238D01*
X51973333Y-107672380D01*
X52020952Y-107577142D01*
X52068571Y-107529523D01*
X52163809Y-107481904D01*
X52401904Y-107481904D01*
X52497142Y-107529523D01*
X52544761Y-107577142D01*
X52592380Y-107672380D01*
X52592380Y-107958095D01*
X52544761Y-108053333D01*
X52497142Y-108100952D01*
X52962380Y-113291904D02*
X51962380Y-113291904D01*
X52962380Y-112720476D02*
X52390952Y-113149047D01*
X51962380Y-112720476D02*
X52533809Y-113291904D01*
X77992380Y-100750476D02*
X76992380Y-100750476D01*
X76992380Y-100512380D01*
X77040000Y-100369523D01*
X77135238Y-100274285D01*
X77230476Y-100226666D01*
X77420952Y-100179047D01*
X77563809Y-100179047D01*
X77754285Y-100226666D01*
X77849523Y-100274285D01*
X77944761Y-100369523D01*
X77992380Y-100512380D01*
X77992380Y-100750476D01*
X77992380Y-99226666D02*
X77992380Y-99798095D01*
X77992380Y-99512380D02*
X76992380Y-99512380D01*
X77135238Y-99607619D01*
X77230476Y-99702857D01*
X77278095Y-99798095D01*
X76992380Y-98607619D02*
X76992380Y-98512380D01*
X77040000Y-98417142D01*
X77087619Y-98369523D01*
X77182857Y-98321904D01*
X77373333Y-98274285D01*
X77611428Y-98274285D01*
X77801904Y-98321904D01*
X77897142Y-98369523D01*
X77944761Y-98417142D01*
X77992380Y-98512380D01*
X77992380Y-98607619D01*
X77944761Y-98702857D01*
X77897142Y-98750476D01*
X77801904Y-98798095D01*
X77611428Y-98845714D01*
X77373333Y-98845714D01*
X77182857Y-98798095D01*
X77087619Y-98750476D01*
X77040000Y-98702857D01*
X76992380Y-98607619D01*
X77325714Y-97417142D02*
X77992380Y-97417142D01*
X76944761Y-97655238D02*
X77659047Y-97893333D01*
X77659047Y-97274285D01*
X78362380Y-103131904D02*
X77362380Y-103131904D01*
X78362380Y-102560476D02*
X77790952Y-102989047D01*
X77362380Y-102560476D02*
X77933809Y-103131904D01*
X98242380Y-91860476D02*
X97242380Y-91860476D01*
X97242380Y-91622380D01*
X97290000Y-91479523D01*
X97385238Y-91384285D01*
X97480476Y-91336666D01*
X97670952Y-91289047D01*
X97813809Y-91289047D01*
X98004285Y-91336666D01*
X98099523Y-91384285D01*
X98194761Y-91479523D01*
X98242380Y-91622380D01*
X98242380Y-91860476D01*
X98242380Y-90336666D02*
X98242380Y-90908095D01*
X98242380Y-90622380D02*
X97242380Y-90622380D01*
X97385238Y-90717619D01*
X97480476Y-90812857D01*
X97528095Y-90908095D01*
X97242380Y-89717619D02*
X97242380Y-89622380D01*
X97290000Y-89527142D01*
X97337619Y-89479523D01*
X97432857Y-89431904D01*
X97623333Y-89384285D01*
X97861428Y-89384285D01*
X98051904Y-89431904D01*
X98147142Y-89479523D01*
X98194761Y-89527142D01*
X98242380Y-89622380D01*
X98242380Y-89717619D01*
X98194761Y-89812857D01*
X98147142Y-89860476D01*
X98051904Y-89908095D01*
X97861428Y-89955714D01*
X97623333Y-89955714D01*
X97432857Y-89908095D01*
X97337619Y-89860476D01*
X97290000Y-89812857D01*
X97242380Y-89717619D01*
X97242380Y-88479523D02*
X97242380Y-88955714D01*
X97718571Y-89003333D01*
X97670952Y-88955714D01*
X97623333Y-88860476D01*
X97623333Y-88622380D01*
X97670952Y-88527142D01*
X97718571Y-88479523D01*
X97813809Y-88431904D01*
X98051904Y-88431904D01*
X98147142Y-88479523D01*
X98194761Y-88527142D01*
X98242380Y-88622380D01*
X98242380Y-88860476D01*
X98194761Y-88955714D01*
X98147142Y-89003333D01*
X93602380Y-94241904D02*
X92602380Y-94241904D01*
X93602380Y-93670476D02*
X93030952Y-94099047D01*
X92602380Y-93670476D02*
X93173809Y-94241904D01*
X53324285Y-122642380D02*
X53324285Y-123356666D01*
X53276666Y-123499523D01*
X53181428Y-123594761D01*
X53038571Y-123642380D01*
X52943333Y-123642380D01*
X54324285Y-123642380D02*
X53752857Y-123642380D01*
X54038571Y-123642380D02*
X54038571Y-122642380D01*
X53943333Y-122785238D01*
X53848095Y-122880476D01*
X53752857Y-122928095D01*
X54943333Y-122642380D02*
X55038571Y-122642380D01*
X55133809Y-122690000D01*
X55181428Y-122737619D01*
X55229047Y-122832857D01*
X55276666Y-123023333D01*
X55276666Y-123261428D01*
X55229047Y-123451904D01*
X55181428Y-123547142D01*
X55133809Y-123594761D01*
X55038571Y-123642380D01*
X54943333Y-123642380D01*
X54848095Y-123594761D01*
X54800476Y-123547142D01*
X54752857Y-123451904D01*
X54705238Y-123261428D01*
X54705238Y-123023333D01*
X54752857Y-122832857D01*
X54800476Y-122737619D01*
X54848095Y-122690000D01*
X54943333Y-122642380D01*
X56229047Y-123642380D02*
X55657619Y-123642380D01*
X55943333Y-123642380D02*
X55943333Y-122642380D01*
X55848095Y-122785238D01*
X55752857Y-122880476D01*
X55657619Y-122928095D01*
X61682380Y-85105714D02*
X62396666Y-85105714D01*
X62539523Y-85153333D01*
X62634761Y-85248571D01*
X62682380Y-85391428D01*
X62682380Y-85486666D01*
X62682380Y-84105714D02*
X62682380Y-84677142D01*
X62682380Y-84391428D02*
X61682380Y-84391428D01*
X61825238Y-84486666D01*
X61920476Y-84581904D01*
X61968095Y-84677142D01*
X61682380Y-83486666D02*
X61682380Y-83391428D01*
X61730000Y-83296190D01*
X61777619Y-83248571D01*
X61872857Y-83200952D01*
X62063333Y-83153333D01*
X62301428Y-83153333D01*
X62491904Y-83200952D01*
X62587142Y-83248571D01*
X62634761Y-83296190D01*
X62682380Y-83391428D01*
X62682380Y-83486666D01*
X62634761Y-83581904D01*
X62587142Y-83629523D01*
X62491904Y-83677142D01*
X62301428Y-83724761D01*
X62063333Y-83724761D01*
X61872857Y-83677142D01*
X61777619Y-83629523D01*
X61730000Y-83581904D01*
X61682380Y-83486666D01*
X61777619Y-82772380D02*
X61730000Y-82724761D01*
X61682380Y-82629523D01*
X61682380Y-82391428D01*
X61730000Y-82296190D01*
X61777619Y-82248571D01*
X61872857Y-82200952D01*
X61968095Y-82200952D01*
X62110952Y-82248571D01*
X62682380Y-82820000D01*
X62682380Y-82200952D01*
X53324285Y-136612380D02*
X53324285Y-137326666D01*
X53276666Y-137469523D01*
X53181428Y-137564761D01*
X53038571Y-137612380D01*
X52943333Y-137612380D01*
X54324285Y-137612380D02*
X53752857Y-137612380D01*
X54038571Y-137612380D02*
X54038571Y-136612380D01*
X53943333Y-136755238D01*
X53848095Y-136850476D01*
X53752857Y-136898095D01*
X54943333Y-136612380D02*
X55038571Y-136612380D01*
X55133809Y-136660000D01*
X55181428Y-136707619D01*
X55229047Y-136802857D01*
X55276666Y-136993333D01*
X55276666Y-137231428D01*
X55229047Y-137421904D01*
X55181428Y-137517142D01*
X55133809Y-137564761D01*
X55038571Y-137612380D01*
X54943333Y-137612380D01*
X54848095Y-137564761D01*
X54800476Y-137517142D01*
X54752857Y-137421904D01*
X54705238Y-137231428D01*
X54705238Y-136993333D01*
X54752857Y-136802857D01*
X54800476Y-136707619D01*
X54848095Y-136660000D01*
X54943333Y-136612380D01*
X55610000Y-136612380D02*
X56229047Y-136612380D01*
X55895714Y-136993333D01*
X56038571Y-136993333D01*
X56133809Y-137040952D01*
X56181428Y-137088571D01*
X56229047Y-137183809D01*
X56229047Y-137421904D01*
X56181428Y-137517142D01*
X56133809Y-137564761D01*
X56038571Y-137612380D01*
X55752857Y-137612380D01*
X55657619Y-137564761D01*
X55610000Y-137517142D01*
X66127619Y-110267619D02*
X66080000Y-110362857D01*
X65984761Y-110458095D01*
X65841904Y-110600952D01*
X65794285Y-110696190D01*
X65794285Y-110791428D01*
X66032380Y-110743809D02*
X65984761Y-110839047D01*
X65889523Y-110934285D01*
X65699047Y-110981904D01*
X65365714Y-110981904D01*
X65175238Y-110934285D01*
X65080000Y-110839047D01*
X65032380Y-110743809D01*
X65032380Y-110553333D01*
X65080000Y-110458095D01*
X65175238Y-110362857D01*
X65365714Y-110315238D01*
X65699047Y-110315238D01*
X65889523Y-110362857D01*
X65984761Y-110458095D01*
X66032380Y-110553333D01*
X66032380Y-110743809D01*
X66032380Y-109362857D02*
X66032380Y-109934285D01*
X66032380Y-109648571D02*
X65032380Y-109648571D01*
X65175238Y-109743809D01*
X65270476Y-109839047D01*
X65318095Y-109934285D01*
X65032380Y-108743809D02*
X65032380Y-108648571D01*
X65080000Y-108553333D01*
X65127619Y-108505714D01*
X65222857Y-108458095D01*
X65413333Y-108410476D01*
X65651428Y-108410476D01*
X65841904Y-108458095D01*
X65937142Y-108505714D01*
X65984761Y-108553333D01*
X66032380Y-108648571D01*
X66032380Y-108743809D01*
X65984761Y-108839047D01*
X65937142Y-108886666D01*
X65841904Y-108934285D01*
X65651428Y-108981904D01*
X65413333Y-108981904D01*
X65222857Y-108934285D01*
X65127619Y-108886666D01*
X65080000Y-108839047D01*
X65032380Y-108743809D01*
X65127619Y-108029523D02*
X65080000Y-107981904D01*
X65032380Y-107886666D01*
X65032380Y-107648571D01*
X65080000Y-107553333D01*
X65127619Y-107505714D01*
X65222857Y-107458095D01*
X65318095Y-107458095D01*
X65460952Y-107505714D01*
X66032380Y-108077142D01*
X66032380Y-107458095D01*
X58507619Y-110267619D02*
X58460000Y-110362857D01*
X58364761Y-110458095D01*
X58221904Y-110600952D01*
X58174285Y-110696190D01*
X58174285Y-110791428D01*
X58412380Y-110743809D02*
X58364761Y-110839047D01*
X58269523Y-110934285D01*
X58079047Y-110981904D01*
X57745714Y-110981904D01*
X57555238Y-110934285D01*
X57460000Y-110839047D01*
X57412380Y-110743809D01*
X57412380Y-110553333D01*
X57460000Y-110458095D01*
X57555238Y-110362857D01*
X57745714Y-110315238D01*
X58079047Y-110315238D01*
X58269523Y-110362857D01*
X58364761Y-110458095D01*
X58412380Y-110553333D01*
X58412380Y-110743809D01*
X58412380Y-109362857D02*
X58412380Y-109934285D01*
X58412380Y-109648571D02*
X57412380Y-109648571D01*
X57555238Y-109743809D01*
X57650476Y-109839047D01*
X57698095Y-109934285D01*
X57412380Y-108743809D02*
X57412380Y-108648571D01*
X57460000Y-108553333D01*
X57507619Y-108505714D01*
X57602857Y-108458095D01*
X57793333Y-108410476D01*
X58031428Y-108410476D01*
X58221904Y-108458095D01*
X58317142Y-108505714D01*
X58364761Y-108553333D01*
X58412380Y-108648571D01*
X58412380Y-108743809D01*
X58364761Y-108839047D01*
X58317142Y-108886666D01*
X58221904Y-108934285D01*
X58031428Y-108981904D01*
X57793333Y-108981904D01*
X57602857Y-108934285D01*
X57507619Y-108886666D01*
X57460000Y-108839047D01*
X57412380Y-108743809D01*
X57412380Y-108077142D02*
X57412380Y-107458095D01*
X57793333Y-107791428D01*
X57793333Y-107648571D01*
X57840952Y-107553333D01*
X57888571Y-107505714D01*
X57983809Y-107458095D01*
X58221904Y-107458095D01*
X58317142Y-107505714D01*
X58364761Y-107553333D01*
X58412380Y-107648571D01*
X58412380Y-107934285D01*
X58364761Y-108029523D01*
X58317142Y-108077142D01*
X84727619Y-98467619D02*
X84680000Y-98562857D01*
X84584761Y-98658095D01*
X84441904Y-98800952D01*
X84394285Y-98896190D01*
X84394285Y-98991428D01*
X84632380Y-98943809D02*
X84584761Y-99039047D01*
X84489523Y-99134285D01*
X84299047Y-99181904D01*
X83965714Y-99181904D01*
X83775238Y-99134285D01*
X83680000Y-99039047D01*
X83632380Y-98943809D01*
X83632380Y-98753333D01*
X83680000Y-98658095D01*
X83775238Y-98562857D01*
X83965714Y-98515238D01*
X84299047Y-98515238D01*
X84489523Y-98562857D01*
X84584761Y-98658095D01*
X84632380Y-98753333D01*
X84632380Y-98943809D01*
X84632380Y-97562857D02*
X84632380Y-98134285D01*
X84632380Y-97848571D02*
X83632380Y-97848571D01*
X83775238Y-97943809D01*
X83870476Y-98039047D01*
X83918095Y-98134285D01*
X83632380Y-96943809D02*
X83632380Y-96848571D01*
X83680000Y-96753333D01*
X83727619Y-96705714D01*
X83822857Y-96658095D01*
X84013333Y-96610476D01*
X84251428Y-96610476D01*
X84441904Y-96658095D01*
X84537142Y-96705714D01*
X84584761Y-96753333D01*
X84632380Y-96848571D01*
X84632380Y-96943809D01*
X84584761Y-97039047D01*
X84537142Y-97086666D01*
X84441904Y-97134285D01*
X84251428Y-97181904D01*
X84013333Y-97181904D01*
X83822857Y-97134285D01*
X83727619Y-97086666D01*
X83680000Y-97039047D01*
X83632380Y-96943809D01*
X83632380Y-95705714D02*
X83632380Y-96181904D01*
X84108571Y-96229523D01*
X84060952Y-96181904D01*
X84013333Y-96086666D01*
X84013333Y-95848571D01*
X84060952Y-95753333D01*
X84108571Y-95705714D01*
X84203809Y-95658095D01*
X84441904Y-95658095D01*
X84537142Y-95705714D01*
X84584761Y-95753333D01*
X84632380Y-95848571D01*
X84632380Y-96086666D01*
X84584761Y-96181904D01*
X84537142Y-96229523D01*
X76350952Y-109502380D02*
X76017619Y-109026190D01*
X75779523Y-109502380D02*
X75779523Y-108502380D01*
X76160476Y-108502380D01*
X76255714Y-108550000D01*
X76303333Y-108597619D01*
X76350952Y-108692857D01*
X76350952Y-108835714D01*
X76303333Y-108930952D01*
X76255714Y-108978571D01*
X76160476Y-109026190D01*
X75779523Y-109026190D01*
X77303333Y-109502380D02*
X76731904Y-109502380D01*
X77017619Y-109502380D02*
X77017619Y-108502380D01*
X76922380Y-108645238D01*
X76827142Y-108740476D01*
X76731904Y-108788095D01*
X77922380Y-108502380D02*
X78017619Y-108502380D01*
X78112857Y-108550000D01*
X78160476Y-108597619D01*
X78208095Y-108692857D01*
X78255714Y-108883333D01*
X78255714Y-109121428D01*
X78208095Y-109311904D01*
X78160476Y-109407142D01*
X78112857Y-109454761D01*
X78017619Y-109502380D01*
X77922380Y-109502380D01*
X77827142Y-109454761D01*
X77779523Y-109407142D01*
X77731904Y-109311904D01*
X77684285Y-109121428D01*
X77684285Y-108883333D01*
X77731904Y-108692857D01*
X77779523Y-108597619D01*
X77827142Y-108550000D01*
X77922380Y-108502380D01*
X79112857Y-108502380D02*
X78922380Y-108502380D01*
X78827142Y-108550000D01*
X78779523Y-108597619D01*
X78684285Y-108740476D01*
X78636666Y-108930952D01*
X78636666Y-109311904D01*
X78684285Y-109407142D01*
X78731904Y-109454761D01*
X78827142Y-109502380D01*
X79017619Y-109502380D01*
X79112857Y-109454761D01*
X79160476Y-109407142D01*
X79208095Y-109311904D01*
X79208095Y-109073809D01*
X79160476Y-108978571D01*
X79112857Y-108930952D01*
X79017619Y-108883333D01*
X78827142Y-108883333D01*
X78731904Y-108930952D01*
X78684285Y-108978571D01*
X78636666Y-109073809D01*
X74485714Y-136612380D02*
X74485714Y-137421904D01*
X74533333Y-137517142D01*
X74580952Y-137564761D01*
X74676190Y-137612380D01*
X74866666Y-137612380D01*
X74961904Y-137564761D01*
X75009523Y-137517142D01*
X75057142Y-137421904D01*
X75057142Y-136612380D01*
X76057142Y-137612380D02*
X75485714Y-137612380D01*
X75771428Y-137612380D02*
X75771428Y-136612380D01*
X75676190Y-136755238D01*
X75580952Y-136850476D01*
X75485714Y-136898095D01*
X76676190Y-136612380D02*
X76771428Y-136612380D01*
X76866666Y-136660000D01*
X76914285Y-136707619D01*
X76961904Y-136802857D01*
X77009523Y-136993333D01*
X77009523Y-137231428D01*
X76961904Y-137421904D01*
X76914285Y-137517142D01*
X76866666Y-137564761D01*
X76771428Y-137612380D01*
X76676190Y-137612380D01*
X76580952Y-137564761D01*
X76533333Y-137517142D01*
X76485714Y-137421904D01*
X76438095Y-137231428D01*
X76438095Y-136993333D01*
X76485714Y-136802857D01*
X76533333Y-136707619D01*
X76580952Y-136660000D01*
X76676190Y-136612380D01*
X77342857Y-136612380D02*
X77961904Y-136612380D01*
X77628571Y-136993333D01*
X77771428Y-136993333D01*
X77866666Y-137040952D01*
X77914285Y-137088571D01*
X77961904Y-137183809D01*
X77961904Y-137421904D01*
X77914285Y-137517142D01*
X77866666Y-137564761D01*
X77771428Y-137612380D01*
X77485714Y-137612380D01*
X77390476Y-137564761D01*
X77342857Y-137517142D01*
X82462380Y-118554285D02*
X83271904Y-118554285D01*
X83367142Y-118506666D01*
X83414761Y-118459047D01*
X83462380Y-118363809D01*
X83462380Y-118173333D01*
X83414761Y-118078095D01*
X83367142Y-118030476D01*
X83271904Y-117982857D01*
X82462380Y-117982857D01*
X83462380Y-116982857D02*
X83462380Y-117554285D01*
X83462380Y-117268571D02*
X82462380Y-117268571D01*
X82605238Y-117363809D01*
X82700476Y-117459047D01*
X82748095Y-117554285D01*
X82462380Y-116363809D02*
X82462380Y-116268571D01*
X82510000Y-116173333D01*
X82557619Y-116125714D01*
X82652857Y-116078095D01*
X82843333Y-116030476D01*
X83081428Y-116030476D01*
X83271904Y-116078095D01*
X83367142Y-116125714D01*
X83414761Y-116173333D01*
X83462380Y-116268571D01*
X83462380Y-116363809D01*
X83414761Y-116459047D01*
X83367142Y-116506666D01*
X83271904Y-116554285D01*
X83081428Y-116601904D01*
X82843333Y-116601904D01*
X82652857Y-116554285D01*
X82557619Y-116506666D01*
X82510000Y-116459047D01*
X82462380Y-116363809D01*
X83462380Y-115078095D02*
X83462380Y-115649523D01*
X83462380Y-115363809D02*
X82462380Y-115363809D01*
X82605238Y-115459047D01*
X82700476Y-115554285D01*
X82748095Y-115649523D01*
X91352380Y-118554285D02*
X92161904Y-118554285D01*
X92257142Y-118506666D01*
X92304761Y-118459047D01*
X92352380Y-118363809D01*
X92352380Y-118173333D01*
X92304761Y-118078095D01*
X92257142Y-118030476D01*
X92161904Y-117982857D01*
X91352380Y-117982857D01*
X92352380Y-116982857D02*
X92352380Y-117554285D01*
X92352380Y-117268571D02*
X91352380Y-117268571D01*
X91495238Y-117363809D01*
X91590476Y-117459047D01*
X91638095Y-117554285D01*
X91352380Y-116363809D02*
X91352380Y-116268571D01*
X91400000Y-116173333D01*
X91447619Y-116125714D01*
X91542857Y-116078095D01*
X91733333Y-116030476D01*
X91971428Y-116030476D01*
X92161904Y-116078095D01*
X92257142Y-116125714D01*
X92304761Y-116173333D01*
X92352380Y-116268571D01*
X92352380Y-116363809D01*
X92304761Y-116459047D01*
X92257142Y-116506666D01*
X92161904Y-116554285D01*
X91971428Y-116601904D01*
X91733333Y-116601904D01*
X91542857Y-116554285D01*
X91447619Y-116506666D01*
X91400000Y-116459047D01*
X91352380Y-116363809D01*
X91447619Y-115649523D02*
X91400000Y-115601904D01*
X91352380Y-115506666D01*
X91352380Y-115268571D01*
X91400000Y-115173333D01*
X91447619Y-115125714D01*
X91542857Y-115078095D01*
X91638095Y-115078095D01*
X91780952Y-115125714D01*
X92352380Y-115697142D01*
X92352380Y-115078095D01*
X53714285Y-50252380D02*
X53714285Y-50966666D01*
X53666666Y-51109523D01*
X53571428Y-51204761D01*
X53428571Y-51252380D01*
X53333333Y-51252380D01*
X54714285Y-51252380D02*
X54142857Y-51252380D01*
X54428571Y-51252380D02*
X54428571Y-50252380D01*
X54333333Y-50395238D01*
X54238095Y-50490476D01*
X54142857Y-50538095D01*
X55333333Y-50252380D02*
X55428571Y-50252380D01*
X55523809Y-50300000D01*
X55571428Y-50347619D01*
X55619047Y-50442857D01*
X55666666Y-50633333D01*
X55666666Y-50871428D01*
X55619047Y-51061904D01*
X55571428Y-51157142D01*
X55523809Y-51204761D01*
X55428571Y-51252380D01*
X55333333Y-51252380D01*
X55238095Y-51204761D01*
X55190476Y-51157142D01*
X55142857Y-51061904D01*
X55095238Y-50871428D01*
X55095238Y-50633333D01*
X55142857Y-50442857D01*
X55190476Y-50347619D01*
X55238095Y-50300000D01*
X55333333Y-50252380D01*
X56523809Y-50585714D02*
X56523809Y-51252380D01*
X56285714Y-50204761D02*
X56047619Y-50919047D01*
X56666666Y-50919047D01*
X53714285Y-140252380D02*
X53714285Y-140966666D01*
X53666666Y-141109523D01*
X53571428Y-141204761D01*
X53428571Y-141252380D01*
X53333333Y-141252380D01*
X54714285Y-141252380D02*
X54142857Y-141252380D01*
X54428571Y-141252380D02*
X54428571Y-140252380D01*
X54333333Y-140395238D01*
X54238095Y-140490476D01*
X54142857Y-140538095D01*
X55333333Y-140252380D02*
X55428571Y-140252380D01*
X55523809Y-140300000D01*
X55571428Y-140347619D01*
X55619047Y-140442857D01*
X55666666Y-140633333D01*
X55666666Y-140871428D01*
X55619047Y-141061904D01*
X55571428Y-141157142D01*
X55523809Y-141204761D01*
X55428571Y-141252380D01*
X55333333Y-141252380D01*
X55238095Y-141204761D01*
X55190476Y-141157142D01*
X55142857Y-141061904D01*
X55095238Y-140871428D01*
X55095238Y-140633333D01*
X55142857Y-140442857D01*
X55190476Y-140347619D01*
X55238095Y-140300000D01*
X55333333Y-140252380D01*
X56571428Y-140252380D02*
X56095238Y-140252380D01*
X56047619Y-140728571D01*
X56095238Y-140680952D01*
X56190476Y-140633333D01*
X56428571Y-140633333D01*
X56523809Y-140680952D01*
X56571428Y-140728571D01*
X56619047Y-140823809D01*
X56619047Y-141061904D01*
X56571428Y-141157142D01*
X56523809Y-141204761D01*
X56428571Y-141252380D01*
X56190476Y-141252380D01*
X56095238Y-141204761D01*
X56047619Y-141157142D01*
X128714285Y-50252380D02*
X128714285Y-50966666D01*
X128666666Y-51109523D01*
X128571428Y-51204761D01*
X128428571Y-51252380D01*
X128333333Y-51252380D01*
X129714285Y-51252380D02*
X129142857Y-51252380D01*
X129428571Y-51252380D02*
X129428571Y-50252380D01*
X129333333Y-50395238D01*
X129238095Y-50490476D01*
X129142857Y-50538095D01*
X130333333Y-50252380D02*
X130428571Y-50252380D01*
X130523809Y-50300000D01*
X130571428Y-50347619D01*
X130619047Y-50442857D01*
X130666666Y-50633333D01*
X130666666Y-50871428D01*
X130619047Y-51061904D01*
X130571428Y-51157142D01*
X130523809Y-51204761D01*
X130428571Y-51252380D01*
X130333333Y-51252380D01*
X130238095Y-51204761D01*
X130190476Y-51157142D01*
X130142857Y-51061904D01*
X130095238Y-50871428D01*
X130095238Y-50633333D01*
X130142857Y-50442857D01*
X130190476Y-50347619D01*
X130238095Y-50300000D01*
X130333333Y-50252380D01*
X131523809Y-50252380D02*
X131333333Y-50252380D01*
X131238095Y-50300000D01*
X131190476Y-50347619D01*
X131095238Y-50490476D01*
X131047619Y-50680952D01*
X131047619Y-51061904D01*
X131095238Y-51157142D01*
X131142857Y-51204761D01*
X131238095Y-51252380D01*
X131428571Y-51252380D01*
X131523809Y-51204761D01*
X131571428Y-51157142D01*
X131619047Y-51061904D01*
X131619047Y-50823809D01*
X131571428Y-50728571D01*
X131523809Y-50680952D01*
X131428571Y-50633333D01*
X131238095Y-50633333D01*
X131142857Y-50680952D01*
X131095238Y-50728571D01*
X131047619Y-50823809D01*
X203714285Y-50252380D02*
X203714285Y-50966666D01*
X203666666Y-51109523D01*
X203571428Y-51204761D01*
X203428571Y-51252380D01*
X203333333Y-51252380D01*
X204714285Y-51252380D02*
X204142857Y-51252380D01*
X204428571Y-51252380D02*
X204428571Y-50252380D01*
X204333333Y-50395238D01*
X204238095Y-50490476D01*
X204142857Y-50538095D01*
X205333333Y-50252380D02*
X205428571Y-50252380D01*
X205523809Y-50300000D01*
X205571428Y-50347619D01*
X205619047Y-50442857D01*
X205666666Y-50633333D01*
X205666666Y-50871428D01*
X205619047Y-51061904D01*
X205571428Y-51157142D01*
X205523809Y-51204761D01*
X205428571Y-51252380D01*
X205333333Y-51252380D01*
X205238095Y-51204761D01*
X205190476Y-51157142D01*
X205142857Y-51061904D01*
X205095238Y-50871428D01*
X205095238Y-50633333D01*
X205142857Y-50442857D01*
X205190476Y-50347619D01*
X205238095Y-50300000D01*
X205333333Y-50252380D01*
X206238095Y-50680952D02*
X206142857Y-50633333D01*
X206095238Y-50585714D01*
X206047619Y-50490476D01*
X206047619Y-50442857D01*
X206095238Y-50347619D01*
X206142857Y-50300000D01*
X206238095Y-50252380D01*
X206428571Y-50252380D01*
X206523809Y-50300000D01*
X206571428Y-50347619D01*
X206619047Y-50442857D01*
X206619047Y-50490476D01*
X206571428Y-50585714D01*
X206523809Y-50633333D01*
X206428571Y-50680952D01*
X206238095Y-50680952D01*
X206142857Y-50728571D01*
X206095238Y-50776190D01*
X206047619Y-50871428D01*
X206047619Y-51061904D01*
X206095238Y-51157142D01*
X206142857Y-51204761D01*
X206238095Y-51252380D01*
X206428571Y-51252380D01*
X206523809Y-51204761D01*
X206571428Y-51157142D01*
X206619047Y-51061904D01*
X206619047Y-50871428D01*
X206571428Y-50776190D01*
X206523809Y-50728571D01*
X206428571Y-50680952D01*
X203714285Y-140252380D02*
X203714285Y-140966666D01*
X203666666Y-141109523D01*
X203571428Y-141204761D01*
X203428571Y-141252380D01*
X203333333Y-141252380D01*
X204714285Y-141252380D02*
X204142857Y-141252380D01*
X204428571Y-141252380D02*
X204428571Y-140252380D01*
X204333333Y-140395238D01*
X204238095Y-140490476D01*
X204142857Y-140538095D01*
X205333333Y-140252380D02*
X205428571Y-140252380D01*
X205523809Y-140300000D01*
X205571428Y-140347619D01*
X205619047Y-140442857D01*
X205666666Y-140633333D01*
X205666666Y-140871428D01*
X205619047Y-141061904D01*
X205571428Y-141157142D01*
X205523809Y-141204761D01*
X205428571Y-141252380D01*
X205333333Y-141252380D01*
X205238095Y-141204761D01*
X205190476Y-141157142D01*
X205142857Y-141061904D01*
X205095238Y-140871428D01*
X205095238Y-140633333D01*
X205142857Y-140442857D01*
X205190476Y-140347619D01*
X205238095Y-140300000D01*
X205333333Y-140252380D01*
X206142857Y-141252380D02*
X206333333Y-141252380D01*
X206428571Y-141204761D01*
X206476190Y-141157142D01*
X206571428Y-141014285D01*
X206619047Y-140823809D01*
X206619047Y-140442857D01*
X206571428Y-140347619D01*
X206523809Y-140300000D01*
X206428571Y-140252380D01*
X206238095Y-140252380D01*
X206142857Y-140300000D01*
X206095238Y-140347619D01*
X206047619Y-140442857D01*
X206047619Y-140680952D01*
X206095238Y-140776190D01*
X206142857Y-140823809D01*
X206238095Y-140871428D01*
X206428571Y-140871428D01*
X206523809Y-140823809D01*
X206571428Y-140776190D01*
X206619047Y-140680952D01*
X63562380Y-67325714D02*
X64276666Y-67325714D01*
X64419523Y-67373333D01*
X64514761Y-67468571D01*
X64562380Y-67611428D01*
X64562380Y-67706666D01*
X64562380Y-66325714D02*
X64562380Y-66897142D01*
X64562380Y-66611428D02*
X63562380Y-66611428D01*
X63705238Y-66706666D01*
X63800476Y-66801904D01*
X63848095Y-66897142D01*
X64562380Y-65373333D02*
X64562380Y-65944761D01*
X64562380Y-65659047D02*
X63562380Y-65659047D01*
X63705238Y-65754285D01*
X63800476Y-65849523D01*
X63848095Y-65944761D01*
X63562380Y-64754285D02*
X63562380Y-64659047D01*
X63610000Y-64563809D01*
X63657619Y-64516190D01*
X63752857Y-64468571D01*
X63943333Y-64420952D01*
X64181428Y-64420952D01*
X64371904Y-64468571D01*
X64467142Y-64516190D01*
X64514761Y-64563809D01*
X64562380Y-64659047D01*
X64562380Y-64754285D01*
X64514761Y-64849523D01*
X64467142Y-64897142D01*
X64371904Y-64944761D01*
X64181428Y-64992380D01*
X63943333Y-64992380D01*
X63752857Y-64944761D01*
X63657619Y-64897142D01*
X63610000Y-64849523D01*
X63562380Y-64754285D01*
X171380952Y-62682380D02*
X170904761Y-62682380D01*
X170904761Y-61682380D01*
X172238095Y-62682380D02*
X171666666Y-62682380D01*
X171952380Y-62682380D02*
X171952380Y-61682380D01*
X171857142Y-61825238D01*
X171761904Y-61920476D01*
X171666666Y-61968095D01*
X172857142Y-61682380D02*
X172952380Y-61682380D01*
X173047619Y-61730000D01*
X173095238Y-61777619D01*
X173142857Y-61872857D01*
X173190476Y-62063333D01*
X173190476Y-62301428D01*
X173142857Y-62491904D01*
X173095238Y-62587142D01*
X173047619Y-62634761D01*
X172952380Y-62682380D01*
X172857142Y-62682380D01*
X172761904Y-62634761D01*
X172714285Y-62587142D01*
X172666666Y-62491904D01*
X172619047Y-62301428D01*
X172619047Y-62063333D01*
X172666666Y-61872857D01*
X172714285Y-61777619D01*
X172761904Y-61730000D01*
X172857142Y-61682380D01*
X174142857Y-62682380D02*
X173571428Y-62682380D01*
X173857142Y-62682380D02*
X173857142Y-61682380D01*
X173761904Y-61825238D01*
X173666666Y-61920476D01*
X173571428Y-61968095D01*
X61110952Y-126182380D02*
X60777619Y-125706190D01*
X60539523Y-126182380D02*
X60539523Y-125182380D01*
X60920476Y-125182380D01*
X61015714Y-125230000D01*
X61063333Y-125277619D01*
X61110952Y-125372857D01*
X61110952Y-125515714D01*
X61063333Y-125610952D01*
X61015714Y-125658571D01*
X60920476Y-125706190D01*
X60539523Y-125706190D01*
X62063333Y-126182380D02*
X61491904Y-126182380D01*
X61777619Y-126182380D02*
X61777619Y-125182380D01*
X61682380Y-125325238D01*
X61587142Y-125420476D01*
X61491904Y-125468095D01*
X62682380Y-125182380D02*
X62777619Y-125182380D01*
X62872857Y-125230000D01*
X62920476Y-125277619D01*
X62968095Y-125372857D01*
X63015714Y-125563333D01*
X63015714Y-125801428D01*
X62968095Y-125991904D01*
X62920476Y-126087142D01*
X62872857Y-126134761D01*
X62777619Y-126182380D01*
X62682380Y-126182380D01*
X62587142Y-126134761D01*
X62539523Y-126087142D01*
X62491904Y-125991904D01*
X62444285Y-125801428D01*
X62444285Y-125563333D01*
X62491904Y-125372857D01*
X62539523Y-125277619D01*
X62587142Y-125230000D01*
X62682380Y-125182380D01*
X63968095Y-126182380D02*
X63396666Y-126182380D01*
X63682380Y-126182380D02*
X63682380Y-125182380D01*
X63587142Y-125325238D01*
X63491904Y-125420476D01*
X63396666Y-125468095D01*
X82700952Y-126182380D02*
X82367619Y-125706190D01*
X82129523Y-126182380D02*
X82129523Y-125182380D01*
X82510476Y-125182380D01*
X82605714Y-125230000D01*
X82653333Y-125277619D01*
X82700952Y-125372857D01*
X82700952Y-125515714D01*
X82653333Y-125610952D01*
X82605714Y-125658571D01*
X82510476Y-125706190D01*
X82129523Y-125706190D01*
X83653333Y-126182380D02*
X83081904Y-126182380D01*
X83367619Y-126182380D02*
X83367619Y-125182380D01*
X83272380Y-125325238D01*
X83177142Y-125420476D01*
X83081904Y-125468095D01*
X84272380Y-125182380D02*
X84367619Y-125182380D01*
X84462857Y-125230000D01*
X84510476Y-125277619D01*
X84558095Y-125372857D01*
X84605714Y-125563333D01*
X84605714Y-125801428D01*
X84558095Y-125991904D01*
X84510476Y-126087142D01*
X84462857Y-126134761D01*
X84367619Y-126182380D01*
X84272380Y-126182380D01*
X84177142Y-126134761D01*
X84129523Y-126087142D01*
X84081904Y-125991904D01*
X84034285Y-125801428D01*
X84034285Y-125563333D01*
X84081904Y-125372857D01*
X84129523Y-125277619D01*
X84177142Y-125230000D01*
X84272380Y-125182380D01*
X84986666Y-125277619D02*
X85034285Y-125230000D01*
X85129523Y-125182380D01*
X85367619Y-125182380D01*
X85462857Y-125230000D01*
X85510476Y-125277619D01*
X85558095Y-125372857D01*
X85558095Y-125468095D01*
X85510476Y-125610952D01*
X84939047Y-126182380D01*
X85558095Y-126182380D01*
X61110952Y-135072380D02*
X60777619Y-134596190D01*
X60539523Y-135072380D02*
X60539523Y-134072380D01*
X60920476Y-134072380D01*
X61015714Y-134120000D01*
X61063333Y-134167619D01*
X61110952Y-134262857D01*
X61110952Y-134405714D01*
X61063333Y-134500952D01*
X61015714Y-134548571D01*
X60920476Y-134596190D01*
X60539523Y-134596190D01*
X62063333Y-135072380D02*
X61491904Y-135072380D01*
X61777619Y-135072380D02*
X61777619Y-134072380D01*
X61682380Y-134215238D01*
X61587142Y-134310476D01*
X61491904Y-134358095D01*
X62682380Y-134072380D02*
X62777619Y-134072380D01*
X62872857Y-134120000D01*
X62920476Y-134167619D01*
X62968095Y-134262857D01*
X63015714Y-134453333D01*
X63015714Y-134691428D01*
X62968095Y-134881904D01*
X62920476Y-134977142D01*
X62872857Y-135024761D01*
X62777619Y-135072380D01*
X62682380Y-135072380D01*
X62587142Y-135024761D01*
X62539523Y-134977142D01*
X62491904Y-134881904D01*
X62444285Y-134691428D01*
X62444285Y-134453333D01*
X62491904Y-134262857D01*
X62539523Y-134167619D01*
X62587142Y-134120000D01*
X62682380Y-134072380D01*
X63349047Y-134072380D02*
X63968095Y-134072380D01*
X63634761Y-134453333D01*
X63777619Y-134453333D01*
X63872857Y-134500952D01*
X63920476Y-134548571D01*
X63968095Y-134643809D01*
X63968095Y-134881904D01*
X63920476Y-134977142D01*
X63872857Y-135024761D01*
X63777619Y-135072380D01*
X63491904Y-135072380D01*
X63396666Y-135024761D01*
X63349047Y-134977142D01*
X82700952Y-136502380D02*
X82367619Y-136026190D01*
X82129523Y-136502380D02*
X82129523Y-135502380D01*
X82510476Y-135502380D01*
X82605714Y-135550000D01*
X82653333Y-135597619D01*
X82700952Y-135692857D01*
X82700952Y-135835714D01*
X82653333Y-135930952D01*
X82605714Y-135978571D01*
X82510476Y-136026190D01*
X82129523Y-136026190D01*
X83653333Y-136502380D02*
X83081904Y-136502380D01*
X83367619Y-136502380D02*
X83367619Y-135502380D01*
X83272380Y-135645238D01*
X83177142Y-135740476D01*
X83081904Y-135788095D01*
X84272380Y-135502380D02*
X84367619Y-135502380D01*
X84462857Y-135550000D01*
X84510476Y-135597619D01*
X84558095Y-135692857D01*
X84605714Y-135883333D01*
X84605714Y-136121428D01*
X84558095Y-136311904D01*
X84510476Y-136407142D01*
X84462857Y-136454761D01*
X84367619Y-136502380D01*
X84272380Y-136502380D01*
X84177142Y-136454761D01*
X84129523Y-136407142D01*
X84081904Y-136311904D01*
X84034285Y-136121428D01*
X84034285Y-135883333D01*
X84081904Y-135692857D01*
X84129523Y-135597619D01*
X84177142Y-135550000D01*
X84272380Y-135502380D01*
X85462857Y-135835714D02*
X85462857Y-136502380D01*
X85224761Y-135454761D02*
X84986666Y-136169047D01*
X85605714Y-136169047D01*
X61252380Y-117959047D02*
X60776190Y-118292380D01*
X61252380Y-118530476D02*
X60252380Y-118530476D01*
X60252380Y-118149523D01*
X60300000Y-118054285D01*
X60347619Y-118006666D01*
X60442857Y-117959047D01*
X60585714Y-117959047D01*
X60680952Y-118006666D01*
X60728571Y-118054285D01*
X60776190Y-118149523D01*
X60776190Y-118530476D01*
X61252380Y-117006666D02*
X61252380Y-117578095D01*
X61252380Y-117292380D02*
X60252380Y-117292380D01*
X60395238Y-117387619D01*
X60490476Y-117482857D01*
X60538095Y-117578095D01*
X60252380Y-116387619D02*
X60252380Y-116292380D01*
X60300000Y-116197142D01*
X60347619Y-116149523D01*
X60442857Y-116101904D01*
X60633333Y-116054285D01*
X60871428Y-116054285D01*
X61061904Y-116101904D01*
X61157142Y-116149523D01*
X61204761Y-116197142D01*
X61252380Y-116292380D01*
X61252380Y-116387619D01*
X61204761Y-116482857D01*
X61157142Y-116530476D01*
X61061904Y-116578095D01*
X60871428Y-116625714D01*
X60633333Y-116625714D01*
X60442857Y-116578095D01*
X60347619Y-116530476D01*
X60300000Y-116482857D01*
X60252380Y-116387619D01*
X60252380Y-115149523D02*
X60252380Y-115625714D01*
X60728571Y-115673333D01*
X60680952Y-115625714D01*
X60633333Y-115530476D01*
X60633333Y-115292380D01*
X60680952Y-115197142D01*
X60728571Y-115149523D01*
X60823809Y-115101904D01*
X61061904Y-115101904D01*
X61157142Y-115149523D01*
X61204761Y-115197142D01*
X61252380Y-115292380D01*
X61252380Y-115530476D01*
X61204761Y-115625714D01*
X61157142Y-115673333D01*
M02*
