G04 #@! TF.GenerationSoftware,KiCad,Pcbnew,(5.1.2)-1*
G04 #@! TF.CreationDate,2020-04-13T00:24:57+02:00*
G04 #@! TF.ProjectId,Plasma-PSU_PCB-B_Flyback-HV,506c6173-6d61-42d5-9053-555f5043422d,0.0.1*
G04 #@! TF.SameCoordinates,Original*
G04 #@! TF.FileFunction,Copper,L1,Top*
G04 #@! TF.FilePolarity,Positive*
%FSLAX46Y46*%
G04 Gerber Fmt 4.6, Leading zero omitted, Abs format (unit mm)*
G04 Created by KiCad (PCBNEW (5.1.2)-1) date 2020-04-13 00:24:57*
%MOMM*%
%LPD*%
G04 APERTURE LIST*
%ADD10C,0.800000*%
%ADD11C,6.400000*%
%ADD12O,1.500000X1.050000*%
%ADD13R,1.500000X1.050000*%
%ADD14R,1.600000X1.600000*%
%ADD15C,1.600000*%
%ADD16C,0.100000*%
%ADD17C,1.250000*%
%ADD18C,0.975000*%
%ADD19C,0.875000*%
%ADD20O,2.200000X2.200000*%
%ADD21R,2.200000X2.200000*%
%ADD22O,1.700000X1.700000*%
%ADD23R,1.700000X1.700000*%
%ADD24R,2.600000X2.600000*%
%ADD25C,2.600000*%
%ADD26R,2.000000X1.905000*%
%ADD27O,2.000000X1.905000*%
%ADD28R,4.500000X2.500000*%
%ADD29O,4.500000X2.500000*%
%ADD30O,1.600000X1.600000*%
%ADD31O,3.000000X6.000000*%
%ADD32C,0.250000*%
%ADD33C,0.254000*%
G04 APERTURE END LIST*
D10*
X131697056Y-143302944D03*
X130000000Y-142600000D03*
X128302944Y-143302944D03*
X127600000Y-145000000D03*
X128302944Y-146697056D03*
X130000000Y-147400000D03*
X131697056Y-146697056D03*
X132400000Y-145000000D03*
D11*
X130000000Y-145000000D03*
D12*
X69850000Y-121920000D03*
X69850000Y-120650000D03*
D13*
X69850000Y-123190000D03*
X62230000Y-123190000D03*
D12*
X62230000Y-120650000D03*
X62230000Y-121920000D03*
D14*
X68580000Y-82550000D03*
D15*
X68580000Y-86050000D03*
X74930000Y-86280000D03*
X74930000Y-81280000D03*
X78740000Y-81280000D03*
X78740000Y-86280000D03*
X82550000Y-86280000D03*
X82550000Y-81280000D03*
X86360000Y-81280000D03*
X86360000Y-86280000D03*
D16*
G36*
X90819504Y-80526204D02*
G01*
X90843773Y-80529804D01*
X90867571Y-80535765D01*
X90890671Y-80544030D01*
X90912849Y-80554520D01*
X90933893Y-80567133D01*
X90953598Y-80581747D01*
X90971777Y-80598223D01*
X90988253Y-80616402D01*
X91002867Y-80636107D01*
X91015480Y-80657151D01*
X91025970Y-80679329D01*
X91034235Y-80702429D01*
X91040196Y-80726227D01*
X91043796Y-80750496D01*
X91045000Y-80775000D01*
X91045000Y-81525000D01*
X91043796Y-81549504D01*
X91040196Y-81573773D01*
X91034235Y-81597571D01*
X91025970Y-81620671D01*
X91015480Y-81642849D01*
X91002867Y-81663893D01*
X90988253Y-81683598D01*
X90971777Y-81701777D01*
X90953598Y-81718253D01*
X90933893Y-81732867D01*
X90912849Y-81745480D01*
X90890671Y-81755970D01*
X90867571Y-81764235D01*
X90843773Y-81770196D01*
X90819504Y-81773796D01*
X90795000Y-81775000D01*
X89545000Y-81775000D01*
X89520496Y-81773796D01*
X89496227Y-81770196D01*
X89472429Y-81764235D01*
X89449329Y-81755970D01*
X89427151Y-81745480D01*
X89406107Y-81732867D01*
X89386402Y-81718253D01*
X89368223Y-81701777D01*
X89351747Y-81683598D01*
X89337133Y-81663893D01*
X89324520Y-81642849D01*
X89314030Y-81620671D01*
X89305765Y-81597571D01*
X89299804Y-81573773D01*
X89296204Y-81549504D01*
X89295000Y-81525000D01*
X89295000Y-80775000D01*
X89296204Y-80750496D01*
X89299804Y-80726227D01*
X89305765Y-80702429D01*
X89314030Y-80679329D01*
X89324520Y-80657151D01*
X89337133Y-80636107D01*
X89351747Y-80616402D01*
X89368223Y-80598223D01*
X89386402Y-80581747D01*
X89406107Y-80567133D01*
X89427151Y-80554520D01*
X89449329Y-80544030D01*
X89472429Y-80535765D01*
X89496227Y-80529804D01*
X89520496Y-80526204D01*
X89545000Y-80525000D01*
X90795000Y-80525000D01*
X90819504Y-80526204D01*
X90819504Y-80526204D01*
G37*
D17*
X90170000Y-81150000D03*
D16*
G36*
X90819504Y-83326204D02*
G01*
X90843773Y-83329804D01*
X90867571Y-83335765D01*
X90890671Y-83344030D01*
X90912849Y-83354520D01*
X90933893Y-83367133D01*
X90953598Y-83381747D01*
X90971777Y-83398223D01*
X90988253Y-83416402D01*
X91002867Y-83436107D01*
X91015480Y-83457151D01*
X91025970Y-83479329D01*
X91034235Y-83502429D01*
X91040196Y-83526227D01*
X91043796Y-83550496D01*
X91045000Y-83575000D01*
X91045000Y-84325000D01*
X91043796Y-84349504D01*
X91040196Y-84373773D01*
X91034235Y-84397571D01*
X91025970Y-84420671D01*
X91015480Y-84442849D01*
X91002867Y-84463893D01*
X90988253Y-84483598D01*
X90971777Y-84501777D01*
X90953598Y-84518253D01*
X90933893Y-84532867D01*
X90912849Y-84545480D01*
X90890671Y-84555970D01*
X90867571Y-84564235D01*
X90843773Y-84570196D01*
X90819504Y-84573796D01*
X90795000Y-84575000D01*
X89545000Y-84575000D01*
X89520496Y-84573796D01*
X89496227Y-84570196D01*
X89472429Y-84564235D01*
X89449329Y-84555970D01*
X89427151Y-84545480D01*
X89406107Y-84532867D01*
X89386402Y-84518253D01*
X89368223Y-84501777D01*
X89351747Y-84483598D01*
X89337133Y-84463893D01*
X89324520Y-84442849D01*
X89314030Y-84420671D01*
X89305765Y-84397571D01*
X89299804Y-84373773D01*
X89296204Y-84349504D01*
X89295000Y-84325000D01*
X89295000Y-83575000D01*
X89296204Y-83550496D01*
X89299804Y-83526227D01*
X89305765Y-83502429D01*
X89314030Y-83479329D01*
X89324520Y-83457151D01*
X89337133Y-83436107D01*
X89351747Y-83416402D01*
X89368223Y-83398223D01*
X89386402Y-83381747D01*
X89406107Y-83367133D01*
X89427151Y-83354520D01*
X89449329Y-83344030D01*
X89472429Y-83335765D01*
X89496227Y-83329804D01*
X89520496Y-83326204D01*
X89545000Y-83325000D01*
X90795000Y-83325000D01*
X90819504Y-83326204D01*
X90819504Y-83326204D01*
G37*
D17*
X90170000Y-83950000D03*
D16*
G36*
X93190142Y-81126174D02*
G01*
X93213803Y-81129684D01*
X93237007Y-81135496D01*
X93259529Y-81143554D01*
X93281153Y-81153782D01*
X93301670Y-81166079D01*
X93320883Y-81180329D01*
X93338607Y-81196393D01*
X93354671Y-81214117D01*
X93368921Y-81233330D01*
X93381218Y-81253847D01*
X93391446Y-81275471D01*
X93399504Y-81297993D01*
X93405316Y-81321197D01*
X93408826Y-81344858D01*
X93410000Y-81368750D01*
X93410000Y-81856250D01*
X93408826Y-81880142D01*
X93405316Y-81903803D01*
X93399504Y-81927007D01*
X93391446Y-81949529D01*
X93381218Y-81971153D01*
X93368921Y-81991670D01*
X93354671Y-82010883D01*
X93338607Y-82028607D01*
X93320883Y-82044671D01*
X93301670Y-82058921D01*
X93281153Y-82071218D01*
X93259529Y-82081446D01*
X93237007Y-82089504D01*
X93213803Y-82095316D01*
X93190142Y-82098826D01*
X93166250Y-82100000D01*
X92253750Y-82100000D01*
X92229858Y-82098826D01*
X92206197Y-82095316D01*
X92182993Y-82089504D01*
X92160471Y-82081446D01*
X92138847Y-82071218D01*
X92118330Y-82058921D01*
X92099117Y-82044671D01*
X92081393Y-82028607D01*
X92065329Y-82010883D01*
X92051079Y-81991670D01*
X92038782Y-81971153D01*
X92028554Y-81949529D01*
X92020496Y-81927007D01*
X92014684Y-81903803D01*
X92011174Y-81880142D01*
X92010000Y-81856250D01*
X92010000Y-81368750D01*
X92011174Y-81344858D01*
X92014684Y-81321197D01*
X92020496Y-81297993D01*
X92028554Y-81275471D01*
X92038782Y-81253847D01*
X92051079Y-81233330D01*
X92065329Y-81214117D01*
X92081393Y-81196393D01*
X92099117Y-81180329D01*
X92118330Y-81166079D01*
X92138847Y-81153782D01*
X92160471Y-81143554D01*
X92182993Y-81135496D01*
X92206197Y-81129684D01*
X92229858Y-81126174D01*
X92253750Y-81125000D01*
X93166250Y-81125000D01*
X93190142Y-81126174D01*
X93190142Y-81126174D01*
G37*
D18*
X92710000Y-81612500D03*
D16*
G36*
X93190142Y-83001174D02*
G01*
X93213803Y-83004684D01*
X93237007Y-83010496D01*
X93259529Y-83018554D01*
X93281153Y-83028782D01*
X93301670Y-83041079D01*
X93320883Y-83055329D01*
X93338607Y-83071393D01*
X93354671Y-83089117D01*
X93368921Y-83108330D01*
X93381218Y-83128847D01*
X93391446Y-83150471D01*
X93399504Y-83172993D01*
X93405316Y-83196197D01*
X93408826Y-83219858D01*
X93410000Y-83243750D01*
X93410000Y-83731250D01*
X93408826Y-83755142D01*
X93405316Y-83778803D01*
X93399504Y-83802007D01*
X93391446Y-83824529D01*
X93381218Y-83846153D01*
X93368921Y-83866670D01*
X93354671Y-83885883D01*
X93338607Y-83903607D01*
X93320883Y-83919671D01*
X93301670Y-83933921D01*
X93281153Y-83946218D01*
X93259529Y-83956446D01*
X93237007Y-83964504D01*
X93213803Y-83970316D01*
X93190142Y-83973826D01*
X93166250Y-83975000D01*
X92253750Y-83975000D01*
X92229858Y-83973826D01*
X92206197Y-83970316D01*
X92182993Y-83964504D01*
X92160471Y-83956446D01*
X92138847Y-83946218D01*
X92118330Y-83933921D01*
X92099117Y-83919671D01*
X92081393Y-83903607D01*
X92065329Y-83885883D01*
X92051079Y-83866670D01*
X92038782Y-83846153D01*
X92028554Y-83824529D01*
X92020496Y-83802007D01*
X92014684Y-83778803D01*
X92011174Y-83755142D01*
X92010000Y-83731250D01*
X92010000Y-83243750D01*
X92011174Y-83219858D01*
X92014684Y-83196197D01*
X92020496Y-83172993D01*
X92028554Y-83150471D01*
X92038782Y-83128847D01*
X92051079Y-83108330D01*
X92065329Y-83089117D01*
X92081393Y-83071393D01*
X92099117Y-83055329D01*
X92118330Y-83041079D01*
X92138847Y-83028782D01*
X92160471Y-83018554D01*
X92182993Y-83010496D01*
X92206197Y-83004684D01*
X92229858Y-83001174D01*
X92253750Y-83000000D01*
X93166250Y-83000000D01*
X93190142Y-83001174D01*
X93190142Y-83001174D01*
G37*
D18*
X92710000Y-83487500D03*
D16*
G36*
X59447691Y-127796053D02*
G01*
X59468926Y-127799203D01*
X59489750Y-127804419D01*
X59509962Y-127811651D01*
X59529368Y-127820830D01*
X59547781Y-127831866D01*
X59565024Y-127844654D01*
X59580930Y-127859070D01*
X59595346Y-127874976D01*
X59608134Y-127892219D01*
X59619170Y-127910632D01*
X59628349Y-127930038D01*
X59635581Y-127950250D01*
X59640797Y-127971074D01*
X59643947Y-127992309D01*
X59645000Y-128013750D01*
X59645000Y-128526250D01*
X59643947Y-128547691D01*
X59640797Y-128568926D01*
X59635581Y-128589750D01*
X59628349Y-128609962D01*
X59619170Y-128629368D01*
X59608134Y-128647781D01*
X59595346Y-128665024D01*
X59580930Y-128680930D01*
X59565024Y-128695346D01*
X59547781Y-128708134D01*
X59529368Y-128719170D01*
X59509962Y-128728349D01*
X59489750Y-128735581D01*
X59468926Y-128740797D01*
X59447691Y-128743947D01*
X59426250Y-128745000D01*
X58988750Y-128745000D01*
X58967309Y-128743947D01*
X58946074Y-128740797D01*
X58925250Y-128735581D01*
X58905038Y-128728349D01*
X58885632Y-128719170D01*
X58867219Y-128708134D01*
X58849976Y-128695346D01*
X58834070Y-128680930D01*
X58819654Y-128665024D01*
X58806866Y-128647781D01*
X58795830Y-128629368D01*
X58786651Y-128609962D01*
X58779419Y-128589750D01*
X58774203Y-128568926D01*
X58771053Y-128547691D01*
X58770000Y-128526250D01*
X58770000Y-128013750D01*
X58771053Y-127992309D01*
X58774203Y-127971074D01*
X58779419Y-127950250D01*
X58786651Y-127930038D01*
X58795830Y-127910632D01*
X58806866Y-127892219D01*
X58819654Y-127874976D01*
X58834070Y-127859070D01*
X58849976Y-127844654D01*
X58867219Y-127831866D01*
X58885632Y-127820830D01*
X58905038Y-127811651D01*
X58925250Y-127804419D01*
X58946074Y-127799203D01*
X58967309Y-127796053D01*
X58988750Y-127795000D01*
X59426250Y-127795000D01*
X59447691Y-127796053D01*
X59447691Y-127796053D01*
G37*
D19*
X59207500Y-128270000D03*
D16*
G36*
X57872691Y-127796053D02*
G01*
X57893926Y-127799203D01*
X57914750Y-127804419D01*
X57934962Y-127811651D01*
X57954368Y-127820830D01*
X57972781Y-127831866D01*
X57990024Y-127844654D01*
X58005930Y-127859070D01*
X58020346Y-127874976D01*
X58033134Y-127892219D01*
X58044170Y-127910632D01*
X58053349Y-127930038D01*
X58060581Y-127950250D01*
X58065797Y-127971074D01*
X58068947Y-127992309D01*
X58070000Y-128013750D01*
X58070000Y-128526250D01*
X58068947Y-128547691D01*
X58065797Y-128568926D01*
X58060581Y-128589750D01*
X58053349Y-128609962D01*
X58044170Y-128629368D01*
X58033134Y-128647781D01*
X58020346Y-128665024D01*
X58005930Y-128680930D01*
X57990024Y-128695346D01*
X57972781Y-128708134D01*
X57954368Y-128719170D01*
X57934962Y-128728349D01*
X57914750Y-128735581D01*
X57893926Y-128740797D01*
X57872691Y-128743947D01*
X57851250Y-128745000D01*
X57413750Y-128745000D01*
X57392309Y-128743947D01*
X57371074Y-128740797D01*
X57350250Y-128735581D01*
X57330038Y-128728349D01*
X57310632Y-128719170D01*
X57292219Y-128708134D01*
X57274976Y-128695346D01*
X57259070Y-128680930D01*
X57244654Y-128665024D01*
X57231866Y-128647781D01*
X57220830Y-128629368D01*
X57211651Y-128609962D01*
X57204419Y-128589750D01*
X57199203Y-128568926D01*
X57196053Y-128547691D01*
X57195000Y-128526250D01*
X57195000Y-128013750D01*
X57196053Y-127992309D01*
X57199203Y-127971074D01*
X57204419Y-127950250D01*
X57211651Y-127930038D01*
X57220830Y-127910632D01*
X57231866Y-127892219D01*
X57244654Y-127874976D01*
X57259070Y-127859070D01*
X57274976Y-127844654D01*
X57292219Y-127831866D01*
X57310632Y-127820830D01*
X57330038Y-127811651D01*
X57350250Y-127804419D01*
X57371074Y-127799203D01*
X57392309Y-127796053D01*
X57413750Y-127795000D01*
X57851250Y-127795000D01*
X57872691Y-127796053D01*
X57872691Y-127796053D01*
G37*
D19*
X57632500Y-128270000D03*
D16*
G36*
X57872691Y-131606053D02*
G01*
X57893926Y-131609203D01*
X57914750Y-131614419D01*
X57934962Y-131621651D01*
X57954368Y-131630830D01*
X57972781Y-131641866D01*
X57990024Y-131654654D01*
X58005930Y-131669070D01*
X58020346Y-131684976D01*
X58033134Y-131702219D01*
X58044170Y-131720632D01*
X58053349Y-131740038D01*
X58060581Y-131760250D01*
X58065797Y-131781074D01*
X58068947Y-131802309D01*
X58070000Y-131823750D01*
X58070000Y-132336250D01*
X58068947Y-132357691D01*
X58065797Y-132378926D01*
X58060581Y-132399750D01*
X58053349Y-132419962D01*
X58044170Y-132439368D01*
X58033134Y-132457781D01*
X58020346Y-132475024D01*
X58005930Y-132490930D01*
X57990024Y-132505346D01*
X57972781Y-132518134D01*
X57954368Y-132529170D01*
X57934962Y-132538349D01*
X57914750Y-132545581D01*
X57893926Y-132550797D01*
X57872691Y-132553947D01*
X57851250Y-132555000D01*
X57413750Y-132555000D01*
X57392309Y-132553947D01*
X57371074Y-132550797D01*
X57350250Y-132545581D01*
X57330038Y-132538349D01*
X57310632Y-132529170D01*
X57292219Y-132518134D01*
X57274976Y-132505346D01*
X57259070Y-132490930D01*
X57244654Y-132475024D01*
X57231866Y-132457781D01*
X57220830Y-132439368D01*
X57211651Y-132419962D01*
X57204419Y-132399750D01*
X57199203Y-132378926D01*
X57196053Y-132357691D01*
X57195000Y-132336250D01*
X57195000Y-131823750D01*
X57196053Y-131802309D01*
X57199203Y-131781074D01*
X57204419Y-131760250D01*
X57211651Y-131740038D01*
X57220830Y-131720632D01*
X57231866Y-131702219D01*
X57244654Y-131684976D01*
X57259070Y-131669070D01*
X57274976Y-131654654D01*
X57292219Y-131641866D01*
X57310632Y-131630830D01*
X57330038Y-131621651D01*
X57350250Y-131614419D01*
X57371074Y-131609203D01*
X57392309Y-131606053D01*
X57413750Y-131605000D01*
X57851250Y-131605000D01*
X57872691Y-131606053D01*
X57872691Y-131606053D01*
G37*
D19*
X57632500Y-132080000D03*
D16*
G36*
X59447691Y-131606053D02*
G01*
X59468926Y-131609203D01*
X59489750Y-131614419D01*
X59509962Y-131621651D01*
X59529368Y-131630830D01*
X59547781Y-131641866D01*
X59565024Y-131654654D01*
X59580930Y-131669070D01*
X59595346Y-131684976D01*
X59608134Y-131702219D01*
X59619170Y-131720632D01*
X59628349Y-131740038D01*
X59635581Y-131760250D01*
X59640797Y-131781074D01*
X59643947Y-131802309D01*
X59645000Y-131823750D01*
X59645000Y-132336250D01*
X59643947Y-132357691D01*
X59640797Y-132378926D01*
X59635581Y-132399750D01*
X59628349Y-132419962D01*
X59619170Y-132439368D01*
X59608134Y-132457781D01*
X59595346Y-132475024D01*
X59580930Y-132490930D01*
X59565024Y-132505346D01*
X59547781Y-132518134D01*
X59529368Y-132529170D01*
X59509962Y-132538349D01*
X59489750Y-132545581D01*
X59468926Y-132550797D01*
X59447691Y-132553947D01*
X59426250Y-132555000D01*
X58988750Y-132555000D01*
X58967309Y-132553947D01*
X58946074Y-132550797D01*
X58925250Y-132545581D01*
X58905038Y-132538349D01*
X58885632Y-132529170D01*
X58867219Y-132518134D01*
X58849976Y-132505346D01*
X58834070Y-132490930D01*
X58819654Y-132475024D01*
X58806866Y-132457781D01*
X58795830Y-132439368D01*
X58786651Y-132419962D01*
X58779419Y-132399750D01*
X58774203Y-132378926D01*
X58771053Y-132357691D01*
X58770000Y-132336250D01*
X58770000Y-131823750D01*
X58771053Y-131802309D01*
X58774203Y-131781074D01*
X58779419Y-131760250D01*
X58786651Y-131740038D01*
X58795830Y-131720632D01*
X58806866Y-131702219D01*
X58819654Y-131684976D01*
X58834070Y-131669070D01*
X58849976Y-131654654D01*
X58867219Y-131641866D01*
X58885632Y-131630830D01*
X58905038Y-131621651D01*
X58925250Y-131614419D01*
X58946074Y-131609203D01*
X58967309Y-131606053D01*
X58988750Y-131605000D01*
X59426250Y-131605000D01*
X59447691Y-131606053D01*
X59447691Y-131606053D01*
G37*
D19*
X59207500Y-132080000D03*
D20*
X54610000Y-105410000D03*
D21*
X54610000Y-113030000D03*
X80010000Y-102870000D03*
D20*
X80010000Y-95250000D03*
D21*
X95250000Y-93980000D03*
D20*
X95250000Y-86360000D03*
D22*
X54610000Y-125730000D03*
D23*
X54610000Y-128270000D03*
D24*
X57150000Y-81280000D03*
D25*
X57150000Y-86360000D03*
D23*
X54610000Y-132080000D03*
D22*
X54610000Y-134620000D03*
D26*
X69850000Y-111760000D03*
D27*
X69850000Y-109220000D03*
X69850000Y-106680000D03*
X62230000Y-106680000D03*
X62230000Y-109220000D03*
D26*
X62230000Y-111760000D03*
D28*
X87630000Y-102870000D03*
D29*
X87630000Y-97420000D03*
X87630000Y-91970000D03*
D30*
X73660000Y-106680000D03*
D15*
X81280000Y-106680000D03*
D14*
X72390000Y-127000000D03*
D30*
X80010000Y-134620000D03*
X72390000Y-129540000D03*
X80010000Y-132080000D03*
X72390000Y-132080000D03*
X80010000Y-129540000D03*
X72390000Y-134620000D03*
X80010000Y-127000000D03*
D27*
X78740000Y-119380000D03*
X78740000Y-116840000D03*
D26*
X78740000Y-114300000D03*
X87630000Y-114300000D03*
D27*
X87630000Y-116840000D03*
X87630000Y-119380000D03*
D11*
X55000000Y-55000000D03*
D10*
X57400000Y-55000000D03*
X56697056Y-56697056D03*
X55000000Y-57400000D03*
X53302944Y-56697056D03*
X52600000Y-55000000D03*
X53302944Y-53302944D03*
X55000000Y-52600000D03*
X56697056Y-53302944D03*
X56697056Y-143302944D03*
X55000000Y-142600000D03*
X53302944Y-143302944D03*
X52600000Y-145000000D03*
X53302944Y-146697056D03*
X55000000Y-147400000D03*
X56697056Y-146697056D03*
X57400000Y-145000000D03*
D11*
X55000000Y-145000000D03*
X130000000Y-55000000D03*
D10*
X132400000Y-55000000D03*
X131697056Y-56697056D03*
X130000000Y-57400000D03*
X128302944Y-56697056D03*
X127600000Y-55000000D03*
X128302944Y-53302944D03*
X130000000Y-52600000D03*
X131697056Y-53302944D03*
D11*
X205000000Y-55000000D03*
D10*
X207400000Y-55000000D03*
X206697056Y-56697056D03*
X205000000Y-57400000D03*
X203302944Y-56697056D03*
X202600000Y-55000000D03*
X203302944Y-53302944D03*
X205000000Y-52600000D03*
X206697056Y-53302944D03*
X206697056Y-143302944D03*
X205000000Y-142600000D03*
X203302944Y-143302944D03*
X202600000Y-145000000D03*
X203302944Y-146697056D03*
X205000000Y-147400000D03*
X206697056Y-146697056D03*
X207400000Y-145000000D03*
D11*
X205000000Y-145000000D03*
D24*
X57150000Y-63500000D03*
D25*
X57150000Y-68580000D03*
D31*
X94500000Y-76500000D03*
X99500000Y-76500000D03*
X94500000Y-99500000D03*
X99500000Y-99500000D03*
D16*
G36*
X59447691Y-125256053D02*
G01*
X59468926Y-125259203D01*
X59489750Y-125264419D01*
X59509962Y-125271651D01*
X59529368Y-125280830D01*
X59547781Y-125291866D01*
X59565024Y-125304654D01*
X59580930Y-125319070D01*
X59595346Y-125334976D01*
X59608134Y-125352219D01*
X59619170Y-125370632D01*
X59628349Y-125390038D01*
X59635581Y-125410250D01*
X59640797Y-125431074D01*
X59643947Y-125452309D01*
X59645000Y-125473750D01*
X59645000Y-125986250D01*
X59643947Y-126007691D01*
X59640797Y-126028926D01*
X59635581Y-126049750D01*
X59628349Y-126069962D01*
X59619170Y-126089368D01*
X59608134Y-126107781D01*
X59595346Y-126125024D01*
X59580930Y-126140930D01*
X59565024Y-126155346D01*
X59547781Y-126168134D01*
X59529368Y-126179170D01*
X59509962Y-126188349D01*
X59489750Y-126195581D01*
X59468926Y-126200797D01*
X59447691Y-126203947D01*
X59426250Y-126205000D01*
X58988750Y-126205000D01*
X58967309Y-126203947D01*
X58946074Y-126200797D01*
X58925250Y-126195581D01*
X58905038Y-126188349D01*
X58885632Y-126179170D01*
X58867219Y-126168134D01*
X58849976Y-126155346D01*
X58834070Y-126140930D01*
X58819654Y-126125024D01*
X58806866Y-126107781D01*
X58795830Y-126089368D01*
X58786651Y-126069962D01*
X58779419Y-126049750D01*
X58774203Y-126028926D01*
X58771053Y-126007691D01*
X58770000Y-125986250D01*
X58770000Y-125473750D01*
X58771053Y-125452309D01*
X58774203Y-125431074D01*
X58779419Y-125410250D01*
X58786651Y-125390038D01*
X58795830Y-125370632D01*
X58806866Y-125352219D01*
X58819654Y-125334976D01*
X58834070Y-125319070D01*
X58849976Y-125304654D01*
X58867219Y-125291866D01*
X58885632Y-125280830D01*
X58905038Y-125271651D01*
X58925250Y-125264419D01*
X58946074Y-125259203D01*
X58967309Y-125256053D01*
X58988750Y-125255000D01*
X59426250Y-125255000D01*
X59447691Y-125256053D01*
X59447691Y-125256053D01*
G37*
D19*
X59207500Y-125730000D03*
D16*
G36*
X57872691Y-125256053D02*
G01*
X57893926Y-125259203D01*
X57914750Y-125264419D01*
X57934962Y-125271651D01*
X57954368Y-125280830D01*
X57972781Y-125291866D01*
X57990024Y-125304654D01*
X58005930Y-125319070D01*
X58020346Y-125334976D01*
X58033134Y-125352219D01*
X58044170Y-125370632D01*
X58053349Y-125390038D01*
X58060581Y-125410250D01*
X58065797Y-125431074D01*
X58068947Y-125452309D01*
X58070000Y-125473750D01*
X58070000Y-125986250D01*
X58068947Y-126007691D01*
X58065797Y-126028926D01*
X58060581Y-126049750D01*
X58053349Y-126069962D01*
X58044170Y-126089368D01*
X58033134Y-126107781D01*
X58020346Y-126125024D01*
X58005930Y-126140930D01*
X57990024Y-126155346D01*
X57972781Y-126168134D01*
X57954368Y-126179170D01*
X57934962Y-126188349D01*
X57914750Y-126195581D01*
X57893926Y-126200797D01*
X57872691Y-126203947D01*
X57851250Y-126205000D01*
X57413750Y-126205000D01*
X57392309Y-126203947D01*
X57371074Y-126200797D01*
X57350250Y-126195581D01*
X57330038Y-126188349D01*
X57310632Y-126179170D01*
X57292219Y-126168134D01*
X57274976Y-126155346D01*
X57259070Y-126140930D01*
X57244654Y-126125024D01*
X57231866Y-126107781D01*
X57220830Y-126089368D01*
X57211651Y-126069962D01*
X57204419Y-126049750D01*
X57199203Y-126028926D01*
X57196053Y-126007691D01*
X57195000Y-125986250D01*
X57195000Y-125473750D01*
X57196053Y-125452309D01*
X57199203Y-125431074D01*
X57204419Y-125410250D01*
X57211651Y-125390038D01*
X57220830Y-125370632D01*
X57231866Y-125352219D01*
X57244654Y-125334976D01*
X57259070Y-125319070D01*
X57274976Y-125304654D01*
X57292219Y-125291866D01*
X57310632Y-125280830D01*
X57330038Y-125271651D01*
X57350250Y-125264419D01*
X57371074Y-125259203D01*
X57392309Y-125256053D01*
X57413750Y-125255000D01*
X57851250Y-125255000D01*
X57872691Y-125256053D01*
X57872691Y-125256053D01*
G37*
D19*
X57632500Y-125730000D03*
D16*
G36*
X84847691Y-126526053D02*
G01*
X84868926Y-126529203D01*
X84889750Y-126534419D01*
X84909962Y-126541651D01*
X84929368Y-126550830D01*
X84947781Y-126561866D01*
X84965024Y-126574654D01*
X84980930Y-126589070D01*
X84995346Y-126604976D01*
X85008134Y-126622219D01*
X85019170Y-126640632D01*
X85028349Y-126660038D01*
X85035581Y-126680250D01*
X85040797Y-126701074D01*
X85043947Y-126722309D01*
X85045000Y-126743750D01*
X85045000Y-127256250D01*
X85043947Y-127277691D01*
X85040797Y-127298926D01*
X85035581Y-127319750D01*
X85028349Y-127339962D01*
X85019170Y-127359368D01*
X85008134Y-127377781D01*
X84995346Y-127395024D01*
X84980930Y-127410930D01*
X84965024Y-127425346D01*
X84947781Y-127438134D01*
X84929368Y-127449170D01*
X84909962Y-127458349D01*
X84889750Y-127465581D01*
X84868926Y-127470797D01*
X84847691Y-127473947D01*
X84826250Y-127475000D01*
X84388750Y-127475000D01*
X84367309Y-127473947D01*
X84346074Y-127470797D01*
X84325250Y-127465581D01*
X84305038Y-127458349D01*
X84285632Y-127449170D01*
X84267219Y-127438134D01*
X84249976Y-127425346D01*
X84234070Y-127410930D01*
X84219654Y-127395024D01*
X84206866Y-127377781D01*
X84195830Y-127359368D01*
X84186651Y-127339962D01*
X84179419Y-127319750D01*
X84174203Y-127298926D01*
X84171053Y-127277691D01*
X84170000Y-127256250D01*
X84170000Y-126743750D01*
X84171053Y-126722309D01*
X84174203Y-126701074D01*
X84179419Y-126680250D01*
X84186651Y-126660038D01*
X84195830Y-126640632D01*
X84206866Y-126622219D01*
X84219654Y-126604976D01*
X84234070Y-126589070D01*
X84249976Y-126574654D01*
X84267219Y-126561866D01*
X84285632Y-126550830D01*
X84305038Y-126541651D01*
X84325250Y-126534419D01*
X84346074Y-126529203D01*
X84367309Y-126526053D01*
X84388750Y-126525000D01*
X84826250Y-126525000D01*
X84847691Y-126526053D01*
X84847691Y-126526053D01*
G37*
D19*
X84607500Y-127000000D03*
D16*
G36*
X83272691Y-126526053D02*
G01*
X83293926Y-126529203D01*
X83314750Y-126534419D01*
X83334962Y-126541651D01*
X83354368Y-126550830D01*
X83372781Y-126561866D01*
X83390024Y-126574654D01*
X83405930Y-126589070D01*
X83420346Y-126604976D01*
X83433134Y-126622219D01*
X83444170Y-126640632D01*
X83453349Y-126660038D01*
X83460581Y-126680250D01*
X83465797Y-126701074D01*
X83468947Y-126722309D01*
X83470000Y-126743750D01*
X83470000Y-127256250D01*
X83468947Y-127277691D01*
X83465797Y-127298926D01*
X83460581Y-127319750D01*
X83453349Y-127339962D01*
X83444170Y-127359368D01*
X83433134Y-127377781D01*
X83420346Y-127395024D01*
X83405930Y-127410930D01*
X83390024Y-127425346D01*
X83372781Y-127438134D01*
X83354368Y-127449170D01*
X83334962Y-127458349D01*
X83314750Y-127465581D01*
X83293926Y-127470797D01*
X83272691Y-127473947D01*
X83251250Y-127475000D01*
X82813750Y-127475000D01*
X82792309Y-127473947D01*
X82771074Y-127470797D01*
X82750250Y-127465581D01*
X82730038Y-127458349D01*
X82710632Y-127449170D01*
X82692219Y-127438134D01*
X82674976Y-127425346D01*
X82659070Y-127410930D01*
X82644654Y-127395024D01*
X82631866Y-127377781D01*
X82620830Y-127359368D01*
X82611651Y-127339962D01*
X82604419Y-127319750D01*
X82599203Y-127298926D01*
X82596053Y-127277691D01*
X82595000Y-127256250D01*
X82595000Y-126743750D01*
X82596053Y-126722309D01*
X82599203Y-126701074D01*
X82604419Y-126680250D01*
X82611651Y-126660038D01*
X82620830Y-126640632D01*
X82631866Y-126622219D01*
X82644654Y-126604976D01*
X82659070Y-126589070D01*
X82674976Y-126574654D01*
X82692219Y-126561866D01*
X82710632Y-126550830D01*
X82730038Y-126541651D01*
X82750250Y-126534419D01*
X82771074Y-126529203D01*
X82792309Y-126526053D01*
X82813750Y-126525000D01*
X83251250Y-126525000D01*
X83272691Y-126526053D01*
X83272691Y-126526053D01*
G37*
D19*
X83032500Y-127000000D03*
D16*
G36*
X57872691Y-134146053D02*
G01*
X57893926Y-134149203D01*
X57914750Y-134154419D01*
X57934962Y-134161651D01*
X57954368Y-134170830D01*
X57972781Y-134181866D01*
X57990024Y-134194654D01*
X58005930Y-134209070D01*
X58020346Y-134224976D01*
X58033134Y-134242219D01*
X58044170Y-134260632D01*
X58053349Y-134280038D01*
X58060581Y-134300250D01*
X58065797Y-134321074D01*
X58068947Y-134342309D01*
X58070000Y-134363750D01*
X58070000Y-134876250D01*
X58068947Y-134897691D01*
X58065797Y-134918926D01*
X58060581Y-134939750D01*
X58053349Y-134959962D01*
X58044170Y-134979368D01*
X58033134Y-134997781D01*
X58020346Y-135015024D01*
X58005930Y-135030930D01*
X57990024Y-135045346D01*
X57972781Y-135058134D01*
X57954368Y-135069170D01*
X57934962Y-135078349D01*
X57914750Y-135085581D01*
X57893926Y-135090797D01*
X57872691Y-135093947D01*
X57851250Y-135095000D01*
X57413750Y-135095000D01*
X57392309Y-135093947D01*
X57371074Y-135090797D01*
X57350250Y-135085581D01*
X57330038Y-135078349D01*
X57310632Y-135069170D01*
X57292219Y-135058134D01*
X57274976Y-135045346D01*
X57259070Y-135030930D01*
X57244654Y-135015024D01*
X57231866Y-134997781D01*
X57220830Y-134979368D01*
X57211651Y-134959962D01*
X57204419Y-134939750D01*
X57199203Y-134918926D01*
X57196053Y-134897691D01*
X57195000Y-134876250D01*
X57195000Y-134363750D01*
X57196053Y-134342309D01*
X57199203Y-134321074D01*
X57204419Y-134300250D01*
X57211651Y-134280038D01*
X57220830Y-134260632D01*
X57231866Y-134242219D01*
X57244654Y-134224976D01*
X57259070Y-134209070D01*
X57274976Y-134194654D01*
X57292219Y-134181866D01*
X57310632Y-134170830D01*
X57330038Y-134161651D01*
X57350250Y-134154419D01*
X57371074Y-134149203D01*
X57392309Y-134146053D01*
X57413750Y-134145000D01*
X57851250Y-134145000D01*
X57872691Y-134146053D01*
X57872691Y-134146053D01*
G37*
D19*
X57632500Y-134620000D03*
D16*
G36*
X59447691Y-134146053D02*
G01*
X59468926Y-134149203D01*
X59489750Y-134154419D01*
X59509962Y-134161651D01*
X59529368Y-134170830D01*
X59547781Y-134181866D01*
X59565024Y-134194654D01*
X59580930Y-134209070D01*
X59595346Y-134224976D01*
X59608134Y-134242219D01*
X59619170Y-134260632D01*
X59628349Y-134280038D01*
X59635581Y-134300250D01*
X59640797Y-134321074D01*
X59643947Y-134342309D01*
X59645000Y-134363750D01*
X59645000Y-134876250D01*
X59643947Y-134897691D01*
X59640797Y-134918926D01*
X59635581Y-134939750D01*
X59628349Y-134959962D01*
X59619170Y-134979368D01*
X59608134Y-134997781D01*
X59595346Y-135015024D01*
X59580930Y-135030930D01*
X59565024Y-135045346D01*
X59547781Y-135058134D01*
X59529368Y-135069170D01*
X59509962Y-135078349D01*
X59489750Y-135085581D01*
X59468926Y-135090797D01*
X59447691Y-135093947D01*
X59426250Y-135095000D01*
X58988750Y-135095000D01*
X58967309Y-135093947D01*
X58946074Y-135090797D01*
X58925250Y-135085581D01*
X58905038Y-135078349D01*
X58885632Y-135069170D01*
X58867219Y-135058134D01*
X58849976Y-135045346D01*
X58834070Y-135030930D01*
X58819654Y-135015024D01*
X58806866Y-134997781D01*
X58795830Y-134979368D01*
X58786651Y-134959962D01*
X58779419Y-134939750D01*
X58774203Y-134918926D01*
X58771053Y-134897691D01*
X58770000Y-134876250D01*
X58770000Y-134363750D01*
X58771053Y-134342309D01*
X58774203Y-134321074D01*
X58779419Y-134300250D01*
X58786651Y-134280038D01*
X58795830Y-134260632D01*
X58806866Y-134242219D01*
X58819654Y-134224976D01*
X58834070Y-134209070D01*
X58849976Y-134194654D01*
X58867219Y-134181866D01*
X58885632Y-134170830D01*
X58905038Y-134161651D01*
X58925250Y-134154419D01*
X58946074Y-134149203D01*
X58967309Y-134146053D01*
X58988750Y-134145000D01*
X59426250Y-134145000D01*
X59447691Y-134146053D01*
X59447691Y-134146053D01*
G37*
D19*
X59207500Y-134620000D03*
D16*
G36*
X83272691Y-134146053D02*
G01*
X83293926Y-134149203D01*
X83314750Y-134154419D01*
X83334962Y-134161651D01*
X83354368Y-134170830D01*
X83372781Y-134181866D01*
X83390024Y-134194654D01*
X83405930Y-134209070D01*
X83420346Y-134224976D01*
X83433134Y-134242219D01*
X83444170Y-134260632D01*
X83453349Y-134280038D01*
X83460581Y-134300250D01*
X83465797Y-134321074D01*
X83468947Y-134342309D01*
X83470000Y-134363750D01*
X83470000Y-134876250D01*
X83468947Y-134897691D01*
X83465797Y-134918926D01*
X83460581Y-134939750D01*
X83453349Y-134959962D01*
X83444170Y-134979368D01*
X83433134Y-134997781D01*
X83420346Y-135015024D01*
X83405930Y-135030930D01*
X83390024Y-135045346D01*
X83372781Y-135058134D01*
X83354368Y-135069170D01*
X83334962Y-135078349D01*
X83314750Y-135085581D01*
X83293926Y-135090797D01*
X83272691Y-135093947D01*
X83251250Y-135095000D01*
X82813750Y-135095000D01*
X82792309Y-135093947D01*
X82771074Y-135090797D01*
X82750250Y-135085581D01*
X82730038Y-135078349D01*
X82710632Y-135069170D01*
X82692219Y-135058134D01*
X82674976Y-135045346D01*
X82659070Y-135030930D01*
X82644654Y-135015024D01*
X82631866Y-134997781D01*
X82620830Y-134979368D01*
X82611651Y-134959962D01*
X82604419Y-134939750D01*
X82599203Y-134918926D01*
X82596053Y-134897691D01*
X82595000Y-134876250D01*
X82595000Y-134363750D01*
X82596053Y-134342309D01*
X82599203Y-134321074D01*
X82604419Y-134300250D01*
X82611651Y-134280038D01*
X82620830Y-134260632D01*
X82631866Y-134242219D01*
X82644654Y-134224976D01*
X82659070Y-134209070D01*
X82674976Y-134194654D01*
X82692219Y-134181866D01*
X82710632Y-134170830D01*
X82730038Y-134161651D01*
X82750250Y-134154419D01*
X82771074Y-134149203D01*
X82792309Y-134146053D01*
X82813750Y-134145000D01*
X83251250Y-134145000D01*
X83272691Y-134146053D01*
X83272691Y-134146053D01*
G37*
D19*
X83032500Y-134620000D03*
D16*
G36*
X84847691Y-134146053D02*
G01*
X84868926Y-134149203D01*
X84889750Y-134154419D01*
X84909962Y-134161651D01*
X84929368Y-134170830D01*
X84947781Y-134181866D01*
X84965024Y-134194654D01*
X84980930Y-134209070D01*
X84995346Y-134224976D01*
X85008134Y-134242219D01*
X85019170Y-134260632D01*
X85028349Y-134280038D01*
X85035581Y-134300250D01*
X85040797Y-134321074D01*
X85043947Y-134342309D01*
X85045000Y-134363750D01*
X85045000Y-134876250D01*
X85043947Y-134897691D01*
X85040797Y-134918926D01*
X85035581Y-134939750D01*
X85028349Y-134959962D01*
X85019170Y-134979368D01*
X85008134Y-134997781D01*
X84995346Y-135015024D01*
X84980930Y-135030930D01*
X84965024Y-135045346D01*
X84947781Y-135058134D01*
X84929368Y-135069170D01*
X84909962Y-135078349D01*
X84889750Y-135085581D01*
X84868926Y-135090797D01*
X84847691Y-135093947D01*
X84826250Y-135095000D01*
X84388750Y-135095000D01*
X84367309Y-135093947D01*
X84346074Y-135090797D01*
X84325250Y-135085581D01*
X84305038Y-135078349D01*
X84285632Y-135069170D01*
X84267219Y-135058134D01*
X84249976Y-135045346D01*
X84234070Y-135030930D01*
X84219654Y-135015024D01*
X84206866Y-134997781D01*
X84195830Y-134979368D01*
X84186651Y-134959962D01*
X84179419Y-134939750D01*
X84174203Y-134918926D01*
X84171053Y-134897691D01*
X84170000Y-134876250D01*
X84170000Y-134363750D01*
X84171053Y-134342309D01*
X84174203Y-134321074D01*
X84179419Y-134300250D01*
X84186651Y-134280038D01*
X84195830Y-134260632D01*
X84206866Y-134242219D01*
X84219654Y-134224976D01*
X84234070Y-134209070D01*
X84249976Y-134194654D01*
X84267219Y-134181866D01*
X84285632Y-134170830D01*
X84305038Y-134161651D01*
X84325250Y-134154419D01*
X84346074Y-134149203D01*
X84367309Y-134146053D01*
X84388750Y-134145000D01*
X84826250Y-134145000D01*
X84847691Y-134146053D01*
X84847691Y-134146053D01*
G37*
D19*
X84607500Y-134620000D03*
D16*
G36*
X62507691Y-117191053D02*
G01*
X62528926Y-117194203D01*
X62549750Y-117199419D01*
X62569962Y-117206651D01*
X62589368Y-117215830D01*
X62607781Y-117226866D01*
X62625024Y-117239654D01*
X62640930Y-117254070D01*
X62655346Y-117269976D01*
X62668134Y-117287219D01*
X62679170Y-117305632D01*
X62688349Y-117325038D01*
X62695581Y-117345250D01*
X62700797Y-117366074D01*
X62703947Y-117387309D01*
X62705000Y-117408750D01*
X62705000Y-117846250D01*
X62703947Y-117867691D01*
X62700797Y-117888926D01*
X62695581Y-117909750D01*
X62688349Y-117929962D01*
X62679170Y-117949368D01*
X62668134Y-117967781D01*
X62655346Y-117985024D01*
X62640930Y-118000930D01*
X62625024Y-118015346D01*
X62607781Y-118028134D01*
X62589368Y-118039170D01*
X62569962Y-118048349D01*
X62549750Y-118055581D01*
X62528926Y-118060797D01*
X62507691Y-118063947D01*
X62486250Y-118065000D01*
X61973750Y-118065000D01*
X61952309Y-118063947D01*
X61931074Y-118060797D01*
X61910250Y-118055581D01*
X61890038Y-118048349D01*
X61870632Y-118039170D01*
X61852219Y-118028134D01*
X61834976Y-118015346D01*
X61819070Y-118000930D01*
X61804654Y-117985024D01*
X61791866Y-117967781D01*
X61780830Y-117949368D01*
X61771651Y-117929962D01*
X61764419Y-117909750D01*
X61759203Y-117888926D01*
X61756053Y-117867691D01*
X61755000Y-117846250D01*
X61755000Y-117408750D01*
X61756053Y-117387309D01*
X61759203Y-117366074D01*
X61764419Y-117345250D01*
X61771651Y-117325038D01*
X61780830Y-117305632D01*
X61791866Y-117287219D01*
X61804654Y-117269976D01*
X61819070Y-117254070D01*
X61834976Y-117239654D01*
X61852219Y-117226866D01*
X61870632Y-117215830D01*
X61890038Y-117206651D01*
X61910250Y-117199419D01*
X61931074Y-117194203D01*
X61952309Y-117191053D01*
X61973750Y-117190000D01*
X62486250Y-117190000D01*
X62507691Y-117191053D01*
X62507691Y-117191053D01*
G37*
D19*
X62230000Y-117627500D03*
D16*
G36*
X62507691Y-115616053D02*
G01*
X62528926Y-115619203D01*
X62549750Y-115624419D01*
X62569962Y-115631651D01*
X62589368Y-115640830D01*
X62607781Y-115651866D01*
X62625024Y-115664654D01*
X62640930Y-115679070D01*
X62655346Y-115694976D01*
X62668134Y-115712219D01*
X62679170Y-115730632D01*
X62688349Y-115750038D01*
X62695581Y-115770250D01*
X62700797Y-115791074D01*
X62703947Y-115812309D01*
X62705000Y-115833750D01*
X62705000Y-116271250D01*
X62703947Y-116292691D01*
X62700797Y-116313926D01*
X62695581Y-116334750D01*
X62688349Y-116354962D01*
X62679170Y-116374368D01*
X62668134Y-116392781D01*
X62655346Y-116410024D01*
X62640930Y-116425930D01*
X62625024Y-116440346D01*
X62607781Y-116453134D01*
X62589368Y-116464170D01*
X62569962Y-116473349D01*
X62549750Y-116480581D01*
X62528926Y-116485797D01*
X62507691Y-116488947D01*
X62486250Y-116490000D01*
X61973750Y-116490000D01*
X61952309Y-116488947D01*
X61931074Y-116485797D01*
X61910250Y-116480581D01*
X61890038Y-116473349D01*
X61870632Y-116464170D01*
X61852219Y-116453134D01*
X61834976Y-116440346D01*
X61819070Y-116425930D01*
X61804654Y-116410024D01*
X61791866Y-116392781D01*
X61780830Y-116374368D01*
X61771651Y-116354962D01*
X61764419Y-116334750D01*
X61759203Y-116313926D01*
X61756053Y-116292691D01*
X61755000Y-116271250D01*
X61755000Y-115833750D01*
X61756053Y-115812309D01*
X61759203Y-115791074D01*
X61764419Y-115770250D01*
X61771651Y-115750038D01*
X61780830Y-115730632D01*
X61791866Y-115712219D01*
X61804654Y-115694976D01*
X61819070Y-115679070D01*
X61834976Y-115664654D01*
X61852219Y-115651866D01*
X61870632Y-115640830D01*
X61890038Y-115631651D01*
X61910250Y-115624419D01*
X61931074Y-115619203D01*
X61952309Y-115616053D01*
X61973750Y-115615000D01*
X62486250Y-115615000D01*
X62507691Y-115616053D01*
X62507691Y-115616053D01*
G37*
D19*
X62230000Y-116052500D03*
D32*
X92247500Y-83950000D02*
X92710000Y-83487500D01*
X90170000Y-83950000D02*
X92247500Y-83950000D01*
X87630000Y-130810000D02*
X89382500Y-130810000D01*
X80010000Y-132080000D02*
X80010000Y-129540000D01*
X80010000Y-129540000D02*
X86360000Y-129540000D01*
X86360000Y-129540000D02*
X87630000Y-128270000D01*
X87630000Y-128270000D02*
X87630000Y-119380000D01*
X78740000Y-120582500D02*
X78740000Y-119380000D01*
X69850000Y-123190000D02*
X77470000Y-123190000D01*
X77470000Y-123190000D02*
X78740000Y-121920000D01*
X78740000Y-121920000D02*
X78740000Y-119380000D01*
X78740000Y-114300000D02*
X87630000Y-114300000D01*
X92247500Y-81150000D02*
X92710000Y-81612500D01*
X90170000Y-81150000D02*
X92247500Y-81150000D01*
X87677500Y-114300000D02*
X87630000Y-114300000D01*
X88900000Y-114300000D02*
X87630000Y-114300000D01*
X89832510Y-115232510D02*
X88900000Y-114300000D01*
X89832510Y-137497490D02*
X89832510Y-115232510D01*
X87630000Y-139700000D02*
X89832510Y-137497490D01*
X54610000Y-81280000D02*
X50800000Y-85090000D01*
X50800000Y-85090000D02*
X50800000Y-106680000D01*
X57150000Y-81280000D02*
X54610000Y-81280000D01*
X50800000Y-106680000D02*
X52070000Y-107950000D01*
X53340000Y-139700000D02*
X87630000Y-139700000D01*
X52070000Y-107950000D02*
X52070000Y-138430000D01*
X52070000Y-138430000D02*
X53340000Y-139700000D01*
X59207500Y-128270000D02*
X60140010Y-128270000D01*
X60140010Y-128270000D02*
X60960000Y-127450010D01*
X70300010Y-127450010D02*
X72390000Y-129540000D01*
X60960000Y-127450010D02*
X70300010Y-127450010D01*
X54610000Y-128270000D02*
X57632500Y-128270000D01*
X54610000Y-132080000D02*
X57632500Y-132080000D01*
X72390000Y-132080000D02*
X59207500Y-132080000D01*
X69850000Y-111760000D02*
X62230000Y-111760000D01*
X62230000Y-111760000D02*
X58420000Y-111760000D01*
X57150000Y-113030000D02*
X54610000Y-113030000D01*
X58420000Y-111760000D02*
X57150000Y-113030000D01*
X62230000Y-116052500D02*
X62230000Y-111760000D01*
X57632500Y-125730000D02*
X54610000Y-125730000D01*
X57632500Y-134620000D02*
X54610000Y-134620000D01*
X80010000Y-127000000D02*
X83032500Y-127000000D01*
X63230000Y-123190000D02*
X64500000Y-124460000D01*
X62230000Y-123190000D02*
X63230000Y-123190000D01*
X64500000Y-124460000D02*
X78740000Y-124460000D01*
X78740000Y-124460000D02*
X80010000Y-125730000D01*
X80010000Y-125730000D02*
X80010000Y-127000000D01*
X62230000Y-120650000D02*
X62230000Y-117627500D01*
X80010000Y-134620000D02*
X83032500Y-134620000D01*
X62230000Y-121920000D02*
X69399990Y-121920000D01*
X78740000Y-133350000D02*
X80010000Y-134620000D01*
X78740000Y-125730000D02*
X78740000Y-133350000D01*
X77920010Y-124910010D02*
X78740000Y-125730000D01*
X63950010Y-124910010D02*
X77920010Y-124910010D01*
X60960000Y-122190000D02*
X60960000Y-123780002D01*
X62230000Y-121920000D02*
X61230000Y-121920000D01*
X60960000Y-123780002D02*
X61639998Y-124460000D01*
X61230000Y-121920000D02*
X60960000Y-122190000D01*
X61639998Y-124460000D02*
X63500000Y-124460000D01*
X63500000Y-124460000D02*
X63950010Y-124910010D01*
X69850000Y-116840000D02*
X72390000Y-114300000D01*
X72390000Y-114300000D02*
X72390000Y-110490000D01*
X72390000Y-110490000D02*
X71120000Y-109220000D01*
X71120000Y-109220000D02*
X69850000Y-109220000D01*
X69850000Y-116840000D02*
X69850000Y-120650000D01*
X73660000Y-106680000D02*
X69850000Y-106680000D01*
X69850000Y-106680000D02*
X67310000Y-106680000D01*
X64770000Y-109220000D02*
X62230000Y-109220000D01*
X67310000Y-106680000D02*
X64770000Y-109220000D01*
X60477500Y-127000000D02*
X59207500Y-125730000D01*
X72390000Y-127000000D02*
X60477500Y-127000000D01*
X59207500Y-134620000D02*
X61297490Y-132530010D01*
X70300010Y-132530010D02*
X72390000Y-134620000D01*
X61297490Y-132530010D02*
X70300010Y-132530010D01*
X55000000Y-145000000D02*
X55000000Y-147710000D01*
X130000000Y-147400000D02*
X130000000Y-145000000D01*
X128810000Y-148590000D02*
X130000000Y-147400000D01*
D33*
G36*
X102743000Y-73712606D02*
G01*
X102743000Y-91387394D01*
X101547394Y-92583000D01*
X100013255Y-92583000D01*
X99187000Y-91459245D01*
X99187000Y-85090000D01*
X99184560Y-85065224D01*
X99177333Y-85041399D01*
X99165597Y-85019443D01*
X99149803Y-85000197D01*
X96609803Y-82460197D01*
X96590557Y-82444403D01*
X96568601Y-82432667D01*
X96544776Y-82425440D01*
X96520000Y-82423000D01*
X93957371Y-82423000D01*
X93999502Y-82344180D01*
X94035812Y-82224482D01*
X94048072Y-82100000D01*
X94045000Y-81898250D01*
X93886250Y-81739500D01*
X92837000Y-81739500D01*
X92837000Y-81759500D01*
X92583000Y-81759500D01*
X92583000Y-81739500D01*
X92563000Y-81739500D01*
X92563000Y-81485500D01*
X92583000Y-81485500D01*
X92583000Y-80648750D01*
X92837000Y-80648750D01*
X92837000Y-81485500D01*
X93886250Y-81485500D01*
X94045000Y-81326750D01*
X94048072Y-81125000D01*
X94035812Y-81000518D01*
X93999502Y-80880820D01*
X93940537Y-80770506D01*
X93861185Y-80673815D01*
X93764494Y-80594463D01*
X93654180Y-80535498D01*
X93534482Y-80499188D01*
X93410000Y-80486928D01*
X92995750Y-80490000D01*
X92837000Y-80648750D01*
X92583000Y-80648750D01*
X92424250Y-80490000D01*
X92010000Y-80486928D01*
X91885518Y-80499188D01*
X91765820Y-80535498D01*
X91682574Y-80579995D01*
X91683072Y-80525000D01*
X91670812Y-80400518D01*
X91634502Y-80280820D01*
X91575537Y-80170506D01*
X91496185Y-80073815D01*
X91399494Y-79994463D01*
X91289180Y-79935498D01*
X91169482Y-79899188D01*
X91045000Y-79886928D01*
X90455750Y-79890000D01*
X90297000Y-80048750D01*
X90297000Y-81023000D01*
X90317000Y-81023000D01*
X90317000Y-81277000D01*
X90297000Y-81277000D01*
X90297000Y-82251250D01*
X90455750Y-82410000D01*
X91045000Y-82413072D01*
X91169482Y-82400812D01*
X91289180Y-82364502D01*
X91399494Y-82305537D01*
X91406926Y-82299438D01*
X91420498Y-82344180D01*
X91462629Y-82423000D01*
X88900000Y-82423000D01*
X88875224Y-82425440D01*
X88851399Y-82432667D01*
X88829443Y-82444403D01*
X88810197Y-82460197D01*
X87577394Y-83693000D01*
X69916681Y-83693000D01*
X69969502Y-83594180D01*
X70005812Y-83474482D01*
X70018072Y-83350000D01*
X70015000Y-82835750D01*
X69856250Y-82677000D01*
X68707000Y-82677000D01*
X68707000Y-82697000D01*
X68453000Y-82697000D01*
X68453000Y-82677000D01*
X67303750Y-82677000D01*
X67145000Y-82835750D01*
X67141928Y-83350000D01*
X67154188Y-83474482D01*
X67190498Y-83594180D01*
X67243319Y-83693000D01*
X53392606Y-83693000D01*
X52279606Y-82580000D01*
X55211928Y-82580000D01*
X55224188Y-82704482D01*
X55260498Y-82824180D01*
X55319463Y-82934494D01*
X55398815Y-83031185D01*
X55495506Y-83110537D01*
X55605820Y-83169502D01*
X55725518Y-83205812D01*
X55850000Y-83218072D01*
X56864250Y-83215000D01*
X57023000Y-83056250D01*
X57023000Y-81407000D01*
X57277000Y-81407000D01*
X57277000Y-83056250D01*
X57435750Y-83215000D01*
X58450000Y-83218072D01*
X58574482Y-83205812D01*
X58694180Y-83169502D01*
X58804494Y-83110537D01*
X58901185Y-83031185D01*
X58980537Y-82934494D01*
X59039502Y-82824180D01*
X59075812Y-82704482D01*
X59088072Y-82580000D01*
X59085559Y-81750000D01*
X67141928Y-81750000D01*
X67145000Y-82264250D01*
X67303750Y-82423000D01*
X68453000Y-82423000D01*
X68453000Y-81273750D01*
X68707000Y-81273750D01*
X68707000Y-82423000D01*
X69856250Y-82423000D01*
X70006548Y-82272702D01*
X74116903Y-82272702D01*
X74188486Y-82516671D01*
X74443996Y-82637571D01*
X74718184Y-82706300D01*
X75000512Y-82720217D01*
X75280130Y-82678787D01*
X75546292Y-82583603D01*
X75671514Y-82516671D01*
X75743097Y-82272702D01*
X77926903Y-82272702D01*
X77998486Y-82516671D01*
X78253996Y-82637571D01*
X78528184Y-82706300D01*
X78810512Y-82720217D01*
X79090130Y-82678787D01*
X79356292Y-82583603D01*
X79481514Y-82516671D01*
X79553097Y-82272702D01*
X81736903Y-82272702D01*
X81808486Y-82516671D01*
X82063996Y-82637571D01*
X82338184Y-82706300D01*
X82620512Y-82720217D01*
X82900130Y-82678787D01*
X83166292Y-82583603D01*
X83291514Y-82516671D01*
X83363097Y-82272702D01*
X85546903Y-82272702D01*
X85618486Y-82516671D01*
X85873996Y-82637571D01*
X86148184Y-82706300D01*
X86430512Y-82720217D01*
X86710130Y-82678787D01*
X86976292Y-82583603D01*
X87101514Y-82516671D01*
X87173097Y-82272702D01*
X86360000Y-81459605D01*
X85546903Y-82272702D01*
X83363097Y-82272702D01*
X82550000Y-81459605D01*
X81736903Y-82272702D01*
X79553097Y-82272702D01*
X78740000Y-81459605D01*
X77926903Y-82272702D01*
X75743097Y-82272702D01*
X74930000Y-81459605D01*
X74116903Y-82272702D01*
X70006548Y-82272702D01*
X70015000Y-82264250D01*
X70018072Y-81750000D01*
X70005812Y-81625518D01*
X69969502Y-81505820D01*
X69910537Y-81395506D01*
X69873612Y-81350512D01*
X73489783Y-81350512D01*
X73531213Y-81630130D01*
X73626397Y-81896292D01*
X73693329Y-82021514D01*
X73937298Y-82093097D01*
X74750395Y-81280000D01*
X75109605Y-81280000D01*
X75922702Y-82093097D01*
X76166671Y-82021514D01*
X76287571Y-81766004D01*
X76356300Y-81491816D01*
X76363265Y-81350512D01*
X77299783Y-81350512D01*
X77341213Y-81630130D01*
X77436397Y-81896292D01*
X77503329Y-82021514D01*
X77747298Y-82093097D01*
X78560395Y-81280000D01*
X78919605Y-81280000D01*
X79732702Y-82093097D01*
X79976671Y-82021514D01*
X80097571Y-81766004D01*
X80166300Y-81491816D01*
X80173265Y-81350512D01*
X81109783Y-81350512D01*
X81151213Y-81630130D01*
X81246397Y-81896292D01*
X81313329Y-82021514D01*
X81557298Y-82093097D01*
X82370395Y-81280000D01*
X82729605Y-81280000D01*
X83542702Y-82093097D01*
X83786671Y-82021514D01*
X83907571Y-81766004D01*
X83976300Y-81491816D01*
X83983265Y-81350512D01*
X84919783Y-81350512D01*
X84961213Y-81630130D01*
X85056397Y-81896292D01*
X85123329Y-82021514D01*
X85367298Y-82093097D01*
X86180395Y-81280000D01*
X86539605Y-81280000D01*
X87352702Y-82093097D01*
X87596671Y-82021514D01*
X87713314Y-81775000D01*
X88656928Y-81775000D01*
X88669188Y-81899482D01*
X88705498Y-82019180D01*
X88764463Y-82129494D01*
X88843815Y-82226185D01*
X88940506Y-82305537D01*
X89050820Y-82364502D01*
X89170518Y-82400812D01*
X89295000Y-82413072D01*
X89884250Y-82410000D01*
X90043000Y-82251250D01*
X90043000Y-81277000D01*
X88818750Y-81277000D01*
X88660000Y-81435750D01*
X88656928Y-81775000D01*
X87713314Y-81775000D01*
X87717571Y-81766004D01*
X87786300Y-81491816D01*
X87800217Y-81209488D01*
X87758787Y-80929870D01*
X87663603Y-80663708D01*
X87596671Y-80538486D01*
X87550709Y-80525000D01*
X88656928Y-80525000D01*
X88660000Y-80864250D01*
X88818750Y-81023000D01*
X90043000Y-81023000D01*
X90043000Y-80048750D01*
X89884250Y-79890000D01*
X89295000Y-79886928D01*
X89170518Y-79899188D01*
X89050820Y-79935498D01*
X88940506Y-79994463D01*
X88843815Y-80073815D01*
X88764463Y-80170506D01*
X88705498Y-80280820D01*
X88669188Y-80400518D01*
X88656928Y-80525000D01*
X87550709Y-80525000D01*
X87352702Y-80466903D01*
X86539605Y-81280000D01*
X86180395Y-81280000D01*
X85367298Y-80466903D01*
X85123329Y-80538486D01*
X85002429Y-80793996D01*
X84933700Y-81068184D01*
X84919783Y-81350512D01*
X83983265Y-81350512D01*
X83990217Y-81209488D01*
X83948787Y-80929870D01*
X83853603Y-80663708D01*
X83786671Y-80538486D01*
X83542702Y-80466903D01*
X82729605Y-81280000D01*
X82370395Y-81280000D01*
X81557298Y-80466903D01*
X81313329Y-80538486D01*
X81192429Y-80793996D01*
X81123700Y-81068184D01*
X81109783Y-81350512D01*
X80173265Y-81350512D01*
X80180217Y-81209488D01*
X80138787Y-80929870D01*
X80043603Y-80663708D01*
X79976671Y-80538486D01*
X79732702Y-80466903D01*
X78919605Y-81280000D01*
X78560395Y-81280000D01*
X77747298Y-80466903D01*
X77503329Y-80538486D01*
X77382429Y-80793996D01*
X77313700Y-81068184D01*
X77299783Y-81350512D01*
X76363265Y-81350512D01*
X76370217Y-81209488D01*
X76328787Y-80929870D01*
X76233603Y-80663708D01*
X76166671Y-80538486D01*
X75922702Y-80466903D01*
X75109605Y-81280000D01*
X74750395Y-81280000D01*
X73937298Y-80466903D01*
X73693329Y-80538486D01*
X73572429Y-80793996D01*
X73503700Y-81068184D01*
X73489783Y-81350512D01*
X69873612Y-81350512D01*
X69831185Y-81298815D01*
X69734494Y-81219463D01*
X69624180Y-81160498D01*
X69504482Y-81124188D01*
X69380000Y-81111928D01*
X68865750Y-81115000D01*
X68707000Y-81273750D01*
X68453000Y-81273750D01*
X68294250Y-81115000D01*
X67780000Y-81111928D01*
X67655518Y-81124188D01*
X67535820Y-81160498D01*
X67425506Y-81219463D01*
X67328815Y-81298815D01*
X67249463Y-81395506D01*
X67190498Y-81505820D01*
X67154188Y-81625518D01*
X67141928Y-81750000D01*
X59085559Y-81750000D01*
X59085000Y-81565750D01*
X58926250Y-81407000D01*
X57277000Y-81407000D01*
X57023000Y-81407000D01*
X55373750Y-81407000D01*
X55215000Y-81565750D01*
X55211928Y-82580000D01*
X52279606Y-82580000D01*
X52197000Y-82497394D01*
X52197000Y-79980000D01*
X55211928Y-79980000D01*
X55215000Y-80994250D01*
X55373750Y-81153000D01*
X57023000Y-81153000D01*
X57023000Y-79503750D01*
X57277000Y-79503750D01*
X57277000Y-81153000D01*
X58926250Y-81153000D01*
X59085000Y-80994250D01*
X59087141Y-80287298D01*
X74116903Y-80287298D01*
X74930000Y-81100395D01*
X75743097Y-80287298D01*
X77926903Y-80287298D01*
X78740000Y-81100395D01*
X79553097Y-80287298D01*
X81736903Y-80287298D01*
X82550000Y-81100395D01*
X83363097Y-80287298D01*
X85546903Y-80287298D01*
X86360000Y-81100395D01*
X87173097Y-80287298D01*
X87101514Y-80043329D01*
X86846004Y-79922429D01*
X86571816Y-79853700D01*
X86289488Y-79839783D01*
X86009870Y-79881213D01*
X85743708Y-79976397D01*
X85618486Y-80043329D01*
X85546903Y-80287298D01*
X83363097Y-80287298D01*
X83291514Y-80043329D01*
X83036004Y-79922429D01*
X82761816Y-79853700D01*
X82479488Y-79839783D01*
X82199870Y-79881213D01*
X81933708Y-79976397D01*
X81808486Y-80043329D01*
X81736903Y-80287298D01*
X79553097Y-80287298D01*
X79481514Y-80043329D01*
X79226004Y-79922429D01*
X78951816Y-79853700D01*
X78669488Y-79839783D01*
X78389870Y-79881213D01*
X78123708Y-79976397D01*
X77998486Y-80043329D01*
X77926903Y-80287298D01*
X75743097Y-80287298D01*
X75671514Y-80043329D01*
X75416004Y-79922429D01*
X75141816Y-79853700D01*
X74859488Y-79839783D01*
X74579870Y-79881213D01*
X74313708Y-79976397D01*
X74188486Y-80043329D01*
X74116903Y-80287298D01*
X59087141Y-80287298D01*
X59088072Y-79980000D01*
X59075812Y-79855518D01*
X59039502Y-79735820D01*
X58980537Y-79625506D01*
X58901185Y-79528815D01*
X58804494Y-79449463D01*
X58694180Y-79390498D01*
X58574482Y-79354188D01*
X58450000Y-79341928D01*
X57435750Y-79345000D01*
X57277000Y-79503750D01*
X57023000Y-79503750D01*
X56864250Y-79345000D01*
X55850000Y-79341928D01*
X55725518Y-79354188D01*
X55605820Y-79390498D01*
X55495506Y-79449463D01*
X55398815Y-79528815D01*
X55319463Y-79625506D01*
X55260498Y-79735820D01*
X55224188Y-79855518D01*
X55211928Y-79980000D01*
X52197000Y-79980000D01*
X52197000Y-76627000D01*
X92365000Y-76627000D01*
X92365000Y-78127000D01*
X92430800Y-78541078D01*
X92576118Y-78934362D01*
X92795370Y-79291739D01*
X93080130Y-79599475D01*
X93419454Y-79845744D01*
X93800303Y-80021083D01*
X94041167Y-80085113D01*
X94373000Y-79972165D01*
X94373000Y-76627000D01*
X94627000Y-76627000D01*
X94627000Y-79972165D01*
X94958833Y-80085113D01*
X95199697Y-80021083D01*
X95580546Y-79845744D01*
X95919870Y-79599475D01*
X96204630Y-79291739D01*
X96423882Y-78934362D01*
X96569200Y-78541078D01*
X96635000Y-78127000D01*
X96635000Y-76627000D01*
X97365000Y-76627000D01*
X97365000Y-78127000D01*
X97430800Y-78541078D01*
X97576118Y-78934362D01*
X97795370Y-79291739D01*
X98080130Y-79599475D01*
X98419454Y-79845744D01*
X98800303Y-80021083D01*
X99041167Y-80085113D01*
X99373000Y-79972165D01*
X99373000Y-76627000D01*
X99627000Y-76627000D01*
X99627000Y-79972165D01*
X99958833Y-80085113D01*
X100199697Y-80021083D01*
X100580546Y-79845744D01*
X100919870Y-79599475D01*
X101204630Y-79291739D01*
X101423882Y-78934362D01*
X101569200Y-78541078D01*
X101635000Y-78127000D01*
X101635000Y-76627000D01*
X99627000Y-76627000D01*
X99373000Y-76627000D01*
X97365000Y-76627000D01*
X96635000Y-76627000D01*
X94627000Y-76627000D01*
X94373000Y-76627000D01*
X92365000Y-76627000D01*
X52197000Y-76627000D01*
X52197000Y-74873000D01*
X92365000Y-74873000D01*
X92365000Y-76373000D01*
X94373000Y-76373000D01*
X94373000Y-73027835D01*
X94627000Y-73027835D01*
X94627000Y-76373000D01*
X96635000Y-76373000D01*
X96635000Y-74873000D01*
X97365000Y-74873000D01*
X97365000Y-76373000D01*
X99373000Y-76373000D01*
X99373000Y-73027835D01*
X99627000Y-73027835D01*
X99627000Y-76373000D01*
X101635000Y-76373000D01*
X101635000Y-74873000D01*
X101569200Y-74458922D01*
X101423882Y-74065638D01*
X101204630Y-73708261D01*
X100919870Y-73400525D01*
X100580546Y-73154256D01*
X100199697Y-72978917D01*
X99958833Y-72914887D01*
X99627000Y-73027835D01*
X99373000Y-73027835D01*
X99041167Y-72914887D01*
X98800303Y-72978917D01*
X98419454Y-73154256D01*
X98080130Y-73400525D01*
X97795370Y-73708261D01*
X97576118Y-74065638D01*
X97430800Y-74458922D01*
X97365000Y-74873000D01*
X96635000Y-74873000D01*
X96569200Y-74458922D01*
X96423882Y-74065638D01*
X96204630Y-73708261D01*
X95919870Y-73400525D01*
X95580546Y-73154256D01*
X95199697Y-72978917D01*
X94958833Y-72914887D01*
X94627000Y-73027835D01*
X94373000Y-73027835D01*
X94041167Y-72914887D01*
X93800303Y-72978917D01*
X93419454Y-73154256D01*
X93080130Y-73400525D01*
X92795370Y-73708261D01*
X92576118Y-74065638D01*
X92430800Y-74458922D01*
X92365000Y-74873000D01*
X52197000Y-74873000D01*
X52197000Y-73712606D01*
X53392606Y-72517000D01*
X101547394Y-72517000D01*
X102743000Y-73712606D01*
X102743000Y-73712606D01*
G37*
X102743000Y-73712606D02*
X102743000Y-91387394D01*
X101547394Y-92583000D01*
X100013255Y-92583000D01*
X99187000Y-91459245D01*
X99187000Y-85090000D01*
X99184560Y-85065224D01*
X99177333Y-85041399D01*
X99165597Y-85019443D01*
X99149803Y-85000197D01*
X96609803Y-82460197D01*
X96590557Y-82444403D01*
X96568601Y-82432667D01*
X96544776Y-82425440D01*
X96520000Y-82423000D01*
X93957371Y-82423000D01*
X93999502Y-82344180D01*
X94035812Y-82224482D01*
X94048072Y-82100000D01*
X94045000Y-81898250D01*
X93886250Y-81739500D01*
X92837000Y-81739500D01*
X92837000Y-81759500D01*
X92583000Y-81759500D01*
X92583000Y-81739500D01*
X92563000Y-81739500D01*
X92563000Y-81485500D01*
X92583000Y-81485500D01*
X92583000Y-80648750D01*
X92837000Y-80648750D01*
X92837000Y-81485500D01*
X93886250Y-81485500D01*
X94045000Y-81326750D01*
X94048072Y-81125000D01*
X94035812Y-81000518D01*
X93999502Y-80880820D01*
X93940537Y-80770506D01*
X93861185Y-80673815D01*
X93764494Y-80594463D01*
X93654180Y-80535498D01*
X93534482Y-80499188D01*
X93410000Y-80486928D01*
X92995750Y-80490000D01*
X92837000Y-80648750D01*
X92583000Y-80648750D01*
X92424250Y-80490000D01*
X92010000Y-80486928D01*
X91885518Y-80499188D01*
X91765820Y-80535498D01*
X91682574Y-80579995D01*
X91683072Y-80525000D01*
X91670812Y-80400518D01*
X91634502Y-80280820D01*
X91575537Y-80170506D01*
X91496185Y-80073815D01*
X91399494Y-79994463D01*
X91289180Y-79935498D01*
X91169482Y-79899188D01*
X91045000Y-79886928D01*
X90455750Y-79890000D01*
X90297000Y-80048750D01*
X90297000Y-81023000D01*
X90317000Y-81023000D01*
X90317000Y-81277000D01*
X90297000Y-81277000D01*
X90297000Y-82251250D01*
X90455750Y-82410000D01*
X91045000Y-82413072D01*
X91169482Y-82400812D01*
X91289180Y-82364502D01*
X91399494Y-82305537D01*
X91406926Y-82299438D01*
X91420498Y-82344180D01*
X91462629Y-82423000D01*
X88900000Y-82423000D01*
X88875224Y-82425440D01*
X88851399Y-82432667D01*
X88829443Y-82444403D01*
X88810197Y-82460197D01*
X87577394Y-83693000D01*
X69916681Y-83693000D01*
X69969502Y-83594180D01*
X70005812Y-83474482D01*
X70018072Y-83350000D01*
X70015000Y-82835750D01*
X69856250Y-82677000D01*
X68707000Y-82677000D01*
X68707000Y-82697000D01*
X68453000Y-82697000D01*
X68453000Y-82677000D01*
X67303750Y-82677000D01*
X67145000Y-82835750D01*
X67141928Y-83350000D01*
X67154188Y-83474482D01*
X67190498Y-83594180D01*
X67243319Y-83693000D01*
X53392606Y-83693000D01*
X52279606Y-82580000D01*
X55211928Y-82580000D01*
X55224188Y-82704482D01*
X55260498Y-82824180D01*
X55319463Y-82934494D01*
X55398815Y-83031185D01*
X55495506Y-83110537D01*
X55605820Y-83169502D01*
X55725518Y-83205812D01*
X55850000Y-83218072D01*
X56864250Y-83215000D01*
X57023000Y-83056250D01*
X57023000Y-81407000D01*
X57277000Y-81407000D01*
X57277000Y-83056250D01*
X57435750Y-83215000D01*
X58450000Y-83218072D01*
X58574482Y-83205812D01*
X58694180Y-83169502D01*
X58804494Y-83110537D01*
X58901185Y-83031185D01*
X58980537Y-82934494D01*
X59039502Y-82824180D01*
X59075812Y-82704482D01*
X59088072Y-82580000D01*
X59085559Y-81750000D01*
X67141928Y-81750000D01*
X67145000Y-82264250D01*
X67303750Y-82423000D01*
X68453000Y-82423000D01*
X68453000Y-81273750D01*
X68707000Y-81273750D01*
X68707000Y-82423000D01*
X69856250Y-82423000D01*
X70006548Y-82272702D01*
X74116903Y-82272702D01*
X74188486Y-82516671D01*
X74443996Y-82637571D01*
X74718184Y-82706300D01*
X75000512Y-82720217D01*
X75280130Y-82678787D01*
X75546292Y-82583603D01*
X75671514Y-82516671D01*
X75743097Y-82272702D01*
X77926903Y-82272702D01*
X77998486Y-82516671D01*
X78253996Y-82637571D01*
X78528184Y-82706300D01*
X78810512Y-82720217D01*
X79090130Y-82678787D01*
X79356292Y-82583603D01*
X79481514Y-82516671D01*
X79553097Y-82272702D01*
X81736903Y-82272702D01*
X81808486Y-82516671D01*
X82063996Y-82637571D01*
X82338184Y-82706300D01*
X82620512Y-82720217D01*
X82900130Y-82678787D01*
X83166292Y-82583603D01*
X83291514Y-82516671D01*
X83363097Y-82272702D01*
X85546903Y-82272702D01*
X85618486Y-82516671D01*
X85873996Y-82637571D01*
X86148184Y-82706300D01*
X86430512Y-82720217D01*
X86710130Y-82678787D01*
X86976292Y-82583603D01*
X87101514Y-82516671D01*
X87173097Y-82272702D01*
X86360000Y-81459605D01*
X85546903Y-82272702D01*
X83363097Y-82272702D01*
X82550000Y-81459605D01*
X81736903Y-82272702D01*
X79553097Y-82272702D01*
X78740000Y-81459605D01*
X77926903Y-82272702D01*
X75743097Y-82272702D01*
X74930000Y-81459605D01*
X74116903Y-82272702D01*
X70006548Y-82272702D01*
X70015000Y-82264250D01*
X70018072Y-81750000D01*
X70005812Y-81625518D01*
X69969502Y-81505820D01*
X69910537Y-81395506D01*
X69873612Y-81350512D01*
X73489783Y-81350512D01*
X73531213Y-81630130D01*
X73626397Y-81896292D01*
X73693329Y-82021514D01*
X73937298Y-82093097D01*
X74750395Y-81280000D01*
X75109605Y-81280000D01*
X75922702Y-82093097D01*
X76166671Y-82021514D01*
X76287571Y-81766004D01*
X76356300Y-81491816D01*
X76363265Y-81350512D01*
X77299783Y-81350512D01*
X77341213Y-81630130D01*
X77436397Y-81896292D01*
X77503329Y-82021514D01*
X77747298Y-82093097D01*
X78560395Y-81280000D01*
X78919605Y-81280000D01*
X79732702Y-82093097D01*
X79976671Y-82021514D01*
X80097571Y-81766004D01*
X80166300Y-81491816D01*
X80173265Y-81350512D01*
X81109783Y-81350512D01*
X81151213Y-81630130D01*
X81246397Y-81896292D01*
X81313329Y-82021514D01*
X81557298Y-82093097D01*
X82370395Y-81280000D01*
X82729605Y-81280000D01*
X83542702Y-82093097D01*
X83786671Y-82021514D01*
X83907571Y-81766004D01*
X83976300Y-81491816D01*
X83983265Y-81350512D01*
X84919783Y-81350512D01*
X84961213Y-81630130D01*
X85056397Y-81896292D01*
X85123329Y-82021514D01*
X85367298Y-82093097D01*
X86180395Y-81280000D01*
X86539605Y-81280000D01*
X87352702Y-82093097D01*
X87596671Y-82021514D01*
X87713314Y-81775000D01*
X88656928Y-81775000D01*
X88669188Y-81899482D01*
X88705498Y-82019180D01*
X88764463Y-82129494D01*
X88843815Y-82226185D01*
X88940506Y-82305537D01*
X89050820Y-82364502D01*
X89170518Y-82400812D01*
X89295000Y-82413072D01*
X89884250Y-82410000D01*
X90043000Y-82251250D01*
X90043000Y-81277000D01*
X88818750Y-81277000D01*
X88660000Y-81435750D01*
X88656928Y-81775000D01*
X87713314Y-81775000D01*
X87717571Y-81766004D01*
X87786300Y-81491816D01*
X87800217Y-81209488D01*
X87758787Y-80929870D01*
X87663603Y-80663708D01*
X87596671Y-80538486D01*
X87550709Y-80525000D01*
X88656928Y-80525000D01*
X88660000Y-80864250D01*
X88818750Y-81023000D01*
X90043000Y-81023000D01*
X90043000Y-80048750D01*
X89884250Y-79890000D01*
X89295000Y-79886928D01*
X89170518Y-79899188D01*
X89050820Y-79935498D01*
X88940506Y-79994463D01*
X88843815Y-80073815D01*
X88764463Y-80170506D01*
X88705498Y-80280820D01*
X88669188Y-80400518D01*
X88656928Y-80525000D01*
X87550709Y-80525000D01*
X87352702Y-80466903D01*
X86539605Y-81280000D01*
X86180395Y-81280000D01*
X85367298Y-80466903D01*
X85123329Y-80538486D01*
X85002429Y-80793996D01*
X84933700Y-81068184D01*
X84919783Y-81350512D01*
X83983265Y-81350512D01*
X83990217Y-81209488D01*
X83948787Y-80929870D01*
X83853603Y-80663708D01*
X83786671Y-80538486D01*
X83542702Y-80466903D01*
X82729605Y-81280000D01*
X82370395Y-81280000D01*
X81557298Y-80466903D01*
X81313329Y-80538486D01*
X81192429Y-80793996D01*
X81123700Y-81068184D01*
X81109783Y-81350512D01*
X80173265Y-81350512D01*
X80180217Y-81209488D01*
X80138787Y-80929870D01*
X80043603Y-80663708D01*
X79976671Y-80538486D01*
X79732702Y-80466903D01*
X78919605Y-81280000D01*
X78560395Y-81280000D01*
X77747298Y-80466903D01*
X77503329Y-80538486D01*
X77382429Y-80793996D01*
X77313700Y-81068184D01*
X77299783Y-81350512D01*
X76363265Y-81350512D01*
X76370217Y-81209488D01*
X76328787Y-80929870D01*
X76233603Y-80663708D01*
X76166671Y-80538486D01*
X75922702Y-80466903D01*
X75109605Y-81280000D01*
X74750395Y-81280000D01*
X73937298Y-80466903D01*
X73693329Y-80538486D01*
X73572429Y-80793996D01*
X73503700Y-81068184D01*
X73489783Y-81350512D01*
X69873612Y-81350512D01*
X69831185Y-81298815D01*
X69734494Y-81219463D01*
X69624180Y-81160498D01*
X69504482Y-81124188D01*
X69380000Y-81111928D01*
X68865750Y-81115000D01*
X68707000Y-81273750D01*
X68453000Y-81273750D01*
X68294250Y-81115000D01*
X67780000Y-81111928D01*
X67655518Y-81124188D01*
X67535820Y-81160498D01*
X67425506Y-81219463D01*
X67328815Y-81298815D01*
X67249463Y-81395506D01*
X67190498Y-81505820D01*
X67154188Y-81625518D01*
X67141928Y-81750000D01*
X59085559Y-81750000D01*
X59085000Y-81565750D01*
X58926250Y-81407000D01*
X57277000Y-81407000D01*
X57023000Y-81407000D01*
X55373750Y-81407000D01*
X55215000Y-81565750D01*
X55211928Y-82580000D01*
X52279606Y-82580000D01*
X52197000Y-82497394D01*
X52197000Y-79980000D01*
X55211928Y-79980000D01*
X55215000Y-80994250D01*
X55373750Y-81153000D01*
X57023000Y-81153000D01*
X57023000Y-79503750D01*
X57277000Y-79503750D01*
X57277000Y-81153000D01*
X58926250Y-81153000D01*
X59085000Y-80994250D01*
X59087141Y-80287298D01*
X74116903Y-80287298D01*
X74930000Y-81100395D01*
X75743097Y-80287298D01*
X77926903Y-80287298D01*
X78740000Y-81100395D01*
X79553097Y-80287298D01*
X81736903Y-80287298D01*
X82550000Y-81100395D01*
X83363097Y-80287298D01*
X85546903Y-80287298D01*
X86360000Y-81100395D01*
X87173097Y-80287298D01*
X87101514Y-80043329D01*
X86846004Y-79922429D01*
X86571816Y-79853700D01*
X86289488Y-79839783D01*
X86009870Y-79881213D01*
X85743708Y-79976397D01*
X85618486Y-80043329D01*
X85546903Y-80287298D01*
X83363097Y-80287298D01*
X83291514Y-80043329D01*
X83036004Y-79922429D01*
X82761816Y-79853700D01*
X82479488Y-79839783D01*
X82199870Y-79881213D01*
X81933708Y-79976397D01*
X81808486Y-80043329D01*
X81736903Y-80287298D01*
X79553097Y-80287298D01*
X79481514Y-80043329D01*
X79226004Y-79922429D01*
X78951816Y-79853700D01*
X78669488Y-79839783D01*
X78389870Y-79881213D01*
X78123708Y-79976397D01*
X77998486Y-80043329D01*
X77926903Y-80287298D01*
X75743097Y-80287298D01*
X75671514Y-80043329D01*
X75416004Y-79922429D01*
X75141816Y-79853700D01*
X74859488Y-79839783D01*
X74579870Y-79881213D01*
X74313708Y-79976397D01*
X74188486Y-80043329D01*
X74116903Y-80287298D01*
X59087141Y-80287298D01*
X59088072Y-79980000D01*
X59075812Y-79855518D01*
X59039502Y-79735820D01*
X58980537Y-79625506D01*
X58901185Y-79528815D01*
X58804494Y-79449463D01*
X58694180Y-79390498D01*
X58574482Y-79354188D01*
X58450000Y-79341928D01*
X57435750Y-79345000D01*
X57277000Y-79503750D01*
X57023000Y-79503750D01*
X56864250Y-79345000D01*
X55850000Y-79341928D01*
X55725518Y-79354188D01*
X55605820Y-79390498D01*
X55495506Y-79449463D01*
X55398815Y-79528815D01*
X55319463Y-79625506D01*
X55260498Y-79735820D01*
X55224188Y-79855518D01*
X55211928Y-79980000D01*
X52197000Y-79980000D01*
X52197000Y-76627000D01*
X92365000Y-76627000D01*
X92365000Y-78127000D01*
X92430800Y-78541078D01*
X92576118Y-78934362D01*
X92795370Y-79291739D01*
X93080130Y-79599475D01*
X93419454Y-79845744D01*
X93800303Y-80021083D01*
X94041167Y-80085113D01*
X94373000Y-79972165D01*
X94373000Y-76627000D01*
X94627000Y-76627000D01*
X94627000Y-79972165D01*
X94958833Y-80085113D01*
X95199697Y-80021083D01*
X95580546Y-79845744D01*
X95919870Y-79599475D01*
X96204630Y-79291739D01*
X96423882Y-78934362D01*
X96569200Y-78541078D01*
X96635000Y-78127000D01*
X96635000Y-76627000D01*
X97365000Y-76627000D01*
X97365000Y-78127000D01*
X97430800Y-78541078D01*
X97576118Y-78934362D01*
X97795370Y-79291739D01*
X98080130Y-79599475D01*
X98419454Y-79845744D01*
X98800303Y-80021083D01*
X99041167Y-80085113D01*
X99373000Y-79972165D01*
X99373000Y-76627000D01*
X99627000Y-76627000D01*
X99627000Y-79972165D01*
X99958833Y-80085113D01*
X100199697Y-80021083D01*
X100580546Y-79845744D01*
X100919870Y-79599475D01*
X101204630Y-79291739D01*
X101423882Y-78934362D01*
X101569200Y-78541078D01*
X101635000Y-78127000D01*
X101635000Y-76627000D01*
X99627000Y-76627000D01*
X99373000Y-76627000D01*
X97365000Y-76627000D01*
X96635000Y-76627000D01*
X94627000Y-76627000D01*
X94373000Y-76627000D01*
X92365000Y-76627000D01*
X52197000Y-76627000D01*
X52197000Y-74873000D01*
X92365000Y-74873000D01*
X92365000Y-76373000D01*
X94373000Y-76373000D01*
X94373000Y-73027835D01*
X94627000Y-73027835D01*
X94627000Y-76373000D01*
X96635000Y-76373000D01*
X96635000Y-74873000D01*
X97365000Y-74873000D01*
X97365000Y-76373000D01*
X99373000Y-76373000D01*
X99373000Y-73027835D01*
X99627000Y-73027835D01*
X99627000Y-76373000D01*
X101635000Y-76373000D01*
X101635000Y-74873000D01*
X101569200Y-74458922D01*
X101423882Y-74065638D01*
X101204630Y-73708261D01*
X100919870Y-73400525D01*
X100580546Y-73154256D01*
X100199697Y-72978917D01*
X99958833Y-72914887D01*
X99627000Y-73027835D01*
X99373000Y-73027835D01*
X99041167Y-72914887D01*
X98800303Y-72978917D01*
X98419454Y-73154256D01*
X98080130Y-73400525D01*
X97795370Y-73708261D01*
X97576118Y-74065638D01*
X97430800Y-74458922D01*
X97365000Y-74873000D01*
X96635000Y-74873000D01*
X96569200Y-74458922D01*
X96423882Y-74065638D01*
X96204630Y-73708261D01*
X95919870Y-73400525D01*
X95580546Y-73154256D01*
X95199697Y-72978917D01*
X94958833Y-72914887D01*
X94627000Y-73027835D01*
X94373000Y-73027835D01*
X94041167Y-72914887D01*
X93800303Y-72978917D01*
X93419454Y-73154256D01*
X93080130Y-73400525D01*
X92795370Y-73708261D01*
X92576118Y-74065638D01*
X92430800Y-74458922D01*
X92365000Y-74873000D01*
X52197000Y-74873000D01*
X52197000Y-73712606D01*
X53392606Y-72517000D01*
X101547394Y-72517000D01*
X102743000Y-73712606D01*
G36*
X98970197Y-94069803D02*
G01*
X98989443Y-94085597D01*
X99011399Y-94097333D01*
X99035224Y-94104560D01*
X99060000Y-94107000D01*
X101547394Y-94107000D01*
X102743000Y-95302606D01*
X102743000Y-101547394D01*
X100277394Y-104013000D01*
X94032606Y-104013000D01*
X90259803Y-100240197D01*
X90240557Y-100224403D01*
X90218601Y-100212667D01*
X90194776Y-100205440D01*
X90170000Y-100203000D01*
X85142606Y-100203000D01*
X84566606Y-99627000D01*
X92365000Y-99627000D01*
X92365000Y-101127000D01*
X92430800Y-101541078D01*
X92576118Y-101934362D01*
X92795370Y-102291739D01*
X93080130Y-102599475D01*
X93419454Y-102845744D01*
X93800303Y-103021083D01*
X94041167Y-103085113D01*
X94373000Y-102972165D01*
X94373000Y-99627000D01*
X94627000Y-99627000D01*
X94627000Y-102972165D01*
X94958833Y-103085113D01*
X95199697Y-103021083D01*
X95580546Y-102845744D01*
X95919870Y-102599475D01*
X96204630Y-102291739D01*
X96423882Y-101934362D01*
X96569200Y-101541078D01*
X96635000Y-101127000D01*
X96635000Y-99627000D01*
X97365000Y-99627000D01*
X97365000Y-101127000D01*
X97430800Y-101541078D01*
X97576118Y-101934362D01*
X97795370Y-102291739D01*
X98080130Y-102599475D01*
X98419454Y-102845744D01*
X98800303Y-103021083D01*
X99041167Y-103085113D01*
X99373000Y-102972165D01*
X99373000Y-99627000D01*
X99627000Y-99627000D01*
X99627000Y-102972165D01*
X99958833Y-103085113D01*
X100199697Y-103021083D01*
X100580546Y-102845744D01*
X100919870Y-102599475D01*
X101204630Y-102291739D01*
X101423882Y-101934362D01*
X101569200Y-101541078D01*
X101635000Y-101127000D01*
X101635000Y-99627000D01*
X99627000Y-99627000D01*
X99373000Y-99627000D01*
X97365000Y-99627000D01*
X96635000Y-99627000D01*
X94627000Y-99627000D01*
X94373000Y-99627000D01*
X92365000Y-99627000D01*
X84566606Y-99627000D01*
X83947000Y-99007394D01*
X83947000Y-97839645D01*
X84792305Y-97839645D01*
X84839886Y-98024025D01*
X84992122Y-98361653D01*
X85207301Y-98663094D01*
X85477153Y-98916763D01*
X85791309Y-99112912D01*
X86137695Y-99244004D01*
X86503000Y-99305000D01*
X87503000Y-99305000D01*
X87503000Y-97547000D01*
X87757000Y-97547000D01*
X87757000Y-99305000D01*
X88757000Y-99305000D01*
X89122305Y-99244004D01*
X89468691Y-99112912D01*
X89782847Y-98916763D01*
X90052699Y-98663094D01*
X90267878Y-98361653D01*
X90420114Y-98024025D01*
X90459087Y-97873000D01*
X92365000Y-97873000D01*
X92365000Y-99373000D01*
X94373000Y-99373000D01*
X94373000Y-96027835D01*
X94627000Y-96027835D01*
X94627000Y-99373000D01*
X96635000Y-99373000D01*
X96635000Y-97873000D01*
X97365000Y-97873000D01*
X97365000Y-99373000D01*
X99373000Y-99373000D01*
X99373000Y-96027835D01*
X99627000Y-96027835D01*
X99627000Y-99373000D01*
X101635000Y-99373000D01*
X101635000Y-97873000D01*
X101569200Y-97458922D01*
X101423882Y-97065638D01*
X101204630Y-96708261D01*
X100919870Y-96400525D01*
X100580546Y-96154256D01*
X100199697Y-95978917D01*
X99958833Y-95914887D01*
X99627000Y-96027835D01*
X99373000Y-96027835D01*
X99041167Y-95914887D01*
X98800303Y-95978917D01*
X98419454Y-96154256D01*
X98080130Y-96400525D01*
X97795370Y-96708261D01*
X97576118Y-97065638D01*
X97430800Y-97458922D01*
X97365000Y-97873000D01*
X96635000Y-97873000D01*
X96569200Y-97458922D01*
X96423882Y-97065638D01*
X96204630Y-96708261D01*
X95919870Y-96400525D01*
X95580546Y-96154256D01*
X95199697Y-95978917D01*
X94958833Y-95914887D01*
X94627000Y-96027835D01*
X94373000Y-96027835D01*
X94041167Y-95914887D01*
X93800303Y-95978917D01*
X93419454Y-96154256D01*
X93080130Y-96400525D01*
X92795370Y-96708261D01*
X92576118Y-97065638D01*
X92430800Y-97458922D01*
X92365000Y-97873000D01*
X90459087Y-97873000D01*
X90467695Y-97839645D01*
X90351572Y-97547000D01*
X87757000Y-97547000D01*
X87503000Y-97547000D01*
X84908428Y-97547000D01*
X84792305Y-97839645D01*
X83947000Y-97839645D01*
X83947000Y-97000355D01*
X84792305Y-97000355D01*
X84908428Y-97293000D01*
X87503000Y-97293000D01*
X87503000Y-95535000D01*
X87757000Y-95535000D01*
X87757000Y-97293000D01*
X90351572Y-97293000D01*
X90467695Y-97000355D01*
X90420114Y-96815975D01*
X90267878Y-96478347D01*
X90052699Y-96176906D01*
X89782847Y-95923237D01*
X89468691Y-95727088D01*
X89122305Y-95595996D01*
X88757000Y-95535000D01*
X87757000Y-95535000D01*
X87503000Y-95535000D01*
X86503000Y-95535000D01*
X86137695Y-95595996D01*
X85791309Y-95727088D01*
X85477153Y-95923237D01*
X85207301Y-96176906D01*
X84992122Y-96478347D01*
X84839886Y-96815975D01*
X84792305Y-97000355D01*
X83947000Y-97000355D01*
X83947000Y-96572606D01*
X85142606Y-95377000D01*
X90170000Y-95377000D01*
X90194776Y-95374560D01*
X90218601Y-95367333D01*
X90240557Y-95355597D01*
X90259803Y-95339803D01*
X90519606Y-95080000D01*
X93511928Y-95080000D01*
X93524188Y-95204482D01*
X93560498Y-95324180D01*
X93619463Y-95434494D01*
X93698815Y-95531185D01*
X93795506Y-95610537D01*
X93905820Y-95669502D01*
X94025518Y-95705812D01*
X94150000Y-95718072D01*
X94964250Y-95715000D01*
X95123000Y-95556250D01*
X95123000Y-94107000D01*
X95377000Y-94107000D01*
X95377000Y-95556250D01*
X95535750Y-95715000D01*
X96350000Y-95718072D01*
X96474482Y-95705812D01*
X96594180Y-95669502D01*
X96704494Y-95610537D01*
X96801185Y-95531185D01*
X96880537Y-95434494D01*
X96939502Y-95324180D01*
X96975812Y-95204482D01*
X96988072Y-95080000D01*
X96985000Y-94265750D01*
X96826250Y-94107000D01*
X95377000Y-94107000D01*
X95123000Y-94107000D01*
X93673750Y-94107000D01*
X93515000Y-94265750D01*
X93511928Y-95080000D01*
X90519606Y-95080000D01*
X92719606Y-92880000D01*
X93511928Y-92880000D01*
X93515000Y-93694250D01*
X93673750Y-93853000D01*
X95123000Y-93853000D01*
X95123000Y-92403750D01*
X95377000Y-92403750D01*
X95377000Y-93853000D01*
X96826250Y-93853000D01*
X96985000Y-93694250D01*
X96988072Y-92880000D01*
X96975812Y-92755518D01*
X96939502Y-92635820D01*
X96880537Y-92525506D01*
X96801185Y-92428815D01*
X96704494Y-92349463D01*
X96594180Y-92290498D01*
X96474482Y-92254188D01*
X96350000Y-92241928D01*
X95535750Y-92245000D01*
X95377000Y-92403750D01*
X95123000Y-92403750D01*
X94964250Y-92245000D01*
X94150000Y-92241928D01*
X94025518Y-92254188D01*
X93905820Y-92290498D01*
X93795506Y-92349463D01*
X93698815Y-92428815D01*
X93619463Y-92525506D01*
X93560498Y-92635820D01*
X93524188Y-92755518D01*
X93511928Y-92880000D01*
X92719606Y-92880000D01*
X94032606Y-91567000D01*
X96467394Y-91567000D01*
X98970197Y-94069803D01*
X98970197Y-94069803D01*
G37*
X98970197Y-94069803D02*
X98989443Y-94085597D01*
X99011399Y-94097333D01*
X99035224Y-94104560D01*
X99060000Y-94107000D01*
X101547394Y-94107000D01*
X102743000Y-95302606D01*
X102743000Y-101547394D01*
X100277394Y-104013000D01*
X94032606Y-104013000D01*
X90259803Y-100240197D01*
X90240557Y-100224403D01*
X90218601Y-100212667D01*
X90194776Y-100205440D01*
X90170000Y-100203000D01*
X85142606Y-100203000D01*
X84566606Y-99627000D01*
X92365000Y-99627000D01*
X92365000Y-101127000D01*
X92430800Y-101541078D01*
X92576118Y-101934362D01*
X92795370Y-102291739D01*
X93080130Y-102599475D01*
X93419454Y-102845744D01*
X93800303Y-103021083D01*
X94041167Y-103085113D01*
X94373000Y-102972165D01*
X94373000Y-99627000D01*
X94627000Y-99627000D01*
X94627000Y-102972165D01*
X94958833Y-103085113D01*
X95199697Y-103021083D01*
X95580546Y-102845744D01*
X95919870Y-102599475D01*
X96204630Y-102291739D01*
X96423882Y-101934362D01*
X96569200Y-101541078D01*
X96635000Y-101127000D01*
X96635000Y-99627000D01*
X97365000Y-99627000D01*
X97365000Y-101127000D01*
X97430800Y-101541078D01*
X97576118Y-101934362D01*
X97795370Y-102291739D01*
X98080130Y-102599475D01*
X98419454Y-102845744D01*
X98800303Y-103021083D01*
X99041167Y-103085113D01*
X99373000Y-102972165D01*
X99373000Y-99627000D01*
X99627000Y-99627000D01*
X99627000Y-102972165D01*
X99958833Y-103085113D01*
X100199697Y-103021083D01*
X100580546Y-102845744D01*
X100919870Y-102599475D01*
X101204630Y-102291739D01*
X101423882Y-101934362D01*
X101569200Y-101541078D01*
X101635000Y-101127000D01*
X101635000Y-99627000D01*
X99627000Y-99627000D01*
X99373000Y-99627000D01*
X97365000Y-99627000D01*
X96635000Y-99627000D01*
X94627000Y-99627000D01*
X94373000Y-99627000D01*
X92365000Y-99627000D01*
X84566606Y-99627000D01*
X83947000Y-99007394D01*
X83947000Y-97839645D01*
X84792305Y-97839645D01*
X84839886Y-98024025D01*
X84992122Y-98361653D01*
X85207301Y-98663094D01*
X85477153Y-98916763D01*
X85791309Y-99112912D01*
X86137695Y-99244004D01*
X86503000Y-99305000D01*
X87503000Y-99305000D01*
X87503000Y-97547000D01*
X87757000Y-97547000D01*
X87757000Y-99305000D01*
X88757000Y-99305000D01*
X89122305Y-99244004D01*
X89468691Y-99112912D01*
X89782847Y-98916763D01*
X90052699Y-98663094D01*
X90267878Y-98361653D01*
X90420114Y-98024025D01*
X90459087Y-97873000D01*
X92365000Y-97873000D01*
X92365000Y-99373000D01*
X94373000Y-99373000D01*
X94373000Y-96027835D01*
X94627000Y-96027835D01*
X94627000Y-99373000D01*
X96635000Y-99373000D01*
X96635000Y-97873000D01*
X97365000Y-97873000D01*
X97365000Y-99373000D01*
X99373000Y-99373000D01*
X99373000Y-96027835D01*
X99627000Y-96027835D01*
X99627000Y-99373000D01*
X101635000Y-99373000D01*
X101635000Y-97873000D01*
X101569200Y-97458922D01*
X101423882Y-97065638D01*
X101204630Y-96708261D01*
X100919870Y-96400525D01*
X100580546Y-96154256D01*
X100199697Y-95978917D01*
X99958833Y-95914887D01*
X99627000Y-96027835D01*
X99373000Y-96027835D01*
X99041167Y-95914887D01*
X98800303Y-95978917D01*
X98419454Y-96154256D01*
X98080130Y-96400525D01*
X97795370Y-96708261D01*
X97576118Y-97065638D01*
X97430800Y-97458922D01*
X97365000Y-97873000D01*
X96635000Y-97873000D01*
X96569200Y-97458922D01*
X96423882Y-97065638D01*
X96204630Y-96708261D01*
X95919870Y-96400525D01*
X95580546Y-96154256D01*
X95199697Y-95978917D01*
X94958833Y-95914887D01*
X94627000Y-96027835D01*
X94373000Y-96027835D01*
X94041167Y-95914887D01*
X93800303Y-95978917D01*
X93419454Y-96154256D01*
X93080130Y-96400525D01*
X92795370Y-96708261D01*
X92576118Y-97065638D01*
X92430800Y-97458922D01*
X92365000Y-97873000D01*
X90459087Y-97873000D01*
X90467695Y-97839645D01*
X90351572Y-97547000D01*
X87757000Y-97547000D01*
X87503000Y-97547000D01*
X84908428Y-97547000D01*
X84792305Y-97839645D01*
X83947000Y-97839645D01*
X83947000Y-97000355D01*
X84792305Y-97000355D01*
X84908428Y-97293000D01*
X87503000Y-97293000D01*
X87503000Y-95535000D01*
X87757000Y-95535000D01*
X87757000Y-97293000D01*
X90351572Y-97293000D01*
X90467695Y-97000355D01*
X90420114Y-96815975D01*
X90267878Y-96478347D01*
X90052699Y-96176906D01*
X89782847Y-95923237D01*
X89468691Y-95727088D01*
X89122305Y-95595996D01*
X88757000Y-95535000D01*
X87757000Y-95535000D01*
X87503000Y-95535000D01*
X86503000Y-95535000D01*
X86137695Y-95595996D01*
X85791309Y-95727088D01*
X85477153Y-95923237D01*
X85207301Y-96176906D01*
X84992122Y-96478347D01*
X84839886Y-96815975D01*
X84792305Y-97000355D01*
X83947000Y-97000355D01*
X83947000Y-96572606D01*
X85142606Y-95377000D01*
X90170000Y-95377000D01*
X90194776Y-95374560D01*
X90218601Y-95367333D01*
X90240557Y-95355597D01*
X90259803Y-95339803D01*
X90519606Y-95080000D01*
X93511928Y-95080000D01*
X93524188Y-95204482D01*
X93560498Y-95324180D01*
X93619463Y-95434494D01*
X93698815Y-95531185D01*
X93795506Y-95610537D01*
X93905820Y-95669502D01*
X94025518Y-95705812D01*
X94150000Y-95718072D01*
X94964250Y-95715000D01*
X95123000Y-95556250D01*
X95123000Y-94107000D01*
X95377000Y-94107000D01*
X95377000Y-95556250D01*
X95535750Y-95715000D01*
X96350000Y-95718072D01*
X96474482Y-95705812D01*
X96594180Y-95669502D01*
X96704494Y-95610537D01*
X96801185Y-95531185D01*
X96880537Y-95434494D01*
X96939502Y-95324180D01*
X96975812Y-95204482D01*
X96988072Y-95080000D01*
X96985000Y-94265750D01*
X96826250Y-94107000D01*
X95377000Y-94107000D01*
X95123000Y-94107000D01*
X93673750Y-94107000D01*
X93515000Y-94265750D01*
X93511928Y-95080000D01*
X90519606Y-95080000D01*
X92719606Y-92880000D01*
X93511928Y-92880000D01*
X93515000Y-93694250D01*
X93673750Y-93853000D01*
X95123000Y-93853000D01*
X95123000Y-92403750D01*
X95377000Y-92403750D01*
X95377000Y-93853000D01*
X96826250Y-93853000D01*
X96985000Y-93694250D01*
X96988072Y-92880000D01*
X96975812Y-92755518D01*
X96939502Y-92635820D01*
X96880537Y-92525506D01*
X96801185Y-92428815D01*
X96704494Y-92349463D01*
X96594180Y-92290498D01*
X96474482Y-92254188D01*
X96350000Y-92241928D01*
X95535750Y-92245000D01*
X95377000Y-92403750D01*
X95123000Y-92403750D01*
X94964250Y-92245000D01*
X94150000Y-92241928D01*
X94025518Y-92254188D01*
X93905820Y-92290498D01*
X93795506Y-92349463D01*
X93698815Y-92428815D01*
X93619463Y-92525506D01*
X93560498Y-92635820D01*
X93524188Y-92755518D01*
X93511928Y-92880000D01*
X92719606Y-92880000D01*
X94032606Y-91567000D01*
X96467394Y-91567000D01*
X98970197Y-94069803D01*
G36*
X84766226Y-101455832D02*
G01*
X84754188Y-101495518D01*
X84741928Y-101620000D01*
X84745000Y-102584250D01*
X84903750Y-102743000D01*
X87503000Y-102743000D01*
X87503000Y-102723000D01*
X87757000Y-102723000D01*
X87757000Y-102743000D01*
X90356250Y-102743000D01*
X90515000Y-102584250D01*
X90516460Y-102126066D01*
X91313000Y-102922606D01*
X91313000Y-106627394D01*
X88847394Y-109093000D01*
X78792606Y-109093000D01*
X77597000Y-107897394D01*
X77597000Y-107672702D01*
X80466903Y-107672702D01*
X80538486Y-107916671D01*
X80793996Y-108037571D01*
X81068184Y-108106300D01*
X81350512Y-108120217D01*
X81630130Y-108078787D01*
X81896292Y-107983603D01*
X82021514Y-107916671D01*
X82093097Y-107672702D01*
X81280000Y-106859605D01*
X80466903Y-107672702D01*
X77597000Y-107672702D01*
X77597000Y-106750512D01*
X79839783Y-106750512D01*
X79881213Y-107030130D01*
X79976397Y-107296292D01*
X80043329Y-107421514D01*
X80287298Y-107493097D01*
X81100395Y-106680000D01*
X81459605Y-106680000D01*
X82272702Y-107493097D01*
X82516671Y-107421514D01*
X82637571Y-107166004D01*
X82706300Y-106891816D01*
X82720217Y-106609488D01*
X82678787Y-106329870D01*
X82583603Y-106063708D01*
X82516671Y-105938486D01*
X82272702Y-105866903D01*
X81459605Y-106680000D01*
X81100395Y-106680000D01*
X80287298Y-105866903D01*
X80043329Y-105938486D01*
X79922429Y-106193996D01*
X79853700Y-106468184D01*
X79839783Y-106750512D01*
X77597000Y-106750512D01*
X77597000Y-105687298D01*
X80466903Y-105687298D01*
X81280000Y-106500395D01*
X82093097Y-105687298D01*
X82021514Y-105443329D01*
X81766004Y-105322429D01*
X81491816Y-105253700D01*
X81209488Y-105239783D01*
X80929870Y-105281213D01*
X80663708Y-105376397D01*
X80538486Y-105443329D01*
X80466903Y-105687298D01*
X77597000Y-105687298D01*
X77597000Y-103970000D01*
X78271928Y-103970000D01*
X78284188Y-104094482D01*
X78320498Y-104214180D01*
X78379463Y-104324494D01*
X78458815Y-104421185D01*
X78555506Y-104500537D01*
X78665820Y-104559502D01*
X78785518Y-104595812D01*
X78910000Y-104608072D01*
X79724250Y-104605000D01*
X79883000Y-104446250D01*
X79883000Y-102997000D01*
X80137000Y-102997000D01*
X80137000Y-104446250D01*
X80295750Y-104605000D01*
X81110000Y-104608072D01*
X81234482Y-104595812D01*
X81354180Y-104559502D01*
X81464494Y-104500537D01*
X81561185Y-104421185D01*
X81640537Y-104324494D01*
X81699502Y-104214180D01*
X81728071Y-104120000D01*
X84741928Y-104120000D01*
X84754188Y-104244482D01*
X84790498Y-104364180D01*
X84849463Y-104474494D01*
X84928815Y-104571185D01*
X85025506Y-104650537D01*
X85135820Y-104709502D01*
X85255518Y-104745812D01*
X85380000Y-104758072D01*
X87344250Y-104755000D01*
X87503000Y-104596250D01*
X87503000Y-102997000D01*
X87757000Y-102997000D01*
X87757000Y-104596250D01*
X87915750Y-104755000D01*
X89880000Y-104758072D01*
X90004482Y-104745812D01*
X90124180Y-104709502D01*
X90234494Y-104650537D01*
X90331185Y-104571185D01*
X90410537Y-104474494D01*
X90469502Y-104364180D01*
X90505812Y-104244482D01*
X90518072Y-104120000D01*
X90515000Y-103155750D01*
X90356250Y-102997000D01*
X87757000Y-102997000D01*
X87503000Y-102997000D01*
X84903750Y-102997000D01*
X84745000Y-103155750D01*
X84741928Y-104120000D01*
X81728071Y-104120000D01*
X81735812Y-104094482D01*
X81748072Y-103970000D01*
X81745000Y-103155750D01*
X81586250Y-102997000D01*
X80137000Y-102997000D01*
X79883000Y-102997000D01*
X78433750Y-102997000D01*
X78275000Y-103155750D01*
X78271928Y-103970000D01*
X77597000Y-103970000D01*
X77597000Y-101770000D01*
X78271928Y-101770000D01*
X78275000Y-102584250D01*
X78433750Y-102743000D01*
X79883000Y-102743000D01*
X79883000Y-101293750D01*
X80137000Y-101293750D01*
X80137000Y-102743000D01*
X81586250Y-102743000D01*
X81745000Y-102584250D01*
X81748072Y-101770000D01*
X81735812Y-101645518D01*
X81699502Y-101525820D01*
X81640537Y-101415506D01*
X81561185Y-101318815D01*
X81464494Y-101239463D01*
X81354180Y-101180498D01*
X81234482Y-101144188D01*
X81110000Y-101131928D01*
X80295750Y-101135000D01*
X80137000Y-101293750D01*
X79883000Y-101293750D01*
X79724250Y-101135000D01*
X78910000Y-101131928D01*
X78785518Y-101144188D01*
X78665820Y-101180498D01*
X78555506Y-101239463D01*
X78458815Y-101318815D01*
X78379463Y-101415506D01*
X78320498Y-101525820D01*
X78284188Y-101645518D01*
X78271928Y-101770000D01*
X77597000Y-101770000D01*
X77597000Y-101652606D01*
X78792606Y-100457000D01*
X83767394Y-100457000D01*
X84766226Y-101455832D01*
X84766226Y-101455832D01*
G37*
X84766226Y-101455832D02*
X84754188Y-101495518D01*
X84741928Y-101620000D01*
X84745000Y-102584250D01*
X84903750Y-102743000D01*
X87503000Y-102743000D01*
X87503000Y-102723000D01*
X87757000Y-102723000D01*
X87757000Y-102743000D01*
X90356250Y-102743000D01*
X90515000Y-102584250D01*
X90516460Y-102126066D01*
X91313000Y-102922606D01*
X91313000Y-106627394D01*
X88847394Y-109093000D01*
X78792606Y-109093000D01*
X77597000Y-107897394D01*
X77597000Y-107672702D01*
X80466903Y-107672702D01*
X80538486Y-107916671D01*
X80793996Y-108037571D01*
X81068184Y-108106300D01*
X81350512Y-108120217D01*
X81630130Y-108078787D01*
X81896292Y-107983603D01*
X82021514Y-107916671D01*
X82093097Y-107672702D01*
X81280000Y-106859605D01*
X80466903Y-107672702D01*
X77597000Y-107672702D01*
X77597000Y-106750512D01*
X79839783Y-106750512D01*
X79881213Y-107030130D01*
X79976397Y-107296292D01*
X80043329Y-107421514D01*
X80287298Y-107493097D01*
X81100395Y-106680000D01*
X81459605Y-106680000D01*
X82272702Y-107493097D01*
X82516671Y-107421514D01*
X82637571Y-107166004D01*
X82706300Y-106891816D01*
X82720217Y-106609488D01*
X82678787Y-106329870D01*
X82583603Y-106063708D01*
X82516671Y-105938486D01*
X82272702Y-105866903D01*
X81459605Y-106680000D01*
X81100395Y-106680000D01*
X80287298Y-105866903D01*
X80043329Y-105938486D01*
X79922429Y-106193996D01*
X79853700Y-106468184D01*
X79839783Y-106750512D01*
X77597000Y-106750512D01*
X77597000Y-105687298D01*
X80466903Y-105687298D01*
X81280000Y-106500395D01*
X82093097Y-105687298D01*
X82021514Y-105443329D01*
X81766004Y-105322429D01*
X81491816Y-105253700D01*
X81209488Y-105239783D01*
X80929870Y-105281213D01*
X80663708Y-105376397D01*
X80538486Y-105443329D01*
X80466903Y-105687298D01*
X77597000Y-105687298D01*
X77597000Y-103970000D01*
X78271928Y-103970000D01*
X78284188Y-104094482D01*
X78320498Y-104214180D01*
X78379463Y-104324494D01*
X78458815Y-104421185D01*
X78555506Y-104500537D01*
X78665820Y-104559502D01*
X78785518Y-104595812D01*
X78910000Y-104608072D01*
X79724250Y-104605000D01*
X79883000Y-104446250D01*
X79883000Y-102997000D01*
X80137000Y-102997000D01*
X80137000Y-104446250D01*
X80295750Y-104605000D01*
X81110000Y-104608072D01*
X81234482Y-104595812D01*
X81354180Y-104559502D01*
X81464494Y-104500537D01*
X81561185Y-104421185D01*
X81640537Y-104324494D01*
X81699502Y-104214180D01*
X81728071Y-104120000D01*
X84741928Y-104120000D01*
X84754188Y-104244482D01*
X84790498Y-104364180D01*
X84849463Y-104474494D01*
X84928815Y-104571185D01*
X85025506Y-104650537D01*
X85135820Y-104709502D01*
X85255518Y-104745812D01*
X85380000Y-104758072D01*
X87344250Y-104755000D01*
X87503000Y-104596250D01*
X87503000Y-102997000D01*
X87757000Y-102997000D01*
X87757000Y-104596250D01*
X87915750Y-104755000D01*
X89880000Y-104758072D01*
X90004482Y-104745812D01*
X90124180Y-104709502D01*
X90234494Y-104650537D01*
X90331185Y-104571185D01*
X90410537Y-104474494D01*
X90469502Y-104364180D01*
X90505812Y-104244482D01*
X90518072Y-104120000D01*
X90515000Y-103155750D01*
X90356250Y-102997000D01*
X87757000Y-102997000D01*
X87503000Y-102997000D01*
X84903750Y-102997000D01*
X84745000Y-103155750D01*
X84741928Y-104120000D01*
X81728071Y-104120000D01*
X81735812Y-104094482D01*
X81748072Y-103970000D01*
X81745000Y-103155750D01*
X81586250Y-102997000D01*
X80137000Y-102997000D01*
X79883000Y-102997000D01*
X78433750Y-102997000D01*
X78275000Y-103155750D01*
X78271928Y-103970000D01*
X77597000Y-103970000D01*
X77597000Y-101770000D01*
X78271928Y-101770000D01*
X78275000Y-102584250D01*
X78433750Y-102743000D01*
X79883000Y-102743000D01*
X79883000Y-101293750D01*
X80137000Y-101293750D01*
X80137000Y-102743000D01*
X81586250Y-102743000D01*
X81745000Y-102584250D01*
X81748072Y-101770000D01*
X81735812Y-101645518D01*
X81699502Y-101525820D01*
X81640537Y-101415506D01*
X81561185Y-101318815D01*
X81464494Y-101239463D01*
X81354180Y-101180498D01*
X81234482Y-101144188D01*
X81110000Y-101131928D01*
X80295750Y-101135000D01*
X80137000Y-101293750D01*
X79883000Y-101293750D01*
X79724250Y-101135000D01*
X78910000Y-101131928D01*
X78785518Y-101144188D01*
X78665820Y-101180498D01*
X78555506Y-101239463D01*
X78458815Y-101318815D01*
X78379463Y-101415506D01*
X78320498Y-101525820D01*
X78284188Y-101645518D01*
X78271928Y-101770000D01*
X77597000Y-101770000D01*
X77597000Y-101652606D01*
X78792606Y-100457000D01*
X83767394Y-100457000D01*
X84766226Y-101455832D01*
G36*
X127478724Y-52299119D02*
G01*
X130000000Y-54820395D01*
X132521276Y-52299119D01*
X132446160Y-52197000D01*
X202553840Y-52197000D01*
X202478724Y-52299119D01*
X205000000Y-54820395D01*
X205014143Y-54806253D01*
X205193748Y-54985858D01*
X205179605Y-55000000D01*
X207700881Y-57521276D01*
X208153000Y-57188707D01*
X208153000Y-142811293D01*
X207700881Y-142478724D01*
X205179605Y-145000000D01*
X205193748Y-145014143D01*
X205014143Y-145193748D01*
X205000000Y-145179605D01*
X202478724Y-147700881D01*
X202838912Y-148190548D01*
X203340992Y-148463000D01*
X131654424Y-148463000D01*
X132120670Y-148217555D01*
X132161088Y-148190548D01*
X132521276Y-147700881D01*
X130000000Y-145179605D01*
X127478724Y-147700881D01*
X127838912Y-148190548D01*
X128340992Y-148463000D01*
X56654424Y-148463000D01*
X57120670Y-148217555D01*
X57161088Y-148190548D01*
X57521276Y-147700881D01*
X55000000Y-145179605D01*
X54985858Y-145193748D01*
X54806253Y-145014143D01*
X54820395Y-145000000D01*
X55179605Y-145000000D01*
X57700881Y-147521276D01*
X58190548Y-147161088D01*
X58550849Y-146497118D01*
X58774694Y-145775615D01*
X58853480Y-145024305D01*
X58849002Y-144975695D01*
X126146520Y-144975695D01*
X126215822Y-145727938D01*
X126430548Y-146452208D01*
X126782445Y-147120670D01*
X126809452Y-147161088D01*
X127299119Y-147521276D01*
X129820395Y-145000000D01*
X130179605Y-145000000D01*
X132700881Y-147521276D01*
X133190548Y-147161088D01*
X133550849Y-146497118D01*
X133774694Y-145775615D01*
X133853480Y-145024305D01*
X133849002Y-144975695D01*
X201146520Y-144975695D01*
X201215822Y-145727938D01*
X201430548Y-146452208D01*
X201782445Y-147120670D01*
X201809452Y-147161088D01*
X202299119Y-147521276D01*
X204820395Y-145000000D01*
X202299119Y-142478724D01*
X201809452Y-142838912D01*
X201449151Y-143502882D01*
X201225306Y-144224385D01*
X201146520Y-144975695D01*
X133849002Y-144975695D01*
X133784178Y-144272062D01*
X133569452Y-143547792D01*
X133217555Y-142879330D01*
X133190548Y-142838912D01*
X132700881Y-142478724D01*
X130179605Y-145000000D01*
X129820395Y-145000000D01*
X127299119Y-142478724D01*
X126809452Y-142838912D01*
X126449151Y-143502882D01*
X126225306Y-144224385D01*
X126146520Y-144975695D01*
X58849002Y-144975695D01*
X58784178Y-144272062D01*
X58569452Y-143547792D01*
X58217555Y-142879330D01*
X58190548Y-142838912D01*
X57700881Y-142478724D01*
X55179605Y-145000000D01*
X54820395Y-145000000D01*
X52299119Y-142478724D01*
X52197000Y-142553840D01*
X52197000Y-142299119D01*
X52478724Y-142299119D01*
X55000000Y-144820395D01*
X57521276Y-142299119D01*
X127478724Y-142299119D01*
X130000000Y-144820395D01*
X132521276Y-142299119D01*
X202478724Y-142299119D01*
X205000000Y-144820395D01*
X207521276Y-142299119D01*
X207161088Y-141809452D01*
X206497118Y-141449151D01*
X205775615Y-141225306D01*
X205024305Y-141146520D01*
X204272062Y-141215822D01*
X203547792Y-141430548D01*
X202879330Y-141782445D01*
X202838912Y-141809452D01*
X202478724Y-142299119D01*
X132521276Y-142299119D01*
X132161088Y-141809452D01*
X131497118Y-141449151D01*
X130775615Y-141225306D01*
X130024305Y-141146520D01*
X129272062Y-141215822D01*
X128547792Y-141430548D01*
X127879330Y-141782445D01*
X127838912Y-141809452D01*
X127478724Y-142299119D01*
X57521276Y-142299119D01*
X57161088Y-141809452D01*
X56497118Y-141449151D01*
X55775615Y-141225306D01*
X55024305Y-141146520D01*
X54272062Y-141215822D01*
X53547792Y-141430548D01*
X52879330Y-141782445D01*
X52838912Y-141809452D01*
X52478724Y-142299119D01*
X52197000Y-142299119D01*
X52197000Y-142292606D01*
X53392606Y-141097000D01*
X102870000Y-141097000D01*
X102894776Y-141094560D01*
X102918601Y-141087333D01*
X102940557Y-141075597D01*
X102959803Y-141059803D01*
X104229803Y-139789803D01*
X104245597Y-139770557D01*
X104257333Y-139748601D01*
X104264560Y-139724776D01*
X104267000Y-139700000D01*
X104267000Y-72390000D01*
X104264560Y-72365224D01*
X104257333Y-72341399D01*
X104245597Y-72319443D01*
X104229803Y-72300197D01*
X102959803Y-71030197D01*
X102940557Y-71014403D01*
X102918601Y-71002667D01*
X102894776Y-70995440D01*
X102870000Y-70993000D01*
X53392606Y-70993000D01*
X52328830Y-69929224D01*
X55980381Y-69929224D01*
X56112317Y-70224312D01*
X56453045Y-70395159D01*
X56820557Y-70496250D01*
X57200729Y-70523701D01*
X57578951Y-70476457D01*
X57940690Y-70356333D01*
X58187683Y-70224312D01*
X58319619Y-69929224D01*
X57150000Y-68759605D01*
X55980381Y-69929224D01*
X52328830Y-69929224D01*
X52197000Y-69797394D01*
X52197000Y-68630729D01*
X55206299Y-68630729D01*
X55253543Y-69008951D01*
X55373667Y-69370690D01*
X55505688Y-69617683D01*
X55800776Y-69749619D01*
X56970395Y-68580000D01*
X57329605Y-68580000D01*
X58499224Y-69749619D01*
X58794312Y-69617683D01*
X58965159Y-69276955D01*
X59066250Y-68909443D01*
X59093701Y-68529271D01*
X59046457Y-68151049D01*
X58926333Y-67789310D01*
X58794312Y-67542317D01*
X58499224Y-67410381D01*
X57329605Y-68580000D01*
X56970395Y-68580000D01*
X55800776Y-67410381D01*
X55505688Y-67542317D01*
X55334841Y-67883045D01*
X55233750Y-68250557D01*
X55206299Y-68630729D01*
X52197000Y-68630729D01*
X52197000Y-67230776D01*
X55980381Y-67230776D01*
X57150000Y-68400395D01*
X58319619Y-67230776D01*
X58187683Y-66935688D01*
X57846955Y-66764841D01*
X57479443Y-66663750D01*
X57099271Y-66636299D01*
X56721049Y-66683543D01*
X56359310Y-66803667D01*
X56112317Y-66935688D01*
X55980381Y-67230776D01*
X52197000Y-67230776D01*
X52197000Y-64800000D01*
X55211928Y-64800000D01*
X55224188Y-64924482D01*
X55260498Y-65044180D01*
X55319463Y-65154494D01*
X55398815Y-65251185D01*
X55495506Y-65330537D01*
X55605820Y-65389502D01*
X55725518Y-65425812D01*
X55850000Y-65438072D01*
X56864250Y-65435000D01*
X57023000Y-65276250D01*
X57023000Y-63627000D01*
X57277000Y-63627000D01*
X57277000Y-65276250D01*
X57435750Y-65435000D01*
X58450000Y-65438072D01*
X58574482Y-65425812D01*
X58694180Y-65389502D01*
X58804494Y-65330537D01*
X58901185Y-65251185D01*
X58980537Y-65154494D01*
X59039502Y-65044180D01*
X59075812Y-64924482D01*
X59088072Y-64800000D01*
X59085000Y-63785750D01*
X58926250Y-63627000D01*
X57277000Y-63627000D01*
X57023000Y-63627000D01*
X55373750Y-63627000D01*
X55215000Y-63785750D01*
X55211928Y-64800000D01*
X52197000Y-64800000D01*
X52197000Y-62200000D01*
X55211928Y-62200000D01*
X55215000Y-63214250D01*
X55373750Y-63373000D01*
X57023000Y-63373000D01*
X57023000Y-61723750D01*
X57277000Y-61723750D01*
X57277000Y-63373000D01*
X58926250Y-63373000D01*
X59085000Y-63214250D01*
X59088072Y-62200000D01*
X59075812Y-62075518D01*
X59039502Y-61955820D01*
X58980537Y-61845506D01*
X58901185Y-61748815D01*
X58804494Y-61669463D01*
X58694180Y-61610498D01*
X58574482Y-61574188D01*
X58450000Y-61561928D01*
X57435750Y-61565000D01*
X57277000Y-61723750D01*
X57023000Y-61723750D01*
X56864250Y-61565000D01*
X55850000Y-61561928D01*
X55725518Y-61574188D01*
X55605820Y-61610498D01*
X55495506Y-61669463D01*
X55398815Y-61748815D01*
X55319463Y-61845506D01*
X55260498Y-61955820D01*
X55224188Y-62075518D01*
X55211928Y-62200000D01*
X52197000Y-62200000D01*
X52197000Y-57700881D01*
X52478724Y-57700881D01*
X52838912Y-58190548D01*
X53502882Y-58550849D01*
X54224385Y-58774694D01*
X54975695Y-58853480D01*
X55727938Y-58784178D01*
X56452208Y-58569452D01*
X57120670Y-58217555D01*
X57161088Y-58190548D01*
X57521276Y-57700881D01*
X127478724Y-57700881D01*
X127838912Y-58190548D01*
X128502882Y-58550849D01*
X129224385Y-58774694D01*
X129975695Y-58853480D01*
X130727938Y-58784178D01*
X131452208Y-58569452D01*
X132120670Y-58217555D01*
X132161088Y-58190548D01*
X132521276Y-57700881D01*
X202478724Y-57700881D01*
X202838912Y-58190548D01*
X203502882Y-58550849D01*
X204224385Y-58774694D01*
X204975695Y-58853480D01*
X205727938Y-58784178D01*
X206452208Y-58569452D01*
X207120670Y-58217555D01*
X207161088Y-58190548D01*
X207521276Y-57700881D01*
X205000000Y-55179605D01*
X202478724Y-57700881D01*
X132521276Y-57700881D01*
X130000000Y-55179605D01*
X127478724Y-57700881D01*
X57521276Y-57700881D01*
X55000000Y-55179605D01*
X52478724Y-57700881D01*
X52197000Y-57700881D01*
X52197000Y-57446160D01*
X52299119Y-57521276D01*
X54820395Y-55000000D01*
X55179605Y-55000000D01*
X57700881Y-57521276D01*
X58190548Y-57161088D01*
X58550849Y-56497118D01*
X58774694Y-55775615D01*
X58853480Y-55024305D01*
X58849002Y-54975695D01*
X126146520Y-54975695D01*
X126215822Y-55727938D01*
X126430548Y-56452208D01*
X126782445Y-57120670D01*
X126809452Y-57161088D01*
X127299119Y-57521276D01*
X129820395Y-55000000D01*
X130179605Y-55000000D01*
X132700881Y-57521276D01*
X133190548Y-57161088D01*
X133550849Y-56497118D01*
X133774694Y-55775615D01*
X133853480Y-55024305D01*
X133849002Y-54975695D01*
X201146520Y-54975695D01*
X201215822Y-55727938D01*
X201430548Y-56452208D01*
X201782445Y-57120670D01*
X201809452Y-57161088D01*
X202299119Y-57521276D01*
X204820395Y-55000000D01*
X202299119Y-52478724D01*
X201809452Y-52838912D01*
X201449151Y-53502882D01*
X201225306Y-54224385D01*
X201146520Y-54975695D01*
X133849002Y-54975695D01*
X133784178Y-54272062D01*
X133569452Y-53547792D01*
X133217555Y-52879330D01*
X133190548Y-52838912D01*
X132700881Y-52478724D01*
X130179605Y-55000000D01*
X129820395Y-55000000D01*
X127299119Y-52478724D01*
X126809452Y-52838912D01*
X126449151Y-53502882D01*
X126225306Y-54224385D01*
X126146520Y-54975695D01*
X58849002Y-54975695D01*
X58784178Y-54272062D01*
X58569452Y-53547792D01*
X58217555Y-52879330D01*
X58190548Y-52838912D01*
X57700881Y-52478724D01*
X55179605Y-55000000D01*
X54820395Y-55000000D01*
X54806253Y-54985858D01*
X54985858Y-54806253D01*
X55000000Y-54820395D01*
X57521276Y-52299119D01*
X57446160Y-52197000D01*
X127553840Y-52197000D01*
X127478724Y-52299119D01*
X127478724Y-52299119D01*
G37*
X127478724Y-52299119D02*
X130000000Y-54820395D01*
X132521276Y-52299119D01*
X132446160Y-52197000D01*
X202553840Y-52197000D01*
X202478724Y-52299119D01*
X205000000Y-54820395D01*
X205014143Y-54806253D01*
X205193748Y-54985858D01*
X205179605Y-55000000D01*
X207700881Y-57521276D01*
X208153000Y-57188707D01*
X208153000Y-142811293D01*
X207700881Y-142478724D01*
X205179605Y-145000000D01*
X205193748Y-145014143D01*
X205014143Y-145193748D01*
X205000000Y-145179605D01*
X202478724Y-147700881D01*
X202838912Y-148190548D01*
X203340992Y-148463000D01*
X131654424Y-148463000D01*
X132120670Y-148217555D01*
X132161088Y-148190548D01*
X132521276Y-147700881D01*
X130000000Y-145179605D01*
X127478724Y-147700881D01*
X127838912Y-148190548D01*
X128340992Y-148463000D01*
X56654424Y-148463000D01*
X57120670Y-148217555D01*
X57161088Y-148190548D01*
X57521276Y-147700881D01*
X55000000Y-145179605D01*
X54985858Y-145193748D01*
X54806253Y-145014143D01*
X54820395Y-145000000D01*
X55179605Y-145000000D01*
X57700881Y-147521276D01*
X58190548Y-147161088D01*
X58550849Y-146497118D01*
X58774694Y-145775615D01*
X58853480Y-145024305D01*
X58849002Y-144975695D01*
X126146520Y-144975695D01*
X126215822Y-145727938D01*
X126430548Y-146452208D01*
X126782445Y-147120670D01*
X126809452Y-147161088D01*
X127299119Y-147521276D01*
X129820395Y-145000000D01*
X130179605Y-145000000D01*
X132700881Y-147521276D01*
X133190548Y-147161088D01*
X133550849Y-146497118D01*
X133774694Y-145775615D01*
X133853480Y-145024305D01*
X133849002Y-144975695D01*
X201146520Y-144975695D01*
X201215822Y-145727938D01*
X201430548Y-146452208D01*
X201782445Y-147120670D01*
X201809452Y-147161088D01*
X202299119Y-147521276D01*
X204820395Y-145000000D01*
X202299119Y-142478724D01*
X201809452Y-142838912D01*
X201449151Y-143502882D01*
X201225306Y-144224385D01*
X201146520Y-144975695D01*
X133849002Y-144975695D01*
X133784178Y-144272062D01*
X133569452Y-143547792D01*
X133217555Y-142879330D01*
X133190548Y-142838912D01*
X132700881Y-142478724D01*
X130179605Y-145000000D01*
X129820395Y-145000000D01*
X127299119Y-142478724D01*
X126809452Y-142838912D01*
X126449151Y-143502882D01*
X126225306Y-144224385D01*
X126146520Y-144975695D01*
X58849002Y-144975695D01*
X58784178Y-144272062D01*
X58569452Y-143547792D01*
X58217555Y-142879330D01*
X58190548Y-142838912D01*
X57700881Y-142478724D01*
X55179605Y-145000000D01*
X54820395Y-145000000D01*
X52299119Y-142478724D01*
X52197000Y-142553840D01*
X52197000Y-142299119D01*
X52478724Y-142299119D01*
X55000000Y-144820395D01*
X57521276Y-142299119D01*
X127478724Y-142299119D01*
X130000000Y-144820395D01*
X132521276Y-142299119D01*
X202478724Y-142299119D01*
X205000000Y-144820395D01*
X207521276Y-142299119D01*
X207161088Y-141809452D01*
X206497118Y-141449151D01*
X205775615Y-141225306D01*
X205024305Y-141146520D01*
X204272062Y-141215822D01*
X203547792Y-141430548D01*
X202879330Y-141782445D01*
X202838912Y-141809452D01*
X202478724Y-142299119D01*
X132521276Y-142299119D01*
X132161088Y-141809452D01*
X131497118Y-141449151D01*
X130775615Y-141225306D01*
X130024305Y-141146520D01*
X129272062Y-141215822D01*
X128547792Y-141430548D01*
X127879330Y-141782445D01*
X127838912Y-141809452D01*
X127478724Y-142299119D01*
X57521276Y-142299119D01*
X57161088Y-141809452D01*
X56497118Y-141449151D01*
X55775615Y-141225306D01*
X55024305Y-141146520D01*
X54272062Y-141215822D01*
X53547792Y-141430548D01*
X52879330Y-141782445D01*
X52838912Y-141809452D01*
X52478724Y-142299119D01*
X52197000Y-142299119D01*
X52197000Y-142292606D01*
X53392606Y-141097000D01*
X102870000Y-141097000D01*
X102894776Y-141094560D01*
X102918601Y-141087333D01*
X102940557Y-141075597D01*
X102959803Y-141059803D01*
X104229803Y-139789803D01*
X104245597Y-139770557D01*
X104257333Y-139748601D01*
X104264560Y-139724776D01*
X104267000Y-139700000D01*
X104267000Y-72390000D01*
X104264560Y-72365224D01*
X104257333Y-72341399D01*
X104245597Y-72319443D01*
X104229803Y-72300197D01*
X102959803Y-71030197D01*
X102940557Y-71014403D01*
X102918601Y-71002667D01*
X102894776Y-70995440D01*
X102870000Y-70993000D01*
X53392606Y-70993000D01*
X52328830Y-69929224D01*
X55980381Y-69929224D01*
X56112317Y-70224312D01*
X56453045Y-70395159D01*
X56820557Y-70496250D01*
X57200729Y-70523701D01*
X57578951Y-70476457D01*
X57940690Y-70356333D01*
X58187683Y-70224312D01*
X58319619Y-69929224D01*
X57150000Y-68759605D01*
X55980381Y-69929224D01*
X52328830Y-69929224D01*
X52197000Y-69797394D01*
X52197000Y-68630729D01*
X55206299Y-68630729D01*
X55253543Y-69008951D01*
X55373667Y-69370690D01*
X55505688Y-69617683D01*
X55800776Y-69749619D01*
X56970395Y-68580000D01*
X57329605Y-68580000D01*
X58499224Y-69749619D01*
X58794312Y-69617683D01*
X58965159Y-69276955D01*
X59066250Y-68909443D01*
X59093701Y-68529271D01*
X59046457Y-68151049D01*
X58926333Y-67789310D01*
X58794312Y-67542317D01*
X58499224Y-67410381D01*
X57329605Y-68580000D01*
X56970395Y-68580000D01*
X55800776Y-67410381D01*
X55505688Y-67542317D01*
X55334841Y-67883045D01*
X55233750Y-68250557D01*
X55206299Y-68630729D01*
X52197000Y-68630729D01*
X52197000Y-67230776D01*
X55980381Y-67230776D01*
X57150000Y-68400395D01*
X58319619Y-67230776D01*
X58187683Y-66935688D01*
X57846955Y-66764841D01*
X57479443Y-66663750D01*
X57099271Y-66636299D01*
X56721049Y-66683543D01*
X56359310Y-66803667D01*
X56112317Y-66935688D01*
X55980381Y-67230776D01*
X52197000Y-67230776D01*
X52197000Y-64800000D01*
X55211928Y-64800000D01*
X55224188Y-64924482D01*
X55260498Y-65044180D01*
X55319463Y-65154494D01*
X55398815Y-65251185D01*
X55495506Y-65330537D01*
X55605820Y-65389502D01*
X55725518Y-65425812D01*
X55850000Y-65438072D01*
X56864250Y-65435000D01*
X57023000Y-65276250D01*
X57023000Y-63627000D01*
X57277000Y-63627000D01*
X57277000Y-65276250D01*
X57435750Y-65435000D01*
X58450000Y-65438072D01*
X58574482Y-65425812D01*
X58694180Y-65389502D01*
X58804494Y-65330537D01*
X58901185Y-65251185D01*
X58980537Y-65154494D01*
X59039502Y-65044180D01*
X59075812Y-64924482D01*
X59088072Y-64800000D01*
X59085000Y-63785750D01*
X58926250Y-63627000D01*
X57277000Y-63627000D01*
X57023000Y-63627000D01*
X55373750Y-63627000D01*
X55215000Y-63785750D01*
X55211928Y-64800000D01*
X52197000Y-64800000D01*
X52197000Y-62200000D01*
X55211928Y-62200000D01*
X55215000Y-63214250D01*
X55373750Y-63373000D01*
X57023000Y-63373000D01*
X57023000Y-61723750D01*
X57277000Y-61723750D01*
X57277000Y-63373000D01*
X58926250Y-63373000D01*
X59085000Y-63214250D01*
X59088072Y-62200000D01*
X59075812Y-62075518D01*
X59039502Y-61955820D01*
X58980537Y-61845506D01*
X58901185Y-61748815D01*
X58804494Y-61669463D01*
X58694180Y-61610498D01*
X58574482Y-61574188D01*
X58450000Y-61561928D01*
X57435750Y-61565000D01*
X57277000Y-61723750D01*
X57023000Y-61723750D01*
X56864250Y-61565000D01*
X55850000Y-61561928D01*
X55725518Y-61574188D01*
X55605820Y-61610498D01*
X55495506Y-61669463D01*
X55398815Y-61748815D01*
X55319463Y-61845506D01*
X55260498Y-61955820D01*
X55224188Y-62075518D01*
X55211928Y-62200000D01*
X52197000Y-62200000D01*
X52197000Y-57700881D01*
X52478724Y-57700881D01*
X52838912Y-58190548D01*
X53502882Y-58550849D01*
X54224385Y-58774694D01*
X54975695Y-58853480D01*
X55727938Y-58784178D01*
X56452208Y-58569452D01*
X57120670Y-58217555D01*
X57161088Y-58190548D01*
X57521276Y-57700881D01*
X127478724Y-57700881D01*
X127838912Y-58190548D01*
X128502882Y-58550849D01*
X129224385Y-58774694D01*
X129975695Y-58853480D01*
X130727938Y-58784178D01*
X131452208Y-58569452D01*
X132120670Y-58217555D01*
X132161088Y-58190548D01*
X132521276Y-57700881D01*
X202478724Y-57700881D01*
X202838912Y-58190548D01*
X203502882Y-58550849D01*
X204224385Y-58774694D01*
X204975695Y-58853480D01*
X205727938Y-58784178D01*
X206452208Y-58569452D01*
X207120670Y-58217555D01*
X207161088Y-58190548D01*
X207521276Y-57700881D01*
X205000000Y-55179605D01*
X202478724Y-57700881D01*
X132521276Y-57700881D01*
X130000000Y-55179605D01*
X127478724Y-57700881D01*
X57521276Y-57700881D01*
X55000000Y-55179605D01*
X52478724Y-57700881D01*
X52197000Y-57700881D01*
X52197000Y-57446160D01*
X52299119Y-57521276D01*
X54820395Y-55000000D01*
X55179605Y-55000000D01*
X57700881Y-57521276D01*
X58190548Y-57161088D01*
X58550849Y-56497118D01*
X58774694Y-55775615D01*
X58853480Y-55024305D01*
X58849002Y-54975695D01*
X126146520Y-54975695D01*
X126215822Y-55727938D01*
X126430548Y-56452208D01*
X126782445Y-57120670D01*
X126809452Y-57161088D01*
X127299119Y-57521276D01*
X129820395Y-55000000D01*
X130179605Y-55000000D01*
X132700881Y-57521276D01*
X133190548Y-57161088D01*
X133550849Y-56497118D01*
X133774694Y-55775615D01*
X133853480Y-55024305D01*
X133849002Y-54975695D01*
X201146520Y-54975695D01*
X201215822Y-55727938D01*
X201430548Y-56452208D01*
X201782445Y-57120670D01*
X201809452Y-57161088D01*
X202299119Y-57521276D01*
X204820395Y-55000000D01*
X202299119Y-52478724D01*
X201809452Y-52838912D01*
X201449151Y-53502882D01*
X201225306Y-54224385D01*
X201146520Y-54975695D01*
X133849002Y-54975695D01*
X133784178Y-54272062D01*
X133569452Y-53547792D01*
X133217555Y-52879330D01*
X133190548Y-52838912D01*
X132700881Y-52478724D01*
X130179605Y-55000000D01*
X129820395Y-55000000D01*
X127299119Y-52478724D01*
X126809452Y-52838912D01*
X126449151Y-53502882D01*
X126225306Y-54224385D01*
X126146520Y-54975695D01*
X58849002Y-54975695D01*
X58784178Y-54272062D01*
X58569452Y-53547792D01*
X58217555Y-52879330D01*
X58190548Y-52838912D01*
X57700881Y-52478724D01*
X55179605Y-55000000D01*
X54820395Y-55000000D01*
X54806253Y-54985858D01*
X54985858Y-54806253D01*
X55000000Y-54820395D01*
X57521276Y-52299119D01*
X57446160Y-52197000D01*
X127553840Y-52197000D01*
X127478724Y-52299119D01*
G36*
X90317000Y-84077000D02*
G01*
X90297000Y-84077000D01*
X90297000Y-85051250D01*
X90455750Y-85210000D01*
X91045000Y-85213072D01*
X91169482Y-85200812D01*
X91289180Y-85164502D01*
X91399494Y-85105537D01*
X91496185Y-85026185D01*
X91575537Y-84929494D01*
X91634502Y-84819180D01*
X91670812Y-84699482D01*
X91683072Y-84575000D01*
X91682574Y-84520005D01*
X91765820Y-84564502D01*
X91885518Y-84600812D01*
X92010000Y-84613072D01*
X92424250Y-84610000D01*
X92583000Y-84451250D01*
X92583000Y-83947000D01*
X92837000Y-83947000D01*
X92837000Y-84451250D01*
X92995750Y-84610000D01*
X93410000Y-84613072D01*
X93534482Y-84600812D01*
X93654180Y-84564502D01*
X93764494Y-84505537D01*
X93861185Y-84426185D01*
X93940537Y-84329494D01*
X93999502Y-84219180D01*
X94035812Y-84099482D01*
X94048072Y-83975000D01*
X94047646Y-83947000D01*
X96467394Y-83947000D01*
X97663000Y-85142606D01*
X97663000Y-88847394D01*
X96467394Y-90043000D01*
X93980000Y-90043000D01*
X93955224Y-90045440D01*
X93931399Y-90052667D01*
X93909443Y-90064403D01*
X93890197Y-90080197D01*
X90117394Y-93853000D01*
X88768978Y-93853000D01*
X89122305Y-93794004D01*
X89468691Y-93662912D01*
X89782847Y-93466763D01*
X90052699Y-93213094D01*
X90267878Y-92911653D01*
X90420114Y-92574025D01*
X90467695Y-92389645D01*
X90351572Y-92097000D01*
X87757000Y-92097000D01*
X87757000Y-92117000D01*
X87503000Y-92117000D01*
X87503000Y-92097000D01*
X84908428Y-92097000D01*
X84792305Y-92389645D01*
X84839886Y-92574025D01*
X84992122Y-92911653D01*
X85207301Y-93213094D01*
X85477153Y-93466763D01*
X85791309Y-93662912D01*
X86137695Y-93794004D01*
X86491022Y-93853000D01*
X85090000Y-93853000D01*
X85065224Y-93855440D01*
X85041399Y-93862667D01*
X85019443Y-93874403D01*
X85000197Y-93890197D01*
X82460197Y-96430197D01*
X82444403Y-96449443D01*
X82432667Y-96471399D01*
X82425440Y-96495224D01*
X82423000Y-96520000D01*
X82423000Y-97737394D01*
X81227394Y-98933000D01*
X67310000Y-98933000D01*
X67285224Y-98935440D01*
X67261399Y-98942667D01*
X67239443Y-98954403D01*
X67220197Y-98970197D01*
X64680197Y-101510197D01*
X64664403Y-101529443D01*
X64652667Y-101551399D01*
X64645440Y-101575224D01*
X64643000Y-101600000D01*
X64643000Y-106627394D01*
X63447394Y-107823000D01*
X63371313Y-107823000D01*
X63411315Y-107789437D01*
X63605969Y-107546923D01*
X63749571Y-107271094D01*
X63820563Y-107052980D01*
X63700594Y-106807000D01*
X62357000Y-106807000D01*
X62357000Y-106827000D01*
X62103000Y-106827000D01*
X62103000Y-106807000D01*
X60759406Y-106807000D01*
X60639437Y-107052980D01*
X60710429Y-107271094D01*
X60854031Y-107546923D01*
X61048685Y-107789437D01*
X61088687Y-107823000D01*
X53392606Y-107823000D01*
X52197000Y-106627394D01*
X52197000Y-105806123D01*
X52920821Y-105806123D01*
X53030558Y-106128054D01*
X53200992Y-106422391D01*
X53425573Y-106677822D01*
X53695671Y-106884531D01*
X54000906Y-107034575D01*
X54213878Y-107099175D01*
X54483000Y-106981125D01*
X54483000Y-105537000D01*
X54737000Y-105537000D01*
X54737000Y-106981125D01*
X55006122Y-107099175D01*
X55219094Y-107034575D01*
X55524329Y-106884531D01*
X55794427Y-106677822D01*
X56019008Y-106422391D01*
X56085812Y-106307020D01*
X60639437Y-106307020D01*
X60759406Y-106553000D01*
X62103000Y-106553000D01*
X62103000Y-105254430D01*
X62357000Y-105254430D01*
X62357000Y-106553000D01*
X63700594Y-106553000D01*
X63820563Y-106307020D01*
X63749571Y-106088906D01*
X63605969Y-105813077D01*
X63411315Y-105570563D01*
X63173089Y-105370684D01*
X62900446Y-105221121D01*
X62603863Y-105127622D01*
X62357000Y-105254430D01*
X62103000Y-105254430D01*
X61856137Y-105127622D01*
X61559554Y-105221121D01*
X61286911Y-105370684D01*
X61048685Y-105570563D01*
X60854031Y-105813077D01*
X60710429Y-106088906D01*
X60639437Y-106307020D01*
X56085812Y-106307020D01*
X56189442Y-106128054D01*
X56299179Y-105806123D01*
X56181600Y-105537000D01*
X54737000Y-105537000D01*
X54483000Y-105537000D01*
X53038400Y-105537000D01*
X52920821Y-105806123D01*
X52197000Y-105806123D01*
X52197000Y-105013877D01*
X52920821Y-105013877D01*
X53038400Y-105283000D01*
X54483000Y-105283000D01*
X54483000Y-103838875D01*
X54737000Y-103838875D01*
X54737000Y-105283000D01*
X56181600Y-105283000D01*
X56299179Y-105013877D01*
X56189442Y-104691946D01*
X56019008Y-104397609D01*
X55794427Y-104142178D01*
X55524329Y-103935469D01*
X55219094Y-103785425D01*
X55006122Y-103720825D01*
X54737000Y-103838875D01*
X54483000Y-103838875D01*
X54213878Y-103720825D01*
X54000906Y-103785425D01*
X53695671Y-103935469D01*
X53425573Y-104142178D01*
X53200992Y-104397609D01*
X53030558Y-104691946D01*
X52920821Y-105013877D01*
X52197000Y-105013877D01*
X52197000Y-95646123D01*
X78320821Y-95646123D01*
X78430558Y-95968054D01*
X78600992Y-96262391D01*
X78825573Y-96517822D01*
X79095671Y-96724531D01*
X79400906Y-96874575D01*
X79613878Y-96939175D01*
X79883000Y-96821125D01*
X79883000Y-95377000D01*
X80137000Y-95377000D01*
X80137000Y-96821125D01*
X80406122Y-96939175D01*
X80619094Y-96874575D01*
X80924329Y-96724531D01*
X81194427Y-96517822D01*
X81419008Y-96262391D01*
X81589442Y-95968054D01*
X81699179Y-95646123D01*
X81581600Y-95377000D01*
X80137000Y-95377000D01*
X79883000Y-95377000D01*
X78438400Y-95377000D01*
X78320821Y-95646123D01*
X52197000Y-95646123D01*
X52197000Y-94853877D01*
X78320821Y-94853877D01*
X78438400Y-95123000D01*
X79883000Y-95123000D01*
X79883000Y-93678875D01*
X80137000Y-93678875D01*
X80137000Y-95123000D01*
X81581600Y-95123000D01*
X81699179Y-94853877D01*
X81589442Y-94531946D01*
X81419008Y-94237609D01*
X81194427Y-93982178D01*
X80924329Y-93775469D01*
X80619094Y-93625425D01*
X80406122Y-93560825D01*
X80137000Y-93678875D01*
X79883000Y-93678875D01*
X79613878Y-93560825D01*
X79400906Y-93625425D01*
X79095671Y-93775469D01*
X78825573Y-93982178D01*
X78600992Y-94237609D01*
X78430558Y-94531946D01*
X78320821Y-94853877D01*
X52197000Y-94853877D01*
X52197000Y-91550355D01*
X84792305Y-91550355D01*
X84908428Y-91843000D01*
X87503000Y-91843000D01*
X87503000Y-90085000D01*
X87757000Y-90085000D01*
X87757000Y-91843000D01*
X90351572Y-91843000D01*
X90467695Y-91550355D01*
X90420114Y-91365975D01*
X90267878Y-91028347D01*
X90052699Y-90726906D01*
X89782847Y-90473237D01*
X89468691Y-90277088D01*
X89122305Y-90145996D01*
X88757000Y-90085000D01*
X87757000Y-90085000D01*
X87503000Y-90085000D01*
X86503000Y-90085000D01*
X86137695Y-90145996D01*
X85791309Y-90277088D01*
X85477153Y-90473237D01*
X85207301Y-90726906D01*
X84992122Y-91028347D01*
X84839886Y-91365975D01*
X84792305Y-91550355D01*
X52197000Y-91550355D01*
X52197000Y-87709224D01*
X55980381Y-87709224D01*
X56112317Y-88004312D01*
X56453045Y-88175159D01*
X56820557Y-88276250D01*
X57200729Y-88303701D01*
X57578951Y-88256457D01*
X57940690Y-88136333D01*
X58187683Y-88004312D01*
X58319619Y-87709224D01*
X57150000Y-86539605D01*
X55980381Y-87709224D01*
X52197000Y-87709224D01*
X52197000Y-86405354D01*
X53392385Y-85217000D01*
X55741240Y-85217000D01*
X55505688Y-85322317D01*
X55334841Y-85663045D01*
X55233750Y-86030557D01*
X55206299Y-86410729D01*
X55253543Y-86788951D01*
X55373667Y-87150690D01*
X55505688Y-87397683D01*
X55800776Y-87529619D01*
X56970395Y-86360000D01*
X56956253Y-86345858D01*
X57135858Y-86166253D01*
X57150000Y-86180395D01*
X57164143Y-86166253D01*
X57343748Y-86345858D01*
X57329605Y-86360000D01*
X58499224Y-87529619D01*
X58794312Y-87397683D01*
X58965159Y-87056955D01*
X58969079Y-87042702D01*
X67766903Y-87042702D01*
X67838486Y-87286671D01*
X68093996Y-87407571D01*
X68368184Y-87476300D01*
X68650512Y-87490217D01*
X68930130Y-87448787D01*
X69196292Y-87353603D01*
X69321514Y-87286671D01*
X69325612Y-87272702D01*
X74116903Y-87272702D01*
X74188486Y-87516671D01*
X74443996Y-87637571D01*
X74718184Y-87706300D01*
X75000512Y-87720217D01*
X75280130Y-87678787D01*
X75546292Y-87583603D01*
X75671514Y-87516671D01*
X75743097Y-87272702D01*
X77926903Y-87272702D01*
X77998486Y-87516671D01*
X78253996Y-87637571D01*
X78528184Y-87706300D01*
X78810512Y-87720217D01*
X79090130Y-87678787D01*
X79356292Y-87583603D01*
X79481514Y-87516671D01*
X79553097Y-87272702D01*
X81736903Y-87272702D01*
X81808486Y-87516671D01*
X82063996Y-87637571D01*
X82338184Y-87706300D01*
X82620512Y-87720217D01*
X82900130Y-87678787D01*
X83166292Y-87583603D01*
X83291514Y-87516671D01*
X83363097Y-87272702D01*
X85546903Y-87272702D01*
X85618486Y-87516671D01*
X85873996Y-87637571D01*
X86148184Y-87706300D01*
X86430512Y-87720217D01*
X86710130Y-87678787D01*
X86976292Y-87583603D01*
X87101514Y-87516671D01*
X87173097Y-87272702D01*
X86360000Y-86459605D01*
X85546903Y-87272702D01*
X83363097Y-87272702D01*
X82550000Y-86459605D01*
X81736903Y-87272702D01*
X79553097Y-87272702D01*
X78740000Y-86459605D01*
X77926903Y-87272702D01*
X75743097Y-87272702D01*
X74930000Y-86459605D01*
X74116903Y-87272702D01*
X69325612Y-87272702D01*
X69393097Y-87042702D01*
X68580000Y-86229605D01*
X67766903Y-87042702D01*
X58969079Y-87042702D01*
X59066250Y-86689443D01*
X59093701Y-86309271D01*
X59046457Y-85931049D01*
X58926333Y-85569310D01*
X58794312Y-85322317D01*
X58558760Y-85217000D01*
X67567393Y-85217000D01*
X67587296Y-85236903D01*
X67343329Y-85308486D01*
X67222429Y-85563996D01*
X67153700Y-85838184D01*
X67139783Y-86120512D01*
X67181213Y-86400130D01*
X67276397Y-86666292D01*
X67343329Y-86791514D01*
X67587298Y-86863097D01*
X68400395Y-86050000D01*
X68386253Y-86035858D01*
X68565858Y-85856253D01*
X68580000Y-85870395D01*
X68594143Y-85856253D01*
X68773748Y-86035858D01*
X68759605Y-86050000D01*
X69572702Y-86863097D01*
X69816671Y-86791514D01*
X69937571Y-86536004D01*
X69984067Y-86350512D01*
X73489783Y-86350512D01*
X73531213Y-86630130D01*
X73626397Y-86896292D01*
X73693329Y-87021514D01*
X73937298Y-87093097D01*
X74750395Y-86280000D01*
X75109605Y-86280000D01*
X75922702Y-87093097D01*
X76166671Y-87021514D01*
X76287571Y-86766004D01*
X76356300Y-86491816D01*
X76363265Y-86350512D01*
X77299783Y-86350512D01*
X77341213Y-86630130D01*
X77436397Y-86896292D01*
X77503329Y-87021514D01*
X77747298Y-87093097D01*
X78560395Y-86280000D01*
X78919605Y-86280000D01*
X79732702Y-87093097D01*
X79976671Y-87021514D01*
X80097571Y-86766004D01*
X80166300Y-86491816D01*
X80173265Y-86350512D01*
X81109783Y-86350512D01*
X81151213Y-86630130D01*
X81246397Y-86896292D01*
X81313329Y-87021514D01*
X81557298Y-87093097D01*
X82370395Y-86280000D01*
X82729605Y-86280000D01*
X83542702Y-87093097D01*
X83786671Y-87021514D01*
X83907571Y-86766004D01*
X83976300Y-86491816D01*
X83983265Y-86350512D01*
X84919783Y-86350512D01*
X84961213Y-86630130D01*
X85056397Y-86896292D01*
X85123329Y-87021514D01*
X85367298Y-87093097D01*
X86180395Y-86280000D01*
X86539605Y-86280000D01*
X87352702Y-87093097D01*
X87596671Y-87021514D01*
X87717571Y-86766004D01*
X87720047Y-86756123D01*
X93560821Y-86756123D01*
X93670558Y-87078054D01*
X93840992Y-87372391D01*
X94065573Y-87627822D01*
X94335671Y-87834531D01*
X94640906Y-87984575D01*
X94853878Y-88049175D01*
X95123000Y-87931125D01*
X95123000Y-86487000D01*
X95377000Y-86487000D01*
X95377000Y-87931125D01*
X95646122Y-88049175D01*
X95859094Y-87984575D01*
X96164329Y-87834531D01*
X96434427Y-87627822D01*
X96659008Y-87372391D01*
X96829442Y-87078054D01*
X96939179Y-86756123D01*
X96821600Y-86487000D01*
X95377000Y-86487000D01*
X95123000Y-86487000D01*
X93678400Y-86487000D01*
X93560821Y-86756123D01*
X87720047Y-86756123D01*
X87786300Y-86491816D01*
X87800217Y-86209488D01*
X87763826Y-85963877D01*
X93560821Y-85963877D01*
X93678400Y-86233000D01*
X95123000Y-86233000D01*
X95123000Y-84788875D01*
X95377000Y-84788875D01*
X95377000Y-86233000D01*
X96821600Y-86233000D01*
X96939179Y-85963877D01*
X96829442Y-85641946D01*
X96659008Y-85347609D01*
X96434427Y-85092178D01*
X96164329Y-84885469D01*
X95859094Y-84735425D01*
X95646122Y-84670825D01*
X95377000Y-84788875D01*
X95123000Y-84788875D01*
X94853878Y-84670825D01*
X94640906Y-84735425D01*
X94335671Y-84885469D01*
X94065573Y-85092178D01*
X93840992Y-85347609D01*
X93670558Y-85641946D01*
X93560821Y-85963877D01*
X87763826Y-85963877D01*
X87758787Y-85929870D01*
X87663603Y-85663708D01*
X87596671Y-85538486D01*
X87352702Y-85466903D01*
X86539605Y-86280000D01*
X86180395Y-86280000D01*
X85367298Y-85466903D01*
X85123329Y-85538486D01*
X85002429Y-85793996D01*
X84933700Y-86068184D01*
X84919783Y-86350512D01*
X83983265Y-86350512D01*
X83990217Y-86209488D01*
X83948787Y-85929870D01*
X83853603Y-85663708D01*
X83786671Y-85538486D01*
X83542702Y-85466903D01*
X82729605Y-86280000D01*
X82370395Y-86280000D01*
X81557298Y-85466903D01*
X81313329Y-85538486D01*
X81192429Y-85793996D01*
X81123700Y-86068184D01*
X81109783Y-86350512D01*
X80173265Y-86350512D01*
X80180217Y-86209488D01*
X80138787Y-85929870D01*
X80043603Y-85663708D01*
X79976671Y-85538486D01*
X79732702Y-85466903D01*
X78919605Y-86280000D01*
X78560395Y-86280000D01*
X77747298Y-85466903D01*
X77503329Y-85538486D01*
X77382429Y-85793996D01*
X77313700Y-86068184D01*
X77299783Y-86350512D01*
X76363265Y-86350512D01*
X76370217Y-86209488D01*
X76328787Y-85929870D01*
X76233603Y-85663708D01*
X76166671Y-85538486D01*
X75922702Y-85466903D01*
X75109605Y-86280000D01*
X74750395Y-86280000D01*
X73937298Y-85466903D01*
X73693329Y-85538486D01*
X73572429Y-85793996D01*
X73503700Y-86068184D01*
X73489783Y-86350512D01*
X69984067Y-86350512D01*
X70006300Y-86261816D01*
X70020217Y-85979488D01*
X69978787Y-85699870D01*
X69883603Y-85433708D01*
X69816671Y-85308486D01*
X69572704Y-85236903D01*
X69592607Y-85217000D01*
X74137529Y-85217000D01*
X74116903Y-85287298D01*
X74930000Y-86100395D01*
X75743097Y-85287298D01*
X75722471Y-85217000D01*
X77947529Y-85217000D01*
X77926903Y-85287298D01*
X78740000Y-86100395D01*
X79553097Y-85287298D01*
X79532471Y-85217000D01*
X81757529Y-85217000D01*
X81736903Y-85287298D01*
X82550000Y-86100395D01*
X83363097Y-85287298D01*
X83342471Y-85217000D01*
X85567529Y-85217000D01*
X85546903Y-85287298D01*
X86360000Y-86100395D01*
X87173097Y-85287298D01*
X87152471Y-85217000D01*
X87630000Y-85217000D01*
X87654776Y-85214560D01*
X87678601Y-85207333D01*
X87700557Y-85195597D01*
X87719803Y-85179803D01*
X88659965Y-84239641D01*
X88656928Y-84575000D01*
X88669188Y-84699482D01*
X88705498Y-84819180D01*
X88764463Y-84929494D01*
X88843815Y-85026185D01*
X88940506Y-85105537D01*
X89050820Y-85164502D01*
X89170518Y-85200812D01*
X89295000Y-85213072D01*
X89884250Y-85210000D01*
X90043000Y-85051250D01*
X90043000Y-84077000D01*
X90023000Y-84077000D01*
X90023000Y-83947000D01*
X90317000Y-83947000D01*
X90317000Y-84077000D01*
X90317000Y-84077000D01*
G37*
X90317000Y-84077000D02*
X90297000Y-84077000D01*
X90297000Y-85051250D01*
X90455750Y-85210000D01*
X91045000Y-85213072D01*
X91169482Y-85200812D01*
X91289180Y-85164502D01*
X91399494Y-85105537D01*
X91496185Y-85026185D01*
X91575537Y-84929494D01*
X91634502Y-84819180D01*
X91670812Y-84699482D01*
X91683072Y-84575000D01*
X91682574Y-84520005D01*
X91765820Y-84564502D01*
X91885518Y-84600812D01*
X92010000Y-84613072D01*
X92424250Y-84610000D01*
X92583000Y-84451250D01*
X92583000Y-83947000D01*
X92837000Y-83947000D01*
X92837000Y-84451250D01*
X92995750Y-84610000D01*
X93410000Y-84613072D01*
X93534482Y-84600812D01*
X93654180Y-84564502D01*
X93764494Y-84505537D01*
X93861185Y-84426185D01*
X93940537Y-84329494D01*
X93999502Y-84219180D01*
X94035812Y-84099482D01*
X94048072Y-83975000D01*
X94047646Y-83947000D01*
X96467394Y-83947000D01*
X97663000Y-85142606D01*
X97663000Y-88847394D01*
X96467394Y-90043000D01*
X93980000Y-90043000D01*
X93955224Y-90045440D01*
X93931399Y-90052667D01*
X93909443Y-90064403D01*
X93890197Y-90080197D01*
X90117394Y-93853000D01*
X88768978Y-93853000D01*
X89122305Y-93794004D01*
X89468691Y-93662912D01*
X89782847Y-93466763D01*
X90052699Y-93213094D01*
X90267878Y-92911653D01*
X90420114Y-92574025D01*
X90467695Y-92389645D01*
X90351572Y-92097000D01*
X87757000Y-92097000D01*
X87757000Y-92117000D01*
X87503000Y-92117000D01*
X87503000Y-92097000D01*
X84908428Y-92097000D01*
X84792305Y-92389645D01*
X84839886Y-92574025D01*
X84992122Y-92911653D01*
X85207301Y-93213094D01*
X85477153Y-93466763D01*
X85791309Y-93662912D01*
X86137695Y-93794004D01*
X86491022Y-93853000D01*
X85090000Y-93853000D01*
X85065224Y-93855440D01*
X85041399Y-93862667D01*
X85019443Y-93874403D01*
X85000197Y-93890197D01*
X82460197Y-96430197D01*
X82444403Y-96449443D01*
X82432667Y-96471399D01*
X82425440Y-96495224D01*
X82423000Y-96520000D01*
X82423000Y-97737394D01*
X81227394Y-98933000D01*
X67310000Y-98933000D01*
X67285224Y-98935440D01*
X67261399Y-98942667D01*
X67239443Y-98954403D01*
X67220197Y-98970197D01*
X64680197Y-101510197D01*
X64664403Y-101529443D01*
X64652667Y-101551399D01*
X64645440Y-101575224D01*
X64643000Y-101600000D01*
X64643000Y-106627394D01*
X63447394Y-107823000D01*
X63371313Y-107823000D01*
X63411315Y-107789437D01*
X63605969Y-107546923D01*
X63749571Y-107271094D01*
X63820563Y-107052980D01*
X63700594Y-106807000D01*
X62357000Y-106807000D01*
X62357000Y-106827000D01*
X62103000Y-106827000D01*
X62103000Y-106807000D01*
X60759406Y-106807000D01*
X60639437Y-107052980D01*
X60710429Y-107271094D01*
X60854031Y-107546923D01*
X61048685Y-107789437D01*
X61088687Y-107823000D01*
X53392606Y-107823000D01*
X52197000Y-106627394D01*
X52197000Y-105806123D01*
X52920821Y-105806123D01*
X53030558Y-106128054D01*
X53200992Y-106422391D01*
X53425573Y-106677822D01*
X53695671Y-106884531D01*
X54000906Y-107034575D01*
X54213878Y-107099175D01*
X54483000Y-106981125D01*
X54483000Y-105537000D01*
X54737000Y-105537000D01*
X54737000Y-106981125D01*
X55006122Y-107099175D01*
X55219094Y-107034575D01*
X55524329Y-106884531D01*
X55794427Y-106677822D01*
X56019008Y-106422391D01*
X56085812Y-106307020D01*
X60639437Y-106307020D01*
X60759406Y-106553000D01*
X62103000Y-106553000D01*
X62103000Y-105254430D01*
X62357000Y-105254430D01*
X62357000Y-106553000D01*
X63700594Y-106553000D01*
X63820563Y-106307020D01*
X63749571Y-106088906D01*
X63605969Y-105813077D01*
X63411315Y-105570563D01*
X63173089Y-105370684D01*
X62900446Y-105221121D01*
X62603863Y-105127622D01*
X62357000Y-105254430D01*
X62103000Y-105254430D01*
X61856137Y-105127622D01*
X61559554Y-105221121D01*
X61286911Y-105370684D01*
X61048685Y-105570563D01*
X60854031Y-105813077D01*
X60710429Y-106088906D01*
X60639437Y-106307020D01*
X56085812Y-106307020D01*
X56189442Y-106128054D01*
X56299179Y-105806123D01*
X56181600Y-105537000D01*
X54737000Y-105537000D01*
X54483000Y-105537000D01*
X53038400Y-105537000D01*
X52920821Y-105806123D01*
X52197000Y-105806123D01*
X52197000Y-105013877D01*
X52920821Y-105013877D01*
X53038400Y-105283000D01*
X54483000Y-105283000D01*
X54483000Y-103838875D01*
X54737000Y-103838875D01*
X54737000Y-105283000D01*
X56181600Y-105283000D01*
X56299179Y-105013877D01*
X56189442Y-104691946D01*
X56019008Y-104397609D01*
X55794427Y-104142178D01*
X55524329Y-103935469D01*
X55219094Y-103785425D01*
X55006122Y-103720825D01*
X54737000Y-103838875D01*
X54483000Y-103838875D01*
X54213878Y-103720825D01*
X54000906Y-103785425D01*
X53695671Y-103935469D01*
X53425573Y-104142178D01*
X53200992Y-104397609D01*
X53030558Y-104691946D01*
X52920821Y-105013877D01*
X52197000Y-105013877D01*
X52197000Y-95646123D01*
X78320821Y-95646123D01*
X78430558Y-95968054D01*
X78600992Y-96262391D01*
X78825573Y-96517822D01*
X79095671Y-96724531D01*
X79400906Y-96874575D01*
X79613878Y-96939175D01*
X79883000Y-96821125D01*
X79883000Y-95377000D01*
X80137000Y-95377000D01*
X80137000Y-96821125D01*
X80406122Y-96939175D01*
X80619094Y-96874575D01*
X80924329Y-96724531D01*
X81194427Y-96517822D01*
X81419008Y-96262391D01*
X81589442Y-95968054D01*
X81699179Y-95646123D01*
X81581600Y-95377000D01*
X80137000Y-95377000D01*
X79883000Y-95377000D01*
X78438400Y-95377000D01*
X78320821Y-95646123D01*
X52197000Y-95646123D01*
X52197000Y-94853877D01*
X78320821Y-94853877D01*
X78438400Y-95123000D01*
X79883000Y-95123000D01*
X79883000Y-93678875D01*
X80137000Y-93678875D01*
X80137000Y-95123000D01*
X81581600Y-95123000D01*
X81699179Y-94853877D01*
X81589442Y-94531946D01*
X81419008Y-94237609D01*
X81194427Y-93982178D01*
X80924329Y-93775469D01*
X80619094Y-93625425D01*
X80406122Y-93560825D01*
X80137000Y-93678875D01*
X79883000Y-93678875D01*
X79613878Y-93560825D01*
X79400906Y-93625425D01*
X79095671Y-93775469D01*
X78825573Y-93982178D01*
X78600992Y-94237609D01*
X78430558Y-94531946D01*
X78320821Y-94853877D01*
X52197000Y-94853877D01*
X52197000Y-91550355D01*
X84792305Y-91550355D01*
X84908428Y-91843000D01*
X87503000Y-91843000D01*
X87503000Y-90085000D01*
X87757000Y-90085000D01*
X87757000Y-91843000D01*
X90351572Y-91843000D01*
X90467695Y-91550355D01*
X90420114Y-91365975D01*
X90267878Y-91028347D01*
X90052699Y-90726906D01*
X89782847Y-90473237D01*
X89468691Y-90277088D01*
X89122305Y-90145996D01*
X88757000Y-90085000D01*
X87757000Y-90085000D01*
X87503000Y-90085000D01*
X86503000Y-90085000D01*
X86137695Y-90145996D01*
X85791309Y-90277088D01*
X85477153Y-90473237D01*
X85207301Y-90726906D01*
X84992122Y-91028347D01*
X84839886Y-91365975D01*
X84792305Y-91550355D01*
X52197000Y-91550355D01*
X52197000Y-87709224D01*
X55980381Y-87709224D01*
X56112317Y-88004312D01*
X56453045Y-88175159D01*
X56820557Y-88276250D01*
X57200729Y-88303701D01*
X57578951Y-88256457D01*
X57940690Y-88136333D01*
X58187683Y-88004312D01*
X58319619Y-87709224D01*
X57150000Y-86539605D01*
X55980381Y-87709224D01*
X52197000Y-87709224D01*
X52197000Y-86405354D01*
X53392385Y-85217000D01*
X55741240Y-85217000D01*
X55505688Y-85322317D01*
X55334841Y-85663045D01*
X55233750Y-86030557D01*
X55206299Y-86410729D01*
X55253543Y-86788951D01*
X55373667Y-87150690D01*
X55505688Y-87397683D01*
X55800776Y-87529619D01*
X56970395Y-86360000D01*
X56956253Y-86345858D01*
X57135858Y-86166253D01*
X57150000Y-86180395D01*
X57164143Y-86166253D01*
X57343748Y-86345858D01*
X57329605Y-86360000D01*
X58499224Y-87529619D01*
X58794312Y-87397683D01*
X58965159Y-87056955D01*
X58969079Y-87042702D01*
X67766903Y-87042702D01*
X67838486Y-87286671D01*
X68093996Y-87407571D01*
X68368184Y-87476300D01*
X68650512Y-87490217D01*
X68930130Y-87448787D01*
X69196292Y-87353603D01*
X69321514Y-87286671D01*
X69325612Y-87272702D01*
X74116903Y-87272702D01*
X74188486Y-87516671D01*
X74443996Y-87637571D01*
X74718184Y-87706300D01*
X75000512Y-87720217D01*
X75280130Y-87678787D01*
X75546292Y-87583603D01*
X75671514Y-87516671D01*
X75743097Y-87272702D01*
X77926903Y-87272702D01*
X77998486Y-87516671D01*
X78253996Y-87637571D01*
X78528184Y-87706300D01*
X78810512Y-87720217D01*
X79090130Y-87678787D01*
X79356292Y-87583603D01*
X79481514Y-87516671D01*
X79553097Y-87272702D01*
X81736903Y-87272702D01*
X81808486Y-87516671D01*
X82063996Y-87637571D01*
X82338184Y-87706300D01*
X82620512Y-87720217D01*
X82900130Y-87678787D01*
X83166292Y-87583603D01*
X83291514Y-87516671D01*
X83363097Y-87272702D01*
X85546903Y-87272702D01*
X85618486Y-87516671D01*
X85873996Y-87637571D01*
X86148184Y-87706300D01*
X86430512Y-87720217D01*
X86710130Y-87678787D01*
X86976292Y-87583603D01*
X87101514Y-87516671D01*
X87173097Y-87272702D01*
X86360000Y-86459605D01*
X85546903Y-87272702D01*
X83363097Y-87272702D01*
X82550000Y-86459605D01*
X81736903Y-87272702D01*
X79553097Y-87272702D01*
X78740000Y-86459605D01*
X77926903Y-87272702D01*
X75743097Y-87272702D01*
X74930000Y-86459605D01*
X74116903Y-87272702D01*
X69325612Y-87272702D01*
X69393097Y-87042702D01*
X68580000Y-86229605D01*
X67766903Y-87042702D01*
X58969079Y-87042702D01*
X59066250Y-86689443D01*
X59093701Y-86309271D01*
X59046457Y-85931049D01*
X58926333Y-85569310D01*
X58794312Y-85322317D01*
X58558760Y-85217000D01*
X67567393Y-85217000D01*
X67587296Y-85236903D01*
X67343329Y-85308486D01*
X67222429Y-85563996D01*
X67153700Y-85838184D01*
X67139783Y-86120512D01*
X67181213Y-86400130D01*
X67276397Y-86666292D01*
X67343329Y-86791514D01*
X67587298Y-86863097D01*
X68400395Y-86050000D01*
X68386253Y-86035858D01*
X68565858Y-85856253D01*
X68580000Y-85870395D01*
X68594143Y-85856253D01*
X68773748Y-86035858D01*
X68759605Y-86050000D01*
X69572702Y-86863097D01*
X69816671Y-86791514D01*
X69937571Y-86536004D01*
X69984067Y-86350512D01*
X73489783Y-86350512D01*
X73531213Y-86630130D01*
X73626397Y-86896292D01*
X73693329Y-87021514D01*
X73937298Y-87093097D01*
X74750395Y-86280000D01*
X75109605Y-86280000D01*
X75922702Y-87093097D01*
X76166671Y-87021514D01*
X76287571Y-86766004D01*
X76356300Y-86491816D01*
X76363265Y-86350512D01*
X77299783Y-86350512D01*
X77341213Y-86630130D01*
X77436397Y-86896292D01*
X77503329Y-87021514D01*
X77747298Y-87093097D01*
X78560395Y-86280000D01*
X78919605Y-86280000D01*
X79732702Y-87093097D01*
X79976671Y-87021514D01*
X80097571Y-86766004D01*
X80166300Y-86491816D01*
X80173265Y-86350512D01*
X81109783Y-86350512D01*
X81151213Y-86630130D01*
X81246397Y-86896292D01*
X81313329Y-87021514D01*
X81557298Y-87093097D01*
X82370395Y-86280000D01*
X82729605Y-86280000D01*
X83542702Y-87093097D01*
X83786671Y-87021514D01*
X83907571Y-86766004D01*
X83976300Y-86491816D01*
X83983265Y-86350512D01*
X84919783Y-86350512D01*
X84961213Y-86630130D01*
X85056397Y-86896292D01*
X85123329Y-87021514D01*
X85367298Y-87093097D01*
X86180395Y-86280000D01*
X86539605Y-86280000D01*
X87352702Y-87093097D01*
X87596671Y-87021514D01*
X87717571Y-86766004D01*
X87720047Y-86756123D01*
X93560821Y-86756123D01*
X93670558Y-87078054D01*
X93840992Y-87372391D01*
X94065573Y-87627822D01*
X94335671Y-87834531D01*
X94640906Y-87984575D01*
X94853878Y-88049175D01*
X95123000Y-87931125D01*
X95123000Y-86487000D01*
X95377000Y-86487000D01*
X95377000Y-87931125D01*
X95646122Y-88049175D01*
X95859094Y-87984575D01*
X96164329Y-87834531D01*
X96434427Y-87627822D01*
X96659008Y-87372391D01*
X96829442Y-87078054D01*
X96939179Y-86756123D01*
X96821600Y-86487000D01*
X95377000Y-86487000D01*
X95123000Y-86487000D01*
X93678400Y-86487000D01*
X93560821Y-86756123D01*
X87720047Y-86756123D01*
X87786300Y-86491816D01*
X87800217Y-86209488D01*
X87763826Y-85963877D01*
X93560821Y-85963877D01*
X93678400Y-86233000D01*
X95123000Y-86233000D01*
X95123000Y-84788875D01*
X95377000Y-84788875D01*
X95377000Y-86233000D01*
X96821600Y-86233000D01*
X96939179Y-85963877D01*
X96829442Y-85641946D01*
X96659008Y-85347609D01*
X96434427Y-85092178D01*
X96164329Y-84885469D01*
X95859094Y-84735425D01*
X95646122Y-84670825D01*
X95377000Y-84788875D01*
X95123000Y-84788875D01*
X94853878Y-84670825D01*
X94640906Y-84735425D01*
X94335671Y-84885469D01*
X94065573Y-85092178D01*
X93840992Y-85347609D01*
X93670558Y-85641946D01*
X93560821Y-85963877D01*
X87763826Y-85963877D01*
X87758787Y-85929870D01*
X87663603Y-85663708D01*
X87596671Y-85538486D01*
X87352702Y-85466903D01*
X86539605Y-86280000D01*
X86180395Y-86280000D01*
X85367298Y-85466903D01*
X85123329Y-85538486D01*
X85002429Y-85793996D01*
X84933700Y-86068184D01*
X84919783Y-86350512D01*
X83983265Y-86350512D01*
X83990217Y-86209488D01*
X83948787Y-85929870D01*
X83853603Y-85663708D01*
X83786671Y-85538486D01*
X83542702Y-85466903D01*
X82729605Y-86280000D01*
X82370395Y-86280000D01*
X81557298Y-85466903D01*
X81313329Y-85538486D01*
X81192429Y-85793996D01*
X81123700Y-86068184D01*
X81109783Y-86350512D01*
X80173265Y-86350512D01*
X80180217Y-86209488D01*
X80138787Y-85929870D01*
X80043603Y-85663708D01*
X79976671Y-85538486D01*
X79732702Y-85466903D01*
X78919605Y-86280000D01*
X78560395Y-86280000D01*
X77747298Y-85466903D01*
X77503329Y-85538486D01*
X77382429Y-85793996D01*
X77313700Y-86068184D01*
X77299783Y-86350512D01*
X76363265Y-86350512D01*
X76370217Y-86209488D01*
X76328787Y-85929870D01*
X76233603Y-85663708D01*
X76166671Y-85538486D01*
X75922702Y-85466903D01*
X75109605Y-86280000D01*
X74750395Y-86280000D01*
X73937298Y-85466903D01*
X73693329Y-85538486D01*
X73572429Y-85793996D01*
X73503700Y-86068184D01*
X73489783Y-86350512D01*
X69984067Y-86350512D01*
X70006300Y-86261816D01*
X70020217Y-85979488D01*
X69978787Y-85699870D01*
X69883603Y-85433708D01*
X69816671Y-85308486D01*
X69572704Y-85236903D01*
X69592607Y-85217000D01*
X74137529Y-85217000D01*
X74116903Y-85287298D01*
X74930000Y-86100395D01*
X75743097Y-85287298D01*
X75722471Y-85217000D01*
X77947529Y-85217000D01*
X77926903Y-85287298D01*
X78740000Y-86100395D01*
X79553097Y-85287298D01*
X79532471Y-85217000D01*
X81757529Y-85217000D01*
X81736903Y-85287298D01*
X82550000Y-86100395D01*
X83363097Y-85287298D01*
X83342471Y-85217000D01*
X85567529Y-85217000D01*
X85546903Y-85287298D01*
X86360000Y-86100395D01*
X87173097Y-85287298D01*
X87152471Y-85217000D01*
X87630000Y-85217000D01*
X87654776Y-85214560D01*
X87678601Y-85207333D01*
X87700557Y-85195597D01*
X87719803Y-85179803D01*
X88659965Y-84239641D01*
X88656928Y-84575000D01*
X88669188Y-84699482D01*
X88705498Y-84819180D01*
X88764463Y-84929494D01*
X88843815Y-85026185D01*
X88940506Y-85105537D01*
X89050820Y-85164502D01*
X89170518Y-85200812D01*
X89295000Y-85213072D01*
X89884250Y-85210000D01*
X90043000Y-85051250D01*
X90043000Y-84077000D01*
X90023000Y-84077000D01*
X90023000Y-83947000D01*
X90317000Y-83947000D01*
X90317000Y-84077000D01*
G36*
X76110197Y-101510197D02*
G01*
X76094403Y-101529443D01*
X76082667Y-101551399D01*
X76075440Y-101575224D01*
X76073000Y-101600000D01*
X76073000Y-107950000D01*
X76075440Y-107974776D01*
X76082667Y-107998601D01*
X76094403Y-108020557D01*
X76110197Y-108039803D01*
X78650197Y-110579803D01*
X78669443Y-110595597D01*
X78691399Y-110607333D01*
X78715224Y-110614560D01*
X78740000Y-110617000D01*
X88900000Y-110617000D01*
X88924776Y-110614560D01*
X88948601Y-110607333D01*
X88970557Y-110595597D01*
X88989803Y-110579803D01*
X94032606Y-105537000D01*
X101547394Y-105537000D01*
X102743000Y-106732606D01*
X102743000Y-138377394D01*
X101547394Y-139573000D01*
X88831801Y-139573000D01*
X90343514Y-138061288D01*
X90372511Y-138037491D01*
X90467484Y-137921766D01*
X90538056Y-137789737D01*
X90581513Y-137646476D01*
X90592510Y-137534823D01*
X90592510Y-137534822D01*
X90596187Y-137497490D01*
X90592510Y-137460157D01*
X90592510Y-115269832D01*
X90596186Y-115232509D01*
X90592510Y-115195186D01*
X90592510Y-115195177D01*
X90581513Y-115083524D01*
X90538056Y-114940263D01*
X90467484Y-114808234D01*
X90372511Y-114692509D01*
X90343513Y-114668711D01*
X89463804Y-113789002D01*
X89440001Y-113759999D01*
X89324276Y-113665026D01*
X89268072Y-113634984D01*
X89268072Y-113347500D01*
X89255812Y-113223018D01*
X89219502Y-113103320D01*
X89160537Y-112993006D01*
X89081185Y-112896315D01*
X88984494Y-112816963D01*
X88874180Y-112757998D01*
X88754482Y-112721688D01*
X88630000Y-112709428D01*
X86630000Y-112709428D01*
X86505518Y-112721688D01*
X86385820Y-112757998D01*
X86275506Y-112816963D01*
X86178815Y-112896315D01*
X86099463Y-112993006D01*
X86040498Y-113103320D01*
X86004188Y-113223018D01*
X85991928Y-113347500D01*
X85991928Y-113540000D01*
X80378072Y-113540000D01*
X80378072Y-113347500D01*
X80365812Y-113223018D01*
X80329502Y-113103320D01*
X80270537Y-112993006D01*
X80191185Y-112896315D01*
X80094494Y-112816963D01*
X79984180Y-112757998D01*
X79864482Y-112721688D01*
X79740000Y-112709428D01*
X77740000Y-112709428D01*
X77615518Y-112721688D01*
X77495820Y-112757998D01*
X77385506Y-112816963D01*
X77288815Y-112896315D01*
X77209463Y-112993006D01*
X77150498Y-113103320D01*
X77114188Y-113223018D01*
X77101928Y-113347500D01*
X77101928Y-115252500D01*
X77114188Y-115376982D01*
X77150498Y-115496680D01*
X77209463Y-115606994D01*
X77288815Y-115703685D01*
X77385506Y-115783037D01*
X77477219Y-115832059D01*
X77364031Y-115973077D01*
X77220429Y-116248906D01*
X77149437Y-116467020D01*
X77269406Y-116713000D01*
X78613000Y-116713000D01*
X78613000Y-116693000D01*
X78867000Y-116693000D01*
X78867000Y-116713000D01*
X80210594Y-116713000D01*
X80330563Y-116467020D01*
X80259571Y-116248906D01*
X80115969Y-115973077D01*
X80002781Y-115832059D01*
X80094494Y-115783037D01*
X80191185Y-115703685D01*
X80270537Y-115606994D01*
X80329502Y-115496680D01*
X80365812Y-115376982D01*
X80378072Y-115252500D01*
X80378072Y-115060000D01*
X85991928Y-115060000D01*
X85991928Y-115252500D01*
X86004188Y-115376982D01*
X86040498Y-115496680D01*
X86099463Y-115606994D01*
X86178815Y-115703685D01*
X86275506Y-115783037D01*
X86367219Y-115832059D01*
X86254031Y-115973077D01*
X86110429Y-116248906D01*
X86039437Y-116467020D01*
X86159406Y-116713000D01*
X87503000Y-116713000D01*
X87503000Y-116693000D01*
X87757000Y-116693000D01*
X87757000Y-116713000D01*
X87777000Y-116713000D01*
X87777000Y-116967000D01*
X87757000Y-116967000D01*
X87757000Y-116987000D01*
X87503000Y-116987000D01*
X87503000Y-116967000D01*
X86159406Y-116967000D01*
X86039437Y-117212980D01*
X86110429Y-117431094D01*
X86254031Y-117706923D01*
X86448685Y-117949437D01*
X86633899Y-118104837D01*
X86454537Y-118252037D01*
X86256155Y-118493765D01*
X86108745Y-118769551D01*
X86017970Y-119068796D01*
X85987319Y-119380000D01*
X86017970Y-119691204D01*
X86108745Y-119990449D01*
X86256155Y-120266235D01*
X86454537Y-120507963D01*
X86696265Y-120706345D01*
X86870001Y-120799208D01*
X86870000Y-127955198D01*
X86045199Y-128780000D01*
X81230901Y-128780000D01*
X81208932Y-128738899D01*
X81029608Y-128520392D01*
X80811101Y-128341068D01*
X80678142Y-128270000D01*
X80811101Y-128198932D01*
X81029608Y-128019608D01*
X81208932Y-127801101D01*
X81230901Y-127760000D01*
X82124082Y-127760000D01*
X82207885Y-127862115D01*
X82337725Y-127968671D01*
X82485858Y-128047850D01*
X82646592Y-128096608D01*
X82813750Y-128113072D01*
X83251250Y-128113072D01*
X83418408Y-128096608D01*
X83579142Y-128047850D01*
X83727275Y-127968671D01*
X83748930Y-127950900D01*
X83815506Y-128005537D01*
X83925820Y-128064502D01*
X84045518Y-128100812D01*
X84170000Y-128113072D01*
X84321750Y-128110000D01*
X84480500Y-127951250D01*
X84480500Y-127127000D01*
X84734500Y-127127000D01*
X84734500Y-127951250D01*
X84893250Y-128110000D01*
X85045000Y-128113072D01*
X85169482Y-128100812D01*
X85289180Y-128064502D01*
X85399494Y-128005537D01*
X85496185Y-127926185D01*
X85575537Y-127829494D01*
X85634502Y-127719180D01*
X85670812Y-127599482D01*
X85683072Y-127475000D01*
X85680000Y-127285750D01*
X85521250Y-127127000D01*
X84734500Y-127127000D01*
X84480500Y-127127000D01*
X84460500Y-127127000D01*
X84460500Y-126873000D01*
X84480500Y-126873000D01*
X84480500Y-126048750D01*
X84734500Y-126048750D01*
X84734500Y-126873000D01*
X85521250Y-126873000D01*
X85680000Y-126714250D01*
X85683072Y-126525000D01*
X85670812Y-126400518D01*
X85634502Y-126280820D01*
X85575537Y-126170506D01*
X85496185Y-126073815D01*
X85399494Y-125994463D01*
X85289180Y-125935498D01*
X85169482Y-125899188D01*
X85045000Y-125886928D01*
X84893250Y-125890000D01*
X84734500Y-126048750D01*
X84480500Y-126048750D01*
X84321750Y-125890000D01*
X84170000Y-125886928D01*
X84045518Y-125899188D01*
X83925820Y-125935498D01*
X83815506Y-125994463D01*
X83748930Y-126049100D01*
X83727275Y-126031329D01*
X83579142Y-125952150D01*
X83418408Y-125903392D01*
X83251250Y-125886928D01*
X82813750Y-125886928D01*
X82646592Y-125903392D01*
X82485858Y-125952150D01*
X82337725Y-126031329D01*
X82207885Y-126137885D01*
X82124082Y-126240000D01*
X81230901Y-126240000D01*
X81208932Y-126198899D01*
X81029608Y-125980392D01*
X80811101Y-125801068D01*
X80770000Y-125779099D01*
X80770000Y-125767322D01*
X80773676Y-125729999D01*
X80770000Y-125692676D01*
X80770000Y-125692667D01*
X80759003Y-125581014D01*
X80715546Y-125437753D01*
X80644974Y-125305724D01*
X80550001Y-125189999D01*
X80521003Y-125166201D01*
X79303804Y-123949003D01*
X79280001Y-123919999D01*
X79164276Y-123825026D01*
X79032247Y-123754454D01*
X78888986Y-123710997D01*
X78777333Y-123700000D01*
X78777322Y-123700000D01*
X78740000Y-123696324D01*
X78702678Y-123700000D01*
X78034801Y-123700000D01*
X79251004Y-122483798D01*
X79280001Y-122460001D01*
X79374974Y-122344276D01*
X79445546Y-122212247D01*
X79489003Y-122068986D01*
X79500000Y-121957333D01*
X79500000Y-121957324D01*
X79503676Y-121920001D01*
X79500000Y-121882678D01*
X79500000Y-120799208D01*
X79673735Y-120706345D01*
X79915463Y-120507963D01*
X80113845Y-120266235D01*
X80261255Y-119990449D01*
X80352030Y-119691204D01*
X80382681Y-119380000D01*
X80352030Y-119068796D01*
X80261255Y-118769551D01*
X80113845Y-118493765D01*
X79915463Y-118252037D01*
X79736101Y-118104837D01*
X79921315Y-117949437D01*
X80115969Y-117706923D01*
X80259571Y-117431094D01*
X80330563Y-117212980D01*
X80210594Y-116967000D01*
X78867000Y-116967000D01*
X78867000Y-116987000D01*
X78613000Y-116987000D01*
X78613000Y-116967000D01*
X77269406Y-116967000D01*
X77149437Y-117212980D01*
X77220429Y-117431094D01*
X77364031Y-117706923D01*
X77558685Y-117949437D01*
X77743899Y-118104837D01*
X77564537Y-118252037D01*
X77366155Y-118493765D01*
X77218745Y-118769551D01*
X77127970Y-119068796D01*
X77097319Y-119380000D01*
X77127970Y-119691204D01*
X77218745Y-119990449D01*
X77366155Y-120266235D01*
X77564537Y-120507963D01*
X77806265Y-120706345D01*
X77980000Y-120799208D01*
X77980000Y-121605198D01*
X77155199Y-122430000D01*
X71192287Y-122430000D01*
X71189502Y-122420820D01*
X71154907Y-122356098D01*
X71218215Y-122147400D01*
X71240612Y-121920000D01*
X71218215Y-121692600D01*
X71151885Y-121473940D01*
X71050895Y-121285000D01*
X71151885Y-121096060D01*
X71218215Y-120877400D01*
X71240612Y-120650000D01*
X71218215Y-120422600D01*
X71151885Y-120203940D01*
X71044171Y-120002421D01*
X70899212Y-119825788D01*
X70722579Y-119680829D01*
X70610000Y-119620654D01*
X70610000Y-117154801D01*
X72901009Y-114863794D01*
X72930001Y-114840001D01*
X72953795Y-114811008D01*
X72953799Y-114811004D01*
X73024973Y-114724277D01*
X73024974Y-114724276D01*
X73095546Y-114592247D01*
X73139003Y-114448986D01*
X73150000Y-114337333D01*
X73150000Y-114337324D01*
X73153676Y-114300001D01*
X73150000Y-114262678D01*
X73150000Y-110527322D01*
X73153676Y-110489999D01*
X73150000Y-110452676D01*
X73150000Y-110452667D01*
X73139003Y-110341014D01*
X73095546Y-110197753D01*
X73024974Y-110065724D01*
X72930001Y-109949999D01*
X72901003Y-109926201D01*
X71683804Y-108709003D01*
X71660001Y-108679999D01*
X71544276Y-108585026D01*
X71412247Y-108514454D01*
X71302656Y-108481210D01*
X71223845Y-108333765D01*
X71025463Y-108092037D01*
X70852391Y-107950000D01*
X71025463Y-107807963D01*
X71223845Y-107566235D01*
X71291319Y-107440000D01*
X72439099Y-107440000D01*
X72461068Y-107481101D01*
X72640392Y-107699608D01*
X72858899Y-107878932D01*
X73108192Y-108012182D01*
X73378691Y-108094236D01*
X73589508Y-108115000D01*
X73730492Y-108115000D01*
X73941309Y-108094236D01*
X74211808Y-108012182D01*
X74461101Y-107878932D01*
X74679608Y-107699608D01*
X74858932Y-107481101D01*
X74992182Y-107231808D01*
X75074236Y-106961309D01*
X75101943Y-106680000D01*
X75074236Y-106398691D01*
X74992182Y-106128192D01*
X74858932Y-105878899D01*
X74679608Y-105660392D01*
X74461101Y-105481068D01*
X74211808Y-105347818D01*
X73941309Y-105265764D01*
X73730492Y-105245000D01*
X73589508Y-105245000D01*
X73378691Y-105265764D01*
X73108192Y-105347818D01*
X72858899Y-105481068D01*
X72640392Y-105660392D01*
X72461068Y-105878899D01*
X72439099Y-105920000D01*
X71291319Y-105920000D01*
X71223845Y-105793765D01*
X71025463Y-105552037D01*
X70783735Y-105353655D01*
X70507949Y-105206245D01*
X70208704Y-105115470D01*
X69975486Y-105092500D01*
X69724514Y-105092500D01*
X69491296Y-105115470D01*
X69192051Y-105206245D01*
X68916265Y-105353655D01*
X68674537Y-105552037D01*
X68476155Y-105793765D01*
X68408681Y-105920000D01*
X67347322Y-105920000D01*
X67309999Y-105916324D01*
X67272676Y-105920000D01*
X67272667Y-105920000D01*
X67161014Y-105930997D01*
X67017753Y-105974454D01*
X66885724Y-106045026D01*
X66885722Y-106045027D01*
X66885723Y-106045027D01*
X66798996Y-106116201D01*
X66798992Y-106116205D01*
X66769999Y-106139999D01*
X66746205Y-106168992D01*
X64455199Y-108460000D01*
X63671319Y-108460000D01*
X63603845Y-108333765D01*
X63405463Y-108092037D01*
X63226101Y-107944837D01*
X63411315Y-107789437D01*
X63605969Y-107546923D01*
X63749571Y-107271094D01*
X63820563Y-107052980D01*
X63700595Y-106807002D01*
X63865000Y-106807002D01*
X63865000Y-106807000D01*
X64770000Y-106807000D01*
X64794776Y-106804560D01*
X64818601Y-106797333D01*
X64840557Y-106785597D01*
X64859803Y-106769803D01*
X64875597Y-106750557D01*
X64887333Y-106728601D01*
X64894560Y-106704776D01*
X64897000Y-106680000D01*
X64897000Y-101652606D01*
X67362606Y-99187000D01*
X78433394Y-99187000D01*
X76110197Y-101510197D01*
X76110197Y-101510197D01*
G37*
X76110197Y-101510197D02*
X76094403Y-101529443D01*
X76082667Y-101551399D01*
X76075440Y-101575224D01*
X76073000Y-101600000D01*
X76073000Y-107950000D01*
X76075440Y-107974776D01*
X76082667Y-107998601D01*
X76094403Y-108020557D01*
X76110197Y-108039803D01*
X78650197Y-110579803D01*
X78669443Y-110595597D01*
X78691399Y-110607333D01*
X78715224Y-110614560D01*
X78740000Y-110617000D01*
X88900000Y-110617000D01*
X88924776Y-110614560D01*
X88948601Y-110607333D01*
X88970557Y-110595597D01*
X88989803Y-110579803D01*
X94032606Y-105537000D01*
X101547394Y-105537000D01*
X102743000Y-106732606D01*
X102743000Y-138377394D01*
X101547394Y-139573000D01*
X88831801Y-139573000D01*
X90343514Y-138061288D01*
X90372511Y-138037491D01*
X90467484Y-137921766D01*
X90538056Y-137789737D01*
X90581513Y-137646476D01*
X90592510Y-137534823D01*
X90592510Y-137534822D01*
X90596187Y-137497490D01*
X90592510Y-137460157D01*
X90592510Y-115269832D01*
X90596186Y-115232509D01*
X90592510Y-115195186D01*
X90592510Y-115195177D01*
X90581513Y-115083524D01*
X90538056Y-114940263D01*
X90467484Y-114808234D01*
X90372511Y-114692509D01*
X90343513Y-114668711D01*
X89463804Y-113789002D01*
X89440001Y-113759999D01*
X89324276Y-113665026D01*
X89268072Y-113634984D01*
X89268072Y-113347500D01*
X89255812Y-113223018D01*
X89219502Y-113103320D01*
X89160537Y-112993006D01*
X89081185Y-112896315D01*
X88984494Y-112816963D01*
X88874180Y-112757998D01*
X88754482Y-112721688D01*
X88630000Y-112709428D01*
X86630000Y-112709428D01*
X86505518Y-112721688D01*
X86385820Y-112757998D01*
X86275506Y-112816963D01*
X86178815Y-112896315D01*
X86099463Y-112993006D01*
X86040498Y-113103320D01*
X86004188Y-113223018D01*
X85991928Y-113347500D01*
X85991928Y-113540000D01*
X80378072Y-113540000D01*
X80378072Y-113347500D01*
X80365812Y-113223018D01*
X80329502Y-113103320D01*
X80270537Y-112993006D01*
X80191185Y-112896315D01*
X80094494Y-112816963D01*
X79984180Y-112757998D01*
X79864482Y-112721688D01*
X79740000Y-112709428D01*
X77740000Y-112709428D01*
X77615518Y-112721688D01*
X77495820Y-112757998D01*
X77385506Y-112816963D01*
X77288815Y-112896315D01*
X77209463Y-112993006D01*
X77150498Y-113103320D01*
X77114188Y-113223018D01*
X77101928Y-113347500D01*
X77101928Y-115252500D01*
X77114188Y-115376982D01*
X77150498Y-115496680D01*
X77209463Y-115606994D01*
X77288815Y-115703685D01*
X77385506Y-115783037D01*
X77477219Y-115832059D01*
X77364031Y-115973077D01*
X77220429Y-116248906D01*
X77149437Y-116467020D01*
X77269406Y-116713000D01*
X78613000Y-116713000D01*
X78613000Y-116693000D01*
X78867000Y-116693000D01*
X78867000Y-116713000D01*
X80210594Y-116713000D01*
X80330563Y-116467020D01*
X80259571Y-116248906D01*
X80115969Y-115973077D01*
X80002781Y-115832059D01*
X80094494Y-115783037D01*
X80191185Y-115703685D01*
X80270537Y-115606994D01*
X80329502Y-115496680D01*
X80365812Y-115376982D01*
X80378072Y-115252500D01*
X80378072Y-115060000D01*
X85991928Y-115060000D01*
X85991928Y-115252500D01*
X86004188Y-115376982D01*
X86040498Y-115496680D01*
X86099463Y-115606994D01*
X86178815Y-115703685D01*
X86275506Y-115783037D01*
X86367219Y-115832059D01*
X86254031Y-115973077D01*
X86110429Y-116248906D01*
X86039437Y-116467020D01*
X86159406Y-116713000D01*
X87503000Y-116713000D01*
X87503000Y-116693000D01*
X87757000Y-116693000D01*
X87757000Y-116713000D01*
X87777000Y-116713000D01*
X87777000Y-116967000D01*
X87757000Y-116967000D01*
X87757000Y-116987000D01*
X87503000Y-116987000D01*
X87503000Y-116967000D01*
X86159406Y-116967000D01*
X86039437Y-117212980D01*
X86110429Y-117431094D01*
X86254031Y-117706923D01*
X86448685Y-117949437D01*
X86633899Y-118104837D01*
X86454537Y-118252037D01*
X86256155Y-118493765D01*
X86108745Y-118769551D01*
X86017970Y-119068796D01*
X85987319Y-119380000D01*
X86017970Y-119691204D01*
X86108745Y-119990449D01*
X86256155Y-120266235D01*
X86454537Y-120507963D01*
X86696265Y-120706345D01*
X86870001Y-120799208D01*
X86870000Y-127955198D01*
X86045199Y-128780000D01*
X81230901Y-128780000D01*
X81208932Y-128738899D01*
X81029608Y-128520392D01*
X80811101Y-128341068D01*
X80678142Y-128270000D01*
X80811101Y-128198932D01*
X81029608Y-128019608D01*
X81208932Y-127801101D01*
X81230901Y-127760000D01*
X82124082Y-127760000D01*
X82207885Y-127862115D01*
X82337725Y-127968671D01*
X82485858Y-128047850D01*
X82646592Y-128096608D01*
X82813750Y-128113072D01*
X83251250Y-128113072D01*
X83418408Y-128096608D01*
X83579142Y-128047850D01*
X83727275Y-127968671D01*
X83748930Y-127950900D01*
X83815506Y-128005537D01*
X83925820Y-128064502D01*
X84045518Y-128100812D01*
X84170000Y-128113072D01*
X84321750Y-128110000D01*
X84480500Y-127951250D01*
X84480500Y-127127000D01*
X84734500Y-127127000D01*
X84734500Y-127951250D01*
X84893250Y-128110000D01*
X85045000Y-128113072D01*
X85169482Y-128100812D01*
X85289180Y-128064502D01*
X85399494Y-128005537D01*
X85496185Y-127926185D01*
X85575537Y-127829494D01*
X85634502Y-127719180D01*
X85670812Y-127599482D01*
X85683072Y-127475000D01*
X85680000Y-127285750D01*
X85521250Y-127127000D01*
X84734500Y-127127000D01*
X84480500Y-127127000D01*
X84460500Y-127127000D01*
X84460500Y-126873000D01*
X84480500Y-126873000D01*
X84480500Y-126048750D01*
X84734500Y-126048750D01*
X84734500Y-126873000D01*
X85521250Y-126873000D01*
X85680000Y-126714250D01*
X85683072Y-126525000D01*
X85670812Y-126400518D01*
X85634502Y-126280820D01*
X85575537Y-126170506D01*
X85496185Y-126073815D01*
X85399494Y-125994463D01*
X85289180Y-125935498D01*
X85169482Y-125899188D01*
X85045000Y-125886928D01*
X84893250Y-125890000D01*
X84734500Y-126048750D01*
X84480500Y-126048750D01*
X84321750Y-125890000D01*
X84170000Y-125886928D01*
X84045518Y-125899188D01*
X83925820Y-125935498D01*
X83815506Y-125994463D01*
X83748930Y-126049100D01*
X83727275Y-126031329D01*
X83579142Y-125952150D01*
X83418408Y-125903392D01*
X83251250Y-125886928D01*
X82813750Y-125886928D01*
X82646592Y-125903392D01*
X82485858Y-125952150D01*
X82337725Y-126031329D01*
X82207885Y-126137885D01*
X82124082Y-126240000D01*
X81230901Y-126240000D01*
X81208932Y-126198899D01*
X81029608Y-125980392D01*
X80811101Y-125801068D01*
X80770000Y-125779099D01*
X80770000Y-125767322D01*
X80773676Y-125729999D01*
X80770000Y-125692676D01*
X80770000Y-125692667D01*
X80759003Y-125581014D01*
X80715546Y-125437753D01*
X80644974Y-125305724D01*
X80550001Y-125189999D01*
X80521003Y-125166201D01*
X79303804Y-123949003D01*
X79280001Y-123919999D01*
X79164276Y-123825026D01*
X79032247Y-123754454D01*
X78888986Y-123710997D01*
X78777333Y-123700000D01*
X78777322Y-123700000D01*
X78740000Y-123696324D01*
X78702678Y-123700000D01*
X78034801Y-123700000D01*
X79251004Y-122483798D01*
X79280001Y-122460001D01*
X79374974Y-122344276D01*
X79445546Y-122212247D01*
X79489003Y-122068986D01*
X79500000Y-121957333D01*
X79500000Y-121957324D01*
X79503676Y-121920001D01*
X79500000Y-121882678D01*
X79500000Y-120799208D01*
X79673735Y-120706345D01*
X79915463Y-120507963D01*
X80113845Y-120266235D01*
X80261255Y-119990449D01*
X80352030Y-119691204D01*
X80382681Y-119380000D01*
X80352030Y-119068796D01*
X80261255Y-118769551D01*
X80113845Y-118493765D01*
X79915463Y-118252037D01*
X79736101Y-118104837D01*
X79921315Y-117949437D01*
X80115969Y-117706923D01*
X80259571Y-117431094D01*
X80330563Y-117212980D01*
X80210594Y-116967000D01*
X78867000Y-116967000D01*
X78867000Y-116987000D01*
X78613000Y-116987000D01*
X78613000Y-116967000D01*
X77269406Y-116967000D01*
X77149437Y-117212980D01*
X77220429Y-117431094D01*
X77364031Y-117706923D01*
X77558685Y-117949437D01*
X77743899Y-118104837D01*
X77564537Y-118252037D01*
X77366155Y-118493765D01*
X77218745Y-118769551D01*
X77127970Y-119068796D01*
X77097319Y-119380000D01*
X77127970Y-119691204D01*
X77218745Y-119990449D01*
X77366155Y-120266235D01*
X77564537Y-120507963D01*
X77806265Y-120706345D01*
X77980000Y-120799208D01*
X77980000Y-121605198D01*
X77155199Y-122430000D01*
X71192287Y-122430000D01*
X71189502Y-122420820D01*
X71154907Y-122356098D01*
X71218215Y-122147400D01*
X71240612Y-121920000D01*
X71218215Y-121692600D01*
X71151885Y-121473940D01*
X71050895Y-121285000D01*
X71151885Y-121096060D01*
X71218215Y-120877400D01*
X71240612Y-120650000D01*
X71218215Y-120422600D01*
X71151885Y-120203940D01*
X71044171Y-120002421D01*
X70899212Y-119825788D01*
X70722579Y-119680829D01*
X70610000Y-119620654D01*
X70610000Y-117154801D01*
X72901009Y-114863794D01*
X72930001Y-114840001D01*
X72953795Y-114811008D01*
X72953799Y-114811004D01*
X73024973Y-114724277D01*
X73024974Y-114724276D01*
X73095546Y-114592247D01*
X73139003Y-114448986D01*
X73150000Y-114337333D01*
X73150000Y-114337324D01*
X73153676Y-114300001D01*
X73150000Y-114262678D01*
X73150000Y-110527322D01*
X73153676Y-110489999D01*
X73150000Y-110452676D01*
X73150000Y-110452667D01*
X73139003Y-110341014D01*
X73095546Y-110197753D01*
X73024974Y-110065724D01*
X72930001Y-109949999D01*
X72901003Y-109926201D01*
X71683804Y-108709003D01*
X71660001Y-108679999D01*
X71544276Y-108585026D01*
X71412247Y-108514454D01*
X71302656Y-108481210D01*
X71223845Y-108333765D01*
X71025463Y-108092037D01*
X70852391Y-107950000D01*
X71025463Y-107807963D01*
X71223845Y-107566235D01*
X71291319Y-107440000D01*
X72439099Y-107440000D01*
X72461068Y-107481101D01*
X72640392Y-107699608D01*
X72858899Y-107878932D01*
X73108192Y-108012182D01*
X73378691Y-108094236D01*
X73589508Y-108115000D01*
X73730492Y-108115000D01*
X73941309Y-108094236D01*
X74211808Y-108012182D01*
X74461101Y-107878932D01*
X74679608Y-107699608D01*
X74858932Y-107481101D01*
X74992182Y-107231808D01*
X75074236Y-106961309D01*
X75101943Y-106680000D01*
X75074236Y-106398691D01*
X74992182Y-106128192D01*
X74858932Y-105878899D01*
X74679608Y-105660392D01*
X74461101Y-105481068D01*
X74211808Y-105347818D01*
X73941309Y-105265764D01*
X73730492Y-105245000D01*
X73589508Y-105245000D01*
X73378691Y-105265764D01*
X73108192Y-105347818D01*
X72858899Y-105481068D01*
X72640392Y-105660392D01*
X72461068Y-105878899D01*
X72439099Y-105920000D01*
X71291319Y-105920000D01*
X71223845Y-105793765D01*
X71025463Y-105552037D01*
X70783735Y-105353655D01*
X70507949Y-105206245D01*
X70208704Y-105115470D01*
X69975486Y-105092500D01*
X69724514Y-105092500D01*
X69491296Y-105115470D01*
X69192051Y-105206245D01*
X68916265Y-105353655D01*
X68674537Y-105552037D01*
X68476155Y-105793765D01*
X68408681Y-105920000D01*
X67347322Y-105920000D01*
X67309999Y-105916324D01*
X67272676Y-105920000D01*
X67272667Y-105920000D01*
X67161014Y-105930997D01*
X67017753Y-105974454D01*
X66885724Y-106045026D01*
X66885722Y-106045027D01*
X66885723Y-106045027D01*
X66798996Y-106116201D01*
X66798992Y-106116205D01*
X66769999Y-106139999D01*
X66746205Y-106168992D01*
X64455199Y-108460000D01*
X63671319Y-108460000D01*
X63603845Y-108333765D01*
X63405463Y-108092037D01*
X63226101Y-107944837D01*
X63411315Y-107789437D01*
X63605969Y-107546923D01*
X63749571Y-107271094D01*
X63820563Y-107052980D01*
X63700595Y-106807002D01*
X63865000Y-106807002D01*
X63865000Y-106807000D01*
X64770000Y-106807000D01*
X64794776Y-106804560D01*
X64818601Y-106797333D01*
X64840557Y-106785597D01*
X64859803Y-106769803D01*
X64875597Y-106750557D01*
X64887333Y-106728601D01*
X64894560Y-106704776D01*
X64897000Y-106680000D01*
X64897000Y-101652606D01*
X67362606Y-99187000D01*
X78433394Y-99187000D01*
X76110197Y-101510197D01*
G36*
X53695671Y-106884531D02*
G01*
X54000906Y-107034575D01*
X54213878Y-107099175D01*
X54483000Y-106981125D01*
X54483000Y-106807000D01*
X54737000Y-106807000D01*
X54737000Y-106981125D01*
X55006122Y-107099175D01*
X55219094Y-107034575D01*
X55524329Y-106884531D01*
X55625636Y-106807000D01*
X60595000Y-106807000D01*
X60595000Y-106807002D01*
X60759405Y-106807002D01*
X60639437Y-107052980D01*
X60710429Y-107271094D01*
X60854031Y-107546923D01*
X61048685Y-107789437D01*
X61233899Y-107944837D01*
X61054537Y-108092037D01*
X60856155Y-108333765D01*
X60708745Y-108609551D01*
X60617970Y-108908796D01*
X60587319Y-109220000D01*
X60617970Y-109531204D01*
X60708745Y-109830449D01*
X60856155Y-110106235D01*
X60959446Y-110232095D01*
X60875506Y-110276963D01*
X60778815Y-110356315D01*
X60699463Y-110453006D01*
X60640498Y-110563320D01*
X60604188Y-110683018D01*
X60591928Y-110807500D01*
X60591928Y-111000000D01*
X58457322Y-111000000D01*
X58419999Y-110996324D01*
X58382676Y-111000000D01*
X58382667Y-111000000D01*
X58271014Y-111010997D01*
X58127753Y-111054454D01*
X57995724Y-111125026D01*
X57879999Y-111219999D01*
X57856201Y-111248997D01*
X56835199Y-112270000D01*
X56348072Y-112270000D01*
X56348072Y-111930000D01*
X56335812Y-111805518D01*
X56299502Y-111685820D01*
X56240537Y-111575506D01*
X56161185Y-111478815D01*
X56064494Y-111399463D01*
X55954180Y-111340498D01*
X55834482Y-111304188D01*
X55710000Y-111291928D01*
X53510000Y-111291928D01*
X53385518Y-111304188D01*
X53265820Y-111340498D01*
X53155506Y-111399463D01*
X53058815Y-111478815D01*
X52979463Y-111575506D01*
X52920498Y-111685820D01*
X52884188Y-111805518D01*
X52871928Y-111930000D01*
X52871928Y-114130000D01*
X52884188Y-114254482D01*
X52920498Y-114374180D01*
X52979463Y-114484494D01*
X53058815Y-114581185D01*
X53155506Y-114660537D01*
X53265820Y-114719502D01*
X53385518Y-114755812D01*
X53510000Y-114768072D01*
X55710000Y-114768072D01*
X55834482Y-114755812D01*
X55954180Y-114719502D01*
X56064494Y-114660537D01*
X56161185Y-114581185D01*
X56240537Y-114484494D01*
X56299502Y-114374180D01*
X56335812Y-114254482D01*
X56348072Y-114130000D01*
X56348072Y-113790000D01*
X57112678Y-113790000D01*
X57150000Y-113793676D01*
X57187322Y-113790000D01*
X57187333Y-113790000D01*
X57298986Y-113779003D01*
X57442247Y-113735546D01*
X57574276Y-113664974D01*
X57690001Y-113570001D01*
X57713804Y-113540997D01*
X58734802Y-112520000D01*
X60591928Y-112520000D01*
X60591928Y-112712500D01*
X60604188Y-112836982D01*
X60640498Y-112956680D01*
X60699463Y-113066994D01*
X60778815Y-113163685D01*
X60875506Y-113243037D01*
X60985820Y-113302002D01*
X61105518Y-113338312D01*
X61230000Y-113350572D01*
X61470001Y-113350572D01*
X61470000Y-115144082D01*
X61367885Y-115227885D01*
X61261329Y-115357725D01*
X61182150Y-115505858D01*
X61133392Y-115666592D01*
X61116928Y-115833750D01*
X61116928Y-116271250D01*
X61133392Y-116438408D01*
X61182150Y-116599142D01*
X61261329Y-116747275D01*
X61337426Y-116840000D01*
X61261329Y-116932725D01*
X61182150Y-117080858D01*
X61133392Y-117241592D01*
X61116928Y-117408750D01*
X61116928Y-117846250D01*
X61133392Y-118013408D01*
X61182150Y-118174142D01*
X61261329Y-118322275D01*
X61367885Y-118452115D01*
X61470001Y-118535918D01*
X61470000Y-119620654D01*
X61357421Y-119680829D01*
X61180788Y-119825788D01*
X61035829Y-120002421D01*
X60928115Y-120203940D01*
X60861785Y-120422600D01*
X60839388Y-120650000D01*
X60861785Y-120877400D01*
X60928115Y-121096060D01*
X60983913Y-121200452D01*
X60937753Y-121214454D01*
X60805724Y-121285026D01*
X60689999Y-121379999D01*
X60666196Y-121409003D01*
X60449003Y-121626196D01*
X60419999Y-121649999D01*
X60385038Y-121692600D01*
X60325026Y-121765724D01*
X60322198Y-121771015D01*
X60254454Y-121897754D01*
X60210997Y-122041015D01*
X60200000Y-122152668D01*
X60200000Y-122152678D01*
X60196324Y-122190000D01*
X60200000Y-122227323D01*
X60200001Y-123742670D01*
X60196324Y-123780002D01*
X60200001Y-123817335D01*
X60210998Y-123928988D01*
X60224180Y-123972444D01*
X60254454Y-124072248D01*
X60325026Y-124204278D01*
X60396201Y-124291004D01*
X60420000Y-124320003D01*
X60448997Y-124343801D01*
X61076203Y-124971008D01*
X61099997Y-125000001D01*
X61128990Y-125023795D01*
X61128994Y-125023799D01*
X61199683Y-125081811D01*
X61215722Y-125094974D01*
X61347751Y-125165546D01*
X61491012Y-125209003D01*
X61602665Y-125220000D01*
X61602674Y-125220000D01*
X61639997Y-125223676D01*
X61677320Y-125220000D01*
X63185199Y-125220000D01*
X63386206Y-125421007D01*
X63410009Y-125450011D01*
X63525734Y-125544984D01*
X63657763Y-125615556D01*
X63801024Y-125659013D01*
X63912677Y-125670010D01*
X63912686Y-125670010D01*
X63950009Y-125673686D01*
X63987332Y-125670010D01*
X71234839Y-125670010D01*
X71138815Y-125748815D01*
X71059463Y-125845506D01*
X71000498Y-125955820D01*
X70964188Y-126075518D01*
X70951928Y-126200000D01*
X70951928Y-126240000D01*
X60792302Y-126240000D01*
X60283072Y-125730771D01*
X60283072Y-125473750D01*
X60266608Y-125306592D01*
X60217850Y-125145858D01*
X60138671Y-124997725D01*
X60032115Y-124867885D01*
X59902275Y-124761329D01*
X59754142Y-124682150D01*
X59593408Y-124633392D01*
X59426250Y-124616928D01*
X58988750Y-124616928D01*
X58821592Y-124633392D01*
X58660858Y-124682150D01*
X58512725Y-124761329D01*
X58420000Y-124837426D01*
X58327275Y-124761329D01*
X58179142Y-124682150D01*
X58018408Y-124633392D01*
X57851250Y-124616928D01*
X57413750Y-124616928D01*
X57246592Y-124633392D01*
X57085858Y-124682150D01*
X56937725Y-124761329D01*
X56807885Y-124867885D01*
X56724082Y-124970000D01*
X55887595Y-124970000D01*
X55850706Y-124900986D01*
X55665134Y-124674866D01*
X55439014Y-124489294D01*
X55181034Y-124351401D01*
X54901111Y-124266487D01*
X54682950Y-124245000D01*
X54537050Y-124245000D01*
X54318889Y-124266487D01*
X54038966Y-124351401D01*
X53780986Y-124489294D01*
X53554866Y-124674866D01*
X53369294Y-124900986D01*
X53231401Y-125158966D01*
X53146487Y-125438889D01*
X53117815Y-125730000D01*
X53146487Y-126021111D01*
X53231401Y-126301034D01*
X53369294Y-126559014D01*
X53554866Y-126785134D01*
X53584687Y-126809607D01*
X53515820Y-126830498D01*
X53405506Y-126889463D01*
X53308815Y-126968815D01*
X53229463Y-127065506D01*
X53170498Y-127175820D01*
X53134188Y-127295518D01*
X53121928Y-127420000D01*
X53121928Y-129120000D01*
X53134188Y-129244482D01*
X53170498Y-129364180D01*
X53229463Y-129474494D01*
X53308815Y-129571185D01*
X53405506Y-129650537D01*
X53515820Y-129709502D01*
X53635518Y-129745812D01*
X53760000Y-129758072D01*
X55460000Y-129758072D01*
X55584482Y-129745812D01*
X55704180Y-129709502D01*
X55814494Y-129650537D01*
X55911185Y-129571185D01*
X55990537Y-129474494D01*
X56049502Y-129364180D01*
X56085812Y-129244482D01*
X56098072Y-129120000D01*
X56098072Y-129030000D01*
X56724082Y-129030000D01*
X56807885Y-129132115D01*
X56937725Y-129238671D01*
X57085858Y-129317850D01*
X57246592Y-129366608D01*
X57413750Y-129383072D01*
X57851250Y-129383072D01*
X58018408Y-129366608D01*
X58179142Y-129317850D01*
X58327275Y-129238671D01*
X58420000Y-129162574D01*
X58512725Y-129238671D01*
X58660858Y-129317850D01*
X58821592Y-129366608D01*
X58988750Y-129383072D01*
X59426250Y-129383072D01*
X59593408Y-129366608D01*
X59754142Y-129317850D01*
X59902275Y-129238671D01*
X60032115Y-129132115D01*
X60114928Y-129031206D01*
X60140010Y-129033676D01*
X60177332Y-129030000D01*
X60177343Y-129030000D01*
X60288996Y-129019003D01*
X60432257Y-128975546D01*
X60564286Y-128904974D01*
X60680011Y-128810001D01*
X60703813Y-128780998D01*
X61274802Y-128210010D01*
X69985209Y-128210010D01*
X70989292Y-129214094D01*
X70975764Y-129258691D01*
X70948057Y-129540000D01*
X70975764Y-129821309D01*
X71057818Y-130091808D01*
X71191068Y-130341101D01*
X71370392Y-130559608D01*
X71588899Y-130738932D01*
X71721858Y-130810000D01*
X71588899Y-130881068D01*
X71370392Y-131060392D01*
X71191068Y-131278899D01*
X71169099Y-131320000D01*
X60115918Y-131320000D01*
X60032115Y-131217885D01*
X59902275Y-131111329D01*
X59754142Y-131032150D01*
X59593408Y-130983392D01*
X59426250Y-130966928D01*
X58988750Y-130966928D01*
X58821592Y-130983392D01*
X58660858Y-131032150D01*
X58512725Y-131111329D01*
X58420000Y-131187426D01*
X58327275Y-131111329D01*
X58179142Y-131032150D01*
X58018408Y-130983392D01*
X57851250Y-130966928D01*
X57413750Y-130966928D01*
X57246592Y-130983392D01*
X57085858Y-131032150D01*
X56937725Y-131111329D01*
X56807885Y-131217885D01*
X56724082Y-131320000D01*
X56098072Y-131320000D01*
X56098072Y-131230000D01*
X56085812Y-131105518D01*
X56049502Y-130985820D01*
X55990537Y-130875506D01*
X55911185Y-130778815D01*
X55814494Y-130699463D01*
X55704180Y-130640498D01*
X55584482Y-130604188D01*
X55460000Y-130591928D01*
X53760000Y-130591928D01*
X53635518Y-130604188D01*
X53515820Y-130640498D01*
X53405506Y-130699463D01*
X53308815Y-130778815D01*
X53229463Y-130875506D01*
X53170498Y-130985820D01*
X53134188Y-131105518D01*
X53121928Y-131230000D01*
X53121928Y-132930000D01*
X53134188Y-133054482D01*
X53170498Y-133174180D01*
X53229463Y-133284494D01*
X53308815Y-133381185D01*
X53405506Y-133460537D01*
X53515820Y-133519502D01*
X53584687Y-133540393D01*
X53554866Y-133564866D01*
X53369294Y-133790986D01*
X53231401Y-134048966D01*
X53146487Y-134328889D01*
X53117815Y-134620000D01*
X53146487Y-134911111D01*
X53231401Y-135191034D01*
X53369294Y-135449014D01*
X53554866Y-135675134D01*
X53780986Y-135860706D01*
X54038966Y-135998599D01*
X54318889Y-136083513D01*
X54537050Y-136105000D01*
X54682950Y-136105000D01*
X54901111Y-136083513D01*
X55181034Y-135998599D01*
X55439014Y-135860706D01*
X55665134Y-135675134D01*
X55850706Y-135449014D01*
X55887595Y-135380000D01*
X56724082Y-135380000D01*
X56807885Y-135482115D01*
X56937725Y-135588671D01*
X57085858Y-135667850D01*
X57246592Y-135716608D01*
X57413750Y-135733072D01*
X57851250Y-135733072D01*
X58018408Y-135716608D01*
X58179142Y-135667850D01*
X58327275Y-135588671D01*
X58420000Y-135512574D01*
X58512725Y-135588671D01*
X58660858Y-135667850D01*
X58821592Y-135716608D01*
X58988750Y-135733072D01*
X59426250Y-135733072D01*
X59593408Y-135716608D01*
X59754142Y-135667850D01*
X59902275Y-135588671D01*
X60032115Y-135482115D01*
X60138671Y-135352275D01*
X60217850Y-135204142D01*
X60266608Y-135043408D01*
X60283072Y-134876250D01*
X60283072Y-134619229D01*
X61612292Y-133290010D01*
X69985209Y-133290010D01*
X70989292Y-134294094D01*
X70975764Y-134338691D01*
X70948057Y-134620000D01*
X70975764Y-134901309D01*
X71057818Y-135171808D01*
X71191068Y-135421101D01*
X71370392Y-135639608D01*
X71588899Y-135818932D01*
X71838192Y-135952182D01*
X72108691Y-136034236D01*
X72319508Y-136055000D01*
X72460492Y-136055000D01*
X72671309Y-136034236D01*
X72941808Y-135952182D01*
X73191101Y-135818932D01*
X73409608Y-135639608D01*
X73588932Y-135421101D01*
X73722182Y-135171808D01*
X73804236Y-134901309D01*
X73831943Y-134620000D01*
X73804236Y-134338691D01*
X73722182Y-134068192D01*
X73588932Y-133818899D01*
X73409608Y-133600392D01*
X73191101Y-133421068D01*
X73058142Y-133350000D01*
X73191101Y-133278932D01*
X73409608Y-133099608D01*
X73588932Y-132881101D01*
X73722182Y-132631808D01*
X73804236Y-132361309D01*
X73831943Y-132080000D01*
X73804236Y-131798691D01*
X73722182Y-131528192D01*
X73588932Y-131278899D01*
X73409608Y-131060392D01*
X73191101Y-130881068D01*
X73058142Y-130810000D01*
X73191101Y-130738932D01*
X73409608Y-130559608D01*
X73588932Y-130341101D01*
X73722182Y-130091808D01*
X73804236Y-129821309D01*
X73831943Y-129540000D01*
X73804236Y-129258691D01*
X73722182Y-128988192D01*
X73588932Y-128738899D01*
X73409608Y-128520392D01*
X73296518Y-128427581D01*
X73314482Y-128425812D01*
X73434180Y-128389502D01*
X73544494Y-128330537D01*
X73641185Y-128251185D01*
X73720537Y-128154494D01*
X73779502Y-128044180D01*
X73815812Y-127924482D01*
X73828072Y-127800000D01*
X73828072Y-126200000D01*
X73815812Y-126075518D01*
X73779502Y-125955820D01*
X73720537Y-125845506D01*
X73641185Y-125748815D01*
X73545161Y-125670010D01*
X77605209Y-125670010D01*
X77980000Y-126044802D01*
X77980001Y-133312668D01*
X77976324Y-133350000D01*
X77980001Y-133387333D01*
X77990998Y-133498986D01*
X77998401Y-133523392D01*
X78034454Y-133642246D01*
X78105026Y-133774276D01*
X78141648Y-133818899D01*
X78200000Y-133890001D01*
X78228998Y-133913799D01*
X78609292Y-134294094D01*
X78595764Y-134338691D01*
X78568057Y-134620000D01*
X78595764Y-134901309D01*
X78677818Y-135171808D01*
X78811068Y-135421101D01*
X78990392Y-135639608D01*
X79208899Y-135818932D01*
X79458192Y-135952182D01*
X79728691Y-136034236D01*
X79939508Y-136055000D01*
X80080492Y-136055000D01*
X80291309Y-136034236D01*
X80561808Y-135952182D01*
X80811101Y-135818932D01*
X81029608Y-135639608D01*
X81208932Y-135421101D01*
X81230901Y-135380000D01*
X82124082Y-135380000D01*
X82207885Y-135482115D01*
X82337725Y-135588671D01*
X82485858Y-135667850D01*
X82646592Y-135716608D01*
X82813750Y-135733072D01*
X83251250Y-135733072D01*
X83418408Y-135716608D01*
X83579142Y-135667850D01*
X83727275Y-135588671D01*
X83748930Y-135570900D01*
X83815506Y-135625537D01*
X83925820Y-135684502D01*
X84045518Y-135720812D01*
X84170000Y-135733072D01*
X84321750Y-135730000D01*
X84480500Y-135571250D01*
X84480500Y-134747000D01*
X84734500Y-134747000D01*
X84734500Y-135571250D01*
X84893250Y-135730000D01*
X85045000Y-135733072D01*
X85169482Y-135720812D01*
X85289180Y-135684502D01*
X85399494Y-135625537D01*
X85496185Y-135546185D01*
X85575537Y-135449494D01*
X85634502Y-135339180D01*
X85670812Y-135219482D01*
X85683072Y-135095000D01*
X85680000Y-134905750D01*
X85521250Y-134747000D01*
X84734500Y-134747000D01*
X84480500Y-134747000D01*
X84460500Y-134747000D01*
X84460500Y-134493000D01*
X84480500Y-134493000D01*
X84480500Y-133668750D01*
X84734500Y-133668750D01*
X84734500Y-134493000D01*
X85521250Y-134493000D01*
X85680000Y-134334250D01*
X85683072Y-134145000D01*
X85670812Y-134020518D01*
X85634502Y-133900820D01*
X85575537Y-133790506D01*
X85496185Y-133693815D01*
X85399494Y-133614463D01*
X85289180Y-133555498D01*
X85169482Y-133519188D01*
X85045000Y-133506928D01*
X84893250Y-133510000D01*
X84734500Y-133668750D01*
X84480500Y-133668750D01*
X84321750Y-133510000D01*
X84170000Y-133506928D01*
X84045518Y-133519188D01*
X83925820Y-133555498D01*
X83815506Y-133614463D01*
X83748930Y-133669100D01*
X83727275Y-133651329D01*
X83579142Y-133572150D01*
X83418408Y-133523392D01*
X83251250Y-133506928D01*
X82813750Y-133506928D01*
X82646592Y-133523392D01*
X82485858Y-133572150D01*
X82337725Y-133651329D01*
X82207885Y-133757885D01*
X82124082Y-133860000D01*
X81230901Y-133860000D01*
X81208932Y-133818899D01*
X81029608Y-133600392D01*
X80811101Y-133421068D01*
X80678142Y-133350000D01*
X80811101Y-133278932D01*
X81029608Y-133099608D01*
X81208932Y-132881101D01*
X81342182Y-132631808D01*
X81424236Y-132361309D01*
X81451943Y-132080000D01*
X81424236Y-131798691D01*
X81342182Y-131528192D01*
X81208932Y-131278899D01*
X81029608Y-131060392D01*
X80811101Y-130881068D01*
X80770000Y-130859099D01*
X80770000Y-130760901D01*
X80811101Y-130738932D01*
X81029608Y-130559608D01*
X81208932Y-130341101D01*
X81230901Y-130300000D01*
X86322678Y-130300000D01*
X86360000Y-130303676D01*
X86397322Y-130300000D01*
X86397333Y-130300000D01*
X86508986Y-130289003D01*
X86652247Y-130245546D01*
X86784276Y-130174974D01*
X86900001Y-130080001D01*
X86923804Y-130050997D01*
X88141004Y-128833798D01*
X88170001Y-128810001D01*
X88264974Y-128694276D01*
X88335546Y-128562247D01*
X88379003Y-128418986D01*
X88390000Y-128307333D01*
X88390000Y-128307324D01*
X88393676Y-128270001D01*
X88390000Y-128232678D01*
X88390000Y-120799208D01*
X88563735Y-120706345D01*
X88805463Y-120507963D01*
X89003845Y-120266235D01*
X89072511Y-120137770D01*
X89072510Y-137182688D01*
X87315199Y-138940000D01*
X53654802Y-138940000D01*
X52830000Y-138115199D01*
X52830000Y-107987322D01*
X52833676Y-107949999D01*
X52830000Y-107912676D01*
X52830000Y-107912667D01*
X52819003Y-107801014D01*
X52775546Y-107657753D01*
X52704974Y-107525724D01*
X52610001Y-107409999D01*
X52581004Y-107386202D01*
X52197000Y-107002198D01*
X52197000Y-106807000D01*
X53594364Y-106807000D01*
X53695671Y-106884531D01*
X53695671Y-106884531D01*
G37*
X53695671Y-106884531D02*
X54000906Y-107034575D01*
X54213878Y-107099175D01*
X54483000Y-106981125D01*
X54483000Y-106807000D01*
X54737000Y-106807000D01*
X54737000Y-106981125D01*
X55006122Y-107099175D01*
X55219094Y-107034575D01*
X55524329Y-106884531D01*
X55625636Y-106807000D01*
X60595000Y-106807000D01*
X60595000Y-106807002D01*
X60759405Y-106807002D01*
X60639437Y-107052980D01*
X60710429Y-107271094D01*
X60854031Y-107546923D01*
X61048685Y-107789437D01*
X61233899Y-107944837D01*
X61054537Y-108092037D01*
X60856155Y-108333765D01*
X60708745Y-108609551D01*
X60617970Y-108908796D01*
X60587319Y-109220000D01*
X60617970Y-109531204D01*
X60708745Y-109830449D01*
X60856155Y-110106235D01*
X60959446Y-110232095D01*
X60875506Y-110276963D01*
X60778815Y-110356315D01*
X60699463Y-110453006D01*
X60640498Y-110563320D01*
X60604188Y-110683018D01*
X60591928Y-110807500D01*
X60591928Y-111000000D01*
X58457322Y-111000000D01*
X58419999Y-110996324D01*
X58382676Y-111000000D01*
X58382667Y-111000000D01*
X58271014Y-111010997D01*
X58127753Y-111054454D01*
X57995724Y-111125026D01*
X57879999Y-111219999D01*
X57856201Y-111248997D01*
X56835199Y-112270000D01*
X56348072Y-112270000D01*
X56348072Y-111930000D01*
X56335812Y-111805518D01*
X56299502Y-111685820D01*
X56240537Y-111575506D01*
X56161185Y-111478815D01*
X56064494Y-111399463D01*
X55954180Y-111340498D01*
X55834482Y-111304188D01*
X55710000Y-111291928D01*
X53510000Y-111291928D01*
X53385518Y-111304188D01*
X53265820Y-111340498D01*
X53155506Y-111399463D01*
X53058815Y-111478815D01*
X52979463Y-111575506D01*
X52920498Y-111685820D01*
X52884188Y-111805518D01*
X52871928Y-111930000D01*
X52871928Y-114130000D01*
X52884188Y-114254482D01*
X52920498Y-114374180D01*
X52979463Y-114484494D01*
X53058815Y-114581185D01*
X53155506Y-114660537D01*
X53265820Y-114719502D01*
X53385518Y-114755812D01*
X53510000Y-114768072D01*
X55710000Y-114768072D01*
X55834482Y-114755812D01*
X55954180Y-114719502D01*
X56064494Y-114660537D01*
X56161185Y-114581185D01*
X56240537Y-114484494D01*
X56299502Y-114374180D01*
X56335812Y-114254482D01*
X56348072Y-114130000D01*
X56348072Y-113790000D01*
X57112678Y-113790000D01*
X57150000Y-113793676D01*
X57187322Y-113790000D01*
X57187333Y-113790000D01*
X57298986Y-113779003D01*
X57442247Y-113735546D01*
X57574276Y-113664974D01*
X57690001Y-113570001D01*
X57713804Y-113540997D01*
X58734802Y-112520000D01*
X60591928Y-112520000D01*
X60591928Y-112712500D01*
X60604188Y-112836982D01*
X60640498Y-112956680D01*
X60699463Y-113066994D01*
X60778815Y-113163685D01*
X60875506Y-113243037D01*
X60985820Y-113302002D01*
X61105518Y-113338312D01*
X61230000Y-113350572D01*
X61470001Y-113350572D01*
X61470000Y-115144082D01*
X61367885Y-115227885D01*
X61261329Y-115357725D01*
X61182150Y-115505858D01*
X61133392Y-115666592D01*
X61116928Y-115833750D01*
X61116928Y-116271250D01*
X61133392Y-116438408D01*
X61182150Y-116599142D01*
X61261329Y-116747275D01*
X61337426Y-116840000D01*
X61261329Y-116932725D01*
X61182150Y-117080858D01*
X61133392Y-117241592D01*
X61116928Y-117408750D01*
X61116928Y-117846250D01*
X61133392Y-118013408D01*
X61182150Y-118174142D01*
X61261329Y-118322275D01*
X61367885Y-118452115D01*
X61470001Y-118535918D01*
X61470000Y-119620654D01*
X61357421Y-119680829D01*
X61180788Y-119825788D01*
X61035829Y-120002421D01*
X60928115Y-120203940D01*
X60861785Y-120422600D01*
X60839388Y-120650000D01*
X60861785Y-120877400D01*
X60928115Y-121096060D01*
X60983913Y-121200452D01*
X60937753Y-121214454D01*
X60805724Y-121285026D01*
X60689999Y-121379999D01*
X60666196Y-121409003D01*
X60449003Y-121626196D01*
X60419999Y-121649999D01*
X60385038Y-121692600D01*
X60325026Y-121765724D01*
X60322198Y-121771015D01*
X60254454Y-121897754D01*
X60210997Y-122041015D01*
X60200000Y-122152668D01*
X60200000Y-122152678D01*
X60196324Y-122190000D01*
X60200000Y-122227323D01*
X60200001Y-123742670D01*
X60196324Y-123780002D01*
X60200001Y-123817335D01*
X60210998Y-123928988D01*
X60224180Y-123972444D01*
X60254454Y-124072248D01*
X60325026Y-124204278D01*
X60396201Y-124291004D01*
X60420000Y-124320003D01*
X60448997Y-124343801D01*
X61076203Y-124971008D01*
X61099997Y-125000001D01*
X61128990Y-125023795D01*
X61128994Y-125023799D01*
X61199683Y-125081811D01*
X61215722Y-125094974D01*
X61347751Y-125165546D01*
X61491012Y-125209003D01*
X61602665Y-125220000D01*
X61602674Y-125220000D01*
X61639997Y-125223676D01*
X61677320Y-125220000D01*
X63185199Y-125220000D01*
X63386206Y-125421007D01*
X63410009Y-125450011D01*
X63525734Y-125544984D01*
X63657763Y-125615556D01*
X63801024Y-125659013D01*
X63912677Y-125670010D01*
X63912686Y-125670010D01*
X63950009Y-125673686D01*
X63987332Y-125670010D01*
X71234839Y-125670010D01*
X71138815Y-125748815D01*
X71059463Y-125845506D01*
X71000498Y-125955820D01*
X70964188Y-126075518D01*
X70951928Y-126200000D01*
X70951928Y-126240000D01*
X60792302Y-126240000D01*
X60283072Y-125730771D01*
X60283072Y-125473750D01*
X60266608Y-125306592D01*
X60217850Y-125145858D01*
X60138671Y-124997725D01*
X60032115Y-124867885D01*
X59902275Y-124761329D01*
X59754142Y-124682150D01*
X59593408Y-124633392D01*
X59426250Y-124616928D01*
X58988750Y-124616928D01*
X58821592Y-124633392D01*
X58660858Y-124682150D01*
X58512725Y-124761329D01*
X58420000Y-124837426D01*
X58327275Y-124761329D01*
X58179142Y-124682150D01*
X58018408Y-124633392D01*
X57851250Y-124616928D01*
X57413750Y-124616928D01*
X57246592Y-124633392D01*
X57085858Y-124682150D01*
X56937725Y-124761329D01*
X56807885Y-124867885D01*
X56724082Y-124970000D01*
X55887595Y-124970000D01*
X55850706Y-124900986D01*
X55665134Y-124674866D01*
X55439014Y-124489294D01*
X55181034Y-124351401D01*
X54901111Y-124266487D01*
X54682950Y-124245000D01*
X54537050Y-124245000D01*
X54318889Y-124266487D01*
X54038966Y-124351401D01*
X53780986Y-124489294D01*
X53554866Y-124674866D01*
X53369294Y-124900986D01*
X53231401Y-125158966D01*
X53146487Y-125438889D01*
X53117815Y-125730000D01*
X53146487Y-126021111D01*
X53231401Y-126301034D01*
X53369294Y-126559014D01*
X53554866Y-126785134D01*
X53584687Y-126809607D01*
X53515820Y-126830498D01*
X53405506Y-126889463D01*
X53308815Y-126968815D01*
X53229463Y-127065506D01*
X53170498Y-127175820D01*
X53134188Y-127295518D01*
X53121928Y-127420000D01*
X53121928Y-129120000D01*
X53134188Y-129244482D01*
X53170498Y-129364180D01*
X53229463Y-129474494D01*
X53308815Y-129571185D01*
X53405506Y-129650537D01*
X53515820Y-129709502D01*
X53635518Y-129745812D01*
X53760000Y-129758072D01*
X55460000Y-129758072D01*
X55584482Y-129745812D01*
X55704180Y-129709502D01*
X55814494Y-129650537D01*
X55911185Y-129571185D01*
X55990537Y-129474494D01*
X56049502Y-129364180D01*
X56085812Y-129244482D01*
X56098072Y-129120000D01*
X56098072Y-129030000D01*
X56724082Y-129030000D01*
X56807885Y-129132115D01*
X56937725Y-129238671D01*
X57085858Y-129317850D01*
X57246592Y-129366608D01*
X57413750Y-129383072D01*
X57851250Y-129383072D01*
X58018408Y-129366608D01*
X58179142Y-129317850D01*
X58327275Y-129238671D01*
X58420000Y-129162574D01*
X58512725Y-129238671D01*
X58660858Y-129317850D01*
X58821592Y-129366608D01*
X58988750Y-129383072D01*
X59426250Y-129383072D01*
X59593408Y-129366608D01*
X59754142Y-129317850D01*
X59902275Y-129238671D01*
X60032115Y-129132115D01*
X60114928Y-129031206D01*
X60140010Y-129033676D01*
X60177332Y-129030000D01*
X60177343Y-129030000D01*
X60288996Y-129019003D01*
X60432257Y-128975546D01*
X60564286Y-128904974D01*
X60680011Y-128810001D01*
X60703813Y-128780998D01*
X61274802Y-128210010D01*
X69985209Y-128210010D01*
X70989292Y-129214094D01*
X70975764Y-129258691D01*
X70948057Y-129540000D01*
X70975764Y-129821309D01*
X71057818Y-130091808D01*
X71191068Y-130341101D01*
X71370392Y-130559608D01*
X71588899Y-130738932D01*
X71721858Y-130810000D01*
X71588899Y-130881068D01*
X71370392Y-131060392D01*
X71191068Y-131278899D01*
X71169099Y-131320000D01*
X60115918Y-131320000D01*
X60032115Y-131217885D01*
X59902275Y-131111329D01*
X59754142Y-131032150D01*
X59593408Y-130983392D01*
X59426250Y-130966928D01*
X58988750Y-130966928D01*
X58821592Y-130983392D01*
X58660858Y-131032150D01*
X58512725Y-131111329D01*
X58420000Y-131187426D01*
X58327275Y-131111329D01*
X58179142Y-131032150D01*
X58018408Y-130983392D01*
X57851250Y-130966928D01*
X57413750Y-130966928D01*
X57246592Y-130983392D01*
X57085858Y-131032150D01*
X56937725Y-131111329D01*
X56807885Y-131217885D01*
X56724082Y-131320000D01*
X56098072Y-131320000D01*
X56098072Y-131230000D01*
X56085812Y-131105518D01*
X56049502Y-130985820D01*
X55990537Y-130875506D01*
X55911185Y-130778815D01*
X55814494Y-130699463D01*
X55704180Y-130640498D01*
X55584482Y-130604188D01*
X55460000Y-130591928D01*
X53760000Y-130591928D01*
X53635518Y-130604188D01*
X53515820Y-130640498D01*
X53405506Y-130699463D01*
X53308815Y-130778815D01*
X53229463Y-130875506D01*
X53170498Y-130985820D01*
X53134188Y-131105518D01*
X53121928Y-131230000D01*
X53121928Y-132930000D01*
X53134188Y-133054482D01*
X53170498Y-133174180D01*
X53229463Y-133284494D01*
X53308815Y-133381185D01*
X53405506Y-133460537D01*
X53515820Y-133519502D01*
X53584687Y-133540393D01*
X53554866Y-133564866D01*
X53369294Y-133790986D01*
X53231401Y-134048966D01*
X53146487Y-134328889D01*
X53117815Y-134620000D01*
X53146487Y-134911111D01*
X53231401Y-135191034D01*
X53369294Y-135449014D01*
X53554866Y-135675134D01*
X53780986Y-135860706D01*
X54038966Y-135998599D01*
X54318889Y-136083513D01*
X54537050Y-136105000D01*
X54682950Y-136105000D01*
X54901111Y-136083513D01*
X55181034Y-135998599D01*
X55439014Y-135860706D01*
X55665134Y-135675134D01*
X55850706Y-135449014D01*
X55887595Y-135380000D01*
X56724082Y-135380000D01*
X56807885Y-135482115D01*
X56937725Y-135588671D01*
X57085858Y-135667850D01*
X57246592Y-135716608D01*
X57413750Y-135733072D01*
X57851250Y-135733072D01*
X58018408Y-135716608D01*
X58179142Y-135667850D01*
X58327275Y-135588671D01*
X58420000Y-135512574D01*
X58512725Y-135588671D01*
X58660858Y-135667850D01*
X58821592Y-135716608D01*
X58988750Y-135733072D01*
X59426250Y-135733072D01*
X59593408Y-135716608D01*
X59754142Y-135667850D01*
X59902275Y-135588671D01*
X60032115Y-135482115D01*
X60138671Y-135352275D01*
X60217850Y-135204142D01*
X60266608Y-135043408D01*
X60283072Y-134876250D01*
X60283072Y-134619229D01*
X61612292Y-133290010D01*
X69985209Y-133290010D01*
X70989292Y-134294094D01*
X70975764Y-134338691D01*
X70948057Y-134620000D01*
X70975764Y-134901309D01*
X71057818Y-135171808D01*
X71191068Y-135421101D01*
X71370392Y-135639608D01*
X71588899Y-135818932D01*
X71838192Y-135952182D01*
X72108691Y-136034236D01*
X72319508Y-136055000D01*
X72460492Y-136055000D01*
X72671309Y-136034236D01*
X72941808Y-135952182D01*
X73191101Y-135818932D01*
X73409608Y-135639608D01*
X73588932Y-135421101D01*
X73722182Y-135171808D01*
X73804236Y-134901309D01*
X73831943Y-134620000D01*
X73804236Y-134338691D01*
X73722182Y-134068192D01*
X73588932Y-133818899D01*
X73409608Y-133600392D01*
X73191101Y-133421068D01*
X73058142Y-133350000D01*
X73191101Y-133278932D01*
X73409608Y-133099608D01*
X73588932Y-132881101D01*
X73722182Y-132631808D01*
X73804236Y-132361309D01*
X73831943Y-132080000D01*
X73804236Y-131798691D01*
X73722182Y-131528192D01*
X73588932Y-131278899D01*
X73409608Y-131060392D01*
X73191101Y-130881068D01*
X73058142Y-130810000D01*
X73191101Y-130738932D01*
X73409608Y-130559608D01*
X73588932Y-130341101D01*
X73722182Y-130091808D01*
X73804236Y-129821309D01*
X73831943Y-129540000D01*
X73804236Y-129258691D01*
X73722182Y-128988192D01*
X73588932Y-128738899D01*
X73409608Y-128520392D01*
X73296518Y-128427581D01*
X73314482Y-128425812D01*
X73434180Y-128389502D01*
X73544494Y-128330537D01*
X73641185Y-128251185D01*
X73720537Y-128154494D01*
X73779502Y-128044180D01*
X73815812Y-127924482D01*
X73828072Y-127800000D01*
X73828072Y-126200000D01*
X73815812Y-126075518D01*
X73779502Y-125955820D01*
X73720537Y-125845506D01*
X73641185Y-125748815D01*
X73545161Y-125670010D01*
X77605209Y-125670010D01*
X77980000Y-126044802D01*
X77980001Y-133312668D01*
X77976324Y-133350000D01*
X77980001Y-133387333D01*
X77990998Y-133498986D01*
X77998401Y-133523392D01*
X78034454Y-133642246D01*
X78105026Y-133774276D01*
X78141648Y-133818899D01*
X78200000Y-133890001D01*
X78228998Y-133913799D01*
X78609292Y-134294094D01*
X78595764Y-134338691D01*
X78568057Y-134620000D01*
X78595764Y-134901309D01*
X78677818Y-135171808D01*
X78811068Y-135421101D01*
X78990392Y-135639608D01*
X79208899Y-135818932D01*
X79458192Y-135952182D01*
X79728691Y-136034236D01*
X79939508Y-136055000D01*
X80080492Y-136055000D01*
X80291309Y-136034236D01*
X80561808Y-135952182D01*
X80811101Y-135818932D01*
X81029608Y-135639608D01*
X81208932Y-135421101D01*
X81230901Y-135380000D01*
X82124082Y-135380000D01*
X82207885Y-135482115D01*
X82337725Y-135588671D01*
X82485858Y-135667850D01*
X82646592Y-135716608D01*
X82813750Y-135733072D01*
X83251250Y-135733072D01*
X83418408Y-135716608D01*
X83579142Y-135667850D01*
X83727275Y-135588671D01*
X83748930Y-135570900D01*
X83815506Y-135625537D01*
X83925820Y-135684502D01*
X84045518Y-135720812D01*
X84170000Y-135733072D01*
X84321750Y-135730000D01*
X84480500Y-135571250D01*
X84480500Y-134747000D01*
X84734500Y-134747000D01*
X84734500Y-135571250D01*
X84893250Y-135730000D01*
X85045000Y-135733072D01*
X85169482Y-135720812D01*
X85289180Y-135684502D01*
X85399494Y-135625537D01*
X85496185Y-135546185D01*
X85575537Y-135449494D01*
X85634502Y-135339180D01*
X85670812Y-135219482D01*
X85683072Y-135095000D01*
X85680000Y-134905750D01*
X85521250Y-134747000D01*
X84734500Y-134747000D01*
X84480500Y-134747000D01*
X84460500Y-134747000D01*
X84460500Y-134493000D01*
X84480500Y-134493000D01*
X84480500Y-133668750D01*
X84734500Y-133668750D01*
X84734500Y-134493000D01*
X85521250Y-134493000D01*
X85680000Y-134334250D01*
X85683072Y-134145000D01*
X85670812Y-134020518D01*
X85634502Y-133900820D01*
X85575537Y-133790506D01*
X85496185Y-133693815D01*
X85399494Y-133614463D01*
X85289180Y-133555498D01*
X85169482Y-133519188D01*
X85045000Y-133506928D01*
X84893250Y-133510000D01*
X84734500Y-133668750D01*
X84480500Y-133668750D01*
X84321750Y-133510000D01*
X84170000Y-133506928D01*
X84045518Y-133519188D01*
X83925820Y-133555498D01*
X83815506Y-133614463D01*
X83748930Y-133669100D01*
X83727275Y-133651329D01*
X83579142Y-133572150D01*
X83418408Y-133523392D01*
X83251250Y-133506928D01*
X82813750Y-133506928D01*
X82646592Y-133523392D01*
X82485858Y-133572150D01*
X82337725Y-133651329D01*
X82207885Y-133757885D01*
X82124082Y-133860000D01*
X81230901Y-133860000D01*
X81208932Y-133818899D01*
X81029608Y-133600392D01*
X80811101Y-133421068D01*
X80678142Y-133350000D01*
X80811101Y-133278932D01*
X81029608Y-133099608D01*
X81208932Y-132881101D01*
X81342182Y-132631808D01*
X81424236Y-132361309D01*
X81451943Y-132080000D01*
X81424236Y-131798691D01*
X81342182Y-131528192D01*
X81208932Y-131278899D01*
X81029608Y-131060392D01*
X80811101Y-130881068D01*
X80770000Y-130859099D01*
X80770000Y-130760901D01*
X80811101Y-130738932D01*
X81029608Y-130559608D01*
X81208932Y-130341101D01*
X81230901Y-130300000D01*
X86322678Y-130300000D01*
X86360000Y-130303676D01*
X86397322Y-130300000D01*
X86397333Y-130300000D01*
X86508986Y-130289003D01*
X86652247Y-130245546D01*
X86784276Y-130174974D01*
X86900001Y-130080001D01*
X86923804Y-130050997D01*
X88141004Y-128833798D01*
X88170001Y-128810001D01*
X88264974Y-128694276D01*
X88335546Y-128562247D01*
X88379003Y-128418986D01*
X88390000Y-128307333D01*
X88390000Y-128307324D01*
X88393676Y-128270001D01*
X88390000Y-128232678D01*
X88390000Y-120799208D01*
X88563735Y-120706345D01*
X88805463Y-120507963D01*
X89003845Y-120266235D01*
X89072511Y-120137770D01*
X89072510Y-137182688D01*
X87315199Y-138940000D01*
X53654802Y-138940000D01*
X52830000Y-138115199D01*
X52830000Y-107987322D01*
X52833676Y-107949999D01*
X52830000Y-107912676D01*
X52830000Y-107912667D01*
X52819003Y-107801014D01*
X52775546Y-107657753D01*
X52704974Y-107525724D01*
X52610001Y-107409999D01*
X52581004Y-107386202D01*
X52197000Y-107002198D01*
X52197000Y-106807000D01*
X53594364Y-106807000D01*
X53695671Y-106884531D01*
G36*
X62357000Y-106827000D02*
G01*
X62103000Y-106827000D01*
X62103000Y-106807000D01*
X62357000Y-106807000D01*
X62357000Y-106827000D01*
X62357000Y-106827000D01*
G37*
X62357000Y-106827000D02*
X62103000Y-106827000D01*
X62103000Y-106807000D01*
X62357000Y-106807000D01*
X62357000Y-106827000D01*
M02*
