G04 #@! TF.GenerationSoftware,KiCad,Pcbnew,(5.1.2)-1*
G04 #@! TF.CreationDate,2020-04-13T00:24:57+02:00*
G04 #@! TF.ProjectId,Plasma-PSU_PCB-B_Flyback-HV,506c6173-6d61-42d5-9053-555f5043422d,0.0.1*
G04 #@! TF.SameCoordinates,Original*
G04 #@! TF.FileFunction,Copper,L2,Bot*
G04 #@! TF.FilePolarity,Positive*
%FSLAX46Y46*%
G04 Gerber Fmt 4.6, Leading zero omitted, Abs format (unit mm)*
G04 Created by KiCad (PCBNEW (5.1.2)-1) date 2020-04-13 00:24:57*
%MOMM*%
%LPD*%
G04 APERTURE LIST*
%ADD10C,0.800000*%
%ADD11C,6.400000*%
%ADD12O,1.500000X1.050000*%
%ADD13R,1.500000X1.050000*%
%ADD14R,1.600000X1.600000*%
%ADD15C,1.600000*%
%ADD16O,2.200000X2.200000*%
%ADD17R,2.200000X2.200000*%
%ADD18O,1.700000X1.700000*%
%ADD19R,1.700000X1.700000*%
%ADD20R,2.600000X2.600000*%
%ADD21C,2.600000*%
%ADD22R,2.000000X1.905000*%
%ADD23O,2.000000X1.905000*%
%ADD24R,4.500000X2.500000*%
%ADD25O,4.500000X2.500000*%
%ADD26O,1.600000X1.600000*%
%ADD27C,0.250000*%
%ADD28C,0.254000*%
G04 APERTURE END LIST*
D10*
X131697056Y-143302944D03*
X130000000Y-142600000D03*
X128302944Y-143302944D03*
X127600000Y-145000000D03*
X128302944Y-146697056D03*
X130000000Y-147400000D03*
X131697056Y-146697056D03*
X132400000Y-145000000D03*
D11*
X130000000Y-145000000D03*
D12*
X69850000Y-121920000D03*
X69850000Y-120650000D03*
D13*
X69850000Y-123190000D03*
X62230000Y-123190000D03*
D12*
X62230000Y-120650000D03*
X62230000Y-121920000D03*
D14*
X68580000Y-82550000D03*
D15*
X68580000Y-86050000D03*
X74930000Y-86280000D03*
X74930000Y-81280000D03*
X78740000Y-81280000D03*
X78740000Y-86280000D03*
X82550000Y-86280000D03*
X82550000Y-81280000D03*
X86360000Y-81280000D03*
X86360000Y-86280000D03*
D16*
X54610000Y-105410000D03*
D17*
X54610000Y-113030000D03*
X80010000Y-102870000D03*
D16*
X80010000Y-95250000D03*
D17*
X95250000Y-93980000D03*
D16*
X95250000Y-86360000D03*
D18*
X54610000Y-125730000D03*
D19*
X54610000Y-128270000D03*
D20*
X57150000Y-81280000D03*
D21*
X57150000Y-86360000D03*
D19*
X54610000Y-132080000D03*
D18*
X54610000Y-134620000D03*
D22*
X69850000Y-111760000D03*
D23*
X69850000Y-109220000D03*
X69850000Y-106680000D03*
X62230000Y-106680000D03*
X62230000Y-109220000D03*
D22*
X62230000Y-111760000D03*
D24*
X87630000Y-102870000D03*
D25*
X87630000Y-97420000D03*
X87630000Y-91970000D03*
D26*
X73660000Y-106680000D03*
D15*
X81280000Y-106680000D03*
D14*
X72390000Y-127000000D03*
D26*
X80010000Y-134620000D03*
X72390000Y-129540000D03*
X80010000Y-132080000D03*
X72390000Y-132080000D03*
X80010000Y-129540000D03*
X72390000Y-134620000D03*
X80010000Y-127000000D03*
D23*
X78740000Y-119380000D03*
X78740000Y-116840000D03*
D22*
X78740000Y-114300000D03*
X87630000Y-114300000D03*
D23*
X87630000Y-116840000D03*
X87630000Y-119380000D03*
D11*
X55000000Y-55000000D03*
D10*
X57400000Y-55000000D03*
X56697056Y-56697056D03*
X55000000Y-57400000D03*
X53302944Y-56697056D03*
X52600000Y-55000000D03*
X53302944Y-53302944D03*
X55000000Y-52600000D03*
X56697056Y-53302944D03*
X56697056Y-143302944D03*
X55000000Y-142600000D03*
X53302944Y-143302944D03*
X52600000Y-145000000D03*
X53302944Y-146697056D03*
X55000000Y-147400000D03*
X56697056Y-146697056D03*
X57400000Y-145000000D03*
D11*
X55000000Y-145000000D03*
X130000000Y-55000000D03*
D10*
X132400000Y-55000000D03*
X131697056Y-56697056D03*
X130000000Y-57400000D03*
X128302944Y-56697056D03*
X127600000Y-55000000D03*
X128302944Y-53302944D03*
X130000000Y-52600000D03*
X131697056Y-53302944D03*
D11*
X205000000Y-55000000D03*
D10*
X207400000Y-55000000D03*
X206697056Y-56697056D03*
X205000000Y-57400000D03*
X203302944Y-56697056D03*
X202600000Y-55000000D03*
X203302944Y-53302944D03*
X205000000Y-52600000D03*
X206697056Y-53302944D03*
X206697056Y-143302944D03*
X205000000Y-142600000D03*
X203302944Y-143302944D03*
X202600000Y-145000000D03*
X203302944Y-146697056D03*
X205000000Y-147400000D03*
X206697056Y-146697056D03*
X207400000Y-145000000D03*
D11*
X205000000Y-145000000D03*
D20*
X57150000Y-63500000D03*
D21*
X57150000Y-68580000D03*
D27*
X55000000Y-145000000D02*
X55000000Y-147710000D01*
X55000000Y-147710000D02*
X55880000Y-148590000D01*
D28*
G36*
X127478724Y-52299119D02*
G01*
X130000000Y-54820395D01*
X132521276Y-52299119D01*
X132446160Y-52197000D01*
X202553840Y-52197000D01*
X202478724Y-52299119D01*
X205000000Y-54820395D01*
X205014143Y-54806253D01*
X205193748Y-54985858D01*
X205179605Y-55000000D01*
X207700881Y-57521276D01*
X208153000Y-57188707D01*
X208153000Y-142811293D01*
X207700881Y-142478724D01*
X205179605Y-145000000D01*
X205193748Y-145014143D01*
X205014143Y-145193748D01*
X205000000Y-145179605D01*
X202478724Y-147700881D01*
X202838912Y-148190548D01*
X203340992Y-148463000D01*
X131654424Y-148463000D01*
X132120670Y-148217555D01*
X132161088Y-148190548D01*
X132521276Y-147700881D01*
X130000000Y-145179605D01*
X127478724Y-147700881D01*
X127838912Y-148190548D01*
X128340992Y-148463000D01*
X56654424Y-148463000D01*
X57120670Y-148217555D01*
X57161088Y-148190548D01*
X57521276Y-147700881D01*
X55000000Y-145179605D01*
X54985858Y-145193748D01*
X54806253Y-145014143D01*
X54820395Y-145000000D01*
X55179605Y-145000000D01*
X57700881Y-147521276D01*
X58190548Y-147161088D01*
X58550849Y-146497118D01*
X58774694Y-145775615D01*
X58853480Y-145024305D01*
X58849002Y-144975695D01*
X126146520Y-144975695D01*
X126215822Y-145727938D01*
X126430548Y-146452208D01*
X126782445Y-147120670D01*
X126809452Y-147161088D01*
X127299119Y-147521276D01*
X129820395Y-145000000D01*
X130179605Y-145000000D01*
X132700881Y-147521276D01*
X133190548Y-147161088D01*
X133550849Y-146497118D01*
X133774694Y-145775615D01*
X133853480Y-145024305D01*
X133849002Y-144975695D01*
X201146520Y-144975695D01*
X201215822Y-145727938D01*
X201430548Y-146452208D01*
X201782445Y-147120670D01*
X201809452Y-147161088D01*
X202299119Y-147521276D01*
X204820395Y-145000000D01*
X202299119Y-142478724D01*
X201809452Y-142838912D01*
X201449151Y-143502882D01*
X201225306Y-144224385D01*
X201146520Y-144975695D01*
X133849002Y-144975695D01*
X133784178Y-144272062D01*
X133569452Y-143547792D01*
X133217555Y-142879330D01*
X133190548Y-142838912D01*
X132700881Y-142478724D01*
X130179605Y-145000000D01*
X129820395Y-145000000D01*
X127299119Y-142478724D01*
X126809452Y-142838912D01*
X126449151Y-143502882D01*
X126225306Y-144224385D01*
X126146520Y-144975695D01*
X58849002Y-144975695D01*
X58784178Y-144272062D01*
X58569452Y-143547792D01*
X58217555Y-142879330D01*
X58190548Y-142838912D01*
X57700881Y-142478724D01*
X55179605Y-145000000D01*
X54820395Y-145000000D01*
X52299119Y-142478724D01*
X52197000Y-142553840D01*
X52197000Y-142299119D01*
X52478724Y-142299119D01*
X55000000Y-144820395D01*
X57521276Y-142299119D01*
X127478724Y-142299119D01*
X130000000Y-144820395D01*
X132521276Y-142299119D01*
X202478724Y-142299119D01*
X205000000Y-144820395D01*
X207521276Y-142299119D01*
X207161088Y-141809452D01*
X206497118Y-141449151D01*
X205775615Y-141225306D01*
X205024305Y-141146520D01*
X204272062Y-141215822D01*
X203547792Y-141430548D01*
X202879330Y-141782445D01*
X202838912Y-141809452D01*
X202478724Y-142299119D01*
X132521276Y-142299119D01*
X132161088Y-141809452D01*
X131497118Y-141449151D01*
X130775615Y-141225306D01*
X130024305Y-141146520D01*
X129272062Y-141215822D01*
X128547792Y-141430548D01*
X127879330Y-141782445D01*
X127838912Y-141809452D01*
X127478724Y-142299119D01*
X57521276Y-142299119D01*
X57161088Y-141809452D01*
X56497118Y-141449151D01*
X55775615Y-141225306D01*
X55024305Y-141146520D01*
X54272062Y-141215822D01*
X53547792Y-141430548D01*
X52879330Y-141782445D01*
X52838912Y-141809452D01*
X52478724Y-142299119D01*
X52197000Y-142299119D01*
X52197000Y-142292606D01*
X53392647Y-141096959D01*
X102870100Y-141057924D01*
X102894875Y-141055464D01*
X102918693Y-141048218D01*
X102940641Y-141036465D01*
X102958389Y-141022119D01*
X104228389Y-139791195D01*
X104244481Y-139772199D01*
X104256559Y-139750428D01*
X104264157Y-139726719D01*
X104267000Y-139700000D01*
X104267000Y-72390000D01*
X104264560Y-72365224D01*
X104257333Y-72341399D01*
X104245597Y-72319443D01*
X104229803Y-72300197D01*
X102959803Y-71030197D01*
X102940557Y-71014403D01*
X102918601Y-71002667D01*
X102894776Y-70995440D01*
X102870000Y-70993000D01*
X53392606Y-70993000D01*
X52328830Y-69929224D01*
X55980381Y-69929224D01*
X56112317Y-70224312D01*
X56453045Y-70395159D01*
X56820557Y-70496250D01*
X57200729Y-70523701D01*
X57578951Y-70476457D01*
X57940690Y-70356333D01*
X58187683Y-70224312D01*
X58319619Y-69929224D01*
X57150000Y-68759605D01*
X55980381Y-69929224D01*
X52328830Y-69929224D01*
X52197000Y-69797394D01*
X52197000Y-68630729D01*
X55206299Y-68630729D01*
X55253543Y-69008951D01*
X55373667Y-69370690D01*
X55505688Y-69617683D01*
X55800776Y-69749619D01*
X56970395Y-68580000D01*
X57329605Y-68580000D01*
X58499224Y-69749619D01*
X58794312Y-69617683D01*
X58965159Y-69276955D01*
X59066250Y-68909443D01*
X59093701Y-68529271D01*
X59046457Y-68151049D01*
X58926333Y-67789310D01*
X58794312Y-67542317D01*
X58499224Y-67410381D01*
X57329605Y-68580000D01*
X56970395Y-68580000D01*
X55800776Y-67410381D01*
X55505688Y-67542317D01*
X55334841Y-67883045D01*
X55233750Y-68250557D01*
X55206299Y-68630729D01*
X52197000Y-68630729D01*
X52197000Y-67230776D01*
X55980381Y-67230776D01*
X57150000Y-68400395D01*
X58319619Y-67230776D01*
X58187683Y-66935688D01*
X57846955Y-66764841D01*
X57479443Y-66663750D01*
X57099271Y-66636299D01*
X56721049Y-66683543D01*
X56359310Y-66803667D01*
X56112317Y-66935688D01*
X55980381Y-67230776D01*
X52197000Y-67230776D01*
X52197000Y-64800000D01*
X55211928Y-64800000D01*
X55224188Y-64924482D01*
X55260498Y-65044180D01*
X55319463Y-65154494D01*
X55398815Y-65251185D01*
X55495506Y-65330537D01*
X55605820Y-65389502D01*
X55725518Y-65425812D01*
X55850000Y-65438072D01*
X56864250Y-65435000D01*
X57023000Y-65276250D01*
X57023000Y-63627000D01*
X57277000Y-63627000D01*
X57277000Y-65276250D01*
X57435750Y-65435000D01*
X58450000Y-65438072D01*
X58574482Y-65425812D01*
X58694180Y-65389502D01*
X58804494Y-65330537D01*
X58901185Y-65251185D01*
X58980537Y-65154494D01*
X59039502Y-65044180D01*
X59075812Y-64924482D01*
X59088072Y-64800000D01*
X59085000Y-63785750D01*
X58926250Y-63627000D01*
X57277000Y-63627000D01*
X57023000Y-63627000D01*
X55373750Y-63627000D01*
X55215000Y-63785750D01*
X55211928Y-64800000D01*
X52197000Y-64800000D01*
X52197000Y-62200000D01*
X55211928Y-62200000D01*
X55215000Y-63214250D01*
X55373750Y-63373000D01*
X57023000Y-63373000D01*
X57023000Y-61723750D01*
X57277000Y-61723750D01*
X57277000Y-63373000D01*
X58926250Y-63373000D01*
X59085000Y-63214250D01*
X59088072Y-62200000D01*
X59075812Y-62075518D01*
X59039502Y-61955820D01*
X58980537Y-61845506D01*
X58901185Y-61748815D01*
X58804494Y-61669463D01*
X58694180Y-61610498D01*
X58574482Y-61574188D01*
X58450000Y-61561928D01*
X57435750Y-61565000D01*
X57277000Y-61723750D01*
X57023000Y-61723750D01*
X56864250Y-61565000D01*
X55850000Y-61561928D01*
X55725518Y-61574188D01*
X55605820Y-61610498D01*
X55495506Y-61669463D01*
X55398815Y-61748815D01*
X55319463Y-61845506D01*
X55260498Y-61955820D01*
X55224188Y-62075518D01*
X55211928Y-62200000D01*
X52197000Y-62200000D01*
X52197000Y-57700881D01*
X52478724Y-57700881D01*
X52838912Y-58190548D01*
X53502882Y-58550849D01*
X54224385Y-58774694D01*
X54975695Y-58853480D01*
X55727938Y-58784178D01*
X56452208Y-58569452D01*
X57120670Y-58217555D01*
X57161088Y-58190548D01*
X57521276Y-57700881D01*
X127478724Y-57700881D01*
X127838912Y-58190548D01*
X128502882Y-58550849D01*
X129224385Y-58774694D01*
X129975695Y-58853480D01*
X130727938Y-58784178D01*
X131452208Y-58569452D01*
X132120670Y-58217555D01*
X132161088Y-58190548D01*
X132521276Y-57700881D01*
X202478724Y-57700881D01*
X202838912Y-58190548D01*
X203502882Y-58550849D01*
X204224385Y-58774694D01*
X204975695Y-58853480D01*
X205727938Y-58784178D01*
X206452208Y-58569452D01*
X207120670Y-58217555D01*
X207161088Y-58190548D01*
X207521276Y-57700881D01*
X205000000Y-55179605D01*
X202478724Y-57700881D01*
X132521276Y-57700881D01*
X130000000Y-55179605D01*
X127478724Y-57700881D01*
X57521276Y-57700881D01*
X55000000Y-55179605D01*
X52478724Y-57700881D01*
X52197000Y-57700881D01*
X52197000Y-57446160D01*
X52299119Y-57521276D01*
X54820395Y-55000000D01*
X55179605Y-55000000D01*
X57700881Y-57521276D01*
X58190548Y-57161088D01*
X58550849Y-56497118D01*
X58774694Y-55775615D01*
X58853480Y-55024305D01*
X58849002Y-54975695D01*
X126146520Y-54975695D01*
X126215822Y-55727938D01*
X126430548Y-56452208D01*
X126782445Y-57120670D01*
X126809452Y-57161088D01*
X127299119Y-57521276D01*
X129820395Y-55000000D01*
X130179605Y-55000000D01*
X132700881Y-57521276D01*
X133190548Y-57161088D01*
X133550849Y-56497118D01*
X133774694Y-55775615D01*
X133853480Y-55024305D01*
X133849002Y-54975695D01*
X201146520Y-54975695D01*
X201215822Y-55727938D01*
X201430548Y-56452208D01*
X201782445Y-57120670D01*
X201809452Y-57161088D01*
X202299119Y-57521276D01*
X204820395Y-55000000D01*
X202299119Y-52478724D01*
X201809452Y-52838912D01*
X201449151Y-53502882D01*
X201225306Y-54224385D01*
X201146520Y-54975695D01*
X133849002Y-54975695D01*
X133784178Y-54272062D01*
X133569452Y-53547792D01*
X133217555Y-52879330D01*
X133190548Y-52838912D01*
X132700881Y-52478724D01*
X130179605Y-55000000D01*
X129820395Y-55000000D01*
X127299119Y-52478724D01*
X126809452Y-52838912D01*
X126449151Y-53502882D01*
X126225306Y-54224385D01*
X126146520Y-54975695D01*
X58849002Y-54975695D01*
X58784178Y-54272062D01*
X58569452Y-53547792D01*
X58217555Y-52879330D01*
X58190548Y-52838912D01*
X57700881Y-52478724D01*
X55179605Y-55000000D01*
X54820395Y-55000000D01*
X54806253Y-54985858D01*
X54985858Y-54806253D01*
X55000000Y-54820395D01*
X57521276Y-52299119D01*
X57446160Y-52197000D01*
X127553840Y-52197000D01*
X127478724Y-52299119D01*
X127478724Y-52299119D01*
G37*
X127478724Y-52299119D02*
X130000000Y-54820395D01*
X132521276Y-52299119D01*
X132446160Y-52197000D01*
X202553840Y-52197000D01*
X202478724Y-52299119D01*
X205000000Y-54820395D01*
X205014143Y-54806253D01*
X205193748Y-54985858D01*
X205179605Y-55000000D01*
X207700881Y-57521276D01*
X208153000Y-57188707D01*
X208153000Y-142811293D01*
X207700881Y-142478724D01*
X205179605Y-145000000D01*
X205193748Y-145014143D01*
X205014143Y-145193748D01*
X205000000Y-145179605D01*
X202478724Y-147700881D01*
X202838912Y-148190548D01*
X203340992Y-148463000D01*
X131654424Y-148463000D01*
X132120670Y-148217555D01*
X132161088Y-148190548D01*
X132521276Y-147700881D01*
X130000000Y-145179605D01*
X127478724Y-147700881D01*
X127838912Y-148190548D01*
X128340992Y-148463000D01*
X56654424Y-148463000D01*
X57120670Y-148217555D01*
X57161088Y-148190548D01*
X57521276Y-147700881D01*
X55000000Y-145179605D01*
X54985858Y-145193748D01*
X54806253Y-145014143D01*
X54820395Y-145000000D01*
X55179605Y-145000000D01*
X57700881Y-147521276D01*
X58190548Y-147161088D01*
X58550849Y-146497118D01*
X58774694Y-145775615D01*
X58853480Y-145024305D01*
X58849002Y-144975695D01*
X126146520Y-144975695D01*
X126215822Y-145727938D01*
X126430548Y-146452208D01*
X126782445Y-147120670D01*
X126809452Y-147161088D01*
X127299119Y-147521276D01*
X129820395Y-145000000D01*
X130179605Y-145000000D01*
X132700881Y-147521276D01*
X133190548Y-147161088D01*
X133550849Y-146497118D01*
X133774694Y-145775615D01*
X133853480Y-145024305D01*
X133849002Y-144975695D01*
X201146520Y-144975695D01*
X201215822Y-145727938D01*
X201430548Y-146452208D01*
X201782445Y-147120670D01*
X201809452Y-147161088D01*
X202299119Y-147521276D01*
X204820395Y-145000000D01*
X202299119Y-142478724D01*
X201809452Y-142838912D01*
X201449151Y-143502882D01*
X201225306Y-144224385D01*
X201146520Y-144975695D01*
X133849002Y-144975695D01*
X133784178Y-144272062D01*
X133569452Y-143547792D01*
X133217555Y-142879330D01*
X133190548Y-142838912D01*
X132700881Y-142478724D01*
X130179605Y-145000000D01*
X129820395Y-145000000D01*
X127299119Y-142478724D01*
X126809452Y-142838912D01*
X126449151Y-143502882D01*
X126225306Y-144224385D01*
X126146520Y-144975695D01*
X58849002Y-144975695D01*
X58784178Y-144272062D01*
X58569452Y-143547792D01*
X58217555Y-142879330D01*
X58190548Y-142838912D01*
X57700881Y-142478724D01*
X55179605Y-145000000D01*
X54820395Y-145000000D01*
X52299119Y-142478724D01*
X52197000Y-142553840D01*
X52197000Y-142299119D01*
X52478724Y-142299119D01*
X55000000Y-144820395D01*
X57521276Y-142299119D01*
X127478724Y-142299119D01*
X130000000Y-144820395D01*
X132521276Y-142299119D01*
X202478724Y-142299119D01*
X205000000Y-144820395D01*
X207521276Y-142299119D01*
X207161088Y-141809452D01*
X206497118Y-141449151D01*
X205775615Y-141225306D01*
X205024305Y-141146520D01*
X204272062Y-141215822D01*
X203547792Y-141430548D01*
X202879330Y-141782445D01*
X202838912Y-141809452D01*
X202478724Y-142299119D01*
X132521276Y-142299119D01*
X132161088Y-141809452D01*
X131497118Y-141449151D01*
X130775615Y-141225306D01*
X130024305Y-141146520D01*
X129272062Y-141215822D01*
X128547792Y-141430548D01*
X127879330Y-141782445D01*
X127838912Y-141809452D01*
X127478724Y-142299119D01*
X57521276Y-142299119D01*
X57161088Y-141809452D01*
X56497118Y-141449151D01*
X55775615Y-141225306D01*
X55024305Y-141146520D01*
X54272062Y-141215822D01*
X53547792Y-141430548D01*
X52879330Y-141782445D01*
X52838912Y-141809452D01*
X52478724Y-142299119D01*
X52197000Y-142299119D01*
X52197000Y-142292606D01*
X53392647Y-141096959D01*
X102870100Y-141057924D01*
X102894875Y-141055464D01*
X102918693Y-141048218D01*
X102940641Y-141036465D01*
X102958389Y-141022119D01*
X104228389Y-139791195D01*
X104244481Y-139772199D01*
X104256559Y-139750428D01*
X104264157Y-139726719D01*
X104267000Y-139700000D01*
X104267000Y-72390000D01*
X104264560Y-72365224D01*
X104257333Y-72341399D01*
X104245597Y-72319443D01*
X104229803Y-72300197D01*
X102959803Y-71030197D01*
X102940557Y-71014403D01*
X102918601Y-71002667D01*
X102894776Y-70995440D01*
X102870000Y-70993000D01*
X53392606Y-70993000D01*
X52328830Y-69929224D01*
X55980381Y-69929224D01*
X56112317Y-70224312D01*
X56453045Y-70395159D01*
X56820557Y-70496250D01*
X57200729Y-70523701D01*
X57578951Y-70476457D01*
X57940690Y-70356333D01*
X58187683Y-70224312D01*
X58319619Y-69929224D01*
X57150000Y-68759605D01*
X55980381Y-69929224D01*
X52328830Y-69929224D01*
X52197000Y-69797394D01*
X52197000Y-68630729D01*
X55206299Y-68630729D01*
X55253543Y-69008951D01*
X55373667Y-69370690D01*
X55505688Y-69617683D01*
X55800776Y-69749619D01*
X56970395Y-68580000D01*
X57329605Y-68580000D01*
X58499224Y-69749619D01*
X58794312Y-69617683D01*
X58965159Y-69276955D01*
X59066250Y-68909443D01*
X59093701Y-68529271D01*
X59046457Y-68151049D01*
X58926333Y-67789310D01*
X58794312Y-67542317D01*
X58499224Y-67410381D01*
X57329605Y-68580000D01*
X56970395Y-68580000D01*
X55800776Y-67410381D01*
X55505688Y-67542317D01*
X55334841Y-67883045D01*
X55233750Y-68250557D01*
X55206299Y-68630729D01*
X52197000Y-68630729D01*
X52197000Y-67230776D01*
X55980381Y-67230776D01*
X57150000Y-68400395D01*
X58319619Y-67230776D01*
X58187683Y-66935688D01*
X57846955Y-66764841D01*
X57479443Y-66663750D01*
X57099271Y-66636299D01*
X56721049Y-66683543D01*
X56359310Y-66803667D01*
X56112317Y-66935688D01*
X55980381Y-67230776D01*
X52197000Y-67230776D01*
X52197000Y-64800000D01*
X55211928Y-64800000D01*
X55224188Y-64924482D01*
X55260498Y-65044180D01*
X55319463Y-65154494D01*
X55398815Y-65251185D01*
X55495506Y-65330537D01*
X55605820Y-65389502D01*
X55725518Y-65425812D01*
X55850000Y-65438072D01*
X56864250Y-65435000D01*
X57023000Y-65276250D01*
X57023000Y-63627000D01*
X57277000Y-63627000D01*
X57277000Y-65276250D01*
X57435750Y-65435000D01*
X58450000Y-65438072D01*
X58574482Y-65425812D01*
X58694180Y-65389502D01*
X58804494Y-65330537D01*
X58901185Y-65251185D01*
X58980537Y-65154494D01*
X59039502Y-65044180D01*
X59075812Y-64924482D01*
X59088072Y-64800000D01*
X59085000Y-63785750D01*
X58926250Y-63627000D01*
X57277000Y-63627000D01*
X57023000Y-63627000D01*
X55373750Y-63627000D01*
X55215000Y-63785750D01*
X55211928Y-64800000D01*
X52197000Y-64800000D01*
X52197000Y-62200000D01*
X55211928Y-62200000D01*
X55215000Y-63214250D01*
X55373750Y-63373000D01*
X57023000Y-63373000D01*
X57023000Y-61723750D01*
X57277000Y-61723750D01*
X57277000Y-63373000D01*
X58926250Y-63373000D01*
X59085000Y-63214250D01*
X59088072Y-62200000D01*
X59075812Y-62075518D01*
X59039502Y-61955820D01*
X58980537Y-61845506D01*
X58901185Y-61748815D01*
X58804494Y-61669463D01*
X58694180Y-61610498D01*
X58574482Y-61574188D01*
X58450000Y-61561928D01*
X57435750Y-61565000D01*
X57277000Y-61723750D01*
X57023000Y-61723750D01*
X56864250Y-61565000D01*
X55850000Y-61561928D01*
X55725518Y-61574188D01*
X55605820Y-61610498D01*
X55495506Y-61669463D01*
X55398815Y-61748815D01*
X55319463Y-61845506D01*
X55260498Y-61955820D01*
X55224188Y-62075518D01*
X55211928Y-62200000D01*
X52197000Y-62200000D01*
X52197000Y-57700881D01*
X52478724Y-57700881D01*
X52838912Y-58190548D01*
X53502882Y-58550849D01*
X54224385Y-58774694D01*
X54975695Y-58853480D01*
X55727938Y-58784178D01*
X56452208Y-58569452D01*
X57120670Y-58217555D01*
X57161088Y-58190548D01*
X57521276Y-57700881D01*
X127478724Y-57700881D01*
X127838912Y-58190548D01*
X128502882Y-58550849D01*
X129224385Y-58774694D01*
X129975695Y-58853480D01*
X130727938Y-58784178D01*
X131452208Y-58569452D01*
X132120670Y-58217555D01*
X132161088Y-58190548D01*
X132521276Y-57700881D01*
X202478724Y-57700881D01*
X202838912Y-58190548D01*
X203502882Y-58550849D01*
X204224385Y-58774694D01*
X204975695Y-58853480D01*
X205727938Y-58784178D01*
X206452208Y-58569452D01*
X207120670Y-58217555D01*
X207161088Y-58190548D01*
X207521276Y-57700881D01*
X205000000Y-55179605D01*
X202478724Y-57700881D01*
X132521276Y-57700881D01*
X130000000Y-55179605D01*
X127478724Y-57700881D01*
X57521276Y-57700881D01*
X55000000Y-55179605D01*
X52478724Y-57700881D01*
X52197000Y-57700881D01*
X52197000Y-57446160D01*
X52299119Y-57521276D01*
X54820395Y-55000000D01*
X55179605Y-55000000D01*
X57700881Y-57521276D01*
X58190548Y-57161088D01*
X58550849Y-56497118D01*
X58774694Y-55775615D01*
X58853480Y-55024305D01*
X58849002Y-54975695D01*
X126146520Y-54975695D01*
X126215822Y-55727938D01*
X126430548Y-56452208D01*
X126782445Y-57120670D01*
X126809452Y-57161088D01*
X127299119Y-57521276D01*
X129820395Y-55000000D01*
X130179605Y-55000000D01*
X132700881Y-57521276D01*
X133190548Y-57161088D01*
X133550849Y-56497118D01*
X133774694Y-55775615D01*
X133853480Y-55024305D01*
X133849002Y-54975695D01*
X201146520Y-54975695D01*
X201215822Y-55727938D01*
X201430548Y-56452208D01*
X201782445Y-57120670D01*
X201809452Y-57161088D01*
X202299119Y-57521276D01*
X204820395Y-55000000D01*
X202299119Y-52478724D01*
X201809452Y-52838912D01*
X201449151Y-53502882D01*
X201225306Y-54224385D01*
X201146520Y-54975695D01*
X133849002Y-54975695D01*
X133784178Y-54272062D01*
X133569452Y-53547792D01*
X133217555Y-52879330D01*
X133190548Y-52838912D01*
X132700881Y-52478724D01*
X130179605Y-55000000D01*
X129820395Y-55000000D01*
X127299119Y-52478724D01*
X126809452Y-52838912D01*
X126449151Y-53502882D01*
X126225306Y-54224385D01*
X126146520Y-54975695D01*
X58849002Y-54975695D01*
X58784178Y-54272062D01*
X58569452Y-53547792D01*
X58217555Y-52879330D01*
X58190548Y-52838912D01*
X57700881Y-52478724D01*
X55179605Y-55000000D01*
X54820395Y-55000000D01*
X54806253Y-54985858D01*
X54985858Y-54806253D01*
X55000000Y-54820395D01*
X57521276Y-52299119D01*
X57446160Y-52197000D01*
X127553840Y-52197000D01*
X127478724Y-52299119D01*
G36*
X102743000Y-73712606D02*
G01*
X102743000Y-138377394D01*
X101547394Y-139573000D01*
X53392606Y-139573000D01*
X52197000Y-138377394D01*
X52197000Y-134620000D01*
X53117815Y-134620000D01*
X53146487Y-134911111D01*
X53231401Y-135191034D01*
X53369294Y-135449014D01*
X53554866Y-135675134D01*
X53780986Y-135860706D01*
X54038966Y-135998599D01*
X54318889Y-136083513D01*
X54537050Y-136105000D01*
X54682950Y-136105000D01*
X54901111Y-136083513D01*
X55181034Y-135998599D01*
X55439014Y-135860706D01*
X55665134Y-135675134D01*
X55850706Y-135449014D01*
X55988599Y-135191034D01*
X56073513Y-134911111D01*
X56102185Y-134620000D01*
X56073513Y-134328889D01*
X55988599Y-134048966D01*
X55850706Y-133790986D01*
X55665134Y-133564866D01*
X55635313Y-133540393D01*
X55704180Y-133519502D01*
X55814494Y-133460537D01*
X55911185Y-133381185D01*
X55990537Y-133284494D01*
X56049502Y-133174180D01*
X56085812Y-133054482D01*
X56098072Y-132930000D01*
X56098072Y-131230000D01*
X56085812Y-131105518D01*
X56049502Y-130985820D01*
X55990537Y-130875506D01*
X55911185Y-130778815D01*
X55814494Y-130699463D01*
X55704180Y-130640498D01*
X55584482Y-130604188D01*
X55460000Y-130591928D01*
X53760000Y-130591928D01*
X53635518Y-130604188D01*
X53515820Y-130640498D01*
X53405506Y-130699463D01*
X53308815Y-130778815D01*
X53229463Y-130875506D01*
X53170498Y-130985820D01*
X53134188Y-131105518D01*
X53121928Y-131230000D01*
X53121928Y-132930000D01*
X53134188Y-133054482D01*
X53170498Y-133174180D01*
X53229463Y-133284494D01*
X53308815Y-133381185D01*
X53405506Y-133460537D01*
X53515820Y-133519502D01*
X53584687Y-133540393D01*
X53554866Y-133564866D01*
X53369294Y-133790986D01*
X53231401Y-134048966D01*
X53146487Y-134328889D01*
X53117815Y-134620000D01*
X52197000Y-134620000D01*
X52197000Y-125730000D01*
X53117815Y-125730000D01*
X53146487Y-126021111D01*
X53231401Y-126301034D01*
X53369294Y-126559014D01*
X53554866Y-126785134D01*
X53584687Y-126809607D01*
X53515820Y-126830498D01*
X53405506Y-126889463D01*
X53308815Y-126968815D01*
X53229463Y-127065506D01*
X53170498Y-127175820D01*
X53134188Y-127295518D01*
X53121928Y-127420000D01*
X53121928Y-129120000D01*
X53134188Y-129244482D01*
X53170498Y-129364180D01*
X53229463Y-129474494D01*
X53308815Y-129571185D01*
X53405506Y-129650537D01*
X53515820Y-129709502D01*
X53635518Y-129745812D01*
X53760000Y-129758072D01*
X55460000Y-129758072D01*
X55584482Y-129745812D01*
X55704180Y-129709502D01*
X55814494Y-129650537D01*
X55911185Y-129571185D01*
X55936777Y-129540000D01*
X70948057Y-129540000D01*
X70975764Y-129821309D01*
X71057818Y-130091808D01*
X71191068Y-130341101D01*
X71370392Y-130559608D01*
X71588899Y-130738932D01*
X71721858Y-130810000D01*
X71588899Y-130881068D01*
X71370392Y-131060392D01*
X71191068Y-131278899D01*
X71057818Y-131528192D01*
X70975764Y-131798691D01*
X70948057Y-132080000D01*
X70975764Y-132361309D01*
X71057818Y-132631808D01*
X71191068Y-132881101D01*
X71370392Y-133099608D01*
X71588899Y-133278932D01*
X71721858Y-133350000D01*
X71588899Y-133421068D01*
X71370392Y-133600392D01*
X71191068Y-133818899D01*
X71057818Y-134068192D01*
X70975764Y-134338691D01*
X70948057Y-134620000D01*
X70975764Y-134901309D01*
X71057818Y-135171808D01*
X71191068Y-135421101D01*
X71370392Y-135639608D01*
X71588899Y-135818932D01*
X71838192Y-135952182D01*
X72108691Y-136034236D01*
X72319508Y-136055000D01*
X72460492Y-136055000D01*
X72671309Y-136034236D01*
X72941808Y-135952182D01*
X73191101Y-135818932D01*
X73409608Y-135639608D01*
X73588932Y-135421101D01*
X73722182Y-135171808D01*
X73804236Y-134901309D01*
X73831943Y-134620000D01*
X73804236Y-134338691D01*
X73722182Y-134068192D01*
X73588932Y-133818899D01*
X73409608Y-133600392D01*
X73191101Y-133421068D01*
X73058142Y-133350000D01*
X73191101Y-133278932D01*
X73409608Y-133099608D01*
X73588932Y-132881101D01*
X73722182Y-132631808D01*
X73804236Y-132361309D01*
X73831943Y-132080000D01*
X73804236Y-131798691D01*
X73722182Y-131528192D01*
X73588932Y-131278899D01*
X73409608Y-131060392D01*
X73191101Y-130881068D01*
X73058142Y-130810000D01*
X73191101Y-130738932D01*
X73409608Y-130559608D01*
X73588932Y-130341101D01*
X73722182Y-130091808D01*
X73804236Y-129821309D01*
X73831943Y-129540000D01*
X73804236Y-129258691D01*
X73722182Y-128988192D01*
X73588932Y-128738899D01*
X73409608Y-128520392D01*
X73296518Y-128427581D01*
X73314482Y-128425812D01*
X73434180Y-128389502D01*
X73544494Y-128330537D01*
X73641185Y-128251185D01*
X73720537Y-128154494D01*
X73779502Y-128044180D01*
X73815812Y-127924482D01*
X73828072Y-127800000D01*
X73828072Y-127000000D01*
X78568057Y-127000000D01*
X78595764Y-127281309D01*
X78677818Y-127551808D01*
X78811068Y-127801101D01*
X78990392Y-128019608D01*
X79208899Y-128198932D01*
X79341858Y-128270000D01*
X79208899Y-128341068D01*
X78990392Y-128520392D01*
X78811068Y-128738899D01*
X78677818Y-128988192D01*
X78595764Y-129258691D01*
X78568057Y-129540000D01*
X78595764Y-129821309D01*
X78677818Y-130091808D01*
X78811068Y-130341101D01*
X78990392Y-130559608D01*
X79208899Y-130738932D01*
X79341858Y-130810000D01*
X79208899Y-130881068D01*
X78990392Y-131060392D01*
X78811068Y-131278899D01*
X78677818Y-131528192D01*
X78595764Y-131798691D01*
X78568057Y-132080000D01*
X78595764Y-132361309D01*
X78677818Y-132631808D01*
X78811068Y-132881101D01*
X78990392Y-133099608D01*
X79208899Y-133278932D01*
X79341858Y-133350000D01*
X79208899Y-133421068D01*
X78990392Y-133600392D01*
X78811068Y-133818899D01*
X78677818Y-134068192D01*
X78595764Y-134338691D01*
X78568057Y-134620000D01*
X78595764Y-134901309D01*
X78677818Y-135171808D01*
X78811068Y-135421101D01*
X78990392Y-135639608D01*
X79208899Y-135818932D01*
X79458192Y-135952182D01*
X79728691Y-136034236D01*
X79939508Y-136055000D01*
X80080492Y-136055000D01*
X80291309Y-136034236D01*
X80561808Y-135952182D01*
X80811101Y-135818932D01*
X81029608Y-135639608D01*
X81208932Y-135421101D01*
X81342182Y-135171808D01*
X81424236Y-134901309D01*
X81451943Y-134620000D01*
X81424236Y-134338691D01*
X81342182Y-134068192D01*
X81208932Y-133818899D01*
X81029608Y-133600392D01*
X80811101Y-133421068D01*
X80678142Y-133350000D01*
X80811101Y-133278932D01*
X81029608Y-133099608D01*
X81208932Y-132881101D01*
X81342182Y-132631808D01*
X81424236Y-132361309D01*
X81451943Y-132080000D01*
X81424236Y-131798691D01*
X81342182Y-131528192D01*
X81208932Y-131278899D01*
X81029608Y-131060392D01*
X80811101Y-130881068D01*
X80678142Y-130810000D01*
X80811101Y-130738932D01*
X81029608Y-130559608D01*
X81208932Y-130341101D01*
X81342182Y-130091808D01*
X81424236Y-129821309D01*
X81451943Y-129540000D01*
X81424236Y-129258691D01*
X81342182Y-128988192D01*
X81208932Y-128738899D01*
X81029608Y-128520392D01*
X80811101Y-128341068D01*
X80678142Y-128270000D01*
X80811101Y-128198932D01*
X81029608Y-128019608D01*
X81208932Y-127801101D01*
X81342182Y-127551808D01*
X81424236Y-127281309D01*
X81451943Y-127000000D01*
X81424236Y-126718691D01*
X81342182Y-126448192D01*
X81208932Y-126198899D01*
X81029608Y-125980392D01*
X80811101Y-125801068D01*
X80561808Y-125667818D01*
X80291309Y-125585764D01*
X80080492Y-125565000D01*
X79939508Y-125565000D01*
X79728691Y-125585764D01*
X79458192Y-125667818D01*
X79208899Y-125801068D01*
X78990392Y-125980392D01*
X78811068Y-126198899D01*
X78677818Y-126448192D01*
X78595764Y-126718691D01*
X78568057Y-127000000D01*
X73828072Y-127000000D01*
X73828072Y-126200000D01*
X73815812Y-126075518D01*
X73779502Y-125955820D01*
X73720537Y-125845506D01*
X73641185Y-125748815D01*
X73544494Y-125669463D01*
X73434180Y-125610498D01*
X73314482Y-125574188D01*
X73190000Y-125561928D01*
X71590000Y-125561928D01*
X71465518Y-125574188D01*
X71345820Y-125610498D01*
X71235506Y-125669463D01*
X71138815Y-125748815D01*
X71059463Y-125845506D01*
X71000498Y-125955820D01*
X70964188Y-126075518D01*
X70951928Y-126200000D01*
X70951928Y-127800000D01*
X70964188Y-127924482D01*
X71000498Y-128044180D01*
X71059463Y-128154494D01*
X71138815Y-128251185D01*
X71235506Y-128330537D01*
X71345820Y-128389502D01*
X71465518Y-128425812D01*
X71483482Y-128427581D01*
X71370392Y-128520392D01*
X71191068Y-128738899D01*
X71057818Y-128988192D01*
X70975764Y-129258691D01*
X70948057Y-129540000D01*
X55936777Y-129540000D01*
X55990537Y-129474494D01*
X56049502Y-129364180D01*
X56085812Y-129244482D01*
X56098072Y-129120000D01*
X56098072Y-127420000D01*
X56085812Y-127295518D01*
X56049502Y-127175820D01*
X55990537Y-127065506D01*
X55911185Y-126968815D01*
X55814494Y-126889463D01*
X55704180Y-126830498D01*
X55635313Y-126809607D01*
X55665134Y-126785134D01*
X55850706Y-126559014D01*
X55988599Y-126301034D01*
X56073513Y-126021111D01*
X56102185Y-125730000D01*
X56073513Y-125438889D01*
X55988599Y-125158966D01*
X55850706Y-124900986D01*
X55665134Y-124674866D01*
X55439014Y-124489294D01*
X55181034Y-124351401D01*
X54901111Y-124266487D01*
X54682950Y-124245000D01*
X54537050Y-124245000D01*
X54318889Y-124266487D01*
X54038966Y-124351401D01*
X53780986Y-124489294D01*
X53554866Y-124674866D01*
X53369294Y-124900986D01*
X53231401Y-125158966D01*
X53146487Y-125438889D01*
X53117815Y-125730000D01*
X52197000Y-125730000D01*
X52197000Y-120650000D01*
X60839388Y-120650000D01*
X60861785Y-120877400D01*
X60928115Y-121096060D01*
X61029105Y-121285000D01*
X60928115Y-121473940D01*
X60861785Y-121692600D01*
X60839388Y-121920000D01*
X60861785Y-122147400D01*
X60925093Y-122356098D01*
X60890498Y-122420820D01*
X60854188Y-122540518D01*
X60841928Y-122665000D01*
X60841928Y-123715000D01*
X60854188Y-123839482D01*
X60890498Y-123959180D01*
X60949463Y-124069494D01*
X61028815Y-124166185D01*
X61125506Y-124245537D01*
X61235820Y-124304502D01*
X61355518Y-124340812D01*
X61480000Y-124353072D01*
X62980000Y-124353072D01*
X63104482Y-124340812D01*
X63224180Y-124304502D01*
X63334494Y-124245537D01*
X63431185Y-124166185D01*
X63510537Y-124069494D01*
X63569502Y-123959180D01*
X63605812Y-123839482D01*
X63618072Y-123715000D01*
X63618072Y-122665000D01*
X63605812Y-122540518D01*
X63569502Y-122420820D01*
X63534907Y-122356098D01*
X63598215Y-122147400D01*
X63620612Y-121920000D01*
X63598215Y-121692600D01*
X63531885Y-121473940D01*
X63430895Y-121285000D01*
X63531885Y-121096060D01*
X63598215Y-120877400D01*
X63620612Y-120650000D01*
X68459388Y-120650000D01*
X68481785Y-120877400D01*
X68548115Y-121096060D01*
X68649105Y-121285000D01*
X68548115Y-121473940D01*
X68481785Y-121692600D01*
X68459388Y-121920000D01*
X68481785Y-122147400D01*
X68545093Y-122356098D01*
X68510498Y-122420820D01*
X68474188Y-122540518D01*
X68461928Y-122665000D01*
X68461928Y-123715000D01*
X68474188Y-123839482D01*
X68510498Y-123959180D01*
X68569463Y-124069494D01*
X68648815Y-124166185D01*
X68745506Y-124245537D01*
X68855820Y-124304502D01*
X68975518Y-124340812D01*
X69100000Y-124353072D01*
X70600000Y-124353072D01*
X70724482Y-124340812D01*
X70844180Y-124304502D01*
X70954494Y-124245537D01*
X71051185Y-124166185D01*
X71130537Y-124069494D01*
X71189502Y-123959180D01*
X71225812Y-123839482D01*
X71238072Y-123715000D01*
X71238072Y-122665000D01*
X71225812Y-122540518D01*
X71189502Y-122420820D01*
X71154907Y-122356098D01*
X71218215Y-122147400D01*
X71240612Y-121920000D01*
X71218215Y-121692600D01*
X71151885Y-121473940D01*
X71050895Y-121285000D01*
X71151885Y-121096060D01*
X71218215Y-120877400D01*
X71240612Y-120650000D01*
X71218215Y-120422600D01*
X71151885Y-120203940D01*
X71044171Y-120002421D01*
X70899212Y-119825788D01*
X70722579Y-119680829D01*
X70521060Y-119573115D01*
X70302400Y-119506785D01*
X70131979Y-119490000D01*
X69568021Y-119490000D01*
X69397600Y-119506785D01*
X69178940Y-119573115D01*
X68977421Y-119680829D01*
X68800788Y-119825788D01*
X68655829Y-120002421D01*
X68548115Y-120203940D01*
X68481785Y-120422600D01*
X68459388Y-120650000D01*
X63620612Y-120650000D01*
X63598215Y-120422600D01*
X63531885Y-120203940D01*
X63424171Y-120002421D01*
X63279212Y-119825788D01*
X63102579Y-119680829D01*
X62901060Y-119573115D01*
X62682400Y-119506785D01*
X62511979Y-119490000D01*
X61948021Y-119490000D01*
X61777600Y-119506785D01*
X61558940Y-119573115D01*
X61357421Y-119680829D01*
X61180788Y-119825788D01*
X61035829Y-120002421D01*
X60928115Y-120203940D01*
X60861785Y-120422600D01*
X60839388Y-120650000D01*
X52197000Y-120650000D01*
X52197000Y-119380000D01*
X77097319Y-119380000D01*
X77127970Y-119691204D01*
X77218745Y-119990449D01*
X77366155Y-120266235D01*
X77564537Y-120507963D01*
X77806265Y-120706345D01*
X78082051Y-120853755D01*
X78381296Y-120944530D01*
X78614514Y-120967500D01*
X78865486Y-120967500D01*
X79098704Y-120944530D01*
X79397949Y-120853755D01*
X79673735Y-120706345D01*
X79915463Y-120507963D01*
X80113845Y-120266235D01*
X80261255Y-119990449D01*
X80352030Y-119691204D01*
X80382681Y-119380000D01*
X85987319Y-119380000D01*
X86017970Y-119691204D01*
X86108745Y-119990449D01*
X86256155Y-120266235D01*
X86454537Y-120507963D01*
X86696265Y-120706345D01*
X86972051Y-120853755D01*
X87271296Y-120944530D01*
X87504514Y-120967500D01*
X87755486Y-120967500D01*
X87988704Y-120944530D01*
X88287949Y-120853755D01*
X88563735Y-120706345D01*
X88805463Y-120507963D01*
X89003845Y-120266235D01*
X89151255Y-119990449D01*
X89242030Y-119691204D01*
X89272681Y-119380000D01*
X89242030Y-119068796D01*
X89151255Y-118769551D01*
X89003845Y-118493765D01*
X88805463Y-118252037D01*
X88626101Y-118104837D01*
X88811315Y-117949437D01*
X89005969Y-117706923D01*
X89149571Y-117431094D01*
X89220563Y-117212980D01*
X89100594Y-116967000D01*
X87757000Y-116967000D01*
X87757000Y-116987000D01*
X87503000Y-116987000D01*
X87503000Y-116967000D01*
X86159406Y-116967000D01*
X86039437Y-117212980D01*
X86110429Y-117431094D01*
X86254031Y-117706923D01*
X86448685Y-117949437D01*
X86633899Y-118104837D01*
X86454537Y-118252037D01*
X86256155Y-118493765D01*
X86108745Y-118769551D01*
X86017970Y-119068796D01*
X85987319Y-119380000D01*
X80382681Y-119380000D01*
X80352030Y-119068796D01*
X80261255Y-118769551D01*
X80113845Y-118493765D01*
X79915463Y-118252037D01*
X79736101Y-118104837D01*
X79921315Y-117949437D01*
X80115969Y-117706923D01*
X80259571Y-117431094D01*
X80330563Y-117212980D01*
X80210594Y-116967000D01*
X78867000Y-116967000D01*
X78867000Y-116987000D01*
X78613000Y-116987000D01*
X78613000Y-116967000D01*
X77269406Y-116967000D01*
X77149437Y-117212980D01*
X77220429Y-117431094D01*
X77364031Y-117706923D01*
X77558685Y-117949437D01*
X77743899Y-118104837D01*
X77564537Y-118252037D01*
X77366155Y-118493765D01*
X77218745Y-118769551D01*
X77127970Y-119068796D01*
X77097319Y-119380000D01*
X52197000Y-119380000D01*
X52197000Y-111930000D01*
X52871928Y-111930000D01*
X52871928Y-114130000D01*
X52884188Y-114254482D01*
X52920498Y-114374180D01*
X52979463Y-114484494D01*
X53058815Y-114581185D01*
X53155506Y-114660537D01*
X53265820Y-114719502D01*
X53385518Y-114755812D01*
X53510000Y-114768072D01*
X55710000Y-114768072D01*
X55834482Y-114755812D01*
X55954180Y-114719502D01*
X56064494Y-114660537D01*
X56161185Y-114581185D01*
X56240537Y-114484494D01*
X56299502Y-114374180D01*
X56335812Y-114254482D01*
X56348072Y-114130000D01*
X56348072Y-111930000D01*
X56335812Y-111805518D01*
X56299502Y-111685820D01*
X56240537Y-111575506D01*
X56161185Y-111478815D01*
X56064494Y-111399463D01*
X55954180Y-111340498D01*
X55834482Y-111304188D01*
X55710000Y-111291928D01*
X53510000Y-111291928D01*
X53385518Y-111304188D01*
X53265820Y-111340498D01*
X53155506Y-111399463D01*
X53058815Y-111478815D01*
X52979463Y-111575506D01*
X52920498Y-111685820D01*
X52884188Y-111805518D01*
X52871928Y-111930000D01*
X52197000Y-111930000D01*
X52197000Y-109220000D01*
X60587319Y-109220000D01*
X60617970Y-109531204D01*
X60708745Y-109830449D01*
X60856155Y-110106235D01*
X60959446Y-110232095D01*
X60875506Y-110276963D01*
X60778815Y-110356315D01*
X60699463Y-110453006D01*
X60640498Y-110563320D01*
X60604188Y-110683018D01*
X60591928Y-110807500D01*
X60591928Y-112712500D01*
X60604188Y-112836982D01*
X60640498Y-112956680D01*
X60699463Y-113066994D01*
X60778815Y-113163685D01*
X60875506Y-113243037D01*
X60985820Y-113302002D01*
X61105518Y-113338312D01*
X61230000Y-113350572D01*
X63230000Y-113350572D01*
X63354482Y-113338312D01*
X63474180Y-113302002D01*
X63584494Y-113243037D01*
X63681185Y-113163685D01*
X63760537Y-113066994D01*
X63819502Y-112956680D01*
X63855812Y-112836982D01*
X63868072Y-112712500D01*
X63868072Y-110807500D01*
X63855812Y-110683018D01*
X63819502Y-110563320D01*
X63760537Y-110453006D01*
X63681185Y-110356315D01*
X63584494Y-110276963D01*
X63500554Y-110232095D01*
X63603845Y-110106235D01*
X63751255Y-109830449D01*
X63842030Y-109531204D01*
X63872681Y-109220000D01*
X63842030Y-108908796D01*
X63751255Y-108609551D01*
X63603845Y-108333765D01*
X63405463Y-108092037D01*
X63226101Y-107944837D01*
X63411315Y-107789437D01*
X63605969Y-107546923D01*
X63749571Y-107271094D01*
X63820563Y-107052980D01*
X63700594Y-106807000D01*
X62357000Y-106807000D01*
X62357000Y-106827000D01*
X62103000Y-106827000D01*
X62103000Y-106807000D01*
X60759406Y-106807000D01*
X60639437Y-107052980D01*
X60710429Y-107271094D01*
X60854031Y-107546923D01*
X61048685Y-107789437D01*
X61233899Y-107944837D01*
X61054537Y-108092037D01*
X60856155Y-108333765D01*
X60708745Y-108609551D01*
X60617970Y-108908796D01*
X60587319Y-109220000D01*
X52197000Y-109220000D01*
X52197000Y-105806123D01*
X52920821Y-105806123D01*
X53030558Y-106128054D01*
X53200992Y-106422391D01*
X53425573Y-106677822D01*
X53695671Y-106884531D01*
X54000906Y-107034575D01*
X54213878Y-107099175D01*
X54483000Y-106981125D01*
X54483000Y-105537000D01*
X54737000Y-105537000D01*
X54737000Y-106981125D01*
X55006122Y-107099175D01*
X55219094Y-107034575D01*
X55524329Y-106884531D01*
X55791581Y-106680000D01*
X68207319Y-106680000D01*
X68237970Y-106991204D01*
X68328745Y-107290449D01*
X68476155Y-107566235D01*
X68674537Y-107807963D01*
X68847609Y-107950000D01*
X68674537Y-108092037D01*
X68476155Y-108333765D01*
X68328745Y-108609551D01*
X68237970Y-108908796D01*
X68207319Y-109220000D01*
X68237970Y-109531204D01*
X68328745Y-109830449D01*
X68476155Y-110106235D01*
X68579446Y-110232095D01*
X68495506Y-110276963D01*
X68398815Y-110356315D01*
X68319463Y-110453006D01*
X68260498Y-110563320D01*
X68224188Y-110683018D01*
X68211928Y-110807500D01*
X68211928Y-112712500D01*
X68224188Y-112836982D01*
X68260498Y-112956680D01*
X68319463Y-113066994D01*
X68398815Y-113163685D01*
X68495506Y-113243037D01*
X68605820Y-113302002D01*
X68725518Y-113338312D01*
X68850000Y-113350572D01*
X70850000Y-113350572D01*
X70881191Y-113347500D01*
X77101928Y-113347500D01*
X77101928Y-115252500D01*
X77114188Y-115376982D01*
X77150498Y-115496680D01*
X77209463Y-115606994D01*
X77288815Y-115703685D01*
X77385506Y-115783037D01*
X77477219Y-115832059D01*
X77364031Y-115973077D01*
X77220429Y-116248906D01*
X77149437Y-116467020D01*
X77269406Y-116713000D01*
X78613000Y-116713000D01*
X78613000Y-116693000D01*
X78867000Y-116693000D01*
X78867000Y-116713000D01*
X80210594Y-116713000D01*
X80330563Y-116467020D01*
X80259571Y-116248906D01*
X80115969Y-115973077D01*
X80002781Y-115832059D01*
X80094494Y-115783037D01*
X80191185Y-115703685D01*
X80270537Y-115606994D01*
X80329502Y-115496680D01*
X80365812Y-115376982D01*
X80378072Y-115252500D01*
X80378072Y-113347500D01*
X85991928Y-113347500D01*
X85991928Y-115252500D01*
X86004188Y-115376982D01*
X86040498Y-115496680D01*
X86099463Y-115606994D01*
X86178815Y-115703685D01*
X86275506Y-115783037D01*
X86367219Y-115832059D01*
X86254031Y-115973077D01*
X86110429Y-116248906D01*
X86039437Y-116467020D01*
X86159406Y-116713000D01*
X87503000Y-116713000D01*
X87503000Y-116693000D01*
X87757000Y-116693000D01*
X87757000Y-116713000D01*
X89100594Y-116713000D01*
X89220563Y-116467020D01*
X89149571Y-116248906D01*
X89005969Y-115973077D01*
X88892781Y-115832059D01*
X88984494Y-115783037D01*
X89081185Y-115703685D01*
X89160537Y-115606994D01*
X89219502Y-115496680D01*
X89255812Y-115376982D01*
X89268072Y-115252500D01*
X89268072Y-113347500D01*
X89255812Y-113223018D01*
X89219502Y-113103320D01*
X89160537Y-112993006D01*
X89081185Y-112896315D01*
X88984494Y-112816963D01*
X88874180Y-112757998D01*
X88754482Y-112721688D01*
X88630000Y-112709428D01*
X86630000Y-112709428D01*
X86505518Y-112721688D01*
X86385820Y-112757998D01*
X86275506Y-112816963D01*
X86178815Y-112896315D01*
X86099463Y-112993006D01*
X86040498Y-113103320D01*
X86004188Y-113223018D01*
X85991928Y-113347500D01*
X80378072Y-113347500D01*
X80365812Y-113223018D01*
X80329502Y-113103320D01*
X80270537Y-112993006D01*
X80191185Y-112896315D01*
X80094494Y-112816963D01*
X79984180Y-112757998D01*
X79864482Y-112721688D01*
X79740000Y-112709428D01*
X77740000Y-112709428D01*
X77615518Y-112721688D01*
X77495820Y-112757998D01*
X77385506Y-112816963D01*
X77288815Y-112896315D01*
X77209463Y-112993006D01*
X77150498Y-113103320D01*
X77114188Y-113223018D01*
X77101928Y-113347500D01*
X70881191Y-113347500D01*
X70974482Y-113338312D01*
X71094180Y-113302002D01*
X71204494Y-113243037D01*
X71301185Y-113163685D01*
X71380537Y-113066994D01*
X71439502Y-112956680D01*
X71475812Y-112836982D01*
X71488072Y-112712500D01*
X71488072Y-110807500D01*
X71475812Y-110683018D01*
X71439502Y-110563320D01*
X71380537Y-110453006D01*
X71301185Y-110356315D01*
X71204494Y-110276963D01*
X71120554Y-110232095D01*
X71223845Y-110106235D01*
X71371255Y-109830449D01*
X71462030Y-109531204D01*
X71492681Y-109220000D01*
X71462030Y-108908796D01*
X71371255Y-108609551D01*
X71223845Y-108333765D01*
X71025463Y-108092037D01*
X70852391Y-107950000D01*
X71025463Y-107807963D01*
X71223845Y-107566235D01*
X71371255Y-107290449D01*
X71462030Y-106991204D01*
X71492681Y-106680000D01*
X72218057Y-106680000D01*
X72245764Y-106961309D01*
X72327818Y-107231808D01*
X72461068Y-107481101D01*
X72640392Y-107699608D01*
X72858899Y-107878932D01*
X73108192Y-108012182D01*
X73378691Y-108094236D01*
X73589508Y-108115000D01*
X73730492Y-108115000D01*
X73941309Y-108094236D01*
X74211808Y-108012182D01*
X74461101Y-107878932D01*
X74679608Y-107699608D01*
X74858932Y-107481101D01*
X74992182Y-107231808D01*
X75074236Y-106961309D01*
X75101943Y-106680000D01*
X75088023Y-106538665D01*
X79845000Y-106538665D01*
X79845000Y-106821335D01*
X79900147Y-107098574D01*
X80008320Y-107359727D01*
X80165363Y-107594759D01*
X80365241Y-107794637D01*
X80600273Y-107951680D01*
X80861426Y-108059853D01*
X81138665Y-108115000D01*
X81421335Y-108115000D01*
X81698574Y-108059853D01*
X81959727Y-107951680D01*
X82194759Y-107794637D01*
X82394637Y-107594759D01*
X82551680Y-107359727D01*
X82659853Y-107098574D01*
X82715000Y-106821335D01*
X82715000Y-106538665D01*
X82659853Y-106261426D01*
X82551680Y-106000273D01*
X82394637Y-105765241D01*
X82194759Y-105565363D01*
X81959727Y-105408320D01*
X81698574Y-105300147D01*
X81421335Y-105245000D01*
X81138665Y-105245000D01*
X80861426Y-105300147D01*
X80600273Y-105408320D01*
X80365241Y-105565363D01*
X80165363Y-105765241D01*
X80008320Y-106000273D01*
X79900147Y-106261426D01*
X79845000Y-106538665D01*
X75088023Y-106538665D01*
X75074236Y-106398691D01*
X74992182Y-106128192D01*
X74858932Y-105878899D01*
X74679608Y-105660392D01*
X74461101Y-105481068D01*
X74211808Y-105347818D01*
X73941309Y-105265764D01*
X73730492Y-105245000D01*
X73589508Y-105245000D01*
X73378691Y-105265764D01*
X73108192Y-105347818D01*
X72858899Y-105481068D01*
X72640392Y-105660392D01*
X72461068Y-105878899D01*
X72327818Y-106128192D01*
X72245764Y-106398691D01*
X72218057Y-106680000D01*
X71492681Y-106680000D01*
X71462030Y-106368796D01*
X71371255Y-106069551D01*
X71223845Y-105793765D01*
X71025463Y-105552037D01*
X70783735Y-105353655D01*
X70507949Y-105206245D01*
X70208704Y-105115470D01*
X69975486Y-105092500D01*
X69724514Y-105092500D01*
X69491296Y-105115470D01*
X69192051Y-105206245D01*
X68916265Y-105353655D01*
X68674537Y-105552037D01*
X68476155Y-105793765D01*
X68328745Y-106069551D01*
X68237970Y-106368796D01*
X68207319Y-106680000D01*
X55791581Y-106680000D01*
X55794427Y-106677822D01*
X56019008Y-106422391D01*
X56085812Y-106307020D01*
X60639437Y-106307020D01*
X60759406Y-106553000D01*
X62103000Y-106553000D01*
X62103000Y-105254430D01*
X62357000Y-105254430D01*
X62357000Y-106553000D01*
X63700594Y-106553000D01*
X63820563Y-106307020D01*
X63749571Y-106088906D01*
X63605969Y-105813077D01*
X63411315Y-105570563D01*
X63173089Y-105370684D01*
X62900446Y-105221121D01*
X62603863Y-105127622D01*
X62357000Y-105254430D01*
X62103000Y-105254430D01*
X61856137Y-105127622D01*
X61559554Y-105221121D01*
X61286911Y-105370684D01*
X61048685Y-105570563D01*
X60854031Y-105813077D01*
X60710429Y-106088906D01*
X60639437Y-106307020D01*
X56085812Y-106307020D01*
X56189442Y-106128054D01*
X56299179Y-105806123D01*
X56181600Y-105537000D01*
X54737000Y-105537000D01*
X54483000Y-105537000D01*
X53038400Y-105537000D01*
X52920821Y-105806123D01*
X52197000Y-105806123D01*
X52197000Y-105013877D01*
X52920821Y-105013877D01*
X53038400Y-105283000D01*
X54483000Y-105283000D01*
X54483000Y-103838875D01*
X54737000Y-103838875D01*
X54737000Y-105283000D01*
X56181600Y-105283000D01*
X56299179Y-105013877D01*
X56189442Y-104691946D01*
X56019008Y-104397609D01*
X55794427Y-104142178D01*
X55524329Y-103935469D01*
X55219094Y-103785425D01*
X55006122Y-103720825D01*
X54737000Y-103838875D01*
X54483000Y-103838875D01*
X54213878Y-103720825D01*
X54000906Y-103785425D01*
X53695671Y-103935469D01*
X53425573Y-104142178D01*
X53200992Y-104397609D01*
X53030558Y-104691946D01*
X52920821Y-105013877D01*
X52197000Y-105013877D01*
X52197000Y-101770000D01*
X78271928Y-101770000D01*
X78271928Y-103970000D01*
X78284188Y-104094482D01*
X78320498Y-104214180D01*
X78379463Y-104324494D01*
X78458815Y-104421185D01*
X78555506Y-104500537D01*
X78665820Y-104559502D01*
X78785518Y-104595812D01*
X78910000Y-104608072D01*
X81110000Y-104608072D01*
X81234482Y-104595812D01*
X81354180Y-104559502D01*
X81464494Y-104500537D01*
X81561185Y-104421185D01*
X81640537Y-104324494D01*
X81699502Y-104214180D01*
X81735812Y-104094482D01*
X81748072Y-103970000D01*
X81748072Y-101770000D01*
X81735812Y-101645518D01*
X81728072Y-101620000D01*
X84741928Y-101620000D01*
X84741928Y-104120000D01*
X84754188Y-104244482D01*
X84790498Y-104364180D01*
X84849463Y-104474494D01*
X84928815Y-104571185D01*
X85025506Y-104650537D01*
X85135820Y-104709502D01*
X85255518Y-104745812D01*
X85380000Y-104758072D01*
X89880000Y-104758072D01*
X90004482Y-104745812D01*
X90124180Y-104709502D01*
X90234494Y-104650537D01*
X90331185Y-104571185D01*
X90410537Y-104474494D01*
X90469502Y-104364180D01*
X90505812Y-104244482D01*
X90518072Y-104120000D01*
X90518072Y-101620000D01*
X90505812Y-101495518D01*
X90469502Y-101375820D01*
X90410537Y-101265506D01*
X90331185Y-101168815D01*
X90234494Y-101089463D01*
X90124180Y-101030498D01*
X90004482Y-100994188D01*
X89880000Y-100981928D01*
X85380000Y-100981928D01*
X85255518Y-100994188D01*
X85135820Y-101030498D01*
X85025506Y-101089463D01*
X84928815Y-101168815D01*
X84849463Y-101265506D01*
X84790498Y-101375820D01*
X84754188Y-101495518D01*
X84741928Y-101620000D01*
X81728072Y-101620000D01*
X81699502Y-101525820D01*
X81640537Y-101415506D01*
X81561185Y-101318815D01*
X81464494Y-101239463D01*
X81354180Y-101180498D01*
X81234482Y-101144188D01*
X81110000Y-101131928D01*
X78910000Y-101131928D01*
X78785518Y-101144188D01*
X78665820Y-101180498D01*
X78555506Y-101239463D01*
X78458815Y-101318815D01*
X78379463Y-101415506D01*
X78320498Y-101525820D01*
X78284188Y-101645518D01*
X78271928Y-101770000D01*
X52197000Y-101770000D01*
X52197000Y-97420000D01*
X84735880Y-97420000D01*
X84772275Y-97789524D01*
X84880061Y-98144848D01*
X85055097Y-98472317D01*
X85290655Y-98759345D01*
X85577683Y-98994903D01*
X85905152Y-99169939D01*
X86260476Y-99277725D01*
X86537403Y-99305000D01*
X88722597Y-99305000D01*
X88999524Y-99277725D01*
X89354848Y-99169939D01*
X89682317Y-98994903D01*
X89969345Y-98759345D01*
X90204903Y-98472317D01*
X90379939Y-98144848D01*
X90487725Y-97789524D01*
X90524120Y-97420000D01*
X90487725Y-97050476D01*
X90379939Y-96695152D01*
X90204903Y-96367683D01*
X89969345Y-96080655D01*
X89682317Y-95845097D01*
X89354848Y-95670061D01*
X88999524Y-95562275D01*
X88722597Y-95535000D01*
X86537403Y-95535000D01*
X86260476Y-95562275D01*
X85905152Y-95670061D01*
X85577683Y-95845097D01*
X85290655Y-96080655D01*
X85055097Y-96367683D01*
X84880061Y-96695152D01*
X84772275Y-97050476D01*
X84735880Y-97420000D01*
X52197000Y-97420000D01*
X52197000Y-95646123D01*
X78320821Y-95646123D01*
X78430558Y-95968054D01*
X78600992Y-96262391D01*
X78825573Y-96517822D01*
X79095671Y-96724531D01*
X79400906Y-96874575D01*
X79613878Y-96939175D01*
X79883000Y-96821125D01*
X79883000Y-95377000D01*
X80137000Y-95377000D01*
X80137000Y-96821125D01*
X80406122Y-96939175D01*
X80619094Y-96874575D01*
X80924329Y-96724531D01*
X81194427Y-96517822D01*
X81419008Y-96262391D01*
X81589442Y-95968054D01*
X81699179Y-95646123D01*
X81581600Y-95377000D01*
X80137000Y-95377000D01*
X79883000Y-95377000D01*
X78438400Y-95377000D01*
X78320821Y-95646123D01*
X52197000Y-95646123D01*
X52197000Y-94853877D01*
X78320821Y-94853877D01*
X78438400Y-95123000D01*
X79883000Y-95123000D01*
X79883000Y-93678875D01*
X80137000Y-93678875D01*
X80137000Y-95123000D01*
X81581600Y-95123000D01*
X81699179Y-94853877D01*
X81589442Y-94531946D01*
X81419008Y-94237609D01*
X81194427Y-93982178D01*
X80924329Y-93775469D01*
X80619094Y-93625425D01*
X80406122Y-93560825D01*
X80137000Y-93678875D01*
X79883000Y-93678875D01*
X79613878Y-93560825D01*
X79400906Y-93625425D01*
X79095671Y-93775469D01*
X78825573Y-93982178D01*
X78600992Y-94237609D01*
X78430558Y-94531946D01*
X78320821Y-94853877D01*
X52197000Y-94853877D01*
X52197000Y-92389645D01*
X84792305Y-92389645D01*
X84839886Y-92574025D01*
X84992122Y-92911653D01*
X85207301Y-93213094D01*
X85477153Y-93466763D01*
X85791309Y-93662912D01*
X86137695Y-93794004D01*
X86503000Y-93855000D01*
X87503000Y-93855000D01*
X87503000Y-92097000D01*
X87757000Y-92097000D01*
X87757000Y-93855000D01*
X88757000Y-93855000D01*
X89122305Y-93794004D01*
X89468691Y-93662912D01*
X89782847Y-93466763D01*
X90052699Y-93213094D01*
X90267878Y-92911653D01*
X90282150Y-92880000D01*
X93511928Y-92880000D01*
X93511928Y-95080000D01*
X93524188Y-95204482D01*
X93560498Y-95324180D01*
X93619463Y-95434494D01*
X93698815Y-95531185D01*
X93795506Y-95610537D01*
X93905820Y-95669502D01*
X94025518Y-95705812D01*
X94150000Y-95718072D01*
X96350000Y-95718072D01*
X96474482Y-95705812D01*
X96594180Y-95669502D01*
X96704494Y-95610537D01*
X96801185Y-95531185D01*
X96880537Y-95434494D01*
X96939502Y-95324180D01*
X96975812Y-95204482D01*
X96988072Y-95080000D01*
X96988072Y-92880000D01*
X96975812Y-92755518D01*
X96939502Y-92635820D01*
X96880537Y-92525506D01*
X96801185Y-92428815D01*
X96704494Y-92349463D01*
X96594180Y-92290498D01*
X96474482Y-92254188D01*
X96350000Y-92241928D01*
X94150000Y-92241928D01*
X94025518Y-92254188D01*
X93905820Y-92290498D01*
X93795506Y-92349463D01*
X93698815Y-92428815D01*
X93619463Y-92525506D01*
X93560498Y-92635820D01*
X93524188Y-92755518D01*
X93511928Y-92880000D01*
X90282150Y-92880000D01*
X90420114Y-92574025D01*
X90467695Y-92389645D01*
X90351572Y-92097000D01*
X87757000Y-92097000D01*
X87503000Y-92097000D01*
X84908428Y-92097000D01*
X84792305Y-92389645D01*
X52197000Y-92389645D01*
X52197000Y-91550355D01*
X84792305Y-91550355D01*
X84908428Y-91843000D01*
X87503000Y-91843000D01*
X87503000Y-90085000D01*
X87757000Y-90085000D01*
X87757000Y-91843000D01*
X90351572Y-91843000D01*
X90467695Y-91550355D01*
X90420114Y-91365975D01*
X90267878Y-91028347D01*
X90052699Y-90726906D01*
X89782847Y-90473237D01*
X89468691Y-90277088D01*
X89122305Y-90145996D01*
X88757000Y-90085000D01*
X87757000Y-90085000D01*
X87503000Y-90085000D01*
X86503000Y-90085000D01*
X86137695Y-90145996D01*
X85791309Y-90277088D01*
X85477153Y-90473237D01*
X85207301Y-90726906D01*
X84992122Y-91028347D01*
X84839886Y-91365975D01*
X84792305Y-91550355D01*
X52197000Y-91550355D01*
X52197000Y-87709224D01*
X55980381Y-87709224D01*
X56112317Y-88004312D01*
X56453045Y-88175159D01*
X56820557Y-88276250D01*
X57200729Y-88303701D01*
X57578951Y-88256457D01*
X57940690Y-88136333D01*
X58187683Y-88004312D01*
X58319619Y-87709224D01*
X57150000Y-86539605D01*
X55980381Y-87709224D01*
X52197000Y-87709224D01*
X52197000Y-86410729D01*
X55206299Y-86410729D01*
X55253543Y-86788951D01*
X55373667Y-87150690D01*
X55505688Y-87397683D01*
X55800776Y-87529619D01*
X56970395Y-86360000D01*
X57329605Y-86360000D01*
X58499224Y-87529619D01*
X58794312Y-87397683D01*
X58965159Y-87056955D01*
X58969079Y-87042702D01*
X67766903Y-87042702D01*
X67838486Y-87286671D01*
X68093996Y-87407571D01*
X68368184Y-87476300D01*
X68650512Y-87490217D01*
X68930130Y-87448787D01*
X69196292Y-87353603D01*
X69321514Y-87286671D01*
X69325612Y-87272702D01*
X74116903Y-87272702D01*
X74188486Y-87516671D01*
X74443996Y-87637571D01*
X74718184Y-87706300D01*
X75000512Y-87720217D01*
X75280130Y-87678787D01*
X75546292Y-87583603D01*
X75671514Y-87516671D01*
X75743097Y-87272702D01*
X77926903Y-87272702D01*
X77998486Y-87516671D01*
X78253996Y-87637571D01*
X78528184Y-87706300D01*
X78810512Y-87720217D01*
X79090130Y-87678787D01*
X79356292Y-87583603D01*
X79481514Y-87516671D01*
X79553097Y-87272702D01*
X81736903Y-87272702D01*
X81808486Y-87516671D01*
X82063996Y-87637571D01*
X82338184Y-87706300D01*
X82620512Y-87720217D01*
X82900130Y-87678787D01*
X83166292Y-87583603D01*
X83291514Y-87516671D01*
X83363097Y-87272702D01*
X85546903Y-87272702D01*
X85618486Y-87516671D01*
X85873996Y-87637571D01*
X86148184Y-87706300D01*
X86430512Y-87720217D01*
X86710130Y-87678787D01*
X86976292Y-87583603D01*
X87101514Y-87516671D01*
X87173097Y-87272702D01*
X86360000Y-86459605D01*
X85546903Y-87272702D01*
X83363097Y-87272702D01*
X82550000Y-86459605D01*
X81736903Y-87272702D01*
X79553097Y-87272702D01*
X78740000Y-86459605D01*
X77926903Y-87272702D01*
X75743097Y-87272702D01*
X74930000Y-86459605D01*
X74116903Y-87272702D01*
X69325612Y-87272702D01*
X69393097Y-87042702D01*
X68580000Y-86229605D01*
X67766903Y-87042702D01*
X58969079Y-87042702D01*
X59066250Y-86689443D01*
X59093701Y-86309271D01*
X59070123Y-86120512D01*
X67139783Y-86120512D01*
X67181213Y-86400130D01*
X67276397Y-86666292D01*
X67343329Y-86791514D01*
X67587298Y-86863097D01*
X68400395Y-86050000D01*
X68759605Y-86050000D01*
X69572702Y-86863097D01*
X69816671Y-86791514D01*
X69937571Y-86536004D01*
X69984067Y-86350512D01*
X73489783Y-86350512D01*
X73531213Y-86630130D01*
X73626397Y-86896292D01*
X73693329Y-87021514D01*
X73937298Y-87093097D01*
X74750395Y-86280000D01*
X75109605Y-86280000D01*
X75922702Y-87093097D01*
X76166671Y-87021514D01*
X76287571Y-86766004D01*
X76356300Y-86491816D01*
X76363265Y-86350512D01*
X77299783Y-86350512D01*
X77341213Y-86630130D01*
X77436397Y-86896292D01*
X77503329Y-87021514D01*
X77747298Y-87093097D01*
X78560395Y-86280000D01*
X78919605Y-86280000D01*
X79732702Y-87093097D01*
X79976671Y-87021514D01*
X80097571Y-86766004D01*
X80166300Y-86491816D01*
X80173265Y-86350512D01*
X81109783Y-86350512D01*
X81151213Y-86630130D01*
X81246397Y-86896292D01*
X81313329Y-87021514D01*
X81557298Y-87093097D01*
X82370395Y-86280000D01*
X82729605Y-86280000D01*
X83542702Y-87093097D01*
X83786671Y-87021514D01*
X83907571Y-86766004D01*
X83976300Y-86491816D01*
X83983265Y-86350512D01*
X84919783Y-86350512D01*
X84961213Y-86630130D01*
X85056397Y-86896292D01*
X85123329Y-87021514D01*
X85367298Y-87093097D01*
X86180395Y-86280000D01*
X86539605Y-86280000D01*
X87352702Y-87093097D01*
X87596671Y-87021514D01*
X87717571Y-86766004D01*
X87720047Y-86756123D01*
X93560821Y-86756123D01*
X93670558Y-87078054D01*
X93840992Y-87372391D01*
X94065573Y-87627822D01*
X94335671Y-87834531D01*
X94640906Y-87984575D01*
X94853878Y-88049175D01*
X95123000Y-87931125D01*
X95123000Y-86487000D01*
X95377000Y-86487000D01*
X95377000Y-87931125D01*
X95646122Y-88049175D01*
X95859094Y-87984575D01*
X96164329Y-87834531D01*
X96434427Y-87627822D01*
X96659008Y-87372391D01*
X96829442Y-87078054D01*
X96939179Y-86756123D01*
X96821600Y-86487000D01*
X95377000Y-86487000D01*
X95123000Y-86487000D01*
X93678400Y-86487000D01*
X93560821Y-86756123D01*
X87720047Y-86756123D01*
X87786300Y-86491816D01*
X87800217Y-86209488D01*
X87763826Y-85963877D01*
X93560821Y-85963877D01*
X93678400Y-86233000D01*
X95123000Y-86233000D01*
X95123000Y-84788875D01*
X95377000Y-84788875D01*
X95377000Y-86233000D01*
X96821600Y-86233000D01*
X96939179Y-85963877D01*
X96829442Y-85641946D01*
X96659008Y-85347609D01*
X96434427Y-85092178D01*
X96164329Y-84885469D01*
X95859094Y-84735425D01*
X95646122Y-84670825D01*
X95377000Y-84788875D01*
X95123000Y-84788875D01*
X94853878Y-84670825D01*
X94640906Y-84735425D01*
X94335671Y-84885469D01*
X94065573Y-85092178D01*
X93840992Y-85347609D01*
X93670558Y-85641946D01*
X93560821Y-85963877D01*
X87763826Y-85963877D01*
X87758787Y-85929870D01*
X87663603Y-85663708D01*
X87596671Y-85538486D01*
X87352702Y-85466903D01*
X86539605Y-86280000D01*
X86180395Y-86280000D01*
X85367298Y-85466903D01*
X85123329Y-85538486D01*
X85002429Y-85793996D01*
X84933700Y-86068184D01*
X84919783Y-86350512D01*
X83983265Y-86350512D01*
X83990217Y-86209488D01*
X83948787Y-85929870D01*
X83853603Y-85663708D01*
X83786671Y-85538486D01*
X83542702Y-85466903D01*
X82729605Y-86280000D01*
X82370395Y-86280000D01*
X81557298Y-85466903D01*
X81313329Y-85538486D01*
X81192429Y-85793996D01*
X81123700Y-86068184D01*
X81109783Y-86350512D01*
X80173265Y-86350512D01*
X80180217Y-86209488D01*
X80138787Y-85929870D01*
X80043603Y-85663708D01*
X79976671Y-85538486D01*
X79732702Y-85466903D01*
X78919605Y-86280000D01*
X78560395Y-86280000D01*
X77747298Y-85466903D01*
X77503329Y-85538486D01*
X77382429Y-85793996D01*
X77313700Y-86068184D01*
X77299783Y-86350512D01*
X76363265Y-86350512D01*
X76370217Y-86209488D01*
X76328787Y-85929870D01*
X76233603Y-85663708D01*
X76166671Y-85538486D01*
X75922702Y-85466903D01*
X75109605Y-86280000D01*
X74750395Y-86280000D01*
X73937298Y-85466903D01*
X73693329Y-85538486D01*
X73572429Y-85793996D01*
X73503700Y-86068184D01*
X73489783Y-86350512D01*
X69984067Y-86350512D01*
X70006300Y-86261816D01*
X70020217Y-85979488D01*
X69978787Y-85699870D01*
X69883603Y-85433708D01*
X69816671Y-85308486D01*
X69744459Y-85287298D01*
X74116903Y-85287298D01*
X74930000Y-86100395D01*
X75743097Y-85287298D01*
X77926903Y-85287298D01*
X78740000Y-86100395D01*
X79553097Y-85287298D01*
X81736903Y-85287298D01*
X82550000Y-86100395D01*
X83363097Y-85287298D01*
X85546903Y-85287298D01*
X86360000Y-86100395D01*
X87173097Y-85287298D01*
X87101514Y-85043329D01*
X86846004Y-84922429D01*
X86571816Y-84853700D01*
X86289488Y-84839783D01*
X86009870Y-84881213D01*
X85743708Y-84976397D01*
X85618486Y-85043329D01*
X85546903Y-85287298D01*
X83363097Y-85287298D01*
X83291514Y-85043329D01*
X83036004Y-84922429D01*
X82761816Y-84853700D01*
X82479488Y-84839783D01*
X82199870Y-84881213D01*
X81933708Y-84976397D01*
X81808486Y-85043329D01*
X81736903Y-85287298D01*
X79553097Y-85287298D01*
X79481514Y-85043329D01*
X79226004Y-84922429D01*
X78951816Y-84853700D01*
X78669488Y-84839783D01*
X78389870Y-84881213D01*
X78123708Y-84976397D01*
X77998486Y-85043329D01*
X77926903Y-85287298D01*
X75743097Y-85287298D01*
X75671514Y-85043329D01*
X75416004Y-84922429D01*
X75141816Y-84853700D01*
X74859488Y-84839783D01*
X74579870Y-84881213D01*
X74313708Y-84976397D01*
X74188486Y-85043329D01*
X74116903Y-85287298D01*
X69744459Y-85287298D01*
X69572702Y-85236903D01*
X68759605Y-86050000D01*
X68400395Y-86050000D01*
X67587298Y-85236903D01*
X67343329Y-85308486D01*
X67222429Y-85563996D01*
X67153700Y-85838184D01*
X67139783Y-86120512D01*
X59070123Y-86120512D01*
X59046457Y-85931049D01*
X58926333Y-85569310D01*
X58794312Y-85322317D01*
X58499224Y-85190381D01*
X57329605Y-86360000D01*
X56970395Y-86360000D01*
X55800776Y-85190381D01*
X55505688Y-85322317D01*
X55334841Y-85663045D01*
X55233750Y-86030557D01*
X55206299Y-86410729D01*
X52197000Y-86410729D01*
X52197000Y-85010776D01*
X55980381Y-85010776D01*
X57150000Y-86180395D01*
X58273097Y-85057298D01*
X67766903Y-85057298D01*
X68580000Y-85870395D01*
X69393097Y-85057298D01*
X69321514Y-84813329D01*
X69066004Y-84692429D01*
X68791816Y-84623700D01*
X68509488Y-84609783D01*
X68229870Y-84651213D01*
X67963708Y-84746397D01*
X67838486Y-84813329D01*
X67766903Y-85057298D01*
X58273097Y-85057298D01*
X58319619Y-85010776D01*
X58187683Y-84715688D01*
X57846955Y-84544841D01*
X57479443Y-84443750D01*
X57099271Y-84416299D01*
X56721049Y-84463543D01*
X56359310Y-84583667D01*
X56112317Y-84715688D01*
X55980381Y-85010776D01*
X52197000Y-85010776D01*
X52197000Y-79980000D01*
X55211928Y-79980000D01*
X55211928Y-82580000D01*
X55224188Y-82704482D01*
X55260498Y-82824180D01*
X55319463Y-82934494D01*
X55398815Y-83031185D01*
X55495506Y-83110537D01*
X55605820Y-83169502D01*
X55725518Y-83205812D01*
X55850000Y-83218072D01*
X58450000Y-83218072D01*
X58574482Y-83205812D01*
X58694180Y-83169502D01*
X58804494Y-83110537D01*
X58901185Y-83031185D01*
X58980537Y-82934494D01*
X59039502Y-82824180D01*
X59075812Y-82704482D01*
X59088072Y-82580000D01*
X59088072Y-81750000D01*
X67141928Y-81750000D01*
X67141928Y-83350000D01*
X67154188Y-83474482D01*
X67190498Y-83594180D01*
X67249463Y-83704494D01*
X67328815Y-83801185D01*
X67425506Y-83880537D01*
X67535820Y-83939502D01*
X67655518Y-83975812D01*
X67780000Y-83988072D01*
X69380000Y-83988072D01*
X69504482Y-83975812D01*
X69624180Y-83939502D01*
X69734494Y-83880537D01*
X69831185Y-83801185D01*
X69910537Y-83704494D01*
X69969502Y-83594180D01*
X70005812Y-83474482D01*
X70018072Y-83350000D01*
X70018072Y-81750000D01*
X70005812Y-81625518D01*
X69969502Y-81505820D01*
X69910537Y-81395506D01*
X69831185Y-81298815D01*
X69734494Y-81219463D01*
X69624180Y-81160498D01*
X69552207Y-81138665D01*
X73495000Y-81138665D01*
X73495000Y-81421335D01*
X73550147Y-81698574D01*
X73658320Y-81959727D01*
X73815363Y-82194759D01*
X74015241Y-82394637D01*
X74250273Y-82551680D01*
X74511426Y-82659853D01*
X74788665Y-82715000D01*
X75071335Y-82715000D01*
X75348574Y-82659853D01*
X75609727Y-82551680D01*
X75844759Y-82394637D01*
X76044637Y-82194759D01*
X76201680Y-81959727D01*
X76309853Y-81698574D01*
X76365000Y-81421335D01*
X76365000Y-81138665D01*
X77305000Y-81138665D01*
X77305000Y-81421335D01*
X77360147Y-81698574D01*
X77468320Y-81959727D01*
X77625363Y-82194759D01*
X77825241Y-82394637D01*
X78060273Y-82551680D01*
X78321426Y-82659853D01*
X78598665Y-82715000D01*
X78881335Y-82715000D01*
X79158574Y-82659853D01*
X79419727Y-82551680D01*
X79654759Y-82394637D01*
X79854637Y-82194759D01*
X80011680Y-81959727D01*
X80119853Y-81698574D01*
X80175000Y-81421335D01*
X80175000Y-81138665D01*
X81115000Y-81138665D01*
X81115000Y-81421335D01*
X81170147Y-81698574D01*
X81278320Y-81959727D01*
X81435363Y-82194759D01*
X81635241Y-82394637D01*
X81870273Y-82551680D01*
X82131426Y-82659853D01*
X82408665Y-82715000D01*
X82691335Y-82715000D01*
X82968574Y-82659853D01*
X83229727Y-82551680D01*
X83464759Y-82394637D01*
X83664637Y-82194759D01*
X83821680Y-81959727D01*
X83929853Y-81698574D01*
X83985000Y-81421335D01*
X83985000Y-81138665D01*
X84925000Y-81138665D01*
X84925000Y-81421335D01*
X84980147Y-81698574D01*
X85088320Y-81959727D01*
X85245363Y-82194759D01*
X85445241Y-82394637D01*
X85680273Y-82551680D01*
X85941426Y-82659853D01*
X86218665Y-82715000D01*
X86501335Y-82715000D01*
X86778574Y-82659853D01*
X87039727Y-82551680D01*
X87274759Y-82394637D01*
X87474637Y-82194759D01*
X87631680Y-81959727D01*
X87739853Y-81698574D01*
X87795000Y-81421335D01*
X87795000Y-81138665D01*
X87739853Y-80861426D01*
X87631680Y-80600273D01*
X87474637Y-80365241D01*
X87274759Y-80165363D01*
X87039727Y-80008320D01*
X86778574Y-79900147D01*
X86501335Y-79845000D01*
X86218665Y-79845000D01*
X85941426Y-79900147D01*
X85680273Y-80008320D01*
X85445241Y-80165363D01*
X85245363Y-80365241D01*
X85088320Y-80600273D01*
X84980147Y-80861426D01*
X84925000Y-81138665D01*
X83985000Y-81138665D01*
X83929853Y-80861426D01*
X83821680Y-80600273D01*
X83664637Y-80365241D01*
X83464759Y-80165363D01*
X83229727Y-80008320D01*
X82968574Y-79900147D01*
X82691335Y-79845000D01*
X82408665Y-79845000D01*
X82131426Y-79900147D01*
X81870273Y-80008320D01*
X81635241Y-80165363D01*
X81435363Y-80365241D01*
X81278320Y-80600273D01*
X81170147Y-80861426D01*
X81115000Y-81138665D01*
X80175000Y-81138665D01*
X80119853Y-80861426D01*
X80011680Y-80600273D01*
X79854637Y-80365241D01*
X79654759Y-80165363D01*
X79419727Y-80008320D01*
X79158574Y-79900147D01*
X78881335Y-79845000D01*
X78598665Y-79845000D01*
X78321426Y-79900147D01*
X78060273Y-80008320D01*
X77825241Y-80165363D01*
X77625363Y-80365241D01*
X77468320Y-80600273D01*
X77360147Y-80861426D01*
X77305000Y-81138665D01*
X76365000Y-81138665D01*
X76309853Y-80861426D01*
X76201680Y-80600273D01*
X76044637Y-80365241D01*
X75844759Y-80165363D01*
X75609727Y-80008320D01*
X75348574Y-79900147D01*
X75071335Y-79845000D01*
X74788665Y-79845000D01*
X74511426Y-79900147D01*
X74250273Y-80008320D01*
X74015241Y-80165363D01*
X73815363Y-80365241D01*
X73658320Y-80600273D01*
X73550147Y-80861426D01*
X73495000Y-81138665D01*
X69552207Y-81138665D01*
X69504482Y-81124188D01*
X69380000Y-81111928D01*
X67780000Y-81111928D01*
X67655518Y-81124188D01*
X67535820Y-81160498D01*
X67425506Y-81219463D01*
X67328815Y-81298815D01*
X67249463Y-81395506D01*
X67190498Y-81505820D01*
X67154188Y-81625518D01*
X67141928Y-81750000D01*
X59088072Y-81750000D01*
X59088072Y-79980000D01*
X59075812Y-79855518D01*
X59039502Y-79735820D01*
X58980537Y-79625506D01*
X58901185Y-79528815D01*
X58804494Y-79449463D01*
X58694180Y-79390498D01*
X58574482Y-79354188D01*
X58450000Y-79341928D01*
X55850000Y-79341928D01*
X55725518Y-79354188D01*
X55605820Y-79390498D01*
X55495506Y-79449463D01*
X55398815Y-79528815D01*
X55319463Y-79625506D01*
X55260498Y-79735820D01*
X55224188Y-79855518D01*
X55211928Y-79980000D01*
X52197000Y-79980000D01*
X52197000Y-73712606D01*
X53392606Y-72517000D01*
X101547394Y-72517000D01*
X102743000Y-73712606D01*
X102743000Y-73712606D01*
G37*
X102743000Y-73712606D02*
X102743000Y-138377394D01*
X101547394Y-139573000D01*
X53392606Y-139573000D01*
X52197000Y-138377394D01*
X52197000Y-134620000D01*
X53117815Y-134620000D01*
X53146487Y-134911111D01*
X53231401Y-135191034D01*
X53369294Y-135449014D01*
X53554866Y-135675134D01*
X53780986Y-135860706D01*
X54038966Y-135998599D01*
X54318889Y-136083513D01*
X54537050Y-136105000D01*
X54682950Y-136105000D01*
X54901111Y-136083513D01*
X55181034Y-135998599D01*
X55439014Y-135860706D01*
X55665134Y-135675134D01*
X55850706Y-135449014D01*
X55988599Y-135191034D01*
X56073513Y-134911111D01*
X56102185Y-134620000D01*
X56073513Y-134328889D01*
X55988599Y-134048966D01*
X55850706Y-133790986D01*
X55665134Y-133564866D01*
X55635313Y-133540393D01*
X55704180Y-133519502D01*
X55814494Y-133460537D01*
X55911185Y-133381185D01*
X55990537Y-133284494D01*
X56049502Y-133174180D01*
X56085812Y-133054482D01*
X56098072Y-132930000D01*
X56098072Y-131230000D01*
X56085812Y-131105518D01*
X56049502Y-130985820D01*
X55990537Y-130875506D01*
X55911185Y-130778815D01*
X55814494Y-130699463D01*
X55704180Y-130640498D01*
X55584482Y-130604188D01*
X55460000Y-130591928D01*
X53760000Y-130591928D01*
X53635518Y-130604188D01*
X53515820Y-130640498D01*
X53405506Y-130699463D01*
X53308815Y-130778815D01*
X53229463Y-130875506D01*
X53170498Y-130985820D01*
X53134188Y-131105518D01*
X53121928Y-131230000D01*
X53121928Y-132930000D01*
X53134188Y-133054482D01*
X53170498Y-133174180D01*
X53229463Y-133284494D01*
X53308815Y-133381185D01*
X53405506Y-133460537D01*
X53515820Y-133519502D01*
X53584687Y-133540393D01*
X53554866Y-133564866D01*
X53369294Y-133790986D01*
X53231401Y-134048966D01*
X53146487Y-134328889D01*
X53117815Y-134620000D01*
X52197000Y-134620000D01*
X52197000Y-125730000D01*
X53117815Y-125730000D01*
X53146487Y-126021111D01*
X53231401Y-126301034D01*
X53369294Y-126559014D01*
X53554866Y-126785134D01*
X53584687Y-126809607D01*
X53515820Y-126830498D01*
X53405506Y-126889463D01*
X53308815Y-126968815D01*
X53229463Y-127065506D01*
X53170498Y-127175820D01*
X53134188Y-127295518D01*
X53121928Y-127420000D01*
X53121928Y-129120000D01*
X53134188Y-129244482D01*
X53170498Y-129364180D01*
X53229463Y-129474494D01*
X53308815Y-129571185D01*
X53405506Y-129650537D01*
X53515820Y-129709502D01*
X53635518Y-129745812D01*
X53760000Y-129758072D01*
X55460000Y-129758072D01*
X55584482Y-129745812D01*
X55704180Y-129709502D01*
X55814494Y-129650537D01*
X55911185Y-129571185D01*
X55936777Y-129540000D01*
X70948057Y-129540000D01*
X70975764Y-129821309D01*
X71057818Y-130091808D01*
X71191068Y-130341101D01*
X71370392Y-130559608D01*
X71588899Y-130738932D01*
X71721858Y-130810000D01*
X71588899Y-130881068D01*
X71370392Y-131060392D01*
X71191068Y-131278899D01*
X71057818Y-131528192D01*
X70975764Y-131798691D01*
X70948057Y-132080000D01*
X70975764Y-132361309D01*
X71057818Y-132631808D01*
X71191068Y-132881101D01*
X71370392Y-133099608D01*
X71588899Y-133278932D01*
X71721858Y-133350000D01*
X71588899Y-133421068D01*
X71370392Y-133600392D01*
X71191068Y-133818899D01*
X71057818Y-134068192D01*
X70975764Y-134338691D01*
X70948057Y-134620000D01*
X70975764Y-134901309D01*
X71057818Y-135171808D01*
X71191068Y-135421101D01*
X71370392Y-135639608D01*
X71588899Y-135818932D01*
X71838192Y-135952182D01*
X72108691Y-136034236D01*
X72319508Y-136055000D01*
X72460492Y-136055000D01*
X72671309Y-136034236D01*
X72941808Y-135952182D01*
X73191101Y-135818932D01*
X73409608Y-135639608D01*
X73588932Y-135421101D01*
X73722182Y-135171808D01*
X73804236Y-134901309D01*
X73831943Y-134620000D01*
X73804236Y-134338691D01*
X73722182Y-134068192D01*
X73588932Y-133818899D01*
X73409608Y-133600392D01*
X73191101Y-133421068D01*
X73058142Y-133350000D01*
X73191101Y-133278932D01*
X73409608Y-133099608D01*
X73588932Y-132881101D01*
X73722182Y-132631808D01*
X73804236Y-132361309D01*
X73831943Y-132080000D01*
X73804236Y-131798691D01*
X73722182Y-131528192D01*
X73588932Y-131278899D01*
X73409608Y-131060392D01*
X73191101Y-130881068D01*
X73058142Y-130810000D01*
X73191101Y-130738932D01*
X73409608Y-130559608D01*
X73588932Y-130341101D01*
X73722182Y-130091808D01*
X73804236Y-129821309D01*
X73831943Y-129540000D01*
X73804236Y-129258691D01*
X73722182Y-128988192D01*
X73588932Y-128738899D01*
X73409608Y-128520392D01*
X73296518Y-128427581D01*
X73314482Y-128425812D01*
X73434180Y-128389502D01*
X73544494Y-128330537D01*
X73641185Y-128251185D01*
X73720537Y-128154494D01*
X73779502Y-128044180D01*
X73815812Y-127924482D01*
X73828072Y-127800000D01*
X73828072Y-127000000D01*
X78568057Y-127000000D01*
X78595764Y-127281309D01*
X78677818Y-127551808D01*
X78811068Y-127801101D01*
X78990392Y-128019608D01*
X79208899Y-128198932D01*
X79341858Y-128270000D01*
X79208899Y-128341068D01*
X78990392Y-128520392D01*
X78811068Y-128738899D01*
X78677818Y-128988192D01*
X78595764Y-129258691D01*
X78568057Y-129540000D01*
X78595764Y-129821309D01*
X78677818Y-130091808D01*
X78811068Y-130341101D01*
X78990392Y-130559608D01*
X79208899Y-130738932D01*
X79341858Y-130810000D01*
X79208899Y-130881068D01*
X78990392Y-131060392D01*
X78811068Y-131278899D01*
X78677818Y-131528192D01*
X78595764Y-131798691D01*
X78568057Y-132080000D01*
X78595764Y-132361309D01*
X78677818Y-132631808D01*
X78811068Y-132881101D01*
X78990392Y-133099608D01*
X79208899Y-133278932D01*
X79341858Y-133350000D01*
X79208899Y-133421068D01*
X78990392Y-133600392D01*
X78811068Y-133818899D01*
X78677818Y-134068192D01*
X78595764Y-134338691D01*
X78568057Y-134620000D01*
X78595764Y-134901309D01*
X78677818Y-135171808D01*
X78811068Y-135421101D01*
X78990392Y-135639608D01*
X79208899Y-135818932D01*
X79458192Y-135952182D01*
X79728691Y-136034236D01*
X79939508Y-136055000D01*
X80080492Y-136055000D01*
X80291309Y-136034236D01*
X80561808Y-135952182D01*
X80811101Y-135818932D01*
X81029608Y-135639608D01*
X81208932Y-135421101D01*
X81342182Y-135171808D01*
X81424236Y-134901309D01*
X81451943Y-134620000D01*
X81424236Y-134338691D01*
X81342182Y-134068192D01*
X81208932Y-133818899D01*
X81029608Y-133600392D01*
X80811101Y-133421068D01*
X80678142Y-133350000D01*
X80811101Y-133278932D01*
X81029608Y-133099608D01*
X81208932Y-132881101D01*
X81342182Y-132631808D01*
X81424236Y-132361309D01*
X81451943Y-132080000D01*
X81424236Y-131798691D01*
X81342182Y-131528192D01*
X81208932Y-131278899D01*
X81029608Y-131060392D01*
X80811101Y-130881068D01*
X80678142Y-130810000D01*
X80811101Y-130738932D01*
X81029608Y-130559608D01*
X81208932Y-130341101D01*
X81342182Y-130091808D01*
X81424236Y-129821309D01*
X81451943Y-129540000D01*
X81424236Y-129258691D01*
X81342182Y-128988192D01*
X81208932Y-128738899D01*
X81029608Y-128520392D01*
X80811101Y-128341068D01*
X80678142Y-128270000D01*
X80811101Y-128198932D01*
X81029608Y-128019608D01*
X81208932Y-127801101D01*
X81342182Y-127551808D01*
X81424236Y-127281309D01*
X81451943Y-127000000D01*
X81424236Y-126718691D01*
X81342182Y-126448192D01*
X81208932Y-126198899D01*
X81029608Y-125980392D01*
X80811101Y-125801068D01*
X80561808Y-125667818D01*
X80291309Y-125585764D01*
X80080492Y-125565000D01*
X79939508Y-125565000D01*
X79728691Y-125585764D01*
X79458192Y-125667818D01*
X79208899Y-125801068D01*
X78990392Y-125980392D01*
X78811068Y-126198899D01*
X78677818Y-126448192D01*
X78595764Y-126718691D01*
X78568057Y-127000000D01*
X73828072Y-127000000D01*
X73828072Y-126200000D01*
X73815812Y-126075518D01*
X73779502Y-125955820D01*
X73720537Y-125845506D01*
X73641185Y-125748815D01*
X73544494Y-125669463D01*
X73434180Y-125610498D01*
X73314482Y-125574188D01*
X73190000Y-125561928D01*
X71590000Y-125561928D01*
X71465518Y-125574188D01*
X71345820Y-125610498D01*
X71235506Y-125669463D01*
X71138815Y-125748815D01*
X71059463Y-125845506D01*
X71000498Y-125955820D01*
X70964188Y-126075518D01*
X70951928Y-126200000D01*
X70951928Y-127800000D01*
X70964188Y-127924482D01*
X71000498Y-128044180D01*
X71059463Y-128154494D01*
X71138815Y-128251185D01*
X71235506Y-128330537D01*
X71345820Y-128389502D01*
X71465518Y-128425812D01*
X71483482Y-128427581D01*
X71370392Y-128520392D01*
X71191068Y-128738899D01*
X71057818Y-128988192D01*
X70975764Y-129258691D01*
X70948057Y-129540000D01*
X55936777Y-129540000D01*
X55990537Y-129474494D01*
X56049502Y-129364180D01*
X56085812Y-129244482D01*
X56098072Y-129120000D01*
X56098072Y-127420000D01*
X56085812Y-127295518D01*
X56049502Y-127175820D01*
X55990537Y-127065506D01*
X55911185Y-126968815D01*
X55814494Y-126889463D01*
X55704180Y-126830498D01*
X55635313Y-126809607D01*
X55665134Y-126785134D01*
X55850706Y-126559014D01*
X55988599Y-126301034D01*
X56073513Y-126021111D01*
X56102185Y-125730000D01*
X56073513Y-125438889D01*
X55988599Y-125158966D01*
X55850706Y-124900986D01*
X55665134Y-124674866D01*
X55439014Y-124489294D01*
X55181034Y-124351401D01*
X54901111Y-124266487D01*
X54682950Y-124245000D01*
X54537050Y-124245000D01*
X54318889Y-124266487D01*
X54038966Y-124351401D01*
X53780986Y-124489294D01*
X53554866Y-124674866D01*
X53369294Y-124900986D01*
X53231401Y-125158966D01*
X53146487Y-125438889D01*
X53117815Y-125730000D01*
X52197000Y-125730000D01*
X52197000Y-120650000D01*
X60839388Y-120650000D01*
X60861785Y-120877400D01*
X60928115Y-121096060D01*
X61029105Y-121285000D01*
X60928115Y-121473940D01*
X60861785Y-121692600D01*
X60839388Y-121920000D01*
X60861785Y-122147400D01*
X60925093Y-122356098D01*
X60890498Y-122420820D01*
X60854188Y-122540518D01*
X60841928Y-122665000D01*
X60841928Y-123715000D01*
X60854188Y-123839482D01*
X60890498Y-123959180D01*
X60949463Y-124069494D01*
X61028815Y-124166185D01*
X61125506Y-124245537D01*
X61235820Y-124304502D01*
X61355518Y-124340812D01*
X61480000Y-124353072D01*
X62980000Y-124353072D01*
X63104482Y-124340812D01*
X63224180Y-124304502D01*
X63334494Y-124245537D01*
X63431185Y-124166185D01*
X63510537Y-124069494D01*
X63569502Y-123959180D01*
X63605812Y-123839482D01*
X63618072Y-123715000D01*
X63618072Y-122665000D01*
X63605812Y-122540518D01*
X63569502Y-122420820D01*
X63534907Y-122356098D01*
X63598215Y-122147400D01*
X63620612Y-121920000D01*
X63598215Y-121692600D01*
X63531885Y-121473940D01*
X63430895Y-121285000D01*
X63531885Y-121096060D01*
X63598215Y-120877400D01*
X63620612Y-120650000D01*
X68459388Y-120650000D01*
X68481785Y-120877400D01*
X68548115Y-121096060D01*
X68649105Y-121285000D01*
X68548115Y-121473940D01*
X68481785Y-121692600D01*
X68459388Y-121920000D01*
X68481785Y-122147400D01*
X68545093Y-122356098D01*
X68510498Y-122420820D01*
X68474188Y-122540518D01*
X68461928Y-122665000D01*
X68461928Y-123715000D01*
X68474188Y-123839482D01*
X68510498Y-123959180D01*
X68569463Y-124069494D01*
X68648815Y-124166185D01*
X68745506Y-124245537D01*
X68855820Y-124304502D01*
X68975518Y-124340812D01*
X69100000Y-124353072D01*
X70600000Y-124353072D01*
X70724482Y-124340812D01*
X70844180Y-124304502D01*
X70954494Y-124245537D01*
X71051185Y-124166185D01*
X71130537Y-124069494D01*
X71189502Y-123959180D01*
X71225812Y-123839482D01*
X71238072Y-123715000D01*
X71238072Y-122665000D01*
X71225812Y-122540518D01*
X71189502Y-122420820D01*
X71154907Y-122356098D01*
X71218215Y-122147400D01*
X71240612Y-121920000D01*
X71218215Y-121692600D01*
X71151885Y-121473940D01*
X71050895Y-121285000D01*
X71151885Y-121096060D01*
X71218215Y-120877400D01*
X71240612Y-120650000D01*
X71218215Y-120422600D01*
X71151885Y-120203940D01*
X71044171Y-120002421D01*
X70899212Y-119825788D01*
X70722579Y-119680829D01*
X70521060Y-119573115D01*
X70302400Y-119506785D01*
X70131979Y-119490000D01*
X69568021Y-119490000D01*
X69397600Y-119506785D01*
X69178940Y-119573115D01*
X68977421Y-119680829D01*
X68800788Y-119825788D01*
X68655829Y-120002421D01*
X68548115Y-120203940D01*
X68481785Y-120422600D01*
X68459388Y-120650000D01*
X63620612Y-120650000D01*
X63598215Y-120422600D01*
X63531885Y-120203940D01*
X63424171Y-120002421D01*
X63279212Y-119825788D01*
X63102579Y-119680829D01*
X62901060Y-119573115D01*
X62682400Y-119506785D01*
X62511979Y-119490000D01*
X61948021Y-119490000D01*
X61777600Y-119506785D01*
X61558940Y-119573115D01*
X61357421Y-119680829D01*
X61180788Y-119825788D01*
X61035829Y-120002421D01*
X60928115Y-120203940D01*
X60861785Y-120422600D01*
X60839388Y-120650000D01*
X52197000Y-120650000D01*
X52197000Y-119380000D01*
X77097319Y-119380000D01*
X77127970Y-119691204D01*
X77218745Y-119990449D01*
X77366155Y-120266235D01*
X77564537Y-120507963D01*
X77806265Y-120706345D01*
X78082051Y-120853755D01*
X78381296Y-120944530D01*
X78614514Y-120967500D01*
X78865486Y-120967500D01*
X79098704Y-120944530D01*
X79397949Y-120853755D01*
X79673735Y-120706345D01*
X79915463Y-120507963D01*
X80113845Y-120266235D01*
X80261255Y-119990449D01*
X80352030Y-119691204D01*
X80382681Y-119380000D01*
X85987319Y-119380000D01*
X86017970Y-119691204D01*
X86108745Y-119990449D01*
X86256155Y-120266235D01*
X86454537Y-120507963D01*
X86696265Y-120706345D01*
X86972051Y-120853755D01*
X87271296Y-120944530D01*
X87504514Y-120967500D01*
X87755486Y-120967500D01*
X87988704Y-120944530D01*
X88287949Y-120853755D01*
X88563735Y-120706345D01*
X88805463Y-120507963D01*
X89003845Y-120266235D01*
X89151255Y-119990449D01*
X89242030Y-119691204D01*
X89272681Y-119380000D01*
X89242030Y-119068796D01*
X89151255Y-118769551D01*
X89003845Y-118493765D01*
X88805463Y-118252037D01*
X88626101Y-118104837D01*
X88811315Y-117949437D01*
X89005969Y-117706923D01*
X89149571Y-117431094D01*
X89220563Y-117212980D01*
X89100594Y-116967000D01*
X87757000Y-116967000D01*
X87757000Y-116987000D01*
X87503000Y-116987000D01*
X87503000Y-116967000D01*
X86159406Y-116967000D01*
X86039437Y-117212980D01*
X86110429Y-117431094D01*
X86254031Y-117706923D01*
X86448685Y-117949437D01*
X86633899Y-118104837D01*
X86454537Y-118252037D01*
X86256155Y-118493765D01*
X86108745Y-118769551D01*
X86017970Y-119068796D01*
X85987319Y-119380000D01*
X80382681Y-119380000D01*
X80352030Y-119068796D01*
X80261255Y-118769551D01*
X80113845Y-118493765D01*
X79915463Y-118252037D01*
X79736101Y-118104837D01*
X79921315Y-117949437D01*
X80115969Y-117706923D01*
X80259571Y-117431094D01*
X80330563Y-117212980D01*
X80210594Y-116967000D01*
X78867000Y-116967000D01*
X78867000Y-116987000D01*
X78613000Y-116987000D01*
X78613000Y-116967000D01*
X77269406Y-116967000D01*
X77149437Y-117212980D01*
X77220429Y-117431094D01*
X77364031Y-117706923D01*
X77558685Y-117949437D01*
X77743899Y-118104837D01*
X77564537Y-118252037D01*
X77366155Y-118493765D01*
X77218745Y-118769551D01*
X77127970Y-119068796D01*
X77097319Y-119380000D01*
X52197000Y-119380000D01*
X52197000Y-111930000D01*
X52871928Y-111930000D01*
X52871928Y-114130000D01*
X52884188Y-114254482D01*
X52920498Y-114374180D01*
X52979463Y-114484494D01*
X53058815Y-114581185D01*
X53155506Y-114660537D01*
X53265820Y-114719502D01*
X53385518Y-114755812D01*
X53510000Y-114768072D01*
X55710000Y-114768072D01*
X55834482Y-114755812D01*
X55954180Y-114719502D01*
X56064494Y-114660537D01*
X56161185Y-114581185D01*
X56240537Y-114484494D01*
X56299502Y-114374180D01*
X56335812Y-114254482D01*
X56348072Y-114130000D01*
X56348072Y-111930000D01*
X56335812Y-111805518D01*
X56299502Y-111685820D01*
X56240537Y-111575506D01*
X56161185Y-111478815D01*
X56064494Y-111399463D01*
X55954180Y-111340498D01*
X55834482Y-111304188D01*
X55710000Y-111291928D01*
X53510000Y-111291928D01*
X53385518Y-111304188D01*
X53265820Y-111340498D01*
X53155506Y-111399463D01*
X53058815Y-111478815D01*
X52979463Y-111575506D01*
X52920498Y-111685820D01*
X52884188Y-111805518D01*
X52871928Y-111930000D01*
X52197000Y-111930000D01*
X52197000Y-109220000D01*
X60587319Y-109220000D01*
X60617970Y-109531204D01*
X60708745Y-109830449D01*
X60856155Y-110106235D01*
X60959446Y-110232095D01*
X60875506Y-110276963D01*
X60778815Y-110356315D01*
X60699463Y-110453006D01*
X60640498Y-110563320D01*
X60604188Y-110683018D01*
X60591928Y-110807500D01*
X60591928Y-112712500D01*
X60604188Y-112836982D01*
X60640498Y-112956680D01*
X60699463Y-113066994D01*
X60778815Y-113163685D01*
X60875506Y-113243037D01*
X60985820Y-113302002D01*
X61105518Y-113338312D01*
X61230000Y-113350572D01*
X63230000Y-113350572D01*
X63354482Y-113338312D01*
X63474180Y-113302002D01*
X63584494Y-113243037D01*
X63681185Y-113163685D01*
X63760537Y-113066994D01*
X63819502Y-112956680D01*
X63855812Y-112836982D01*
X63868072Y-112712500D01*
X63868072Y-110807500D01*
X63855812Y-110683018D01*
X63819502Y-110563320D01*
X63760537Y-110453006D01*
X63681185Y-110356315D01*
X63584494Y-110276963D01*
X63500554Y-110232095D01*
X63603845Y-110106235D01*
X63751255Y-109830449D01*
X63842030Y-109531204D01*
X63872681Y-109220000D01*
X63842030Y-108908796D01*
X63751255Y-108609551D01*
X63603845Y-108333765D01*
X63405463Y-108092037D01*
X63226101Y-107944837D01*
X63411315Y-107789437D01*
X63605969Y-107546923D01*
X63749571Y-107271094D01*
X63820563Y-107052980D01*
X63700594Y-106807000D01*
X62357000Y-106807000D01*
X62357000Y-106827000D01*
X62103000Y-106827000D01*
X62103000Y-106807000D01*
X60759406Y-106807000D01*
X60639437Y-107052980D01*
X60710429Y-107271094D01*
X60854031Y-107546923D01*
X61048685Y-107789437D01*
X61233899Y-107944837D01*
X61054537Y-108092037D01*
X60856155Y-108333765D01*
X60708745Y-108609551D01*
X60617970Y-108908796D01*
X60587319Y-109220000D01*
X52197000Y-109220000D01*
X52197000Y-105806123D01*
X52920821Y-105806123D01*
X53030558Y-106128054D01*
X53200992Y-106422391D01*
X53425573Y-106677822D01*
X53695671Y-106884531D01*
X54000906Y-107034575D01*
X54213878Y-107099175D01*
X54483000Y-106981125D01*
X54483000Y-105537000D01*
X54737000Y-105537000D01*
X54737000Y-106981125D01*
X55006122Y-107099175D01*
X55219094Y-107034575D01*
X55524329Y-106884531D01*
X55791581Y-106680000D01*
X68207319Y-106680000D01*
X68237970Y-106991204D01*
X68328745Y-107290449D01*
X68476155Y-107566235D01*
X68674537Y-107807963D01*
X68847609Y-107950000D01*
X68674537Y-108092037D01*
X68476155Y-108333765D01*
X68328745Y-108609551D01*
X68237970Y-108908796D01*
X68207319Y-109220000D01*
X68237970Y-109531204D01*
X68328745Y-109830449D01*
X68476155Y-110106235D01*
X68579446Y-110232095D01*
X68495506Y-110276963D01*
X68398815Y-110356315D01*
X68319463Y-110453006D01*
X68260498Y-110563320D01*
X68224188Y-110683018D01*
X68211928Y-110807500D01*
X68211928Y-112712500D01*
X68224188Y-112836982D01*
X68260498Y-112956680D01*
X68319463Y-113066994D01*
X68398815Y-113163685D01*
X68495506Y-113243037D01*
X68605820Y-113302002D01*
X68725518Y-113338312D01*
X68850000Y-113350572D01*
X70850000Y-113350572D01*
X70881191Y-113347500D01*
X77101928Y-113347500D01*
X77101928Y-115252500D01*
X77114188Y-115376982D01*
X77150498Y-115496680D01*
X77209463Y-115606994D01*
X77288815Y-115703685D01*
X77385506Y-115783037D01*
X77477219Y-115832059D01*
X77364031Y-115973077D01*
X77220429Y-116248906D01*
X77149437Y-116467020D01*
X77269406Y-116713000D01*
X78613000Y-116713000D01*
X78613000Y-116693000D01*
X78867000Y-116693000D01*
X78867000Y-116713000D01*
X80210594Y-116713000D01*
X80330563Y-116467020D01*
X80259571Y-116248906D01*
X80115969Y-115973077D01*
X80002781Y-115832059D01*
X80094494Y-115783037D01*
X80191185Y-115703685D01*
X80270537Y-115606994D01*
X80329502Y-115496680D01*
X80365812Y-115376982D01*
X80378072Y-115252500D01*
X80378072Y-113347500D01*
X85991928Y-113347500D01*
X85991928Y-115252500D01*
X86004188Y-115376982D01*
X86040498Y-115496680D01*
X86099463Y-115606994D01*
X86178815Y-115703685D01*
X86275506Y-115783037D01*
X86367219Y-115832059D01*
X86254031Y-115973077D01*
X86110429Y-116248906D01*
X86039437Y-116467020D01*
X86159406Y-116713000D01*
X87503000Y-116713000D01*
X87503000Y-116693000D01*
X87757000Y-116693000D01*
X87757000Y-116713000D01*
X89100594Y-116713000D01*
X89220563Y-116467020D01*
X89149571Y-116248906D01*
X89005969Y-115973077D01*
X88892781Y-115832059D01*
X88984494Y-115783037D01*
X89081185Y-115703685D01*
X89160537Y-115606994D01*
X89219502Y-115496680D01*
X89255812Y-115376982D01*
X89268072Y-115252500D01*
X89268072Y-113347500D01*
X89255812Y-113223018D01*
X89219502Y-113103320D01*
X89160537Y-112993006D01*
X89081185Y-112896315D01*
X88984494Y-112816963D01*
X88874180Y-112757998D01*
X88754482Y-112721688D01*
X88630000Y-112709428D01*
X86630000Y-112709428D01*
X86505518Y-112721688D01*
X86385820Y-112757998D01*
X86275506Y-112816963D01*
X86178815Y-112896315D01*
X86099463Y-112993006D01*
X86040498Y-113103320D01*
X86004188Y-113223018D01*
X85991928Y-113347500D01*
X80378072Y-113347500D01*
X80365812Y-113223018D01*
X80329502Y-113103320D01*
X80270537Y-112993006D01*
X80191185Y-112896315D01*
X80094494Y-112816963D01*
X79984180Y-112757998D01*
X79864482Y-112721688D01*
X79740000Y-112709428D01*
X77740000Y-112709428D01*
X77615518Y-112721688D01*
X77495820Y-112757998D01*
X77385506Y-112816963D01*
X77288815Y-112896315D01*
X77209463Y-112993006D01*
X77150498Y-113103320D01*
X77114188Y-113223018D01*
X77101928Y-113347500D01*
X70881191Y-113347500D01*
X70974482Y-113338312D01*
X71094180Y-113302002D01*
X71204494Y-113243037D01*
X71301185Y-113163685D01*
X71380537Y-113066994D01*
X71439502Y-112956680D01*
X71475812Y-112836982D01*
X71488072Y-112712500D01*
X71488072Y-110807500D01*
X71475812Y-110683018D01*
X71439502Y-110563320D01*
X71380537Y-110453006D01*
X71301185Y-110356315D01*
X71204494Y-110276963D01*
X71120554Y-110232095D01*
X71223845Y-110106235D01*
X71371255Y-109830449D01*
X71462030Y-109531204D01*
X71492681Y-109220000D01*
X71462030Y-108908796D01*
X71371255Y-108609551D01*
X71223845Y-108333765D01*
X71025463Y-108092037D01*
X70852391Y-107950000D01*
X71025463Y-107807963D01*
X71223845Y-107566235D01*
X71371255Y-107290449D01*
X71462030Y-106991204D01*
X71492681Y-106680000D01*
X72218057Y-106680000D01*
X72245764Y-106961309D01*
X72327818Y-107231808D01*
X72461068Y-107481101D01*
X72640392Y-107699608D01*
X72858899Y-107878932D01*
X73108192Y-108012182D01*
X73378691Y-108094236D01*
X73589508Y-108115000D01*
X73730492Y-108115000D01*
X73941309Y-108094236D01*
X74211808Y-108012182D01*
X74461101Y-107878932D01*
X74679608Y-107699608D01*
X74858932Y-107481101D01*
X74992182Y-107231808D01*
X75074236Y-106961309D01*
X75101943Y-106680000D01*
X75088023Y-106538665D01*
X79845000Y-106538665D01*
X79845000Y-106821335D01*
X79900147Y-107098574D01*
X80008320Y-107359727D01*
X80165363Y-107594759D01*
X80365241Y-107794637D01*
X80600273Y-107951680D01*
X80861426Y-108059853D01*
X81138665Y-108115000D01*
X81421335Y-108115000D01*
X81698574Y-108059853D01*
X81959727Y-107951680D01*
X82194759Y-107794637D01*
X82394637Y-107594759D01*
X82551680Y-107359727D01*
X82659853Y-107098574D01*
X82715000Y-106821335D01*
X82715000Y-106538665D01*
X82659853Y-106261426D01*
X82551680Y-106000273D01*
X82394637Y-105765241D01*
X82194759Y-105565363D01*
X81959727Y-105408320D01*
X81698574Y-105300147D01*
X81421335Y-105245000D01*
X81138665Y-105245000D01*
X80861426Y-105300147D01*
X80600273Y-105408320D01*
X80365241Y-105565363D01*
X80165363Y-105765241D01*
X80008320Y-106000273D01*
X79900147Y-106261426D01*
X79845000Y-106538665D01*
X75088023Y-106538665D01*
X75074236Y-106398691D01*
X74992182Y-106128192D01*
X74858932Y-105878899D01*
X74679608Y-105660392D01*
X74461101Y-105481068D01*
X74211808Y-105347818D01*
X73941309Y-105265764D01*
X73730492Y-105245000D01*
X73589508Y-105245000D01*
X73378691Y-105265764D01*
X73108192Y-105347818D01*
X72858899Y-105481068D01*
X72640392Y-105660392D01*
X72461068Y-105878899D01*
X72327818Y-106128192D01*
X72245764Y-106398691D01*
X72218057Y-106680000D01*
X71492681Y-106680000D01*
X71462030Y-106368796D01*
X71371255Y-106069551D01*
X71223845Y-105793765D01*
X71025463Y-105552037D01*
X70783735Y-105353655D01*
X70507949Y-105206245D01*
X70208704Y-105115470D01*
X69975486Y-105092500D01*
X69724514Y-105092500D01*
X69491296Y-105115470D01*
X69192051Y-105206245D01*
X68916265Y-105353655D01*
X68674537Y-105552037D01*
X68476155Y-105793765D01*
X68328745Y-106069551D01*
X68237970Y-106368796D01*
X68207319Y-106680000D01*
X55791581Y-106680000D01*
X55794427Y-106677822D01*
X56019008Y-106422391D01*
X56085812Y-106307020D01*
X60639437Y-106307020D01*
X60759406Y-106553000D01*
X62103000Y-106553000D01*
X62103000Y-105254430D01*
X62357000Y-105254430D01*
X62357000Y-106553000D01*
X63700594Y-106553000D01*
X63820563Y-106307020D01*
X63749571Y-106088906D01*
X63605969Y-105813077D01*
X63411315Y-105570563D01*
X63173089Y-105370684D01*
X62900446Y-105221121D01*
X62603863Y-105127622D01*
X62357000Y-105254430D01*
X62103000Y-105254430D01*
X61856137Y-105127622D01*
X61559554Y-105221121D01*
X61286911Y-105370684D01*
X61048685Y-105570563D01*
X60854031Y-105813077D01*
X60710429Y-106088906D01*
X60639437Y-106307020D01*
X56085812Y-106307020D01*
X56189442Y-106128054D01*
X56299179Y-105806123D01*
X56181600Y-105537000D01*
X54737000Y-105537000D01*
X54483000Y-105537000D01*
X53038400Y-105537000D01*
X52920821Y-105806123D01*
X52197000Y-105806123D01*
X52197000Y-105013877D01*
X52920821Y-105013877D01*
X53038400Y-105283000D01*
X54483000Y-105283000D01*
X54483000Y-103838875D01*
X54737000Y-103838875D01*
X54737000Y-105283000D01*
X56181600Y-105283000D01*
X56299179Y-105013877D01*
X56189442Y-104691946D01*
X56019008Y-104397609D01*
X55794427Y-104142178D01*
X55524329Y-103935469D01*
X55219094Y-103785425D01*
X55006122Y-103720825D01*
X54737000Y-103838875D01*
X54483000Y-103838875D01*
X54213878Y-103720825D01*
X54000906Y-103785425D01*
X53695671Y-103935469D01*
X53425573Y-104142178D01*
X53200992Y-104397609D01*
X53030558Y-104691946D01*
X52920821Y-105013877D01*
X52197000Y-105013877D01*
X52197000Y-101770000D01*
X78271928Y-101770000D01*
X78271928Y-103970000D01*
X78284188Y-104094482D01*
X78320498Y-104214180D01*
X78379463Y-104324494D01*
X78458815Y-104421185D01*
X78555506Y-104500537D01*
X78665820Y-104559502D01*
X78785518Y-104595812D01*
X78910000Y-104608072D01*
X81110000Y-104608072D01*
X81234482Y-104595812D01*
X81354180Y-104559502D01*
X81464494Y-104500537D01*
X81561185Y-104421185D01*
X81640537Y-104324494D01*
X81699502Y-104214180D01*
X81735812Y-104094482D01*
X81748072Y-103970000D01*
X81748072Y-101770000D01*
X81735812Y-101645518D01*
X81728072Y-101620000D01*
X84741928Y-101620000D01*
X84741928Y-104120000D01*
X84754188Y-104244482D01*
X84790498Y-104364180D01*
X84849463Y-104474494D01*
X84928815Y-104571185D01*
X85025506Y-104650537D01*
X85135820Y-104709502D01*
X85255518Y-104745812D01*
X85380000Y-104758072D01*
X89880000Y-104758072D01*
X90004482Y-104745812D01*
X90124180Y-104709502D01*
X90234494Y-104650537D01*
X90331185Y-104571185D01*
X90410537Y-104474494D01*
X90469502Y-104364180D01*
X90505812Y-104244482D01*
X90518072Y-104120000D01*
X90518072Y-101620000D01*
X90505812Y-101495518D01*
X90469502Y-101375820D01*
X90410537Y-101265506D01*
X90331185Y-101168815D01*
X90234494Y-101089463D01*
X90124180Y-101030498D01*
X90004482Y-100994188D01*
X89880000Y-100981928D01*
X85380000Y-100981928D01*
X85255518Y-100994188D01*
X85135820Y-101030498D01*
X85025506Y-101089463D01*
X84928815Y-101168815D01*
X84849463Y-101265506D01*
X84790498Y-101375820D01*
X84754188Y-101495518D01*
X84741928Y-101620000D01*
X81728072Y-101620000D01*
X81699502Y-101525820D01*
X81640537Y-101415506D01*
X81561185Y-101318815D01*
X81464494Y-101239463D01*
X81354180Y-101180498D01*
X81234482Y-101144188D01*
X81110000Y-101131928D01*
X78910000Y-101131928D01*
X78785518Y-101144188D01*
X78665820Y-101180498D01*
X78555506Y-101239463D01*
X78458815Y-101318815D01*
X78379463Y-101415506D01*
X78320498Y-101525820D01*
X78284188Y-101645518D01*
X78271928Y-101770000D01*
X52197000Y-101770000D01*
X52197000Y-97420000D01*
X84735880Y-97420000D01*
X84772275Y-97789524D01*
X84880061Y-98144848D01*
X85055097Y-98472317D01*
X85290655Y-98759345D01*
X85577683Y-98994903D01*
X85905152Y-99169939D01*
X86260476Y-99277725D01*
X86537403Y-99305000D01*
X88722597Y-99305000D01*
X88999524Y-99277725D01*
X89354848Y-99169939D01*
X89682317Y-98994903D01*
X89969345Y-98759345D01*
X90204903Y-98472317D01*
X90379939Y-98144848D01*
X90487725Y-97789524D01*
X90524120Y-97420000D01*
X90487725Y-97050476D01*
X90379939Y-96695152D01*
X90204903Y-96367683D01*
X89969345Y-96080655D01*
X89682317Y-95845097D01*
X89354848Y-95670061D01*
X88999524Y-95562275D01*
X88722597Y-95535000D01*
X86537403Y-95535000D01*
X86260476Y-95562275D01*
X85905152Y-95670061D01*
X85577683Y-95845097D01*
X85290655Y-96080655D01*
X85055097Y-96367683D01*
X84880061Y-96695152D01*
X84772275Y-97050476D01*
X84735880Y-97420000D01*
X52197000Y-97420000D01*
X52197000Y-95646123D01*
X78320821Y-95646123D01*
X78430558Y-95968054D01*
X78600992Y-96262391D01*
X78825573Y-96517822D01*
X79095671Y-96724531D01*
X79400906Y-96874575D01*
X79613878Y-96939175D01*
X79883000Y-96821125D01*
X79883000Y-95377000D01*
X80137000Y-95377000D01*
X80137000Y-96821125D01*
X80406122Y-96939175D01*
X80619094Y-96874575D01*
X80924329Y-96724531D01*
X81194427Y-96517822D01*
X81419008Y-96262391D01*
X81589442Y-95968054D01*
X81699179Y-95646123D01*
X81581600Y-95377000D01*
X80137000Y-95377000D01*
X79883000Y-95377000D01*
X78438400Y-95377000D01*
X78320821Y-95646123D01*
X52197000Y-95646123D01*
X52197000Y-94853877D01*
X78320821Y-94853877D01*
X78438400Y-95123000D01*
X79883000Y-95123000D01*
X79883000Y-93678875D01*
X80137000Y-93678875D01*
X80137000Y-95123000D01*
X81581600Y-95123000D01*
X81699179Y-94853877D01*
X81589442Y-94531946D01*
X81419008Y-94237609D01*
X81194427Y-93982178D01*
X80924329Y-93775469D01*
X80619094Y-93625425D01*
X80406122Y-93560825D01*
X80137000Y-93678875D01*
X79883000Y-93678875D01*
X79613878Y-93560825D01*
X79400906Y-93625425D01*
X79095671Y-93775469D01*
X78825573Y-93982178D01*
X78600992Y-94237609D01*
X78430558Y-94531946D01*
X78320821Y-94853877D01*
X52197000Y-94853877D01*
X52197000Y-92389645D01*
X84792305Y-92389645D01*
X84839886Y-92574025D01*
X84992122Y-92911653D01*
X85207301Y-93213094D01*
X85477153Y-93466763D01*
X85791309Y-93662912D01*
X86137695Y-93794004D01*
X86503000Y-93855000D01*
X87503000Y-93855000D01*
X87503000Y-92097000D01*
X87757000Y-92097000D01*
X87757000Y-93855000D01*
X88757000Y-93855000D01*
X89122305Y-93794004D01*
X89468691Y-93662912D01*
X89782847Y-93466763D01*
X90052699Y-93213094D01*
X90267878Y-92911653D01*
X90282150Y-92880000D01*
X93511928Y-92880000D01*
X93511928Y-95080000D01*
X93524188Y-95204482D01*
X93560498Y-95324180D01*
X93619463Y-95434494D01*
X93698815Y-95531185D01*
X93795506Y-95610537D01*
X93905820Y-95669502D01*
X94025518Y-95705812D01*
X94150000Y-95718072D01*
X96350000Y-95718072D01*
X96474482Y-95705812D01*
X96594180Y-95669502D01*
X96704494Y-95610537D01*
X96801185Y-95531185D01*
X96880537Y-95434494D01*
X96939502Y-95324180D01*
X96975812Y-95204482D01*
X96988072Y-95080000D01*
X96988072Y-92880000D01*
X96975812Y-92755518D01*
X96939502Y-92635820D01*
X96880537Y-92525506D01*
X96801185Y-92428815D01*
X96704494Y-92349463D01*
X96594180Y-92290498D01*
X96474482Y-92254188D01*
X96350000Y-92241928D01*
X94150000Y-92241928D01*
X94025518Y-92254188D01*
X93905820Y-92290498D01*
X93795506Y-92349463D01*
X93698815Y-92428815D01*
X93619463Y-92525506D01*
X93560498Y-92635820D01*
X93524188Y-92755518D01*
X93511928Y-92880000D01*
X90282150Y-92880000D01*
X90420114Y-92574025D01*
X90467695Y-92389645D01*
X90351572Y-92097000D01*
X87757000Y-92097000D01*
X87503000Y-92097000D01*
X84908428Y-92097000D01*
X84792305Y-92389645D01*
X52197000Y-92389645D01*
X52197000Y-91550355D01*
X84792305Y-91550355D01*
X84908428Y-91843000D01*
X87503000Y-91843000D01*
X87503000Y-90085000D01*
X87757000Y-90085000D01*
X87757000Y-91843000D01*
X90351572Y-91843000D01*
X90467695Y-91550355D01*
X90420114Y-91365975D01*
X90267878Y-91028347D01*
X90052699Y-90726906D01*
X89782847Y-90473237D01*
X89468691Y-90277088D01*
X89122305Y-90145996D01*
X88757000Y-90085000D01*
X87757000Y-90085000D01*
X87503000Y-90085000D01*
X86503000Y-90085000D01*
X86137695Y-90145996D01*
X85791309Y-90277088D01*
X85477153Y-90473237D01*
X85207301Y-90726906D01*
X84992122Y-91028347D01*
X84839886Y-91365975D01*
X84792305Y-91550355D01*
X52197000Y-91550355D01*
X52197000Y-87709224D01*
X55980381Y-87709224D01*
X56112317Y-88004312D01*
X56453045Y-88175159D01*
X56820557Y-88276250D01*
X57200729Y-88303701D01*
X57578951Y-88256457D01*
X57940690Y-88136333D01*
X58187683Y-88004312D01*
X58319619Y-87709224D01*
X57150000Y-86539605D01*
X55980381Y-87709224D01*
X52197000Y-87709224D01*
X52197000Y-86410729D01*
X55206299Y-86410729D01*
X55253543Y-86788951D01*
X55373667Y-87150690D01*
X55505688Y-87397683D01*
X55800776Y-87529619D01*
X56970395Y-86360000D01*
X57329605Y-86360000D01*
X58499224Y-87529619D01*
X58794312Y-87397683D01*
X58965159Y-87056955D01*
X58969079Y-87042702D01*
X67766903Y-87042702D01*
X67838486Y-87286671D01*
X68093996Y-87407571D01*
X68368184Y-87476300D01*
X68650512Y-87490217D01*
X68930130Y-87448787D01*
X69196292Y-87353603D01*
X69321514Y-87286671D01*
X69325612Y-87272702D01*
X74116903Y-87272702D01*
X74188486Y-87516671D01*
X74443996Y-87637571D01*
X74718184Y-87706300D01*
X75000512Y-87720217D01*
X75280130Y-87678787D01*
X75546292Y-87583603D01*
X75671514Y-87516671D01*
X75743097Y-87272702D01*
X77926903Y-87272702D01*
X77998486Y-87516671D01*
X78253996Y-87637571D01*
X78528184Y-87706300D01*
X78810512Y-87720217D01*
X79090130Y-87678787D01*
X79356292Y-87583603D01*
X79481514Y-87516671D01*
X79553097Y-87272702D01*
X81736903Y-87272702D01*
X81808486Y-87516671D01*
X82063996Y-87637571D01*
X82338184Y-87706300D01*
X82620512Y-87720217D01*
X82900130Y-87678787D01*
X83166292Y-87583603D01*
X83291514Y-87516671D01*
X83363097Y-87272702D01*
X85546903Y-87272702D01*
X85618486Y-87516671D01*
X85873996Y-87637571D01*
X86148184Y-87706300D01*
X86430512Y-87720217D01*
X86710130Y-87678787D01*
X86976292Y-87583603D01*
X87101514Y-87516671D01*
X87173097Y-87272702D01*
X86360000Y-86459605D01*
X85546903Y-87272702D01*
X83363097Y-87272702D01*
X82550000Y-86459605D01*
X81736903Y-87272702D01*
X79553097Y-87272702D01*
X78740000Y-86459605D01*
X77926903Y-87272702D01*
X75743097Y-87272702D01*
X74930000Y-86459605D01*
X74116903Y-87272702D01*
X69325612Y-87272702D01*
X69393097Y-87042702D01*
X68580000Y-86229605D01*
X67766903Y-87042702D01*
X58969079Y-87042702D01*
X59066250Y-86689443D01*
X59093701Y-86309271D01*
X59070123Y-86120512D01*
X67139783Y-86120512D01*
X67181213Y-86400130D01*
X67276397Y-86666292D01*
X67343329Y-86791514D01*
X67587298Y-86863097D01*
X68400395Y-86050000D01*
X68759605Y-86050000D01*
X69572702Y-86863097D01*
X69816671Y-86791514D01*
X69937571Y-86536004D01*
X69984067Y-86350512D01*
X73489783Y-86350512D01*
X73531213Y-86630130D01*
X73626397Y-86896292D01*
X73693329Y-87021514D01*
X73937298Y-87093097D01*
X74750395Y-86280000D01*
X75109605Y-86280000D01*
X75922702Y-87093097D01*
X76166671Y-87021514D01*
X76287571Y-86766004D01*
X76356300Y-86491816D01*
X76363265Y-86350512D01*
X77299783Y-86350512D01*
X77341213Y-86630130D01*
X77436397Y-86896292D01*
X77503329Y-87021514D01*
X77747298Y-87093097D01*
X78560395Y-86280000D01*
X78919605Y-86280000D01*
X79732702Y-87093097D01*
X79976671Y-87021514D01*
X80097571Y-86766004D01*
X80166300Y-86491816D01*
X80173265Y-86350512D01*
X81109783Y-86350512D01*
X81151213Y-86630130D01*
X81246397Y-86896292D01*
X81313329Y-87021514D01*
X81557298Y-87093097D01*
X82370395Y-86280000D01*
X82729605Y-86280000D01*
X83542702Y-87093097D01*
X83786671Y-87021514D01*
X83907571Y-86766004D01*
X83976300Y-86491816D01*
X83983265Y-86350512D01*
X84919783Y-86350512D01*
X84961213Y-86630130D01*
X85056397Y-86896292D01*
X85123329Y-87021514D01*
X85367298Y-87093097D01*
X86180395Y-86280000D01*
X86539605Y-86280000D01*
X87352702Y-87093097D01*
X87596671Y-87021514D01*
X87717571Y-86766004D01*
X87720047Y-86756123D01*
X93560821Y-86756123D01*
X93670558Y-87078054D01*
X93840992Y-87372391D01*
X94065573Y-87627822D01*
X94335671Y-87834531D01*
X94640906Y-87984575D01*
X94853878Y-88049175D01*
X95123000Y-87931125D01*
X95123000Y-86487000D01*
X95377000Y-86487000D01*
X95377000Y-87931125D01*
X95646122Y-88049175D01*
X95859094Y-87984575D01*
X96164329Y-87834531D01*
X96434427Y-87627822D01*
X96659008Y-87372391D01*
X96829442Y-87078054D01*
X96939179Y-86756123D01*
X96821600Y-86487000D01*
X95377000Y-86487000D01*
X95123000Y-86487000D01*
X93678400Y-86487000D01*
X93560821Y-86756123D01*
X87720047Y-86756123D01*
X87786300Y-86491816D01*
X87800217Y-86209488D01*
X87763826Y-85963877D01*
X93560821Y-85963877D01*
X93678400Y-86233000D01*
X95123000Y-86233000D01*
X95123000Y-84788875D01*
X95377000Y-84788875D01*
X95377000Y-86233000D01*
X96821600Y-86233000D01*
X96939179Y-85963877D01*
X96829442Y-85641946D01*
X96659008Y-85347609D01*
X96434427Y-85092178D01*
X96164329Y-84885469D01*
X95859094Y-84735425D01*
X95646122Y-84670825D01*
X95377000Y-84788875D01*
X95123000Y-84788875D01*
X94853878Y-84670825D01*
X94640906Y-84735425D01*
X94335671Y-84885469D01*
X94065573Y-85092178D01*
X93840992Y-85347609D01*
X93670558Y-85641946D01*
X93560821Y-85963877D01*
X87763826Y-85963877D01*
X87758787Y-85929870D01*
X87663603Y-85663708D01*
X87596671Y-85538486D01*
X87352702Y-85466903D01*
X86539605Y-86280000D01*
X86180395Y-86280000D01*
X85367298Y-85466903D01*
X85123329Y-85538486D01*
X85002429Y-85793996D01*
X84933700Y-86068184D01*
X84919783Y-86350512D01*
X83983265Y-86350512D01*
X83990217Y-86209488D01*
X83948787Y-85929870D01*
X83853603Y-85663708D01*
X83786671Y-85538486D01*
X83542702Y-85466903D01*
X82729605Y-86280000D01*
X82370395Y-86280000D01*
X81557298Y-85466903D01*
X81313329Y-85538486D01*
X81192429Y-85793996D01*
X81123700Y-86068184D01*
X81109783Y-86350512D01*
X80173265Y-86350512D01*
X80180217Y-86209488D01*
X80138787Y-85929870D01*
X80043603Y-85663708D01*
X79976671Y-85538486D01*
X79732702Y-85466903D01*
X78919605Y-86280000D01*
X78560395Y-86280000D01*
X77747298Y-85466903D01*
X77503329Y-85538486D01*
X77382429Y-85793996D01*
X77313700Y-86068184D01*
X77299783Y-86350512D01*
X76363265Y-86350512D01*
X76370217Y-86209488D01*
X76328787Y-85929870D01*
X76233603Y-85663708D01*
X76166671Y-85538486D01*
X75922702Y-85466903D01*
X75109605Y-86280000D01*
X74750395Y-86280000D01*
X73937298Y-85466903D01*
X73693329Y-85538486D01*
X73572429Y-85793996D01*
X73503700Y-86068184D01*
X73489783Y-86350512D01*
X69984067Y-86350512D01*
X70006300Y-86261816D01*
X70020217Y-85979488D01*
X69978787Y-85699870D01*
X69883603Y-85433708D01*
X69816671Y-85308486D01*
X69744459Y-85287298D01*
X74116903Y-85287298D01*
X74930000Y-86100395D01*
X75743097Y-85287298D01*
X77926903Y-85287298D01*
X78740000Y-86100395D01*
X79553097Y-85287298D01*
X81736903Y-85287298D01*
X82550000Y-86100395D01*
X83363097Y-85287298D01*
X85546903Y-85287298D01*
X86360000Y-86100395D01*
X87173097Y-85287298D01*
X87101514Y-85043329D01*
X86846004Y-84922429D01*
X86571816Y-84853700D01*
X86289488Y-84839783D01*
X86009870Y-84881213D01*
X85743708Y-84976397D01*
X85618486Y-85043329D01*
X85546903Y-85287298D01*
X83363097Y-85287298D01*
X83291514Y-85043329D01*
X83036004Y-84922429D01*
X82761816Y-84853700D01*
X82479488Y-84839783D01*
X82199870Y-84881213D01*
X81933708Y-84976397D01*
X81808486Y-85043329D01*
X81736903Y-85287298D01*
X79553097Y-85287298D01*
X79481514Y-85043329D01*
X79226004Y-84922429D01*
X78951816Y-84853700D01*
X78669488Y-84839783D01*
X78389870Y-84881213D01*
X78123708Y-84976397D01*
X77998486Y-85043329D01*
X77926903Y-85287298D01*
X75743097Y-85287298D01*
X75671514Y-85043329D01*
X75416004Y-84922429D01*
X75141816Y-84853700D01*
X74859488Y-84839783D01*
X74579870Y-84881213D01*
X74313708Y-84976397D01*
X74188486Y-85043329D01*
X74116903Y-85287298D01*
X69744459Y-85287298D01*
X69572702Y-85236903D01*
X68759605Y-86050000D01*
X68400395Y-86050000D01*
X67587298Y-85236903D01*
X67343329Y-85308486D01*
X67222429Y-85563996D01*
X67153700Y-85838184D01*
X67139783Y-86120512D01*
X59070123Y-86120512D01*
X59046457Y-85931049D01*
X58926333Y-85569310D01*
X58794312Y-85322317D01*
X58499224Y-85190381D01*
X57329605Y-86360000D01*
X56970395Y-86360000D01*
X55800776Y-85190381D01*
X55505688Y-85322317D01*
X55334841Y-85663045D01*
X55233750Y-86030557D01*
X55206299Y-86410729D01*
X52197000Y-86410729D01*
X52197000Y-85010776D01*
X55980381Y-85010776D01*
X57150000Y-86180395D01*
X58273097Y-85057298D01*
X67766903Y-85057298D01*
X68580000Y-85870395D01*
X69393097Y-85057298D01*
X69321514Y-84813329D01*
X69066004Y-84692429D01*
X68791816Y-84623700D01*
X68509488Y-84609783D01*
X68229870Y-84651213D01*
X67963708Y-84746397D01*
X67838486Y-84813329D01*
X67766903Y-85057298D01*
X58273097Y-85057298D01*
X58319619Y-85010776D01*
X58187683Y-84715688D01*
X57846955Y-84544841D01*
X57479443Y-84443750D01*
X57099271Y-84416299D01*
X56721049Y-84463543D01*
X56359310Y-84583667D01*
X56112317Y-84715688D01*
X55980381Y-85010776D01*
X52197000Y-85010776D01*
X52197000Y-79980000D01*
X55211928Y-79980000D01*
X55211928Y-82580000D01*
X55224188Y-82704482D01*
X55260498Y-82824180D01*
X55319463Y-82934494D01*
X55398815Y-83031185D01*
X55495506Y-83110537D01*
X55605820Y-83169502D01*
X55725518Y-83205812D01*
X55850000Y-83218072D01*
X58450000Y-83218072D01*
X58574482Y-83205812D01*
X58694180Y-83169502D01*
X58804494Y-83110537D01*
X58901185Y-83031185D01*
X58980537Y-82934494D01*
X59039502Y-82824180D01*
X59075812Y-82704482D01*
X59088072Y-82580000D01*
X59088072Y-81750000D01*
X67141928Y-81750000D01*
X67141928Y-83350000D01*
X67154188Y-83474482D01*
X67190498Y-83594180D01*
X67249463Y-83704494D01*
X67328815Y-83801185D01*
X67425506Y-83880537D01*
X67535820Y-83939502D01*
X67655518Y-83975812D01*
X67780000Y-83988072D01*
X69380000Y-83988072D01*
X69504482Y-83975812D01*
X69624180Y-83939502D01*
X69734494Y-83880537D01*
X69831185Y-83801185D01*
X69910537Y-83704494D01*
X69969502Y-83594180D01*
X70005812Y-83474482D01*
X70018072Y-83350000D01*
X70018072Y-81750000D01*
X70005812Y-81625518D01*
X69969502Y-81505820D01*
X69910537Y-81395506D01*
X69831185Y-81298815D01*
X69734494Y-81219463D01*
X69624180Y-81160498D01*
X69552207Y-81138665D01*
X73495000Y-81138665D01*
X73495000Y-81421335D01*
X73550147Y-81698574D01*
X73658320Y-81959727D01*
X73815363Y-82194759D01*
X74015241Y-82394637D01*
X74250273Y-82551680D01*
X74511426Y-82659853D01*
X74788665Y-82715000D01*
X75071335Y-82715000D01*
X75348574Y-82659853D01*
X75609727Y-82551680D01*
X75844759Y-82394637D01*
X76044637Y-82194759D01*
X76201680Y-81959727D01*
X76309853Y-81698574D01*
X76365000Y-81421335D01*
X76365000Y-81138665D01*
X77305000Y-81138665D01*
X77305000Y-81421335D01*
X77360147Y-81698574D01*
X77468320Y-81959727D01*
X77625363Y-82194759D01*
X77825241Y-82394637D01*
X78060273Y-82551680D01*
X78321426Y-82659853D01*
X78598665Y-82715000D01*
X78881335Y-82715000D01*
X79158574Y-82659853D01*
X79419727Y-82551680D01*
X79654759Y-82394637D01*
X79854637Y-82194759D01*
X80011680Y-81959727D01*
X80119853Y-81698574D01*
X80175000Y-81421335D01*
X80175000Y-81138665D01*
X81115000Y-81138665D01*
X81115000Y-81421335D01*
X81170147Y-81698574D01*
X81278320Y-81959727D01*
X81435363Y-82194759D01*
X81635241Y-82394637D01*
X81870273Y-82551680D01*
X82131426Y-82659853D01*
X82408665Y-82715000D01*
X82691335Y-82715000D01*
X82968574Y-82659853D01*
X83229727Y-82551680D01*
X83464759Y-82394637D01*
X83664637Y-82194759D01*
X83821680Y-81959727D01*
X83929853Y-81698574D01*
X83985000Y-81421335D01*
X83985000Y-81138665D01*
X84925000Y-81138665D01*
X84925000Y-81421335D01*
X84980147Y-81698574D01*
X85088320Y-81959727D01*
X85245363Y-82194759D01*
X85445241Y-82394637D01*
X85680273Y-82551680D01*
X85941426Y-82659853D01*
X86218665Y-82715000D01*
X86501335Y-82715000D01*
X86778574Y-82659853D01*
X87039727Y-82551680D01*
X87274759Y-82394637D01*
X87474637Y-82194759D01*
X87631680Y-81959727D01*
X87739853Y-81698574D01*
X87795000Y-81421335D01*
X87795000Y-81138665D01*
X87739853Y-80861426D01*
X87631680Y-80600273D01*
X87474637Y-80365241D01*
X87274759Y-80165363D01*
X87039727Y-80008320D01*
X86778574Y-79900147D01*
X86501335Y-79845000D01*
X86218665Y-79845000D01*
X85941426Y-79900147D01*
X85680273Y-80008320D01*
X85445241Y-80165363D01*
X85245363Y-80365241D01*
X85088320Y-80600273D01*
X84980147Y-80861426D01*
X84925000Y-81138665D01*
X83985000Y-81138665D01*
X83929853Y-80861426D01*
X83821680Y-80600273D01*
X83664637Y-80365241D01*
X83464759Y-80165363D01*
X83229727Y-80008320D01*
X82968574Y-79900147D01*
X82691335Y-79845000D01*
X82408665Y-79845000D01*
X82131426Y-79900147D01*
X81870273Y-80008320D01*
X81635241Y-80165363D01*
X81435363Y-80365241D01*
X81278320Y-80600273D01*
X81170147Y-80861426D01*
X81115000Y-81138665D01*
X80175000Y-81138665D01*
X80119853Y-80861426D01*
X80011680Y-80600273D01*
X79854637Y-80365241D01*
X79654759Y-80165363D01*
X79419727Y-80008320D01*
X79158574Y-79900147D01*
X78881335Y-79845000D01*
X78598665Y-79845000D01*
X78321426Y-79900147D01*
X78060273Y-80008320D01*
X77825241Y-80165363D01*
X77625363Y-80365241D01*
X77468320Y-80600273D01*
X77360147Y-80861426D01*
X77305000Y-81138665D01*
X76365000Y-81138665D01*
X76309853Y-80861426D01*
X76201680Y-80600273D01*
X76044637Y-80365241D01*
X75844759Y-80165363D01*
X75609727Y-80008320D01*
X75348574Y-79900147D01*
X75071335Y-79845000D01*
X74788665Y-79845000D01*
X74511426Y-79900147D01*
X74250273Y-80008320D01*
X74015241Y-80165363D01*
X73815363Y-80365241D01*
X73658320Y-80600273D01*
X73550147Y-80861426D01*
X73495000Y-81138665D01*
X69552207Y-81138665D01*
X69504482Y-81124188D01*
X69380000Y-81111928D01*
X67780000Y-81111928D01*
X67655518Y-81124188D01*
X67535820Y-81160498D01*
X67425506Y-81219463D01*
X67328815Y-81298815D01*
X67249463Y-81395506D01*
X67190498Y-81505820D01*
X67154188Y-81625518D01*
X67141928Y-81750000D01*
X59088072Y-81750000D01*
X59088072Y-79980000D01*
X59075812Y-79855518D01*
X59039502Y-79735820D01*
X58980537Y-79625506D01*
X58901185Y-79528815D01*
X58804494Y-79449463D01*
X58694180Y-79390498D01*
X58574482Y-79354188D01*
X58450000Y-79341928D01*
X55850000Y-79341928D01*
X55725518Y-79354188D01*
X55605820Y-79390498D01*
X55495506Y-79449463D01*
X55398815Y-79528815D01*
X55319463Y-79625506D01*
X55260498Y-79735820D01*
X55224188Y-79855518D01*
X55211928Y-79980000D01*
X52197000Y-79980000D01*
X52197000Y-73712606D01*
X53392606Y-72517000D01*
X101547394Y-72517000D01*
X102743000Y-73712606D01*
M02*
