M48
; DRILL file {KiCad (5.1.2)-1} date 13.04.2020 00:25:00
; FORMAT={-:-/ absolute / metric / decimal}
; #@! TF.CreationDate,2020-04-13T00:25:00+02:00
; #@! TF.GenerationSoftware,Kicad,Pcbnew,(5.1.2)-1
; #@! TF.FileFunction,Plated,1,2,PTH
FMAT,2
METRIC
T1C0.500
T2C0.750
T3C0.800
T4C1.000
T5C1.100
T6C1.300
T7C1.500
T8C3.200
%
G90
G05
T1
X202.6Y-145.0
X203.303Y-143.303
X203.303Y-146.697
X205.0Y-142.6
X205.0Y-147.4
X206.697Y-143.303
X206.697Y-146.697
X207.4Y-145.0
X127.6Y-145.0
X128.303Y-143.303
X128.303Y-146.697
X130.0Y-142.6
X130.0Y-147.4
X131.697Y-143.303
X131.697Y-146.697
X132.4Y-145.0
X127.6Y-55.0
X128.303Y-53.303
X128.303Y-56.697
X130.0Y-52.6
X130.0Y-57.4
X131.697Y-53.303
X131.697Y-56.697
X132.4Y-55.0
X202.6Y-55.0
X203.303Y-53.303
X203.303Y-56.697
X205.0Y-52.6
X205.0Y-57.4
X206.697Y-53.303
X206.697Y-56.697
X207.4Y-55.0
X52.6Y-145.0
X53.303Y-143.303
X53.303Y-146.697
X55.0Y-142.6
X55.0Y-147.4
X56.697Y-143.303
X56.697Y-146.697
X57.4Y-145.0
X52.6Y-55.0
X53.303Y-53.303
X53.303Y-56.697
X55.0Y-52.6
X55.0Y-57.4
X56.697Y-53.303
X56.697Y-56.697
X57.4Y-55.0
T2
X62.23Y-120.65
X62.23Y-121.92
X62.23Y-123.19
X69.85Y-120.65
X69.85Y-121.92
X69.85Y-123.19
T3
X82.55Y-81.28
X82.55Y-86.28
X73.66Y-106.68
X81.28Y-106.68
X86.36Y-81.28
X86.36Y-86.28
X78.74Y-81.28
X78.74Y-86.28
X72.39Y-127.0
X72.39Y-129.54
X72.39Y-132.08
X72.39Y-134.62
X80.01Y-127.0
X80.01Y-129.54
X80.01Y-132.08
X80.01Y-134.62
X68.58Y-82.55
X68.58Y-86.05
X74.93Y-81.28
X74.93Y-86.28
T4
X54.61Y-132.08
X54.61Y-134.62
X54.61Y-125.73
X54.61Y-128.27
T5
X95.25Y-86.36
X95.25Y-93.98
X80.01Y-95.25
X80.01Y-102.87
X62.23Y-106.68
X62.23Y-109.22
X62.23Y-111.76
X54.61Y-105.41
X54.61Y-113.03
X69.85Y-106.68
X69.85Y-109.22
X69.85Y-111.76
X87.63Y-114.3
X87.63Y-116.84
X87.63Y-119.38
X78.74Y-114.3
X78.74Y-116.84
X78.74Y-119.38
T6
X57.15Y-81.28
X57.15Y-86.36
X57.15Y-63.5
X57.15Y-68.58
T7
X87.63Y-91.97
X87.63Y-97.42
X87.63Y-102.87
T8
X130.0Y-55.0
X205.0Y-55.0
X55.0Y-145.0
X55.0Y-55.0
X205.0Y-145.0
X130.0Y-145.0
T0
M30
