G04 #@! TF.GenerationSoftware,KiCad,Pcbnew,(5.1.2)-1*
G04 #@! TF.CreationDate,2020-04-16T17:30:29+02:00*
G04 #@! TF.ProjectId,Test-PCB_for_Arduino-DAC,54657374-2d50-4434-925f-666f725f4172,0.0.1*
G04 #@! TF.SameCoordinates,Original*
G04 #@! TF.FileFunction,Paste,Top*
G04 #@! TF.FilePolarity,Positive*
%FSLAX46Y46*%
G04 Gerber Fmt 4.6, Leading zero omitted, Abs format (unit mm)*
G04 Created by KiCad (PCBNEW (5.1.2)-1) date 2020-04-16 17:30:29*
%MOMM*%
%LPD*%
G04 APERTURE LIST*
%ADD10C,0.100000*%
%ADD11C,0.875000*%
%ADD12C,0.600000*%
%ADD13R,0.250000X0.700000*%
%ADD14C,0.975000*%
%ADD15C,0.590000*%
%ADD16R,0.900000X0.800000*%
%ADD17C,0.318000*%
%ADD18C,1.250000*%
%ADD19C,1.600000*%
G04 APERTURE END LIST*
D10*
G36*
X94892691Y-54021053D02*
G01*
X94913926Y-54024203D01*
X94934750Y-54029419D01*
X94954962Y-54036651D01*
X94974368Y-54045830D01*
X94992781Y-54056866D01*
X95010024Y-54069654D01*
X95025930Y-54084070D01*
X95040346Y-54099976D01*
X95053134Y-54117219D01*
X95064170Y-54135632D01*
X95073349Y-54155038D01*
X95080581Y-54175250D01*
X95085797Y-54196074D01*
X95088947Y-54217309D01*
X95090000Y-54238750D01*
X95090000Y-54676250D01*
X95088947Y-54697691D01*
X95085797Y-54718926D01*
X95080581Y-54739750D01*
X95073349Y-54759962D01*
X95064170Y-54779368D01*
X95053134Y-54797781D01*
X95040346Y-54815024D01*
X95025930Y-54830930D01*
X95010024Y-54845346D01*
X94992781Y-54858134D01*
X94974368Y-54869170D01*
X94954962Y-54878349D01*
X94934750Y-54885581D01*
X94913926Y-54890797D01*
X94892691Y-54893947D01*
X94871250Y-54895000D01*
X94358750Y-54895000D01*
X94337309Y-54893947D01*
X94316074Y-54890797D01*
X94295250Y-54885581D01*
X94275038Y-54878349D01*
X94255632Y-54869170D01*
X94237219Y-54858134D01*
X94219976Y-54845346D01*
X94204070Y-54830930D01*
X94189654Y-54815024D01*
X94176866Y-54797781D01*
X94165830Y-54779368D01*
X94156651Y-54759962D01*
X94149419Y-54739750D01*
X94144203Y-54718926D01*
X94141053Y-54697691D01*
X94140000Y-54676250D01*
X94140000Y-54238750D01*
X94141053Y-54217309D01*
X94144203Y-54196074D01*
X94149419Y-54175250D01*
X94156651Y-54155038D01*
X94165830Y-54135632D01*
X94176866Y-54117219D01*
X94189654Y-54099976D01*
X94204070Y-54084070D01*
X94219976Y-54069654D01*
X94237219Y-54056866D01*
X94255632Y-54045830D01*
X94275038Y-54036651D01*
X94295250Y-54029419D01*
X94316074Y-54024203D01*
X94337309Y-54021053D01*
X94358750Y-54020000D01*
X94871250Y-54020000D01*
X94892691Y-54021053D01*
X94892691Y-54021053D01*
G37*
D11*
X94615000Y-54457500D03*
D10*
G36*
X94892691Y-55596053D02*
G01*
X94913926Y-55599203D01*
X94934750Y-55604419D01*
X94954962Y-55611651D01*
X94974368Y-55620830D01*
X94992781Y-55631866D01*
X95010024Y-55644654D01*
X95025930Y-55659070D01*
X95040346Y-55674976D01*
X95053134Y-55692219D01*
X95064170Y-55710632D01*
X95073349Y-55730038D01*
X95080581Y-55750250D01*
X95085797Y-55771074D01*
X95088947Y-55792309D01*
X95090000Y-55813750D01*
X95090000Y-56251250D01*
X95088947Y-56272691D01*
X95085797Y-56293926D01*
X95080581Y-56314750D01*
X95073349Y-56334962D01*
X95064170Y-56354368D01*
X95053134Y-56372781D01*
X95040346Y-56390024D01*
X95025930Y-56405930D01*
X95010024Y-56420346D01*
X94992781Y-56433134D01*
X94974368Y-56444170D01*
X94954962Y-56453349D01*
X94934750Y-56460581D01*
X94913926Y-56465797D01*
X94892691Y-56468947D01*
X94871250Y-56470000D01*
X94358750Y-56470000D01*
X94337309Y-56468947D01*
X94316074Y-56465797D01*
X94295250Y-56460581D01*
X94275038Y-56453349D01*
X94255632Y-56444170D01*
X94237219Y-56433134D01*
X94219976Y-56420346D01*
X94204070Y-56405930D01*
X94189654Y-56390024D01*
X94176866Y-56372781D01*
X94165830Y-56354368D01*
X94156651Y-56334962D01*
X94149419Y-56314750D01*
X94144203Y-56293926D01*
X94141053Y-56272691D01*
X94140000Y-56251250D01*
X94140000Y-55813750D01*
X94141053Y-55792309D01*
X94144203Y-55771074D01*
X94149419Y-55750250D01*
X94156651Y-55730038D01*
X94165830Y-55710632D01*
X94176866Y-55692219D01*
X94189654Y-55674976D01*
X94204070Y-55659070D01*
X94219976Y-55644654D01*
X94237219Y-55631866D01*
X94255632Y-55620830D01*
X94275038Y-55611651D01*
X94295250Y-55604419D01*
X94316074Y-55599203D01*
X94337309Y-55596053D01*
X94358750Y-55595000D01*
X94871250Y-55595000D01*
X94892691Y-55596053D01*
X94892691Y-55596053D01*
G37*
D11*
X94615000Y-56032500D03*
D10*
G36*
X90892691Y-49691053D02*
G01*
X90913926Y-49694203D01*
X90934750Y-49699419D01*
X90954962Y-49706651D01*
X90974368Y-49715830D01*
X90992781Y-49726866D01*
X91010024Y-49739654D01*
X91025930Y-49754070D01*
X91040346Y-49769976D01*
X91053134Y-49787219D01*
X91064170Y-49805632D01*
X91073349Y-49825038D01*
X91080581Y-49845250D01*
X91085797Y-49866074D01*
X91088947Y-49887309D01*
X91090000Y-49908750D01*
X91090000Y-50421250D01*
X91088947Y-50442691D01*
X91085797Y-50463926D01*
X91080581Y-50484750D01*
X91073349Y-50504962D01*
X91064170Y-50524368D01*
X91053134Y-50542781D01*
X91040346Y-50560024D01*
X91025930Y-50575930D01*
X91010024Y-50590346D01*
X90992781Y-50603134D01*
X90974368Y-50614170D01*
X90954962Y-50623349D01*
X90934750Y-50630581D01*
X90913926Y-50635797D01*
X90892691Y-50638947D01*
X90871250Y-50640000D01*
X90433750Y-50640000D01*
X90412309Y-50638947D01*
X90391074Y-50635797D01*
X90370250Y-50630581D01*
X90350038Y-50623349D01*
X90330632Y-50614170D01*
X90312219Y-50603134D01*
X90294976Y-50590346D01*
X90279070Y-50575930D01*
X90264654Y-50560024D01*
X90251866Y-50542781D01*
X90240830Y-50524368D01*
X90231651Y-50504962D01*
X90224419Y-50484750D01*
X90219203Y-50463926D01*
X90216053Y-50442691D01*
X90215000Y-50421250D01*
X90215000Y-49908750D01*
X90216053Y-49887309D01*
X90219203Y-49866074D01*
X90224419Y-49845250D01*
X90231651Y-49825038D01*
X90240830Y-49805632D01*
X90251866Y-49787219D01*
X90264654Y-49769976D01*
X90279070Y-49754070D01*
X90294976Y-49739654D01*
X90312219Y-49726866D01*
X90330632Y-49715830D01*
X90350038Y-49706651D01*
X90370250Y-49699419D01*
X90391074Y-49694203D01*
X90412309Y-49691053D01*
X90433750Y-49690000D01*
X90871250Y-49690000D01*
X90892691Y-49691053D01*
X90892691Y-49691053D01*
G37*
D11*
X90652500Y-50165000D03*
D10*
G36*
X92467691Y-49691053D02*
G01*
X92488926Y-49694203D01*
X92509750Y-49699419D01*
X92529962Y-49706651D01*
X92549368Y-49715830D01*
X92567781Y-49726866D01*
X92585024Y-49739654D01*
X92600930Y-49754070D01*
X92615346Y-49769976D01*
X92628134Y-49787219D01*
X92639170Y-49805632D01*
X92648349Y-49825038D01*
X92655581Y-49845250D01*
X92660797Y-49866074D01*
X92663947Y-49887309D01*
X92665000Y-49908750D01*
X92665000Y-50421250D01*
X92663947Y-50442691D01*
X92660797Y-50463926D01*
X92655581Y-50484750D01*
X92648349Y-50504962D01*
X92639170Y-50524368D01*
X92628134Y-50542781D01*
X92615346Y-50560024D01*
X92600930Y-50575930D01*
X92585024Y-50590346D01*
X92567781Y-50603134D01*
X92549368Y-50614170D01*
X92529962Y-50623349D01*
X92509750Y-50630581D01*
X92488926Y-50635797D01*
X92467691Y-50638947D01*
X92446250Y-50640000D01*
X92008750Y-50640000D01*
X91987309Y-50638947D01*
X91966074Y-50635797D01*
X91945250Y-50630581D01*
X91925038Y-50623349D01*
X91905632Y-50614170D01*
X91887219Y-50603134D01*
X91869976Y-50590346D01*
X91854070Y-50575930D01*
X91839654Y-50560024D01*
X91826866Y-50542781D01*
X91815830Y-50524368D01*
X91806651Y-50504962D01*
X91799419Y-50484750D01*
X91794203Y-50463926D01*
X91791053Y-50442691D01*
X91790000Y-50421250D01*
X91790000Y-49908750D01*
X91791053Y-49887309D01*
X91794203Y-49866074D01*
X91799419Y-49845250D01*
X91806651Y-49825038D01*
X91815830Y-49805632D01*
X91826866Y-49787219D01*
X91839654Y-49769976D01*
X91854070Y-49754070D01*
X91869976Y-49739654D01*
X91887219Y-49726866D01*
X91905632Y-49715830D01*
X91925038Y-49706651D01*
X91945250Y-49699419D01*
X91966074Y-49694203D01*
X91987309Y-49691053D01*
X92008750Y-49690000D01*
X92446250Y-49690000D01*
X92467691Y-49691053D01*
X92467691Y-49691053D01*
G37*
D11*
X92227500Y-50165000D03*
D10*
G36*
X96797691Y-54021053D02*
G01*
X96818926Y-54024203D01*
X96839750Y-54029419D01*
X96859962Y-54036651D01*
X96879368Y-54045830D01*
X96897781Y-54056866D01*
X96915024Y-54069654D01*
X96930930Y-54084070D01*
X96945346Y-54099976D01*
X96958134Y-54117219D01*
X96969170Y-54135632D01*
X96978349Y-54155038D01*
X96985581Y-54175250D01*
X96990797Y-54196074D01*
X96993947Y-54217309D01*
X96995000Y-54238750D01*
X96995000Y-54676250D01*
X96993947Y-54697691D01*
X96990797Y-54718926D01*
X96985581Y-54739750D01*
X96978349Y-54759962D01*
X96969170Y-54779368D01*
X96958134Y-54797781D01*
X96945346Y-54815024D01*
X96930930Y-54830930D01*
X96915024Y-54845346D01*
X96897781Y-54858134D01*
X96879368Y-54869170D01*
X96859962Y-54878349D01*
X96839750Y-54885581D01*
X96818926Y-54890797D01*
X96797691Y-54893947D01*
X96776250Y-54895000D01*
X96263750Y-54895000D01*
X96242309Y-54893947D01*
X96221074Y-54890797D01*
X96200250Y-54885581D01*
X96180038Y-54878349D01*
X96160632Y-54869170D01*
X96142219Y-54858134D01*
X96124976Y-54845346D01*
X96109070Y-54830930D01*
X96094654Y-54815024D01*
X96081866Y-54797781D01*
X96070830Y-54779368D01*
X96061651Y-54759962D01*
X96054419Y-54739750D01*
X96049203Y-54718926D01*
X96046053Y-54697691D01*
X96045000Y-54676250D01*
X96045000Y-54238750D01*
X96046053Y-54217309D01*
X96049203Y-54196074D01*
X96054419Y-54175250D01*
X96061651Y-54155038D01*
X96070830Y-54135632D01*
X96081866Y-54117219D01*
X96094654Y-54099976D01*
X96109070Y-54084070D01*
X96124976Y-54069654D01*
X96142219Y-54056866D01*
X96160632Y-54045830D01*
X96180038Y-54036651D01*
X96200250Y-54029419D01*
X96221074Y-54024203D01*
X96242309Y-54021053D01*
X96263750Y-54020000D01*
X96776250Y-54020000D01*
X96797691Y-54021053D01*
X96797691Y-54021053D01*
G37*
D11*
X96520000Y-54457500D03*
D10*
G36*
X96797691Y-55596053D02*
G01*
X96818926Y-55599203D01*
X96839750Y-55604419D01*
X96859962Y-55611651D01*
X96879368Y-55620830D01*
X96897781Y-55631866D01*
X96915024Y-55644654D01*
X96930930Y-55659070D01*
X96945346Y-55674976D01*
X96958134Y-55692219D01*
X96969170Y-55710632D01*
X96978349Y-55730038D01*
X96985581Y-55750250D01*
X96990797Y-55771074D01*
X96993947Y-55792309D01*
X96995000Y-55813750D01*
X96995000Y-56251250D01*
X96993947Y-56272691D01*
X96990797Y-56293926D01*
X96985581Y-56314750D01*
X96978349Y-56334962D01*
X96969170Y-56354368D01*
X96958134Y-56372781D01*
X96945346Y-56390024D01*
X96930930Y-56405930D01*
X96915024Y-56420346D01*
X96897781Y-56433134D01*
X96879368Y-56444170D01*
X96859962Y-56453349D01*
X96839750Y-56460581D01*
X96818926Y-56465797D01*
X96797691Y-56468947D01*
X96776250Y-56470000D01*
X96263750Y-56470000D01*
X96242309Y-56468947D01*
X96221074Y-56465797D01*
X96200250Y-56460581D01*
X96180038Y-56453349D01*
X96160632Y-56444170D01*
X96142219Y-56433134D01*
X96124976Y-56420346D01*
X96109070Y-56405930D01*
X96094654Y-56390024D01*
X96081866Y-56372781D01*
X96070830Y-56354368D01*
X96061651Y-56334962D01*
X96054419Y-56314750D01*
X96049203Y-56293926D01*
X96046053Y-56272691D01*
X96045000Y-56251250D01*
X96045000Y-55813750D01*
X96046053Y-55792309D01*
X96049203Y-55771074D01*
X96054419Y-55750250D01*
X96061651Y-55730038D01*
X96070830Y-55710632D01*
X96081866Y-55692219D01*
X96094654Y-55674976D01*
X96109070Y-55659070D01*
X96124976Y-55644654D01*
X96142219Y-55631866D01*
X96160632Y-55620830D01*
X96180038Y-55611651D01*
X96200250Y-55604419D01*
X96221074Y-55599203D01*
X96242309Y-55596053D01*
X96263750Y-55595000D01*
X96776250Y-55595000D01*
X96797691Y-55596053D01*
X96797691Y-55596053D01*
G37*
D11*
X96520000Y-56032500D03*
D10*
G36*
X98702691Y-54021053D02*
G01*
X98723926Y-54024203D01*
X98744750Y-54029419D01*
X98764962Y-54036651D01*
X98784368Y-54045830D01*
X98802781Y-54056866D01*
X98820024Y-54069654D01*
X98835930Y-54084070D01*
X98850346Y-54099976D01*
X98863134Y-54117219D01*
X98874170Y-54135632D01*
X98883349Y-54155038D01*
X98890581Y-54175250D01*
X98895797Y-54196074D01*
X98898947Y-54217309D01*
X98900000Y-54238750D01*
X98900000Y-54676250D01*
X98898947Y-54697691D01*
X98895797Y-54718926D01*
X98890581Y-54739750D01*
X98883349Y-54759962D01*
X98874170Y-54779368D01*
X98863134Y-54797781D01*
X98850346Y-54815024D01*
X98835930Y-54830930D01*
X98820024Y-54845346D01*
X98802781Y-54858134D01*
X98784368Y-54869170D01*
X98764962Y-54878349D01*
X98744750Y-54885581D01*
X98723926Y-54890797D01*
X98702691Y-54893947D01*
X98681250Y-54895000D01*
X98168750Y-54895000D01*
X98147309Y-54893947D01*
X98126074Y-54890797D01*
X98105250Y-54885581D01*
X98085038Y-54878349D01*
X98065632Y-54869170D01*
X98047219Y-54858134D01*
X98029976Y-54845346D01*
X98014070Y-54830930D01*
X97999654Y-54815024D01*
X97986866Y-54797781D01*
X97975830Y-54779368D01*
X97966651Y-54759962D01*
X97959419Y-54739750D01*
X97954203Y-54718926D01*
X97951053Y-54697691D01*
X97950000Y-54676250D01*
X97950000Y-54238750D01*
X97951053Y-54217309D01*
X97954203Y-54196074D01*
X97959419Y-54175250D01*
X97966651Y-54155038D01*
X97975830Y-54135632D01*
X97986866Y-54117219D01*
X97999654Y-54099976D01*
X98014070Y-54084070D01*
X98029976Y-54069654D01*
X98047219Y-54056866D01*
X98065632Y-54045830D01*
X98085038Y-54036651D01*
X98105250Y-54029419D01*
X98126074Y-54024203D01*
X98147309Y-54021053D01*
X98168750Y-54020000D01*
X98681250Y-54020000D01*
X98702691Y-54021053D01*
X98702691Y-54021053D01*
G37*
D11*
X98425000Y-54457500D03*
D10*
G36*
X98702691Y-55596053D02*
G01*
X98723926Y-55599203D01*
X98744750Y-55604419D01*
X98764962Y-55611651D01*
X98784368Y-55620830D01*
X98802781Y-55631866D01*
X98820024Y-55644654D01*
X98835930Y-55659070D01*
X98850346Y-55674976D01*
X98863134Y-55692219D01*
X98874170Y-55710632D01*
X98883349Y-55730038D01*
X98890581Y-55750250D01*
X98895797Y-55771074D01*
X98898947Y-55792309D01*
X98900000Y-55813750D01*
X98900000Y-56251250D01*
X98898947Y-56272691D01*
X98895797Y-56293926D01*
X98890581Y-56314750D01*
X98883349Y-56334962D01*
X98874170Y-56354368D01*
X98863134Y-56372781D01*
X98850346Y-56390024D01*
X98835930Y-56405930D01*
X98820024Y-56420346D01*
X98802781Y-56433134D01*
X98784368Y-56444170D01*
X98764962Y-56453349D01*
X98744750Y-56460581D01*
X98723926Y-56465797D01*
X98702691Y-56468947D01*
X98681250Y-56470000D01*
X98168750Y-56470000D01*
X98147309Y-56468947D01*
X98126074Y-56465797D01*
X98105250Y-56460581D01*
X98085038Y-56453349D01*
X98065632Y-56444170D01*
X98047219Y-56433134D01*
X98029976Y-56420346D01*
X98014070Y-56405930D01*
X97999654Y-56390024D01*
X97986866Y-56372781D01*
X97975830Y-56354368D01*
X97966651Y-56334962D01*
X97959419Y-56314750D01*
X97954203Y-56293926D01*
X97951053Y-56272691D01*
X97950000Y-56251250D01*
X97950000Y-55813750D01*
X97951053Y-55792309D01*
X97954203Y-55771074D01*
X97959419Y-55750250D01*
X97966651Y-55730038D01*
X97975830Y-55710632D01*
X97986866Y-55692219D01*
X97999654Y-55674976D01*
X98014070Y-55659070D01*
X98029976Y-55644654D01*
X98047219Y-55631866D01*
X98065632Y-55620830D01*
X98085038Y-55611651D01*
X98105250Y-55604419D01*
X98126074Y-55599203D01*
X98147309Y-55596053D01*
X98168750Y-55595000D01*
X98681250Y-55595000D01*
X98702691Y-55596053D01*
X98702691Y-55596053D01*
G37*
D11*
X98425000Y-56032500D03*
D10*
G36*
X68109703Y-102595722D02*
G01*
X68124264Y-102597882D01*
X68138543Y-102601459D01*
X68152403Y-102606418D01*
X68165710Y-102612712D01*
X68178336Y-102620280D01*
X68190159Y-102629048D01*
X68201066Y-102638934D01*
X68210952Y-102649841D01*
X68219720Y-102661664D01*
X68227288Y-102674290D01*
X68233582Y-102687597D01*
X68238541Y-102701457D01*
X68242118Y-102715736D01*
X68244278Y-102730297D01*
X68245000Y-102745000D01*
X68245000Y-104395000D01*
X68244278Y-104409703D01*
X68242118Y-104424264D01*
X68238541Y-104438543D01*
X68233582Y-104452403D01*
X68227288Y-104465710D01*
X68219720Y-104478336D01*
X68210952Y-104490159D01*
X68201066Y-104501066D01*
X68190159Y-104510952D01*
X68178336Y-104519720D01*
X68165710Y-104527288D01*
X68152403Y-104533582D01*
X68138543Y-104538541D01*
X68124264Y-104542118D01*
X68109703Y-104544278D01*
X68095000Y-104545000D01*
X67795000Y-104545000D01*
X67780297Y-104544278D01*
X67765736Y-104542118D01*
X67751457Y-104538541D01*
X67737597Y-104533582D01*
X67724290Y-104527288D01*
X67711664Y-104519720D01*
X67699841Y-104510952D01*
X67688934Y-104501066D01*
X67679048Y-104490159D01*
X67670280Y-104478336D01*
X67662712Y-104465710D01*
X67656418Y-104452403D01*
X67651459Y-104438543D01*
X67647882Y-104424264D01*
X67645722Y-104409703D01*
X67645000Y-104395000D01*
X67645000Y-102745000D01*
X67645722Y-102730297D01*
X67647882Y-102715736D01*
X67651459Y-102701457D01*
X67656418Y-102687597D01*
X67662712Y-102674290D01*
X67670280Y-102661664D01*
X67679048Y-102649841D01*
X67688934Y-102638934D01*
X67699841Y-102629048D01*
X67711664Y-102620280D01*
X67724290Y-102612712D01*
X67737597Y-102606418D01*
X67751457Y-102601459D01*
X67765736Y-102597882D01*
X67780297Y-102595722D01*
X67795000Y-102595000D01*
X68095000Y-102595000D01*
X68109703Y-102595722D01*
X68109703Y-102595722D01*
G37*
D12*
X67945000Y-103570000D03*
D10*
G36*
X69379703Y-102595722D02*
G01*
X69394264Y-102597882D01*
X69408543Y-102601459D01*
X69422403Y-102606418D01*
X69435710Y-102612712D01*
X69448336Y-102620280D01*
X69460159Y-102629048D01*
X69471066Y-102638934D01*
X69480952Y-102649841D01*
X69489720Y-102661664D01*
X69497288Y-102674290D01*
X69503582Y-102687597D01*
X69508541Y-102701457D01*
X69512118Y-102715736D01*
X69514278Y-102730297D01*
X69515000Y-102745000D01*
X69515000Y-104395000D01*
X69514278Y-104409703D01*
X69512118Y-104424264D01*
X69508541Y-104438543D01*
X69503582Y-104452403D01*
X69497288Y-104465710D01*
X69489720Y-104478336D01*
X69480952Y-104490159D01*
X69471066Y-104501066D01*
X69460159Y-104510952D01*
X69448336Y-104519720D01*
X69435710Y-104527288D01*
X69422403Y-104533582D01*
X69408543Y-104538541D01*
X69394264Y-104542118D01*
X69379703Y-104544278D01*
X69365000Y-104545000D01*
X69065000Y-104545000D01*
X69050297Y-104544278D01*
X69035736Y-104542118D01*
X69021457Y-104538541D01*
X69007597Y-104533582D01*
X68994290Y-104527288D01*
X68981664Y-104519720D01*
X68969841Y-104510952D01*
X68958934Y-104501066D01*
X68949048Y-104490159D01*
X68940280Y-104478336D01*
X68932712Y-104465710D01*
X68926418Y-104452403D01*
X68921459Y-104438543D01*
X68917882Y-104424264D01*
X68915722Y-104409703D01*
X68915000Y-104395000D01*
X68915000Y-102745000D01*
X68915722Y-102730297D01*
X68917882Y-102715736D01*
X68921459Y-102701457D01*
X68926418Y-102687597D01*
X68932712Y-102674290D01*
X68940280Y-102661664D01*
X68949048Y-102649841D01*
X68958934Y-102638934D01*
X68969841Y-102629048D01*
X68981664Y-102620280D01*
X68994290Y-102612712D01*
X69007597Y-102606418D01*
X69021457Y-102601459D01*
X69035736Y-102597882D01*
X69050297Y-102595722D01*
X69065000Y-102595000D01*
X69365000Y-102595000D01*
X69379703Y-102595722D01*
X69379703Y-102595722D01*
G37*
D12*
X69215000Y-103570000D03*
D10*
G36*
X70649703Y-102595722D02*
G01*
X70664264Y-102597882D01*
X70678543Y-102601459D01*
X70692403Y-102606418D01*
X70705710Y-102612712D01*
X70718336Y-102620280D01*
X70730159Y-102629048D01*
X70741066Y-102638934D01*
X70750952Y-102649841D01*
X70759720Y-102661664D01*
X70767288Y-102674290D01*
X70773582Y-102687597D01*
X70778541Y-102701457D01*
X70782118Y-102715736D01*
X70784278Y-102730297D01*
X70785000Y-102745000D01*
X70785000Y-104395000D01*
X70784278Y-104409703D01*
X70782118Y-104424264D01*
X70778541Y-104438543D01*
X70773582Y-104452403D01*
X70767288Y-104465710D01*
X70759720Y-104478336D01*
X70750952Y-104490159D01*
X70741066Y-104501066D01*
X70730159Y-104510952D01*
X70718336Y-104519720D01*
X70705710Y-104527288D01*
X70692403Y-104533582D01*
X70678543Y-104538541D01*
X70664264Y-104542118D01*
X70649703Y-104544278D01*
X70635000Y-104545000D01*
X70335000Y-104545000D01*
X70320297Y-104544278D01*
X70305736Y-104542118D01*
X70291457Y-104538541D01*
X70277597Y-104533582D01*
X70264290Y-104527288D01*
X70251664Y-104519720D01*
X70239841Y-104510952D01*
X70228934Y-104501066D01*
X70219048Y-104490159D01*
X70210280Y-104478336D01*
X70202712Y-104465710D01*
X70196418Y-104452403D01*
X70191459Y-104438543D01*
X70187882Y-104424264D01*
X70185722Y-104409703D01*
X70185000Y-104395000D01*
X70185000Y-102745000D01*
X70185722Y-102730297D01*
X70187882Y-102715736D01*
X70191459Y-102701457D01*
X70196418Y-102687597D01*
X70202712Y-102674290D01*
X70210280Y-102661664D01*
X70219048Y-102649841D01*
X70228934Y-102638934D01*
X70239841Y-102629048D01*
X70251664Y-102620280D01*
X70264290Y-102612712D01*
X70277597Y-102606418D01*
X70291457Y-102601459D01*
X70305736Y-102597882D01*
X70320297Y-102595722D01*
X70335000Y-102595000D01*
X70635000Y-102595000D01*
X70649703Y-102595722D01*
X70649703Y-102595722D01*
G37*
D12*
X70485000Y-103570000D03*
D10*
G36*
X71919703Y-102595722D02*
G01*
X71934264Y-102597882D01*
X71948543Y-102601459D01*
X71962403Y-102606418D01*
X71975710Y-102612712D01*
X71988336Y-102620280D01*
X72000159Y-102629048D01*
X72011066Y-102638934D01*
X72020952Y-102649841D01*
X72029720Y-102661664D01*
X72037288Y-102674290D01*
X72043582Y-102687597D01*
X72048541Y-102701457D01*
X72052118Y-102715736D01*
X72054278Y-102730297D01*
X72055000Y-102745000D01*
X72055000Y-104395000D01*
X72054278Y-104409703D01*
X72052118Y-104424264D01*
X72048541Y-104438543D01*
X72043582Y-104452403D01*
X72037288Y-104465710D01*
X72029720Y-104478336D01*
X72020952Y-104490159D01*
X72011066Y-104501066D01*
X72000159Y-104510952D01*
X71988336Y-104519720D01*
X71975710Y-104527288D01*
X71962403Y-104533582D01*
X71948543Y-104538541D01*
X71934264Y-104542118D01*
X71919703Y-104544278D01*
X71905000Y-104545000D01*
X71605000Y-104545000D01*
X71590297Y-104544278D01*
X71575736Y-104542118D01*
X71561457Y-104538541D01*
X71547597Y-104533582D01*
X71534290Y-104527288D01*
X71521664Y-104519720D01*
X71509841Y-104510952D01*
X71498934Y-104501066D01*
X71489048Y-104490159D01*
X71480280Y-104478336D01*
X71472712Y-104465710D01*
X71466418Y-104452403D01*
X71461459Y-104438543D01*
X71457882Y-104424264D01*
X71455722Y-104409703D01*
X71455000Y-104395000D01*
X71455000Y-102745000D01*
X71455722Y-102730297D01*
X71457882Y-102715736D01*
X71461459Y-102701457D01*
X71466418Y-102687597D01*
X71472712Y-102674290D01*
X71480280Y-102661664D01*
X71489048Y-102649841D01*
X71498934Y-102638934D01*
X71509841Y-102629048D01*
X71521664Y-102620280D01*
X71534290Y-102612712D01*
X71547597Y-102606418D01*
X71561457Y-102601459D01*
X71575736Y-102597882D01*
X71590297Y-102595722D01*
X71605000Y-102595000D01*
X71905000Y-102595000D01*
X71919703Y-102595722D01*
X71919703Y-102595722D01*
G37*
D12*
X71755000Y-103570000D03*
D10*
G36*
X71919703Y-107545722D02*
G01*
X71934264Y-107547882D01*
X71948543Y-107551459D01*
X71962403Y-107556418D01*
X71975710Y-107562712D01*
X71988336Y-107570280D01*
X72000159Y-107579048D01*
X72011066Y-107588934D01*
X72020952Y-107599841D01*
X72029720Y-107611664D01*
X72037288Y-107624290D01*
X72043582Y-107637597D01*
X72048541Y-107651457D01*
X72052118Y-107665736D01*
X72054278Y-107680297D01*
X72055000Y-107695000D01*
X72055000Y-109345000D01*
X72054278Y-109359703D01*
X72052118Y-109374264D01*
X72048541Y-109388543D01*
X72043582Y-109402403D01*
X72037288Y-109415710D01*
X72029720Y-109428336D01*
X72020952Y-109440159D01*
X72011066Y-109451066D01*
X72000159Y-109460952D01*
X71988336Y-109469720D01*
X71975710Y-109477288D01*
X71962403Y-109483582D01*
X71948543Y-109488541D01*
X71934264Y-109492118D01*
X71919703Y-109494278D01*
X71905000Y-109495000D01*
X71605000Y-109495000D01*
X71590297Y-109494278D01*
X71575736Y-109492118D01*
X71561457Y-109488541D01*
X71547597Y-109483582D01*
X71534290Y-109477288D01*
X71521664Y-109469720D01*
X71509841Y-109460952D01*
X71498934Y-109451066D01*
X71489048Y-109440159D01*
X71480280Y-109428336D01*
X71472712Y-109415710D01*
X71466418Y-109402403D01*
X71461459Y-109388543D01*
X71457882Y-109374264D01*
X71455722Y-109359703D01*
X71455000Y-109345000D01*
X71455000Y-107695000D01*
X71455722Y-107680297D01*
X71457882Y-107665736D01*
X71461459Y-107651457D01*
X71466418Y-107637597D01*
X71472712Y-107624290D01*
X71480280Y-107611664D01*
X71489048Y-107599841D01*
X71498934Y-107588934D01*
X71509841Y-107579048D01*
X71521664Y-107570280D01*
X71534290Y-107562712D01*
X71547597Y-107556418D01*
X71561457Y-107551459D01*
X71575736Y-107547882D01*
X71590297Y-107545722D01*
X71605000Y-107545000D01*
X71905000Y-107545000D01*
X71919703Y-107545722D01*
X71919703Y-107545722D01*
G37*
D12*
X71755000Y-108520000D03*
D10*
G36*
X70649703Y-107545722D02*
G01*
X70664264Y-107547882D01*
X70678543Y-107551459D01*
X70692403Y-107556418D01*
X70705710Y-107562712D01*
X70718336Y-107570280D01*
X70730159Y-107579048D01*
X70741066Y-107588934D01*
X70750952Y-107599841D01*
X70759720Y-107611664D01*
X70767288Y-107624290D01*
X70773582Y-107637597D01*
X70778541Y-107651457D01*
X70782118Y-107665736D01*
X70784278Y-107680297D01*
X70785000Y-107695000D01*
X70785000Y-109345000D01*
X70784278Y-109359703D01*
X70782118Y-109374264D01*
X70778541Y-109388543D01*
X70773582Y-109402403D01*
X70767288Y-109415710D01*
X70759720Y-109428336D01*
X70750952Y-109440159D01*
X70741066Y-109451066D01*
X70730159Y-109460952D01*
X70718336Y-109469720D01*
X70705710Y-109477288D01*
X70692403Y-109483582D01*
X70678543Y-109488541D01*
X70664264Y-109492118D01*
X70649703Y-109494278D01*
X70635000Y-109495000D01*
X70335000Y-109495000D01*
X70320297Y-109494278D01*
X70305736Y-109492118D01*
X70291457Y-109488541D01*
X70277597Y-109483582D01*
X70264290Y-109477288D01*
X70251664Y-109469720D01*
X70239841Y-109460952D01*
X70228934Y-109451066D01*
X70219048Y-109440159D01*
X70210280Y-109428336D01*
X70202712Y-109415710D01*
X70196418Y-109402403D01*
X70191459Y-109388543D01*
X70187882Y-109374264D01*
X70185722Y-109359703D01*
X70185000Y-109345000D01*
X70185000Y-107695000D01*
X70185722Y-107680297D01*
X70187882Y-107665736D01*
X70191459Y-107651457D01*
X70196418Y-107637597D01*
X70202712Y-107624290D01*
X70210280Y-107611664D01*
X70219048Y-107599841D01*
X70228934Y-107588934D01*
X70239841Y-107579048D01*
X70251664Y-107570280D01*
X70264290Y-107562712D01*
X70277597Y-107556418D01*
X70291457Y-107551459D01*
X70305736Y-107547882D01*
X70320297Y-107545722D01*
X70335000Y-107545000D01*
X70635000Y-107545000D01*
X70649703Y-107545722D01*
X70649703Y-107545722D01*
G37*
D12*
X70485000Y-108520000D03*
D10*
G36*
X69379703Y-107545722D02*
G01*
X69394264Y-107547882D01*
X69408543Y-107551459D01*
X69422403Y-107556418D01*
X69435710Y-107562712D01*
X69448336Y-107570280D01*
X69460159Y-107579048D01*
X69471066Y-107588934D01*
X69480952Y-107599841D01*
X69489720Y-107611664D01*
X69497288Y-107624290D01*
X69503582Y-107637597D01*
X69508541Y-107651457D01*
X69512118Y-107665736D01*
X69514278Y-107680297D01*
X69515000Y-107695000D01*
X69515000Y-109345000D01*
X69514278Y-109359703D01*
X69512118Y-109374264D01*
X69508541Y-109388543D01*
X69503582Y-109402403D01*
X69497288Y-109415710D01*
X69489720Y-109428336D01*
X69480952Y-109440159D01*
X69471066Y-109451066D01*
X69460159Y-109460952D01*
X69448336Y-109469720D01*
X69435710Y-109477288D01*
X69422403Y-109483582D01*
X69408543Y-109488541D01*
X69394264Y-109492118D01*
X69379703Y-109494278D01*
X69365000Y-109495000D01*
X69065000Y-109495000D01*
X69050297Y-109494278D01*
X69035736Y-109492118D01*
X69021457Y-109488541D01*
X69007597Y-109483582D01*
X68994290Y-109477288D01*
X68981664Y-109469720D01*
X68969841Y-109460952D01*
X68958934Y-109451066D01*
X68949048Y-109440159D01*
X68940280Y-109428336D01*
X68932712Y-109415710D01*
X68926418Y-109402403D01*
X68921459Y-109388543D01*
X68917882Y-109374264D01*
X68915722Y-109359703D01*
X68915000Y-109345000D01*
X68915000Y-107695000D01*
X68915722Y-107680297D01*
X68917882Y-107665736D01*
X68921459Y-107651457D01*
X68926418Y-107637597D01*
X68932712Y-107624290D01*
X68940280Y-107611664D01*
X68949048Y-107599841D01*
X68958934Y-107588934D01*
X68969841Y-107579048D01*
X68981664Y-107570280D01*
X68994290Y-107562712D01*
X69007597Y-107556418D01*
X69021457Y-107551459D01*
X69035736Y-107547882D01*
X69050297Y-107545722D01*
X69065000Y-107545000D01*
X69365000Y-107545000D01*
X69379703Y-107545722D01*
X69379703Y-107545722D01*
G37*
D12*
X69215000Y-108520000D03*
D10*
G36*
X68109703Y-107545722D02*
G01*
X68124264Y-107547882D01*
X68138543Y-107551459D01*
X68152403Y-107556418D01*
X68165710Y-107562712D01*
X68178336Y-107570280D01*
X68190159Y-107579048D01*
X68201066Y-107588934D01*
X68210952Y-107599841D01*
X68219720Y-107611664D01*
X68227288Y-107624290D01*
X68233582Y-107637597D01*
X68238541Y-107651457D01*
X68242118Y-107665736D01*
X68244278Y-107680297D01*
X68245000Y-107695000D01*
X68245000Y-109345000D01*
X68244278Y-109359703D01*
X68242118Y-109374264D01*
X68238541Y-109388543D01*
X68233582Y-109402403D01*
X68227288Y-109415710D01*
X68219720Y-109428336D01*
X68210952Y-109440159D01*
X68201066Y-109451066D01*
X68190159Y-109460952D01*
X68178336Y-109469720D01*
X68165710Y-109477288D01*
X68152403Y-109483582D01*
X68138543Y-109488541D01*
X68124264Y-109492118D01*
X68109703Y-109494278D01*
X68095000Y-109495000D01*
X67795000Y-109495000D01*
X67780297Y-109494278D01*
X67765736Y-109492118D01*
X67751457Y-109488541D01*
X67737597Y-109483582D01*
X67724290Y-109477288D01*
X67711664Y-109469720D01*
X67699841Y-109460952D01*
X67688934Y-109451066D01*
X67679048Y-109440159D01*
X67670280Y-109428336D01*
X67662712Y-109415710D01*
X67656418Y-109402403D01*
X67651459Y-109388543D01*
X67647882Y-109374264D01*
X67645722Y-109359703D01*
X67645000Y-109345000D01*
X67645000Y-107695000D01*
X67645722Y-107680297D01*
X67647882Y-107665736D01*
X67651459Y-107651457D01*
X67656418Y-107637597D01*
X67662712Y-107624290D01*
X67670280Y-107611664D01*
X67679048Y-107599841D01*
X67688934Y-107588934D01*
X67699841Y-107579048D01*
X67711664Y-107570280D01*
X67724290Y-107562712D01*
X67737597Y-107556418D01*
X67751457Y-107551459D01*
X67765736Y-107547882D01*
X67780297Y-107545722D01*
X67795000Y-107545000D01*
X68095000Y-107545000D01*
X68109703Y-107545722D01*
X68109703Y-107545722D01*
G37*
D12*
X67945000Y-108520000D03*
D10*
G36*
X82689703Y-80980722D02*
G01*
X82704264Y-80982882D01*
X82718543Y-80986459D01*
X82732403Y-80991418D01*
X82745710Y-80997712D01*
X82758336Y-81005280D01*
X82770159Y-81014048D01*
X82781066Y-81023934D01*
X82790952Y-81034841D01*
X82799720Y-81046664D01*
X82807288Y-81059290D01*
X82813582Y-81072597D01*
X82818541Y-81086457D01*
X82822118Y-81100736D01*
X82824278Y-81115297D01*
X82825000Y-81130000D01*
X82825000Y-81430000D01*
X82824278Y-81444703D01*
X82822118Y-81459264D01*
X82818541Y-81473543D01*
X82813582Y-81487403D01*
X82807288Y-81500710D01*
X82799720Y-81513336D01*
X82790952Y-81525159D01*
X82781066Y-81536066D01*
X82770159Y-81545952D01*
X82758336Y-81554720D01*
X82745710Y-81562288D01*
X82732403Y-81568582D01*
X82718543Y-81573541D01*
X82704264Y-81577118D01*
X82689703Y-81579278D01*
X82675000Y-81580000D01*
X81025000Y-81580000D01*
X81010297Y-81579278D01*
X80995736Y-81577118D01*
X80981457Y-81573541D01*
X80967597Y-81568582D01*
X80954290Y-81562288D01*
X80941664Y-81554720D01*
X80929841Y-81545952D01*
X80918934Y-81536066D01*
X80909048Y-81525159D01*
X80900280Y-81513336D01*
X80892712Y-81500710D01*
X80886418Y-81487403D01*
X80881459Y-81473543D01*
X80877882Y-81459264D01*
X80875722Y-81444703D01*
X80875000Y-81430000D01*
X80875000Y-81130000D01*
X80875722Y-81115297D01*
X80877882Y-81100736D01*
X80881459Y-81086457D01*
X80886418Y-81072597D01*
X80892712Y-81059290D01*
X80900280Y-81046664D01*
X80909048Y-81034841D01*
X80918934Y-81023934D01*
X80929841Y-81014048D01*
X80941664Y-81005280D01*
X80954290Y-80997712D01*
X80967597Y-80991418D01*
X80981457Y-80986459D01*
X80995736Y-80982882D01*
X81010297Y-80980722D01*
X81025000Y-80980000D01*
X82675000Y-80980000D01*
X82689703Y-80980722D01*
X82689703Y-80980722D01*
G37*
D12*
X81850000Y-81280000D03*
D10*
G36*
X82689703Y-82250722D02*
G01*
X82704264Y-82252882D01*
X82718543Y-82256459D01*
X82732403Y-82261418D01*
X82745710Y-82267712D01*
X82758336Y-82275280D01*
X82770159Y-82284048D01*
X82781066Y-82293934D01*
X82790952Y-82304841D01*
X82799720Y-82316664D01*
X82807288Y-82329290D01*
X82813582Y-82342597D01*
X82818541Y-82356457D01*
X82822118Y-82370736D01*
X82824278Y-82385297D01*
X82825000Y-82400000D01*
X82825000Y-82700000D01*
X82824278Y-82714703D01*
X82822118Y-82729264D01*
X82818541Y-82743543D01*
X82813582Y-82757403D01*
X82807288Y-82770710D01*
X82799720Y-82783336D01*
X82790952Y-82795159D01*
X82781066Y-82806066D01*
X82770159Y-82815952D01*
X82758336Y-82824720D01*
X82745710Y-82832288D01*
X82732403Y-82838582D01*
X82718543Y-82843541D01*
X82704264Y-82847118D01*
X82689703Y-82849278D01*
X82675000Y-82850000D01*
X81025000Y-82850000D01*
X81010297Y-82849278D01*
X80995736Y-82847118D01*
X80981457Y-82843541D01*
X80967597Y-82838582D01*
X80954290Y-82832288D01*
X80941664Y-82824720D01*
X80929841Y-82815952D01*
X80918934Y-82806066D01*
X80909048Y-82795159D01*
X80900280Y-82783336D01*
X80892712Y-82770710D01*
X80886418Y-82757403D01*
X80881459Y-82743543D01*
X80877882Y-82729264D01*
X80875722Y-82714703D01*
X80875000Y-82700000D01*
X80875000Y-82400000D01*
X80875722Y-82385297D01*
X80877882Y-82370736D01*
X80881459Y-82356457D01*
X80886418Y-82342597D01*
X80892712Y-82329290D01*
X80900280Y-82316664D01*
X80909048Y-82304841D01*
X80918934Y-82293934D01*
X80929841Y-82284048D01*
X80941664Y-82275280D01*
X80954290Y-82267712D01*
X80967597Y-82261418D01*
X80981457Y-82256459D01*
X80995736Y-82252882D01*
X81010297Y-82250722D01*
X81025000Y-82250000D01*
X82675000Y-82250000D01*
X82689703Y-82250722D01*
X82689703Y-82250722D01*
G37*
D12*
X81850000Y-82550000D03*
D10*
G36*
X82689703Y-83520722D02*
G01*
X82704264Y-83522882D01*
X82718543Y-83526459D01*
X82732403Y-83531418D01*
X82745710Y-83537712D01*
X82758336Y-83545280D01*
X82770159Y-83554048D01*
X82781066Y-83563934D01*
X82790952Y-83574841D01*
X82799720Y-83586664D01*
X82807288Y-83599290D01*
X82813582Y-83612597D01*
X82818541Y-83626457D01*
X82822118Y-83640736D01*
X82824278Y-83655297D01*
X82825000Y-83670000D01*
X82825000Y-83970000D01*
X82824278Y-83984703D01*
X82822118Y-83999264D01*
X82818541Y-84013543D01*
X82813582Y-84027403D01*
X82807288Y-84040710D01*
X82799720Y-84053336D01*
X82790952Y-84065159D01*
X82781066Y-84076066D01*
X82770159Y-84085952D01*
X82758336Y-84094720D01*
X82745710Y-84102288D01*
X82732403Y-84108582D01*
X82718543Y-84113541D01*
X82704264Y-84117118D01*
X82689703Y-84119278D01*
X82675000Y-84120000D01*
X81025000Y-84120000D01*
X81010297Y-84119278D01*
X80995736Y-84117118D01*
X80981457Y-84113541D01*
X80967597Y-84108582D01*
X80954290Y-84102288D01*
X80941664Y-84094720D01*
X80929841Y-84085952D01*
X80918934Y-84076066D01*
X80909048Y-84065159D01*
X80900280Y-84053336D01*
X80892712Y-84040710D01*
X80886418Y-84027403D01*
X80881459Y-84013543D01*
X80877882Y-83999264D01*
X80875722Y-83984703D01*
X80875000Y-83970000D01*
X80875000Y-83670000D01*
X80875722Y-83655297D01*
X80877882Y-83640736D01*
X80881459Y-83626457D01*
X80886418Y-83612597D01*
X80892712Y-83599290D01*
X80900280Y-83586664D01*
X80909048Y-83574841D01*
X80918934Y-83563934D01*
X80929841Y-83554048D01*
X80941664Y-83545280D01*
X80954290Y-83537712D01*
X80967597Y-83531418D01*
X80981457Y-83526459D01*
X80995736Y-83522882D01*
X81010297Y-83520722D01*
X81025000Y-83520000D01*
X82675000Y-83520000D01*
X82689703Y-83520722D01*
X82689703Y-83520722D01*
G37*
D12*
X81850000Y-83820000D03*
D10*
G36*
X82689703Y-84790722D02*
G01*
X82704264Y-84792882D01*
X82718543Y-84796459D01*
X82732403Y-84801418D01*
X82745710Y-84807712D01*
X82758336Y-84815280D01*
X82770159Y-84824048D01*
X82781066Y-84833934D01*
X82790952Y-84844841D01*
X82799720Y-84856664D01*
X82807288Y-84869290D01*
X82813582Y-84882597D01*
X82818541Y-84896457D01*
X82822118Y-84910736D01*
X82824278Y-84925297D01*
X82825000Y-84940000D01*
X82825000Y-85240000D01*
X82824278Y-85254703D01*
X82822118Y-85269264D01*
X82818541Y-85283543D01*
X82813582Y-85297403D01*
X82807288Y-85310710D01*
X82799720Y-85323336D01*
X82790952Y-85335159D01*
X82781066Y-85346066D01*
X82770159Y-85355952D01*
X82758336Y-85364720D01*
X82745710Y-85372288D01*
X82732403Y-85378582D01*
X82718543Y-85383541D01*
X82704264Y-85387118D01*
X82689703Y-85389278D01*
X82675000Y-85390000D01*
X81025000Y-85390000D01*
X81010297Y-85389278D01*
X80995736Y-85387118D01*
X80981457Y-85383541D01*
X80967597Y-85378582D01*
X80954290Y-85372288D01*
X80941664Y-85364720D01*
X80929841Y-85355952D01*
X80918934Y-85346066D01*
X80909048Y-85335159D01*
X80900280Y-85323336D01*
X80892712Y-85310710D01*
X80886418Y-85297403D01*
X80881459Y-85283543D01*
X80877882Y-85269264D01*
X80875722Y-85254703D01*
X80875000Y-85240000D01*
X80875000Y-84940000D01*
X80875722Y-84925297D01*
X80877882Y-84910736D01*
X80881459Y-84896457D01*
X80886418Y-84882597D01*
X80892712Y-84869290D01*
X80900280Y-84856664D01*
X80909048Y-84844841D01*
X80918934Y-84833934D01*
X80929841Y-84824048D01*
X80941664Y-84815280D01*
X80954290Y-84807712D01*
X80967597Y-84801418D01*
X80981457Y-84796459D01*
X80995736Y-84792882D01*
X81010297Y-84790722D01*
X81025000Y-84790000D01*
X82675000Y-84790000D01*
X82689703Y-84790722D01*
X82689703Y-84790722D01*
G37*
D12*
X81850000Y-85090000D03*
D10*
G36*
X77739703Y-84790722D02*
G01*
X77754264Y-84792882D01*
X77768543Y-84796459D01*
X77782403Y-84801418D01*
X77795710Y-84807712D01*
X77808336Y-84815280D01*
X77820159Y-84824048D01*
X77831066Y-84833934D01*
X77840952Y-84844841D01*
X77849720Y-84856664D01*
X77857288Y-84869290D01*
X77863582Y-84882597D01*
X77868541Y-84896457D01*
X77872118Y-84910736D01*
X77874278Y-84925297D01*
X77875000Y-84940000D01*
X77875000Y-85240000D01*
X77874278Y-85254703D01*
X77872118Y-85269264D01*
X77868541Y-85283543D01*
X77863582Y-85297403D01*
X77857288Y-85310710D01*
X77849720Y-85323336D01*
X77840952Y-85335159D01*
X77831066Y-85346066D01*
X77820159Y-85355952D01*
X77808336Y-85364720D01*
X77795710Y-85372288D01*
X77782403Y-85378582D01*
X77768543Y-85383541D01*
X77754264Y-85387118D01*
X77739703Y-85389278D01*
X77725000Y-85390000D01*
X76075000Y-85390000D01*
X76060297Y-85389278D01*
X76045736Y-85387118D01*
X76031457Y-85383541D01*
X76017597Y-85378582D01*
X76004290Y-85372288D01*
X75991664Y-85364720D01*
X75979841Y-85355952D01*
X75968934Y-85346066D01*
X75959048Y-85335159D01*
X75950280Y-85323336D01*
X75942712Y-85310710D01*
X75936418Y-85297403D01*
X75931459Y-85283543D01*
X75927882Y-85269264D01*
X75925722Y-85254703D01*
X75925000Y-85240000D01*
X75925000Y-84940000D01*
X75925722Y-84925297D01*
X75927882Y-84910736D01*
X75931459Y-84896457D01*
X75936418Y-84882597D01*
X75942712Y-84869290D01*
X75950280Y-84856664D01*
X75959048Y-84844841D01*
X75968934Y-84833934D01*
X75979841Y-84824048D01*
X75991664Y-84815280D01*
X76004290Y-84807712D01*
X76017597Y-84801418D01*
X76031457Y-84796459D01*
X76045736Y-84792882D01*
X76060297Y-84790722D01*
X76075000Y-84790000D01*
X77725000Y-84790000D01*
X77739703Y-84790722D01*
X77739703Y-84790722D01*
G37*
D12*
X76900000Y-85090000D03*
D10*
G36*
X77739703Y-83520722D02*
G01*
X77754264Y-83522882D01*
X77768543Y-83526459D01*
X77782403Y-83531418D01*
X77795710Y-83537712D01*
X77808336Y-83545280D01*
X77820159Y-83554048D01*
X77831066Y-83563934D01*
X77840952Y-83574841D01*
X77849720Y-83586664D01*
X77857288Y-83599290D01*
X77863582Y-83612597D01*
X77868541Y-83626457D01*
X77872118Y-83640736D01*
X77874278Y-83655297D01*
X77875000Y-83670000D01*
X77875000Y-83970000D01*
X77874278Y-83984703D01*
X77872118Y-83999264D01*
X77868541Y-84013543D01*
X77863582Y-84027403D01*
X77857288Y-84040710D01*
X77849720Y-84053336D01*
X77840952Y-84065159D01*
X77831066Y-84076066D01*
X77820159Y-84085952D01*
X77808336Y-84094720D01*
X77795710Y-84102288D01*
X77782403Y-84108582D01*
X77768543Y-84113541D01*
X77754264Y-84117118D01*
X77739703Y-84119278D01*
X77725000Y-84120000D01*
X76075000Y-84120000D01*
X76060297Y-84119278D01*
X76045736Y-84117118D01*
X76031457Y-84113541D01*
X76017597Y-84108582D01*
X76004290Y-84102288D01*
X75991664Y-84094720D01*
X75979841Y-84085952D01*
X75968934Y-84076066D01*
X75959048Y-84065159D01*
X75950280Y-84053336D01*
X75942712Y-84040710D01*
X75936418Y-84027403D01*
X75931459Y-84013543D01*
X75927882Y-83999264D01*
X75925722Y-83984703D01*
X75925000Y-83970000D01*
X75925000Y-83670000D01*
X75925722Y-83655297D01*
X75927882Y-83640736D01*
X75931459Y-83626457D01*
X75936418Y-83612597D01*
X75942712Y-83599290D01*
X75950280Y-83586664D01*
X75959048Y-83574841D01*
X75968934Y-83563934D01*
X75979841Y-83554048D01*
X75991664Y-83545280D01*
X76004290Y-83537712D01*
X76017597Y-83531418D01*
X76031457Y-83526459D01*
X76045736Y-83522882D01*
X76060297Y-83520722D01*
X76075000Y-83520000D01*
X77725000Y-83520000D01*
X77739703Y-83520722D01*
X77739703Y-83520722D01*
G37*
D12*
X76900000Y-83820000D03*
D10*
G36*
X77739703Y-82250722D02*
G01*
X77754264Y-82252882D01*
X77768543Y-82256459D01*
X77782403Y-82261418D01*
X77795710Y-82267712D01*
X77808336Y-82275280D01*
X77820159Y-82284048D01*
X77831066Y-82293934D01*
X77840952Y-82304841D01*
X77849720Y-82316664D01*
X77857288Y-82329290D01*
X77863582Y-82342597D01*
X77868541Y-82356457D01*
X77872118Y-82370736D01*
X77874278Y-82385297D01*
X77875000Y-82400000D01*
X77875000Y-82700000D01*
X77874278Y-82714703D01*
X77872118Y-82729264D01*
X77868541Y-82743543D01*
X77863582Y-82757403D01*
X77857288Y-82770710D01*
X77849720Y-82783336D01*
X77840952Y-82795159D01*
X77831066Y-82806066D01*
X77820159Y-82815952D01*
X77808336Y-82824720D01*
X77795710Y-82832288D01*
X77782403Y-82838582D01*
X77768543Y-82843541D01*
X77754264Y-82847118D01*
X77739703Y-82849278D01*
X77725000Y-82850000D01*
X76075000Y-82850000D01*
X76060297Y-82849278D01*
X76045736Y-82847118D01*
X76031457Y-82843541D01*
X76017597Y-82838582D01*
X76004290Y-82832288D01*
X75991664Y-82824720D01*
X75979841Y-82815952D01*
X75968934Y-82806066D01*
X75959048Y-82795159D01*
X75950280Y-82783336D01*
X75942712Y-82770710D01*
X75936418Y-82757403D01*
X75931459Y-82743543D01*
X75927882Y-82729264D01*
X75925722Y-82714703D01*
X75925000Y-82700000D01*
X75925000Y-82400000D01*
X75925722Y-82385297D01*
X75927882Y-82370736D01*
X75931459Y-82356457D01*
X75936418Y-82342597D01*
X75942712Y-82329290D01*
X75950280Y-82316664D01*
X75959048Y-82304841D01*
X75968934Y-82293934D01*
X75979841Y-82284048D01*
X75991664Y-82275280D01*
X76004290Y-82267712D01*
X76017597Y-82261418D01*
X76031457Y-82256459D01*
X76045736Y-82252882D01*
X76060297Y-82250722D01*
X76075000Y-82250000D01*
X77725000Y-82250000D01*
X77739703Y-82250722D01*
X77739703Y-82250722D01*
G37*
D12*
X76900000Y-82550000D03*
D10*
G36*
X77739703Y-80980722D02*
G01*
X77754264Y-80982882D01*
X77768543Y-80986459D01*
X77782403Y-80991418D01*
X77795710Y-80997712D01*
X77808336Y-81005280D01*
X77820159Y-81014048D01*
X77831066Y-81023934D01*
X77840952Y-81034841D01*
X77849720Y-81046664D01*
X77857288Y-81059290D01*
X77863582Y-81072597D01*
X77868541Y-81086457D01*
X77872118Y-81100736D01*
X77874278Y-81115297D01*
X77875000Y-81130000D01*
X77875000Y-81430000D01*
X77874278Y-81444703D01*
X77872118Y-81459264D01*
X77868541Y-81473543D01*
X77863582Y-81487403D01*
X77857288Y-81500710D01*
X77849720Y-81513336D01*
X77840952Y-81525159D01*
X77831066Y-81536066D01*
X77820159Y-81545952D01*
X77808336Y-81554720D01*
X77795710Y-81562288D01*
X77782403Y-81568582D01*
X77768543Y-81573541D01*
X77754264Y-81577118D01*
X77739703Y-81579278D01*
X77725000Y-81580000D01*
X76075000Y-81580000D01*
X76060297Y-81579278D01*
X76045736Y-81577118D01*
X76031457Y-81573541D01*
X76017597Y-81568582D01*
X76004290Y-81562288D01*
X75991664Y-81554720D01*
X75979841Y-81545952D01*
X75968934Y-81536066D01*
X75959048Y-81525159D01*
X75950280Y-81513336D01*
X75942712Y-81500710D01*
X75936418Y-81487403D01*
X75931459Y-81473543D01*
X75927882Y-81459264D01*
X75925722Y-81444703D01*
X75925000Y-81430000D01*
X75925000Y-81130000D01*
X75925722Y-81115297D01*
X75927882Y-81100736D01*
X75931459Y-81086457D01*
X75936418Y-81072597D01*
X75942712Y-81059290D01*
X75950280Y-81046664D01*
X75959048Y-81034841D01*
X75968934Y-81023934D01*
X75979841Y-81014048D01*
X75991664Y-81005280D01*
X76004290Y-80997712D01*
X76017597Y-80991418D01*
X76031457Y-80986459D01*
X76045736Y-80982882D01*
X76060297Y-80980722D01*
X76075000Y-80980000D01*
X77725000Y-80980000D01*
X77739703Y-80980722D01*
X77739703Y-80980722D01*
G37*
D12*
X76900000Y-81280000D03*
D13*
X97770000Y-51600000D03*
X97270000Y-51600000D03*
X96770000Y-51600000D03*
X96270000Y-51600000D03*
X95770000Y-51600000D03*
X95270000Y-51600000D03*
X95270000Y-50000000D03*
X95770000Y-50000000D03*
X96270000Y-50000000D03*
X96770000Y-50000000D03*
X97270000Y-50000000D03*
X97770000Y-50000000D03*
D10*
G36*
X85570142Y-83636174D02*
G01*
X85593803Y-83639684D01*
X85617007Y-83645496D01*
X85639529Y-83653554D01*
X85661153Y-83663782D01*
X85681670Y-83676079D01*
X85700883Y-83690329D01*
X85718607Y-83706393D01*
X85734671Y-83724117D01*
X85748921Y-83743330D01*
X85761218Y-83763847D01*
X85771446Y-83785471D01*
X85779504Y-83807993D01*
X85785316Y-83831197D01*
X85788826Y-83854858D01*
X85790000Y-83878750D01*
X85790000Y-84366250D01*
X85788826Y-84390142D01*
X85785316Y-84413803D01*
X85779504Y-84437007D01*
X85771446Y-84459529D01*
X85761218Y-84481153D01*
X85748921Y-84501670D01*
X85734671Y-84520883D01*
X85718607Y-84538607D01*
X85700883Y-84554671D01*
X85681670Y-84568921D01*
X85661153Y-84581218D01*
X85639529Y-84591446D01*
X85617007Y-84599504D01*
X85593803Y-84605316D01*
X85570142Y-84608826D01*
X85546250Y-84610000D01*
X84633750Y-84610000D01*
X84609858Y-84608826D01*
X84586197Y-84605316D01*
X84562993Y-84599504D01*
X84540471Y-84591446D01*
X84518847Y-84581218D01*
X84498330Y-84568921D01*
X84479117Y-84554671D01*
X84461393Y-84538607D01*
X84445329Y-84520883D01*
X84431079Y-84501670D01*
X84418782Y-84481153D01*
X84408554Y-84459529D01*
X84400496Y-84437007D01*
X84394684Y-84413803D01*
X84391174Y-84390142D01*
X84390000Y-84366250D01*
X84390000Y-83878750D01*
X84391174Y-83854858D01*
X84394684Y-83831197D01*
X84400496Y-83807993D01*
X84408554Y-83785471D01*
X84418782Y-83763847D01*
X84431079Y-83743330D01*
X84445329Y-83724117D01*
X84461393Y-83706393D01*
X84479117Y-83690329D01*
X84498330Y-83676079D01*
X84518847Y-83663782D01*
X84540471Y-83653554D01*
X84562993Y-83645496D01*
X84586197Y-83639684D01*
X84609858Y-83636174D01*
X84633750Y-83635000D01*
X85546250Y-83635000D01*
X85570142Y-83636174D01*
X85570142Y-83636174D01*
G37*
D14*
X85090000Y-84122500D03*
D10*
G36*
X85570142Y-81761174D02*
G01*
X85593803Y-81764684D01*
X85617007Y-81770496D01*
X85639529Y-81778554D01*
X85661153Y-81788782D01*
X85681670Y-81801079D01*
X85700883Y-81815329D01*
X85718607Y-81831393D01*
X85734671Y-81849117D01*
X85748921Y-81868330D01*
X85761218Y-81888847D01*
X85771446Y-81910471D01*
X85779504Y-81932993D01*
X85785316Y-81956197D01*
X85788826Y-81979858D01*
X85790000Y-82003750D01*
X85790000Y-82491250D01*
X85788826Y-82515142D01*
X85785316Y-82538803D01*
X85779504Y-82562007D01*
X85771446Y-82584529D01*
X85761218Y-82606153D01*
X85748921Y-82626670D01*
X85734671Y-82645883D01*
X85718607Y-82663607D01*
X85700883Y-82679671D01*
X85681670Y-82693921D01*
X85661153Y-82706218D01*
X85639529Y-82716446D01*
X85617007Y-82724504D01*
X85593803Y-82730316D01*
X85570142Y-82733826D01*
X85546250Y-82735000D01*
X84633750Y-82735000D01*
X84609858Y-82733826D01*
X84586197Y-82730316D01*
X84562993Y-82724504D01*
X84540471Y-82716446D01*
X84518847Y-82706218D01*
X84498330Y-82693921D01*
X84479117Y-82679671D01*
X84461393Y-82663607D01*
X84445329Y-82645883D01*
X84431079Y-82626670D01*
X84418782Y-82606153D01*
X84408554Y-82584529D01*
X84400496Y-82562007D01*
X84394684Y-82538803D01*
X84391174Y-82515142D01*
X84390000Y-82491250D01*
X84390000Y-82003750D01*
X84391174Y-81979858D01*
X84394684Y-81956197D01*
X84400496Y-81932993D01*
X84408554Y-81910471D01*
X84418782Y-81888847D01*
X84431079Y-81868330D01*
X84445329Y-81849117D01*
X84461393Y-81831393D01*
X84479117Y-81815329D01*
X84498330Y-81801079D01*
X84518847Y-81788782D01*
X84540471Y-81778554D01*
X84562993Y-81770496D01*
X84586197Y-81764684D01*
X84609858Y-81761174D01*
X84633750Y-81760000D01*
X85546250Y-81760000D01*
X85570142Y-81761174D01*
X85570142Y-81761174D01*
G37*
D14*
X85090000Y-82247500D03*
D10*
G36*
X70965142Y-100781174D02*
G01*
X70988803Y-100784684D01*
X71012007Y-100790496D01*
X71034529Y-100798554D01*
X71056153Y-100808782D01*
X71076670Y-100821079D01*
X71095883Y-100835329D01*
X71113607Y-100851393D01*
X71129671Y-100869117D01*
X71143921Y-100888330D01*
X71156218Y-100908847D01*
X71166446Y-100930471D01*
X71174504Y-100952993D01*
X71180316Y-100976197D01*
X71183826Y-100999858D01*
X71185000Y-101023750D01*
X71185000Y-101511250D01*
X71183826Y-101535142D01*
X71180316Y-101558803D01*
X71174504Y-101582007D01*
X71166446Y-101604529D01*
X71156218Y-101626153D01*
X71143921Y-101646670D01*
X71129671Y-101665883D01*
X71113607Y-101683607D01*
X71095883Y-101699671D01*
X71076670Y-101713921D01*
X71056153Y-101726218D01*
X71034529Y-101736446D01*
X71012007Y-101744504D01*
X70988803Y-101750316D01*
X70965142Y-101753826D01*
X70941250Y-101755000D01*
X70028750Y-101755000D01*
X70004858Y-101753826D01*
X69981197Y-101750316D01*
X69957993Y-101744504D01*
X69935471Y-101736446D01*
X69913847Y-101726218D01*
X69893330Y-101713921D01*
X69874117Y-101699671D01*
X69856393Y-101683607D01*
X69840329Y-101665883D01*
X69826079Y-101646670D01*
X69813782Y-101626153D01*
X69803554Y-101604529D01*
X69795496Y-101582007D01*
X69789684Y-101558803D01*
X69786174Y-101535142D01*
X69785000Y-101511250D01*
X69785000Y-101023750D01*
X69786174Y-100999858D01*
X69789684Y-100976197D01*
X69795496Y-100952993D01*
X69803554Y-100930471D01*
X69813782Y-100908847D01*
X69826079Y-100888330D01*
X69840329Y-100869117D01*
X69856393Y-100851393D01*
X69874117Y-100835329D01*
X69893330Y-100821079D01*
X69913847Y-100808782D01*
X69935471Y-100798554D01*
X69957993Y-100790496D01*
X69981197Y-100784684D01*
X70004858Y-100781174D01*
X70028750Y-100780000D01*
X70941250Y-100780000D01*
X70965142Y-100781174D01*
X70965142Y-100781174D01*
G37*
D14*
X70485000Y-101267500D03*
D10*
G36*
X70965142Y-98906174D02*
G01*
X70988803Y-98909684D01*
X71012007Y-98915496D01*
X71034529Y-98923554D01*
X71056153Y-98933782D01*
X71076670Y-98946079D01*
X71095883Y-98960329D01*
X71113607Y-98976393D01*
X71129671Y-98994117D01*
X71143921Y-99013330D01*
X71156218Y-99033847D01*
X71166446Y-99055471D01*
X71174504Y-99077993D01*
X71180316Y-99101197D01*
X71183826Y-99124858D01*
X71185000Y-99148750D01*
X71185000Y-99636250D01*
X71183826Y-99660142D01*
X71180316Y-99683803D01*
X71174504Y-99707007D01*
X71166446Y-99729529D01*
X71156218Y-99751153D01*
X71143921Y-99771670D01*
X71129671Y-99790883D01*
X71113607Y-99808607D01*
X71095883Y-99824671D01*
X71076670Y-99838921D01*
X71056153Y-99851218D01*
X71034529Y-99861446D01*
X71012007Y-99869504D01*
X70988803Y-99875316D01*
X70965142Y-99878826D01*
X70941250Y-99880000D01*
X70028750Y-99880000D01*
X70004858Y-99878826D01*
X69981197Y-99875316D01*
X69957993Y-99869504D01*
X69935471Y-99861446D01*
X69913847Y-99851218D01*
X69893330Y-99838921D01*
X69874117Y-99824671D01*
X69856393Y-99808607D01*
X69840329Y-99790883D01*
X69826079Y-99771670D01*
X69813782Y-99751153D01*
X69803554Y-99729529D01*
X69795496Y-99707007D01*
X69789684Y-99683803D01*
X69786174Y-99660142D01*
X69785000Y-99636250D01*
X69785000Y-99148750D01*
X69786174Y-99124858D01*
X69789684Y-99101197D01*
X69795496Y-99077993D01*
X69803554Y-99055471D01*
X69813782Y-99033847D01*
X69826079Y-99013330D01*
X69840329Y-98994117D01*
X69856393Y-98976393D01*
X69874117Y-98960329D01*
X69893330Y-98946079D01*
X69913847Y-98933782D01*
X69935471Y-98923554D01*
X69957993Y-98915496D01*
X69981197Y-98909684D01*
X70004858Y-98906174D01*
X70028750Y-98905000D01*
X70941250Y-98905000D01*
X70965142Y-98906174D01*
X70965142Y-98906174D01*
G37*
D14*
X70485000Y-99392500D03*
D10*
G36*
X68425142Y-100781174D02*
G01*
X68448803Y-100784684D01*
X68472007Y-100790496D01*
X68494529Y-100798554D01*
X68516153Y-100808782D01*
X68536670Y-100821079D01*
X68555883Y-100835329D01*
X68573607Y-100851393D01*
X68589671Y-100869117D01*
X68603921Y-100888330D01*
X68616218Y-100908847D01*
X68626446Y-100930471D01*
X68634504Y-100952993D01*
X68640316Y-100976197D01*
X68643826Y-100999858D01*
X68645000Y-101023750D01*
X68645000Y-101511250D01*
X68643826Y-101535142D01*
X68640316Y-101558803D01*
X68634504Y-101582007D01*
X68626446Y-101604529D01*
X68616218Y-101626153D01*
X68603921Y-101646670D01*
X68589671Y-101665883D01*
X68573607Y-101683607D01*
X68555883Y-101699671D01*
X68536670Y-101713921D01*
X68516153Y-101726218D01*
X68494529Y-101736446D01*
X68472007Y-101744504D01*
X68448803Y-101750316D01*
X68425142Y-101753826D01*
X68401250Y-101755000D01*
X67488750Y-101755000D01*
X67464858Y-101753826D01*
X67441197Y-101750316D01*
X67417993Y-101744504D01*
X67395471Y-101736446D01*
X67373847Y-101726218D01*
X67353330Y-101713921D01*
X67334117Y-101699671D01*
X67316393Y-101683607D01*
X67300329Y-101665883D01*
X67286079Y-101646670D01*
X67273782Y-101626153D01*
X67263554Y-101604529D01*
X67255496Y-101582007D01*
X67249684Y-101558803D01*
X67246174Y-101535142D01*
X67245000Y-101511250D01*
X67245000Y-101023750D01*
X67246174Y-100999858D01*
X67249684Y-100976197D01*
X67255496Y-100952993D01*
X67263554Y-100930471D01*
X67273782Y-100908847D01*
X67286079Y-100888330D01*
X67300329Y-100869117D01*
X67316393Y-100851393D01*
X67334117Y-100835329D01*
X67353330Y-100821079D01*
X67373847Y-100808782D01*
X67395471Y-100798554D01*
X67417993Y-100790496D01*
X67441197Y-100784684D01*
X67464858Y-100781174D01*
X67488750Y-100780000D01*
X68401250Y-100780000D01*
X68425142Y-100781174D01*
X68425142Y-100781174D01*
G37*
D14*
X67945000Y-101267500D03*
D10*
G36*
X68425142Y-98906174D02*
G01*
X68448803Y-98909684D01*
X68472007Y-98915496D01*
X68494529Y-98923554D01*
X68516153Y-98933782D01*
X68536670Y-98946079D01*
X68555883Y-98960329D01*
X68573607Y-98976393D01*
X68589671Y-98994117D01*
X68603921Y-99013330D01*
X68616218Y-99033847D01*
X68626446Y-99055471D01*
X68634504Y-99077993D01*
X68640316Y-99101197D01*
X68643826Y-99124858D01*
X68645000Y-99148750D01*
X68645000Y-99636250D01*
X68643826Y-99660142D01*
X68640316Y-99683803D01*
X68634504Y-99707007D01*
X68626446Y-99729529D01*
X68616218Y-99751153D01*
X68603921Y-99771670D01*
X68589671Y-99790883D01*
X68573607Y-99808607D01*
X68555883Y-99824671D01*
X68536670Y-99838921D01*
X68516153Y-99851218D01*
X68494529Y-99861446D01*
X68472007Y-99869504D01*
X68448803Y-99875316D01*
X68425142Y-99878826D01*
X68401250Y-99880000D01*
X67488750Y-99880000D01*
X67464858Y-99878826D01*
X67441197Y-99875316D01*
X67417993Y-99869504D01*
X67395471Y-99861446D01*
X67373847Y-99851218D01*
X67353330Y-99838921D01*
X67334117Y-99824671D01*
X67316393Y-99808607D01*
X67300329Y-99790883D01*
X67286079Y-99771670D01*
X67273782Y-99751153D01*
X67263554Y-99729529D01*
X67255496Y-99707007D01*
X67249684Y-99683803D01*
X67246174Y-99660142D01*
X67245000Y-99636250D01*
X67245000Y-99148750D01*
X67246174Y-99124858D01*
X67249684Y-99101197D01*
X67255496Y-99077993D01*
X67263554Y-99055471D01*
X67273782Y-99033847D01*
X67286079Y-99013330D01*
X67300329Y-98994117D01*
X67316393Y-98976393D01*
X67334117Y-98960329D01*
X67353330Y-98946079D01*
X67373847Y-98933782D01*
X67395471Y-98923554D01*
X67417993Y-98915496D01*
X67441197Y-98909684D01*
X67464858Y-98906174D01*
X67488750Y-98905000D01*
X68401250Y-98905000D01*
X68425142Y-98906174D01*
X68425142Y-98906174D01*
G37*
D14*
X67945000Y-99392500D03*
D10*
G36*
X70671958Y-131635710D02*
G01*
X70686276Y-131637834D01*
X70700317Y-131641351D01*
X70713946Y-131646228D01*
X70727031Y-131652417D01*
X70739447Y-131659858D01*
X70751073Y-131668481D01*
X70761798Y-131678202D01*
X70771519Y-131688927D01*
X70780142Y-131700553D01*
X70787583Y-131712969D01*
X70793772Y-131726054D01*
X70798649Y-131739683D01*
X70802166Y-131753724D01*
X70804290Y-131768042D01*
X70805000Y-131782500D01*
X70805000Y-132077500D01*
X70804290Y-132091958D01*
X70802166Y-132106276D01*
X70798649Y-132120317D01*
X70793772Y-132133946D01*
X70787583Y-132147031D01*
X70780142Y-132159447D01*
X70771519Y-132171073D01*
X70761798Y-132181798D01*
X70751073Y-132191519D01*
X70739447Y-132200142D01*
X70727031Y-132207583D01*
X70713946Y-132213772D01*
X70700317Y-132218649D01*
X70686276Y-132222166D01*
X70671958Y-132224290D01*
X70657500Y-132225000D01*
X70312500Y-132225000D01*
X70298042Y-132224290D01*
X70283724Y-132222166D01*
X70269683Y-132218649D01*
X70256054Y-132213772D01*
X70242969Y-132207583D01*
X70230553Y-132200142D01*
X70218927Y-132191519D01*
X70208202Y-132181798D01*
X70198481Y-132171073D01*
X70189858Y-132159447D01*
X70182417Y-132147031D01*
X70176228Y-132133946D01*
X70171351Y-132120317D01*
X70167834Y-132106276D01*
X70165710Y-132091958D01*
X70165000Y-132077500D01*
X70165000Y-131782500D01*
X70165710Y-131768042D01*
X70167834Y-131753724D01*
X70171351Y-131739683D01*
X70176228Y-131726054D01*
X70182417Y-131712969D01*
X70189858Y-131700553D01*
X70198481Y-131688927D01*
X70208202Y-131678202D01*
X70218927Y-131668481D01*
X70230553Y-131659858D01*
X70242969Y-131652417D01*
X70256054Y-131646228D01*
X70269683Y-131641351D01*
X70283724Y-131637834D01*
X70298042Y-131635710D01*
X70312500Y-131635000D01*
X70657500Y-131635000D01*
X70671958Y-131635710D01*
X70671958Y-131635710D01*
G37*
D15*
X70485000Y-131930000D03*
D10*
G36*
X70671958Y-130665710D02*
G01*
X70686276Y-130667834D01*
X70700317Y-130671351D01*
X70713946Y-130676228D01*
X70727031Y-130682417D01*
X70739447Y-130689858D01*
X70751073Y-130698481D01*
X70761798Y-130708202D01*
X70771519Y-130718927D01*
X70780142Y-130730553D01*
X70787583Y-130742969D01*
X70793772Y-130756054D01*
X70798649Y-130769683D01*
X70802166Y-130783724D01*
X70804290Y-130798042D01*
X70805000Y-130812500D01*
X70805000Y-131107500D01*
X70804290Y-131121958D01*
X70802166Y-131136276D01*
X70798649Y-131150317D01*
X70793772Y-131163946D01*
X70787583Y-131177031D01*
X70780142Y-131189447D01*
X70771519Y-131201073D01*
X70761798Y-131211798D01*
X70751073Y-131221519D01*
X70739447Y-131230142D01*
X70727031Y-131237583D01*
X70713946Y-131243772D01*
X70700317Y-131248649D01*
X70686276Y-131252166D01*
X70671958Y-131254290D01*
X70657500Y-131255000D01*
X70312500Y-131255000D01*
X70298042Y-131254290D01*
X70283724Y-131252166D01*
X70269683Y-131248649D01*
X70256054Y-131243772D01*
X70242969Y-131237583D01*
X70230553Y-131230142D01*
X70218927Y-131221519D01*
X70208202Y-131211798D01*
X70198481Y-131201073D01*
X70189858Y-131189447D01*
X70182417Y-131177031D01*
X70176228Y-131163946D01*
X70171351Y-131150317D01*
X70167834Y-131136276D01*
X70165710Y-131121958D01*
X70165000Y-131107500D01*
X70165000Y-130812500D01*
X70165710Y-130798042D01*
X70167834Y-130783724D01*
X70171351Y-130769683D01*
X70176228Y-130756054D01*
X70182417Y-130742969D01*
X70189858Y-130730553D01*
X70198481Y-130718927D01*
X70208202Y-130708202D01*
X70218927Y-130698481D01*
X70230553Y-130689858D01*
X70242969Y-130682417D01*
X70256054Y-130676228D01*
X70269683Y-130671351D01*
X70283724Y-130667834D01*
X70298042Y-130665710D01*
X70312500Y-130665000D01*
X70657500Y-130665000D01*
X70671958Y-130665710D01*
X70671958Y-130665710D01*
G37*
D15*
X70485000Y-130960000D03*
D10*
G36*
X87181958Y-54465710D02*
G01*
X87196276Y-54467834D01*
X87210317Y-54471351D01*
X87223946Y-54476228D01*
X87237031Y-54482417D01*
X87249447Y-54489858D01*
X87261073Y-54498481D01*
X87271798Y-54508202D01*
X87281519Y-54518927D01*
X87290142Y-54530553D01*
X87297583Y-54542969D01*
X87303772Y-54556054D01*
X87308649Y-54569683D01*
X87312166Y-54583724D01*
X87314290Y-54598042D01*
X87315000Y-54612500D01*
X87315000Y-54907500D01*
X87314290Y-54921958D01*
X87312166Y-54936276D01*
X87308649Y-54950317D01*
X87303772Y-54963946D01*
X87297583Y-54977031D01*
X87290142Y-54989447D01*
X87281519Y-55001073D01*
X87271798Y-55011798D01*
X87261073Y-55021519D01*
X87249447Y-55030142D01*
X87237031Y-55037583D01*
X87223946Y-55043772D01*
X87210317Y-55048649D01*
X87196276Y-55052166D01*
X87181958Y-55054290D01*
X87167500Y-55055000D01*
X86822500Y-55055000D01*
X86808042Y-55054290D01*
X86793724Y-55052166D01*
X86779683Y-55048649D01*
X86766054Y-55043772D01*
X86752969Y-55037583D01*
X86740553Y-55030142D01*
X86728927Y-55021519D01*
X86718202Y-55011798D01*
X86708481Y-55001073D01*
X86699858Y-54989447D01*
X86692417Y-54977031D01*
X86686228Y-54963946D01*
X86681351Y-54950317D01*
X86677834Y-54936276D01*
X86675710Y-54921958D01*
X86675000Y-54907500D01*
X86675000Y-54612500D01*
X86675710Y-54598042D01*
X86677834Y-54583724D01*
X86681351Y-54569683D01*
X86686228Y-54556054D01*
X86692417Y-54542969D01*
X86699858Y-54530553D01*
X86708481Y-54518927D01*
X86718202Y-54508202D01*
X86728927Y-54498481D01*
X86740553Y-54489858D01*
X86752969Y-54482417D01*
X86766054Y-54476228D01*
X86779683Y-54471351D01*
X86793724Y-54467834D01*
X86808042Y-54465710D01*
X86822500Y-54465000D01*
X87167500Y-54465000D01*
X87181958Y-54465710D01*
X87181958Y-54465710D01*
G37*
D15*
X86995000Y-54760000D03*
D10*
G36*
X87181958Y-55435710D02*
G01*
X87196276Y-55437834D01*
X87210317Y-55441351D01*
X87223946Y-55446228D01*
X87237031Y-55452417D01*
X87249447Y-55459858D01*
X87261073Y-55468481D01*
X87271798Y-55478202D01*
X87281519Y-55488927D01*
X87290142Y-55500553D01*
X87297583Y-55512969D01*
X87303772Y-55526054D01*
X87308649Y-55539683D01*
X87312166Y-55553724D01*
X87314290Y-55568042D01*
X87315000Y-55582500D01*
X87315000Y-55877500D01*
X87314290Y-55891958D01*
X87312166Y-55906276D01*
X87308649Y-55920317D01*
X87303772Y-55933946D01*
X87297583Y-55947031D01*
X87290142Y-55959447D01*
X87281519Y-55971073D01*
X87271798Y-55981798D01*
X87261073Y-55991519D01*
X87249447Y-56000142D01*
X87237031Y-56007583D01*
X87223946Y-56013772D01*
X87210317Y-56018649D01*
X87196276Y-56022166D01*
X87181958Y-56024290D01*
X87167500Y-56025000D01*
X86822500Y-56025000D01*
X86808042Y-56024290D01*
X86793724Y-56022166D01*
X86779683Y-56018649D01*
X86766054Y-56013772D01*
X86752969Y-56007583D01*
X86740553Y-56000142D01*
X86728927Y-55991519D01*
X86718202Y-55981798D01*
X86708481Y-55971073D01*
X86699858Y-55959447D01*
X86692417Y-55947031D01*
X86686228Y-55933946D01*
X86681351Y-55920317D01*
X86677834Y-55906276D01*
X86675710Y-55891958D01*
X86675000Y-55877500D01*
X86675000Y-55582500D01*
X86675710Y-55568042D01*
X86677834Y-55553724D01*
X86681351Y-55539683D01*
X86686228Y-55526054D01*
X86692417Y-55512969D01*
X86699858Y-55500553D01*
X86708481Y-55488927D01*
X86718202Y-55478202D01*
X86728927Y-55468481D01*
X86740553Y-55459858D01*
X86752969Y-55452417D01*
X86766054Y-55446228D01*
X86779683Y-55441351D01*
X86793724Y-55437834D01*
X86808042Y-55435710D01*
X86822500Y-55435000D01*
X87167500Y-55435000D01*
X87181958Y-55435710D01*
X87181958Y-55435710D01*
G37*
D15*
X86995000Y-55730000D03*
D16*
X102600000Y-52705000D03*
X100600000Y-53655000D03*
X100600000Y-51755000D03*
D10*
G36*
X70762691Y-127986053D02*
G01*
X70783926Y-127989203D01*
X70804750Y-127994419D01*
X70824962Y-128001651D01*
X70844368Y-128010830D01*
X70862781Y-128021866D01*
X70880024Y-128034654D01*
X70895930Y-128049070D01*
X70910346Y-128064976D01*
X70923134Y-128082219D01*
X70934170Y-128100632D01*
X70943349Y-128120038D01*
X70950581Y-128140250D01*
X70955797Y-128161074D01*
X70958947Y-128182309D01*
X70960000Y-128203750D01*
X70960000Y-128641250D01*
X70958947Y-128662691D01*
X70955797Y-128683926D01*
X70950581Y-128704750D01*
X70943349Y-128724962D01*
X70934170Y-128744368D01*
X70923134Y-128762781D01*
X70910346Y-128780024D01*
X70895930Y-128795930D01*
X70880024Y-128810346D01*
X70862781Y-128823134D01*
X70844368Y-128834170D01*
X70824962Y-128843349D01*
X70804750Y-128850581D01*
X70783926Y-128855797D01*
X70762691Y-128858947D01*
X70741250Y-128860000D01*
X70228750Y-128860000D01*
X70207309Y-128858947D01*
X70186074Y-128855797D01*
X70165250Y-128850581D01*
X70145038Y-128843349D01*
X70125632Y-128834170D01*
X70107219Y-128823134D01*
X70089976Y-128810346D01*
X70074070Y-128795930D01*
X70059654Y-128780024D01*
X70046866Y-128762781D01*
X70035830Y-128744368D01*
X70026651Y-128724962D01*
X70019419Y-128704750D01*
X70014203Y-128683926D01*
X70011053Y-128662691D01*
X70010000Y-128641250D01*
X70010000Y-128203750D01*
X70011053Y-128182309D01*
X70014203Y-128161074D01*
X70019419Y-128140250D01*
X70026651Y-128120038D01*
X70035830Y-128100632D01*
X70046866Y-128082219D01*
X70059654Y-128064976D01*
X70074070Y-128049070D01*
X70089976Y-128034654D01*
X70107219Y-128021866D01*
X70125632Y-128010830D01*
X70145038Y-128001651D01*
X70165250Y-127994419D01*
X70186074Y-127989203D01*
X70207309Y-127986053D01*
X70228750Y-127985000D01*
X70741250Y-127985000D01*
X70762691Y-127986053D01*
X70762691Y-127986053D01*
G37*
D11*
X70485000Y-128422500D03*
D10*
G36*
X70762691Y-126411053D02*
G01*
X70783926Y-126414203D01*
X70804750Y-126419419D01*
X70824962Y-126426651D01*
X70844368Y-126435830D01*
X70862781Y-126446866D01*
X70880024Y-126459654D01*
X70895930Y-126474070D01*
X70910346Y-126489976D01*
X70923134Y-126507219D01*
X70934170Y-126525632D01*
X70943349Y-126545038D01*
X70950581Y-126565250D01*
X70955797Y-126586074D01*
X70958947Y-126607309D01*
X70960000Y-126628750D01*
X70960000Y-127066250D01*
X70958947Y-127087691D01*
X70955797Y-127108926D01*
X70950581Y-127129750D01*
X70943349Y-127149962D01*
X70934170Y-127169368D01*
X70923134Y-127187781D01*
X70910346Y-127205024D01*
X70895930Y-127220930D01*
X70880024Y-127235346D01*
X70862781Y-127248134D01*
X70844368Y-127259170D01*
X70824962Y-127268349D01*
X70804750Y-127275581D01*
X70783926Y-127280797D01*
X70762691Y-127283947D01*
X70741250Y-127285000D01*
X70228750Y-127285000D01*
X70207309Y-127283947D01*
X70186074Y-127280797D01*
X70165250Y-127275581D01*
X70145038Y-127268349D01*
X70125632Y-127259170D01*
X70107219Y-127248134D01*
X70089976Y-127235346D01*
X70074070Y-127220930D01*
X70059654Y-127205024D01*
X70046866Y-127187781D01*
X70035830Y-127169368D01*
X70026651Y-127149962D01*
X70019419Y-127129750D01*
X70014203Y-127108926D01*
X70011053Y-127087691D01*
X70010000Y-127066250D01*
X70010000Y-126628750D01*
X70011053Y-126607309D01*
X70014203Y-126586074D01*
X70019419Y-126565250D01*
X70026651Y-126545038D01*
X70035830Y-126525632D01*
X70046866Y-126507219D01*
X70059654Y-126489976D01*
X70074070Y-126474070D01*
X70089976Y-126459654D01*
X70107219Y-126446866D01*
X70125632Y-126435830D01*
X70145038Y-126426651D01*
X70165250Y-126419419D01*
X70186074Y-126414203D01*
X70207309Y-126411053D01*
X70228750Y-126410000D01*
X70741250Y-126410000D01*
X70762691Y-126411053D01*
X70762691Y-126411053D01*
G37*
D11*
X70485000Y-126847500D03*
D10*
G36*
X87272691Y-57831053D02*
G01*
X87293926Y-57834203D01*
X87314750Y-57839419D01*
X87334962Y-57846651D01*
X87354368Y-57855830D01*
X87372781Y-57866866D01*
X87390024Y-57879654D01*
X87405930Y-57894070D01*
X87420346Y-57909976D01*
X87433134Y-57927219D01*
X87444170Y-57945632D01*
X87453349Y-57965038D01*
X87460581Y-57985250D01*
X87465797Y-58006074D01*
X87468947Y-58027309D01*
X87470000Y-58048750D01*
X87470000Y-58486250D01*
X87468947Y-58507691D01*
X87465797Y-58528926D01*
X87460581Y-58549750D01*
X87453349Y-58569962D01*
X87444170Y-58589368D01*
X87433134Y-58607781D01*
X87420346Y-58625024D01*
X87405930Y-58640930D01*
X87390024Y-58655346D01*
X87372781Y-58668134D01*
X87354368Y-58679170D01*
X87334962Y-58688349D01*
X87314750Y-58695581D01*
X87293926Y-58700797D01*
X87272691Y-58703947D01*
X87251250Y-58705000D01*
X86738750Y-58705000D01*
X86717309Y-58703947D01*
X86696074Y-58700797D01*
X86675250Y-58695581D01*
X86655038Y-58688349D01*
X86635632Y-58679170D01*
X86617219Y-58668134D01*
X86599976Y-58655346D01*
X86584070Y-58640930D01*
X86569654Y-58625024D01*
X86556866Y-58607781D01*
X86545830Y-58589368D01*
X86536651Y-58569962D01*
X86529419Y-58549750D01*
X86524203Y-58528926D01*
X86521053Y-58507691D01*
X86520000Y-58486250D01*
X86520000Y-58048750D01*
X86521053Y-58027309D01*
X86524203Y-58006074D01*
X86529419Y-57985250D01*
X86536651Y-57965038D01*
X86545830Y-57945632D01*
X86556866Y-57927219D01*
X86569654Y-57909976D01*
X86584070Y-57894070D01*
X86599976Y-57879654D01*
X86617219Y-57866866D01*
X86635632Y-57855830D01*
X86655038Y-57846651D01*
X86675250Y-57839419D01*
X86696074Y-57834203D01*
X86717309Y-57831053D01*
X86738750Y-57830000D01*
X87251250Y-57830000D01*
X87272691Y-57831053D01*
X87272691Y-57831053D01*
G37*
D11*
X86995000Y-58267500D03*
D10*
G36*
X87272691Y-59406053D02*
G01*
X87293926Y-59409203D01*
X87314750Y-59414419D01*
X87334962Y-59421651D01*
X87354368Y-59430830D01*
X87372781Y-59441866D01*
X87390024Y-59454654D01*
X87405930Y-59469070D01*
X87420346Y-59484976D01*
X87433134Y-59502219D01*
X87444170Y-59520632D01*
X87453349Y-59540038D01*
X87460581Y-59560250D01*
X87465797Y-59581074D01*
X87468947Y-59602309D01*
X87470000Y-59623750D01*
X87470000Y-60061250D01*
X87468947Y-60082691D01*
X87465797Y-60103926D01*
X87460581Y-60124750D01*
X87453349Y-60144962D01*
X87444170Y-60164368D01*
X87433134Y-60182781D01*
X87420346Y-60200024D01*
X87405930Y-60215930D01*
X87390024Y-60230346D01*
X87372781Y-60243134D01*
X87354368Y-60254170D01*
X87334962Y-60263349D01*
X87314750Y-60270581D01*
X87293926Y-60275797D01*
X87272691Y-60278947D01*
X87251250Y-60280000D01*
X86738750Y-60280000D01*
X86717309Y-60278947D01*
X86696074Y-60275797D01*
X86675250Y-60270581D01*
X86655038Y-60263349D01*
X86635632Y-60254170D01*
X86617219Y-60243134D01*
X86599976Y-60230346D01*
X86584070Y-60215930D01*
X86569654Y-60200024D01*
X86556866Y-60182781D01*
X86545830Y-60164368D01*
X86536651Y-60144962D01*
X86529419Y-60124750D01*
X86524203Y-60103926D01*
X86521053Y-60082691D01*
X86520000Y-60061250D01*
X86520000Y-59623750D01*
X86521053Y-59602309D01*
X86524203Y-59581074D01*
X86529419Y-59560250D01*
X86536651Y-59540038D01*
X86545830Y-59520632D01*
X86556866Y-59502219D01*
X86569654Y-59484976D01*
X86584070Y-59469070D01*
X86599976Y-59454654D01*
X86617219Y-59441866D01*
X86635632Y-59430830D01*
X86655038Y-59421651D01*
X86675250Y-59414419D01*
X86696074Y-59409203D01*
X86717309Y-59406053D01*
X86738750Y-59405000D01*
X87251250Y-59405000D01*
X87272691Y-59406053D01*
X87272691Y-59406053D01*
G37*
D11*
X86995000Y-59842500D03*
D10*
G36*
X90892691Y-51596053D02*
G01*
X90913926Y-51599203D01*
X90934750Y-51604419D01*
X90954962Y-51611651D01*
X90974368Y-51620830D01*
X90992781Y-51631866D01*
X91010024Y-51644654D01*
X91025930Y-51659070D01*
X91040346Y-51674976D01*
X91053134Y-51692219D01*
X91064170Y-51710632D01*
X91073349Y-51730038D01*
X91080581Y-51750250D01*
X91085797Y-51771074D01*
X91088947Y-51792309D01*
X91090000Y-51813750D01*
X91090000Y-52326250D01*
X91088947Y-52347691D01*
X91085797Y-52368926D01*
X91080581Y-52389750D01*
X91073349Y-52409962D01*
X91064170Y-52429368D01*
X91053134Y-52447781D01*
X91040346Y-52465024D01*
X91025930Y-52480930D01*
X91010024Y-52495346D01*
X90992781Y-52508134D01*
X90974368Y-52519170D01*
X90954962Y-52528349D01*
X90934750Y-52535581D01*
X90913926Y-52540797D01*
X90892691Y-52543947D01*
X90871250Y-52545000D01*
X90433750Y-52545000D01*
X90412309Y-52543947D01*
X90391074Y-52540797D01*
X90370250Y-52535581D01*
X90350038Y-52528349D01*
X90330632Y-52519170D01*
X90312219Y-52508134D01*
X90294976Y-52495346D01*
X90279070Y-52480930D01*
X90264654Y-52465024D01*
X90251866Y-52447781D01*
X90240830Y-52429368D01*
X90231651Y-52409962D01*
X90224419Y-52389750D01*
X90219203Y-52368926D01*
X90216053Y-52347691D01*
X90215000Y-52326250D01*
X90215000Y-51813750D01*
X90216053Y-51792309D01*
X90219203Y-51771074D01*
X90224419Y-51750250D01*
X90231651Y-51730038D01*
X90240830Y-51710632D01*
X90251866Y-51692219D01*
X90264654Y-51674976D01*
X90279070Y-51659070D01*
X90294976Y-51644654D01*
X90312219Y-51631866D01*
X90330632Y-51620830D01*
X90350038Y-51611651D01*
X90370250Y-51604419D01*
X90391074Y-51599203D01*
X90412309Y-51596053D01*
X90433750Y-51595000D01*
X90871250Y-51595000D01*
X90892691Y-51596053D01*
X90892691Y-51596053D01*
G37*
D11*
X90652500Y-52070000D03*
D10*
G36*
X92467691Y-51596053D02*
G01*
X92488926Y-51599203D01*
X92509750Y-51604419D01*
X92529962Y-51611651D01*
X92549368Y-51620830D01*
X92567781Y-51631866D01*
X92585024Y-51644654D01*
X92600930Y-51659070D01*
X92615346Y-51674976D01*
X92628134Y-51692219D01*
X92639170Y-51710632D01*
X92648349Y-51730038D01*
X92655581Y-51750250D01*
X92660797Y-51771074D01*
X92663947Y-51792309D01*
X92665000Y-51813750D01*
X92665000Y-52326250D01*
X92663947Y-52347691D01*
X92660797Y-52368926D01*
X92655581Y-52389750D01*
X92648349Y-52409962D01*
X92639170Y-52429368D01*
X92628134Y-52447781D01*
X92615346Y-52465024D01*
X92600930Y-52480930D01*
X92585024Y-52495346D01*
X92567781Y-52508134D01*
X92549368Y-52519170D01*
X92529962Y-52528349D01*
X92509750Y-52535581D01*
X92488926Y-52540797D01*
X92467691Y-52543947D01*
X92446250Y-52545000D01*
X92008750Y-52545000D01*
X91987309Y-52543947D01*
X91966074Y-52540797D01*
X91945250Y-52535581D01*
X91925038Y-52528349D01*
X91905632Y-52519170D01*
X91887219Y-52508134D01*
X91869976Y-52495346D01*
X91854070Y-52480930D01*
X91839654Y-52465024D01*
X91826866Y-52447781D01*
X91815830Y-52429368D01*
X91806651Y-52409962D01*
X91799419Y-52389750D01*
X91794203Y-52368926D01*
X91791053Y-52347691D01*
X91790000Y-52326250D01*
X91790000Y-51813750D01*
X91791053Y-51792309D01*
X91794203Y-51771074D01*
X91799419Y-51750250D01*
X91806651Y-51730038D01*
X91815830Y-51710632D01*
X91826866Y-51692219D01*
X91839654Y-51674976D01*
X91854070Y-51659070D01*
X91869976Y-51644654D01*
X91887219Y-51631866D01*
X91905632Y-51620830D01*
X91925038Y-51611651D01*
X91945250Y-51604419D01*
X91966074Y-51599203D01*
X91987309Y-51596053D01*
X92008750Y-51595000D01*
X92446250Y-51595000D01*
X92467691Y-51596053D01*
X92467691Y-51596053D01*
G37*
D11*
X92227500Y-52070000D03*
D10*
G36*
X97587292Y-86180383D02*
G01*
X97595010Y-86181528D01*
X97602578Y-86183423D01*
X97609923Y-86186052D01*
X97616976Y-86189387D01*
X97623668Y-86193398D01*
X97629934Y-86198046D01*
X97635715Y-86203285D01*
X97640954Y-86209066D01*
X97645602Y-86215332D01*
X97649613Y-86222024D01*
X97652948Y-86229077D01*
X97655577Y-86236422D01*
X97657472Y-86243990D01*
X97658617Y-86251708D01*
X97659000Y-86259500D01*
X97659000Y-86460500D01*
X97658617Y-86468292D01*
X97657472Y-86476010D01*
X97655577Y-86483578D01*
X97652948Y-86490923D01*
X97649613Y-86497976D01*
X97645602Y-86504668D01*
X97640954Y-86510934D01*
X97635715Y-86516715D01*
X97629934Y-86521954D01*
X97623668Y-86526602D01*
X97616976Y-86530613D01*
X97609923Y-86533948D01*
X97602578Y-86536577D01*
X97595010Y-86538472D01*
X97587292Y-86539617D01*
X97579500Y-86540000D01*
X97420500Y-86540000D01*
X97412708Y-86539617D01*
X97404990Y-86538472D01*
X97397422Y-86536577D01*
X97390077Y-86533948D01*
X97383024Y-86530613D01*
X97376332Y-86526602D01*
X97370066Y-86521954D01*
X97364285Y-86516715D01*
X97359046Y-86510934D01*
X97354398Y-86504668D01*
X97350387Y-86497976D01*
X97347052Y-86490923D01*
X97344423Y-86483578D01*
X97342528Y-86476010D01*
X97341383Y-86468292D01*
X97341000Y-86460500D01*
X97341000Y-86259500D01*
X97341383Y-86251708D01*
X97342528Y-86243990D01*
X97344423Y-86236422D01*
X97347052Y-86229077D01*
X97350387Y-86222024D01*
X97354398Y-86215332D01*
X97359046Y-86209066D01*
X97364285Y-86203285D01*
X97370066Y-86198046D01*
X97376332Y-86193398D01*
X97383024Y-86189387D01*
X97390077Y-86186052D01*
X97397422Y-86183423D01*
X97404990Y-86181528D01*
X97412708Y-86180383D01*
X97420500Y-86180000D01*
X97579500Y-86180000D01*
X97587292Y-86180383D01*
X97587292Y-86180383D01*
G37*
D17*
X97500000Y-86360000D03*
D10*
G36*
X96897292Y-86180383D02*
G01*
X96905010Y-86181528D01*
X96912578Y-86183423D01*
X96919923Y-86186052D01*
X96926976Y-86189387D01*
X96933668Y-86193398D01*
X96939934Y-86198046D01*
X96945715Y-86203285D01*
X96950954Y-86209066D01*
X96955602Y-86215332D01*
X96959613Y-86222024D01*
X96962948Y-86229077D01*
X96965577Y-86236422D01*
X96967472Y-86243990D01*
X96968617Y-86251708D01*
X96969000Y-86259500D01*
X96969000Y-86460500D01*
X96968617Y-86468292D01*
X96967472Y-86476010D01*
X96965577Y-86483578D01*
X96962948Y-86490923D01*
X96959613Y-86497976D01*
X96955602Y-86504668D01*
X96950954Y-86510934D01*
X96945715Y-86516715D01*
X96939934Y-86521954D01*
X96933668Y-86526602D01*
X96926976Y-86530613D01*
X96919923Y-86533948D01*
X96912578Y-86536577D01*
X96905010Y-86538472D01*
X96897292Y-86539617D01*
X96889500Y-86540000D01*
X96730500Y-86540000D01*
X96722708Y-86539617D01*
X96714990Y-86538472D01*
X96707422Y-86536577D01*
X96700077Y-86533948D01*
X96693024Y-86530613D01*
X96686332Y-86526602D01*
X96680066Y-86521954D01*
X96674285Y-86516715D01*
X96669046Y-86510934D01*
X96664398Y-86504668D01*
X96660387Y-86497976D01*
X96657052Y-86490923D01*
X96654423Y-86483578D01*
X96652528Y-86476010D01*
X96651383Y-86468292D01*
X96651000Y-86460500D01*
X96651000Y-86259500D01*
X96651383Y-86251708D01*
X96652528Y-86243990D01*
X96654423Y-86236422D01*
X96657052Y-86229077D01*
X96660387Y-86222024D01*
X96664398Y-86215332D01*
X96669046Y-86209066D01*
X96674285Y-86203285D01*
X96680066Y-86198046D01*
X96686332Y-86193398D01*
X96693024Y-86189387D01*
X96700077Y-86186052D01*
X96707422Y-86183423D01*
X96714990Y-86181528D01*
X96722708Y-86180383D01*
X96730500Y-86180000D01*
X96889500Y-86180000D01*
X96897292Y-86180383D01*
X96897292Y-86180383D01*
G37*
D17*
X96810000Y-86360000D03*
D10*
G36*
X100127292Y-86180383D02*
G01*
X100135010Y-86181528D01*
X100142578Y-86183423D01*
X100149923Y-86186052D01*
X100156976Y-86189387D01*
X100163668Y-86193398D01*
X100169934Y-86198046D01*
X100175715Y-86203285D01*
X100180954Y-86209066D01*
X100185602Y-86215332D01*
X100189613Y-86222024D01*
X100192948Y-86229077D01*
X100195577Y-86236422D01*
X100197472Y-86243990D01*
X100198617Y-86251708D01*
X100199000Y-86259500D01*
X100199000Y-86460500D01*
X100198617Y-86468292D01*
X100197472Y-86476010D01*
X100195577Y-86483578D01*
X100192948Y-86490923D01*
X100189613Y-86497976D01*
X100185602Y-86504668D01*
X100180954Y-86510934D01*
X100175715Y-86516715D01*
X100169934Y-86521954D01*
X100163668Y-86526602D01*
X100156976Y-86530613D01*
X100149923Y-86533948D01*
X100142578Y-86536577D01*
X100135010Y-86538472D01*
X100127292Y-86539617D01*
X100119500Y-86540000D01*
X99960500Y-86540000D01*
X99952708Y-86539617D01*
X99944990Y-86538472D01*
X99937422Y-86536577D01*
X99930077Y-86533948D01*
X99923024Y-86530613D01*
X99916332Y-86526602D01*
X99910066Y-86521954D01*
X99904285Y-86516715D01*
X99899046Y-86510934D01*
X99894398Y-86504668D01*
X99890387Y-86497976D01*
X99887052Y-86490923D01*
X99884423Y-86483578D01*
X99882528Y-86476010D01*
X99881383Y-86468292D01*
X99881000Y-86460500D01*
X99881000Y-86259500D01*
X99881383Y-86251708D01*
X99882528Y-86243990D01*
X99884423Y-86236422D01*
X99887052Y-86229077D01*
X99890387Y-86222024D01*
X99894398Y-86215332D01*
X99899046Y-86209066D01*
X99904285Y-86203285D01*
X99910066Y-86198046D01*
X99916332Y-86193398D01*
X99923024Y-86189387D01*
X99930077Y-86186052D01*
X99937422Y-86183423D01*
X99944990Y-86181528D01*
X99952708Y-86180383D01*
X99960500Y-86180000D01*
X100119500Y-86180000D01*
X100127292Y-86180383D01*
X100127292Y-86180383D01*
G37*
D17*
X100040000Y-86360000D03*
D10*
G36*
X99437292Y-86180383D02*
G01*
X99445010Y-86181528D01*
X99452578Y-86183423D01*
X99459923Y-86186052D01*
X99466976Y-86189387D01*
X99473668Y-86193398D01*
X99479934Y-86198046D01*
X99485715Y-86203285D01*
X99490954Y-86209066D01*
X99495602Y-86215332D01*
X99499613Y-86222024D01*
X99502948Y-86229077D01*
X99505577Y-86236422D01*
X99507472Y-86243990D01*
X99508617Y-86251708D01*
X99509000Y-86259500D01*
X99509000Y-86460500D01*
X99508617Y-86468292D01*
X99507472Y-86476010D01*
X99505577Y-86483578D01*
X99502948Y-86490923D01*
X99499613Y-86497976D01*
X99495602Y-86504668D01*
X99490954Y-86510934D01*
X99485715Y-86516715D01*
X99479934Y-86521954D01*
X99473668Y-86526602D01*
X99466976Y-86530613D01*
X99459923Y-86533948D01*
X99452578Y-86536577D01*
X99445010Y-86538472D01*
X99437292Y-86539617D01*
X99429500Y-86540000D01*
X99270500Y-86540000D01*
X99262708Y-86539617D01*
X99254990Y-86538472D01*
X99247422Y-86536577D01*
X99240077Y-86533948D01*
X99233024Y-86530613D01*
X99226332Y-86526602D01*
X99220066Y-86521954D01*
X99214285Y-86516715D01*
X99209046Y-86510934D01*
X99204398Y-86504668D01*
X99200387Y-86497976D01*
X99197052Y-86490923D01*
X99194423Y-86483578D01*
X99192528Y-86476010D01*
X99191383Y-86468292D01*
X99191000Y-86460500D01*
X99191000Y-86259500D01*
X99191383Y-86251708D01*
X99192528Y-86243990D01*
X99194423Y-86236422D01*
X99197052Y-86229077D01*
X99200387Y-86222024D01*
X99204398Y-86215332D01*
X99209046Y-86209066D01*
X99214285Y-86203285D01*
X99220066Y-86198046D01*
X99226332Y-86193398D01*
X99233024Y-86189387D01*
X99240077Y-86186052D01*
X99247422Y-86183423D01*
X99254990Y-86181528D01*
X99262708Y-86180383D01*
X99270500Y-86180000D01*
X99429500Y-86180000D01*
X99437292Y-86180383D01*
X99437292Y-86180383D01*
G37*
D17*
X99350000Y-86360000D03*
D10*
G36*
X73554504Y-95011204D02*
G01*
X73578773Y-95014804D01*
X73602571Y-95020765D01*
X73625671Y-95029030D01*
X73647849Y-95039520D01*
X73668893Y-95052133D01*
X73688598Y-95066747D01*
X73706777Y-95083223D01*
X73723253Y-95101402D01*
X73737867Y-95121107D01*
X73750480Y-95142151D01*
X73760970Y-95164329D01*
X73769235Y-95187429D01*
X73775196Y-95211227D01*
X73778796Y-95235496D01*
X73780000Y-95260000D01*
X73780000Y-96510000D01*
X73778796Y-96534504D01*
X73775196Y-96558773D01*
X73769235Y-96582571D01*
X73760970Y-96605671D01*
X73750480Y-96627849D01*
X73737867Y-96648893D01*
X73723253Y-96668598D01*
X73706777Y-96686777D01*
X73688598Y-96703253D01*
X73668893Y-96717867D01*
X73647849Y-96730480D01*
X73625671Y-96740970D01*
X73602571Y-96749235D01*
X73578773Y-96755196D01*
X73554504Y-96758796D01*
X73530000Y-96760000D01*
X72780000Y-96760000D01*
X72755496Y-96758796D01*
X72731227Y-96755196D01*
X72707429Y-96749235D01*
X72684329Y-96740970D01*
X72662151Y-96730480D01*
X72641107Y-96717867D01*
X72621402Y-96703253D01*
X72603223Y-96686777D01*
X72586747Y-96668598D01*
X72572133Y-96648893D01*
X72559520Y-96627849D01*
X72549030Y-96605671D01*
X72540765Y-96582571D01*
X72534804Y-96558773D01*
X72531204Y-96534504D01*
X72530000Y-96510000D01*
X72530000Y-95260000D01*
X72531204Y-95235496D01*
X72534804Y-95211227D01*
X72540765Y-95187429D01*
X72549030Y-95164329D01*
X72559520Y-95142151D01*
X72572133Y-95121107D01*
X72586747Y-95101402D01*
X72603223Y-95083223D01*
X72621402Y-95066747D01*
X72641107Y-95052133D01*
X72662151Y-95039520D01*
X72684329Y-95029030D01*
X72707429Y-95020765D01*
X72731227Y-95014804D01*
X72755496Y-95011204D01*
X72780000Y-95010000D01*
X73530000Y-95010000D01*
X73554504Y-95011204D01*
X73554504Y-95011204D01*
G37*
D18*
X73155000Y-95885000D03*
D10*
G36*
X70754504Y-95011204D02*
G01*
X70778773Y-95014804D01*
X70802571Y-95020765D01*
X70825671Y-95029030D01*
X70847849Y-95039520D01*
X70868893Y-95052133D01*
X70888598Y-95066747D01*
X70906777Y-95083223D01*
X70923253Y-95101402D01*
X70937867Y-95121107D01*
X70950480Y-95142151D01*
X70960970Y-95164329D01*
X70969235Y-95187429D01*
X70975196Y-95211227D01*
X70978796Y-95235496D01*
X70980000Y-95260000D01*
X70980000Y-96510000D01*
X70978796Y-96534504D01*
X70975196Y-96558773D01*
X70969235Y-96582571D01*
X70960970Y-96605671D01*
X70950480Y-96627849D01*
X70937867Y-96648893D01*
X70923253Y-96668598D01*
X70906777Y-96686777D01*
X70888598Y-96703253D01*
X70868893Y-96717867D01*
X70847849Y-96730480D01*
X70825671Y-96740970D01*
X70802571Y-96749235D01*
X70778773Y-96755196D01*
X70754504Y-96758796D01*
X70730000Y-96760000D01*
X69980000Y-96760000D01*
X69955496Y-96758796D01*
X69931227Y-96755196D01*
X69907429Y-96749235D01*
X69884329Y-96740970D01*
X69862151Y-96730480D01*
X69841107Y-96717867D01*
X69821402Y-96703253D01*
X69803223Y-96686777D01*
X69786747Y-96668598D01*
X69772133Y-96648893D01*
X69759520Y-96627849D01*
X69749030Y-96605671D01*
X69740765Y-96582571D01*
X69734804Y-96558773D01*
X69731204Y-96534504D01*
X69730000Y-96510000D01*
X69730000Y-95260000D01*
X69731204Y-95235496D01*
X69734804Y-95211227D01*
X69740765Y-95187429D01*
X69749030Y-95164329D01*
X69759520Y-95142151D01*
X69772133Y-95121107D01*
X69786747Y-95101402D01*
X69803223Y-95083223D01*
X69821402Y-95066747D01*
X69841107Y-95052133D01*
X69862151Y-95039520D01*
X69884329Y-95029030D01*
X69907429Y-95020765D01*
X69931227Y-95014804D01*
X69955496Y-95011204D01*
X69980000Y-95010000D01*
X70730000Y-95010000D01*
X70754504Y-95011204D01*
X70754504Y-95011204D01*
G37*
D18*
X70355000Y-95885000D03*
D10*
G36*
X71014504Y-111521204D02*
G01*
X71038773Y-111524804D01*
X71062571Y-111530765D01*
X71085671Y-111539030D01*
X71107849Y-111549520D01*
X71128893Y-111562133D01*
X71148598Y-111576747D01*
X71166777Y-111593223D01*
X71183253Y-111611402D01*
X71197867Y-111631107D01*
X71210480Y-111652151D01*
X71220970Y-111674329D01*
X71229235Y-111697429D01*
X71235196Y-111721227D01*
X71238796Y-111745496D01*
X71240000Y-111770000D01*
X71240000Y-113020000D01*
X71238796Y-113044504D01*
X71235196Y-113068773D01*
X71229235Y-113092571D01*
X71220970Y-113115671D01*
X71210480Y-113137849D01*
X71197867Y-113158893D01*
X71183253Y-113178598D01*
X71166777Y-113196777D01*
X71148598Y-113213253D01*
X71128893Y-113227867D01*
X71107849Y-113240480D01*
X71085671Y-113250970D01*
X71062571Y-113259235D01*
X71038773Y-113265196D01*
X71014504Y-113268796D01*
X70990000Y-113270000D01*
X70240000Y-113270000D01*
X70215496Y-113268796D01*
X70191227Y-113265196D01*
X70167429Y-113259235D01*
X70144329Y-113250970D01*
X70122151Y-113240480D01*
X70101107Y-113227867D01*
X70081402Y-113213253D01*
X70063223Y-113196777D01*
X70046747Y-113178598D01*
X70032133Y-113158893D01*
X70019520Y-113137849D01*
X70009030Y-113115671D01*
X70000765Y-113092571D01*
X69994804Y-113068773D01*
X69991204Y-113044504D01*
X69990000Y-113020000D01*
X69990000Y-111770000D01*
X69991204Y-111745496D01*
X69994804Y-111721227D01*
X70000765Y-111697429D01*
X70009030Y-111674329D01*
X70019520Y-111652151D01*
X70032133Y-111631107D01*
X70046747Y-111611402D01*
X70063223Y-111593223D01*
X70081402Y-111576747D01*
X70101107Y-111562133D01*
X70122151Y-111549520D01*
X70144329Y-111539030D01*
X70167429Y-111530765D01*
X70191227Y-111524804D01*
X70215496Y-111521204D01*
X70240000Y-111520000D01*
X70990000Y-111520000D01*
X71014504Y-111521204D01*
X71014504Y-111521204D01*
G37*
D18*
X70615000Y-112395000D03*
D10*
G36*
X68214504Y-111521204D02*
G01*
X68238773Y-111524804D01*
X68262571Y-111530765D01*
X68285671Y-111539030D01*
X68307849Y-111549520D01*
X68328893Y-111562133D01*
X68348598Y-111576747D01*
X68366777Y-111593223D01*
X68383253Y-111611402D01*
X68397867Y-111631107D01*
X68410480Y-111652151D01*
X68420970Y-111674329D01*
X68429235Y-111697429D01*
X68435196Y-111721227D01*
X68438796Y-111745496D01*
X68440000Y-111770000D01*
X68440000Y-113020000D01*
X68438796Y-113044504D01*
X68435196Y-113068773D01*
X68429235Y-113092571D01*
X68420970Y-113115671D01*
X68410480Y-113137849D01*
X68397867Y-113158893D01*
X68383253Y-113178598D01*
X68366777Y-113196777D01*
X68348598Y-113213253D01*
X68328893Y-113227867D01*
X68307849Y-113240480D01*
X68285671Y-113250970D01*
X68262571Y-113259235D01*
X68238773Y-113265196D01*
X68214504Y-113268796D01*
X68190000Y-113270000D01*
X67440000Y-113270000D01*
X67415496Y-113268796D01*
X67391227Y-113265196D01*
X67367429Y-113259235D01*
X67344329Y-113250970D01*
X67322151Y-113240480D01*
X67301107Y-113227867D01*
X67281402Y-113213253D01*
X67263223Y-113196777D01*
X67246747Y-113178598D01*
X67232133Y-113158893D01*
X67219520Y-113137849D01*
X67209030Y-113115671D01*
X67200765Y-113092571D01*
X67194804Y-113068773D01*
X67191204Y-113044504D01*
X67190000Y-113020000D01*
X67190000Y-111770000D01*
X67191204Y-111745496D01*
X67194804Y-111721227D01*
X67200765Y-111697429D01*
X67209030Y-111674329D01*
X67219520Y-111652151D01*
X67232133Y-111631107D01*
X67246747Y-111611402D01*
X67263223Y-111593223D01*
X67281402Y-111576747D01*
X67301107Y-111562133D01*
X67322151Y-111549520D01*
X67344329Y-111539030D01*
X67367429Y-111530765D01*
X67391227Y-111524804D01*
X67415496Y-111521204D01*
X67440000Y-111520000D01*
X68190000Y-111520000D01*
X68214504Y-111521204D01*
X68214504Y-111521204D01*
G37*
D18*
X67815000Y-112395000D03*
D10*
G36*
X71059504Y-120891204D02*
G01*
X71083773Y-120894804D01*
X71107571Y-120900765D01*
X71130671Y-120909030D01*
X71152849Y-120919520D01*
X71173893Y-120932133D01*
X71193598Y-120946747D01*
X71211777Y-120963223D01*
X71228253Y-120981402D01*
X71242867Y-121001107D01*
X71255480Y-121022151D01*
X71265970Y-121044329D01*
X71274235Y-121067429D01*
X71280196Y-121091227D01*
X71283796Y-121115496D01*
X71285000Y-121140000D01*
X71285000Y-123965000D01*
X71283796Y-123989504D01*
X71280196Y-124013773D01*
X71274235Y-124037571D01*
X71265970Y-124060671D01*
X71255480Y-124082849D01*
X71242867Y-124103893D01*
X71228253Y-124123598D01*
X71211777Y-124141777D01*
X71193598Y-124158253D01*
X71173893Y-124172867D01*
X71152849Y-124185480D01*
X71130671Y-124195970D01*
X71107571Y-124204235D01*
X71083773Y-124210196D01*
X71059504Y-124213796D01*
X71035000Y-124215000D01*
X69935000Y-124215000D01*
X69910496Y-124213796D01*
X69886227Y-124210196D01*
X69862429Y-124204235D01*
X69839329Y-124195970D01*
X69817151Y-124185480D01*
X69796107Y-124172867D01*
X69776402Y-124158253D01*
X69758223Y-124141777D01*
X69741747Y-124123598D01*
X69727133Y-124103893D01*
X69714520Y-124082849D01*
X69704030Y-124060671D01*
X69695765Y-124037571D01*
X69689804Y-124013773D01*
X69686204Y-123989504D01*
X69685000Y-123965000D01*
X69685000Y-121140000D01*
X69686204Y-121115496D01*
X69689804Y-121091227D01*
X69695765Y-121067429D01*
X69704030Y-121044329D01*
X69714520Y-121022151D01*
X69727133Y-121001107D01*
X69741747Y-120981402D01*
X69758223Y-120963223D01*
X69776402Y-120946747D01*
X69796107Y-120932133D01*
X69817151Y-120919520D01*
X69839329Y-120909030D01*
X69862429Y-120900765D01*
X69886227Y-120894804D01*
X69910496Y-120891204D01*
X69935000Y-120890000D01*
X71035000Y-120890000D01*
X71059504Y-120891204D01*
X71059504Y-120891204D01*
G37*
D19*
X70485000Y-122552500D03*
D10*
G36*
X71059504Y-115816204D02*
G01*
X71083773Y-115819804D01*
X71107571Y-115825765D01*
X71130671Y-115834030D01*
X71152849Y-115844520D01*
X71173893Y-115857133D01*
X71193598Y-115871747D01*
X71211777Y-115888223D01*
X71228253Y-115906402D01*
X71242867Y-115926107D01*
X71255480Y-115947151D01*
X71265970Y-115969329D01*
X71274235Y-115992429D01*
X71280196Y-116016227D01*
X71283796Y-116040496D01*
X71285000Y-116065000D01*
X71285000Y-118890000D01*
X71283796Y-118914504D01*
X71280196Y-118938773D01*
X71274235Y-118962571D01*
X71265970Y-118985671D01*
X71255480Y-119007849D01*
X71242867Y-119028893D01*
X71228253Y-119048598D01*
X71211777Y-119066777D01*
X71193598Y-119083253D01*
X71173893Y-119097867D01*
X71152849Y-119110480D01*
X71130671Y-119120970D01*
X71107571Y-119129235D01*
X71083773Y-119135196D01*
X71059504Y-119138796D01*
X71035000Y-119140000D01*
X69935000Y-119140000D01*
X69910496Y-119138796D01*
X69886227Y-119135196D01*
X69862429Y-119129235D01*
X69839329Y-119120970D01*
X69817151Y-119110480D01*
X69796107Y-119097867D01*
X69776402Y-119083253D01*
X69758223Y-119066777D01*
X69741747Y-119048598D01*
X69727133Y-119028893D01*
X69714520Y-119007849D01*
X69704030Y-118985671D01*
X69695765Y-118962571D01*
X69689804Y-118938773D01*
X69686204Y-118914504D01*
X69685000Y-118890000D01*
X69685000Y-116065000D01*
X69686204Y-116040496D01*
X69689804Y-116016227D01*
X69695765Y-115992429D01*
X69704030Y-115969329D01*
X69714520Y-115947151D01*
X69727133Y-115926107D01*
X69741747Y-115906402D01*
X69758223Y-115888223D01*
X69776402Y-115871747D01*
X69796107Y-115857133D01*
X69817151Y-115844520D01*
X69839329Y-115834030D01*
X69862429Y-115825765D01*
X69886227Y-115819804D01*
X69910496Y-115816204D01*
X69935000Y-115815000D01*
X71035000Y-115815000D01*
X71059504Y-115816204D01*
X71059504Y-115816204D01*
G37*
D19*
X70485000Y-117477500D03*
D10*
G36*
X84390142Y-78041174D02*
G01*
X84413803Y-78044684D01*
X84437007Y-78050496D01*
X84459529Y-78058554D01*
X84481153Y-78068782D01*
X84501670Y-78081079D01*
X84520883Y-78095329D01*
X84538607Y-78111393D01*
X84554671Y-78129117D01*
X84568921Y-78148330D01*
X84581218Y-78168847D01*
X84591446Y-78190471D01*
X84599504Y-78212993D01*
X84605316Y-78236197D01*
X84608826Y-78259858D01*
X84610000Y-78283750D01*
X84610000Y-79196250D01*
X84608826Y-79220142D01*
X84605316Y-79243803D01*
X84599504Y-79267007D01*
X84591446Y-79289529D01*
X84581218Y-79311153D01*
X84568921Y-79331670D01*
X84554671Y-79350883D01*
X84538607Y-79368607D01*
X84520883Y-79384671D01*
X84501670Y-79398921D01*
X84481153Y-79411218D01*
X84459529Y-79421446D01*
X84437007Y-79429504D01*
X84413803Y-79435316D01*
X84390142Y-79438826D01*
X84366250Y-79440000D01*
X83878750Y-79440000D01*
X83854858Y-79438826D01*
X83831197Y-79435316D01*
X83807993Y-79429504D01*
X83785471Y-79421446D01*
X83763847Y-79411218D01*
X83743330Y-79398921D01*
X83724117Y-79384671D01*
X83706393Y-79368607D01*
X83690329Y-79350883D01*
X83676079Y-79331670D01*
X83663782Y-79311153D01*
X83653554Y-79289529D01*
X83645496Y-79267007D01*
X83639684Y-79243803D01*
X83636174Y-79220142D01*
X83635000Y-79196250D01*
X83635000Y-78283750D01*
X83636174Y-78259858D01*
X83639684Y-78236197D01*
X83645496Y-78212993D01*
X83653554Y-78190471D01*
X83663782Y-78168847D01*
X83676079Y-78148330D01*
X83690329Y-78129117D01*
X83706393Y-78111393D01*
X83724117Y-78095329D01*
X83743330Y-78081079D01*
X83763847Y-78068782D01*
X83785471Y-78058554D01*
X83807993Y-78050496D01*
X83831197Y-78044684D01*
X83854858Y-78041174D01*
X83878750Y-78040000D01*
X84366250Y-78040000D01*
X84390142Y-78041174D01*
X84390142Y-78041174D01*
G37*
D14*
X84122500Y-78740000D03*
D10*
G36*
X82515142Y-78041174D02*
G01*
X82538803Y-78044684D01*
X82562007Y-78050496D01*
X82584529Y-78058554D01*
X82606153Y-78068782D01*
X82626670Y-78081079D01*
X82645883Y-78095329D01*
X82663607Y-78111393D01*
X82679671Y-78129117D01*
X82693921Y-78148330D01*
X82706218Y-78168847D01*
X82716446Y-78190471D01*
X82724504Y-78212993D01*
X82730316Y-78236197D01*
X82733826Y-78259858D01*
X82735000Y-78283750D01*
X82735000Y-79196250D01*
X82733826Y-79220142D01*
X82730316Y-79243803D01*
X82724504Y-79267007D01*
X82716446Y-79289529D01*
X82706218Y-79311153D01*
X82693921Y-79331670D01*
X82679671Y-79350883D01*
X82663607Y-79368607D01*
X82645883Y-79384671D01*
X82626670Y-79398921D01*
X82606153Y-79411218D01*
X82584529Y-79421446D01*
X82562007Y-79429504D01*
X82538803Y-79435316D01*
X82515142Y-79438826D01*
X82491250Y-79440000D01*
X82003750Y-79440000D01*
X81979858Y-79438826D01*
X81956197Y-79435316D01*
X81932993Y-79429504D01*
X81910471Y-79421446D01*
X81888847Y-79411218D01*
X81868330Y-79398921D01*
X81849117Y-79384671D01*
X81831393Y-79368607D01*
X81815329Y-79350883D01*
X81801079Y-79331670D01*
X81788782Y-79311153D01*
X81778554Y-79289529D01*
X81770496Y-79267007D01*
X81764684Y-79243803D01*
X81761174Y-79220142D01*
X81760000Y-79196250D01*
X81760000Y-78283750D01*
X81761174Y-78259858D01*
X81764684Y-78236197D01*
X81770496Y-78212993D01*
X81778554Y-78190471D01*
X81788782Y-78168847D01*
X81801079Y-78148330D01*
X81815329Y-78129117D01*
X81831393Y-78111393D01*
X81849117Y-78095329D01*
X81868330Y-78081079D01*
X81888847Y-78068782D01*
X81910471Y-78058554D01*
X81932993Y-78050496D01*
X81956197Y-78044684D01*
X81979858Y-78041174D01*
X82003750Y-78040000D01*
X82491250Y-78040000D01*
X82515142Y-78041174D01*
X82515142Y-78041174D01*
G37*
D14*
X82247500Y-78740000D03*
D10*
G36*
X84984504Y-75326204D02*
G01*
X85008773Y-75329804D01*
X85032571Y-75335765D01*
X85055671Y-75344030D01*
X85077849Y-75354520D01*
X85098893Y-75367133D01*
X85118598Y-75381747D01*
X85136777Y-75398223D01*
X85153253Y-75416402D01*
X85167867Y-75436107D01*
X85180480Y-75457151D01*
X85190970Y-75479329D01*
X85199235Y-75502429D01*
X85205196Y-75526227D01*
X85208796Y-75550496D01*
X85210000Y-75575000D01*
X85210000Y-76825000D01*
X85208796Y-76849504D01*
X85205196Y-76873773D01*
X85199235Y-76897571D01*
X85190970Y-76920671D01*
X85180480Y-76942849D01*
X85167867Y-76963893D01*
X85153253Y-76983598D01*
X85136777Y-77001777D01*
X85118598Y-77018253D01*
X85098893Y-77032867D01*
X85077849Y-77045480D01*
X85055671Y-77055970D01*
X85032571Y-77064235D01*
X85008773Y-77070196D01*
X84984504Y-77073796D01*
X84960000Y-77075000D01*
X84210000Y-77075000D01*
X84185496Y-77073796D01*
X84161227Y-77070196D01*
X84137429Y-77064235D01*
X84114329Y-77055970D01*
X84092151Y-77045480D01*
X84071107Y-77032867D01*
X84051402Y-77018253D01*
X84033223Y-77001777D01*
X84016747Y-76983598D01*
X84002133Y-76963893D01*
X83989520Y-76942849D01*
X83979030Y-76920671D01*
X83970765Y-76897571D01*
X83964804Y-76873773D01*
X83961204Y-76849504D01*
X83960000Y-76825000D01*
X83960000Y-75575000D01*
X83961204Y-75550496D01*
X83964804Y-75526227D01*
X83970765Y-75502429D01*
X83979030Y-75479329D01*
X83989520Y-75457151D01*
X84002133Y-75436107D01*
X84016747Y-75416402D01*
X84033223Y-75398223D01*
X84051402Y-75381747D01*
X84071107Y-75367133D01*
X84092151Y-75354520D01*
X84114329Y-75344030D01*
X84137429Y-75335765D01*
X84161227Y-75329804D01*
X84185496Y-75326204D01*
X84210000Y-75325000D01*
X84960000Y-75325000D01*
X84984504Y-75326204D01*
X84984504Y-75326204D01*
G37*
D18*
X84585000Y-76200000D03*
D10*
G36*
X82184504Y-75326204D02*
G01*
X82208773Y-75329804D01*
X82232571Y-75335765D01*
X82255671Y-75344030D01*
X82277849Y-75354520D01*
X82298893Y-75367133D01*
X82318598Y-75381747D01*
X82336777Y-75398223D01*
X82353253Y-75416402D01*
X82367867Y-75436107D01*
X82380480Y-75457151D01*
X82390970Y-75479329D01*
X82399235Y-75502429D01*
X82405196Y-75526227D01*
X82408796Y-75550496D01*
X82410000Y-75575000D01*
X82410000Y-76825000D01*
X82408796Y-76849504D01*
X82405196Y-76873773D01*
X82399235Y-76897571D01*
X82390970Y-76920671D01*
X82380480Y-76942849D01*
X82367867Y-76963893D01*
X82353253Y-76983598D01*
X82336777Y-77001777D01*
X82318598Y-77018253D01*
X82298893Y-77032867D01*
X82277849Y-77045480D01*
X82255671Y-77055970D01*
X82232571Y-77064235D01*
X82208773Y-77070196D01*
X82184504Y-77073796D01*
X82160000Y-77075000D01*
X81410000Y-77075000D01*
X81385496Y-77073796D01*
X81361227Y-77070196D01*
X81337429Y-77064235D01*
X81314329Y-77055970D01*
X81292151Y-77045480D01*
X81271107Y-77032867D01*
X81251402Y-77018253D01*
X81233223Y-77001777D01*
X81216747Y-76983598D01*
X81202133Y-76963893D01*
X81189520Y-76942849D01*
X81179030Y-76920671D01*
X81170765Y-76897571D01*
X81164804Y-76873773D01*
X81161204Y-76849504D01*
X81160000Y-76825000D01*
X81160000Y-75575000D01*
X81161204Y-75550496D01*
X81164804Y-75526227D01*
X81170765Y-75502429D01*
X81179030Y-75479329D01*
X81189520Y-75457151D01*
X81202133Y-75436107D01*
X81216747Y-75416402D01*
X81233223Y-75398223D01*
X81251402Y-75381747D01*
X81271107Y-75367133D01*
X81292151Y-75354520D01*
X81314329Y-75344030D01*
X81337429Y-75335765D01*
X81361227Y-75329804D01*
X81385496Y-75326204D01*
X81410000Y-75325000D01*
X82160000Y-75325000D01*
X82184504Y-75326204D01*
X82184504Y-75326204D01*
G37*
D18*
X81785000Y-76200000D03*
D10*
G36*
X96706958Y-46845710D02*
G01*
X96721276Y-46847834D01*
X96735317Y-46851351D01*
X96748946Y-46856228D01*
X96762031Y-46862417D01*
X96774447Y-46869858D01*
X96786073Y-46878481D01*
X96796798Y-46888202D01*
X96806519Y-46898927D01*
X96815142Y-46910553D01*
X96822583Y-46922969D01*
X96828772Y-46936054D01*
X96833649Y-46949683D01*
X96837166Y-46963724D01*
X96839290Y-46978042D01*
X96840000Y-46992500D01*
X96840000Y-47287500D01*
X96839290Y-47301958D01*
X96837166Y-47316276D01*
X96833649Y-47330317D01*
X96828772Y-47343946D01*
X96822583Y-47357031D01*
X96815142Y-47369447D01*
X96806519Y-47381073D01*
X96796798Y-47391798D01*
X96786073Y-47401519D01*
X96774447Y-47410142D01*
X96762031Y-47417583D01*
X96748946Y-47423772D01*
X96735317Y-47428649D01*
X96721276Y-47432166D01*
X96706958Y-47434290D01*
X96692500Y-47435000D01*
X96347500Y-47435000D01*
X96333042Y-47434290D01*
X96318724Y-47432166D01*
X96304683Y-47428649D01*
X96291054Y-47423772D01*
X96277969Y-47417583D01*
X96265553Y-47410142D01*
X96253927Y-47401519D01*
X96243202Y-47391798D01*
X96233481Y-47381073D01*
X96224858Y-47369447D01*
X96217417Y-47357031D01*
X96211228Y-47343946D01*
X96206351Y-47330317D01*
X96202834Y-47316276D01*
X96200710Y-47301958D01*
X96200000Y-47287500D01*
X96200000Y-46992500D01*
X96200710Y-46978042D01*
X96202834Y-46963724D01*
X96206351Y-46949683D01*
X96211228Y-46936054D01*
X96217417Y-46922969D01*
X96224858Y-46910553D01*
X96233481Y-46898927D01*
X96243202Y-46888202D01*
X96253927Y-46878481D01*
X96265553Y-46869858D01*
X96277969Y-46862417D01*
X96291054Y-46856228D01*
X96304683Y-46851351D01*
X96318724Y-46847834D01*
X96333042Y-46845710D01*
X96347500Y-46845000D01*
X96692500Y-46845000D01*
X96706958Y-46845710D01*
X96706958Y-46845710D01*
G37*
D15*
X96520000Y-47140000D03*
D10*
G36*
X96706958Y-47815710D02*
G01*
X96721276Y-47817834D01*
X96735317Y-47821351D01*
X96748946Y-47826228D01*
X96762031Y-47832417D01*
X96774447Y-47839858D01*
X96786073Y-47848481D01*
X96796798Y-47858202D01*
X96806519Y-47868927D01*
X96815142Y-47880553D01*
X96822583Y-47892969D01*
X96828772Y-47906054D01*
X96833649Y-47919683D01*
X96837166Y-47933724D01*
X96839290Y-47948042D01*
X96840000Y-47962500D01*
X96840000Y-48257500D01*
X96839290Y-48271958D01*
X96837166Y-48286276D01*
X96833649Y-48300317D01*
X96828772Y-48313946D01*
X96822583Y-48327031D01*
X96815142Y-48339447D01*
X96806519Y-48351073D01*
X96796798Y-48361798D01*
X96786073Y-48371519D01*
X96774447Y-48380142D01*
X96762031Y-48387583D01*
X96748946Y-48393772D01*
X96735317Y-48398649D01*
X96721276Y-48402166D01*
X96706958Y-48404290D01*
X96692500Y-48405000D01*
X96347500Y-48405000D01*
X96333042Y-48404290D01*
X96318724Y-48402166D01*
X96304683Y-48398649D01*
X96291054Y-48393772D01*
X96277969Y-48387583D01*
X96265553Y-48380142D01*
X96253927Y-48371519D01*
X96243202Y-48361798D01*
X96233481Y-48351073D01*
X96224858Y-48339447D01*
X96217417Y-48327031D01*
X96211228Y-48313946D01*
X96206351Y-48300317D01*
X96202834Y-48286276D01*
X96200710Y-48271958D01*
X96200000Y-48257500D01*
X96200000Y-47962500D01*
X96200710Y-47948042D01*
X96202834Y-47933724D01*
X96206351Y-47919683D01*
X96211228Y-47906054D01*
X96217417Y-47892969D01*
X96224858Y-47880553D01*
X96233481Y-47868927D01*
X96243202Y-47858202D01*
X96253927Y-47848481D01*
X96265553Y-47839858D01*
X96277969Y-47832417D01*
X96291054Y-47826228D01*
X96304683Y-47821351D01*
X96318724Y-47817834D01*
X96333042Y-47815710D01*
X96347500Y-47815000D01*
X96692500Y-47815000D01*
X96706958Y-47815710D01*
X96706958Y-47815710D01*
G37*
D15*
X96520000Y-48110000D03*
D10*
G36*
X98611958Y-47480710D02*
G01*
X98626276Y-47482834D01*
X98640317Y-47486351D01*
X98653946Y-47491228D01*
X98667031Y-47497417D01*
X98679447Y-47504858D01*
X98691073Y-47513481D01*
X98701798Y-47523202D01*
X98711519Y-47533927D01*
X98720142Y-47545553D01*
X98727583Y-47557969D01*
X98733772Y-47571054D01*
X98738649Y-47584683D01*
X98742166Y-47598724D01*
X98744290Y-47613042D01*
X98745000Y-47627500D01*
X98745000Y-47922500D01*
X98744290Y-47936958D01*
X98742166Y-47951276D01*
X98738649Y-47965317D01*
X98733772Y-47978946D01*
X98727583Y-47992031D01*
X98720142Y-48004447D01*
X98711519Y-48016073D01*
X98701798Y-48026798D01*
X98691073Y-48036519D01*
X98679447Y-48045142D01*
X98667031Y-48052583D01*
X98653946Y-48058772D01*
X98640317Y-48063649D01*
X98626276Y-48067166D01*
X98611958Y-48069290D01*
X98597500Y-48070000D01*
X98252500Y-48070000D01*
X98238042Y-48069290D01*
X98223724Y-48067166D01*
X98209683Y-48063649D01*
X98196054Y-48058772D01*
X98182969Y-48052583D01*
X98170553Y-48045142D01*
X98158927Y-48036519D01*
X98148202Y-48026798D01*
X98138481Y-48016073D01*
X98129858Y-48004447D01*
X98122417Y-47992031D01*
X98116228Y-47978946D01*
X98111351Y-47965317D01*
X98107834Y-47951276D01*
X98105710Y-47936958D01*
X98105000Y-47922500D01*
X98105000Y-47627500D01*
X98105710Y-47613042D01*
X98107834Y-47598724D01*
X98111351Y-47584683D01*
X98116228Y-47571054D01*
X98122417Y-47557969D01*
X98129858Y-47545553D01*
X98138481Y-47533927D01*
X98148202Y-47523202D01*
X98158927Y-47513481D01*
X98170553Y-47504858D01*
X98182969Y-47497417D01*
X98196054Y-47491228D01*
X98209683Y-47486351D01*
X98223724Y-47482834D01*
X98238042Y-47480710D01*
X98252500Y-47480000D01*
X98597500Y-47480000D01*
X98611958Y-47480710D01*
X98611958Y-47480710D01*
G37*
D15*
X98425000Y-47775000D03*
D10*
G36*
X98611958Y-48450710D02*
G01*
X98626276Y-48452834D01*
X98640317Y-48456351D01*
X98653946Y-48461228D01*
X98667031Y-48467417D01*
X98679447Y-48474858D01*
X98691073Y-48483481D01*
X98701798Y-48493202D01*
X98711519Y-48503927D01*
X98720142Y-48515553D01*
X98727583Y-48527969D01*
X98733772Y-48541054D01*
X98738649Y-48554683D01*
X98742166Y-48568724D01*
X98744290Y-48583042D01*
X98745000Y-48597500D01*
X98745000Y-48892500D01*
X98744290Y-48906958D01*
X98742166Y-48921276D01*
X98738649Y-48935317D01*
X98733772Y-48948946D01*
X98727583Y-48962031D01*
X98720142Y-48974447D01*
X98711519Y-48986073D01*
X98701798Y-48996798D01*
X98691073Y-49006519D01*
X98679447Y-49015142D01*
X98667031Y-49022583D01*
X98653946Y-49028772D01*
X98640317Y-49033649D01*
X98626276Y-49037166D01*
X98611958Y-49039290D01*
X98597500Y-49040000D01*
X98252500Y-49040000D01*
X98238042Y-49039290D01*
X98223724Y-49037166D01*
X98209683Y-49033649D01*
X98196054Y-49028772D01*
X98182969Y-49022583D01*
X98170553Y-49015142D01*
X98158927Y-49006519D01*
X98148202Y-48996798D01*
X98138481Y-48986073D01*
X98129858Y-48974447D01*
X98122417Y-48962031D01*
X98116228Y-48948946D01*
X98111351Y-48935317D01*
X98107834Y-48921276D01*
X98105710Y-48906958D01*
X98105000Y-48892500D01*
X98105000Y-48597500D01*
X98105710Y-48583042D01*
X98107834Y-48568724D01*
X98111351Y-48554683D01*
X98116228Y-48541054D01*
X98122417Y-48527969D01*
X98129858Y-48515553D01*
X98138481Y-48503927D01*
X98148202Y-48493202D01*
X98158927Y-48483481D01*
X98170553Y-48474858D01*
X98182969Y-48467417D01*
X98196054Y-48461228D01*
X98209683Y-48456351D01*
X98223724Y-48452834D01*
X98238042Y-48450710D01*
X98252500Y-48450000D01*
X98597500Y-48450000D01*
X98611958Y-48450710D01*
X98611958Y-48450710D01*
G37*
D15*
X98425000Y-48745000D03*
D10*
G36*
X94801958Y-47480710D02*
G01*
X94816276Y-47482834D01*
X94830317Y-47486351D01*
X94843946Y-47491228D01*
X94857031Y-47497417D01*
X94869447Y-47504858D01*
X94881073Y-47513481D01*
X94891798Y-47523202D01*
X94901519Y-47533927D01*
X94910142Y-47545553D01*
X94917583Y-47557969D01*
X94923772Y-47571054D01*
X94928649Y-47584683D01*
X94932166Y-47598724D01*
X94934290Y-47613042D01*
X94935000Y-47627500D01*
X94935000Y-47922500D01*
X94934290Y-47936958D01*
X94932166Y-47951276D01*
X94928649Y-47965317D01*
X94923772Y-47978946D01*
X94917583Y-47992031D01*
X94910142Y-48004447D01*
X94901519Y-48016073D01*
X94891798Y-48026798D01*
X94881073Y-48036519D01*
X94869447Y-48045142D01*
X94857031Y-48052583D01*
X94843946Y-48058772D01*
X94830317Y-48063649D01*
X94816276Y-48067166D01*
X94801958Y-48069290D01*
X94787500Y-48070000D01*
X94442500Y-48070000D01*
X94428042Y-48069290D01*
X94413724Y-48067166D01*
X94399683Y-48063649D01*
X94386054Y-48058772D01*
X94372969Y-48052583D01*
X94360553Y-48045142D01*
X94348927Y-48036519D01*
X94338202Y-48026798D01*
X94328481Y-48016073D01*
X94319858Y-48004447D01*
X94312417Y-47992031D01*
X94306228Y-47978946D01*
X94301351Y-47965317D01*
X94297834Y-47951276D01*
X94295710Y-47936958D01*
X94295000Y-47922500D01*
X94295000Y-47627500D01*
X94295710Y-47613042D01*
X94297834Y-47598724D01*
X94301351Y-47584683D01*
X94306228Y-47571054D01*
X94312417Y-47557969D01*
X94319858Y-47545553D01*
X94328481Y-47533927D01*
X94338202Y-47523202D01*
X94348927Y-47513481D01*
X94360553Y-47504858D01*
X94372969Y-47497417D01*
X94386054Y-47491228D01*
X94399683Y-47486351D01*
X94413724Y-47482834D01*
X94428042Y-47480710D01*
X94442500Y-47480000D01*
X94787500Y-47480000D01*
X94801958Y-47480710D01*
X94801958Y-47480710D01*
G37*
D15*
X94615000Y-47775000D03*
D10*
G36*
X94801958Y-48450710D02*
G01*
X94816276Y-48452834D01*
X94830317Y-48456351D01*
X94843946Y-48461228D01*
X94857031Y-48467417D01*
X94869447Y-48474858D01*
X94881073Y-48483481D01*
X94891798Y-48493202D01*
X94901519Y-48503927D01*
X94910142Y-48515553D01*
X94917583Y-48527969D01*
X94923772Y-48541054D01*
X94928649Y-48554683D01*
X94932166Y-48568724D01*
X94934290Y-48583042D01*
X94935000Y-48597500D01*
X94935000Y-48892500D01*
X94934290Y-48906958D01*
X94932166Y-48921276D01*
X94928649Y-48935317D01*
X94923772Y-48948946D01*
X94917583Y-48962031D01*
X94910142Y-48974447D01*
X94901519Y-48986073D01*
X94891798Y-48996798D01*
X94881073Y-49006519D01*
X94869447Y-49015142D01*
X94857031Y-49022583D01*
X94843946Y-49028772D01*
X94830317Y-49033649D01*
X94816276Y-49037166D01*
X94801958Y-49039290D01*
X94787500Y-49040000D01*
X94442500Y-49040000D01*
X94428042Y-49039290D01*
X94413724Y-49037166D01*
X94399683Y-49033649D01*
X94386054Y-49028772D01*
X94372969Y-49022583D01*
X94360553Y-49015142D01*
X94348927Y-49006519D01*
X94338202Y-48996798D01*
X94328481Y-48986073D01*
X94319858Y-48974447D01*
X94312417Y-48962031D01*
X94306228Y-48948946D01*
X94301351Y-48935317D01*
X94297834Y-48921276D01*
X94295710Y-48906958D01*
X94295000Y-48892500D01*
X94295000Y-48597500D01*
X94295710Y-48583042D01*
X94297834Y-48568724D01*
X94301351Y-48554683D01*
X94306228Y-48541054D01*
X94312417Y-48527969D01*
X94319858Y-48515553D01*
X94328481Y-48503927D01*
X94338202Y-48493202D01*
X94348927Y-48483481D01*
X94360553Y-48474858D01*
X94372969Y-48467417D01*
X94386054Y-48461228D01*
X94399683Y-48456351D01*
X94413724Y-48452834D01*
X94428042Y-48450710D01*
X94442500Y-48450000D01*
X94787500Y-48450000D01*
X94801958Y-48450710D01*
X94801958Y-48450710D01*
G37*
D15*
X94615000Y-48745000D03*
M02*
