G04 #@! TF.GenerationSoftware,KiCad,Pcbnew,(5.1.2)-1*
G04 #@! TF.CreationDate,2020-04-16T17:30:29+02:00*
G04 #@! TF.ProjectId,Test-PCB_for_Arduino-DAC,54657374-2d50-4434-925f-666f725f4172,0.0.1*
G04 #@! TF.SameCoordinates,Original*
G04 #@! TF.FileFunction,Soldermask,Bot*
G04 #@! TF.FilePolarity,Negative*
%FSLAX46Y46*%
G04 Gerber Fmt 4.6, Leading zero omitted, Abs format (unit mm)*
G04 Created by KiCad (PCBNEW (5.1.2)-1) date 2020-04-16 17:30:29*
%MOMM*%
%LPD*%
G04 APERTURE LIST*
%ADD10C,0.100000*%
G04 APERTURE END LIST*
D10*
G36*
X76945442Y-131185518D02*
G01*
X77011627Y-131192037D01*
X77181466Y-131243557D01*
X77337991Y-131327222D01*
X77373729Y-131356552D01*
X77475186Y-131439814D01*
X77558448Y-131541271D01*
X77587778Y-131577009D01*
X77671443Y-131733534D01*
X77722963Y-131903373D01*
X77740359Y-132080000D01*
X77722963Y-132256627D01*
X77671443Y-132426466D01*
X77587778Y-132582991D01*
X77558448Y-132618729D01*
X77475186Y-132720186D01*
X77373729Y-132803448D01*
X77337991Y-132832778D01*
X77181466Y-132916443D01*
X77011627Y-132967963D01*
X76945443Y-132974481D01*
X76879260Y-132981000D01*
X76790740Y-132981000D01*
X76724557Y-132974481D01*
X76658373Y-132967963D01*
X76488534Y-132916443D01*
X76332009Y-132832778D01*
X76296271Y-132803448D01*
X76194814Y-132720186D01*
X76111552Y-132618729D01*
X76082222Y-132582991D01*
X75998557Y-132426466D01*
X75947037Y-132256627D01*
X75929641Y-132080000D01*
X75947037Y-131903373D01*
X75998557Y-131733534D01*
X76082222Y-131577009D01*
X76111552Y-131541271D01*
X76194814Y-131439814D01*
X76296271Y-131356552D01*
X76332009Y-131327222D01*
X76488534Y-131243557D01*
X76658373Y-131192037D01*
X76724558Y-131185518D01*
X76790740Y-131179000D01*
X76879260Y-131179000D01*
X76945442Y-131185518D01*
X76945442Y-131185518D01*
G37*
G36*
X108216000Y-130441000D02*
G01*
X106414000Y-130441000D01*
X106414000Y-128639000D01*
X108216000Y-128639000D01*
X108216000Y-130441000D01*
X108216000Y-130441000D01*
G37*
G36*
X76945443Y-128645519D02*
G01*
X77011627Y-128652037D01*
X77181466Y-128703557D01*
X77337991Y-128787222D01*
X77373729Y-128816552D01*
X77475186Y-128899814D01*
X77558448Y-129001271D01*
X77587778Y-129037009D01*
X77671443Y-129193534D01*
X77722963Y-129363373D01*
X77740359Y-129540000D01*
X77722963Y-129716627D01*
X77671443Y-129886466D01*
X77587778Y-130042991D01*
X77558448Y-130078729D01*
X77475186Y-130180186D01*
X77373729Y-130263448D01*
X77337991Y-130292778D01*
X77181466Y-130376443D01*
X77011627Y-130427963D01*
X76945443Y-130434481D01*
X76879260Y-130441000D01*
X76790740Y-130441000D01*
X76724557Y-130434481D01*
X76658373Y-130427963D01*
X76488534Y-130376443D01*
X76332009Y-130292778D01*
X76296271Y-130263448D01*
X76194814Y-130180186D01*
X76111552Y-130078729D01*
X76082222Y-130042991D01*
X75998557Y-129886466D01*
X75947037Y-129716627D01*
X75929641Y-129540000D01*
X75947037Y-129363373D01*
X75998557Y-129193534D01*
X76082222Y-129037009D01*
X76111552Y-129001271D01*
X76194814Y-128899814D01*
X76296271Y-128816552D01*
X76332009Y-128787222D01*
X76488534Y-128703557D01*
X76658373Y-128652037D01*
X76724557Y-128645519D01*
X76790740Y-128639000D01*
X76879260Y-128639000D01*
X76945443Y-128645519D01*
X76945443Y-128645519D01*
G37*
G36*
X82025443Y-128645519D02*
G01*
X82091627Y-128652037D01*
X82261466Y-128703557D01*
X82417991Y-128787222D01*
X82453729Y-128816552D01*
X82555186Y-128899814D01*
X82638448Y-129001271D01*
X82667778Y-129037009D01*
X82751443Y-129193534D01*
X82802963Y-129363373D01*
X82820359Y-129540000D01*
X82802963Y-129716627D01*
X82751443Y-129886466D01*
X82667778Y-130042991D01*
X82638448Y-130078729D01*
X82555186Y-130180186D01*
X82453729Y-130263448D01*
X82417991Y-130292778D01*
X82261466Y-130376443D01*
X82091627Y-130427963D01*
X82025443Y-130434481D01*
X81959260Y-130441000D01*
X81870740Y-130441000D01*
X81804557Y-130434481D01*
X81738373Y-130427963D01*
X81568534Y-130376443D01*
X81412009Y-130292778D01*
X81376271Y-130263448D01*
X81274814Y-130180186D01*
X81191552Y-130078729D01*
X81162222Y-130042991D01*
X81078557Y-129886466D01*
X81027037Y-129716627D01*
X81009641Y-129540000D01*
X81027037Y-129363373D01*
X81078557Y-129193534D01*
X81162222Y-129037009D01*
X81191552Y-129001271D01*
X81274814Y-128899814D01*
X81376271Y-128816552D01*
X81412009Y-128787222D01*
X81568534Y-128703557D01*
X81738373Y-128652037D01*
X81804557Y-128645519D01*
X81870740Y-128639000D01*
X81959260Y-128639000D01*
X82025443Y-128645519D01*
X82025443Y-128645519D01*
G37*
G36*
X87161823Y-128701313D02*
G01*
X87322242Y-128749976D01*
X87391922Y-128787221D01*
X87470078Y-128828996D01*
X87599659Y-128935341D01*
X87706004Y-129064922D01*
X87706005Y-129064924D01*
X87785024Y-129212758D01*
X87833687Y-129373177D01*
X87850117Y-129540000D01*
X87833687Y-129706823D01*
X87785024Y-129867242D01*
X87774747Y-129886468D01*
X87706004Y-130015078D01*
X87599659Y-130144659D01*
X87470078Y-130251004D01*
X87470076Y-130251005D01*
X87322242Y-130330024D01*
X87161823Y-130378687D01*
X87036804Y-130391000D01*
X86953196Y-130391000D01*
X86828177Y-130378687D01*
X86667758Y-130330024D01*
X86519924Y-130251005D01*
X86519922Y-130251004D01*
X86390341Y-130144659D01*
X86283996Y-130015078D01*
X86215253Y-129886468D01*
X86204976Y-129867242D01*
X86156313Y-129706823D01*
X86139883Y-129540000D01*
X86156313Y-129373177D01*
X86204976Y-129212758D01*
X86283995Y-129064924D01*
X86283996Y-129064922D01*
X86390341Y-128935341D01*
X86519922Y-128828996D01*
X86598078Y-128787221D01*
X86667758Y-128749976D01*
X86828177Y-128701313D01*
X86953196Y-128689000D01*
X87036804Y-128689000D01*
X87161823Y-128701313D01*
X87161823Y-128701313D01*
G37*
G36*
X102401823Y-128701313D02*
G01*
X102562242Y-128749976D01*
X102631922Y-128787221D01*
X102710078Y-128828996D01*
X102839659Y-128935341D01*
X102946004Y-129064922D01*
X102946005Y-129064924D01*
X103025024Y-129212758D01*
X103073687Y-129373177D01*
X103090117Y-129540000D01*
X103073687Y-129706823D01*
X103025024Y-129867242D01*
X103014747Y-129886468D01*
X102946004Y-130015078D01*
X102839659Y-130144659D01*
X102710078Y-130251004D01*
X102710076Y-130251005D01*
X102562242Y-130330024D01*
X102401823Y-130378687D01*
X102276804Y-130391000D01*
X102193196Y-130391000D01*
X102068177Y-130378687D01*
X101907758Y-130330024D01*
X101759924Y-130251005D01*
X101759922Y-130251004D01*
X101630341Y-130144659D01*
X101523996Y-130015078D01*
X101455253Y-129886468D01*
X101444976Y-129867242D01*
X101396313Y-129706823D01*
X101379883Y-129540000D01*
X101396313Y-129373177D01*
X101444976Y-129212758D01*
X101523995Y-129064924D01*
X101523996Y-129064922D01*
X101630341Y-128935341D01*
X101759922Y-128828996D01*
X101838078Y-128787221D01*
X101907758Y-128749976D01*
X102068177Y-128701313D01*
X102193196Y-128689000D01*
X102276804Y-128689000D01*
X102401823Y-128701313D01*
X102401823Y-128701313D01*
G37*
G36*
X107425443Y-126105519D02*
G01*
X107491627Y-126112037D01*
X107661466Y-126163557D01*
X107817991Y-126247222D01*
X107853729Y-126276552D01*
X107955186Y-126359814D01*
X108038448Y-126461271D01*
X108067778Y-126497009D01*
X108151443Y-126653534D01*
X108202963Y-126823373D01*
X108220359Y-127000000D01*
X108202963Y-127176627D01*
X108151443Y-127346466D01*
X108067778Y-127502991D01*
X108038448Y-127538729D01*
X107955186Y-127640186D01*
X107853729Y-127723448D01*
X107817991Y-127752778D01*
X107661466Y-127836443D01*
X107491627Y-127887963D01*
X107425442Y-127894482D01*
X107359260Y-127901000D01*
X107270740Y-127901000D01*
X107204558Y-127894482D01*
X107138373Y-127887963D01*
X106968534Y-127836443D01*
X106812009Y-127752778D01*
X106776271Y-127723448D01*
X106674814Y-127640186D01*
X106591552Y-127538729D01*
X106562222Y-127502991D01*
X106478557Y-127346466D01*
X106427037Y-127176627D01*
X106409641Y-127000000D01*
X106427037Y-126823373D01*
X106478557Y-126653534D01*
X106562222Y-126497009D01*
X106591552Y-126461271D01*
X106674814Y-126359814D01*
X106776271Y-126276552D01*
X106812009Y-126247222D01*
X106968534Y-126163557D01*
X107138373Y-126112037D01*
X107204557Y-126105519D01*
X107270740Y-126099000D01*
X107359260Y-126099000D01*
X107425443Y-126105519D01*
X107425443Y-126105519D01*
G37*
G36*
X82025443Y-126105519D02*
G01*
X82091627Y-126112037D01*
X82261466Y-126163557D01*
X82417991Y-126247222D01*
X82453729Y-126276552D01*
X82555186Y-126359814D01*
X82638448Y-126461271D01*
X82667778Y-126497009D01*
X82751443Y-126653534D01*
X82802963Y-126823373D01*
X82820359Y-127000000D01*
X82802963Y-127176627D01*
X82751443Y-127346466D01*
X82667778Y-127502991D01*
X82638448Y-127538729D01*
X82555186Y-127640186D01*
X82453729Y-127723448D01*
X82417991Y-127752778D01*
X82261466Y-127836443D01*
X82091627Y-127887963D01*
X82025442Y-127894482D01*
X81959260Y-127901000D01*
X81870740Y-127901000D01*
X81804558Y-127894482D01*
X81738373Y-127887963D01*
X81568534Y-127836443D01*
X81412009Y-127752778D01*
X81376271Y-127723448D01*
X81274814Y-127640186D01*
X81191552Y-127538729D01*
X81162222Y-127502991D01*
X81078557Y-127346466D01*
X81027037Y-127176627D01*
X81009641Y-127000000D01*
X81027037Y-126823373D01*
X81078557Y-126653534D01*
X81162222Y-126497009D01*
X81191552Y-126461271D01*
X81274814Y-126359814D01*
X81376271Y-126276552D01*
X81412009Y-126247222D01*
X81568534Y-126163557D01*
X81738373Y-126112037D01*
X81804557Y-126105519D01*
X81870740Y-126099000D01*
X81959260Y-126099000D01*
X82025443Y-126105519D01*
X82025443Y-126105519D01*
G37*
G36*
X76945443Y-126105519D02*
G01*
X77011627Y-126112037D01*
X77181466Y-126163557D01*
X77337991Y-126247222D01*
X77373729Y-126276552D01*
X77475186Y-126359814D01*
X77558448Y-126461271D01*
X77587778Y-126497009D01*
X77671443Y-126653534D01*
X77722963Y-126823373D01*
X77740359Y-127000000D01*
X77722963Y-127176627D01*
X77671443Y-127346466D01*
X77587778Y-127502991D01*
X77558448Y-127538729D01*
X77475186Y-127640186D01*
X77373729Y-127723448D01*
X77337991Y-127752778D01*
X77181466Y-127836443D01*
X77011627Y-127887963D01*
X76945442Y-127894482D01*
X76879260Y-127901000D01*
X76790740Y-127901000D01*
X76724558Y-127894482D01*
X76658373Y-127887963D01*
X76488534Y-127836443D01*
X76332009Y-127752778D01*
X76296271Y-127723448D01*
X76194814Y-127640186D01*
X76111552Y-127538729D01*
X76082222Y-127502991D01*
X75998557Y-127346466D01*
X75947037Y-127176627D01*
X75929641Y-127000000D01*
X75947037Y-126823373D01*
X75998557Y-126653534D01*
X76082222Y-126497009D01*
X76111552Y-126461271D01*
X76194814Y-126359814D01*
X76296271Y-126276552D01*
X76332009Y-126247222D01*
X76488534Y-126163557D01*
X76658373Y-126112037D01*
X76724557Y-126105519D01*
X76790740Y-126099000D01*
X76879260Y-126099000D01*
X76945443Y-126105519D01*
X76945443Y-126105519D01*
G37*
G36*
X102401823Y-126161313D02*
G01*
X102562242Y-126209976D01*
X102631922Y-126247221D01*
X102710078Y-126288996D01*
X102839659Y-126395341D01*
X102946004Y-126524922D01*
X102946005Y-126524924D01*
X103025024Y-126672758D01*
X103073687Y-126833177D01*
X103090117Y-127000000D01*
X103073687Y-127166823D01*
X103025024Y-127327242D01*
X103014747Y-127346468D01*
X102946004Y-127475078D01*
X102839659Y-127604659D01*
X102710078Y-127711004D01*
X102710076Y-127711005D01*
X102562242Y-127790024D01*
X102401823Y-127838687D01*
X102276804Y-127851000D01*
X102193196Y-127851000D01*
X102068177Y-127838687D01*
X101907758Y-127790024D01*
X101759924Y-127711005D01*
X101759922Y-127711004D01*
X101630341Y-127604659D01*
X101523996Y-127475078D01*
X101455253Y-127346468D01*
X101444976Y-127327242D01*
X101396313Y-127166823D01*
X101379883Y-127000000D01*
X101396313Y-126833177D01*
X101444976Y-126672758D01*
X101523995Y-126524924D01*
X101523996Y-126524922D01*
X101630341Y-126395341D01*
X101759922Y-126288996D01*
X101838078Y-126247221D01*
X101907758Y-126209976D01*
X102068177Y-126161313D01*
X102193196Y-126149000D01*
X102276804Y-126149000D01*
X102401823Y-126161313D01*
X102401823Y-126161313D01*
G37*
G36*
X87161823Y-126161313D02*
G01*
X87322242Y-126209976D01*
X87391922Y-126247221D01*
X87470078Y-126288996D01*
X87599659Y-126395341D01*
X87706004Y-126524922D01*
X87706005Y-126524924D01*
X87785024Y-126672758D01*
X87833687Y-126833177D01*
X87850117Y-127000000D01*
X87833687Y-127166823D01*
X87785024Y-127327242D01*
X87774747Y-127346468D01*
X87706004Y-127475078D01*
X87599659Y-127604659D01*
X87470078Y-127711004D01*
X87470076Y-127711005D01*
X87322242Y-127790024D01*
X87161823Y-127838687D01*
X87036804Y-127851000D01*
X86953196Y-127851000D01*
X86828177Y-127838687D01*
X86667758Y-127790024D01*
X86519924Y-127711005D01*
X86519922Y-127711004D01*
X86390341Y-127604659D01*
X86283996Y-127475078D01*
X86215253Y-127346468D01*
X86204976Y-127327242D01*
X86156313Y-127166823D01*
X86139883Y-127000000D01*
X86156313Y-126833177D01*
X86204976Y-126672758D01*
X86283995Y-126524924D01*
X86283996Y-126524922D01*
X86390341Y-126395341D01*
X86519922Y-126288996D01*
X86598078Y-126247221D01*
X86667758Y-126209976D01*
X86828177Y-126161313D01*
X86953196Y-126149000D01*
X87036804Y-126149000D01*
X87161823Y-126161313D01*
X87161823Y-126161313D01*
G37*
G36*
X107425442Y-123565518D02*
G01*
X107491627Y-123572037D01*
X107661466Y-123623557D01*
X107817991Y-123707222D01*
X107853729Y-123736552D01*
X107955186Y-123819814D01*
X108038448Y-123921271D01*
X108067778Y-123957009D01*
X108151443Y-124113534D01*
X108202963Y-124283373D01*
X108220359Y-124460000D01*
X108202963Y-124636627D01*
X108151443Y-124806466D01*
X108067778Y-124962991D01*
X108038448Y-124998729D01*
X107955186Y-125100186D01*
X107853729Y-125183448D01*
X107817991Y-125212778D01*
X107661466Y-125296443D01*
X107491627Y-125347963D01*
X107425442Y-125354482D01*
X107359260Y-125361000D01*
X107270740Y-125361000D01*
X107204558Y-125354482D01*
X107138373Y-125347963D01*
X106968534Y-125296443D01*
X106812009Y-125212778D01*
X106776271Y-125183448D01*
X106674814Y-125100186D01*
X106591552Y-124998729D01*
X106562222Y-124962991D01*
X106478557Y-124806466D01*
X106427037Y-124636627D01*
X106409641Y-124460000D01*
X106427037Y-124283373D01*
X106478557Y-124113534D01*
X106562222Y-123957009D01*
X106591552Y-123921271D01*
X106674814Y-123819814D01*
X106776271Y-123736552D01*
X106812009Y-123707222D01*
X106968534Y-123623557D01*
X107138373Y-123572037D01*
X107204558Y-123565518D01*
X107270740Y-123559000D01*
X107359260Y-123559000D01*
X107425442Y-123565518D01*
X107425442Y-123565518D01*
G37*
G36*
X82025442Y-123565518D02*
G01*
X82091627Y-123572037D01*
X82261466Y-123623557D01*
X82417991Y-123707222D01*
X82453729Y-123736552D01*
X82555186Y-123819814D01*
X82638448Y-123921271D01*
X82667778Y-123957009D01*
X82751443Y-124113534D01*
X82802963Y-124283373D01*
X82820359Y-124460000D01*
X82802963Y-124636627D01*
X82751443Y-124806466D01*
X82667778Y-124962991D01*
X82638448Y-124998729D01*
X82555186Y-125100186D01*
X82453729Y-125183448D01*
X82417991Y-125212778D01*
X82261466Y-125296443D01*
X82091627Y-125347963D01*
X82025442Y-125354482D01*
X81959260Y-125361000D01*
X81870740Y-125361000D01*
X81804558Y-125354482D01*
X81738373Y-125347963D01*
X81568534Y-125296443D01*
X81412009Y-125212778D01*
X81376271Y-125183448D01*
X81274814Y-125100186D01*
X81191552Y-124998729D01*
X81162222Y-124962991D01*
X81078557Y-124806466D01*
X81027037Y-124636627D01*
X81009641Y-124460000D01*
X81027037Y-124283373D01*
X81078557Y-124113534D01*
X81162222Y-123957009D01*
X81191552Y-123921271D01*
X81274814Y-123819814D01*
X81376271Y-123736552D01*
X81412009Y-123707222D01*
X81568534Y-123623557D01*
X81738373Y-123572037D01*
X81804558Y-123565518D01*
X81870740Y-123559000D01*
X81959260Y-123559000D01*
X82025442Y-123565518D01*
X82025442Y-123565518D01*
G37*
G36*
X76945442Y-123565518D02*
G01*
X77011627Y-123572037D01*
X77181466Y-123623557D01*
X77337991Y-123707222D01*
X77373729Y-123736552D01*
X77475186Y-123819814D01*
X77558448Y-123921271D01*
X77587778Y-123957009D01*
X77671443Y-124113534D01*
X77722963Y-124283373D01*
X77740359Y-124460000D01*
X77722963Y-124636627D01*
X77671443Y-124806466D01*
X77587778Y-124962991D01*
X77558448Y-124998729D01*
X77475186Y-125100186D01*
X77373729Y-125183448D01*
X77337991Y-125212778D01*
X77181466Y-125296443D01*
X77011627Y-125347963D01*
X76945442Y-125354482D01*
X76879260Y-125361000D01*
X76790740Y-125361000D01*
X76724558Y-125354482D01*
X76658373Y-125347963D01*
X76488534Y-125296443D01*
X76332009Y-125212778D01*
X76296271Y-125183448D01*
X76194814Y-125100186D01*
X76111552Y-124998729D01*
X76082222Y-124962991D01*
X75998557Y-124806466D01*
X75947037Y-124636627D01*
X75929641Y-124460000D01*
X75947037Y-124283373D01*
X75998557Y-124113534D01*
X76082222Y-123957009D01*
X76111552Y-123921271D01*
X76194814Y-123819814D01*
X76296271Y-123736552D01*
X76332009Y-123707222D01*
X76488534Y-123623557D01*
X76658373Y-123572037D01*
X76724558Y-123565518D01*
X76790740Y-123559000D01*
X76879260Y-123559000D01*
X76945442Y-123565518D01*
X76945442Y-123565518D01*
G37*
G36*
X87161823Y-123621313D02*
G01*
X87322242Y-123669976D01*
X87391922Y-123707221D01*
X87470078Y-123748996D01*
X87599659Y-123855341D01*
X87706004Y-123984922D01*
X87706005Y-123984924D01*
X87785024Y-124132758D01*
X87833687Y-124293177D01*
X87850117Y-124460000D01*
X87833687Y-124626823D01*
X87785024Y-124787242D01*
X87774747Y-124806468D01*
X87706004Y-124935078D01*
X87599659Y-125064659D01*
X87470078Y-125171004D01*
X87470076Y-125171005D01*
X87322242Y-125250024D01*
X87161823Y-125298687D01*
X87036804Y-125311000D01*
X86953196Y-125311000D01*
X86828177Y-125298687D01*
X86667758Y-125250024D01*
X86519924Y-125171005D01*
X86519922Y-125171004D01*
X86390341Y-125064659D01*
X86283996Y-124935078D01*
X86215253Y-124806468D01*
X86204976Y-124787242D01*
X86156313Y-124626823D01*
X86139883Y-124460000D01*
X86156313Y-124293177D01*
X86204976Y-124132758D01*
X86283995Y-123984924D01*
X86283996Y-123984922D01*
X86390341Y-123855341D01*
X86519922Y-123748996D01*
X86598078Y-123707221D01*
X86667758Y-123669976D01*
X86828177Y-123621313D01*
X86953196Y-123609000D01*
X87036804Y-123609000D01*
X87161823Y-123621313D01*
X87161823Y-123621313D01*
G37*
G36*
X102401823Y-123621313D02*
G01*
X102562242Y-123669976D01*
X102631922Y-123707221D01*
X102710078Y-123748996D01*
X102839659Y-123855341D01*
X102946004Y-123984922D01*
X102946005Y-123984924D01*
X103025024Y-124132758D01*
X103073687Y-124293177D01*
X103090117Y-124460000D01*
X103073687Y-124626823D01*
X103025024Y-124787242D01*
X103014747Y-124806468D01*
X102946004Y-124935078D01*
X102839659Y-125064659D01*
X102710078Y-125171004D01*
X102710076Y-125171005D01*
X102562242Y-125250024D01*
X102401823Y-125298687D01*
X102276804Y-125311000D01*
X102193196Y-125311000D01*
X102068177Y-125298687D01*
X101907758Y-125250024D01*
X101759924Y-125171005D01*
X101759922Y-125171004D01*
X101630341Y-125064659D01*
X101523996Y-124935078D01*
X101455253Y-124806468D01*
X101444976Y-124787242D01*
X101396313Y-124626823D01*
X101379883Y-124460000D01*
X101396313Y-124293177D01*
X101444976Y-124132758D01*
X101523995Y-123984924D01*
X101523996Y-123984922D01*
X101630341Y-123855341D01*
X101759922Y-123748996D01*
X101838078Y-123707221D01*
X101907758Y-123669976D01*
X102068177Y-123621313D01*
X102193196Y-123609000D01*
X102276804Y-123609000D01*
X102401823Y-123621313D01*
X102401823Y-123621313D01*
G37*
G36*
X82025442Y-121025518D02*
G01*
X82091627Y-121032037D01*
X82261466Y-121083557D01*
X82417991Y-121167222D01*
X82453729Y-121196552D01*
X82555186Y-121279814D01*
X82638448Y-121381271D01*
X82667778Y-121417009D01*
X82751443Y-121573534D01*
X82802963Y-121743373D01*
X82820359Y-121920000D01*
X82802963Y-122096627D01*
X82751443Y-122266466D01*
X82667778Y-122422991D01*
X82638448Y-122458729D01*
X82555186Y-122560186D01*
X82453729Y-122643448D01*
X82417991Y-122672778D01*
X82261466Y-122756443D01*
X82091627Y-122807963D01*
X82025443Y-122814481D01*
X81959260Y-122821000D01*
X81870740Y-122821000D01*
X81804557Y-122814481D01*
X81738373Y-122807963D01*
X81568534Y-122756443D01*
X81412009Y-122672778D01*
X81376271Y-122643448D01*
X81274814Y-122560186D01*
X81191552Y-122458729D01*
X81162222Y-122422991D01*
X81078557Y-122266466D01*
X81027037Y-122096627D01*
X81009641Y-121920000D01*
X81027037Y-121743373D01*
X81078557Y-121573534D01*
X81162222Y-121417009D01*
X81191552Y-121381271D01*
X81274814Y-121279814D01*
X81376271Y-121196552D01*
X81412009Y-121167222D01*
X81568534Y-121083557D01*
X81738373Y-121032037D01*
X81804558Y-121025518D01*
X81870740Y-121019000D01*
X81959260Y-121019000D01*
X82025442Y-121025518D01*
X82025442Y-121025518D01*
G37*
G36*
X107425442Y-121025518D02*
G01*
X107491627Y-121032037D01*
X107661466Y-121083557D01*
X107817991Y-121167222D01*
X107853729Y-121196552D01*
X107955186Y-121279814D01*
X108038448Y-121381271D01*
X108067778Y-121417009D01*
X108151443Y-121573534D01*
X108202963Y-121743373D01*
X108220359Y-121920000D01*
X108202963Y-122096627D01*
X108151443Y-122266466D01*
X108067778Y-122422991D01*
X108038448Y-122458729D01*
X107955186Y-122560186D01*
X107853729Y-122643448D01*
X107817991Y-122672778D01*
X107661466Y-122756443D01*
X107491627Y-122807963D01*
X107425443Y-122814481D01*
X107359260Y-122821000D01*
X107270740Y-122821000D01*
X107204557Y-122814481D01*
X107138373Y-122807963D01*
X106968534Y-122756443D01*
X106812009Y-122672778D01*
X106776271Y-122643448D01*
X106674814Y-122560186D01*
X106591552Y-122458729D01*
X106562222Y-122422991D01*
X106478557Y-122266466D01*
X106427037Y-122096627D01*
X106409641Y-121920000D01*
X106427037Y-121743373D01*
X106478557Y-121573534D01*
X106562222Y-121417009D01*
X106591552Y-121381271D01*
X106674814Y-121279814D01*
X106776271Y-121196552D01*
X106812009Y-121167222D01*
X106968534Y-121083557D01*
X107138373Y-121032037D01*
X107204558Y-121025518D01*
X107270740Y-121019000D01*
X107359260Y-121019000D01*
X107425442Y-121025518D01*
X107425442Y-121025518D01*
G37*
G36*
X76945442Y-121025518D02*
G01*
X77011627Y-121032037D01*
X77181466Y-121083557D01*
X77337991Y-121167222D01*
X77373729Y-121196552D01*
X77475186Y-121279814D01*
X77558448Y-121381271D01*
X77587778Y-121417009D01*
X77671443Y-121573534D01*
X77722963Y-121743373D01*
X77740359Y-121920000D01*
X77722963Y-122096627D01*
X77671443Y-122266466D01*
X77587778Y-122422991D01*
X77558448Y-122458729D01*
X77475186Y-122560186D01*
X77373729Y-122643448D01*
X77337991Y-122672778D01*
X77181466Y-122756443D01*
X77011627Y-122807963D01*
X76945443Y-122814481D01*
X76879260Y-122821000D01*
X76790740Y-122821000D01*
X76724557Y-122814481D01*
X76658373Y-122807963D01*
X76488534Y-122756443D01*
X76332009Y-122672778D01*
X76296271Y-122643448D01*
X76194814Y-122560186D01*
X76111552Y-122458729D01*
X76082222Y-122422991D01*
X75998557Y-122266466D01*
X75947037Y-122096627D01*
X75929641Y-121920000D01*
X75947037Y-121743373D01*
X75998557Y-121573534D01*
X76082222Y-121417009D01*
X76111552Y-121381271D01*
X76194814Y-121279814D01*
X76296271Y-121196552D01*
X76332009Y-121167222D01*
X76488534Y-121083557D01*
X76658373Y-121032037D01*
X76724558Y-121025518D01*
X76790740Y-121019000D01*
X76879260Y-121019000D01*
X76945442Y-121025518D01*
X76945442Y-121025518D01*
G37*
G36*
X102401823Y-121081313D02*
G01*
X102562242Y-121129976D01*
X102631922Y-121167221D01*
X102710078Y-121208996D01*
X102839659Y-121315341D01*
X102946004Y-121444922D01*
X102946005Y-121444924D01*
X103025024Y-121592758D01*
X103073687Y-121753177D01*
X103090117Y-121920000D01*
X103073687Y-122086823D01*
X103025024Y-122247242D01*
X103014747Y-122266468D01*
X102946004Y-122395078D01*
X102839659Y-122524659D01*
X102710078Y-122631004D01*
X102710076Y-122631005D01*
X102562242Y-122710024D01*
X102401823Y-122758687D01*
X102276804Y-122771000D01*
X102193196Y-122771000D01*
X102068177Y-122758687D01*
X101907758Y-122710024D01*
X101759924Y-122631005D01*
X101759922Y-122631004D01*
X101630341Y-122524659D01*
X101523996Y-122395078D01*
X101455253Y-122266468D01*
X101444976Y-122247242D01*
X101396313Y-122086823D01*
X101379883Y-121920000D01*
X101396313Y-121753177D01*
X101444976Y-121592758D01*
X101523995Y-121444924D01*
X101523996Y-121444922D01*
X101630341Y-121315341D01*
X101759922Y-121208996D01*
X101838078Y-121167221D01*
X101907758Y-121129976D01*
X102068177Y-121081313D01*
X102193196Y-121069000D01*
X102276804Y-121069000D01*
X102401823Y-121081313D01*
X102401823Y-121081313D01*
G37*
G36*
X87161823Y-121081313D02*
G01*
X87322242Y-121129976D01*
X87391922Y-121167221D01*
X87470078Y-121208996D01*
X87599659Y-121315341D01*
X87706004Y-121444922D01*
X87706005Y-121444924D01*
X87785024Y-121592758D01*
X87833687Y-121753177D01*
X87850117Y-121920000D01*
X87833687Y-122086823D01*
X87785024Y-122247242D01*
X87774747Y-122266468D01*
X87706004Y-122395078D01*
X87599659Y-122524659D01*
X87470078Y-122631004D01*
X87470076Y-122631005D01*
X87322242Y-122710024D01*
X87161823Y-122758687D01*
X87036804Y-122771000D01*
X86953196Y-122771000D01*
X86828177Y-122758687D01*
X86667758Y-122710024D01*
X86519924Y-122631005D01*
X86519922Y-122631004D01*
X86390341Y-122524659D01*
X86283996Y-122395078D01*
X86215253Y-122266468D01*
X86204976Y-122247242D01*
X86156313Y-122086823D01*
X86139883Y-121920000D01*
X86156313Y-121753177D01*
X86204976Y-121592758D01*
X86283995Y-121444924D01*
X86283996Y-121444922D01*
X86390341Y-121315341D01*
X86519922Y-121208996D01*
X86598078Y-121167221D01*
X86667758Y-121129976D01*
X86828177Y-121081313D01*
X86953196Y-121069000D01*
X87036804Y-121069000D01*
X87161823Y-121081313D01*
X87161823Y-121081313D01*
G37*
G36*
X107425442Y-118485518D02*
G01*
X107491627Y-118492037D01*
X107661466Y-118543557D01*
X107817991Y-118627222D01*
X107853729Y-118656552D01*
X107955186Y-118739814D01*
X108038448Y-118841271D01*
X108067778Y-118877009D01*
X108151443Y-119033534D01*
X108202963Y-119203373D01*
X108220359Y-119380000D01*
X108202963Y-119556627D01*
X108151443Y-119726466D01*
X108067778Y-119882991D01*
X108038448Y-119918729D01*
X107955186Y-120020186D01*
X107853729Y-120103448D01*
X107817991Y-120132778D01*
X107661466Y-120216443D01*
X107491627Y-120267963D01*
X107425442Y-120274482D01*
X107359260Y-120281000D01*
X107270740Y-120281000D01*
X107204558Y-120274482D01*
X107138373Y-120267963D01*
X106968534Y-120216443D01*
X106812009Y-120132778D01*
X106776271Y-120103448D01*
X106674814Y-120020186D01*
X106591552Y-119918729D01*
X106562222Y-119882991D01*
X106478557Y-119726466D01*
X106427037Y-119556627D01*
X106409641Y-119380000D01*
X106427037Y-119203373D01*
X106478557Y-119033534D01*
X106562222Y-118877009D01*
X106591552Y-118841271D01*
X106674814Y-118739814D01*
X106776271Y-118656552D01*
X106812009Y-118627222D01*
X106968534Y-118543557D01*
X107138373Y-118492037D01*
X107204558Y-118485518D01*
X107270740Y-118479000D01*
X107359260Y-118479000D01*
X107425442Y-118485518D01*
X107425442Y-118485518D01*
G37*
G36*
X77736000Y-120281000D02*
G01*
X75934000Y-120281000D01*
X75934000Y-118479000D01*
X77736000Y-118479000D01*
X77736000Y-120281000D01*
X77736000Y-120281000D01*
G37*
G36*
X82025442Y-118485518D02*
G01*
X82091627Y-118492037D01*
X82261466Y-118543557D01*
X82417991Y-118627222D01*
X82453729Y-118656552D01*
X82555186Y-118739814D01*
X82638448Y-118841271D01*
X82667778Y-118877009D01*
X82751443Y-119033534D01*
X82802963Y-119203373D01*
X82820359Y-119380000D01*
X82802963Y-119556627D01*
X82751443Y-119726466D01*
X82667778Y-119882991D01*
X82638448Y-119918729D01*
X82555186Y-120020186D01*
X82453729Y-120103448D01*
X82417991Y-120132778D01*
X82261466Y-120216443D01*
X82091627Y-120267963D01*
X82025442Y-120274482D01*
X81959260Y-120281000D01*
X81870740Y-120281000D01*
X81804558Y-120274482D01*
X81738373Y-120267963D01*
X81568534Y-120216443D01*
X81412009Y-120132778D01*
X81376271Y-120103448D01*
X81274814Y-120020186D01*
X81191552Y-119918729D01*
X81162222Y-119882991D01*
X81078557Y-119726466D01*
X81027037Y-119556627D01*
X81009641Y-119380000D01*
X81027037Y-119203373D01*
X81078557Y-119033534D01*
X81162222Y-118877009D01*
X81191552Y-118841271D01*
X81274814Y-118739814D01*
X81376271Y-118656552D01*
X81412009Y-118627222D01*
X81568534Y-118543557D01*
X81738373Y-118492037D01*
X81804558Y-118485518D01*
X81870740Y-118479000D01*
X81959260Y-118479000D01*
X82025442Y-118485518D01*
X82025442Y-118485518D01*
G37*
G36*
X102401823Y-118541313D02*
G01*
X102562242Y-118589976D01*
X102631922Y-118627221D01*
X102710078Y-118668996D01*
X102839659Y-118775341D01*
X102946004Y-118904922D01*
X102946005Y-118904924D01*
X103025024Y-119052758D01*
X103073687Y-119213177D01*
X103090117Y-119380000D01*
X103073687Y-119546823D01*
X103025024Y-119707242D01*
X103014747Y-119726468D01*
X102946004Y-119855078D01*
X102839659Y-119984659D01*
X102710078Y-120091004D01*
X102710076Y-120091005D01*
X102562242Y-120170024D01*
X102401823Y-120218687D01*
X102276804Y-120231000D01*
X102193196Y-120231000D01*
X102068177Y-120218687D01*
X101907758Y-120170024D01*
X101759924Y-120091005D01*
X101759922Y-120091004D01*
X101630341Y-119984659D01*
X101523996Y-119855078D01*
X101455253Y-119726468D01*
X101444976Y-119707242D01*
X101396313Y-119546823D01*
X101379883Y-119380000D01*
X101396313Y-119213177D01*
X101444976Y-119052758D01*
X101523995Y-118904924D01*
X101523996Y-118904922D01*
X101630341Y-118775341D01*
X101759922Y-118668996D01*
X101838078Y-118627221D01*
X101907758Y-118589976D01*
X102068177Y-118541313D01*
X102193196Y-118529000D01*
X102276804Y-118529000D01*
X102401823Y-118541313D01*
X102401823Y-118541313D01*
G37*
G36*
X87161823Y-118541313D02*
G01*
X87322242Y-118589976D01*
X87391922Y-118627221D01*
X87470078Y-118668996D01*
X87599659Y-118775341D01*
X87706004Y-118904922D01*
X87706005Y-118904924D01*
X87785024Y-119052758D01*
X87833687Y-119213177D01*
X87850117Y-119380000D01*
X87833687Y-119546823D01*
X87785024Y-119707242D01*
X87774747Y-119726468D01*
X87706004Y-119855078D01*
X87599659Y-119984659D01*
X87470078Y-120091004D01*
X87470076Y-120091005D01*
X87322242Y-120170024D01*
X87161823Y-120218687D01*
X87036804Y-120231000D01*
X86953196Y-120231000D01*
X86828177Y-120218687D01*
X86667758Y-120170024D01*
X86519924Y-120091005D01*
X86519922Y-120091004D01*
X86390341Y-119984659D01*
X86283996Y-119855078D01*
X86215253Y-119726468D01*
X86204976Y-119707242D01*
X86156313Y-119546823D01*
X86139883Y-119380000D01*
X86156313Y-119213177D01*
X86204976Y-119052758D01*
X86283995Y-118904924D01*
X86283996Y-118904922D01*
X86390341Y-118775341D01*
X86519922Y-118668996D01*
X86598078Y-118627221D01*
X86667758Y-118589976D01*
X86828177Y-118541313D01*
X86953196Y-118529000D01*
X87036804Y-118529000D01*
X87161823Y-118541313D01*
X87161823Y-118541313D01*
G37*
G36*
X113775442Y-115945518D02*
G01*
X113841627Y-115952037D01*
X114011466Y-116003557D01*
X114167991Y-116087222D01*
X114203729Y-116116552D01*
X114305186Y-116199814D01*
X114388448Y-116301271D01*
X114417778Y-116337009D01*
X114501443Y-116493534D01*
X114552963Y-116663373D01*
X114570359Y-116840000D01*
X114552963Y-117016627D01*
X114501443Y-117186466D01*
X114417778Y-117342991D01*
X114388448Y-117378729D01*
X114305186Y-117480186D01*
X114203729Y-117563448D01*
X114167991Y-117592778D01*
X114011466Y-117676443D01*
X113841627Y-117727963D01*
X113775442Y-117734482D01*
X113709260Y-117741000D01*
X113620740Y-117741000D01*
X113554558Y-117734482D01*
X113488373Y-117727963D01*
X113318534Y-117676443D01*
X113162009Y-117592778D01*
X113126271Y-117563448D01*
X113024814Y-117480186D01*
X112941552Y-117378729D01*
X112912222Y-117342991D01*
X112828557Y-117186466D01*
X112777037Y-117016627D01*
X112759641Y-116840000D01*
X112777037Y-116663373D01*
X112828557Y-116493534D01*
X112912222Y-116337009D01*
X112941552Y-116301271D01*
X113024814Y-116199814D01*
X113126271Y-116116552D01*
X113162009Y-116087222D01*
X113318534Y-116003557D01*
X113488373Y-115952037D01*
X113554558Y-115945518D01*
X113620740Y-115939000D01*
X113709260Y-115939000D01*
X113775442Y-115945518D01*
X113775442Y-115945518D01*
G37*
G36*
X111235442Y-115945518D02*
G01*
X111301627Y-115952037D01*
X111471466Y-116003557D01*
X111627991Y-116087222D01*
X111663729Y-116116552D01*
X111765186Y-116199814D01*
X111848448Y-116301271D01*
X111877778Y-116337009D01*
X111961443Y-116493534D01*
X112012963Y-116663373D01*
X112030359Y-116840000D01*
X112012963Y-117016627D01*
X111961443Y-117186466D01*
X111877778Y-117342991D01*
X111848448Y-117378729D01*
X111765186Y-117480186D01*
X111663729Y-117563448D01*
X111627991Y-117592778D01*
X111471466Y-117676443D01*
X111301627Y-117727963D01*
X111235442Y-117734482D01*
X111169260Y-117741000D01*
X111080740Y-117741000D01*
X111014558Y-117734482D01*
X110948373Y-117727963D01*
X110778534Y-117676443D01*
X110622009Y-117592778D01*
X110586271Y-117563448D01*
X110484814Y-117480186D01*
X110401552Y-117378729D01*
X110372222Y-117342991D01*
X110288557Y-117186466D01*
X110237037Y-117016627D01*
X110219641Y-116840000D01*
X110237037Y-116663373D01*
X110288557Y-116493534D01*
X110372222Y-116337009D01*
X110401552Y-116301271D01*
X110484814Y-116199814D01*
X110586271Y-116116552D01*
X110622009Y-116087222D01*
X110778534Y-116003557D01*
X110948373Y-115952037D01*
X111014558Y-115945518D01*
X111080740Y-115939000D01*
X111169260Y-115939000D01*
X111235442Y-115945518D01*
X111235442Y-115945518D01*
G37*
G36*
X107425442Y-115945518D02*
G01*
X107491627Y-115952037D01*
X107661466Y-116003557D01*
X107817991Y-116087222D01*
X107853729Y-116116552D01*
X107955186Y-116199814D01*
X108038448Y-116301271D01*
X108067778Y-116337009D01*
X108151443Y-116493534D01*
X108202963Y-116663373D01*
X108220359Y-116840000D01*
X108202963Y-117016627D01*
X108151443Y-117186466D01*
X108067778Y-117342991D01*
X108038448Y-117378729D01*
X107955186Y-117480186D01*
X107853729Y-117563448D01*
X107817991Y-117592778D01*
X107661466Y-117676443D01*
X107491627Y-117727963D01*
X107425442Y-117734482D01*
X107359260Y-117741000D01*
X107270740Y-117741000D01*
X107204558Y-117734482D01*
X107138373Y-117727963D01*
X106968534Y-117676443D01*
X106812009Y-117592778D01*
X106776271Y-117563448D01*
X106674814Y-117480186D01*
X106591552Y-117378729D01*
X106562222Y-117342991D01*
X106478557Y-117186466D01*
X106427037Y-117016627D01*
X106409641Y-116840000D01*
X106427037Y-116663373D01*
X106478557Y-116493534D01*
X106562222Y-116337009D01*
X106591552Y-116301271D01*
X106674814Y-116199814D01*
X106776271Y-116116552D01*
X106812009Y-116087222D01*
X106968534Y-116003557D01*
X107138373Y-115952037D01*
X107204558Y-115945518D01*
X107270740Y-115939000D01*
X107359260Y-115939000D01*
X107425442Y-115945518D01*
X107425442Y-115945518D01*
G37*
G36*
X82025442Y-115945518D02*
G01*
X82091627Y-115952037D01*
X82261466Y-116003557D01*
X82417991Y-116087222D01*
X82453729Y-116116552D01*
X82555186Y-116199814D01*
X82638448Y-116301271D01*
X82667778Y-116337009D01*
X82751443Y-116493534D01*
X82802963Y-116663373D01*
X82820359Y-116840000D01*
X82802963Y-117016627D01*
X82751443Y-117186466D01*
X82667778Y-117342991D01*
X82638448Y-117378729D01*
X82555186Y-117480186D01*
X82453729Y-117563448D01*
X82417991Y-117592778D01*
X82261466Y-117676443D01*
X82091627Y-117727963D01*
X82025442Y-117734482D01*
X81959260Y-117741000D01*
X81870740Y-117741000D01*
X81804558Y-117734482D01*
X81738373Y-117727963D01*
X81568534Y-117676443D01*
X81412009Y-117592778D01*
X81376271Y-117563448D01*
X81274814Y-117480186D01*
X81191552Y-117378729D01*
X81162222Y-117342991D01*
X81078557Y-117186466D01*
X81027037Y-117016627D01*
X81009641Y-116840000D01*
X81027037Y-116663373D01*
X81078557Y-116493534D01*
X81162222Y-116337009D01*
X81191552Y-116301271D01*
X81274814Y-116199814D01*
X81376271Y-116116552D01*
X81412009Y-116087222D01*
X81568534Y-116003557D01*
X81738373Y-115952037D01*
X81804558Y-115945518D01*
X81870740Y-115939000D01*
X81959260Y-115939000D01*
X82025442Y-115945518D01*
X82025442Y-115945518D01*
G37*
G36*
X102401823Y-116001313D02*
G01*
X102562242Y-116049976D01*
X102631922Y-116087221D01*
X102710078Y-116128996D01*
X102839659Y-116235341D01*
X102946004Y-116364922D01*
X102946005Y-116364924D01*
X103025024Y-116512758D01*
X103073687Y-116673177D01*
X103090117Y-116840000D01*
X103073687Y-117006823D01*
X103025024Y-117167242D01*
X103014747Y-117186468D01*
X102946004Y-117315078D01*
X102839659Y-117444659D01*
X102710078Y-117551004D01*
X102710076Y-117551005D01*
X102562242Y-117630024D01*
X102401823Y-117678687D01*
X102276804Y-117691000D01*
X102193196Y-117691000D01*
X102068177Y-117678687D01*
X101907758Y-117630024D01*
X101759924Y-117551005D01*
X101759922Y-117551004D01*
X101630341Y-117444659D01*
X101523996Y-117315078D01*
X101455253Y-117186468D01*
X101444976Y-117167242D01*
X101396313Y-117006823D01*
X101379883Y-116840000D01*
X101396313Y-116673177D01*
X101444976Y-116512758D01*
X101523995Y-116364924D01*
X101523996Y-116364922D01*
X101630341Y-116235341D01*
X101759922Y-116128996D01*
X101838078Y-116087221D01*
X101907758Y-116049976D01*
X102068177Y-116001313D01*
X102193196Y-115989000D01*
X102276804Y-115989000D01*
X102401823Y-116001313D01*
X102401823Y-116001313D01*
G37*
G36*
X87161823Y-116001313D02*
G01*
X87322242Y-116049976D01*
X87391922Y-116087221D01*
X87470078Y-116128996D01*
X87599659Y-116235341D01*
X87706004Y-116364922D01*
X87706005Y-116364924D01*
X87785024Y-116512758D01*
X87833687Y-116673177D01*
X87850117Y-116840000D01*
X87833687Y-117006823D01*
X87785024Y-117167242D01*
X87774747Y-117186468D01*
X87706004Y-117315078D01*
X87599659Y-117444659D01*
X87470078Y-117551004D01*
X87470076Y-117551005D01*
X87322242Y-117630024D01*
X87161823Y-117678687D01*
X87036804Y-117691000D01*
X86953196Y-117691000D01*
X86828177Y-117678687D01*
X86667758Y-117630024D01*
X86519924Y-117551005D01*
X86519922Y-117551004D01*
X86390341Y-117444659D01*
X86283996Y-117315078D01*
X86215253Y-117186468D01*
X86204976Y-117167242D01*
X86156313Y-117006823D01*
X86139883Y-116840000D01*
X86156313Y-116673177D01*
X86204976Y-116512758D01*
X86283995Y-116364924D01*
X86283996Y-116364922D01*
X86390341Y-116235341D01*
X86519922Y-116128996D01*
X86598078Y-116087221D01*
X86667758Y-116049976D01*
X86828177Y-116001313D01*
X86953196Y-115989000D01*
X87036804Y-115989000D01*
X87161823Y-116001313D01*
X87161823Y-116001313D01*
G37*
G36*
X107425443Y-113405519D02*
G01*
X107491627Y-113412037D01*
X107661466Y-113463557D01*
X107817991Y-113547222D01*
X107853729Y-113576552D01*
X107955186Y-113659814D01*
X108038448Y-113761271D01*
X108067778Y-113797009D01*
X108151443Y-113953534D01*
X108202963Y-114123373D01*
X108220359Y-114300000D01*
X108202963Y-114476627D01*
X108151443Y-114646466D01*
X108067778Y-114802991D01*
X108038448Y-114838729D01*
X107955186Y-114940186D01*
X107853729Y-115023448D01*
X107817991Y-115052778D01*
X107661466Y-115136443D01*
X107491627Y-115187963D01*
X107425442Y-115194482D01*
X107359260Y-115201000D01*
X107270740Y-115201000D01*
X107204558Y-115194482D01*
X107138373Y-115187963D01*
X106968534Y-115136443D01*
X106812009Y-115052778D01*
X106776271Y-115023448D01*
X106674814Y-114940186D01*
X106591552Y-114838729D01*
X106562222Y-114802991D01*
X106478557Y-114646466D01*
X106427037Y-114476627D01*
X106409641Y-114300000D01*
X106427037Y-114123373D01*
X106478557Y-113953534D01*
X106562222Y-113797009D01*
X106591552Y-113761271D01*
X106674814Y-113659814D01*
X106776271Y-113576552D01*
X106812009Y-113547222D01*
X106968534Y-113463557D01*
X107138373Y-113412037D01*
X107204557Y-113405519D01*
X107270740Y-113399000D01*
X107359260Y-113399000D01*
X107425443Y-113405519D01*
X107425443Y-113405519D01*
G37*
G36*
X113775443Y-113405519D02*
G01*
X113841627Y-113412037D01*
X114011466Y-113463557D01*
X114167991Y-113547222D01*
X114203729Y-113576552D01*
X114305186Y-113659814D01*
X114388448Y-113761271D01*
X114417778Y-113797009D01*
X114501443Y-113953534D01*
X114552963Y-114123373D01*
X114570359Y-114300000D01*
X114552963Y-114476627D01*
X114501443Y-114646466D01*
X114417778Y-114802991D01*
X114388448Y-114838729D01*
X114305186Y-114940186D01*
X114203729Y-115023448D01*
X114167991Y-115052778D01*
X114011466Y-115136443D01*
X113841627Y-115187963D01*
X113775442Y-115194482D01*
X113709260Y-115201000D01*
X113620740Y-115201000D01*
X113554558Y-115194482D01*
X113488373Y-115187963D01*
X113318534Y-115136443D01*
X113162009Y-115052778D01*
X113126271Y-115023448D01*
X113024814Y-114940186D01*
X112941552Y-114838729D01*
X112912222Y-114802991D01*
X112828557Y-114646466D01*
X112777037Y-114476627D01*
X112759641Y-114300000D01*
X112777037Y-114123373D01*
X112828557Y-113953534D01*
X112912222Y-113797009D01*
X112941552Y-113761271D01*
X113024814Y-113659814D01*
X113126271Y-113576552D01*
X113162009Y-113547222D01*
X113318534Y-113463557D01*
X113488373Y-113412037D01*
X113554557Y-113405519D01*
X113620740Y-113399000D01*
X113709260Y-113399000D01*
X113775443Y-113405519D01*
X113775443Y-113405519D01*
G37*
G36*
X111235443Y-113405519D02*
G01*
X111301627Y-113412037D01*
X111471466Y-113463557D01*
X111627991Y-113547222D01*
X111663729Y-113576552D01*
X111765186Y-113659814D01*
X111848448Y-113761271D01*
X111877778Y-113797009D01*
X111961443Y-113953534D01*
X112012963Y-114123373D01*
X112030359Y-114300000D01*
X112012963Y-114476627D01*
X111961443Y-114646466D01*
X111877778Y-114802991D01*
X111848448Y-114838729D01*
X111765186Y-114940186D01*
X111663729Y-115023448D01*
X111627991Y-115052778D01*
X111471466Y-115136443D01*
X111301627Y-115187963D01*
X111235442Y-115194482D01*
X111169260Y-115201000D01*
X111080740Y-115201000D01*
X111014558Y-115194482D01*
X110948373Y-115187963D01*
X110778534Y-115136443D01*
X110622009Y-115052778D01*
X110586271Y-115023448D01*
X110484814Y-114940186D01*
X110401552Y-114838729D01*
X110372222Y-114802991D01*
X110288557Y-114646466D01*
X110237037Y-114476627D01*
X110219641Y-114300000D01*
X110237037Y-114123373D01*
X110288557Y-113953534D01*
X110372222Y-113797009D01*
X110401552Y-113761271D01*
X110484814Y-113659814D01*
X110586271Y-113576552D01*
X110622009Y-113547222D01*
X110778534Y-113463557D01*
X110948373Y-113412037D01*
X111014557Y-113405519D01*
X111080740Y-113399000D01*
X111169260Y-113399000D01*
X111235443Y-113405519D01*
X111235443Y-113405519D01*
G37*
G36*
X82025443Y-113405519D02*
G01*
X82091627Y-113412037D01*
X82261466Y-113463557D01*
X82417991Y-113547222D01*
X82453729Y-113576552D01*
X82555186Y-113659814D01*
X82638448Y-113761271D01*
X82667778Y-113797009D01*
X82751443Y-113953534D01*
X82802963Y-114123373D01*
X82820359Y-114300000D01*
X82802963Y-114476627D01*
X82751443Y-114646466D01*
X82667778Y-114802991D01*
X82638448Y-114838729D01*
X82555186Y-114940186D01*
X82453729Y-115023448D01*
X82417991Y-115052778D01*
X82261466Y-115136443D01*
X82091627Y-115187963D01*
X82025442Y-115194482D01*
X81959260Y-115201000D01*
X81870740Y-115201000D01*
X81804558Y-115194482D01*
X81738373Y-115187963D01*
X81568534Y-115136443D01*
X81412009Y-115052778D01*
X81376271Y-115023448D01*
X81274814Y-114940186D01*
X81191552Y-114838729D01*
X81162222Y-114802991D01*
X81078557Y-114646466D01*
X81027037Y-114476627D01*
X81009641Y-114300000D01*
X81027037Y-114123373D01*
X81078557Y-113953534D01*
X81162222Y-113797009D01*
X81191552Y-113761271D01*
X81274814Y-113659814D01*
X81376271Y-113576552D01*
X81412009Y-113547222D01*
X81568534Y-113463557D01*
X81738373Y-113412037D01*
X81804557Y-113405519D01*
X81870740Y-113399000D01*
X81959260Y-113399000D01*
X82025443Y-113405519D01*
X82025443Y-113405519D01*
G37*
G36*
X102401823Y-113461313D02*
G01*
X102562242Y-113509976D01*
X102631922Y-113547221D01*
X102710078Y-113588996D01*
X102839659Y-113695341D01*
X102946004Y-113824922D01*
X102946005Y-113824924D01*
X103025024Y-113972758D01*
X103073687Y-114133177D01*
X103090117Y-114300000D01*
X103073687Y-114466823D01*
X103025024Y-114627242D01*
X103014747Y-114646468D01*
X102946004Y-114775078D01*
X102839659Y-114904659D01*
X102710078Y-115011004D01*
X102710076Y-115011005D01*
X102562242Y-115090024D01*
X102401823Y-115138687D01*
X102276804Y-115151000D01*
X102193196Y-115151000D01*
X102068177Y-115138687D01*
X101907758Y-115090024D01*
X101759924Y-115011005D01*
X101759922Y-115011004D01*
X101630341Y-114904659D01*
X101523996Y-114775078D01*
X101455253Y-114646468D01*
X101444976Y-114627242D01*
X101396313Y-114466823D01*
X101379883Y-114300000D01*
X101396313Y-114133177D01*
X101444976Y-113972758D01*
X101523995Y-113824924D01*
X101523996Y-113824922D01*
X101630341Y-113695341D01*
X101759922Y-113588996D01*
X101838078Y-113547221D01*
X101907758Y-113509976D01*
X102068177Y-113461313D01*
X102193196Y-113449000D01*
X102276804Y-113449000D01*
X102401823Y-113461313D01*
X102401823Y-113461313D01*
G37*
G36*
X87161823Y-113461313D02*
G01*
X87322242Y-113509976D01*
X87391922Y-113547221D01*
X87470078Y-113588996D01*
X87599659Y-113695341D01*
X87706004Y-113824922D01*
X87706005Y-113824924D01*
X87785024Y-113972758D01*
X87833687Y-114133177D01*
X87850117Y-114300000D01*
X87833687Y-114466823D01*
X87785024Y-114627242D01*
X87774747Y-114646468D01*
X87706004Y-114775078D01*
X87599659Y-114904659D01*
X87470078Y-115011004D01*
X87470076Y-115011005D01*
X87322242Y-115090024D01*
X87161823Y-115138687D01*
X87036804Y-115151000D01*
X86953196Y-115151000D01*
X86828177Y-115138687D01*
X86667758Y-115090024D01*
X86519924Y-115011005D01*
X86519922Y-115011004D01*
X86390341Y-114904659D01*
X86283996Y-114775078D01*
X86215253Y-114646468D01*
X86204976Y-114627242D01*
X86156313Y-114466823D01*
X86139883Y-114300000D01*
X86156313Y-114133177D01*
X86204976Y-113972758D01*
X86283995Y-113824924D01*
X86283996Y-113824922D01*
X86390341Y-113695341D01*
X86519922Y-113588996D01*
X86598078Y-113547221D01*
X86667758Y-113509976D01*
X86828177Y-113461313D01*
X86953196Y-113449000D01*
X87036804Y-113449000D01*
X87161823Y-113461313D01*
X87161823Y-113461313D01*
G37*
G36*
X78371000Y-114566000D02*
G01*
X76569000Y-114566000D01*
X76569000Y-112764000D01*
X78371000Y-112764000D01*
X78371000Y-114566000D01*
X78371000Y-114566000D01*
G37*
G36*
X75040442Y-112770518D02*
G01*
X75106627Y-112777037D01*
X75276466Y-112828557D01*
X75432991Y-112912222D01*
X75468729Y-112941552D01*
X75570186Y-113024814D01*
X75653448Y-113126271D01*
X75682778Y-113162009D01*
X75766443Y-113318534D01*
X75817963Y-113488373D01*
X75835359Y-113665000D01*
X75817963Y-113841627D01*
X75766443Y-114011466D01*
X75682778Y-114167991D01*
X75653448Y-114203729D01*
X75570186Y-114305186D01*
X75468729Y-114388448D01*
X75432991Y-114417778D01*
X75276466Y-114501443D01*
X75106627Y-114552963D01*
X75040442Y-114559482D01*
X74974260Y-114566000D01*
X74885740Y-114566000D01*
X74819558Y-114559482D01*
X74753373Y-114552963D01*
X74583534Y-114501443D01*
X74427009Y-114417778D01*
X74391271Y-114388448D01*
X74289814Y-114305186D01*
X74206552Y-114203729D01*
X74177222Y-114167991D01*
X74093557Y-114011466D01*
X74042037Y-113841627D01*
X74024641Y-113665000D01*
X74042037Y-113488373D01*
X74093557Y-113318534D01*
X74177222Y-113162009D01*
X74206552Y-113126271D01*
X74289814Y-113024814D01*
X74391271Y-112941552D01*
X74427009Y-112912222D01*
X74583534Y-112828557D01*
X74753373Y-112777037D01*
X74819558Y-112770518D01*
X74885740Y-112764000D01*
X74974260Y-112764000D01*
X75040442Y-112770518D01*
X75040442Y-112770518D01*
G37*
G36*
X107425442Y-110865518D02*
G01*
X107491627Y-110872037D01*
X107661466Y-110923557D01*
X107817991Y-111007222D01*
X107853729Y-111036552D01*
X107955186Y-111119814D01*
X108038448Y-111221271D01*
X108067778Y-111257009D01*
X108151443Y-111413534D01*
X108202963Y-111583373D01*
X108220359Y-111760000D01*
X108202963Y-111936627D01*
X108151443Y-112106466D01*
X108067778Y-112262991D01*
X108038448Y-112298729D01*
X107955186Y-112400186D01*
X107853729Y-112483448D01*
X107817991Y-112512778D01*
X107661466Y-112596443D01*
X107491627Y-112647963D01*
X107425442Y-112654482D01*
X107359260Y-112661000D01*
X107270740Y-112661000D01*
X107204558Y-112654482D01*
X107138373Y-112647963D01*
X106968534Y-112596443D01*
X106812009Y-112512778D01*
X106776271Y-112483448D01*
X106674814Y-112400186D01*
X106591552Y-112298729D01*
X106562222Y-112262991D01*
X106478557Y-112106466D01*
X106427037Y-111936627D01*
X106409641Y-111760000D01*
X106427037Y-111583373D01*
X106478557Y-111413534D01*
X106562222Y-111257009D01*
X106591552Y-111221271D01*
X106674814Y-111119814D01*
X106776271Y-111036552D01*
X106812009Y-111007222D01*
X106968534Y-110923557D01*
X107138373Y-110872037D01*
X107204558Y-110865518D01*
X107270740Y-110859000D01*
X107359260Y-110859000D01*
X107425442Y-110865518D01*
X107425442Y-110865518D01*
G37*
G36*
X111235442Y-110865518D02*
G01*
X111301627Y-110872037D01*
X111471466Y-110923557D01*
X111627991Y-111007222D01*
X111663729Y-111036552D01*
X111765186Y-111119814D01*
X111848448Y-111221271D01*
X111877778Y-111257009D01*
X111961443Y-111413534D01*
X112012963Y-111583373D01*
X112030359Y-111760000D01*
X112012963Y-111936627D01*
X111961443Y-112106466D01*
X111877778Y-112262991D01*
X111848448Y-112298729D01*
X111765186Y-112400186D01*
X111663729Y-112483448D01*
X111627991Y-112512778D01*
X111471466Y-112596443D01*
X111301627Y-112647963D01*
X111235442Y-112654482D01*
X111169260Y-112661000D01*
X111080740Y-112661000D01*
X111014558Y-112654482D01*
X110948373Y-112647963D01*
X110778534Y-112596443D01*
X110622009Y-112512778D01*
X110586271Y-112483448D01*
X110484814Y-112400186D01*
X110401552Y-112298729D01*
X110372222Y-112262991D01*
X110288557Y-112106466D01*
X110237037Y-111936627D01*
X110219641Y-111760000D01*
X110237037Y-111583373D01*
X110288557Y-111413534D01*
X110372222Y-111257009D01*
X110401552Y-111221271D01*
X110484814Y-111119814D01*
X110586271Y-111036552D01*
X110622009Y-111007222D01*
X110778534Y-110923557D01*
X110948373Y-110872037D01*
X111014558Y-110865518D01*
X111080740Y-110859000D01*
X111169260Y-110859000D01*
X111235442Y-110865518D01*
X111235442Y-110865518D01*
G37*
G36*
X113775442Y-110865518D02*
G01*
X113841627Y-110872037D01*
X114011466Y-110923557D01*
X114167991Y-111007222D01*
X114203729Y-111036552D01*
X114305186Y-111119814D01*
X114388448Y-111221271D01*
X114417778Y-111257009D01*
X114501443Y-111413534D01*
X114552963Y-111583373D01*
X114570359Y-111760000D01*
X114552963Y-111936627D01*
X114501443Y-112106466D01*
X114417778Y-112262991D01*
X114388448Y-112298729D01*
X114305186Y-112400186D01*
X114203729Y-112483448D01*
X114167991Y-112512778D01*
X114011466Y-112596443D01*
X113841627Y-112647963D01*
X113775442Y-112654482D01*
X113709260Y-112661000D01*
X113620740Y-112661000D01*
X113554558Y-112654482D01*
X113488373Y-112647963D01*
X113318534Y-112596443D01*
X113162009Y-112512778D01*
X113126271Y-112483448D01*
X113024814Y-112400186D01*
X112941552Y-112298729D01*
X112912222Y-112262991D01*
X112828557Y-112106466D01*
X112777037Y-111936627D01*
X112759641Y-111760000D01*
X112777037Y-111583373D01*
X112828557Y-111413534D01*
X112912222Y-111257009D01*
X112941552Y-111221271D01*
X113024814Y-111119814D01*
X113126271Y-111036552D01*
X113162009Y-111007222D01*
X113318534Y-110923557D01*
X113488373Y-110872037D01*
X113554558Y-110865518D01*
X113620740Y-110859000D01*
X113709260Y-110859000D01*
X113775442Y-110865518D01*
X113775442Y-110865518D01*
G37*
G36*
X82025442Y-110865518D02*
G01*
X82091627Y-110872037D01*
X82261466Y-110923557D01*
X82417991Y-111007222D01*
X82453729Y-111036552D01*
X82555186Y-111119814D01*
X82638448Y-111221271D01*
X82667778Y-111257009D01*
X82751443Y-111413534D01*
X82802963Y-111583373D01*
X82820359Y-111760000D01*
X82802963Y-111936627D01*
X82751443Y-112106466D01*
X82667778Y-112262991D01*
X82638448Y-112298729D01*
X82555186Y-112400186D01*
X82453729Y-112483448D01*
X82417991Y-112512778D01*
X82261466Y-112596443D01*
X82091627Y-112647963D01*
X82025442Y-112654482D01*
X81959260Y-112661000D01*
X81870740Y-112661000D01*
X81804558Y-112654482D01*
X81738373Y-112647963D01*
X81568534Y-112596443D01*
X81412009Y-112512778D01*
X81376271Y-112483448D01*
X81274814Y-112400186D01*
X81191552Y-112298729D01*
X81162222Y-112262991D01*
X81078557Y-112106466D01*
X81027037Y-111936627D01*
X81009641Y-111760000D01*
X81027037Y-111583373D01*
X81078557Y-111413534D01*
X81162222Y-111257009D01*
X81191552Y-111221271D01*
X81274814Y-111119814D01*
X81376271Y-111036552D01*
X81412009Y-111007222D01*
X81568534Y-110923557D01*
X81738373Y-110872037D01*
X81804558Y-110865518D01*
X81870740Y-110859000D01*
X81959260Y-110859000D01*
X82025442Y-110865518D01*
X82025442Y-110865518D01*
G37*
G36*
X102401823Y-110921313D02*
G01*
X102562242Y-110969976D01*
X102631922Y-111007221D01*
X102710078Y-111048996D01*
X102839659Y-111155341D01*
X102946004Y-111284922D01*
X102946005Y-111284924D01*
X103025024Y-111432758D01*
X103073687Y-111593177D01*
X103090117Y-111760000D01*
X103073687Y-111926823D01*
X103025024Y-112087242D01*
X103014747Y-112106468D01*
X102946004Y-112235078D01*
X102839659Y-112364659D01*
X102710078Y-112471004D01*
X102710076Y-112471005D01*
X102562242Y-112550024D01*
X102401823Y-112598687D01*
X102276804Y-112611000D01*
X102193196Y-112611000D01*
X102068177Y-112598687D01*
X101907758Y-112550024D01*
X101759924Y-112471005D01*
X101759922Y-112471004D01*
X101630341Y-112364659D01*
X101523996Y-112235078D01*
X101455253Y-112106468D01*
X101444976Y-112087242D01*
X101396313Y-111926823D01*
X101379883Y-111760000D01*
X101396313Y-111593177D01*
X101444976Y-111432758D01*
X101523995Y-111284924D01*
X101523996Y-111284922D01*
X101630341Y-111155341D01*
X101759922Y-111048996D01*
X101838078Y-111007221D01*
X101907758Y-110969976D01*
X102068177Y-110921313D01*
X102193196Y-110909000D01*
X102276804Y-110909000D01*
X102401823Y-110921313D01*
X102401823Y-110921313D01*
G37*
G36*
X87161823Y-110921313D02*
G01*
X87322242Y-110969976D01*
X87391922Y-111007221D01*
X87470078Y-111048996D01*
X87599659Y-111155341D01*
X87706004Y-111284922D01*
X87706005Y-111284924D01*
X87785024Y-111432758D01*
X87833687Y-111593177D01*
X87850117Y-111760000D01*
X87833687Y-111926823D01*
X87785024Y-112087242D01*
X87774747Y-112106468D01*
X87706004Y-112235078D01*
X87599659Y-112364659D01*
X87470078Y-112471004D01*
X87470076Y-112471005D01*
X87322242Y-112550024D01*
X87161823Y-112598687D01*
X87036804Y-112611000D01*
X86953196Y-112611000D01*
X86828177Y-112598687D01*
X86667758Y-112550024D01*
X86519924Y-112471005D01*
X86519922Y-112471004D01*
X86390341Y-112364659D01*
X86283996Y-112235078D01*
X86215253Y-112106468D01*
X86204976Y-112087242D01*
X86156313Y-111926823D01*
X86139883Y-111760000D01*
X86156313Y-111593177D01*
X86204976Y-111432758D01*
X86283995Y-111284924D01*
X86283996Y-111284922D01*
X86390341Y-111155341D01*
X86519922Y-111048996D01*
X86598078Y-111007221D01*
X86667758Y-110969976D01*
X86828177Y-110921313D01*
X86953196Y-110909000D01*
X87036804Y-110909000D01*
X87161823Y-110921313D01*
X87161823Y-110921313D01*
G37*
G36*
X112026000Y-110121000D02*
G01*
X110224000Y-110121000D01*
X110224000Y-108319000D01*
X112026000Y-108319000D01*
X112026000Y-110121000D01*
X112026000Y-110121000D01*
G37*
G36*
X107425443Y-108325519D02*
G01*
X107491627Y-108332037D01*
X107661466Y-108383557D01*
X107817991Y-108467222D01*
X107853729Y-108496552D01*
X107955186Y-108579814D01*
X108038448Y-108681271D01*
X108067778Y-108717009D01*
X108151443Y-108873534D01*
X108202963Y-109043373D01*
X108220359Y-109220000D01*
X108202963Y-109396627D01*
X108151443Y-109566466D01*
X108067778Y-109722991D01*
X108038448Y-109758729D01*
X107955186Y-109860186D01*
X107853729Y-109943448D01*
X107817991Y-109972778D01*
X107661466Y-110056443D01*
X107491627Y-110107963D01*
X107425443Y-110114481D01*
X107359260Y-110121000D01*
X107270740Y-110121000D01*
X107204557Y-110114481D01*
X107138373Y-110107963D01*
X106968534Y-110056443D01*
X106812009Y-109972778D01*
X106776271Y-109943448D01*
X106674814Y-109860186D01*
X106591552Y-109758729D01*
X106562222Y-109722991D01*
X106478557Y-109566466D01*
X106427037Y-109396627D01*
X106409641Y-109220000D01*
X106427037Y-109043373D01*
X106478557Y-108873534D01*
X106562222Y-108717009D01*
X106591552Y-108681271D01*
X106674814Y-108579814D01*
X106776271Y-108496552D01*
X106812009Y-108467222D01*
X106968534Y-108383557D01*
X107138373Y-108332037D01*
X107204557Y-108325519D01*
X107270740Y-108319000D01*
X107359260Y-108319000D01*
X107425443Y-108325519D01*
X107425443Y-108325519D01*
G37*
G36*
X82025443Y-108325519D02*
G01*
X82091627Y-108332037D01*
X82261466Y-108383557D01*
X82417991Y-108467222D01*
X82453729Y-108496552D01*
X82555186Y-108579814D01*
X82638448Y-108681271D01*
X82667778Y-108717009D01*
X82751443Y-108873534D01*
X82802963Y-109043373D01*
X82820359Y-109220000D01*
X82802963Y-109396627D01*
X82751443Y-109566466D01*
X82667778Y-109722991D01*
X82638448Y-109758729D01*
X82555186Y-109860186D01*
X82453729Y-109943448D01*
X82417991Y-109972778D01*
X82261466Y-110056443D01*
X82091627Y-110107963D01*
X82025443Y-110114481D01*
X81959260Y-110121000D01*
X81870740Y-110121000D01*
X81804557Y-110114481D01*
X81738373Y-110107963D01*
X81568534Y-110056443D01*
X81412009Y-109972778D01*
X81376271Y-109943448D01*
X81274814Y-109860186D01*
X81191552Y-109758729D01*
X81162222Y-109722991D01*
X81078557Y-109566466D01*
X81027037Y-109396627D01*
X81009641Y-109220000D01*
X81027037Y-109043373D01*
X81078557Y-108873534D01*
X81162222Y-108717009D01*
X81191552Y-108681271D01*
X81274814Y-108579814D01*
X81376271Y-108496552D01*
X81412009Y-108467222D01*
X81568534Y-108383557D01*
X81738373Y-108332037D01*
X81804557Y-108325519D01*
X81870740Y-108319000D01*
X81959260Y-108319000D01*
X82025443Y-108325519D01*
X82025443Y-108325519D01*
G37*
G36*
X113775443Y-108325519D02*
G01*
X113841627Y-108332037D01*
X114011466Y-108383557D01*
X114167991Y-108467222D01*
X114203729Y-108496552D01*
X114305186Y-108579814D01*
X114388448Y-108681271D01*
X114417778Y-108717009D01*
X114501443Y-108873534D01*
X114552963Y-109043373D01*
X114570359Y-109220000D01*
X114552963Y-109396627D01*
X114501443Y-109566466D01*
X114417778Y-109722991D01*
X114388448Y-109758729D01*
X114305186Y-109860186D01*
X114203729Y-109943448D01*
X114167991Y-109972778D01*
X114011466Y-110056443D01*
X113841627Y-110107963D01*
X113775443Y-110114481D01*
X113709260Y-110121000D01*
X113620740Y-110121000D01*
X113554557Y-110114481D01*
X113488373Y-110107963D01*
X113318534Y-110056443D01*
X113162009Y-109972778D01*
X113126271Y-109943448D01*
X113024814Y-109860186D01*
X112941552Y-109758729D01*
X112912222Y-109722991D01*
X112828557Y-109566466D01*
X112777037Y-109396627D01*
X112759641Y-109220000D01*
X112777037Y-109043373D01*
X112828557Y-108873534D01*
X112912222Y-108717009D01*
X112941552Y-108681271D01*
X113024814Y-108579814D01*
X113126271Y-108496552D01*
X113162009Y-108467222D01*
X113318534Y-108383557D01*
X113488373Y-108332037D01*
X113554557Y-108325519D01*
X113620740Y-108319000D01*
X113709260Y-108319000D01*
X113775443Y-108325519D01*
X113775443Y-108325519D01*
G37*
G36*
X102401823Y-108381313D02*
G01*
X102562242Y-108429976D01*
X102631922Y-108467221D01*
X102710078Y-108508996D01*
X102839659Y-108615341D01*
X102946004Y-108744922D01*
X102946005Y-108744924D01*
X103025024Y-108892758D01*
X103073687Y-109053177D01*
X103090117Y-109220000D01*
X103073687Y-109386823D01*
X103025024Y-109547242D01*
X103014747Y-109566468D01*
X102946004Y-109695078D01*
X102839659Y-109824659D01*
X102710078Y-109931004D01*
X102710076Y-109931005D01*
X102562242Y-110010024D01*
X102401823Y-110058687D01*
X102276804Y-110071000D01*
X102193196Y-110071000D01*
X102068177Y-110058687D01*
X101907758Y-110010024D01*
X101759924Y-109931005D01*
X101759922Y-109931004D01*
X101630341Y-109824659D01*
X101523996Y-109695078D01*
X101455253Y-109566468D01*
X101444976Y-109547242D01*
X101396313Y-109386823D01*
X101379883Y-109220000D01*
X101396313Y-109053177D01*
X101444976Y-108892758D01*
X101523995Y-108744924D01*
X101523996Y-108744922D01*
X101630341Y-108615341D01*
X101759922Y-108508996D01*
X101838078Y-108467221D01*
X101907758Y-108429976D01*
X102068177Y-108381313D01*
X102193196Y-108369000D01*
X102276804Y-108369000D01*
X102401823Y-108381313D01*
X102401823Y-108381313D01*
G37*
G36*
X87161823Y-108381313D02*
G01*
X87322242Y-108429976D01*
X87391922Y-108467221D01*
X87470078Y-108508996D01*
X87599659Y-108615341D01*
X87706004Y-108744922D01*
X87706005Y-108744924D01*
X87785024Y-108892758D01*
X87833687Y-109053177D01*
X87850117Y-109220000D01*
X87833687Y-109386823D01*
X87785024Y-109547242D01*
X87774747Y-109566468D01*
X87706004Y-109695078D01*
X87599659Y-109824659D01*
X87470078Y-109931004D01*
X87470076Y-109931005D01*
X87322242Y-110010024D01*
X87161823Y-110058687D01*
X87036804Y-110071000D01*
X86953196Y-110071000D01*
X86828177Y-110058687D01*
X86667758Y-110010024D01*
X86519924Y-109931005D01*
X86519922Y-109931004D01*
X86390341Y-109824659D01*
X86283996Y-109695078D01*
X86215253Y-109566468D01*
X86204976Y-109547242D01*
X86156313Y-109386823D01*
X86139883Y-109220000D01*
X86156313Y-109053177D01*
X86204976Y-108892758D01*
X86283995Y-108744924D01*
X86283996Y-108744922D01*
X86390341Y-108615341D01*
X86519922Y-108508996D01*
X86598078Y-108467221D01*
X86667758Y-108429976D01*
X86828177Y-108381313D01*
X86953196Y-108369000D01*
X87036804Y-108369000D01*
X87161823Y-108381313D01*
X87161823Y-108381313D01*
G37*
G36*
X107425443Y-105785519D02*
G01*
X107491627Y-105792037D01*
X107661466Y-105843557D01*
X107817991Y-105927222D01*
X107853729Y-105956552D01*
X107955186Y-106039814D01*
X108038448Y-106141271D01*
X108067778Y-106177009D01*
X108151443Y-106333534D01*
X108202963Y-106503373D01*
X108220359Y-106680000D01*
X108202963Y-106856627D01*
X108151443Y-107026466D01*
X108067778Y-107182991D01*
X108038448Y-107218729D01*
X107955186Y-107320186D01*
X107853729Y-107403448D01*
X107817991Y-107432778D01*
X107661466Y-107516443D01*
X107491627Y-107567963D01*
X107425443Y-107574481D01*
X107359260Y-107581000D01*
X107270740Y-107581000D01*
X107204557Y-107574481D01*
X107138373Y-107567963D01*
X106968534Y-107516443D01*
X106812009Y-107432778D01*
X106776271Y-107403448D01*
X106674814Y-107320186D01*
X106591552Y-107218729D01*
X106562222Y-107182991D01*
X106478557Y-107026466D01*
X106427037Y-106856627D01*
X106409641Y-106680000D01*
X106427037Y-106503373D01*
X106478557Y-106333534D01*
X106562222Y-106177009D01*
X106591552Y-106141271D01*
X106674814Y-106039814D01*
X106776271Y-105956552D01*
X106812009Y-105927222D01*
X106968534Y-105843557D01*
X107138373Y-105792037D01*
X107204557Y-105785519D01*
X107270740Y-105779000D01*
X107359260Y-105779000D01*
X107425443Y-105785519D01*
X107425443Y-105785519D01*
G37*
G36*
X82025443Y-105785519D02*
G01*
X82091627Y-105792037D01*
X82261466Y-105843557D01*
X82417991Y-105927222D01*
X82453729Y-105956552D01*
X82555186Y-106039814D01*
X82638448Y-106141271D01*
X82667778Y-106177009D01*
X82751443Y-106333534D01*
X82802963Y-106503373D01*
X82820359Y-106680000D01*
X82802963Y-106856627D01*
X82751443Y-107026466D01*
X82667778Y-107182991D01*
X82638448Y-107218729D01*
X82555186Y-107320186D01*
X82453729Y-107403448D01*
X82417991Y-107432778D01*
X82261466Y-107516443D01*
X82091627Y-107567963D01*
X82025443Y-107574481D01*
X81959260Y-107581000D01*
X81870740Y-107581000D01*
X81804557Y-107574481D01*
X81738373Y-107567963D01*
X81568534Y-107516443D01*
X81412009Y-107432778D01*
X81376271Y-107403448D01*
X81274814Y-107320186D01*
X81191552Y-107218729D01*
X81162222Y-107182991D01*
X81078557Y-107026466D01*
X81027037Y-106856627D01*
X81009641Y-106680000D01*
X81027037Y-106503373D01*
X81078557Y-106333534D01*
X81162222Y-106177009D01*
X81191552Y-106141271D01*
X81274814Y-106039814D01*
X81376271Y-105956552D01*
X81412009Y-105927222D01*
X81568534Y-105843557D01*
X81738373Y-105792037D01*
X81804557Y-105785519D01*
X81870740Y-105779000D01*
X81959260Y-105779000D01*
X82025443Y-105785519D01*
X82025443Y-105785519D01*
G37*
G36*
X87161823Y-105841313D02*
G01*
X87322242Y-105889976D01*
X87391922Y-105927221D01*
X87470078Y-105968996D01*
X87599659Y-106075341D01*
X87706004Y-106204922D01*
X87706005Y-106204924D01*
X87785024Y-106352758D01*
X87833687Y-106513177D01*
X87850117Y-106680000D01*
X87833687Y-106846823D01*
X87785024Y-107007242D01*
X87774747Y-107026468D01*
X87706004Y-107155078D01*
X87599659Y-107284659D01*
X87470078Y-107391004D01*
X87470076Y-107391005D01*
X87322242Y-107470024D01*
X87161823Y-107518687D01*
X87036804Y-107531000D01*
X86953196Y-107531000D01*
X86828177Y-107518687D01*
X86667758Y-107470024D01*
X86519924Y-107391005D01*
X86519922Y-107391004D01*
X86390341Y-107284659D01*
X86283996Y-107155078D01*
X86215253Y-107026468D01*
X86204976Y-107007242D01*
X86156313Y-106846823D01*
X86139883Y-106680000D01*
X86156313Y-106513177D01*
X86204976Y-106352758D01*
X86283995Y-106204924D01*
X86283996Y-106204922D01*
X86390341Y-106075341D01*
X86519922Y-105968996D01*
X86598078Y-105927221D01*
X86667758Y-105889976D01*
X86828177Y-105841313D01*
X86953196Y-105829000D01*
X87036804Y-105829000D01*
X87161823Y-105841313D01*
X87161823Y-105841313D01*
G37*
G36*
X102401823Y-105841313D02*
G01*
X102562242Y-105889976D01*
X102631922Y-105927221D01*
X102710078Y-105968996D01*
X102839659Y-106075341D01*
X102946004Y-106204922D01*
X102946005Y-106204924D01*
X103025024Y-106352758D01*
X103073687Y-106513177D01*
X103090117Y-106680000D01*
X103073687Y-106846823D01*
X103025024Y-107007242D01*
X103014747Y-107026468D01*
X102946004Y-107155078D01*
X102839659Y-107284659D01*
X102710078Y-107391004D01*
X102710076Y-107391005D01*
X102562242Y-107470024D01*
X102401823Y-107518687D01*
X102276804Y-107531000D01*
X102193196Y-107531000D01*
X102068177Y-107518687D01*
X101907758Y-107470024D01*
X101759924Y-107391005D01*
X101759922Y-107391004D01*
X101630341Y-107284659D01*
X101523996Y-107155078D01*
X101455253Y-107026468D01*
X101444976Y-107007242D01*
X101396313Y-106846823D01*
X101379883Y-106680000D01*
X101396313Y-106513177D01*
X101444976Y-106352758D01*
X101523995Y-106204924D01*
X101523996Y-106204922D01*
X101630341Y-106075341D01*
X101759922Y-105968996D01*
X101838078Y-105927221D01*
X101907758Y-105889976D01*
X102068177Y-105841313D01*
X102193196Y-105829000D01*
X102276804Y-105829000D01*
X102401823Y-105841313D01*
X102401823Y-105841313D01*
G37*
G36*
X82025443Y-103245519D02*
G01*
X82091627Y-103252037D01*
X82261466Y-103303557D01*
X82417991Y-103387222D01*
X82453729Y-103416552D01*
X82555186Y-103499814D01*
X82638448Y-103601271D01*
X82667778Y-103637009D01*
X82751443Y-103793534D01*
X82802963Y-103963373D01*
X82820359Y-104140000D01*
X82802963Y-104316627D01*
X82751443Y-104486466D01*
X82667778Y-104642991D01*
X82638448Y-104678729D01*
X82555186Y-104780186D01*
X82453729Y-104863448D01*
X82417991Y-104892778D01*
X82261466Y-104976443D01*
X82091627Y-105027963D01*
X82025442Y-105034482D01*
X81959260Y-105041000D01*
X81870740Y-105041000D01*
X81804557Y-105034481D01*
X81738373Y-105027963D01*
X81568534Y-104976443D01*
X81412009Y-104892778D01*
X81376271Y-104863448D01*
X81274814Y-104780186D01*
X81191552Y-104678729D01*
X81162222Y-104642991D01*
X81078557Y-104486466D01*
X81027037Y-104316627D01*
X81009641Y-104140000D01*
X81027037Y-103963373D01*
X81078557Y-103793534D01*
X81162222Y-103637009D01*
X81191552Y-103601271D01*
X81274814Y-103499814D01*
X81376271Y-103416552D01*
X81412009Y-103387222D01*
X81568534Y-103303557D01*
X81738373Y-103252037D01*
X81804558Y-103245518D01*
X81870740Y-103239000D01*
X81959260Y-103239000D01*
X82025443Y-103245519D01*
X82025443Y-103245519D01*
G37*
G36*
X107425443Y-103245519D02*
G01*
X107491627Y-103252037D01*
X107661466Y-103303557D01*
X107817991Y-103387222D01*
X107853729Y-103416552D01*
X107955186Y-103499814D01*
X108038448Y-103601271D01*
X108067778Y-103637009D01*
X108151443Y-103793534D01*
X108202963Y-103963373D01*
X108220359Y-104140000D01*
X108202963Y-104316627D01*
X108151443Y-104486466D01*
X108067778Y-104642991D01*
X108038448Y-104678729D01*
X107955186Y-104780186D01*
X107853729Y-104863448D01*
X107817991Y-104892778D01*
X107661466Y-104976443D01*
X107491627Y-105027963D01*
X107425442Y-105034482D01*
X107359260Y-105041000D01*
X107270740Y-105041000D01*
X107204557Y-105034481D01*
X107138373Y-105027963D01*
X106968534Y-104976443D01*
X106812009Y-104892778D01*
X106776271Y-104863448D01*
X106674814Y-104780186D01*
X106591552Y-104678729D01*
X106562222Y-104642991D01*
X106478557Y-104486466D01*
X106427037Y-104316627D01*
X106409641Y-104140000D01*
X106427037Y-103963373D01*
X106478557Y-103793534D01*
X106562222Y-103637009D01*
X106591552Y-103601271D01*
X106674814Y-103499814D01*
X106776271Y-103416552D01*
X106812009Y-103387222D01*
X106968534Y-103303557D01*
X107138373Y-103252037D01*
X107204558Y-103245518D01*
X107270740Y-103239000D01*
X107359260Y-103239000D01*
X107425443Y-103245519D01*
X107425443Y-103245519D01*
G37*
G36*
X87161823Y-103301313D02*
G01*
X87322242Y-103349976D01*
X87391922Y-103387221D01*
X87470078Y-103428996D01*
X87599659Y-103535341D01*
X87706004Y-103664922D01*
X87706005Y-103664924D01*
X87785024Y-103812758D01*
X87833687Y-103973177D01*
X87850117Y-104140000D01*
X87833687Y-104306823D01*
X87785024Y-104467242D01*
X87774747Y-104486468D01*
X87706004Y-104615078D01*
X87599659Y-104744659D01*
X87470078Y-104851004D01*
X87470076Y-104851005D01*
X87322242Y-104930024D01*
X87161823Y-104978687D01*
X87036804Y-104991000D01*
X86953196Y-104991000D01*
X86828177Y-104978687D01*
X86667758Y-104930024D01*
X86519924Y-104851005D01*
X86519922Y-104851004D01*
X86390341Y-104744659D01*
X86283996Y-104615078D01*
X86215253Y-104486468D01*
X86204976Y-104467242D01*
X86156313Y-104306823D01*
X86139883Y-104140000D01*
X86156313Y-103973177D01*
X86204976Y-103812758D01*
X86283995Y-103664924D01*
X86283996Y-103664922D01*
X86390341Y-103535341D01*
X86519922Y-103428996D01*
X86598078Y-103387221D01*
X86667758Y-103349976D01*
X86828177Y-103301313D01*
X86953196Y-103289000D01*
X87036804Y-103289000D01*
X87161823Y-103301313D01*
X87161823Y-103301313D01*
G37*
G36*
X102401823Y-103301313D02*
G01*
X102562242Y-103349976D01*
X102631922Y-103387221D01*
X102710078Y-103428996D01*
X102839659Y-103535341D01*
X102946004Y-103664922D01*
X102946005Y-103664924D01*
X103025024Y-103812758D01*
X103073687Y-103973177D01*
X103090117Y-104140000D01*
X103073687Y-104306823D01*
X103025024Y-104467242D01*
X103014747Y-104486468D01*
X102946004Y-104615078D01*
X102839659Y-104744659D01*
X102710078Y-104851004D01*
X102710076Y-104851005D01*
X102562242Y-104930024D01*
X102401823Y-104978687D01*
X102276804Y-104991000D01*
X102193196Y-104991000D01*
X102068177Y-104978687D01*
X101907758Y-104930024D01*
X101759924Y-104851005D01*
X101759922Y-104851004D01*
X101630341Y-104744659D01*
X101523996Y-104615078D01*
X101455253Y-104486468D01*
X101444976Y-104467242D01*
X101396313Y-104306823D01*
X101379883Y-104140000D01*
X101396313Y-103973177D01*
X101444976Y-103812758D01*
X101523995Y-103664924D01*
X101523996Y-103664922D01*
X101630341Y-103535341D01*
X101759922Y-103428996D01*
X101838078Y-103387221D01*
X101907758Y-103349976D01*
X102068177Y-103301313D01*
X102193196Y-103289000D01*
X102276804Y-103289000D01*
X102401823Y-103301313D01*
X102401823Y-103301313D01*
G37*
G36*
X76945442Y-101340518D02*
G01*
X77011627Y-101347037D01*
X77181466Y-101398557D01*
X77337991Y-101482222D01*
X77373729Y-101511552D01*
X77475186Y-101594814D01*
X77558448Y-101696271D01*
X77587778Y-101732009D01*
X77671443Y-101888534D01*
X77722963Y-102058373D01*
X77740359Y-102235000D01*
X77722963Y-102411627D01*
X77671443Y-102581466D01*
X77587778Y-102737991D01*
X77558448Y-102773729D01*
X77475186Y-102875186D01*
X77373729Y-102958448D01*
X77337991Y-102987778D01*
X77181466Y-103071443D01*
X77011627Y-103122963D01*
X76945442Y-103129482D01*
X76879260Y-103136000D01*
X76790740Y-103136000D01*
X76724558Y-103129482D01*
X76658373Y-103122963D01*
X76488534Y-103071443D01*
X76332009Y-102987778D01*
X76296271Y-102958448D01*
X76194814Y-102875186D01*
X76111552Y-102773729D01*
X76082222Y-102737991D01*
X75998557Y-102581466D01*
X75947037Y-102411627D01*
X75929641Y-102235000D01*
X75947037Y-102058373D01*
X75998557Y-101888534D01*
X76082222Y-101732009D01*
X76111552Y-101696271D01*
X76194814Y-101594814D01*
X76296271Y-101511552D01*
X76332009Y-101482222D01*
X76488534Y-101398557D01*
X76658373Y-101347037D01*
X76724558Y-101340518D01*
X76790740Y-101334000D01*
X76879260Y-101334000D01*
X76945442Y-101340518D01*
X76945442Y-101340518D01*
G37*
G36*
X82025443Y-100705519D02*
G01*
X82091627Y-100712037D01*
X82261466Y-100763557D01*
X82417991Y-100847222D01*
X82453729Y-100876552D01*
X82555186Y-100959814D01*
X82638448Y-101061271D01*
X82667778Y-101097009D01*
X82751443Y-101253534D01*
X82802963Y-101423373D01*
X82820359Y-101600000D01*
X82802963Y-101776627D01*
X82751443Y-101946466D01*
X82667778Y-102102991D01*
X82638448Y-102138729D01*
X82555186Y-102240186D01*
X82453729Y-102323448D01*
X82417991Y-102352778D01*
X82261466Y-102436443D01*
X82091627Y-102487963D01*
X82025442Y-102494482D01*
X81959260Y-102501000D01*
X81870740Y-102501000D01*
X81804558Y-102494482D01*
X81738373Y-102487963D01*
X81568534Y-102436443D01*
X81412009Y-102352778D01*
X81376271Y-102323448D01*
X81274814Y-102240186D01*
X81191552Y-102138729D01*
X81162222Y-102102991D01*
X81078557Y-101946466D01*
X81027037Y-101776627D01*
X81009641Y-101600000D01*
X81027037Y-101423373D01*
X81078557Y-101253534D01*
X81162222Y-101097009D01*
X81191552Y-101061271D01*
X81274814Y-100959814D01*
X81376271Y-100876552D01*
X81412009Y-100847222D01*
X81568534Y-100763557D01*
X81738373Y-100712037D01*
X81804557Y-100705519D01*
X81870740Y-100699000D01*
X81959260Y-100699000D01*
X82025443Y-100705519D01*
X82025443Y-100705519D01*
G37*
G36*
X107425443Y-100705519D02*
G01*
X107491627Y-100712037D01*
X107661466Y-100763557D01*
X107817991Y-100847222D01*
X107853729Y-100876552D01*
X107955186Y-100959814D01*
X108038448Y-101061271D01*
X108067778Y-101097009D01*
X108151443Y-101253534D01*
X108202963Y-101423373D01*
X108220359Y-101600000D01*
X108202963Y-101776627D01*
X108151443Y-101946466D01*
X108067778Y-102102991D01*
X108038448Y-102138729D01*
X107955186Y-102240186D01*
X107853729Y-102323448D01*
X107817991Y-102352778D01*
X107661466Y-102436443D01*
X107491627Y-102487963D01*
X107425442Y-102494482D01*
X107359260Y-102501000D01*
X107270740Y-102501000D01*
X107204558Y-102494482D01*
X107138373Y-102487963D01*
X106968534Y-102436443D01*
X106812009Y-102352778D01*
X106776271Y-102323448D01*
X106674814Y-102240186D01*
X106591552Y-102138729D01*
X106562222Y-102102991D01*
X106478557Y-101946466D01*
X106427037Y-101776627D01*
X106409641Y-101600000D01*
X106427037Y-101423373D01*
X106478557Y-101253534D01*
X106562222Y-101097009D01*
X106591552Y-101061271D01*
X106674814Y-100959814D01*
X106776271Y-100876552D01*
X106812009Y-100847222D01*
X106968534Y-100763557D01*
X107138373Y-100712037D01*
X107204557Y-100705519D01*
X107270740Y-100699000D01*
X107359260Y-100699000D01*
X107425443Y-100705519D01*
X107425443Y-100705519D01*
G37*
G36*
X87161823Y-100761313D02*
G01*
X87322242Y-100809976D01*
X87391922Y-100847221D01*
X87470078Y-100888996D01*
X87599659Y-100995341D01*
X87706004Y-101124922D01*
X87706005Y-101124924D01*
X87785024Y-101272758D01*
X87833687Y-101433177D01*
X87850117Y-101600000D01*
X87833687Y-101766823D01*
X87785024Y-101927242D01*
X87774747Y-101946468D01*
X87706004Y-102075078D01*
X87599659Y-102204659D01*
X87470078Y-102311004D01*
X87470076Y-102311005D01*
X87322242Y-102390024D01*
X87161823Y-102438687D01*
X87036804Y-102451000D01*
X86953196Y-102451000D01*
X86828177Y-102438687D01*
X86667758Y-102390024D01*
X86519924Y-102311005D01*
X86519922Y-102311004D01*
X86390341Y-102204659D01*
X86283996Y-102075078D01*
X86215253Y-101946468D01*
X86204976Y-101927242D01*
X86156313Y-101766823D01*
X86139883Y-101600000D01*
X86156313Y-101433177D01*
X86204976Y-101272758D01*
X86283995Y-101124924D01*
X86283996Y-101124922D01*
X86390341Y-100995341D01*
X86519922Y-100888996D01*
X86598078Y-100847221D01*
X86667758Y-100809976D01*
X86828177Y-100761313D01*
X86953196Y-100749000D01*
X87036804Y-100749000D01*
X87161823Y-100761313D01*
X87161823Y-100761313D01*
G37*
G36*
X102401823Y-100761313D02*
G01*
X102562242Y-100809976D01*
X102631922Y-100847221D01*
X102710078Y-100888996D01*
X102839659Y-100995341D01*
X102946004Y-101124922D01*
X102946005Y-101124924D01*
X103025024Y-101272758D01*
X103073687Y-101433177D01*
X103090117Y-101600000D01*
X103073687Y-101766823D01*
X103025024Y-101927242D01*
X103014747Y-101946468D01*
X102946004Y-102075078D01*
X102839659Y-102204659D01*
X102710078Y-102311004D01*
X102710076Y-102311005D01*
X102562242Y-102390024D01*
X102401823Y-102438687D01*
X102276804Y-102451000D01*
X102193196Y-102451000D01*
X102068177Y-102438687D01*
X101907758Y-102390024D01*
X101759924Y-102311005D01*
X101759922Y-102311004D01*
X101630341Y-102204659D01*
X101523996Y-102075078D01*
X101455253Y-101946468D01*
X101444976Y-101927242D01*
X101396313Y-101766823D01*
X101379883Y-101600000D01*
X101396313Y-101433177D01*
X101444976Y-101272758D01*
X101523995Y-101124924D01*
X101523996Y-101124922D01*
X101630341Y-100995341D01*
X101759922Y-100888996D01*
X101838078Y-100847221D01*
X101907758Y-100809976D01*
X102068177Y-100761313D01*
X102193196Y-100749000D01*
X102276804Y-100749000D01*
X102401823Y-100761313D01*
X102401823Y-100761313D01*
G37*
G36*
X76945443Y-98800519D02*
G01*
X77011627Y-98807037D01*
X77181466Y-98858557D01*
X77337991Y-98942222D01*
X77373729Y-98971552D01*
X77475186Y-99054814D01*
X77558448Y-99156271D01*
X77587778Y-99192009D01*
X77671443Y-99348534D01*
X77722963Y-99518373D01*
X77740359Y-99695000D01*
X77722963Y-99871627D01*
X77671443Y-100041466D01*
X77587778Y-100197991D01*
X77558448Y-100233729D01*
X77475186Y-100335186D01*
X77373729Y-100418448D01*
X77337991Y-100447778D01*
X77181466Y-100531443D01*
X77011627Y-100582963D01*
X76945443Y-100589481D01*
X76879260Y-100596000D01*
X76790740Y-100596000D01*
X76724557Y-100589481D01*
X76658373Y-100582963D01*
X76488534Y-100531443D01*
X76332009Y-100447778D01*
X76296271Y-100418448D01*
X76194814Y-100335186D01*
X76111552Y-100233729D01*
X76082222Y-100197991D01*
X75998557Y-100041466D01*
X75947037Y-99871627D01*
X75929641Y-99695000D01*
X75947037Y-99518373D01*
X75998557Y-99348534D01*
X76082222Y-99192009D01*
X76111552Y-99156271D01*
X76194814Y-99054814D01*
X76296271Y-98971552D01*
X76332009Y-98942222D01*
X76488534Y-98858557D01*
X76658373Y-98807037D01*
X76724557Y-98800519D01*
X76790740Y-98794000D01*
X76879260Y-98794000D01*
X76945443Y-98800519D01*
X76945443Y-98800519D01*
G37*
G36*
X82025443Y-98165519D02*
G01*
X82091627Y-98172037D01*
X82261466Y-98223557D01*
X82417991Y-98307222D01*
X82453729Y-98336552D01*
X82555186Y-98419814D01*
X82638448Y-98521271D01*
X82667778Y-98557009D01*
X82751443Y-98713534D01*
X82802963Y-98883373D01*
X82820359Y-99060000D01*
X82802963Y-99236627D01*
X82751443Y-99406466D01*
X82667778Y-99562991D01*
X82638448Y-99598729D01*
X82555186Y-99700186D01*
X82453729Y-99783448D01*
X82417991Y-99812778D01*
X82261466Y-99896443D01*
X82091627Y-99947963D01*
X82025443Y-99954481D01*
X81959260Y-99961000D01*
X81870740Y-99961000D01*
X81804557Y-99954481D01*
X81738373Y-99947963D01*
X81568534Y-99896443D01*
X81412009Y-99812778D01*
X81376271Y-99783448D01*
X81274814Y-99700186D01*
X81191552Y-99598729D01*
X81162222Y-99562991D01*
X81078557Y-99406466D01*
X81027037Y-99236627D01*
X81009641Y-99060000D01*
X81027037Y-98883373D01*
X81078557Y-98713534D01*
X81162222Y-98557009D01*
X81191552Y-98521271D01*
X81274814Y-98419814D01*
X81376271Y-98336552D01*
X81412009Y-98307222D01*
X81568534Y-98223557D01*
X81738373Y-98172037D01*
X81804557Y-98165519D01*
X81870740Y-98159000D01*
X81959260Y-98159000D01*
X82025443Y-98165519D01*
X82025443Y-98165519D01*
G37*
G36*
X107425443Y-98165519D02*
G01*
X107491627Y-98172037D01*
X107661466Y-98223557D01*
X107817991Y-98307222D01*
X107853729Y-98336552D01*
X107955186Y-98419814D01*
X108038448Y-98521271D01*
X108067778Y-98557009D01*
X108151443Y-98713534D01*
X108202963Y-98883373D01*
X108220359Y-99060000D01*
X108202963Y-99236627D01*
X108151443Y-99406466D01*
X108067778Y-99562991D01*
X108038448Y-99598729D01*
X107955186Y-99700186D01*
X107853729Y-99783448D01*
X107817991Y-99812778D01*
X107661466Y-99896443D01*
X107491627Y-99947963D01*
X107425443Y-99954481D01*
X107359260Y-99961000D01*
X107270740Y-99961000D01*
X107204557Y-99954481D01*
X107138373Y-99947963D01*
X106968534Y-99896443D01*
X106812009Y-99812778D01*
X106776271Y-99783448D01*
X106674814Y-99700186D01*
X106591552Y-99598729D01*
X106562222Y-99562991D01*
X106478557Y-99406466D01*
X106427037Y-99236627D01*
X106409641Y-99060000D01*
X106427037Y-98883373D01*
X106478557Y-98713534D01*
X106562222Y-98557009D01*
X106591552Y-98521271D01*
X106674814Y-98419814D01*
X106776271Y-98336552D01*
X106812009Y-98307222D01*
X106968534Y-98223557D01*
X107138373Y-98172037D01*
X107204557Y-98165519D01*
X107270740Y-98159000D01*
X107359260Y-98159000D01*
X107425443Y-98165519D01*
X107425443Y-98165519D01*
G37*
G36*
X102401823Y-98221313D02*
G01*
X102562242Y-98269976D01*
X102631922Y-98307221D01*
X102710078Y-98348996D01*
X102839659Y-98455341D01*
X102946004Y-98584922D01*
X102946005Y-98584924D01*
X103025024Y-98732758D01*
X103073687Y-98893177D01*
X103090117Y-99060000D01*
X103073687Y-99226823D01*
X103025024Y-99387242D01*
X103014747Y-99406468D01*
X102946004Y-99535078D01*
X102839659Y-99664659D01*
X102710078Y-99771004D01*
X102710076Y-99771005D01*
X102562242Y-99850024D01*
X102401823Y-99898687D01*
X102276804Y-99911000D01*
X102193196Y-99911000D01*
X102068177Y-99898687D01*
X101907758Y-99850024D01*
X101759924Y-99771005D01*
X101759922Y-99771004D01*
X101630341Y-99664659D01*
X101523996Y-99535078D01*
X101455253Y-99406468D01*
X101444976Y-99387242D01*
X101396313Y-99226823D01*
X101379883Y-99060000D01*
X101396313Y-98893177D01*
X101444976Y-98732758D01*
X101523995Y-98584924D01*
X101523996Y-98584922D01*
X101630341Y-98455341D01*
X101759922Y-98348996D01*
X101838078Y-98307221D01*
X101907758Y-98269976D01*
X102068177Y-98221313D01*
X102193196Y-98209000D01*
X102276804Y-98209000D01*
X102401823Y-98221313D01*
X102401823Y-98221313D01*
G37*
G36*
X87161823Y-98221313D02*
G01*
X87322242Y-98269976D01*
X87391922Y-98307221D01*
X87470078Y-98348996D01*
X87599659Y-98455341D01*
X87706004Y-98584922D01*
X87706005Y-98584924D01*
X87785024Y-98732758D01*
X87833687Y-98893177D01*
X87850117Y-99060000D01*
X87833687Y-99226823D01*
X87785024Y-99387242D01*
X87774747Y-99406468D01*
X87706004Y-99535078D01*
X87599659Y-99664659D01*
X87470078Y-99771004D01*
X87470076Y-99771005D01*
X87322242Y-99850024D01*
X87161823Y-99898687D01*
X87036804Y-99911000D01*
X86953196Y-99911000D01*
X86828177Y-99898687D01*
X86667758Y-99850024D01*
X86519924Y-99771005D01*
X86519922Y-99771004D01*
X86390341Y-99664659D01*
X86283996Y-99535078D01*
X86215253Y-99406468D01*
X86204976Y-99387242D01*
X86156313Y-99226823D01*
X86139883Y-99060000D01*
X86156313Y-98893177D01*
X86204976Y-98732758D01*
X86283995Y-98584924D01*
X86283996Y-98584922D01*
X86390341Y-98455341D01*
X86519922Y-98348996D01*
X86598078Y-98307221D01*
X86667758Y-98269976D01*
X86828177Y-98221313D01*
X86953196Y-98209000D01*
X87036804Y-98209000D01*
X87161823Y-98221313D01*
X87161823Y-98221313D01*
G37*
G36*
X76945442Y-96260518D02*
G01*
X77011627Y-96267037D01*
X77181466Y-96318557D01*
X77337991Y-96402222D01*
X77373729Y-96431552D01*
X77475186Y-96514814D01*
X77558448Y-96616271D01*
X77587778Y-96652009D01*
X77671443Y-96808534D01*
X77722963Y-96978373D01*
X77740359Y-97155000D01*
X77722963Y-97331627D01*
X77671443Y-97501466D01*
X77587778Y-97657991D01*
X77558448Y-97693729D01*
X77475186Y-97795186D01*
X77373729Y-97878448D01*
X77337991Y-97907778D01*
X77181466Y-97991443D01*
X77011627Y-98042963D01*
X76945443Y-98049481D01*
X76879260Y-98056000D01*
X76790740Y-98056000D01*
X76724557Y-98049481D01*
X76658373Y-98042963D01*
X76488534Y-97991443D01*
X76332009Y-97907778D01*
X76296271Y-97878448D01*
X76194814Y-97795186D01*
X76111552Y-97693729D01*
X76082222Y-97657991D01*
X75998557Y-97501466D01*
X75947037Y-97331627D01*
X75929641Y-97155000D01*
X75947037Y-96978373D01*
X75998557Y-96808534D01*
X76082222Y-96652009D01*
X76111552Y-96616271D01*
X76194814Y-96514814D01*
X76296271Y-96431552D01*
X76332009Y-96402222D01*
X76488534Y-96318557D01*
X76658373Y-96267037D01*
X76724558Y-96260518D01*
X76790740Y-96254000D01*
X76879260Y-96254000D01*
X76945442Y-96260518D01*
X76945442Y-96260518D01*
G37*
G36*
X107425442Y-95625518D02*
G01*
X107491627Y-95632037D01*
X107661466Y-95683557D01*
X107817991Y-95767222D01*
X107853729Y-95796552D01*
X107955186Y-95879814D01*
X108038448Y-95981271D01*
X108067778Y-96017009D01*
X108151443Y-96173534D01*
X108202963Y-96343373D01*
X108220359Y-96520000D01*
X108202963Y-96696627D01*
X108151443Y-96866466D01*
X108067778Y-97022991D01*
X108038448Y-97058729D01*
X107955186Y-97160186D01*
X107853729Y-97243448D01*
X107817991Y-97272778D01*
X107661466Y-97356443D01*
X107491627Y-97407963D01*
X107425442Y-97414482D01*
X107359260Y-97421000D01*
X107270740Y-97421000D01*
X107204558Y-97414482D01*
X107138373Y-97407963D01*
X106968534Y-97356443D01*
X106812009Y-97272778D01*
X106776271Y-97243448D01*
X106674814Y-97160186D01*
X106591552Y-97058729D01*
X106562222Y-97022991D01*
X106478557Y-96866466D01*
X106427037Y-96696627D01*
X106409641Y-96520000D01*
X106427037Y-96343373D01*
X106478557Y-96173534D01*
X106562222Y-96017009D01*
X106591552Y-95981271D01*
X106674814Y-95879814D01*
X106776271Y-95796552D01*
X106812009Y-95767222D01*
X106968534Y-95683557D01*
X107138373Y-95632037D01*
X107204558Y-95625518D01*
X107270740Y-95619000D01*
X107359260Y-95619000D01*
X107425442Y-95625518D01*
X107425442Y-95625518D01*
G37*
G36*
X82025442Y-95625518D02*
G01*
X82091627Y-95632037D01*
X82261466Y-95683557D01*
X82417991Y-95767222D01*
X82453729Y-95796552D01*
X82555186Y-95879814D01*
X82638448Y-95981271D01*
X82667778Y-96017009D01*
X82751443Y-96173534D01*
X82802963Y-96343373D01*
X82820359Y-96520000D01*
X82802963Y-96696627D01*
X82751443Y-96866466D01*
X82667778Y-97022991D01*
X82638448Y-97058729D01*
X82555186Y-97160186D01*
X82453729Y-97243448D01*
X82417991Y-97272778D01*
X82261466Y-97356443D01*
X82091627Y-97407963D01*
X82025442Y-97414482D01*
X81959260Y-97421000D01*
X81870740Y-97421000D01*
X81804558Y-97414482D01*
X81738373Y-97407963D01*
X81568534Y-97356443D01*
X81412009Y-97272778D01*
X81376271Y-97243448D01*
X81274814Y-97160186D01*
X81191552Y-97058729D01*
X81162222Y-97022991D01*
X81078557Y-96866466D01*
X81027037Y-96696627D01*
X81009641Y-96520000D01*
X81027037Y-96343373D01*
X81078557Y-96173534D01*
X81162222Y-96017009D01*
X81191552Y-95981271D01*
X81274814Y-95879814D01*
X81376271Y-95796552D01*
X81412009Y-95767222D01*
X81568534Y-95683557D01*
X81738373Y-95632037D01*
X81804558Y-95625518D01*
X81870740Y-95619000D01*
X81959260Y-95619000D01*
X82025442Y-95625518D01*
X82025442Y-95625518D01*
G37*
G36*
X102401823Y-95681313D02*
G01*
X102562242Y-95729976D01*
X102631922Y-95767221D01*
X102710078Y-95808996D01*
X102839659Y-95915341D01*
X102946004Y-96044922D01*
X102946005Y-96044924D01*
X103025024Y-96192758D01*
X103073687Y-96353177D01*
X103090117Y-96520000D01*
X103073687Y-96686823D01*
X103025024Y-96847242D01*
X103014747Y-96866468D01*
X102946004Y-96995078D01*
X102839659Y-97124659D01*
X102710078Y-97231004D01*
X102710076Y-97231005D01*
X102562242Y-97310024D01*
X102401823Y-97358687D01*
X102276804Y-97371000D01*
X102193196Y-97371000D01*
X102068177Y-97358687D01*
X101907758Y-97310024D01*
X101759924Y-97231005D01*
X101759922Y-97231004D01*
X101630341Y-97124659D01*
X101523996Y-96995078D01*
X101455253Y-96866468D01*
X101444976Y-96847242D01*
X101396313Y-96686823D01*
X101379883Y-96520000D01*
X101396313Y-96353177D01*
X101444976Y-96192758D01*
X101523995Y-96044924D01*
X101523996Y-96044922D01*
X101630341Y-95915341D01*
X101759922Y-95808996D01*
X101838078Y-95767221D01*
X101907758Y-95729976D01*
X102068177Y-95681313D01*
X102193196Y-95669000D01*
X102276804Y-95669000D01*
X102401823Y-95681313D01*
X102401823Y-95681313D01*
G37*
G36*
X87161823Y-95681313D02*
G01*
X87322242Y-95729976D01*
X87391922Y-95767221D01*
X87470078Y-95808996D01*
X87599659Y-95915341D01*
X87706004Y-96044922D01*
X87706005Y-96044924D01*
X87785024Y-96192758D01*
X87833687Y-96353177D01*
X87850117Y-96520000D01*
X87833687Y-96686823D01*
X87785024Y-96847242D01*
X87774747Y-96866468D01*
X87706004Y-96995078D01*
X87599659Y-97124659D01*
X87470078Y-97231004D01*
X87470076Y-97231005D01*
X87322242Y-97310024D01*
X87161823Y-97358687D01*
X87036804Y-97371000D01*
X86953196Y-97371000D01*
X86828177Y-97358687D01*
X86667758Y-97310024D01*
X86519924Y-97231005D01*
X86519922Y-97231004D01*
X86390341Y-97124659D01*
X86283996Y-96995078D01*
X86215253Y-96866468D01*
X86204976Y-96847242D01*
X86156313Y-96686823D01*
X86139883Y-96520000D01*
X86156313Y-96353177D01*
X86204976Y-96192758D01*
X86283995Y-96044924D01*
X86283996Y-96044922D01*
X86390341Y-95915341D01*
X86519922Y-95808996D01*
X86598078Y-95767221D01*
X86667758Y-95729976D01*
X86828177Y-95681313D01*
X86953196Y-95669000D01*
X87036804Y-95669000D01*
X87161823Y-95681313D01*
X87161823Y-95681313D01*
G37*
G36*
X77736000Y-95516000D02*
G01*
X75934000Y-95516000D01*
X75934000Y-93714000D01*
X77736000Y-93714000D01*
X77736000Y-95516000D01*
X77736000Y-95516000D01*
G37*
G36*
X82816000Y-94881000D02*
G01*
X81014000Y-94881000D01*
X81014000Y-93079000D01*
X82816000Y-93079000D01*
X82816000Y-94881000D01*
X82816000Y-94881000D01*
G37*
G36*
X107425443Y-93085519D02*
G01*
X107491627Y-93092037D01*
X107661466Y-93143557D01*
X107817991Y-93227222D01*
X107853729Y-93256552D01*
X107955186Y-93339814D01*
X108030955Y-93432140D01*
X108067778Y-93477009D01*
X108151443Y-93633534D01*
X108202963Y-93803373D01*
X108220359Y-93980000D01*
X108202963Y-94156627D01*
X108151443Y-94326466D01*
X108067778Y-94482991D01*
X108038448Y-94518729D01*
X107955186Y-94620186D01*
X107853729Y-94703448D01*
X107817991Y-94732778D01*
X107661466Y-94816443D01*
X107491627Y-94867963D01*
X107425443Y-94874481D01*
X107359260Y-94881000D01*
X107270740Y-94881000D01*
X107204557Y-94874481D01*
X107138373Y-94867963D01*
X106968534Y-94816443D01*
X106812009Y-94732778D01*
X106776271Y-94703448D01*
X106674814Y-94620186D01*
X106591552Y-94518729D01*
X106562222Y-94482991D01*
X106478557Y-94326466D01*
X106427037Y-94156627D01*
X106409641Y-93980000D01*
X106427037Y-93803373D01*
X106478557Y-93633534D01*
X106562222Y-93477009D01*
X106599045Y-93432140D01*
X106674814Y-93339814D01*
X106776271Y-93256552D01*
X106812009Y-93227222D01*
X106968534Y-93143557D01*
X107138373Y-93092037D01*
X107204557Y-93085519D01*
X107270740Y-93079000D01*
X107359260Y-93079000D01*
X107425443Y-93085519D01*
X107425443Y-93085519D01*
G37*
G36*
X102401823Y-93141313D02*
G01*
X102532380Y-93180917D01*
X102558145Y-93188733D01*
X102562242Y-93189976D01*
X102631922Y-93227221D01*
X102710078Y-93268996D01*
X102839659Y-93375341D01*
X102946004Y-93504922D01*
X102946005Y-93504924D01*
X103025024Y-93652758D01*
X103073687Y-93813177D01*
X103090117Y-93980000D01*
X103073687Y-94146823D01*
X103025024Y-94307242D01*
X103014747Y-94326468D01*
X102946004Y-94455078D01*
X102839659Y-94584659D01*
X102710078Y-94691004D01*
X102710076Y-94691005D01*
X102562242Y-94770024D01*
X102401823Y-94818687D01*
X102276804Y-94831000D01*
X102193196Y-94831000D01*
X102068177Y-94818687D01*
X101907758Y-94770024D01*
X101759924Y-94691005D01*
X101759922Y-94691004D01*
X101630341Y-94584659D01*
X101523996Y-94455078D01*
X101455253Y-94326468D01*
X101444976Y-94307242D01*
X101396313Y-94146823D01*
X101379883Y-93980000D01*
X101396313Y-93813177D01*
X101444976Y-93652758D01*
X101523995Y-93504924D01*
X101523996Y-93504922D01*
X101630341Y-93375341D01*
X101759922Y-93268996D01*
X101838078Y-93227221D01*
X101907758Y-93189976D01*
X101911856Y-93188733D01*
X101937620Y-93180917D01*
X102068177Y-93141313D01*
X102193196Y-93129000D01*
X102276804Y-93129000D01*
X102401823Y-93141313D01*
X102401823Y-93141313D01*
G37*
G36*
X87846000Y-94831000D02*
G01*
X86144000Y-94831000D01*
X86144000Y-93129000D01*
X87846000Y-93129000D01*
X87846000Y-94831000D01*
X87846000Y-94831000D01*
G37*
G36*
X72609059Y-91987860D02*
G01*
X72745732Y-92044472D01*
X72868735Y-92126660D01*
X72973340Y-92231265D01*
X73055528Y-92354268D01*
X73112140Y-92490941D01*
X73141000Y-92636033D01*
X73141000Y-92783967D01*
X73112140Y-92929059D01*
X73055528Y-93065732D01*
X72973340Y-93188735D01*
X72868735Y-93293340D01*
X72745732Y-93375528D01*
X72745731Y-93375529D01*
X72745730Y-93375529D01*
X72609059Y-93432140D01*
X72463968Y-93461000D01*
X72316032Y-93461000D01*
X72170941Y-93432140D01*
X72034270Y-93375529D01*
X72034269Y-93375529D01*
X72034268Y-93375528D01*
X71911265Y-93293340D01*
X71806660Y-93188735D01*
X71724472Y-93065732D01*
X71667860Y-92929059D01*
X71639000Y-92783967D01*
X71639000Y-92636033D01*
X71667860Y-92490941D01*
X71724472Y-92354268D01*
X71806660Y-92231265D01*
X71911265Y-92126660D01*
X72034268Y-92044472D01*
X72170941Y-91987860D01*
X72316032Y-91959000D01*
X72463968Y-91959000D01*
X72609059Y-91987860D01*
X72609059Y-91987860D01*
G37*
G36*
X68799059Y-91987860D02*
G01*
X68935732Y-92044472D01*
X69058735Y-92126660D01*
X69163340Y-92231265D01*
X69245528Y-92354268D01*
X69302140Y-92490941D01*
X69331000Y-92636033D01*
X69331000Y-92783967D01*
X69302140Y-92929059D01*
X69245528Y-93065732D01*
X69163340Y-93188735D01*
X69058735Y-93293340D01*
X68935732Y-93375528D01*
X68935731Y-93375529D01*
X68935730Y-93375529D01*
X68799059Y-93432140D01*
X68653968Y-93461000D01*
X68506032Y-93461000D01*
X68360941Y-93432140D01*
X68224270Y-93375529D01*
X68224269Y-93375529D01*
X68224268Y-93375528D01*
X68101265Y-93293340D01*
X67996660Y-93188735D01*
X67914472Y-93065732D01*
X67857860Y-92929059D01*
X67829000Y-92783967D01*
X67829000Y-92636033D01*
X67857860Y-92490941D01*
X67914472Y-92354268D01*
X67996660Y-92231265D01*
X68101265Y-92126660D01*
X68224268Y-92044472D01*
X68360941Y-91987860D01*
X68506032Y-91959000D01*
X68653968Y-91959000D01*
X68799059Y-91987860D01*
X68799059Y-91987860D01*
G37*
G36*
X72609059Y-89447860D02*
G01*
X72745732Y-89504472D01*
X72868735Y-89586660D01*
X72973340Y-89691265D01*
X73055528Y-89814268D01*
X73112140Y-89950941D01*
X73141000Y-90096033D01*
X73141000Y-90243967D01*
X73112140Y-90389059D01*
X73055528Y-90525732D01*
X72973340Y-90648735D01*
X72868735Y-90753340D01*
X72745732Y-90835528D01*
X72745731Y-90835529D01*
X72745730Y-90835529D01*
X72609059Y-90892140D01*
X72463968Y-90921000D01*
X72316032Y-90921000D01*
X72170941Y-90892140D01*
X72034270Y-90835529D01*
X72034269Y-90835529D01*
X72034268Y-90835528D01*
X71911265Y-90753340D01*
X71806660Y-90648735D01*
X71724472Y-90525732D01*
X71667860Y-90389059D01*
X71639000Y-90243967D01*
X71639000Y-90096033D01*
X71667860Y-89950941D01*
X71724472Y-89814268D01*
X71806660Y-89691265D01*
X71911265Y-89586660D01*
X72034268Y-89504472D01*
X72170941Y-89447860D01*
X72316032Y-89419000D01*
X72463968Y-89419000D01*
X72609059Y-89447860D01*
X72609059Y-89447860D01*
G37*
G36*
X68799059Y-89447860D02*
G01*
X68935732Y-89504472D01*
X69058735Y-89586660D01*
X69163340Y-89691265D01*
X69245528Y-89814268D01*
X69302140Y-89950941D01*
X69331000Y-90096033D01*
X69331000Y-90243967D01*
X69302140Y-90389059D01*
X69245528Y-90525732D01*
X69163340Y-90648735D01*
X69058735Y-90753340D01*
X68935732Y-90835528D01*
X68935731Y-90835529D01*
X68935730Y-90835529D01*
X68799059Y-90892140D01*
X68653968Y-90921000D01*
X68506032Y-90921000D01*
X68360941Y-90892140D01*
X68224270Y-90835529D01*
X68224269Y-90835529D01*
X68224268Y-90835528D01*
X68101265Y-90753340D01*
X67996660Y-90648735D01*
X67914472Y-90525732D01*
X67857860Y-90389059D01*
X67829000Y-90243967D01*
X67829000Y-90096033D01*
X67857860Y-89950941D01*
X67914472Y-89814268D01*
X67996660Y-89691265D01*
X68101265Y-89586660D01*
X68224268Y-89504472D01*
X68360941Y-89447860D01*
X68506032Y-89419000D01*
X68653968Y-89419000D01*
X68799059Y-89447860D01*
X68799059Y-89447860D01*
G37*
G36*
X108636731Y-86084136D02*
G01*
X108739644Y-86094272D01*
X108935017Y-86153538D01*
X109003737Y-86174384D01*
X109233202Y-86297036D01*
X109247120Y-86304475D01*
X109302691Y-86350082D01*
X109460450Y-86479550D01*
X109589918Y-86637309D01*
X109635525Y-86692880D01*
X109635526Y-86692882D01*
X109765616Y-86936263D01*
X109765617Y-86936267D01*
X109845728Y-87200356D01*
X109872778Y-87475000D01*
X109845728Y-87749644D01*
X109786462Y-87945017D01*
X109765616Y-88013737D01*
X109642964Y-88243202D01*
X109635525Y-88257120D01*
X109589918Y-88312691D01*
X109460450Y-88470450D01*
X109302691Y-88599918D01*
X109247120Y-88645525D01*
X109247118Y-88645526D01*
X109003737Y-88775616D01*
X108935017Y-88796462D01*
X108739644Y-88855728D01*
X108636731Y-88865864D01*
X108533820Y-88876000D01*
X107796180Y-88876000D01*
X107693269Y-88865864D01*
X107590356Y-88855728D01*
X107394983Y-88796462D01*
X107326263Y-88775616D01*
X107082882Y-88645526D01*
X107082880Y-88645525D01*
X107027309Y-88599918D01*
X106869550Y-88470450D01*
X106740082Y-88312691D01*
X106694475Y-88257120D01*
X106687036Y-88243202D01*
X106564384Y-88013737D01*
X106543538Y-87945017D01*
X106484272Y-87749644D01*
X106457222Y-87475000D01*
X106484272Y-87200356D01*
X106564383Y-86936267D01*
X106564384Y-86936263D01*
X106694474Y-86692882D01*
X106694475Y-86692880D01*
X106740082Y-86637309D01*
X106869550Y-86479550D01*
X107027309Y-86350082D01*
X107082880Y-86304475D01*
X107096798Y-86297036D01*
X107326263Y-86174384D01*
X107394983Y-86153538D01*
X107590356Y-86094272D01*
X107693269Y-86084136D01*
X107796180Y-86074000D01*
X108533820Y-86074000D01*
X108636731Y-86084136D01*
X108636731Y-86084136D01*
G37*
G36*
X114136731Y-86084136D02*
G01*
X114239644Y-86094272D01*
X114435017Y-86153538D01*
X114503737Y-86174384D01*
X114733202Y-86297036D01*
X114747120Y-86304475D01*
X114802691Y-86350082D01*
X114960450Y-86479550D01*
X115089918Y-86637309D01*
X115135525Y-86692880D01*
X115135526Y-86692882D01*
X115265616Y-86936263D01*
X115265617Y-86936267D01*
X115345728Y-87200356D01*
X115372778Y-87475000D01*
X115345728Y-87749644D01*
X115286462Y-87945017D01*
X115265616Y-88013737D01*
X115142964Y-88243202D01*
X115135525Y-88257120D01*
X115089918Y-88312691D01*
X114960450Y-88470450D01*
X114802691Y-88599918D01*
X114747120Y-88645525D01*
X114747118Y-88645526D01*
X114503737Y-88775616D01*
X114435017Y-88796462D01*
X114239644Y-88855728D01*
X114136731Y-88865864D01*
X114033820Y-88876000D01*
X113296180Y-88876000D01*
X113193269Y-88865864D01*
X113090356Y-88855728D01*
X112894983Y-88796462D01*
X112826263Y-88775616D01*
X112582882Y-88645526D01*
X112582880Y-88645525D01*
X112527309Y-88599918D01*
X112369550Y-88470450D01*
X112240082Y-88312691D01*
X112194475Y-88257120D01*
X112187036Y-88243202D01*
X112064384Y-88013737D01*
X112043538Y-87945017D01*
X111984272Y-87749644D01*
X111957222Y-87475000D01*
X111984272Y-87200356D01*
X112064383Y-86936267D01*
X112064384Y-86936263D01*
X112194474Y-86692882D01*
X112194475Y-86692880D01*
X112240082Y-86637309D01*
X112369550Y-86479550D01*
X112527309Y-86350082D01*
X112582880Y-86304475D01*
X112596798Y-86297036D01*
X112826263Y-86174384D01*
X112894983Y-86153538D01*
X113090356Y-86094272D01*
X113193269Y-86084136D01*
X113296180Y-86074000D01*
X114033820Y-86074000D01*
X114136731Y-86084136D01*
X114136731Y-86084136D01*
G37*
G36*
X114136731Y-81884136D02*
G01*
X114239644Y-81894272D01*
X114435017Y-81953538D01*
X114503737Y-81974384D01*
X114733202Y-82097036D01*
X114747120Y-82104475D01*
X114802691Y-82150082D01*
X114960450Y-82279550D01*
X115089918Y-82437309D01*
X115135525Y-82492880D01*
X115135526Y-82492882D01*
X115265616Y-82736263D01*
X115265617Y-82736267D01*
X115345728Y-83000356D01*
X115372778Y-83275000D01*
X115345728Y-83549644D01*
X115289141Y-83736184D01*
X115265616Y-83813737D01*
X115142964Y-84043202D01*
X115135525Y-84057120D01*
X115089918Y-84112691D01*
X114960450Y-84270450D01*
X114848310Y-84362480D01*
X114747120Y-84445525D01*
X114747118Y-84445526D01*
X114503737Y-84575616D01*
X114435017Y-84596462D01*
X114239644Y-84655728D01*
X114136731Y-84665864D01*
X114033820Y-84676000D01*
X113296180Y-84676000D01*
X113193269Y-84665864D01*
X113090356Y-84655728D01*
X112894983Y-84596462D01*
X112826263Y-84575616D01*
X112582882Y-84445526D01*
X112582880Y-84445525D01*
X112481690Y-84362480D01*
X112369550Y-84270450D01*
X112240082Y-84112691D01*
X112194475Y-84057120D01*
X112187036Y-84043202D01*
X112064384Y-83813737D01*
X112040859Y-83736184D01*
X111984272Y-83549644D01*
X111957222Y-83275000D01*
X111984272Y-83000356D01*
X112064383Y-82736267D01*
X112064384Y-82736263D01*
X112194474Y-82492882D01*
X112194475Y-82492880D01*
X112240082Y-82437309D01*
X112369550Y-82279550D01*
X112527309Y-82150082D01*
X112582880Y-82104475D01*
X112596798Y-82097036D01*
X112826263Y-81974384D01*
X112894983Y-81953538D01*
X113090356Y-81894272D01*
X113193269Y-81884136D01*
X113296180Y-81874000D01*
X114033820Y-81874000D01*
X114136731Y-81884136D01*
X114136731Y-81884136D01*
G37*
G36*
X108636731Y-81884136D02*
G01*
X108739644Y-81894272D01*
X108935017Y-81953538D01*
X109003737Y-81974384D01*
X109233202Y-82097036D01*
X109247120Y-82104475D01*
X109302691Y-82150082D01*
X109460450Y-82279550D01*
X109589918Y-82437309D01*
X109635525Y-82492880D01*
X109635526Y-82492882D01*
X109765616Y-82736263D01*
X109765617Y-82736267D01*
X109845728Y-83000356D01*
X109872778Y-83275000D01*
X109845728Y-83549644D01*
X109789141Y-83736184D01*
X109765616Y-83813737D01*
X109642964Y-84043202D01*
X109635525Y-84057120D01*
X109589918Y-84112691D01*
X109460450Y-84270450D01*
X109348310Y-84362480D01*
X109247120Y-84445525D01*
X109247118Y-84445526D01*
X109003737Y-84575616D01*
X108935017Y-84596462D01*
X108739644Y-84655728D01*
X108636731Y-84665864D01*
X108533820Y-84676000D01*
X107796180Y-84676000D01*
X107693269Y-84665864D01*
X107590356Y-84655728D01*
X107394983Y-84596462D01*
X107326263Y-84575616D01*
X107082882Y-84445526D01*
X107082880Y-84445525D01*
X106981690Y-84362480D01*
X106869550Y-84270450D01*
X106740082Y-84112691D01*
X106694475Y-84057120D01*
X106687036Y-84043202D01*
X106564384Y-83813737D01*
X106540859Y-83736184D01*
X106484272Y-83549644D01*
X106457222Y-83275000D01*
X106484272Y-83000356D01*
X106564383Y-82736267D01*
X106564384Y-82736263D01*
X106694474Y-82492882D01*
X106694475Y-82492880D01*
X106740082Y-82437309D01*
X106869550Y-82279550D01*
X107027309Y-82150082D01*
X107082880Y-82104475D01*
X107096798Y-82097036D01*
X107326263Y-81974384D01*
X107394983Y-81953538D01*
X107590356Y-81894272D01*
X107693269Y-81884136D01*
X107796180Y-81874000D01*
X108533820Y-81874000D01*
X108636731Y-81884136D01*
X108636731Y-81884136D01*
G37*
G36*
X96133228Y-83001703D02*
G01*
X96288100Y-83065853D01*
X96427481Y-83158985D01*
X96546015Y-83277519D01*
X96639147Y-83416900D01*
X96703297Y-83571772D01*
X96736000Y-83736184D01*
X96736000Y-83903816D01*
X96703297Y-84068228D01*
X96639147Y-84223100D01*
X96546015Y-84362481D01*
X96427481Y-84481015D01*
X96288100Y-84574147D01*
X96133228Y-84638297D01*
X95968816Y-84671000D01*
X95801184Y-84671000D01*
X95636772Y-84638297D01*
X95481900Y-84574147D01*
X95342519Y-84481015D01*
X95223985Y-84362481D01*
X95130853Y-84223100D01*
X95066703Y-84068228D01*
X95034000Y-83903816D01*
X95034000Y-83736184D01*
X95066703Y-83571772D01*
X95130853Y-83416900D01*
X95223985Y-83277519D01*
X95342519Y-83158985D01*
X95481900Y-83065853D01*
X95636772Y-83001703D01*
X95801184Y-82969000D01*
X95968816Y-82969000D01*
X96133228Y-83001703D01*
X96133228Y-83001703D01*
G37*
G36*
X101213228Y-83001703D02*
G01*
X101368100Y-83065853D01*
X101507481Y-83158985D01*
X101626015Y-83277519D01*
X101719147Y-83416900D01*
X101783297Y-83571772D01*
X101816000Y-83736184D01*
X101816000Y-83903816D01*
X101783297Y-84068228D01*
X101719147Y-84223100D01*
X101626015Y-84362481D01*
X101507481Y-84481015D01*
X101368100Y-84574147D01*
X101213228Y-84638297D01*
X101048816Y-84671000D01*
X100881184Y-84671000D01*
X100716772Y-84638297D01*
X100561900Y-84574147D01*
X100422519Y-84481015D01*
X100303985Y-84362481D01*
X100210853Y-84223100D01*
X100146703Y-84068228D01*
X100114000Y-83903816D01*
X100114000Y-83736184D01*
X100146703Y-83571772D01*
X100210853Y-83416900D01*
X100303985Y-83277519D01*
X100422519Y-83158985D01*
X100561900Y-83065853D01*
X100716772Y-83001703D01*
X100881184Y-82969000D01*
X101048816Y-82969000D01*
X101213228Y-83001703D01*
X101213228Y-83001703D01*
G37*
G36*
X108636731Y-77684136D02*
G01*
X108739644Y-77694272D01*
X108935017Y-77753538D01*
X109003737Y-77774384D01*
X109233202Y-77897036D01*
X109247120Y-77904475D01*
X109302691Y-77950082D01*
X109460450Y-78079550D01*
X109589918Y-78237309D01*
X109635525Y-78292880D01*
X109635526Y-78292882D01*
X109765616Y-78536263D01*
X109765617Y-78536267D01*
X109845728Y-78800356D01*
X109872778Y-79075000D01*
X109845728Y-79349644D01*
X109786462Y-79545017D01*
X109765616Y-79613737D01*
X109642964Y-79843202D01*
X109635525Y-79857120D01*
X109589918Y-79912691D01*
X109460450Y-80070450D01*
X109302691Y-80199918D01*
X109247120Y-80245525D01*
X109247118Y-80245526D01*
X109003737Y-80375616D01*
X108935017Y-80396462D01*
X108739644Y-80455728D01*
X108636731Y-80465864D01*
X108533820Y-80476000D01*
X107796180Y-80476000D01*
X107693269Y-80465864D01*
X107590356Y-80455728D01*
X107394983Y-80396462D01*
X107326263Y-80375616D01*
X107082882Y-80245526D01*
X107082880Y-80245525D01*
X107027309Y-80199918D01*
X106869550Y-80070450D01*
X106740082Y-79912691D01*
X106694475Y-79857120D01*
X106687036Y-79843202D01*
X106564384Y-79613737D01*
X106543538Y-79545017D01*
X106484272Y-79349644D01*
X106457222Y-79075000D01*
X106484272Y-78800356D01*
X106564383Y-78536267D01*
X106564384Y-78536263D01*
X106694474Y-78292882D01*
X106694475Y-78292880D01*
X106740082Y-78237309D01*
X106869550Y-78079550D01*
X107027309Y-77950082D01*
X107082880Y-77904475D01*
X107096798Y-77897036D01*
X107326263Y-77774384D01*
X107394983Y-77753538D01*
X107590356Y-77694272D01*
X107693269Y-77684136D01*
X107796180Y-77674000D01*
X108533820Y-77674000D01*
X108636731Y-77684136D01*
X108636731Y-77684136D01*
G37*
G36*
X114136731Y-77684136D02*
G01*
X114239644Y-77694272D01*
X114435017Y-77753538D01*
X114503737Y-77774384D01*
X114733202Y-77897036D01*
X114747120Y-77904475D01*
X114802691Y-77950082D01*
X114960450Y-78079550D01*
X115089918Y-78237309D01*
X115135525Y-78292880D01*
X115135526Y-78292882D01*
X115265616Y-78536263D01*
X115265617Y-78536267D01*
X115345728Y-78800356D01*
X115372778Y-79075000D01*
X115345728Y-79349644D01*
X115286462Y-79545017D01*
X115265616Y-79613737D01*
X115142964Y-79843202D01*
X115135525Y-79857120D01*
X115089918Y-79912691D01*
X114960450Y-80070450D01*
X114802691Y-80199918D01*
X114747120Y-80245525D01*
X114747118Y-80245526D01*
X114503737Y-80375616D01*
X114435017Y-80396462D01*
X114239644Y-80455728D01*
X114136731Y-80465864D01*
X114033820Y-80476000D01*
X113296180Y-80476000D01*
X113193269Y-80465864D01*
X113090356Y-80455728D01*
X112894983Y-80396462D01*
X112826263Y-80375616D01*
X112582882Y-80245526D01*
X112582880Y-80245525D01*
X112527309Y-80199918D01*
X112369550Y-80070450D01*
X112240082Y-79912691D01*
X112194475Y-79857120D01*
X112187036Y-79843202D01*
X112064384Y-79613737D01*
X112043538Y-79545017D01*
X111984272Y-79349644D01*
X111957222Y-79075000D01*
X111984272Y-78800356D01*
X112064383Y-78536267D01*
X112064384Y-78536263D01*
X112194474Y-78292882D01*
X112194475Y-78292880D01*
X112240082Y-78237309D01*
X112369550Y-78079550D01*
X112527309Y-77950082D01*
X112582880Y-77904475D01*
X112596798Y-77897036D01*
X112826263Y-77774384D01*
X112894983Y-77753538D01*
X113090356Y-77694272D01*
X113193269Y-77684136D01*
X113296180Y-77674000D01*
X114033820Y-77674000D01*
X114136731Y-77684136D01*
X114136731Y-77684136D01*
G37*
G36*
X96051823Y-75361313D02*
G01*
X96212242Y-75409976D01*
X96344906Y-75480886D01*
X96360078Y-75488996D01*
X96489659Y-75595341D01*
X96596004Y-75724922D01*
X96596005Y-75724924D01*
X96675024Y-75872758D01*
X96723687Y-76033177D01*
X96740117Y-76200000D01*
X96723687Y-76366823D01*
X96675024Y-76527242D01*
X96604114Y-76659906D01*
X96596004Y-76675078D01*
X96489659Y-76804659D01*
X96360078Y-76911004D01*
X96360076Y-76911005D01*
X96212242Y-76990024D01*
X96051823Y-77038687D01*
X95926804Y-77051000D01*
X95843196Y-77051000D01*
X95718177Y-77038687D01*
X95557758Y-76990024D01*
X95409924Y-76911005D01*
X95409922Y-76911004D01*
X95280341Y-76804659D01*
X95173996Y-76675078D01*
X95165886Y-76659906D01*
X95094976Y-76527242D01*
X95046313Y-76366823D01*
X95029883Y-76200000D01*
X95046313Y-76033177D01*
X95094976Y-75872758D01*
X95173995Y-75724924D01*
X95173996Y-75724922D01*
X95280341Y-75595341D01*
X95409922Y-75488996D01*
X95425094Y-75480886D01*
X95557758Y-75409976D01*
X95718177Y-75361313D01*
X95843196Y-75349000D01*
X95926804Y-75349000D01*
X96051823Y-75361313D01*
X96051823Y-75361313D01*
G37*
G36*
X101131823Y-75361313D02*
G01*
X101292242Y-75409976D01*
X101424906Y-75480886D01*
X101440078Y-75488996D01*
X101569659Y-75595341D01*
X101676004Y-75724922D01*
X101676005Y-75724924D01*
X101755024Y-75872758D01*
X101803687Y-76033177D01*
X101820117Y-76200000D01*
X101803687Y-76366823D01*
X101755024Y-76527242D01*
X101684114Y-76659906D01*
X101676004Y-76675078D01*
X101569659Y-76804659D01*
X101440078Y-76911004D01*
X101440076Y-76911005D01*
X101292242Y-76990024D01*
X101131823Y-77038687D01*
X101006804Y-77051000D01*
X100923196Y-77051000D01*
X100798177Y-77038687D01*
X100637758Y-76990024D01*
X100489924Y-76911005D01*
X100489922Y-76911004D01*
X100360341Y-76804659D01*
X100253996Y-76675078D01*
X100245886Y-76659906D01*
X100174976Y-76527242D01*
X100126313Y-76366823D01*
X100109883Y-76200000D01*
X100126313Y-76033177D01*
X100174976Y-75872758D01*
X100253995Y-75724924D01*
X100253996Y-75724922D01*
X100360341Y-75595341D01*
X100489922Y-75488996D01*
X100505094Y-75480886D01*
X100637758Y-75409976D01*
X100798177Y-75361313D01*
X100923196Y-75349000D01*
X101006804Y-75349000D01*
X101131823Y-75361313D01*
X101131823Y-75361313D01*
G37*
G36*
X114136731Y-73484136D02*
G01*
X114239644Y-73494272D01*
X114435017Y-73553538D01*
X114503737Y-73574384D01*
X114733202Y-73697036D01*
X114747120Y-73704475D01*
X114783056Y-73733967D01*
X114960450Y-73879550D01*
X115072209Y-74015730D01*
X115135525Y-74092880D01*
X115135526Y-74092882D01*
X115265616Y-74336263D01*
X115265617Y-74336267D01*
X115345728Y-74600356D01*
X115372778Y-74875000D01*
X115345728Y-75149644D01*
X115286462Y-75345017D01*
X115265616Y-75413737D01*
X115142964Y-75643202D01*
X115135525Y-75657120D01*
X115089918Y-75712691D01*
X114960450Y-75870450D01*
X114802691Y-75999918D01*
X114747120Y-76045525D01*
X114747118Y-76045526D01*
X114503737Y-76175616D01*
X114435017Y-76196462D01*
X114239644Y-76255728D01*
X114136731Y-76265864D01*
X114033820Y-76276000D01*
X113296180Y-76276000D01*
X113193269Y-76265864D01*
X113090356Y-76255728D01*
X112894983Y-76196462D01*
X112826263Y-76175616D01*
X112582882Y-76045526D01*
X112582880Y-76045525D01*
X112527309Y-75999918D01*
X112369550Y-75870450D01*
X112240082Y-75712691D01*
X112194475Y-75657120D01*
X112187036Y-75643202D01*
X112064384Y-75413737D01*
X112043538Y-75345017D01*
X111984272Y-75149644D01*
X111957222Y-74875000D01*
X111984272Y-74600356D01*
X112064383Y-74336267D01*
X112064384Y-74336263D01*
X112194474Y-74092882D01*
X112194475Y-74092880D01*
X112257791Y-74015730D01*
X112369550Y-73879550D01*
X112546944Y-73733967D01*
X112582880Y-73704475D01*
X112596798Y-73697036D01*
X112826263Y-73574384D01*
X112894983Y-73553538D01*
X113090356Y-73494272D01*
X113193269Y-73484136D01*
X113296180Y-73474000D01*
X114033820Y-73474000D01*
X114136731Y-73484136D01*
X114136731Y-73484136D01*
G37*
G36*
X108636731Y-73484136D02*
G01*
X108739644Y-73494272D01*
X108935017Y-73553538D01*
X109003737Y-73574384D01*
X109233202Y-73697036D01*
X109247120Y-73704475D01*
X109283056Y-73733967D01*
X109460450Y-73879550D01*
X109572209Y-74015730D01*
X109635525Y-74092880D01*
X109635526Y-74092882D01*
X109765616Y-74336263D01*
X109765617Y-74336267D01*
X109845728Y-74600356D01*
X109872778Y-74875000D01*
X109845728Y-75149644D01*
X109786462Y-75345017D01*
X109765616Y-75413737D01*
X109642964Y-75643202D01*
X109635525Y-75657120D01*
X109589918Y-75712691D01*
X109460450Y-75870450D01*
X109302691Y-75999918D01*
X109247120Y-76045525D01*
X109247118Y-76045526D01*
X109003737Y-76175616D01*
X108935017Y-76196462D01*
X108739644Y-76255728D01*
X108636731Y-76265864D01*
X108533820Y-76276000D01*
X107796180Y-76276000D01*
X107693269Y-76265864D01*
X107590356Y-76255728D01*
X107394983Y-76196462D01*
X107326263Y-76175616D01*
X107082882Y-76045526D01*
X107082880Y-76045525D01*
X107027309Y-75999918D01*
X106869550Y-75870450D01*
X106740082Y-75712691D01*
X106694475Y-75657120D01*
X106687036Y-75643202D01*
X106564384Y-75413737D01*
X106543538Y-75345017D01*
X106484272Y-75149644D01*
X106457222Y-74875000D01*
X106484272Y-74600356D01*
X106564383Y-74336267D01*
X106564384Y-74336263D01*
X106694474Y-74092882D01*
X106694475Y-74092880D01*
X106757791Y-74015730D01*
X106869550Y-73879550D01*
X107046944Y-73733967D01*
X107082880Y-73704475D01*
X107096798Y-73697036D01*
X107326263Y-73574384D01*
X107394983Y-73553538D01*
X107590356Y-73494272D01*
X107693269Y-73484136D01*
X107796180Y-73474000D01*
X108533820Y-73474000D01*
X108636731Y-73484136D01*
X108636731Y-73484136D01*
G37*
G36*
X75149059Y-72937860D02*
G01*
X75285732Y-72994472D01*
X75408735Y-73076660D01*
X75513340Y-73181265D01*
X75595528Y-73304268D01*
X75652140Y-73440941D01*
X75681000Y-73586033D01*
X75681000Y-73733967D01*
X75652140Y-73879059D01*
X75595528Y-74015732D01*
X75513340Y-74138735D01*
X75408735Y-74243340D01*
X75285732Y-74325528D01*
X75285731Y-74325529D01*
X75285730Y-74325529D01*
X75149059Y-74382140D01*
X75003968Y-74411000D01*
X74856032Y-74411000D01*
X74710941Y-74382140D01*
X74574270Y-74325529D01*
X74574269Y-74325529D01*
X74574268Y-74325528D01*
X74451265Y-74243340D01*
X74346660Y-74138735D01*
X74264472Y-74015732D01*
X74207860Y-73879059D01*
X74179000Y-73733967D01*
X74179000Y-73586033D01*
X74207860Y-73440941D01*
X74264472Y-73304268D01*
X74346660Y-73181265D01*
X74451265Y-73076660D01*
X74574268Y-72994472D01*
X74710941Y-72937860D01*
X74856032Y-72909000D01*
X75003968Y-72909000D01*
X75149059Y-72937860D01*
X75149059Y-72937860D01*
G37*
G36*
X79594059Y-72937860D02*
G01*
X79730732Y-72994472D01*
X79853735Y-73076660D01*
X79958340Y-73181265D01*
X80040528Y-73304268D01*
X80097140Y-73440941D01*
X80126000Y-73586033D01*
X80126000Y-73733967D01*
X80097140Y-73879059D01*
X80040528Y-74015732D01*
X79958340Y-74138735D01*
X79853735Y-74243340D01*
X79730732Y-74325528D01*
X79730731Y-74325529D01*
X79730730Y-74325529D01*
X79594059Y-74382140D01*
X79448968Y-74411000D01*
X79301032Y-74411000D01*
X79155941Y-74382140D01*
X79019270Y-74325529D01*
X79019269Y-74325529D01*
X79019268Y-74325528D01*
X78896265Y-74243340D01*
X78791660Y-74138735D01*
X78709472Y-74015732D01*
X78652860Y-73879059D01*
X78624000Y-73733967D01*
X78624000Y-73586033D01*
X78652860Y-73440941D01*
X78709472Y-73304268D01*
X78791660Y-73181265D01*
X78896265Y-73076660D01*
X79019268Y-72994472D01*
X79155941Y-72937860D01*
X79301032Y-72909000D01*
X79448968Y-72909000D01*
X79594059Y-72937860D01*
X79594059Y-72937860D01*
G37*
G36*
X98535443Y-71495519D02*
G01*
X98601627Y-71502037D01*
X98771466Y-71553557D01*
X98927991Y-71637222D01*
X98963729Y-71666552D01*
X99065186Y-71749814D01*
X99140955Y-71842140D01*
X99177778Y-71887009D01*
X99261443Y-72043534D01*
X99312963Y-72213373D01*
X99330359Y-72390000D01*
X99312963Y-72566627D01*
X99261443Y-72736466D01*
X99177778Y-72892991D01*
X99148448Y-72928729D01*
X99065186Y-73030186D01*
X98963729Y-73113448D01*
X98927991Y-73142778D01*
X98771466Y-73226443D01*
X98601627Y-73277963D01*
X98535443Y-73284481D01*
X98469260Y-73291000D01*
X98380740Y-73291000D01*
X98314557Y-73284481D01*
X98248373Y-73277963D01*
X98078534Y-73226443D01*
X97922009Y-73142778D01*
X97886271Y-73113448D01*
X97784814Y-73030186D01*
X97701552Y-72928729D01*
X97672222Y-72892991D01*
X97588557Y-72736466D01*
X97537037Y-72566627D01*
X97519641Y-72390000D01*
X97537037Y-72213373D01*
X97588557Y-72043534D01*
X97672222Y-71887009D01*
X97709045Y-71842140D01*
X97784814Y-71749814D01*
X97886271Y-71666552D01*
X97922009Y-71637222D01*
X98078534Y-71553557D01*
X98248373Y-71502037D01*
X98314557Y-71495519D01*
X98380740Y-71489000D01*
X98469260Y-71489000D01*
X98535443Y-71495519D01*
X98535443Y-71495519D01*
G37*
G36*
X108636731Y-69284136D02*
G01*
X108739644Y-69294272D01*
X108913500Y-69347011D01*
X109003737Y-69374384D01*
X109233202Y-69497036D01*
X109247120Y-69504475D01*
X109302691Y-69550082D01*
X109460450Y-69679550D01*
X109589918Y-69837309D01*
X109635525Y-69892880D01*
X109635526Y-69892882D01*
X109765616Y-70136263D01*
X109765617Y-70136267D01*
X109845728Y-70400356D01*
X109872778Y-70675000D01*
X109845728Y-70949644D01*
X109786462Y-71145017D01*
X109765616Y-71213737D01*
X109642964Y-71443202D01*
X109635525Y-71457120D01*
X109598662Y-71502037D01*
X109460450Y-71670450D01*
X109320226Y-71785528D01*
X109247120Y-71845525D01*
X109247118Y-71845526D01*
X109003737Y-71975616D01*
X108935017Y-71996462D01*
X108739644Y-72055728D01*
X108636731Y-72065864D01*
X108533820Y-72076000D01*
X107796180Y-72076000D01*
X107693269Y-72065864D01*
X107590356Y-72055728D01*
X107394983Y-71996462D01*
X107326263Y-71975616D01*
X107082882Y-71845526D01*
X107082880Y-71845525D01*
X107009774Y-71785528D01*
X106869550Y-71670450D01*
X106731338Y-71502037D01*
X106694475Y-71457120D01*
X106687036Y-71443202D01*
X106564384Y-71213737D01*
X106543538Y-71145017D01*
X106484272Y-70949644D01*
X106457222Y-70675000D01*
X106484272Y-70400356D01*
X106564383Y-70136267D01*
X106564384Y-70136263D01*
X106694474Y-69892882D01*
X106694475Y-69892880D01*
X106740082Y-69837309D01*
X106869550Y-69679550D01*
X107027309Y-69550082D01*
X107082880Y-69504475D01*
X107096798Y-69497036D01*
X107326263Y-69374384D01*
X107416500Y-69347011D01*
X107590356Y-69294272D01*
X107693269Y-69284136D01*
X107796180Y-69274000D01*
X108533820Y-69274000D01*
X108636731Y-69284136D01*
X108636731Y-69284136D01*
G37*
G36*
X114136731Y-69284136D02*
G01*
X114239644Y-69294272D01*
X114413500Y-69347011D01*
X114503737Y-69374384D01*
X114733202Y-69497036D01*
X114747120Y-69504475D01*
X114802691Y-69550082D01*
X114960450Y-69679550D01*
X115089918Y-69837309D01*
X115135525Y-69892880D01*
X115135526Y-69892882D01*
X115265616Y-70136263D01*
X115265617Y-70136267D01*
X115345728Y-70400356D01*
X115372778Y-70675000D01*
X115345728Y-70949644D01*
X115286462Y-71145017D01*
X115265616Y-71213737D01*
X115142964Y-71443202D01*
X115135525Y-71457120D01*
X115098662Y-71502037D01*
X114960450Y-71670450D01*
X114820226Y-71785528D01*
X114747120Y-71845525D01*
X114747118Y-71845526D01*
X114503737Y-71975616D01*
X114435017Y-71996462D01*
X114239644Y-72055728D01*
X114136731Y-72065864D01*
X114033820Y-72076000D01*
X113296180Y-72076000D01*
X113193269Y-72065864D01*
X113090356Y-72055728D01*
X112894983Y-71996462D01*
X112826263Y-71975616D01*
X112582882Y-71845526D01*
X112582880Y-71845525D01*
X112509774Y-71785528D01*
X112369550Y-71670450D01*
X112231338Y-71502037D01*
X112194475Y-71457120D01*
X112187036Y-71443202D01*
X112064384Y-71213737D01*
X112043538Y-71145017D01*
X111984272Y-70949644D01*
X111957222Y-70675000D01*
X111984272Y-70400356D01*
X112064383Y-70136267D01*
X112064384Y-70136263D01*
X112194474Y-69892882D01*
X112194475Y-69892880D01*
X112240082Y-69837309D01*
X112369550Y-69679550D01*
X112527309Y-69550082D01*
X112582880Y-69504475D01*
X112596798Y-69497036D01*
X112826263Y-69374384D01*
X112916500Y-69347011D01*
X113090356Y-69294272D01*
X113193269Y-69284136D01*
X113296180Y-69274000D01*
X114033820Y-69274000D01*
X114136731Y-69284136D01*
X114136731Y-69284136D01*
G37*
G36*
X75149059Y-70397860D02*
G01*
X75285732Y-70454472D01*
X75408735Y-70536660D01*
X75513340Y-70641265D01*
X75595528Y-70764268D01*
X75595529Y-70764270D01*
X75652140Y-70900941D01*
X75681000Y-71046032D01*
X75681000Y-71193968D01*
X75652140Y-71339059D01*
X75603238Y-71457120D01*
X75595528Y-71475732D01*
X75513340Y-71598735D01*
X75408735Y-71703340D01*
X75285732Y-71785528D01*
X75285731Y-71785529D01*
X75285730Y-71785529D01*
X75149059Y-71842140D01*
X75003968Y-71871000D01*
X74856032Y-71871000D01*
X74710941Y-71842140D01*
X74574270Y-71785529D01*
X74574269Y-71785529D01*
X74574268Y-71785528D01*
X74451265Y-71703340D01*
X74346660Y-71598735D01*
X74264472Y-71475732D01*
X74256763Y-71457120D01*
X74207860Y-71339059D01*
X74179000Y-71193968D01*
X74179000Y-71046032D01*
X74207860Y-70900941D01*
X74264471Y-70764270D01*
X74264472Y-70764268D01*
X74346660Y-70641265D01*
X74451265Y-70536660D01*
X74574268Y-70454472D01*
X74710941Y-70397860D01*
X74856032Y-70369000D01*
X75003968Y-70369000D01*
X75149059Y-70397860D01*
X75149059Y-70397860D01*
G37*
G36*
X79594059Y-70397860D02*
G01*
X79730732Y-70454472D01*
X79853735Y-70536660D01*
X79958340Y-70641265D01*
X80040528Y-70764268D01*
X80040529Y-70764270D01*
X80097140Y-70900941D01*
X80126000Y-71046032D01*
X80126000Y-71193968D01*
X80097140Y-71339059D01*
X80048238Y-71457120D01*
X80040528Y-71475732D01*
X79958340Y-71598735D01*
X79853735Y-71703340D01*
X79730732Y-71785528D01*
X79730731Y-71785529D01*
X79730730Y-71785529D01*
X79594059Y-71842140D01*
X79448968Y-71871000D01*
X79301032Y-71871000D01*
X79155941Y-71842140D01*
X79019270Y-71785529D01*
X79019269Y-71785529D01*
X79019268Y-71785528D01*
X78896265Y-71703340D01*
X78791660Y-71598735D01*
X78709472Y-71475732D01*
X78701763Y-71457120D01*
X78652860Y-71339059D01*
X78624000Y-71193968D01*
X78624000Y-71046032D01*
X78652860Y-70900941D01*
X78709471Y-70764270D01*
X78709472Y-70764268D01*
X78791660Y-70641265D01*
X78896265Y-70536660D01*
X79019268Y-70454472D01*
X79155941Y-70397860D01*
X79301032Y-70369000D01*
X79448968Y-70369000D01*
X79594059Y-70397860D01*
X79594059Y-70397860D01*
G37*
G36*
X98535443Y-68955519D02*
G01*
X98601627Y-68962037D01*
X98771466Y-69013557D01*
X98927991Y-69097222D01*
X98963729Y-69126552D01*
X99065186Y-69209814D01*
X99117861Y-69274000D01*
X99177778Y-69347009D01*
X99261443Y-69503534D01*
X99312963Y-69673373D01*
X99330359Y-69850000D01*
X99312963Y-70026627D01*
X99261443Y-70196466D01*
X99177778Y-70352991D01*
X99148448Y-70388729D01*
X99065186Y-70490186D01*
X98963729Y-70573448D01*
X98927991Y-70602778D01*
X98771466Y-70686443D01*
X98601627Y-70737963D01*
X98535443Y-70744481D01*
X98469260Y-70751000D01*
X98380740Y-70751000D01*
X98314557Y-70744481D01*
X98248373Y-70737963D01*
X98078534Y-70686443D01*
X97922009Y-70602778D01*
X97886271Y-70573448D01*
X97784814Y-70490186D01*
X97701552Y-70388729D01*
X97672222Y-70352991D01*
X97588557Y-70196466D01*
X97537037Y-70026627D01*
X97519641Y-69850000D01*
X97537037Y-69673373D01*
X97588557Y-69503534D01*
X97672222Y-69347009D01*
X97732139Y-69274000D01*
X97784814Y-69209814D01*
X97886271Y-69126552D01*
X97922009Y-69097222D01*
X98078534Y-69013557D01*
X98248373Y-68962037D01*
X98314557Y-68955519D01*
X98380740Y-68949000D01*
X98469260Y-68949000D01*
X98535443Y-68955519D01*
X98535443Y-68955519D01*
G37*
G36*
X85306000Y-70701000D02*
G01*
X83604000Y-70701000D01*
X83604000Y-68999000D01*
X85306000Y-68999000D01*
X85306000Y-70701000D01*
X85306000Y-70701000D01*
G37*
G36*
X88203228Y-69031703D02*
G01*
X88358100Y-69095853D01*
X88497481Y-69188985D01*
X88616015Y-69307519D01*
X88709147Y-69446900D01*
X88773297Y-69601772D01*
X88806000Y-69766184D01*
X88806000Y-69933816D01*
X88773297Y-70098228D01*
X88709147Y-70253100D01*
X88616015Y-70392481D01*
X88497481Y-70511015D01*
X88358100Y-70604147D01*
X88203228Y-70668297D01*
X88038816Y-70701000D01*
X87871184Y-70701000D01*
X87706772Y-70668297D01*
X87551900Y-70604147D01*
X87412519Y-70511015D01*
X87293985Y-70392481D01*
X87200853Y-70253100D01*
X87136703Y-70098228D01*
X87104000Y-69933816D01*
X87104000Y-69766184D01*
X87136703Y-69601772D01*
X87200853Y-69446900D01*
X87293985Y-69307519D01*
X87412519Y-69188985D01*
X87551900Y-69095853D01*
X87706772Y-69031703D01*
X87871184Y-68999000D01*
X88038816Y-68999000D01*
X88203228Y-69031703D01*
X88203228Y-69031703D01*
G37*
G36*
X98535443Y-66415519D02*
G01*
X98601627Y-66422037D01*
X98771466Y-66473557D01*
X98927991Y-66557222D01*
X98963729Y-66586552D01*
X99065186Y-66669814D01*
X99148448Y-66771271D01*
X99177778Y-66807009D01*
X99261443Y-66963534D01*
X99312963Y-67133373D01*
X99330359Y-67310000D01*
X99312963Y-67486627D01*
X99261443Y-67656466D01*
X99177778Y-67812991D01*
X99148448Y-67848729D01*
X99065186Y-67950186D01*
X98963729Y-68033448D01*
X98927991Y-68062778D01*
X98771466Y-68146443D01*
X98601627Y-68197963D01*
X98535443Y-68204481D01*
X98469260Y-68211000D01*
X98380740Y-68211000D01*
X98314557Y-68204481D01*
X98248373Y-68197963D01*
X98078534Y-68146443D01*
X97922009Y-68062778D01*
X97886271Y-68033448D01*
X97784814Y-67950186D01*
X97701552Y-67848729D01*
X97672222Y-67812991D01*
X97588557Y-67656466D01*
X97537037Y-67486627D01*
X97519641Y-67310000D01*
X97537037Y-67133373D01*
X97588557Y-66963534D01*
X97672222Y-66807009D01*
X97701552Y-66771271D01*
X97784814Y-66669814D01*
X97886271Y-66586552D01*
X97922009Y-66557222D01*
X98078534Y-66473557D01*
X98248373Y-66422037D01*
X98314557Y-66415519D01*
X98380740Y-66409000D01*
X98469260Y-66409000D01*
X98535443Y-66415519D01*
X98535443Y-66415519D01*
G37*
G36*
X108636731Y-65084136D02*
G01*
X108739644Y-65094272D01*
X108935017Y-65153538D01*
X109003737Y-65174384D01*
X109233202Y-65297036D01*
X109247120Y-65304475D01*
X109302691Y-65350082D01*
X109460450Y-65479550D01*
X109589918Y-65637309D01*
X109635525Y-65692880D01*
X109635526Y-65692882D01*
X109765616Y-65936263D01*
X109765617Y-65936267D01*
X109845728Y-66200356D01*
X109872778Y-66475000D01*
X109845728Y-66749644D01*
X109786462Y-66945017D01*
X109765616Y-67013737D01*
X109701669Y-67133373D01*
X109635525Y-67257120D01*
X109592127Y-67310000D01*
X109460450Y-67470450D01*
X109302691Y-67599918D01*
X109247120Y-67645525D01*
X109247118Y-67645526D01*
X109003737Y-67775616D01*
X108935017Y-67796462D01*
X108739644Y-67855728D01*
X108636731Y-67865864D01*
X108533820Y-67876000D01*
X107796180Y-67876000D01*
X107693269Y-67865864D01*
X107590356Y-67855728D01*
X107394983Y-67796462D01*
X107326263Y-67775616D01*
X107082882Y-67645526D01*
X107082880Y-67645525D01*
X107027309Y-67599918D01*
X106869550Y-67470450D01*
X106737873Y-67310000D01*
X106694475Y-67257120D01*
X106628331Y-67133373D01*
X106564384Y-67013737D01*
X106543538Y-66945017D01*
X106484272Y-66749644D01*
X106457222Y-66475000D01*
X106484272Y-66200356D01*
X106564383Y-65936267D01*
X106564384Y-65936263D01*
X106694474Y-65692882D01*
X106694475Y-65692880D01*
X106740082Y-65637309D01*
X106869550Y-65479550D01*
X107027309Y-65350082D01*
X107082880Y-65304475D01*
X107096798Y-65297036D01*
X107326263Y-65174384D01*
X107394983Y-65153538D01*
X107590356Y-65094272D01*
X107693269Y-65084136D01*
X107796180Y-65074000D01*
X108533820Y-65074000D01*
X108636731Y-65084136D01*
X108636731Y-65084136D01*
G37*
G36*
X114136731Y-65084136D02*
G01*
X114239644Y-65094272D01*
X114435017Y-65153538D01*
X114503737Y-65174384D01*
X114733202Y-65297036D01*
X114747120Y-65304475D01*
X114802691Y-65350082D01*
X114960450Y-65479550D01*
X115089918Y-65637309D01*
X115135525Y-65692880D01*
X115135526Y-65692882D01*
X115265616Y-65936263D01*
X115265617Y-65936267D01*
X115345728Y-66200356D01*
X115372778Y-66475000D01*
X115345728Y-66749644D01*
X115286462Y-66945017D01*
X115265616Y-67013737D01*
X115201669Y-67133373D01*
X115135525Y-67257120D01*
X115092127Y-67310000D01*
X114960450Y-67470450D01*
X114802691Y-67599918D01*
X114747120Y-67645525D01*
X114747118Y-67645526D01*
X114503737Y-67775616D01*
X114435017Y-67796462D01*
X114239644Y-67855728D01*
X114136731Y-67865864D01*
X114033820Y-67876000D01*
X113296180Y-67876000D01*
X113193269Y-67865864D01*
X113090356Y-67855728D01*
X112894983Y-67796462D01*
X112826263Y-67775616D01*
X112582882Y-67645526D01*
X112582880Y-67645525D01*
X112527309Y-67599918D01*
X112369550Y-67470450D01*
X112237873Y-67310000D01*
X112194475Y-67257120D01*
X112128331Y-67133373D01*
X112064384Y-67013737D01*
X112043538Y-66945017D01*
X111984272Y-66749644D01*
X111957222Y-66475000D01*
X111984272Y-66200356D01*
X112064383Y-65936267D01*
X112064384Y-65936263D01*
X112194474Y-65692882D01*
X112194475Y-65692880D01*
X112240082Y-65637309D01*
X112369550Y-65479550D01*
X112527309Y-65350082D01*
X112582880Y-65304475D01*
X112596798Y-65297036D01*
X112826263Y-65174384D01*
X112894983Y-65153538D01*
X113090356Y-65094272D01*
X113193269Y-65084136D01*
X113296180Y-65074000D01*
X114033820Y-65074000D01*
X114136731Y-65084136D01*
X114136731Y-65084136D01*
G37*
G36*
X99326000Y-65671000D02*
G01*
X97524000Y-65671000D01*
X97524000Y-63869000D01*
X99326000Y-63869000D01*
X99326000Y-65671000D01*
X99326000Y-65671000D01*
G37*
G36*
X108636731Y-60884136D02*
G01*
X108739644Y-60894272D01*
X108935017Y-60953538D01*
X109003737Y-60974384D01*
X109233202Y-61097036D01*
X109247120Y-61104475D01*
X109302691Y-61150082D01*
X109460450Y-61279550D01*
X109589918Y-61437309D01*
X109635525Y-61492880D01*
X109635526Y-61492882D01*
X109765616Y-61736263D01*
X109765617Y-61736267D01*
X109845728Y-62000356D01*
X109872778Y-62275000D01*
X109845728Y-62549644D01*
X109786462Y-62745017D01*
X109765616Y-62813737D01*
X109642964Y-63043202D01*
X109635525Y-63057120D01*
X109589918Y-63112691D01*
X109460450Y-63270450D01*
X109302691Y-63399918D01*
X109247120Y-63445525D01*
X109247118Y-63445526D01*
X109003737Y-63575616D01*
X108935017Y-63596462D01*
X108739644Y-63655728D01*
X108636731Y-63665864D01*
X108533820Y-63676000D01*
X107796180Y-63676000D01*
X107693269Y-63665864D01*
X107590356Y-63655728D01*
X107394983Y-63596462D01*
X107326263Y-63575616D01*
X107082882Y-63445526D01*
X107082880Y-63445525D01*
X107027309Y-63399918D01*
X106869550Y-63270450D01*
X106740082Y-63112691D01*
X106694475Y-63057120D01*
X106687036Y-63043202D01*
X106564384Y-62813737D01*
X106543538Y-62745017D01*
X106484272Y-62549644D01*
X106457222Y-62275000D01*
X106484272Y-62000356D01*
X106564383Y-61736267D01*
X106564384Y-61736263D01*
X106694474Y-61492882D01*
X106694475Y-61492880D01*
X106740082Y-61437309D01*
X106869550Y-61279550D01*
X107027309Y-61150082D01*
X107082880Y-61104475D01*
X107096798Y-61097036D01*
X107326263Y-60974384D01*
X107394983Y-60953538D01*
X107590356Y-60894272D01*
X107693269Y-60884136D01*
X107796180Y-60874000D01*
X108533820Y-60874000D01*
X108636731Y-60884136D01*
X108636731Y-60884136D01*
G37*
G36*
X114136731Y-60884136D02*
G01*
X114239644Y-60894272D01*
X114435017Y-60953538D01*
X114503737Y-60974384D01*
X114733202Y-61097036D01*
X114747120Y-61104475D01*
X114802691Y-61150082D01*
X114960450Y-61279550D01*
X115089918Y-61437309D01*
X115135525Y-61492880D01*
X115135526Y-61492882D01*
X115265616Y-61736263D01*
X115265617Y-61736267D01*
X115345728Y-62000356D01*
X115372778Y-62275000D01*
X115345728Y-62549644D01*
X115286462Y-62745017D01*
X115265616Y-62813737D01*
X115142964Y-63043202D01*
X115135525Y-63057120D01*
X115089918Y-63112691D01*
X114960450Y-63270450D01*
X114802691Y-63399918D01*
X114747120Y-63445525D01*
X114747118Y-63445526D01*
X114503737Y-63575616D01*
X114435017Y-63596462D01*
X114239644Y-63655728D01*
X114136731Y-63665864D01*
X114033820Y-63676000D01*
X113296180Y-63676000D01*
X113193269Y-63665864D01*
X113090356Y-63655728D01*
X112894983Y-63596462D01*
X112826263Y-63575616D01*
X112582882Y-63445526D01*
X112582880Y-63445525D01*
X112527309Y-63399918D01*
X112369550Y-63270450D01*
X112240082Y-63112691D01*
X112194475Y-63057120D01*
X112187036Y-63043202D01*
X112064384Y-62813737D01*
X112043538Y-62745017D01*
X111984272Y-62549644D01*
X111957222Y-62275000D01*
X111984272Y-62000356D01*
X112064383Y-61736267D01*
X112064384Y-61736263D01*
X112194474Y-61492882D01*
X112194475Y-61492880D01*
X112240082Y-61437309D01*
X112369550Y-61279550D01*
X112527309Y-61150082D01*
X112582880Y-61104475D01*
X112596798Y-61097036D01*
X112826263Y-60974384D01*
X112894983Y-60953538D01*
X113090356Y-60894272D01*
X113193269Y-60884136D01*
X113296180Y-60874000D01*
X114033820Y-60874000D01*
X114136731Y-60884136D01*
X114136731Y-60884136D01*
G37*
G36*
X114136731Y-56684136D02*
G01*
X114239644Y-56694272D01*
X114435017Y-56753538D01*
X114503737Y-56774384D01*
X114733202Y-56897036D01*
X114747120Y-56904475D01*
X114802691Y-56950082D01*
X114960450Y-57079550D01*
X115089918Y-57237309D01*
X115135525Y-57292880D01*
X115135526Y-57292882D01*
X115265616Y-57536263D01*
X115265617Y-57536267D01*
X115345728Y-57800356D01*
X115372778Y-58075000D01*
X115345728Y-58349644D01*
X115286462Y-58545017D01*
X115265616Y-58613737D01*
X115142964Y-58843202D01*
X115135525Y-58857120D01*
X115089918Y-58912691D01*
X114960450Y-59070450D01*
X114802691Y-59199918D01*
X114747120Y-59245525D01*
X114747118Y-59245526D01*
X114503737Y-59375616D01*
X114435017Y-59396462D01*
X114239644Y-59455728D01*
X114136731Y-59465864D01*
X114033820Y-59476000D01*
X113296180Y-59476000D01*
X113193269Y-59465864D01*
X113090356Y-59455728D01*
X112894983Y-59396462D01*
X112826263Y-59375616D01*
X112582882Y-59245526D01*
X112582880Y-59245525D01*
X112527309Y-59199918D01*
X112369550Y-59070450D01*
X112240082Y-58912691D01*
X112194475Y-58857120D01*
X112187036Y-58843202D01*
X112064384Y-58613737D01*
X112043538Y-58545017D01*
X111984272Y-58349644D01*
X111957222Y-58075000D01*
X111984272Y-57800356D01*
X112064383Y-57536267D01*
X112064384Y-57536263D01*
X112194474Y-57292882D01*
X112194475Y-57292880D01*
X112240082Y-57237309D01*
X112369550Y-57079550D01*
X112527309Y-56950082D01*
X112582880Y-56904475D01*
X112596798Y-56897036D01*
X112826263Y-56774384D01*
X112894983Y-56753538D01*
X113090356Y-56694272D01*
X113193269Y-56684136D01*
X113296180Y-56674000D01*
X114033820Y-56674000D01*
X114136731Y-56684136D01*
X114136731Y-56684136D01*
G37*
G36*
X108636731Y-56684136D02*
G01*
X108739644Y-56694272D01*
X108935017Y-56753538D01*
X109003737Y-56774384D01*
X109233202Y-56897036D01*
X109247120Y-56904475D01*
X109302691Y-56950082D01*
X109460450Y-57079550D01*
X109589918Y-57237309D01*
X109635525Y-57292880D01*
X109635526Y-57292882D01*
X109765616Y-57536263D01*
X109765617Y-57536267D01*
X109845728Y-57800356D01*
X109872778Y-58075000D01*
X109845728Y-58349644D01*
X109786462Y-58545017D01*
X109765616Y-58613737D01*
X109642964Y-58843202D01*
X109635525Y-58857120D01*
X109589918Y-58912691D01*
X109460450Y-59070450D01*
X109302691Y-59199918D01*
X109247120Y-59245525D01*
X109247118Y-59245526D01*
X109003737Y-59375616D01*
X108935017Y-59396462D01*
X108739644Y-59455728D01*
X108636731Y-59465864D01*
X108533820Y-59476000D01*
X107796180Y-59476000D01*
X107693269Y-59465864D01*
X107590356Y-59455728D01*
X107394983Y-59396462D01*
X107326263Y-59375616D01*
X107082882Y-59245526D01*
X107082880Y-59245525D01*
X107027309Y-59199918D01*
X106869550Y-59070450D01*
X106740082Y-58912691D01*
X106694475Y-58857120D01*
X106687036Y-58843202D01*
X106564384Y-58613737D01*
X106543538Y-58545017D01*
X106484272Y-58349644D01*
X106457222Y-58075000D01*
X106484272Y-57800356D01*
X106564383Y-57536267D01*
X106564384Y-57536263D01*
X106694474Y-57292882D01*
X106694475Y-57292880D01*
X106740082Y-57237309D01*
X106869550Y-57079550D01*
X107027309Y-56950082D01*
X107082880Y-56904475D01*
X107096798Y-56897036D01*
X107326263Y-56774384D01*
X107394983Y-56753538D01*
X107590356Y-56694272D01*
X107693269Y-56684136D01*
X107796180Y-56674000D01*
X108533820Y-56674000D01*
X108636731Y-56684136D01*
X108636731Y-56684136D01*
G37*
G36*
X114136731Y-52484136D02*
G01*
X114239644Y-52494272D01*
X114435017Y-52553538D01*
X114503737Y-52574384D01*
X114733202Y-52697036D01*
X114747120Y-52704475D01*
X114802691Y-52750082D01*
X114960450Y-52879550D01*
X115089918Y-53037309D01*
X115135525Y-53092880D01*
X115135526Y-53092882D01*
X115265616Y-53336263D01*
X115265617Y-53336267D01*
X115345728Y-53600356D01*
X115372778Y-53875000D01*
X115345728Y-54149644D01*
X115286462Y-54345017D01*
X115265616Y-54413737D01*
X115142964Y-54643202D01*
X115135525Y-54657120D01*
X115089918Y-54712691D01*
X114960450Y-54870450D01*
X114802691Y-54999918D01*
X114747120Y-55045525D01*
X114747118Y-55045526D01*
X114503737Y-55175616D01*
X114435017Y-55196462D01*
X114239644Y-55255728D01*
X114136731Y-55265864D01*
X114033820Y-55276000D01*
X113296180Y-55276000D01*
X113193269Y-55265864D01*
X113090356Y-55255728D01*
X112894983Y-55196462D01*
X112826263Y-55175616D01*
X112582882Y-55045526D01*
X112582880Y-55045525D01*
X112527309Y-54999918D01*
X112369550Y-54870450D01*
X112240082Y-54712691D01*
X112194475Y-54657120D01*
X112187036Y-54643202D01*
X112064384Y-54413737D01*
X112043538Y-54345017D01*
X111984272Y-54149644D01*
X111957222Y-53875000D01*
X111984272Y-53600356D01*
X112064383Y-53336267D01*
X112064384Y-53336263D01*
X112194474Y-53092882D01*
X112194475Y-53092880D01*
X112240082Y-53037309D01*
X112369550Y-52879550D01*
X112527309Y-52750082D01*
X112582880Y-52704475D01*
X112596798Y-52697036D01*
X112826263Y-52574384D01*
X112894983Y-52553538D01*
X113090356Y-52494272D01*
X113193269Y-52484136D01*
X113296180Y-52474000D01*
X114033820Y-52474000D01*
X114136731Y-52484136D01*
X114136731Y-52484136D01*
G37*
G36*
X108636731Y-52484136D02*
G01*
X108739644Y-52494272D01*
X108935017Y-52553538D01*
X109003737Y-52574384D01*
X109233202Y-52697036D01*
X109247120Y-52704475D01*
X109302691Y-52750082D01*
X109460450Y-52879550D01*
X109589918Y-53037309D01*
X109635525Y-53092880D01*
X109635526Y-53092882D01*
X109765616Y-53336263D01*
X109765617Y-53336267D01*
X109845728Y-53600356D01*
X109872778Y-53875000D01*
X109845728Y-54149644D01*
X109786462Y-54345017D01*
X109765616Y-54413737D01*
X109642964Y-54643202D01*
X109635525Y-54657120D01*
X109589918Y-54712691D01*
X109460450Y-54870450D01*
X109302691Y-54999918D01*
X109247120Y-55045525D01*
X109247118Y-55045526D01*
X109003737Y-55175616D01*
X108935017Y-55196462D01*
X108739644Y-55255728D01*
X108636731Y-55265864D01*
X108533820Y-55276000D01*
X107796180Y-55276000D01*
X107693269Y-55265864D01*
X107590356Y-55255728D01*
X107394983Y-55196462D01*
X107326263Y-55175616D01*
X107082882Y-55045526D01*
X107082880Y-55045525D01*
X107027309Y-54999918D01*
X106869550Y-54870450D01*
X106740082Y-54712691D01*
X106694475Y-54657120D01*
X106687036Y-54643202D01*
X106564384Y-54413737D01*
X106543538Y-54345017D01*
X106484272Y-54149644D01*
X106457222Y-53875000D01*
X106484272Y-53600356D01*
X106564383Y-53336267D01*
X106564384Y-53336263D01*
X106694474Y-53092882D01*
X106694475Y-53092880D01*
X106740082Y-53037309D01*
X106869550Y-52879550D01*
X107027309Y-52750082D01*
X107082880Y-52704475D01*
X107096798Y-52697036D01*
X107326263Y-52574384D01*
X107394983Y-52553538D01*
X107590356Y-52494272D01*
X107693269Y-52484136D01*
X107796180Y-52474000D01*
X108533820Y-52474000D01*
X108636731Y-52484136D01*
X108636731Y-52484136D01*
G37*
G36*
X114136731Y-48284136D02*
G01*
X114239644Y-48294272D01*
X114435017Y-48353538D01*
X114503737Y-48374384D01*
X114733202Y-48497036D01*
X114747120Y-48504475D01*
X114802691Y-48550082D01*
X114960450Y-48679550D01*
X115089918Y-48837309D01*
X115135525Y-48892880D01*
X115135526Y-48892882D01*
X115265616Y-49136263D01*
X115265617Y-49136267D01*
X115345728Y-49400356D01*
X115372778Y-49675000D01*
X115345728Y-49949644D01*
X115286462Y-50145017D01*
X115265616Y-50213737D01*
X115142964Y-50443202D01*
X115135525Y-50457120D01*
X115089918Y-50512691D01*
X114960450Y-50670450D01*
X114802691Y-50799918D01*
X114747120Y-50845525D01*
X114747118Y-50845526D01*
X114503737Y-50975616D01*
X114435017Y-50996462D01*
X114239644Y-51055728D01*
X114136731Y-51065864D01*
X114033820Y-51076000D01*
X113296180Y-51076000D01*
X113193269Y-51065864D01*
X113090356Y-51055728D01*
X112894983Y-50996462D01*
X112826263Y-50975616D01*
X112582882Y-50845526D01*
X112582880Y-50845525D01*
X112527309Y-50799918D01*
X112369550Y-50670450D01*
X112240082Y-50512691D01*
X112194475Y-50457120D01*
X112187036Y-50443202D01*
X112064384Y-50213737D01*
X112043538Y-50145017D01*
X111984272Y-49949644D01*
X111957222Y-49675000D01*
X111984272Y-49400356D01*
X112064383Y-49136267D01*
X112064384Y-49136263D01*
X112194474Y-48892882D01*
X112194475Y-48892880D01*
X112240082Y-48837309D01*
X112369550Y-48679550D01*
X112527309Y-48550082D01*
X112582880Y-48504475D01*
X112596798Y-48497036D01*
X112826263Y-48374384D01*
X112894983Y-48353538D01*
X113090356Y-48294272D01*
X113193269Y-48284136D01*
X113296180Y-48274000D01*
X114033820Y-48274000D01*
X114136731Y-48284136D01*
X114136731Y-48284136D01*
G37*
G36*
X108636731Y-48284136D02*
G01*
X108739644Y-48294272D01*
X108935017Y-48353538D01*
X109003737Y-48374384D01*
X109233202Y-48497036D01*
X109247120Y-48504475D01*
X109302691Y-48550082D01*
X109460450Y-48679550D01*
X109589918Y-48837309D01*
X109635525Y-48892880D01*
X109635526Y-48892882D01*
X109765616Y-49136263D01*
X109765617Y-49136267D01*
X109845728Y-49400356D01*
X109872778Y-49675000D01*
X109845728Y-49949644D01*
X109786462Y-50145017D01*
X109765616Y-50213737D01*
X109642964Y-50443202D01*
X109635525Y-50457120D01*
X109589918Y-50512691D01*
X109460450Y-50670450D01*
X109302691Y-50799918D01*
X109247120Y-50845525D01*
X109247118Y-50845526D01*
X109003737Y-50975616D01*
X108935017Y-50996462D01*
X108739644Y-51055728D01*
X108636731Y-51065864D01*
X108533820Y-51076000D01*
X107796180Y-51076000D01*
X107693269Y-51065864D01*
X107590356Y-51055728D01*
X107394983Y-50996462D01*
X107326263Y-50975616D01*
X107082882Y-50845526D01*
X107082880Y-50845525D01*
X107027309Y-50799918D01*
X106869550Y-50670450D01*
X106740082Y-50512691D01*
X106694475Y-50457120D01*
X106687036Y-50443202D01*
X106564384Y-50213737D01*
X106543538Y-50145017D01*
X106484272Y-49949644D01*
X106457222Y-49675000D01*
X106484272Y-49400356D01*
X106564383Y-49136267D01*
X106564384Y-49136263D01*
X106694474Y-48892882D01*
X106694475Y-48892880D01*
X106740082Y-48837309D01*
X106869550Y-48679550D01*
X107027309Y-48550082D01*
X107082880Y-48504475D01*
X107096798Y-48497036D01*
X107326263Y-48374384D01*
X107394983Y-48353538D01*
X107590356Y-48294272D01*
X107693269Y-48284136D01*
X107796180Y-48274000D01*
X108533820Y-48274000D01*
X108636731Y-48284136D01*
X108636731Y-48284136D01*
G37*
G36*
X101169473Y-43870938D02*
G01*
X101297049Y-43923782D01*
X101411859Y-44000495D01*
X101509505Y-44098141D01*
X101586218Y-44212951D01*
X101639062Y-44340527D01*
X101666000Y-44475956D01*
X101666000Y-44614044D01*
X101639062Y-44749473D01*
X101586218Y-44877049D01*
X101509505Y-44991859D01*
X101411859Y-45089505D01*
X101297049Y-45166218D01*
X101169473Y-45219062D01*
X101113225Y-45230250D01*
X101089776Y-45237363D01*
X101068165Y-45248913D01*
X101049223Y-45264459D01*
X101033678Y-45283400D01*
X101022126Y-45305011D01*
X101015013Y-45328460D01*
X101012611Y-45352846D01*
X101015013Y-45377232D01*
X101022126Y-45400681D01*
X101033676Y-45422292D01*
X101049222Y-45441234D01*
X101068163Y-45456779D01*
X101089774Y-45468331D01*
X101113224Y-45475444D01*
X101204426Y-45493586D01*
X101308027Y-45514193D01*
X101522045Y-45602842D01*
X101522046Y-45602843D01*
X101714654Y-45731539D01*
X101878461Y-45895346D01*
X101957564Y-46013733D01*
X102007158Y-46087955D01*
X102095807Y-46301973D01*
X102141000Y-46529174D01*
X102141000Y-46760826D01*
X102095807Y-46988027D01*
X102007158Y-47202045D01*
X102007157Y-47202046D01*
X101878461Y-47394654D01*
X101714654Y-47558461D01*
X101586249Y-47644258D01*
X101522045Y-47687158D01*
X101308027Y-47775807D01*
X101156560Y-47805936D01*
X101080827Y-47821000D01*
X100849173Y-47821000D01*
X100773440Y-47805936D01*
X100621973Y-47775807D01*
X100407955Y-47687158D01*
X100343751Y-47644258D01*
X100215346Y-47558461D01*
X100051539Y-47394654D01*
X99922843Y-47202046D01*
X99922842Y-47202045D01*
X99834193Y-46988027D01*
X99789000Y-46760826D01*
X99789000Y-46529174D01*
X99834193Y-46301973D01*
X99922842Y-46087955D01*
X99972436Y-46013733D01*
X100051539Y-45895346D01*
X100215346Y-45731539D01*
X100407954Y-45602843D01*
X100407955Y-45602842D01*
X100621973Y-45514193D01*
X100725574Y-45493586D01*
X100816776Y-45475444D01*
X100840225Y-45468331D01*
X100861836Y-45456780D01*
X100880778Y-45441234D01*
X100896323Y-45422292D01*
X100907874Y-45400682D01*
X100914987Y-45377233D01*
X100917389Y-45352847D01*
X100914987Y-45328461D01*
X100907874Y-45305012D01*
X100896323Y-45283401D01*
X100880777Y-45264459D01*
X100861835Y-45248914D01*
X100840225Y-45237363D01*
X100816775Y-45230250D01*
X100760527Y-45219062D01*
X100632951Y-45166218D01*
X100518141Y-45089505D01*
X100420495Y-44991859D01*
X100343782Y-44877049D01*
X100290938Y-44749473D01*
X100264000Y-44614044D01*
X100264000Y-44475956D01*
X100290938Y-44340527D01*
X100343782Y-44212951D01*
X100420495Y-44098141D01*
X100518141Y-44000495D01*
X100632951Y-43923782D01*
X100760527Y-43870938D01*
X100895956Y-43844000D01*
X101034044Y-43844000D01*
X101169473Y-43870938D01*
X101169473Y-43870938D01*
G37*
G36*
X108636731Y-44084136D02*
G01*
X108739644Y-44094272D01*
X108935017Y-44153538D01*
X109003737Y-44174384D01*
X109233202Y-44297036D01*
X109247120Y-44304475D01*
X109291048Y-44340526D01*
X109460450Y-44479550D01*
X109589918Y-44637309D01*
X109635525Y-44692880D01*
X109635526Y-44692882D01*
X109765616Y-44936263D01*
X109765617Y-44936267D01*
X109845728Y-45200356D01*
X109872778Y-45475000D01*
X109845728Y-45749644D01*
X109786462Y-45945017D01*
X109765616Y-46013737D01*
X109642964Y-46243202D01*
X109635525Y-46257120D01*
X109598715Y-46301973D01*
X109460450Y-46470450D01*
X109302691Y-46599918D01*
X109247120Y-46645525D01*
X109247118Y-46645526D01*
X109003737Y-46775616D01*
X108935017Y-46796462D01*
X108739644Y-46855728D01*
X108636731Y-46865864D01*
X108533820Y-46876000D01*
X107796180Y-46876000D01*
X107693269Y-46865864D01*
X107590356Y-46855728D01*
X107394983Y-46796462D01*
X107326263Y-46775616D01*
X107082882Y-46645526D01*
X107082880Y-46645525D01*
X107027309Y-46599918D01*
X106869550Y-46470450D01*
X106731285Y-46301973D01*
X106694475Y-46257120D01*
X106687036Y-46243202D01*
X106564384Y-46013737D01*
X106543538Y-45945017D01*
X106484272Y-45749644D01*
X106457222Y-45475000D01*
X106484272Y-45200356D01*
X106564383Y-44936267D01*
X106564384Y-44936263D01*
X106694474Y-44692882D01*
X106694475Y-44692880D01*
X106740082Y-44637309D01*
X106869550Y-44479550D01*
X107038952Y-44340526D01*
X107082880Y-44304475D01*
X107096798Y-44297036D01*
X107326263Y-44174384D01*
X107394983Y-44153538D01*
X107590356Y-44094272D01*
X107693269Y-44084136D01*
X107796180Y-44074000D01*
X108533820Y-44074000D01*
X108636731Y-44084136D01*
X108636731Y-44084136D01*
G37*
G36*
X114136731Y-44084136D02*
G01*
X114239644Y-44094272D01*
X114435017Y-44153538D01*
X114503737Y-44174384D01*
X114733202Y-44297036D01*
X114747120Y-44304475D01*
X114791048Y-44340526D01*
X114960450Y-44479550D01*
X115089918Y-44637309D01*
X115135525Y-44692880D01*
X115135526Y-44692882D01*
X115265616Y-44936263D01*
X115265617Y-44936267D01*
X115345728Y-45200356D01*
X115372778Y-45475000D01*
X115345728Y-45749644D01*
X115286462Y-45945017D01*
X115265616Y-46013737D01*
X115142964Y-46243202D01*
X115135525Y-46257120D01*
X115098715Y-46301973D01*
X114960450Y-46470450D01*
X114802691Y-46599918D01*
X114747120Y-46645525D01*
X114747118Y-46645526D01*
X114503737Y-46775616D01*
X114435017Y-46796462D01*
X114239644Y-46855728D01*
X114136731Y-46865864D01*
X114033820Y-46876000D01*
X113296180Y-46876000D01*
X113193269Y-46865864D01*
X113090356Y-46855728D01*
X112894983Y-46796462D01*
X112826263Y-46775616D01*
X112582882Y-46645526D01*
X112582880Y-46645525D01*
X112527309Y-46599918D01*
X112369550Y-46470450D01*
X112231285Y-46301973D01*
X112194475Y-46257120D01*
X112187036Y-46243202D01*
X112064384Y-46013737D01*
X112043538Y-45945017D01*
X111984272Y-45749644D01*
X111957222Y-45475000D01*
X111984272Y-45200356D01*
X112064383Y-44936267D01*
X112064384Y-44936263D01*
X112194474Y-44692882D01*
X112194475Y-44692880D01*
X112240082Y-44637309D01*
X112369550Y-44479550D01*
X112538952Y-44340526D01*
X112582880Y-44304475D01*
X112596798Y-44297036D01*
X112826263Y-44174384D01*
X112894983Y-44153538D01*
X113090356Y-44094272D01*
X113193269Y-44084136D01*
X113296180Y-44074000D01*
X114033820Y-44074000D01*
X114136731Y-44084136D01*
X114136731Y-44084136D01*
G37*
G36*
X82025443Y-41650519D02*
G01*
X82091627Y-41657037D01*
X82261466Y-41708557D01*
X82417991Y-41792222D01*
X82444202Y-41813733D01*
X82555186Y-41904814D01*
X82633708Y-42000495D01*
X82667778Y-42042009D01*
X82751443Y-42198534D01*
X82802963Y-42368373D01*
X82820359Y-42545000D01*
X82802963Y-42721627D01*
X82751443Y-42891466D01*
X82667778Y-43047991D01*
X82638448Y-43083729D01*
X82555186Y-43185186D01*
X82453729Y-43268448D01*
X82417991Y-43297778D01*
X82261466Y-43381443D01*
X82091627Y-43432963D01*
X82025442Y-43439482D01*
X81959260Y-43446000D01*
X81870740Y-43446000D01*
X81804558Y-43439482D01*
X81738373Y-43432963D01*
X81568534Y-43381443D01*
X81412009Y-43297778D01*
X81376271Y-43268448D01*
X81274814Y-43185186D01*
X81191552Y-43083729D01*
X81162222Y-43047991D01*
X81078557Y-42891466D01*
X81027037Y-42721627D01*
X81009641Y-42545000D01*
X81027037Y-42368373D01*
X81078557Y-42198534D01*
X81162222Y-42042009D01*
X81196292Y-42000495D01*
X81274814Y-41904814D01*
X81385798Y-41813733D01*
X81412009Y-41792222D01*
X81568534Y-41708557D01*
X81738373Y-41657037D01*
X81804557Y-41650519D01*
X81870740Y-41644000D01*
X81959260Y-41644000D01*
X82025443Y-41650519D01*
X82025443Y-41650519D01*
G37*
G36*
X84565443Y-41650519D02*
G01*
X84631627Y-41657037D01*
X84801466Y-41708557D01*
X84957991Y-41792222D01*
X84984202Y-41813733D01*
X85095186Y-41904814D01*
X85173708Y-42000495D01*
X85207778Y-42042009D01*
X85291443Y-42198534D01*
X85342963Y-42368373D01*
X85360359Y-42545000D01*
X85342963Y-42721627D01*
X85291443Y-42891466D01*
X85207778Y-43047991D01*
X85178448Y-43083729D01*
X85095186Y-43185186D01*
X84993729Y-43268448D01*
X84957991Y-43297778D01*
X84801466Y-43381443D01*
X84631627Y-43432963D01*
X84565442Y-43439482D01*
X84499260Y-43446000D01*
X84410740Y-43446000D01*
X84344558Y-43439482D01*
X84278373Y-43432963D01*
X84108534Y-43381443D01*
X83952009Y-43297778D01*
X83916271Y-43268448D01*
X83814814Y-43185186D01*
X83731552Y-43083729D01*
X83702222Y-43047991D01*
X83618557Y-42891466D01*
X83567037Y-42721627D01*
X83549641Y-42545000D01*
X83567037Y-42368373D01*
X83618557Y-42198534D01*
X83702222Y-42042009D01*
X83736292Y-42000495D01*
X83814814Y-41904814D01*
X83925798Y-41813733D01*
X83952009Y-41792222D01*
X84108534Y-41708557D01*
X84278373Y-41657037D01*
X84344557Y-41650519D01*
X84410740Y-41644000D01*
X84499260Y-41644000D01*
X84565443Y-41650519D01*
X84565443Y-41650519D01*
G37*
G36*
X79485443Y-41650519D02*
G01*
X79551627Y-41657037D01*
X79721466Y-41708557D01*
X79877991Y-41792222D01*
X79904202Y-41813733D01*
X80015186Y-41904814D01*
X80093708Y-42000495D01*
X80127778Y-42042009D01*
X80211443Y-42198534D01*
X80262963Y-42368373D01*
X80280359Y-42545000D01*
X80262963Y-42721627D01*
X80211443Y-42891466D01*
X80127778Y-43047991D01*
X80098448Y-43083729D01*
X80015186Y-43185186D01*
X79913729Y-43268448D01*
X79877991Y-43297778D01*
X79721466Y-43381443D01*
X79551627Y-43432963D01*
X79485442Y-43439482D01*
X79419260Y-43446000D01*
X79330740Y-43446000D01*
X79264558Y-43439482D01*
X79198373Y-43432963D01*
X79028534Y-43381443D01*
X78872009Y-43297778D01*
X78836271Y-43268448D01*
X78734814Y-43185186D01*
X78651552Y-43083729D01*
X78622222Y-43047991D01*
X78538557Y-42891466D01*
X78487037Y-42721627D01*
X78469641Y-42545000D01*
X78487037Y-42368373D01*
X78538557Y-42198534D01*
X78622222Y-42042009D01*
X78656292Y-42000495D01*
X78734814Y-41904814D01*
X78845798Y-41813733D01*
X78872009Y-41792222D01*
X79028534Y-41708557D01*
X79198373Y-41657037D01*
X79264557Y-41650519D01*
X79330740Y-41644000D01*
X79419260Y-41644000D01*
X79485443Y-41650519D01*
X79485443Y-41650519D01*
G37*
G36*
X76945443Y-41650519D02*
G01*
X77011627Y-41657037D01*
X77181466Y-41708557D01*
X77337991Y-41792222D01*
X77364202Y-41813733D01*
X77475186Y-41904814D01*
X77553708Y-42000495D01*
X77587778Y-42042009D01*
X77671443Y-42198534D01*
X77722963Y-42368373D01*
X77740359Y-42545000D01*
X77722963Y-42721627D01*
X77671443Y-42891466D01*
X77587778Y-43047991D01*
X77558448Y-43083729D01*
X77475186Y-43185186D01*
X77373729Y-43268448D01*
X77337991Y-43297778D01*
X77181466Y-43381443D01*
X77011627Y-43432963D01*
X76945442Y-43439482D01*
X76879260Y-43446000D01*
X76790740Y-43446000D01*
X76724558Y-43439482D01*
X76658373Y-43432963D01*
X76488534Y-43381443D01*
X76332009Y-43297778D01*
X76296271Y-43268448D01*
X76194814Y-43185186D01*
X76111552Y-43083729D01*
X76082222Y-43047991D01*
X75998557Y-42891466D01*
X75947037Y-42721627D01*
X75929641Y-42545000D01*
X75947037Y-42368373D01*
X75998557Y-42198534D01*
X76082222Y-42042009D01*
X76116292Y-42000495D01*
X76194814Y-41904814D01*
X76305798Y-41813733D01*
X76332009Y-41792222D01*
X76488534Y-41708557D01*
X76658373Y-41657037D01*
X76724557Y-41650519D01*
X76790740Y-41644000D01*
X76879260Y-41644000D01*
X76945443Y-41650519D01*
X76945443Y-41650519D01*
G37*
G36*
X87105443Y-41650519D02*
G01*
X87171627Y-41657037D01*
X87341466Y-41708557D01*
X87497991Y-41792222D01*
X87524202Y-41813733D01*
X87635186Y-41904814D01*
X87713708Y-42000495D01*
X87747778Y-42042009D01*
X87831443Y-42198534D01*
X87882963Y-42368373D01*
X87900359Y-42545000D01*
X87882963Y-42721627D01*
X87831443Y-42891466D01*
X87747778Y-43047991D01*
X87718448Y-43083729D01*
X87635186Y-43185186D01*
X87533729Y-43268448D01*
X87497991Y-43297778D01*
X87341466Y-43381443D01*
X87171627Y-43432963D01*
X87105442Y-43439482D01*
X87039260Y-43446000D01*
X86950740Y-43446000D01*
X86884558Y-43439482D01*
X86818373Y-43432963D01*
X86648534Y-43381443D01*
X86492009Y-43297778D01*
X86456271Y-43268448D01*
X86354814Y-43185186D01*
X86271552Y-43083729D01*
X86242222Y-43047991D01*
X86158557Y-42891466D01*
X86107037Y-42721627D01*
X86089641Y-42545000D01*
X86107037Y-42368373D01*
X86158557Y-42198534D01*
X86242222Y-42042009D01*
X86276292Y-42000495D01*
X86354814Y-41904814D01*
X86465798Y-41813733D01*
X86492009Y-41792222D01*
X86648534Y-41708557D01*
X86818373Y-41657037D01*
X86884557Y-41650519D01*
X86950740Y-41644000D01*
X87039260Y-41644000D01*
X87105443Y-41650519D01*
X87105443Y-41650519D01*
G37*
G36*
X75196000Y-43446000D02*
G01*
X73394000Y-43446000D01*
X73394000Y-41644000D01*
X75196000Y-41644000D01*
X75196000Y-43446000D01*
X75196000Y-43446000D01*
G37*
G36*
X92185443Y-41650519D02*
G01*
X92251627Y-41657037D01*
X92421466Y-41708557D01*
X92577991Y-41792222D01*
X92604202Y-41813733D01*
X92715186Y-41904814D01*
X92793708Y-42000495D01*
X92827778Y-42042009D01*
X92911443Y-42198534D01*
X92962963Y-42368373D01*
X92980359Y-42545000D01*
X92962963Y-42721627D01*
X92911443Y-42891466D01*
X92827778Y-43047991D01*
X92798448Y-43083729D01*
X92715186Y-43185186D01*
X92613729Y-43268448D01*
X92577991Y-43297778D01*
X92421466Y-43381443D01*
X92251627Y-43432963D01*
X92185442Y-43439482D01*
X92119260Y-43446000D01*
X92030740Y-43446000D01*
X91964558Y-43439482D01*
X91898373Y-43432963D01*
X91728534Y-43381443D01*
X91572009Y-43297778D01*
X91536271Y-43268448D01*
X91434814Y-43185186D01*
X91351552Y-43083729D01*
X91322222Y-43047991D01*
X91238557Y-42891466D01*
X91187037Y-42721627D01*
X91169641Y-42545000D01*
X91187037Y-42368373D01*
X91238557Y-42198534D01*
X91322222Y-42042009D01*
X91356292Y-42000495D01*
X91434814Y-41904814D01*
X91545798Y-41813733D01*
X91572009Y-41792222D01*
X91728534Y-41708557D01*
X91898373Y-41657037D01*
X91964557Y-41650519D01*
X92030740Y-41644000D01*
X92119260Y-41644000D01*
X92185443Y-41650519D01*
X92185443Y-41650519D01*
G37*
G36*
X89645443Y-41650519D02*
G01*
X89711627Y-41657037D01*
X89881466Y-41708557D01*
X90037991Y-41792222D01*
X90064202Y-41813733D01*
X90175186Y-41904814D01*
X90253708Y-42000495D01*
X90287778Y-42042009D01*
X90371443Y-42198534D01*
X90422963Y-42368373D01*
X90440359Y-42545000D01*
X90422963Y-42721627D01*
X90371443Y-42891466D01*
X90287778Y-43047991D01*
X90258448Y-43083729D01*
X90175186Y-43185186D01*
X90073729Y-43268448D01*
X90037991Y-43297778D01*
X89881466Y-43381443D01*
X89711627Y-43432963D01*
X89645442Y-43439482D01*
X89579260Y-43446000D01*
X89490740Y-43446000D01*
X89424558Y-43439482D01*
X89358373Y-43432963D01*
X89188534Y-43381443D01*
X89032009Y-43297778D01*
X88996271Y-43268448D01*
X88894814Y-43185186D01*
X88811552Y-43083729D01*
X88782222Y-43047991D01*
X88698557Y-42891466D01*
X88647037Y-42721627D01*
X88629641Y-42545000D01*
X88647037Y-42368373D01*
X88698557Y-42198534D01*
X88782222Y-42042009D01*
X88816292Y-42000495D01*
X88894814Y-41904814D01*
X89005798Y-41813733D01*
X89032009Y-41792222D01*
X89188534Y-41708557D01*
X89358373Y-41657037D01*
X89424557Y-41650519D01*
X89490740Y-41644000D01*
X89579260Y-41644000D01*
X89645443Y-41650519D01*
X89645443Y-41650519D01*
G37*
G36*
X101169473Y-41870938D02*
G01*
X101297049Y-41923782D01*
X101411859Y-42000495D01*
X101509505Y-42098141D01*
X101586218Y-42212951D01*
X101639062Y-42340527D01*
X101666000Y-42475956D01*
X101666000Y-42614044D01*
X101639062Y-42749473D01*
X101586218Y-42877049D01*
X101509505Y-42991859D01*
X101411859Y-43089505D01*
X101297049Y-43166218D01*
X101169473Y-43219062D01*
X101034044Y-43246000D01*
X100895956Y-43246000D01*
X100760527Y-43219062D01*
X100632951Y-43166218D01*
X100518141Y-43089505D01*
X100420495Y-42991859D01*
X100343782Y-42877049D01*
X100290938Y-42749473D01*
X100264000Y-42614044D01*
X100264000Y-42475956D01*
X100290938Y-42340527D01*
X100343782Y-42212951D01*
X100420495Y-42098141D01*
X100518141Y-42000495D01*
X100632951Y-41923782D01*
X100760527Y-41870938D01*
X100895956Y-41844000D01*
X101034044Y-41844000D01*
X101169473Y-41870938D01*
X101169473Y-41870938D01*
G37*
G36*
X115239031Y-39877621D02*
G01*
X115268486Y-39886556D01*
X115295623Y-39901062D01*
X115319414Y-39920586D01*
X115338938Y-39944377D01*
X115353444Y-39971514D01*
X115362379Y-40000969D01*
X115366000Y-40037734D01*
X115366000Y-42512266D01*
X115362379Y-42549031D01*
X115353444Y-42578486D01*
X115338938Y-42605623D01*
X115319414Y-42629414D01*
X115295623Y-42648938D01*
X115268486Y-42663444D01*
X115239031Y-42672379D01*
X115202266Y-42676000D01*
X112127734Y-42676000D01*
X112090969Y-42672379D01*
X112061514Y-42663444D01*
X112034377Y-42648938D01*
X112010586Y-42629414D01*
X111991062Y-42605623D01*
X111976556Y-42578486D01*
X111967621Y-42549031D01*
X111964000Y-42512266D01*
X111964000Y-40037734D01*
X111967621Y-40000969D01*
X111976556Y-39971514D01*
X111991062Y-39944377D01*
X112010586Y-39920586D01*
X112034377Y-39901062D01*
X112061514Y-39886556D01*
X112090969Y-39877621D01*
X112127734Y-39874000D01*
X115202266Y-39874000D01*
X115239031Y-39877621D01*
X115239031Y-39877621D01*
G37*
G36*
X108636731Y-39884136D02*
G01*
X108739644Y-39894272D01*
X108935017Y-39953538D01*
X109003737Y-39974384D01*
X109206625Y-40082830D01*
X109247120Y-40104475D01*
X109302691Y-40150082D01*
X109460450Y-40279550D01*
X109589918Y-40437309D01*
X109635525Y-40492880D01*
X109635526Y-40492882D01*
X109765616Y-40736263D01*
X109765617Y-40736267D01*
X109845728Y-41000356D01*
X109872778Y-41275000D01*
X109845728Y-41549644D01*
X109817105Y-41644000D01*
X109765616Y-41813737D01*
X109665790Y-42000498D01*
X109635525Y-42057120D01*
X109589918Y-42112691D01*
X109460450Y-42270450D01*
X109341127Y-42368375D01*
X109247120Y-42445525D01*
X109247118Y-42445526D01*
X109003737Y-42575616D01*
X108935017Y-42596462D01*
X108739644Y-42655728D01*
X108636731Y-42665864D01*
X108533820Y-42676000D01*
X107796180Y-42676000D01*
X107693269Y-42665864D01*
X107590356Y-42655728D01*
X107394983Y-42596462D01*
X107326263Y-42575616D01*
X107082882Y-42445526D01*
X107082880Y-42445525D01*
X106988873Y-42368375D01*
X106869550Y-42270450D01*
X106740082Y-42112691D01*
X106694475Y-42057120D01*
X106664210Y-42000498D01*
X106564384Y-41813737D01*
X106512895Y-41644000D01*
X106484272Y-41549644D01*
X106457222Y-41275000D01*
X106484272Y-41000356D01*
X106564383Y-40736267D01*
X106564384Y-40736263D01*
X106694474Y-40492882D01*
X106694475Y-40492880D01*
X106740082Y-40437309D01*
X106869550Y-40279550D01*
X107027309Y-40150082D01*
X107082880Y-40104475D01*
X107123375Y-40082830D01*
X107326263Y-39974384D01*
X107394983Y-39953538D01*
X107590356Y-39894272D01*
X107693269Y-39884136D01*
X107796180Y-39874000D01*
X108533820Y-39874000D01*
X108636731Y-39884136D01*
X108636731Y-39884136D01*
G37*
G36*
X101156560Y-37284064D02*
G01*
X101308027Y-37314193D01*
X101522045Y-37402842D01*
X101522046Y-37402843D01*
X101714654Y-37531539D01*
X101878461Y-37695346D01*
X101964258Y-37823751D01*
X102007158Y-37887955D01*
X102095807Y-38101973D01*
X102141000Y-38329174D01*
X102141000Y-38560826D01*
X102095807Y-38788027D01*
X102007158Y-39002045D01*
X102007157Y-39002046D01*
X101878461Y-39194654D01*
X101714654Y-39358461D01*
X101586249Y-39444258D01*
X101522045Y-39487158D01*
X101308027Y-39575807D01*
X101204426Y-39596414D01*
X101113224Y-39614556D01*
X101089775Y-39621669D01*
X101068164Y-39633220D01*
X101049222Y-39648766D01*
X101033677Y-39667708D01*
X101022126Y-39689318D01*
X101015013Y-39712767D01*
X101012611Y-39737153D01*
X101015013Y-39761539D01*
X101022126Y-39784988D01*
X101033677Y-39806599D01*
X101049223Y-39825541D01*
X101068165Y-39841086D01*
X101089775Y-39852637D01*
X101113225Y-39859750D01*
X101169473Y-39870938D01*
X101297049Y-39923782D01*
X101411859Y-40000495D01*
X101509505Y-40098141D01*
X101586218Y-40212951D01*
X101639062Y-40340527D01*
X101666000Y-40475956D01*
X101666000Y-40614044D01*
X101639062Y-40749473D01*
X101586218Y-40877049D01*
X101509505Y-40991859D01*
X101411859Y-41089505D01*
X101297049Y-41166218D01*
X101169473Y-41219062D01*
X101034044Y-41246000D01*
X100895956Y-41246000D01*
X100760527Y-41219062D01*
X100632951Y-41166218D01*
X100518141Y-41089505D01*
X100420495Y-40991859D01*
X100343782Y-40877049D01*
X100290938Y-40749473D01*
X100264000Y-40614044D01*
X100264000Y-40475956D01*
X100290938Y-40340527D01*
X100343782Y-40212951D01*
X100420495Y-40098141D01*
X100518141Y-40000495D01*
X100632951Y-39923782D01*
X100760527Y-39870938D01*
X100816775Y-39859750D01*
X100840224Y-39852637D01*
X100861835Y-39841087D01*
X100880777Y-39825541D01*
X100896322Y-39806600D01*
X100907874Y-39784989D01*
X100914987Y-39761540D01*
X100917389Y-39737154D01*
X100914987Y-39712768D01*
X100907874Y-39689319D01*
X100896324Y-39667708D01*
X100880778Y-39648766D01*
X100861837Y-39633221D01*
X100840226Y-39621669D01*
X100816776Y-39614556D01*
X100725574Y-39596414D01*
X100621973Y-39575807D01*
X100407955Y-39487158D01*
X100343751Y-39444258D01*
X100215346Y-39358461D01*
X100051539Y-39194654D01*
X99922843Y-39002046D01*
X99922842Y-39002045D01*
X99834193Y-38788027D01*
X99789000Y-38560826D01*
X99789000Y-38329174D01*
X99834193Y-38101973D01*
X99922842Y-37887955D01*
X99965742Y-37823751D01*
X100051539Y-37695346D01*
X100215346Y-37531539D01*
X100407954Y-37402843D01*
X100407955Y-37402842D01*
X100621973Y-37314193D01*
X100773440Y-37284064D01*
X100849173Y-37269000D01*
X101080827Y-37269000D01*
X101156560Y-37284064D01*
X101156560Y-37284064D01*
G37*
G36*
X74405442Y-39110518D02*
G01*
X74471627Y-39117037D01*
X74641466Y-39168557D01*
X74797991Y-39252222D01*
X74833729Y-39281552D01*
X74935186Y-39364814D01*
X75018448Y-39466271D01*
X75047778Y-39502009D01*
X75131443Y-39658534D01*
X75182963Y-39828373D01*
X75200359Y-40005000D01*
X75182963Y-40181627D01*
X75131443Y-40351466D01*
X75047778Y-40507991D01*
X75018448Y-40543729D01*
X74935186Y-40645186D01*
X74833729Y-40728448D01*
X74797991Y-40757778D01*
X74641466Y-40841443D01*
X74471627Y-40892963D01*
X74405442Y-40899482D01*
X74339260Y-40906000D01*
X74250740Y-40906000D01*
X74184558Y-40899482D01*
X74118373Y-40892963D01*
X73948534Y-40841443D01*
X73792009Y-40757778D01*
X73756271Y-40728448D01*
X73654814Y-40645186D01*
X73571552Y-40543729D01*
X73542222Y-40507991D01*
X73458557Y-40351466D01*
X73407037Y-40181627D01*
X73389641Y-40005000D01*
X73407037Y-39828373D01*
X73458557Y-39658534D01*
X73542222Y-39502009D01*
X73571552Y-39466271D01*
X73654814Y-39364814D01*
X73756271Y-39281552D01*
X73792009Y-39252222D01*
X73948534Y-39168557D01*
X74118373Y-39117037D01*
X74184558Y-39110518D01*
X74250740Y-39104000D01*
X74339260Y-39104000D01*
X74405442Y-39110518D01*
X74405442Y-39110518D01*
G37*
G36*
X89645442Y-39110518D02*
G01*
X89711627Y-39117037D01*
X89881466Y-39168557D01*
X90037991Y-39252222D01*
X90073729Y-39281552D01*
X90175186Y-39364814D01*
X90258448Y-39466271D01*
X90287778Y-39502009D01*
X90371443Y-39658534D01*
X90422963Y-39828373D01*
X90440359Y-40005000D01*
X90422963Y-40181627D01*
X90371443Y-40351466D01*
X90287778Y-40507991D01*
X90258448Y-40543729D01*
X90175186Y-40645186D01*
X90073729Y-40728448D01*
X90037991Y-40757778D01*
X89881466Y-40841443D01*
X89711627Y-40892963D01*
X89645442Y-40899482D01*
X89579260Y-40906000D01*
X89490740Y-40906000D01*
X89424558Y-40899482D01*
X89358373Y-40892963D01*
X89188534Y-40841443D01*
X89032009Y-40757778D01*
X88996271Y-40728448D01*
X88894814Y-40645186D01*
X88811552Y-40543729D01*
X88782222Y-40507991D01*
X88698557Y-40351466D01*
X88647037Y-40181627D01*
X88629641Y-40005000D01*
X88647037Y-39828373D01*
X88698557Y-39658534D01*
X88782222Y-39502009D01*
X88811552Y-39466271D01*
X88894814Y-39364814D01*
X88996271Y-39281552D01*
X89032009Y-39252222D01*
X89188534Y-39168557D01*
X89358373Y-39117037D01*
X89424558Y-39110518D01*
X89490740Y-39104000D01*
X89579260Y-39104000D01*
X89645442Y-39110518D01*
X89645442Y-39110518D01*
G37*
G36*
X92185442Y-39110518D02*
G01*
X92251627Y-39117037D01*
X92421466Y-39168557D01*
X92577991Y-39252222D01*
X92613729Y-39281552D01*
X92715186Y-39364814D01*
X92798448Y-39466271D01*
X92827778Y-39502009D01*
X92911443Y-39658534D01*
X92962963Y-39828373D01*
X92980359Y-40005000D01*
X92962963Y-40181627D01*
X92911443Y-40351466D01*
X92827778Y-40507991D01*
X92798448Y-40543729D01*
X92715186Y-40645186D01*
X92613729Y-40728448D01*
X92577991Y-40757778D01*
X92421466Y-40841443D01*
X92251627Y-40892963D01*
X92185442Y-40899482D01*
X92119260Y-40906000D01*
X92030740Y-40906000D01*
X91964558Y-40899482D01*
X91898373Y-40892963D01*
X91728534Y-40841443D01*
X91572009Y-40757778D01*
X91536271Y-40728448D01*
X91434814Y-40645186D01*
X91351552Y-40543729D01*
X91322222Y-40507991D01*
X91238557Y-40351466D01*
X91187037Y-40181627D01*
X91169641Y-40005000D01*
X91187037Y-39828373D01*
X91238557Y-39658534D01*
X91322222Y-39502009D01*
X91351552Y-39466271D01*
X91434814Y-39364814D01*
X91536271Y-39281552D01*
X91572009Y-39252222D01*
X91728534Y-39168557D01*
X91898373Y-39117037D01*
X91964558Y-39110518D01*
X92030740Y-39104000D01*
X92119260Y-39104000D01*
X92185442Y-39110518D01*
X92185442Y-39110518D01*
G37*
G36*
X76945442Y-39110518D02*
G01*
X77011627Y-39117037D01*
X77181466Y-39168557D01*
X77337991Y-39252222D01*
X77373729Y-39281552D01*
X77475186Y-39364814D01*
X77558448Y-39466271D01*
X77587778Y-39502009D01*
X77671443Y-39658534D01*
X77722963Y-39828373D01*
X77740359Y-40005000D01*
X77722963Y-40181627D01*
X77671443Y-40351466D01*
X77587778Y-40507991D01*
X77558448Y-40543729D01*
X77475186Y-40645186D01*
X77373729Y-40728448D01*
X77337991Y-40757778D01*
X77181466Y-40841443D01*
X77011627Y-40892963D01*
X76945442Y-40899482D01*
X76879260Y-40906000D01*
X76790740Y-40906000D01*
X76724558Y-40899482D01*
X76658373Y-40892963D01*
X76488534Y-40841443D01*
X76332009Y-40757778D01*
X76296271Y-40728448D01*
X76194814Y-40645186D01*
X76111552Y-40543729D01*
X76082222Y-40507991D01*
X75998557Y-40351466D01*
X75947037Y-40181627D01*
X75929641Y-40005000D01*
X75947037Y-39828373D01*
X75998557Y-39658534D01*
X76082222Y-39502009D01*
X76111552Y-39466271D01*
X76194814Y-39364814D01*
X76296271Y-39281552D01*
X76332009Y-39252222D01*
X76488534Y-39168557D01*
X76658373Y-39117037D01*
X76724558Y-39110518D01*
X76790740Y-39104000D01*
X76879260Y-39104000D01*
X76945442Y-39110518D01*
X76945442Y-39110518D01*
G37*
G36*
X79485442Y-39110518D02*
G01*
X79551627Y-39117037D01*
X79721466Y-39168557D01*
X79877991Y-39252222D01*
X79913729Y-39281552D01*
X80015186Y-39364814D01*
X80098448Y-39466271D01*
X80127778Y-39502009D01*
X80211443Y-39658534D01*
X80262963Y-39828373D01*
X80280359Y-40005000D01*
X80262963Y-40181627D01*
X80211443Y-40351466D01*
X80127778Y-40507991D01*
X80098448Y-40543729D01*
X80015186Y-40645186D01*
X79913729Y-40728448D01*
X79877991Y-40757778D01*
X79721466Y-40841443D01*
X79551627Y-40892963D01*
X79485442Y-40899482D01*
X79419260Y-40906000D01*
X79330740Y-40906000D01*
X79264558Y-40899482D01*
X79198373Y-40892963D01*
X79028534Y-40841443D01*
X78872009Y-40757778D01*
X78836271Y-40728448D01*
X78734814Y-40645186D01*
X78651552Y-40543729D01*
X78622222Y-40507991D01*
X78538557Y-40351466D01*
X78487037Y-40181627D01*
X78469641Y-40005000D01*
X78487037Y-39828373D01*
X78538557Y-39658534D01*
X78622222Y-39502009D01*
X78651552Y-39466271D01*
X78734814Y-39364814D01*
X78836271Y-39281552D01*
X78872009Y-39252222D01*
X79028534Y-39168557D01*
X79198373Y-39117037D01*
X79264558Y-39110518D01*
X79330740Y-39104000D01*
X79419260Y-39104000D01*
X79485442Y-39110518D01*
X79485442Y-39110518D01*
G37*
G36*
X82025442Y-39110518D02*
G01*
X82091627Y-39117037D01*
X82261466Y-39168557D01*
X82417991Y-39252222D01*
X82453729Y-39281552D01*
X82555186Y-39364814D01*
X82638448Y-39466271D01*
X82667778Y-39502009D01*
X82751443Y-39658534D01*
X82802963Y-39828373D01*
X82820359Y-40005000D01*
X82802963Y-40181627D01*
X82751443Y-40351466D01*
X82667778Y-40507991D01*
X82638448Y-40543729D01*
X82555186Y-40645186D01*
X82453729Y-40728448D01*
X82417991Y-40757778D01*
X82261466Y-40841443D01*
X82091627Y-40892963D01*
X82025442Y-40899482D01*
X81959260Y-40906000D01*
X81870740Y-40906000D01*
X81804558Y-40899482D01*
X81738373Y-40892963D01*
X81568534Y-40841443D01*
X81412009Y-40757778D01*
X81376271Y-40728448D01*
X81274814Y-40645186D01*
X81191552Y-40543729D01*
X81162222Y-40507991D01*
X81078557Y-40351466D01*
X81027037Y-40181627D01*
X81009641Y-40005000D01*
X81027037Y-39828373D01*
X81078557Y-39658534D01*
X81162222Y-39502009D01*
X81191552Y-39466271D01*
X81274814Y-39364814D01*
X81376271Y-39281552D01*
X81412009Y-39252222D01*
X81568534Y-39168557D01*
X81738373Y-39117037D01*
X81804558Y-39110518D01*
X81870740Y-39104000D01*
X81959260Y-39104000D01*
X82025442Y-39110518D01*
X82025442Y-39110518D01*
G37*
G36*
X84565442Y-39110518D02*
G01*
X84631627Y-39117037D01*
X84801466Y-39168557D01*
X84957991Y-39252222D01*
X84993729Y-39281552D01*
X85095186Y-39364814D01*
X85178448Y-39466271D01*
X85207778Y-39502009D01*
X85291443Y-39658534D01*
X85342963Y-39828373D01*
X85360359Y-40005000D01*
X85342963Y-40181627D01*
X85291443Y-40351466D01*
X85207778Y-40507991D01*
X85178448Y-40543729D01*
X85095186Y-40645186D01*
X84993729Y-40728448D01*
X84957991Y-40757778D01*
X84801466Y-40841443D01*
X84631627Y-40892963D01*
X84565442Y-40899482D01*
X84499260Y-40906000D01*
X84410740Y-40906000D01*
X84344558Y-40899482D01*
X84278373Y-40892963D01*
X84108534Y-40841443D01*
X83952009Y-40757778D01*
X83916271Y-40728448D01*
X83814814Y-40645186D01*
X83731552Y-40543729D01*
X83702222Y-40507991D01*
X83618557Y-40351466D01*
X83567037Y-40181627D01*
X83549641Y-40005000D01*
X83567037Y-39828373D01*
X83618557Y-39658534D01*
X83702222Y-39502009D01*
X83731552Y-39466271D01*
X83814814Y-39364814D01*
X83916271Y-39281552D01*
X83952009Y-39252222D01*
X84108534Y-39168557D01*
X84278373Y-39117037D01*
X84344558Y-39110518D01*
X84410740Y-39104000D01*
X84499260Y-39104000D01*
X84565442Y-39110518D01*
X84565442Y-39110518D01*
G37*
G36*
X87105442Y-39110518D02*
G01*
X87171627Y-39117037D01*
X87341466Y-39168557D01*
X87497991Y-39252222D01*
X87533729Y-39281552D01*
X87635186Y-39364814D01*
X87718448Y-39466271D01*
X87747778Y-39502009D01*
X87831443Y-39658534D01*
X87882963Y-39828373D01*
X87900359Y-40005000D01*
X87882963Y-40181627D01*
X87831443Y-40351466D01*
X87747778Y-40507991D01*
X87718448Y-40543729D01*
X87635186Y-40645186D01*
X87533729Y-40728448D01*
X87497991Y-40757778D01*
X87341466Y-40841443D01*
X87171627Y-40892963D01*
X87105442Y-40899482D01*
X87039260Y-40906000D01*
X86950740Y-40906000D01*
X86884558Y-40899482D01*
X86818373Y-40892963D01*
X86648534Y-40841443D01*
X86492009Y-40757778D01*
X86456271Y-40728448D01*
X86354814Y-40645186D01*
X86271552Y-40543729D01*
X86242222Y-40507991D01*
X86158557Y-40351466D01*
X86107037Y-40181627D01*
X86089641Y-40005000D01*
X86107037Y-39828373D01*
X86158557Y-39658534D01*
X86242222Y-39502009D01*
X86271552Y-39466271D01*
X86354814Y-39364814D01*
X86456271Y-39281552D01*
X86492009Y-39252222D01*
X86648534Y-39168557D01*
X86818373Y-39117037D01*
X86884558Y-39110518D01*
X86950740Y-39104000D01*
X87039260Y-39104000D01*
X87105442Y-39110518D01*
X87105442Y-39110518D01*
G37*
M02*
