M48
; DRILL file {KiCad (5.1.2)-1} date 16.04.2020 17:30:30
; FORMAT={-:-/ absolute / metric / decimal}
; #@! TF.CreationDate,2020-04-16T17:30:30+02:00
; #@! TF.GenerationSoftware,Kicad,Pcbnew,(5.1.2)-1
; #@! TF.FileFunction,Plated,1,2,PTH
FMAT,2
METRIC
T1C0.400
T2C0.800
T3C1.000
T4C1.400
T5C1.500
%
G90
G05
T1
X69.215Y-105.41
X71.755Y-105.41
X74.295Y-97.79
X94.615Y-46.99
X96.52Y-46.355
X98.425Y-46.99
X98.425Y-52.07
X98.425Y-86.36
X100.965Y-54.61
T2
X72.39Y-90.17
X72.39Y-92.71
X84.455Y-69.85
X87.955Y-69.85
X100.965Y-40.545
X100.965Y-42.545
X100.965Y-44.545
X74.93Y-71.12
X74.93Y-73.66
X100.965Y-76.2
X100.965Y-83.82
X86.995Y-93.98
X86.995Y-96.52
X86.995Y-99.06
X86.995Y-101.6
X86.995Y-104.14
X86.995Y-106.68
X86.995Y-109.22
X86.995Y-111.76
X86.995Y-114.3
X86.995Y-116.84
X86.995Y-119.38
X86.995Y-121.92
X86.995Y-124.46
X86.995Y-127.0
X86.995Y-129.54
X102.235Y-93.98
X102.235Y-96.52
X102.235Y-99.06
X102.235Y-101.6
X102.235Y-104.14
X102.235Y-106.68
X102.235Y-109.22
X102.235Y-111.76
X102.235Y-114.3
X102.235Y-116.84
X102.235Y-119.38
X102.235Y-121.92
X102.235Y-124.46
X102.235Y-127.0
X102.235Y-129.54
X79.375Y-71.12
X79.375Y-73.66
X68.58Y-90.17
X68.58Y-92.71
X95.885Y-76.2
X95.885Y-83.82
T3
X74.93Y-113.665
X77.47Y-113.665
X98.425Y-64.77
X98.425Y-67.31
X98.425Y-69.85
X98.425Y-72.39
X111.125Y-109.22
X111.125Y-111.76
X111.125Y-114.3
X111.125Y-116.84
X113.665Y-109.22
X113.665Y-111.76
X113.665Y-114.3
X113.665Y-116.84
X76.835Y-94.615
X76.835Y-97.155
X76.835Y-99.695
X76.835Y-102.235
X74.295Y-40.005
X74.295Y-42.545
X76.835Y-40.005
X76.835Y-42.545
X79.375Y-40.005
X79.375Y-42.545
X81.915Y-40.005
X81.915Y-42.545
X84.455Y-40.005
X84.455Y-42.545
X86.995Y-40.005
X86.995Y-42.545
X89.535Y-40.005
X89.535Y-42.545
X92.075Y-40.005
X92.075Y-42.545
X81.915Y-93.98
X81.915Y-96.52
X81.915Y-99.06
X81.915Y-101.6
X81.915Y-104.14
X81.915Y-106.68
X81.915Y-109.22
X81.915Y-111.76
X81.915Y-114.3
X81.915Y-116.84
X81.915Y-119.38
X81.915Y-121.92
X81.915Y-124.46
X81.915Y-127.0
X81.915Y-129.54
X107.315Y-93.98
X107.315Y-96.52
X107.315Y-99.06
X107.315Y-101.6
X107.315Y-104.14
X107.315Y-106.68
X107.315Y-109.22
X107.315Y-111.76
X107.315Y-114.3
X107.315Y-116.84
X107.315Y-119.38
X107.315Y-121.92
X107.315Y-124.46
X107.315Y-127.0
X107.315Y-129.54
X76.835Y-119.38
X76.835Y-121.92
X76.835Y-124.46
X76.835Y-127.0
X76.835Y-129.54
X76.835Y-132.08
T4
X108.165Y-41.275
X108.165Y-45.475
X108.165Y-49.675
X108.165Y-53.875
X108.165Y-58.075
X108.165Y-62.275
X108.165Y-66.475
X108.165Y-70.675
X108.165Y-74.875
X108.165Y-79.075
X108.165Y-83.275
X108.165Y-87.475
X113.665Y-41.275
X113.665Y-45.475
X113.665Y-49.675
X113.665Y-53.875
X113.665Y-58.075
X113.665Y-62.275
X113.665Y-66.475
X113.665Y-70.675
X113.665Y-74.875
X113.665Y-79.075
X113.665Y-83.275
X113.665Y-87.475
T5
X100.965Y-38.445
X100.965Y-46.645
T0
M30
